G75*
%MOIN*%
%OFA0B0*%
%FSLAX24Y24*%
%IPPOS*%
%LPD*%
%AMOC8*
5,1,8,0,0,1.08239X$1,22.5*
%
%ADD10C,0.0098*%
%ADD11C,0.0050*%
%ADD12C,0.0080*%
%ADD13C,0.0030*%
%ADD14R,0.0089X0.0089*%
%ADD15C,0.0060*%
%ADD16C,0.0071*%
%ADD17C,0.0087*%
D10*
X009638Y014161D02*
X009640Y014173D01*
X009645Y014184D01*
X009654Y014193D01*
X009665Y014198D01*
X009677Y014200D01*
X009689Y014198D01*
X009700Y014193D01*
X009709Y014184D01*
X009714Y014173D01*
X009716Y014161D01*
X009714Y014149D01*
X009709Y014138D01*
X009700Y014129D01*
X009689Y014124D01*
X009677Y014122D01*
X009665Y014124D01*
X009654Y014129D01*
X009645Y014138D01*
X009640Y014149D01*
X009638Y014161D01*
X017590Y014161D02*
X017592Y014173D01*
X017597Y014184D01*
X017606Y014193D01*
X017617Y014198D01*
X017629Y014200D01*
X017641Y014198D01*
X017652Y014193D01*
X017661Y014184D01*
X017666Y014173D01*
X017668Y014161D01*
X017666Y014149D01*
X017661Y014138D01*
X017652Y014129D01*
X017641Y014124D01*
X017629Y014122D01*
X017617Y014124D01*
X017606Y014129D01*
X017597Y014138D01*
X017592Y014149D01*
X017590Y014161D01*
X025543Y014161D02*
X025545Y014173D01*
X025550Y014184D01*
X025559Y014193D01*
X025570Y014198D01*
X025582Y014200D01*
X025594Y014198D01*
X025605Y014193D01*
X025614Y014184D01*
X025619Y014173D01*
X025621Y014161D01*
X025619Y014149D01*
X025614Y014138D01*
X025605Y014129D01*
X025594Y014124D01*
X025582Y014122D01*
X025570Y014124D01*
X025559Y014129D01*
X025550Y014138D01*
X025545Y014149D01*
X025543Y014161D01*
X033496Y014161D02*
X033498Y014173D01*
X033503Y014184D01*
X033512Y014193D01*
X033523Y014198D01*
X033535Y014200D01*
X033547Y014198D01*
X033558Y014193D01*
X033567Y014184D01*
X033572Y014173D01*
X033574Y014161D01*
X033572Y014149D01*
X033567Y014138D01*
X033558Y014129D01*
X033547Y014124D01*
X033535Y014122D01*
X033523Y014124D01*
X033512Y014129D01*
X033503Y014138D01*
X033498Y014149D01*
X033496Y014161D01*
X033496Y026130D02*
X033498Y026142D01*
X033503Y026153D01*
X033512Y026162D01*
X033523Y026167D01*
X033535Y026169D01*
X033547Y026167D01*
X033558Y026162D01*
X033567Y026153D01*
X033572Y026142D01*
X033574Y026130D01*
X033572Y026118D01*
X033567Y026107D01*
X033558Y026098D01*
X033547Y026093D01*
X033535Y026091D01*
X033523Y026093D01*
X033512Y026098D01*
X033503Y026107D01*
X033498Y026118D01*
X033496Y026130D01*
X025543Y026130D02*
X025545Y026142D01*
X025550Y026153D01*
X025559Y026162D01*
X025570Y026167D01*
X025582Y026169D01*
X025594Y026167D01*
X025605Y026162D01*
X025614Y026153D01*
X025619Y026142D01*
X025621Y026130D01*
X025619Y026118D01*
X025614Y026107D01*
X025605Y026098D01*
X025594Y026093D01*
X025582Y026091D01*
X025570Y026093D01*
X025559Y026098D01*
X025550Y026107D01*
X025545Y026118D01*
X025543Y026130D01*
X017590Y026130D02*
X017592Y026142D01*
X017597Y026153D01*
X017606Y026162D01*
X017617Y026167D01*
X017629Y026169D01*
X017641Y026167D01*
X017652Y026162D01*
X017661Y026153D01*
X017666Y026142D01*
X017668Y026130D01*
X017666Y026118D01*
X017661Y026107D01*
X017652Y026098D01*
X017641Y026093D01*
X017629Y026091D01*
X017617Y026093D01*
X017606Y026098D01*
X017597Y026107D01*
X017592Y026118D01*
X017590Y026130D01*
X009638Y026130D02*
X009640Y026142D01*
X009645Y026153D01*
X009654Y026162D01*
X009665Y026167D01*
X009677Y026169D01*
X009689Y026167D01*
X009700Y026162D01*
X009709Y026153D01*
X009714Y026142D01*
X009716Y026130D01*
X009714Y026118D01*
X009709Y026107D01*
X009700Y026098D01*
X009689Y026093D01*
X009677Y026091D01*
X009665Y026093D01*
X009654Y026098D01*
X009645Y026107D01*
X009640Y026118D01*
X009638Y026130D01*
D11*
X009480Y026110D02*
X009657Y025933D01*
X009084Y026351D02*
X008784Y026351D01*
X008934Y026351D02*
X008934Y026802D01*
X008784Y026652D01*
X008624Y026802D02*
X008624Y026426D01*
X008549Y026351D01*
X008399Y026351D01*
X008324Y026426D01*
X008324Y026802D01*
X008129Y027153D02*
X007979Y027153D01*
X007904Y027228D01*
X007744Y027153D02*
X007594Y027303D01*
X007669Y027303D02*
X007444Y027303D01*
X007444Y027153D02*
X007444Y027603D01*
X007669Y027603D01*
X007744Y027528D01*
X007744Y027378D01*
X007669Y027303D01*
X007904Y027528D02*
X007979Y027603D01*
X008129Y027603D01*
X008205Y027528D01*
X008205Y027453D01*
X008129Y027378D01*
X008205Y027303D01*
X008205Y027228D01*
X008129Y027153D01*
X008129Y027378D02*
X008054Y027378D01*
X008794Y027594D02*
X008869Y027519D01*
X009169Y027519D01*
X009244Y027594D01*
X009244Y027744D01*
X009169Y027819D01*
X009019Y027979D02*
X009019Y028279D01*
X008794Y028204D02*
X009019Y027979D01*
X008869Y027819D02*
X008794Y027744D01*
X008794Y027594D01*
X008794Y028204D02*
X009244Y028204D01*
X009191Y028674D02*
X009040Y028674D01*
X008965Y028749D01*
X008965Y029050D01*
X009040Y029125D01*
X009191Y029125D01*
X009266Y029050D01*
X009426Y028974D02*
X009576Y029125D01*
X009576Y028674D01*
X009426Y028674D02*
X009726Y028674D01*
X009266Y028749D02*
X009191Y028674D01*
X008809Y028674D02*
X008658Y028674D01*
X008733Y028674D02*
X008733Y029125D01*
X008658Y029125D02*
X008809Y029125D01*
X008850Y029318D02*
X008700Y029318D01*
X008625Y029393D01*
X008625Y029693D01*
X008700Y029768D01*
X008850Y029768D01*
X008925Y029693D01*
X009085Y029768D02*
X009085Y029543D01*
X009235Y029618D01*
X009311Y029618D01*
X009386Y029543D01*
X009386Y029393D01*
X009311Y029318D01*
X009160Y029318D01*
X009085Y029393D01*
X008925Y029393D02*
X008850Y029318D01*
X009085Y029768D02*
X009386Y029768D01*
X010593Y029811D02*
X010593Y029511D01*
X010669Y029436D01*
X010819Y029436D01*
X010894Y029511D01*
X011054Y029436D02*
X011354Y029436D01*
X011204Y029436D02*
X011204Y029886D01*
X011054Y029736D01*
X010894Y029811D02*
X010819Y029886D01*
X010669Y029886D01*
X010593Y029811D01*
X010836Y031394D02*
X011136Y031845D01*
X011296Y031770D02*
X011371Y031845D01*
X011521Y031845D01*
X011596Y031770D01*
X011596Y031695D01*
X011296Y031394D01*
X011596Y031394D01*
X011136Y031394D02*
X010836Y031845D01*
X013743Y029811D02*
X013743Y029511D01*
X013818Y029436D01*
X013968Y029436D01*
X014043Y029511D01*
X014203Y029511D02*
X014279Y029436D01*
X014429Y029436D01*
X014504Y029511D01*
X014504Y029586D01*
X014429Y029661D01*
X014354Y029661D01*
X014429Y029661D02*
X014504Y029736D01*
X014504Y029811D01*
X014429Y029886D01*
X014279Y029886D01*
X014203Y029811D01*
X014043Y029811D02*
X013968Y029886D01*
X013818Y029886D01*
X013743Y029811D01*
X013794Y028103D02*
X013944Y028103D01*
X013869Y028103D02*
X013869Y027653D01*
X013794Y027653D02*
X013944Y027653D01*
X014101Y027728D02*
X014176Y027653D01*
X014326Y027653D01*
X014401Y027728D01*
X014562Y027653D02*
X014862Y027953D01*
X014862Y028028D01*
X014787Y028103D01*
X014637Y028103D01*
X014562Y028028D01*
X014401Y028028D02*
X014326Y028103D01*
X014176Y028103D01*
X014101Y028028D01*
X014101Y027728D01*
X014562Y027653D02*
X014862Y027653D01*
X015397Y027603D02*
X015397Y027153D01*
X015397Y027303D02*
X015622Y027303D01*
X015697Y027378D01*
X015697Y027528D01*
X015622Y027603D01*
X015397Y027603D01*
X015547Y027303D02*
X015697Y027153D01*
X015857Y027228D02*
X015932Y027153D01*
X016082Y027153D01*
X016157Y027228D01*
X016157Y027303D01*
X016082Y027378D01*
X016007Y027378D01*
X016082Y027378D02*
X016157Y027453D01*
X016157Y027528D01*
X016082Y027603D01*
X015932Y027603D01*
X015857Y027528D01*
X015338Y026894D02*
X015188Y026744D01*
X015028Y026819D02*
X015028Y026669D01*
X014953Y026594D01*
X014727Y026594D01*
X014727Y026444D02*
X014727Y026894D01*
X014953Y026894D01*
X015028Y026819D01*
X014877Y026594D02*
X015028Y026444D01*
X014953Y026304D02*
X014727Y026304D01*
X014727Y025853D01*
X014795Y025753D02*
X014870Y025677D01*
X014870Y025527D01*
X014795Y025452D01*
X014570Y025452D01*
X014570Y025302D02*
X014570Y025753D01*
X014795Y025753D01*
X015030Y025753D02*
X015030Y025527D01*
X015180Y025602D01*
X015255Y025602D01*
X015330Y025527D01*
X015330Y025377D01*
X015255Y025302D01*
X015105Y025302D01*
X015030Y025377D01*
X014870Y025302D02*
X014720Y025452D01*
X015030Y025753D02*
X015330Y025753D01*
X015188Y025853D02*
X015488Y025853D01*
X015681Y025933D02*
X015681Y026110D01*
X015858Y026110D01*
X015488Y026154D02*
X015488Y026229D01*
X015413Y026304D01*
X015263Y026304D01*
X015188Y026229D01*
X015028Y026229D02*
X015028Y026079D01*
X014953Y026003D01*
X014727Y026003D01*
X014877Y026003D02*
X015028Y025853D01*
X015188Y025853D02*
X015488Y026154D01*
X015488Y026444D02*
X015188Y026444D01*
X015338Y026444D02*
X015338Y026894D01*
X014953Y026304D02*
X015028Y026229D01*
X016277Y026426D02*
X016352Y026351D01*
X016502Y026351D01*
X016577Y026426D01*
X016577Y026802D01*
X016737Y026652D02*
X016887Y026802D01*
X016887Y026351D01*
X016737Y026351D02*
X017037Y026351D01*
X017433Y026110D02*
X017610Y025933D01*
X017956Y026877D02*
X017956Y027327D01*
X018181Y027327D01*
X018256Y027252D01*
X018256Y027102D01*
X018181Y027027D01*
X017956Y027027D01*
X018106Y027027D02*
X018256Y026877D01*
X018416Y027102D02*
X018716Y027102D01*
X018641Y026877D02*
X018641Y027327D01*
X018416Y027102D01*
X017197Y027594D02*
X017197Y027744D01*
X017122Y027819D01*
X016972Y027979D02*
X016972Y028279D01*
X017197Y028204D02*
X016747Y028204D01*
X016972Y027979D01*
X016822Y027819D02*
X016747Y027744D01*
X016747Y027594D01*
X016822Y027519D01*
X017122Y027519D01*
X017197Y027594D01*
X017143Y028674D02*
X017218Y028749D01*
X017143Y028674D02*
X016993Y028674D01*
X016918Y028749D01*
X016918Y029050D01*
X016993Y029125D01*
X017143Y029125D01*
X017218Y029050D01*
X017378Y028974D02*
X017529Y029125D01*
X017529Y028674D01*
X017679Y028674D02*
X017378Y028674D01*
X016761Y028674D02*
X016611Y028674D01*
X016686Y028674D02*
X016686Y029125D01*
X016611Y029125D02*
X016761Y029125D01*
X016803Y029318D02*
X016653Y029318D01*
X016578Y029393D01*
X016578Y029693D01*
X016653Y029768D01*
X016803Y029768D01*
X016878Y029693D01*
X017038Y029768D02*
X017038Y029543D01*
X017188Y029618D01*
X017263Y029618D01*
X017338Y029543D01*
X017338Y029393D01*
X017263Y029318D01*
X017113Y029318D01*
X017038Y029393D01*
X016878Y029393D02*
X016803Y029318D01*
X017038Y029768D02*
X017338Y029768D01*
X018546Y029811D02*
X018546Y029511D01*
X018621Y029436D01*
X018771Y029436D01*
X018846Y029511D01*
X019007Y029436D02*
X019307Y029436D01*
X019157Y029436D02*
X019157Y029886D01*
X019007Y029736D01*
X018846Y029811D02*
X018771Y029886D01*
X018621Y029886D01*
X018546Y029811D01*
X018788Y031394D02*
X019089Y031845D01*
X019249Y031770D02*
X019324Y031845D01*
X019474Y031845D01*
X019549Y031770D01*
X019549Y031695D01*
X019249Y031394D01*
X019549Y031394D01*
X019089Y031394D02*
X018788Y031845D01*
X021696Y029811D02*
X021696Y029511D01*
X021771Y029436D01*
X021921Y029436D01*
X021996Y029511D01*
X022156Y029511D02*
X022231Y029436D01*
X022381Y029436D01*
X022456Y029511D01*
X022456Y029586D01*
X022381Y029661D01*
X022306Y029661D01*
X022381Y029661D02*
X022456Y029736D01*
X022456Y029811D01*
X022381Y029886D01*
X022231Y029886D01*
X022156Y029811D01*
X021996Y029811D02*
X021921Y029886D01*
X021771Y029886D01*
X021696Y029811D01*
X021747Y028103D02*
X021897Y028103D01*
X021822Y028103D02*
X021822Y027653D01*
X021747Y027653D02*
X021897Y027653D01*
X022054Y027728D02*
X022129Y027653D01*
X022279Y027653D01*
X022354Y027728D01*
X022514Y027653D02*
X022815Y027953D01*
X022815Y028028D01*
X022740Y028103D01*
X022589Y028103D01*
X022514Y028028D01*
X022354Y028028D02*
X022279Y028103D01*
X022129Y028103D01*
X022054Y028028D01*
X022054Y027728D01*
X022514Y027653D02*
X022815Y027653D01*
X023349Y027603D02*
X023349Y027153D01*
X023349Y027303D02*
X023575Y027303D01*
X023650Y027378D01*
X023650Y027528D01*
X023575Y027603D01*
X023349Y027603D01*
X023499Y027303D02*
X023650Y027153D01*
X023810Y027228D02*
X023885Y027153D01*
X024035Y027153D01*
X024110Y027228D01*
X024110Y027303D01*
X024035Y027378D01*
X023960Y027378D01*
X024035Y027378D02*
X024110Y027453D01*
X024110Y027528D01*
X024035Y027603D01*
X023885Y027603D01*
X023810Y027528D01*
X023291Y026894D02*
X023140Y026744D01*
X022980Y026819D02*
X022980Y026669D01*
X022905Y026594D01*
X022680Y026594D01*
X022680Y026444D02*
X022680Y026894D01*
X022905Y026894D01*
X022980Y026819D01*
X022830Y026594D02*
X022980Y026444D01*
X022905Y026304D02*
X022680Y026304D01*
X022680Y025853D01*
X022748Y025753D02*
X022823Y025677D01*
X022823Y025527D01*
X022748Y025452D01*
X022523Y025452D01*
X022673Y025452D02*
X022823Y025302D01*
X022983Y025377D02*
X023058Y025302D01*
X023208Y025302D01*
X023283Y025377D01*
X023283Y025527D01*
X023208Y025602D01*
X023133Y025602D01*
X022983Y025527D01*
X022983Y025753D01*
X023283Y025753D01*
X023140Y025853D02*
X023441Y025853D01*
X023633Y025933D02*
X023633Y026110D01*
X023811Y026110D01*
X023441Y026154D02*
X023441Y026229D01*
X023366Y026304D01*
X023216Y026304D01*
X023140Y026229D01*
X022980Y026229D02*
X022980Y026079D01*
X022905Y026003D01*
X022680Y026003D01*
X022830Y026003D02*
X022980Y025853D01*
X023140Y025853D02*
X023441Y026154D01*
X023441Y026444D02*
X023140Y026444D01*
X023291Y026444D02*
X023291Y026894D01*
X022905Y026304D02*
X022980Y026229D01*
X022748Y025753D02*
X022523Y025753D01*
X022523Y025302D01*
X022483Y024453D02*
X022708Y024453D01*
X022783Y024378D01*
X022783Y024228D01*
X022708Y024153D01*
X022483Y024153D01*
X022483Y024003D02*
X022483Y024453D01*
X022633Y024153D02*
X022783Y024003D01*
X022944Y024078D02*
X022944Y024228D01*
X023169Y024228D01*
X023244Y024153D01*
X023244Y024078D01*
X023169Y024003D01*
X023019Y024003D01*
X022944Y024078D01*
X022944Y024228D02*
X023094Y024378D01*
X023244Y024453D01*
X023633Y024358D02*
X023633Y024181D01*
X023811Y024181D01*
X023638Y023745D02*
X023337Y023745D01*
X023177Y023670D02*
X023177Y023519D01*
X023102Y023444D01*
X022877Y023444D01*
X022877Y023294D02*
X022877Y023745D01*
X023102Y023745D01*
X023177Y023670D01*
X023027Y023444D02*
X023177Y023294D01*
X023337Y023294D02*
X023337Y023369D01*
X023638Y023670D01*
X023638Y023745D01*
X023602Y022800D02*
X023677Y022725D01*
X023677Y022650D01*
X023602Y022575D01*
X023452Y022575D01*
X023377Y022650D01*
X023377Y022725D01*
X023452Y022800D01*
X023602Y022800D01*
X023602Y022575D02*
X023677Y022500D01*
X023677Y022424D01*
X023602Y022349D01*
X023452Y022349D01*
X023377Y022424D01*
X023377Y022500D01*
X023452Y022575D01*
X023217Y022575D02*
X023217Y022725D01*
X023141Y022800D01*
X022916Y022800D01*
X022916Y022349D01*
X022916Y022500D02*
X023141Y022500D01*
X023217Y022575D01*
X023066Y022500D02*
X023217Y022349D01*
X023102Y021894D02*
X023177Y021819D01*
X023177Y021669D01*
X023102Y021594D01*
X022877Y021594D01*
X023027Y021594D02*
X023177Y021444D01*
X023102Y021304D02*
X023177Y021229D01*
X023177Y021079D01*
X023102Y021003D01*
X022877Y021003D01*
X022877Y020853D02*
X022877Y021304D01*
X023102Y021304D01*
X022877Y021444D02*
X022877Y021894D01*
X023102Y021894D01*
X023337Y021819D02*
X023337Y021744D01*
X023412Y021669D01*
X023638Y021669D01*
X023638Y021519D02*
X023638Y021819D01*
X023563Y021894D01*
X023412Y021894D01*
X023337Y021819D01*
X023337Y021519D02*
X023412Y021444D01*
X023563Y021444D01*
X023638Y021519D01*
X023487Y021304D02*
X023337Y021154D01*
X023487Y021304D02*
X023487Y020853D01*
X023337Y020853D02*
X023638Y020853D01*
X023798Y020928D02*
X023873Y020853D01*
X024023Y020853D01*
X024098Y020928D01*
X024098Y021229D01*
X023798Y020928D01*
X023798Y021229D01*
X023873Y021304D01*
X024023Y021304D01*
X024098Y021229D01*
X024369Y021838D02*
X024519Y021838D01*
X024595Y021913D01*
X024755Y021838D02*
X025055Y022138D01*
X025055Y022213D01*
X024980Y022288D01*
X024830Y022288D01*
X024755Y022213D01*
X024595Y022213D02*
X024519Y022288D01*
X024369Y022288D01*
X024294Y022213D01*
X024294Y021913D01*
X024369Y021838D01*
X024755Y021838D02*
X025055Y021838D01*
X025432Y022782D02*
X025582Y022782D01*
X025657Y022858D01*
X025818Y022858D02*
X025893Y022782D01*
X026043Y022782D01*
X026118Y022858D01*
X026118Y022933D01*
X026043Y023008D01*
X025818Y023008D01*
X025818Y022858D01*
X025818Y023008D02*
X025968Y023158D01*
X026118Y023233D01*
X025657Y023158D02*
X025582Y023233D01*
X025432Y023233D01*
X025357Y023158D01*
X025357Y022858D01*
X025432Y022782D01*
X025385Y024181D02*
X025563Y024181D01*
X025563Y024358D01*
X025563Y025933D02*
X025385Y026110D01*
X024990Y026351D02*
X024690Y026351D01*
X024840Y026351D02*
X024840Y026802D01*
X024690Y026652D01*
X024530Y026802D02*
X024530Y026426D01*
X024454Y026351D01*
X024304Y026351D01*
X024229Y026426D01*
X024229Y026802D01*
X024774Y027519D02*
X025075Y027519D01*
X025150Y027594D01*
X025150Y027744D01*
X025075Y027819D01*
X024925Y027979D02*
X024925Y028279D01*
X025150Y028204D02*
X024699Y028204D01*
X024925Y027979D01*
X024774Y027819D02*
X024699Y027744D01*
X024699Y027594D01*
X024774Y027519D01*
X025908Y027327D02*
X025908Y026877D01*
X025908Y027027D02*
X026134Y027027D01*
X026209Y027102D01*
X026209Y027252D01*
X026134Y027327D01*
X025908Y027327D01*
X026059Y027027D02*
X026209Y026877D01*
X026369Y027102D02*
X026669Y027102D01*
X026594Y026877D02*
X026594Y027327D01*
X026369Y027102D01*
X025632Y028674D02*
X025331Y028674D01*
X025481Y028674D02*
X025481Y029125D01*
X025331Y028974D01*
X025171Y029050D02*
X025096Y029125D01*
X024946Y029125D01*
X024871Y029050D01*
X024871Y028749D01*
X024946Y028674D01*
X025096Y028674D01*
X025171Y028749D01*
X024714Y028674D02*
X024564Y028674D01*
X024639Y028674D02*
X024639Y029125D01*
X024564Y029125D02*
X024714Y029125D01*
X024756Y029318D02*
X024831Y029393D01*
X024756Y029318D02*
X024606Y029318D01*
X024530Y029393D01*
X024530Y029693D01*
X024606Y029768D01*
X024756Y029768D01*
X024831Y029693D01*
X024991Y029768D02*
X024991Y029543D01*
X025141Y029618D01*
X025216Y029618D01*
X025291Y029543D01*
X025291Y029393D01*
X025216Y029318D01*
X025066Y029318D01*
X024991Y029393D01*
X024991Y029768D02*
X025291Y029768D01*
X026499Y029811D02*
X026499Y029511D01*
X026574Y029436D01*
X026724Y029436D01*
X026799Y029511D01*
X026959Y029436D02*
X027260Y029436D01*
X027109Y029436D02*
X027109Y029886D01*
X026959Y029736D01*
X026799Y029811D02*
X026724Y029886D01*
X026574Y029886D01*
X026499Y029811D01*
X026741Y031394D02*
X027041Y031845D01*
X027201Y031770D02*
X027277Y031845D01*
X027427Y031845D01*
X027502Y031770D01*
X027502Y031695D01*
X027201Y031394D01*
X027502Y031394D01*
X027041Y031394D02*
X026741Y031845D01*
X029649Y029811D02*
X029649Y029511D01*
X029724Y029436D01*
X029874Y029436D01*
X029949Y029511D01*
X030109Y029511D02*
X030184Y029436D01*
X030334Y029436D01*
X030409Y029511D01*
X030409Y029586D01*
X030334Y029661D01*
X030259Y029661D01*
X030334Y029661D02*
X030409Y029736D01*
X030409Y029811D01*
X030334Y029886D01*
X030184Y029886D01*
X030109Y029811D01*
X029949Y029811D02*
X029874Y029886D01*
X029724Y029886D01*
X029649Y029811D01*
X029700Y028103D02*
X029850Y028103D01*
X029775Y028103D02*
X029775Y027653D01*
X029700Y027653D02*
X029850Y027653D01*
X030007Y027728D02*
X030082Y027653D01*
X030232Y027653D01*
X030307Y027728D01*
X030467Y027653D02*
X030767Y027953D01*
X030767Y028028D01*
X030692Y028103D01*
X030542Y028103D01*
X030467Y028028D01*
X030307Y028028D02*
X030232Y028103D01*
X030082Y028103D01*
X030007Y028028D01*
X030007Y027728D01*
X030467Y027653D02*
X030767Y027653D01*
X031302Y027603D02*
X031302Y027153D01*
X031302Y027303D02*
X031527Y027303D01*
X031602Y027378D01*
X031602Y027528D01*
X031527Y027603D01*
X031302Y027603D01*
X031452Y027303D02*
X031602Y027153D01*
X031763Y027228D02*
X031838Y027153D01*
X031988Y027153D01*
X032063Y027228D01*
X032063Y027303D01*
X031988Y027378D01*
X031913Y027378D01*
X031988Y027378D02*
X032063Y027453D01*
X032063Y027528D01*
X031988Y027603D01*
X031838Y027603D01*
X031763Y027528D01*
X031243Y026894D02*
X031243Y026444D01*
X031093Y026444D02*
X031393Y026444D01*
X031318Y026304D02*
X031168Y026304D01*
X031093Y026229D01*
X030933Y026229D02*
X030933Y026079D01*
X030858Y026003D01*
X030633Y026003D01*
X030633Y025853D02*
X030633Y026304D01*
X030858Y026304D01*
X030933Y026229D01*
X030933Y026444D02*
X030783Y026594D01*
X030858Y026594D02*
X030633Y026594D01*
X030633Y026444D02*
X030633Y026894D01*
X030858Y026894D01*
X030933Y026819D01*
X030933Y026669D01*
X030858Y026594D01*
X031093Y026744D02*
X031243Y026894D01*
X031318Y026304D02*
X031393Y026229D01*
X031393Y026154D01*
X031093Y025853D01*
X031393Y025853D01*
X031236Y025753D02*
X030936Y025753D01*
X030936Y025527D01*
X031086Y025602D01*
X031161Y025602D01*
X031236Y025527D01*
X031236Y025377D01*
X031161Y025302D01*
X031011Y025302D01*
X030936Y025377D01*
X030776Y025302D02*
X030625Y025452D01*
X030701Y025452D02*
X030475Y025452D01*
X030475Y025302D02*
X030475Y025753D01*
X030701Y025753D01*
X030776Y025677D01*
X030776Y025527D01*
X030701Y025452D01*
X030933Y025853D02*
X030783Y026003D01*
X031586Y025933D02*
X031586Y026110D01*
X031763Y026110D01*
X032182Y026426D02*
X032257Y026351D01*
X032407Y026351D01*
X032482Y026426D01*
X032482Y026802D01*
X032642Y026652D02*
X032793Y026802D01*
X032793Y026351D01*
X032943Y026351D02*
X032642Y026351D01*
X032182Y026426D02*
X032182Y026802D01*
X032727Y027519D02*
X033027Y027519D01*
X033103Y027594D01*
X033103Y027744D01*
X033027Y027819D01*
X032877Y027979D02*
X032877Y028279D01*
X032652Y028204D02*
X033103Y028204D01*
X032877Y027979D02*
X032652Y028204D01*
X032727Y027819D02*
X032652Y027744D01*
X032652Y027594D01*
X032727Y027519D01*
X033861Y027327D02*
X033861Y026877D01*
X033861Y027027D02*
X034086Y027027D01*
X034161Y027102D01*
X034161Y027252D01*
X034086Y027327D01*
X033861Y027327D01*
X034011Y027027D02*
X034161Y026877D01*
X034322Y027102D02*
X034622Y027102D01*
X034547Y026877D02*
X034547Y027327D01*
X034322Y027102D01*
X033338Y026110D02*
X033515Y025933D01*
X033515Y024358D02*
X033515Y024181D01*
X033338Y024181D01*
X033385Y023233D02*
X033310Y023158D01*
X033310Y022858D01*
X033385Y022782D01*
X033535Y022782D01*
X033610Y022858D01*
X033770Y022858D02*
X033845Y022782D01*
X033996Y022782D01*
X034071Y022858D01*
X034071Y022933D01*
X033996Y023008D01*
X033770Y023008D01*
X033770Y022858D01*
X033770Y023008D02*
X033921Y023158D01*
X034071Y023233D01*
X033610Y023158D02*
X033535Y023233D01*
X033385Y023233D01*
X032933Y022288D02*
X032782Y022288D01*
X032707Y022213D01*
X032547Y022213D02*
X032472Y022288D01*
X032322Y022288D01*
X032247Y022213D01*
X032247Y021913D01*
X032322Y021838D01*
X032472Y021838D01*
X032547Y021913D01*
X032707Y021838D02*
X033008Y022138D01*
X033008Y022213D01*
X032933Y022288D01*
X033008Y021838D02*
X032707Y021838D01*
X032051Y021229D02*
X031750Y020928D01*
X031826Y020853D01*
X031976Y020853D01*
X032051Y020928D01*
X032051Y021229D01*
X031976Y021304D01*
X031826Y021304D01*
X031750Y021229D01*
X031750Y020928D01*
X031590Y020853D02*
X031290Y020853D01*
X031440Y020853D02*
X031440Y021304D01*
X031290Y021154D01*
X031130Y021229D02*
X031055Y021304D01*
X030830Y021304D01*
X030830Y020853D01*
X030830Y021003D02*
X031055Y021003D01*
X031130Y021079D01*
X031130Y021229D01*
X031130Y021444D02*
X030980Y021594D01*
X031055Y021594D02*
X030830Y021594D01*
X030830Y021444D02*
X030830Y021894D01*
X031055Y021894D01*
X031130Y021819D01*
X031130Y021669D01*
X031055Y021594D01*
X031290Y021519D02*
X031365Y021444D01*
X031515Y021444D01*
X031590Y021519D01*
X031590Y021819D01*
X031515Y021894D01*
X031365Y021894D01*
X031290Y021819D01*
X031290Y021744D01*
X031365Y021669D01*
X031590Y021669D01*
X031555Y022349D02*
X031405Y022349D01*
X031329Y022424D01*
X031329Y022500D01*
X031405Y022575D01*
X031555Y022575D01*
X031630Y022500D01*
X031630Y022424D01*
X031555Y022349D01*
X031555Y022575D02*
X031630Y022650D01*
X031630Y022725D01*
X031555Y022800D01*
X031405Y022800D01*
X031329Y022725D01*
X031329Y022650D01*
X031405Y022575D01*
X031169Y022575D02*
X031169Y022725D01*
X031094Y022800D01*
X030869Y022800D01*
X030869Y022349D01*
X030869Y022500D02*
X031094Y022500D01*
X031169Y022575D01*
X031019Y022500D02*
X031169Y022349D01*
X031130Y023294D02*
X030980Y023444D01*
X031055Y023444D02*
X030830Y023444D01*
X030830Y023294D02*
X030830Y023745D01*
X031055Y023745D01*
X031130Y023670D01*
X031130Y023519D01*
X031055Y023444D01*
X031290Y023369D02*
X031290Y023294D01*
X031290Y023369D02*
X031590Y023670D01*
X031590Y023745D01*
X031290Y023745D01*
X031122Y024003D02*
X031197Y024078D01*
X031197Y024153D01*
X031122Y024228D01*
X030896Y024228D01*
X030896Y024078D01*
X030971Y024003D01*
X031122Y024003D01*
X030896Y024228D02*
X031046Y024378D01*
X031197Y024453D01*
X031586Y024358D02*
X031586Y024181D01*
X031763Y024181D01*
X030736Y024228D02*
X030661Y024153D01*
X030436Y024153D01*
X030436Y024003D02*
X030436Y024453D01*
X030661Y024453D01*
X030736Y024378D01*
X030736Y024228D01*
X030586Y024153D02*
X030736Y024003D01*
X030980Y021003D02*
X031130Y020853D01*
X030334Y017918D02*
X030409Y017843D01*
X030409Y017768D01*
X030334Y017693D01*
X030409Y017618D01*
X030409Y017543D01*
X030334Y017468D01*
X030184Y017468D01*
X030109Y017543D01*
X029949Y017543D02*
X029874Y017468D01*
X029724Y017468D01*
X029649Y017543D01*
X029649Y017843D01*
X029724Y017918D01*
X029874Y017918D01*
X029949Y017843D01*
X030109Y017843D02*
X030184Y017918D01*
X030334Y017918D01*
X030334Y017693D02*
X030259Y017693D01*
X030232Y016134D02*
X030082Y016134D01*
X030007Y016059D01*
X030007Y015759D01*
X030082Y015684D01*
X030232Y015684D01*
X030307Y015759D01*
X030467Y015684D02*
X030767Y015984D01*
X030767Y016059D01*
X030692Y016134D01*
X030542Y016134D01*
X030467Y016059D01*
X030307Y016059D02*
X030232Y016134D01*
X029850Y016134D02*
X029700Y016134D01*
X029775Y016134D02*
X029775Y015684D01*
X029700Y015684D02*
X029850Y015684D01*
X030467Y015684D02*
X030767Y015684D01*
X031302Y015634D02*
X031302Y015184D01*
X031302Y015334D02*
X031527Y015334D01*
X031602Y015409D01*
X031602Y015559D01*
X031527Y015634D01*
X031302Y015634D01*
X031452Y015334D02*
X031602Y015184D01*
X031763Y015259D02*
X031838Y015184D01*
X031988Y015184D01*
X032063Y015259D01*
X032063Y015334D01*
X031988Y015409D01*
X031913Y015409D01*
X031988Y015409D02*
X032063Y015484D01*
X032063Y015559D01*
X031988Y015634D01*
X031838Y015634D01*
X031763Y015559D01*
X031243Y014926D02*
X031243Y014475D01*
X031093Y014475D02*
X031393Y014475D01*
X031318Y014335D02*
X031168Y014335D01*
X031093Y014260D01*
X030933Y014260D02*
X030933Y014110D01*
X030858Y014035D01*
X030633Y014035D01*
X030783Y014035D02*
X030933Y013885D01*
X030936Y013784D02*
X030936Y013559D01*
X031086Y013634D01*
X031161Y013634D01*
X031236Y013559D01*
X031236Y013409D01*
X031161Y013334D01*
X031011Y013334D01*
X030936Y013409D01*
X030776Y013334D02*
X030625Y013484D01*
X030701Y013484D02*
X030475Y013484D01*
X030475Y013334D02*
X030475Y013784D01*
X030701Y013784D01*
X030776Y013709D01*
X030776Y013559D01*
X030701Y013484D01*
X030936Y013784D02*
X031236Y013784D01*
X031093Y013885D02*
X031393Y014185D01*
X031393Y014260D01*
X031318Y014335D01*
X031586Y014141D02*
X031586Y013964D01*
X031586Y014141D02*
X031763Y014141D01*
X031393Y013885D02*
X031093Y013885D01*
X030933Y014260D02*
X030858Y014335D01*
X030633Y014335D01*
X030633Y013885D01*
X030633Y014475D02*
X030633Y014926D01*
X030858Y014926D01*
X030933Y014851D01*
X030933Y014701D01*
X030858Y014626D01*
X030633Y014626D01*
X030783Y014626D02*
X030933Y014475D01*
X031093Y014776D02*
X031243Y014926D01*
X032182Y014833D02*
X032182Y014458D01*
X032257Y014383D01*
X032407Y014383D01*
X032482Y014458D01*
X032482Y014833D01*
X032642Y014683D02*
X032793Y014833D01*
X032793Y014383D01*
X032943Y014383D02*
X032642Y014383D01*
X033338Y014141D02*
X033515Y013964D01*
X033861Y014908D02*
X033861Y015359D01*
X034086Y015359D01*
X034161Y015284D01*
X034161Y015134D01*
X034086Y015059D01*
X033861Y015059D01*
X034011Y015059D02*
X034161Y014908D01*
X034322Y015134D02*
X034547Y015359D01*
X034547Y014908D01*
X034622Y015134D02*
X034322Y015134D01*
X033103Y015625D02*
X033103Y015775D01*
X033027Y015850D01*
X032877Y016011D02*
X032877Y016311D01*
X032652Y016236D02*
X033103Y016236D01*
X032877Y016011D02*
X032652Y016236D01*
X032667Y016706D02*
X032517Y016706D01*
X032592Y016706D02*
X032592Y017156D01*
X032517Y017156D02*
X032667Y017156D01*
X032824Y017081D02*
X032824Y016781D01*
X032899Y016706D01*
X033049Y016706D01*
X033124Y016781D01*
X033284Y016706D02*
X033584Y016706D01*
X033434Y016706D02*
X033434Y017156D01*
X033284Y017006D01*
X033124Y017081D02*
X033049Y017156D01*
X032899Y017156D01*
X032824Y017081D01*
X032708Y017349D02*
X032783Y017424D01*
X032708Y017349D02*
X032558Y017349D01*
X032483Y017424D01*
X032483Y017725D01*
X032558Y017800D01*
X032708Y017800D01*
X032783Y017725D01*
X032944Y017800D02*
X032944Y017575D01*
X033094Y017650D01*
X033169Y017650D01*
X033244Y017575D01*
X033244Y017424D01*
X033169Y017349D01*
X033019Y017349D01*
X032944Y017424D01*
X032944Y017800D02*
X033244Y017800D01*
X034452Y017843D02*
X034452Y017543D01*
X034527Y017468D01*
X034677Y017468D01*
X034752Y017543D01*
X034912Y017468D02*
X035212Y017468D01*
X035062Y017468D02*
X035062Y017918D01*
X034912Y017768D01*
X034752Y017843D02*
X034677Y017918D01*
X034527Y017918D01*
X034452Y017843D01*
X034694Y019426D02*
X034994Y019876D01*
X035154Y019801D02*
X035229Y019876D01*
X035379Y019876D01*
X035455Y019801D01*
X035455Y019726D01*
X035154Y019426D01*
X035455Y019426D01*
X034994Y019426D02*
X034694Y019876D01*
X032727Y015850D02*
X032652Y015775D01*
X032652Y015625D01*
X032727Y015550D01*
X033027Y015550D01*
X033103Y015625D01*
X033515Y012389D02*
X033515Y012212D01*
X033338Y012212D01*
X033385Y011264D02*
X033310Y011189D01*
X033310Y010889D01*
X033385Y010814D01*
X033535Y010814D01*
X033610Y010889D01*
X033770Y010889D02*
X033845Y010814D01*
X033996Y010814D01*
X034071Y010889D01*
X034071Y010964D01*
X033996Y011039D01*
X033770Y011039D01*
X033770Y010889D01*
X033770Y011039D02*
X033921Y011189D01*
X034071Y011264D01*
X033610Y011189D02*
X033535Y011264D01*
X033385Y011264D01*
X032933Y010319D02*
X032782Y010319D01*
X032707Y010244D01*
X032547Y010244D02*
X032472Y010319D01*
X032322Y010319D01*
X032247Y010244D01*
X032247Y009944D01*
X032322Y009869D01*
X032472Y009869D01*
X032547Y009944D01*
X032707Y009869D02*
X033008Y010169D01*
X033008Y010244D01*
X032933Y010319D01*
X033008Y009869D02*
X032707Y009869D01*
X032051Y009260D02*
X031976Y009335D01*
X031826Y009335D01*
X031750Y009260D01*
X031750Y008960D01*
X032051Y009260D01*
X032051Y008960D01*
X031976Y008885D01*
X031826Y008885D01*
X031750Y008960D01*
X031590Y008885D02*
X031290Y008885D01*
X031440Y008885D02*
X031440Y009335D01*
X031290Y009185D01*
X031130Y009110D02*
X031055Y009035D01*
X030830Y009035D01*
X030980Y009035D02*
X031130Y008885D01*
X031130Y009110D02*
X031130Y009260D01*
X031055Y009335D01*
X030830Y009335D01*
X030830Y008885D01*
X030830Y009475D02*
X030830Y009926D01*
X031055Y009926D01*
X031130Y009851D01*
X031130Y009701D01*
X031055Y009626D01*
X030830Y009626D01*
X030980Y009626D02*
X031130Y009475D01*
X031290Y009550D02*
X031365Y009475D01*
X031515Y009475D01*
X031590Y009550D01*
X031590Y009851D01*
X031515Y009926D01*
X031365Y009926D01*
X031290Y009851D01*
X031290Y009776D01*
X031365Y009701D01*
X031590Y009701D01*
X031555Y010381D02*
X031405Y010381D01*
X031329Y010456D01*
X031329Y010531D01*
X031405Y010606D01*
X031555Y010606D01*
X031630Y010531D01*
X031630Y010456D01*
X031555Y010381D01*
X031555Y010606D02*
X031630Y010681D01*
X031630Y010756D01*
X031555Y010831D01*
X031405Y010831D01*
X031329Y010756D01*
X031329Y010681D01*
X031405Y010606D01*
X031169Y010606D02*
X031094Y010531D01*
X030869Y010531D01*
X030869Y010381D02*
X030869Y010831D01*
X031094Y010831D01*
X031169Y010756D01*
X031169Y010606D01*
X031019Y010531D02*
X031169Y010381D01*
X031130Y011326D02*
X030980Y011476D01*
X031055Y011476D02*
X030830Y011476D01*
X030830Y011326D02*
X030830Y011776D01*
X031055Y011776D01*
X031130Y011701D01*
X031130Y011551D01*
X031055Y011476D01*
X031290Y011401D02*
X031590Y011701D01*
X031590Y011776D01*
X031290Y011776D01*
X031122Y012034D02*
X031197Y012110D01*
X031197Y012185D01*
X031122Y012260D01*
X030896Y012260D01*
X031046Y012410D01*
X031197Y012485D01*
X030896Y012260D02*
X030896Y012110D01*
X030971Y012034D01*
X031122Y012034D01*
X030736Y012034D02*
X030586Y012185D01*
X030661Y012185D02*
X030436Y012185D01*
X030436Y012034D02*
X030436Y012485D01*
X030661Y012485D01*
X030736Y012410D01*
X030736Y012260D01*
X030661Y012185D01*
X031586Y012212D02*
X031763Y012212D01*
X031586Y012212D02*
X031586Y012389D01*
X031290Y011401D02*
X031290Y011326D01*
X026594Y014908D02*
X026594Y015359D01*
X026369Y015134D01*
X026669Y015134D01*
X026209Y015134D02*
X026209Y015284D01*
X026134Y015359D01*
X025908Y015359D01*
X025908Y014908D01*
X025908Y015059D02*
X026134Y015059D01*
X026209Y015134D01*
X026059Y015059D02*
X026209Y014908D01*
X025385Y014141D02*
X025563Y013964D01*
X024990Y014383D02*
X024690Y014383D01*
X024840Y014383D02*
X024840Y014833D01*
X024690Y014683D01*
X024530Y014833D02*
X024530Y014458D01*
X024454Y014383D01*
X024304Y014383D01*
X024229Y014458D01*
X024229Y014833D01*
X024035Y015184D02*
X023885Y015184D01*
X023810Y015259D01*
X023650Y015184D02*
X023499Y015334D01*
X023575Y015334D02*
X023349Y015334D01*
X023349Y015184D02*
X023349Y015634D01*
X023575Y015634D01*
X023650Y015559D01*
X023650Y015409D01*
X023575Y015334D01*
X023810Y015559D02*
X023885Y015634D01*
X024035Y015634D01*
X024110Y015559D01*
X024110Y015484D01*
X024035Y015409D01*
X024110Y015334D01*
X024110Y015259D01*
X024035Y015184D01*
X024035Y015409D02*
X023960Y015409D01*
X023291Y014926D02*
X023291Y014475D01*
X023441Y014475D02*
X023140Y014475D01*
X023216Y014335D02*
X023140Y014260D01*
X023216Y014335D02*
X023366Y014335D01*
X023441Y014260D01*
X023441Y014185D01*
X023140Y013885D01*
X023441Y013885D01*
X023283Y013784D02*
X022983Y013784D01*
X022983Y013559D01*
X023133Y013634D01*
X023208Y013634D01*
X023283Y013559D01*
X023283Y013409D01*
X023208Y013334D01*
X023058Y013334D01*
X022983Y013409D01*
X022823Y013334D02*
X022673Y013484D01*
X022748Y013484D02*
X022523Y013484D01*
X022523Y013334D02*
X022523Y013784D01*
X022748Y013784D01*
X022823Y013709D01*
X022823Y013559D01*
X022748Y013484D01*
X022680Y013885D02*
X022680Y014335D01*
X022905Y014335D01*
X022980Y014260D01*
X022980Y014110D01*
X022905Y014035D01*
X022680Y014035D01*
X022830Y014035D02*
X022980Y013885D01*
X023633Y013964D02*
X023633Y014141D01*
X023811Y014141D01*
X022980Y014475D02*
X022830Y014626D01*
X022905Y014626D02*
X022680Y014626D01*
X022680Y014475D02*
X022680Y014926D01*
X022905Y014926D01*
X022980Y014851D01*
X022980Y014701D01*
X022905Y014626D01*
X023140Y014776D02*
X023291Y014926D01*
X022815Y015684D02*
X022514Y015684D01*
X022815Y015984D01*
X022815Y016059D01*
X022740Y016134D01*
X022589Y016134D01*
X022514Y016059D01*
X022354Y016059D02*
X022279Y016134D01*
X022129Y016134D01*
X022054Y016059D01*
X022054Y015759D01*
X022129Y015684D01*
X022279Y015684D01*
X022354Y015759D01*
X021897Y015684D02*
X021747Y015684D01*
X021822Y015684D02*
X021822Y016134D01*
X021747Y016134D02*
X021897Y016134D01*
X021921Y017468D02*
X021996Y017543D01*
X021921Y017468D02*
X021771Y017468D01*
X021696Y017543D01*
X021696Y017843D01*
X021771Y017918D01*
X021921Y017918D01*
X021996Y017843D01*
X022156Y017843D02*
X022231Y017918D01*
X022381Y017918D01*
X022456Y017843D01*
X022456Y017768D01*
X022381Y017693D01*
X022456Y017618D01*
X022456Y017543D01*
X022381Y017468D01*
X022231Y017468D01*
X022156Y017543D01*
X022306Y017693D02*
X022381Y017693D01*
X024530Y017725D02*
X024530Y017424D01*
X024606Y017349D01*
X024756Y017349D01*
X024831Y017424D01*
X024991Y017424D02*
X025066Y017349D01*
X025216Y017349D01*
X025291Y017424D01*
X025291Y017575D01*
X025216Y017650D01*
X025141Y017650D01*
X024991Y017575D01*
X024991Y017800D01*
X025291Y017800D01*
X024831Y017725D02*
X024756Y017800D01*
X024606Y017800D01*
X024530Y017725D01*
X024564Y017156D02*
X024714Y017156D01*
X024639Y017156D02*
X024639Y016706D01*
X024564Y016706D02*
X024714Y016706D01*
X024871Y016781D02*
X024871Y017081D01*
X024946Y017156D01*
X025096Y017156D01*
X025171Y017081D01*
X025331Y017006D02*
X025481Y017156D01*
X025481Y016706D01*
X025331Y016706D02*
X025632Y016706D01*
X025171Y016781D02*
X025096Y016706D01*
X024946Y016706D01*
X024871Y016781D01*
X024925Y016311D02*
X024925Y016011D01*
X024699Y016236D01*
X025150Y016236D01*
X025075Y015850D02*
X025150Y015775D01*
X025150Y015625D01*
X025075Y015550D01*
X024774Y015550D01*
X024699Y015625D01*
X024699Y015775D01*
X024774Y015850D01*
X026499Y017543D02*
X026574Y017468D01*
X026724Y017468D01*
X026799Y017543D01*
X026959Y017468D02*
X027260Y017468D01*
X027109Y017468D02*
X027109Y017918D01*
X026959Y017768D01*
X026799Y017843D02*
X026724Y017918D01*
X026574Y017918D01*
X026499Y017843D01*
X026499Y017543D01*
X026741Y019426D02*
X027041Y019876D01*
X027201Y019801D02*
X027277Y019876D01*
X027427Y019876D01*
X027502Y019801D01*
X027502Y019726D01*
X027201Y019426D01*
X027502Y019426D01*
X027041Y019426D02*
X026741Y019876D01*
X023177Y020853D02*
X023027Y021003D01*
X019549Y019801D02*
X019474Y019876D01*
X019324Y019876D01*
X019249Y019801D01*
X019089Y019876D02*
X018788Y019426D01*
X019089Y019426D02*
X018788Y019876D01*
X019249Y019426D02*
X019549Y019726D01*
X019549Y019801D01*
X019549Y019426D02*
X019249Y019426D01*
X019157Y017918D02*
X019007Y017768D01*
X018846Y017843D02*
X018771Y017918D01*
X018621Y017918D01*
X018546Y017843D01*
X018546Y017543D01*
X018621Y017468D01*
X018771Y017468D01*
X018846Y017543D01*
X019007Y017468D02*
X019307Y017468D01*
X019157Y017468D02*
X019157Y017918D01*
X017679Y016706D02*
X017378Y016706D01*
X017529Y016706D02*
X017529Y017156D01*
X017378Y017006D01*
X017218Y017081D02*
X017143Y017156D01*
X016993Y017156D01*
X016918Y017081D01*
X016918Y016781D01*
X016993Y016706D01*
X017143Y016706D01*
X017218Y016781D01*
X016972Y016311D02*
X016972Y016011D01*
X016747Y016236D01*
X017197Y016236D01*
X017122Y015850D02*
X017197Y015775D01*
X017197Y015625D01*
X017122Y015550D01*
X016822Y015550D01*
X016747Y015625D01*
X016747Y015775D01*
X016822Y015850D01*
X016157Y015559D02*
X016157Y015484D01*
X016082Y015409D01*
X016157Y015334D01*
X016157Y015259D01*
X016082Y015184D01*
X015932Y015184D01*
X015857Y015259D01*
X015697Y015184D02*
X015547Y015334D01*
X015622Y015334D02*
X015397Y015334D01*
X015397Y015184D02*
X015397Y015634D01*
X015622Y015634D01*
X015697Y015559D01*
X015697Y015409D01*
X015622Y015334D01*
X015857Y015559D02*
X015932Y015634D01*
X016082Y015634D01*
X016157Y015559D01*
X016082Y015409D02*
X016007Y015409D01*
X016277Y014833D02*
X016277Y014458D01*
X016352Y014383D01*
X016502Y014383D01*
X016577Y014458D01*
X016577Y014833D01*
X016737Y014683D02*
X016887Y014833D01*
X016887Y014383D01*
X016737Y014383D02*
X017037Y014383D01*
X017433Y014141D02*
X017610Y013964D01*
X017956Y014908D02*
X017956Y015359D01*
X018181Y015359D01*
X018256Y015284D01*
X018256Y015134D01*
X018181Y015059D01*
X017956Y015059D01*
X018106Y015059D02*
X018256Y014908D01*
X018416Y015134D02*
X018641Y015359D01*
X018641Y014908D01*
X018716Y015134D02*
X018416Y015134D01*
X016761Y016706D02*
X016611Y016706D01*
X016686Y016706D02*
X016686Y017156D01*
X016611Y017156D02*
X016761Y017156D01*
X016803Y017349D02*
X016653Y017349D01*
X016578Y017424D01*
X016578Y017725D01*
X016653Y017800D01*
X016803Y017800D01*
X016878Y017725D01*
X017038Y017800D02*
X017038Y017575D01*
X017188Y017650D01*
X017263Y017650D01*
X017338Y017575D01*
X017338Y017424D01*
X017263Y017349D01*
X017113Y017349D01*
X017038Y017424D01*
X016878Y017424D02*
X016803Y017349D01*
X017038Y017800D02*
X017338Y017800D01*
X014504Y017768D02*
X014429Y017693D01*
X014504Y017618D01*
X014504Y017543D01*
X014429Y017468D01*
X014279Y017468D01*
X014203Y017543D01*
X014043Y017543D02*
X013968Y017468D01*
X013818Y017468D01*
X013743Y017543D01*
X013743Y017843D01*
X013818Y017918D01*
X013968Y017918D01*
X014043Y017843D01*
X014203Y017843D02*
X014279Y017918D01*
X014429Y017918D01*
X014504Y017843D01*
X014504Y017768D01*
X014429Y017693D02*
X014354Y017693D01*
X014326Y016134D02*
X014176Y016134D01*
X014101Y016059D01*
X014101Y015759D01*
X014176Y015684D01*
X014326Y015684D01*
X014401Y015759D01*
X014562Y015684D02*
X014862Y015984D01*
X014862Y016059D01*
X014787Y016134D01*
X014637Y016134D01*
X014562Y016059D01*
X014401Y016059D02*
X014326Y016134D01*
X013944Y016134D02*
X013794Y016134D01*
X013869Y016134D02*
X013869Y015684D01*
X013794Y015684D02*
X013944Y015684D01*
X014562Y015684D02*
X014862Y015684D01*
X014953Y014926D02*
X014727Y014926D01*
X014727Y014475D01*
X014727Y014335D02*
X014953Y014335D01*
X015028Y014260D01*
X015028Y014110D01*
X014953Y014035D01*
X014727Y014035D01*
X014727Y013885D02*
X014727Y014335D01*
X014727Y014626D02*
X014953Y014626D01*
X015028Y014701D01*
X015028Y014851D01*
X014953Y014926D01*
X015188Y014776D02*
X015338Y014926D01*
X015338Y014475D01*
X015188Y014475D02*
X015488Y014475D01*
X015413Y014335D02*
X015263Y014335D01*
X015188Y014260D01*
X015413Y014335D02*
X015488Y014260D01*
X015488Y014185D01*
X015188Y013885D01*
X015488Y013885D01*
X015330Y013784D02*
X015030Y013784D01*
X015030Y013559D01*
X015180Y013634D01*
X015255Y013634D01*
X015330Y013559D01*
X015330Y013409D01*
X015255Y013334D01*
X015105Y013334D01*
X015030Y013409D01*
X014870Y013334D02*
X014720Y013484D01*
X014795Y013484D02*
X014570Y013484D01*
X014570Y013334D02*
X014570Y013784D01*
X014795Y013784D01*
X014870Y013709D01*
X014870Y013559D01*
X014795Y013484D01*
X015028Y013885D02*
X014877Y014035D01*
X015028Y014475D02*
X014877Y014626D01*
X015681Y014141D02*
X015681Y013964D01*
X015681Y014141D02*
X015858Y014141D01*
X015291Y012485D02*
X015141Y012410D01*
X014991Y012260D01*
X015216Y012260D01*
X015291Y012185D01*
X015291Y012110D01*
X015216Y012034D01*
X015066Y012034D01*
X014991Y012110D01*
X014991Y012260D01*
X014831Y012260D02*
X014756Y012185D01*
X014530Y012185D01*
X014530Y012034D02*
X014530Y012485D01*
X014756Y012485D01*
X014831Y012410D01*
X014831Y012260D01*
X014681Y012185D02*
X014831Y012034D01*
X014924Y011776D02*
X015149Y011776D01*
X015224Y011701D01*
X015224Y011551D01*
X015149Y011476D01*
X014924Y011476D01*
X014924Y011326D02*
X014924Y011776D01*
X015074Y011476D02*
X015224Y011326D01*
X015385Y011326D02*
X015385Y011401D01*
X015685Y011701D01*
X015685Y011776D01*
X015385Y011776D01*
X015681Y012212D02*
X015858Y012212D01*
X015681Y012212D02*
X015681Y012389D01*
X015649Y010831D02*
X015499Y010831D01*
X015424Y010756D01*
X015424Y010681D01*
X015499Y010606D01*
X015649Y010606D01*
X015724Y010531D01*
X015724Y010456D01*
X015649Y010381D01*
X015499Y010381D01*
X015424Y010456D01*
X015424Y010531D01*
X015499Y010606D01*
X015649Y010606D02*
X015724Y010681D01*
X015724Y010756D01*
X015649Y010831D01*
X015264Y010756D02*
X015264Y010606D01*
X015189Y010531D01*
X014964Y010531D01*
X015114Y010531D02*
X015264Y010381D01*
X014964Y010381D02*
X014964Y010831D01*
X015189Y010831D01*
X015264Y010756D01*
X015149Y009926D02*
X015224Y009851D01*
X015224Y009701D01*
X015149Y009626D01*
X014924Y009626D01*
X015074Y009626D02*
X015224Y009475D01*
X015149Y009335D02*
X015224Y009260D01*
X015224Y009110D01*
X015149Y009035D01*
X014924Y009035D01*
X014924Y008885D02*
X014924Y009335D01*
X015149Y009335D01*
X014924Y009475D02*
X014924Y009926D01*
X015149Y009926D01*
X015385Y009851D02*
X015385Y009776D01*
X015460Y009701D01*
X015685Y009701D01*
X015685Y009851D02*
X015685Y009550D01*
X015610Y009475D01*
X015460Y009475D01*
X015385Y009550D01*
X015535Y009335D02*
X015535Y008885D01*
X015385Y008885D02*
X015685Y008885D01*
X015845Y008960D02*
X016145Y009260D01*
X016145Y008960D01*
X016070Y008885D01*
X015920Y008885D01*
X015845Y008960D01*
X015845Y009260D01*
X015920Y009335D01*
X016070Y009335D01*
X016145Y009260D01*
X015535Y009335D02*
X015385Y009185D01*
X015224Y008885D02*
X015074Y009035D01*
X015385Y009851D02*
X015460Y009926D01*
X015610Y009926D01*
X015685Y009851D01*
X016341Y009944D02*
X016341Y010244D01*
X016417Y010319D01*
X016567Y010319D01*
X016642Y010244D01*
X016802Y010244D02*
X016877Y010319D01*
X017027Y010319D01*
X017102Y010244D01*
X017102Y010169D01*
X016802Y009869D01*
X017102Y009869D01*
X016642Y009944D02*
X016567Y009869D01*
X016417Y009869D01*
X016341Y009944D01*
X017404Y010889D02*
X017480Y010814D01*
X017630Y010814D01*
X017705Y010889D01*
X017865Y010889D02*
X017940Y010814D01*
X018090Y010814D01*
X018165Y010889D01*
X018165Y010964D01*
X018090Y011039D01*
X017865Y011039D01*
X017865Y010889D01*
X017865Y011039D02*
X018015Y011189D01*
X018165Y011264D01*
X017705Y011189D02*
X017630Y011264D01*
X017480Y011264D01*
X017404Y011189D01*
X017404Y010889D01*
X017433Y012212D02*
X017610Y012212D01*
X017610Y012389D01*
X022483Y012485D02*
X022483Y012034D01*
X022483Y012185D02*
X022708Y012185D01*
X022783Y012260D01*
X022783Y012410D01*
X022708Y012485D01*
X022483Y012485D01*
X022633Y012185D02*
X022783Y012034D01*
X022944Y012110D02*
X023019Y012034D01*
X023169Y012034D01*
X023244Y012110D01*
X023244Y012185D01*
X023169Y012260D01*
X022944Y012260D01*
X023094Y012410D01*
X023244Y012485D01*
X022944Y012260D02*
X022944Y012110D01*
X022877Y011776D02*
X023102Y011776D01*
X023177Y011701D01*
X023177Y011551D01*
X023102Y011476D01*
X022877Y011476D01*
X023027Y011476D02*
X023177Y011326D01*
X023337Y011326D02*
X023337Y011401D01*
X023638Y011701D01*
X023638Y011776D01*
X023337Y011776D01*
X022877Y011776D02*
X022877Y011326D01*
X022916Y010831D02*
X023141Y010831D01*
X023217Y010756D01*
X023217Y010606D01*
X023141Y010531D01*
X022916Y010531D01*
X022916Y010381D02*
X022916Y010831D01*
X023066Y010531D02*
X023217Y010381D01*
X023377Y010456D02*
X023377Y010531D01*
X023452Y010606D01*
X023602Y010606D01*
X023677Y010531D01*
X023677Y010456D01*
X023602Y010381D01*
X023452Y010381D01*
X023377Y010456D01*
X023452Y010606D02*
X023377Y010681D01*
X023377Y010756D01*
X023452Y010831D01*
X023602Y010831D01*
X023677Y010756D01*
X023677Y010681D01*
X023602Y010606D01*
X023563Y009926D02*
X023412Y009926D01*
X023337Y009851D01*
X023337Y009776D01*
X023412Y009701D01*
X023638Y009701D01*
X023638Y009851D02*
X023638Y009550D01*
X023563Y009475D01*
X023412Y009475D01*
X023337Y009550D01*
X023177Y009475D02*
X023027Y009626D01*
X023102Y009626D02*
X022877Y009626D01*
X022877Y009475D02*
X022877Y009926D01*
X023102Y009926D01*
X023177Y009851D01*
X023177Y009701D01*
X023102Y009626D01*
X023102Y009335D02*
X023177Y009260D01*
X023177Y009110D01*
X023102Y009035D01*
X022877Y009035D01*
X023027Y009035D02*
X023177Y008885D01*
X023337Y008885D02*
X023638Y008885D01*
X023487Y008885D02*
X023487Y009335D01*
X023337Y009185D01*
X023102Y009335D02*
X022877Y009335D01*
X022877Y008885D01*
X023798Y008960D02*
X024098Y009260D01*
X024098Y008960D01*
X024023Y008885D01*
X023873Y008885D01*
X023798Y008960D01*
X023798Y009260D01*
X023873Y009335D01*
X024023Y009335D01*
X024098Y009260D01*
X024369Y009869D02*
X024519Y009869D01*
X024595Y009944D01*
X024755Y009869D02*
X025055Y010169D01*
X025055Y010244D01*
X024980Y010319D01*
X024830Y010319D01*
X024755Y010244D01*
X024595Y010244D02*
X024519Y010319D01*
X024369Y010319D01*
X024294Y010244D01*
X024294Y009944D01*
X024369Y009869D01*
X024755Y009869D02*
X025055Y009869D01*
X025432Y010814D02*
X025582Y010814D01*
X025657Y010889D01*
X025818Y010889D02*
X025893Y010814D01*
X026043Y010814D01*
X026118Y010889D01*
X026118Y010964D01*
X026043Y011039D01*
X025818Y011039D01*
X025818Y010889D01*
X025818Y011039D02*
X025968Y011189D01*
X026118Y011264D01*
X025657Y011189D02*
X025582Y011264D01*
X025432Y011264D01*
X025357Y011189D01*
X025357Y010889D01*
X025432Y010814D01*
X025385Y012212D02*
X025563Y012212D01*
X025563Y012389D01*
X023811Y012212D02*
X023633Y012212D01*
X023633Y012389D01*
X023563Y009926D02*
X023638Y009851D01*
X016070Y020853D02*
X015920Y020853D01*
X015845Y020928D01*
X016145Y021229D01*
X016145Y020928D01*
X016070Y020853D01*
X015845Y020928D02*
X015845Y021229D01*
X015920Y021304D01*
X016070Y021304D01*
X016145Y021229D01*
X015685Y021519D02*
X015685Y021819D01*
X015610Y021894D01*
X015460Y021894D01*
X015385Y021819D01*
X015385Y021744D01*
X015460Y021669D01*
X015685Y021669D01*
X015685Y021519D02*
X015610Y021444D01*
X015460Y021444D01*
X015385Y021519D01*
X015224Y021444D02*
X015074Y021594D01*
X015149Y021594D02*
X014924Y021594D01*
X014924Y021444D02*
X014924Y021894D01*
X015149Y021894D01*
X015224Y021819D01*
X015224Y021669D01*
X015149Y021594D01*
X015149Y021304D02*
X015224Y021229D01*
X015224Y021079D01*
X015149Y021003D01*
X014924Y021003D01*
X014924Y020853D02*
X014924Y021304D01*
X015149Y021304D01*
X015385Y021154D02*
X015535Y021304D01*
X015535Y020853D01*
X015385Y020853D02*
X015685Y020853D01*
X015224Y020853D02*
X015074Y021003D01*
X014964Y022349D02*
X014964Y022800D01*
X015189Y022800D01*
X015264Y022725D01*
X015264Y022575D01*
X015189Y022500D01*
X014964Y022500D01*
X015114Y022500D02*
X015264Y022349D01*
X015424Y022424D02*
X015499Y022349D01*
X015649Y022349D01*
X015724Y022424D01*
X015724Y022500D01*
X015649Y022575D01*
X015499Y022575D01*
X015424Y022650D01*
X015424Y022725D01*
X015499Y022800D01*
X015649Y022800D01*
X015724Y022725D01*
X015724Y022650D01*
X015649Y022575D01*
X015499Y022575D02*
X015424Y022500D01*
X015424Y022424D01*
X015385Y023294D02*
X015385Y023369D01*
X015685Y023670D01*
X015685Y023745D01*
X015385Y023745D01*
X015224Y023670D02*
X015224Y023519D01*
X015149Y023444D01*
X014924Y023444D01*
X014924Y023294D02*
X014924Y023745D01*
X015149Y023745D01*
X015224Y023670D01*
X015074Y023444D02*
X015224Y023294D01*
X015216Y024003D02*
X015291Y024078D01*
X015291Y024153D01*
X015216Y024228D01*
X014991Y024228D01*
X014991Y024078D01*
X015066Y024003D01*
X015216Y024003D01*
X014991Y024228D02*
X015141Y024378D01*
X015291Y024453D01*
X015681Y024358D02*
X015681Y024181D01*
X015858Y024181D01*
X014831Y024228D02*
X014756Y024153D01*
X014530Y024153D01*
X014530Y024003D02*
X014530Y024453D01*
X014756Y024453D01*
X014831Y024378D01*
X014831Y024228D01*
X014681Y024153D02*
X014831Y024003D01*
X016417Y022288D02*
X016341Y022213D01*
X016341Y021913D01*
X016417Y021838D01*
X016567Y021838D01*
X016642Y021913D01*
X016802Y021838D02*
X017102Y022138D01*
X017102Y022213D01*
X017027Y022288D01*
X016877Y022288D01*
X016802Y022213D01*
X016642Y022213D02*
X016567Y022288D01*
X016417Y022288D01*
X016802Y021838D02*
X017102Y021838D01*
X017480Y022782D02*
X017630Y022782D01*
X017705Y022858D01*
X017865Y022858D02*
X017940Y022782D01*
X018090Y022782D01*
X018165Y022858D01*
X018165Y022933D01*
X018090Y023008D01*
X017865Y023008D01*
X017865Y022858D01*
X017865Y023008D02*
X018015Y023158D01*
X018165Y023233D01*
X017705Y023158D02*
X017630Y023233D01*
X017480Y023233D01*
X017404Y023158D01*
X017404Y022858D01*
X017480Y022782D01*
X017433Y024181D02*
X017610Y024181D01*
X017610Y024358D01*
X016277Y026426D02*
X016277Y026802D01*
X010764Y027102D02*
X010463Y027102D01*
X010688Y027327D01*
X010688Y026877D01*
X010303Y026877D02*
X010153Y027027D01*
X010228Y027027D02*
X010003Y027027D01*
X010003Y026877D02*
X010003Y027327D01*
X010228Y027327D01*
X010303Y027252D01*
X010303Y027102D01*
X010228Y027027D01*
X007905Y026110D02*
X007728Y026110D01*
X007728Y025933D01*
X007535Y025853D02*
X007235Y025853D01*
X007535Y026154D01*
X007535Y026229D01*
X007460Y026304D01*
X007310Y026304D01*
X007235Y026229D01*
X007075Y026229D02*
X007075Y026079D01*
X007000Y026003D01*
X006775Y026003D01*
X006775Y025853D02*
X006775Y026304D01*
X007000Y026304D01*
X007075Y026229D01*
X007075Y026444D02*
X006925Y026594D01*
X007000Y026594D02*
X006775Y026594D01*
X006775Y026444D02*
X006775Y026894D01*
X007000Y026894D01*
X007075Y026819D01*
X007075Y026669D01*
X007000Y026594D01*
X007235Y026444D02*
X007535Y026444D01*
X007385Y026444D02*
X007385Y026894D01*
X007235Y026744D01*
X006925Y026003D02*
X007075Y025853D01*
X007077Y025753D02*
X007077Y025527D01*
X007228Y025602D01*
X007303Y025602D01*
X007378Y025527D01*
X007378Y025377D01*
X007303Y025302D01*
X007153Y025302D01*
X007077Y025377D01*
X006917Y025302D02*
X006767Y025452D01*
X006842Y025452D02*
X006617Y025452D01*
X006617Y025302D02*
X006617Y025753D01*
X006842Y025753D01*
X006917Y025677D01*
X006917Y025527D01*
X006842Y025452D01*
X007077Y025753D02*
X007378Y025753D01*
X007338Y024453D02*
X007188Y024378D01*
X007038Y024228D01*
X007263Y024228D01*
X007338Y024153D01*
X007338Y024078D01*
X007263Y024003D01*
X007113Y024003D01*
X007038Y024078D01*
X007038Y024228D01*
X006878Y024228D02*
X006803Y024153D01*
X006578Y024153D01*
X006728Y024153D02*
X006878Y024003D01*
X006878Y024228D02*
X006878Y024378D01*
X006803Y024453D01*
X006578Y024453D01*
X006578Y024003D01*
X006971Y023745D02*
X007197Y023745D01*
X007272Y023670D01*
X007272Y023519D01*
X007197Y023444D01*
X006971Y023444D01*
X006971Y023294D02*
X006971Y023745D01*
X007122Y023444D02*
X007272Y023294D01*
X007432Y023294D02*
X007432Y023369D01*
X007732Y023670D01*
X007732Y023745D01*
X007432Y023745D01*
X007728Y024181D02*
X007905Y024181D01*
X007728Y024181D02*
X007728Y024358D01*
X007696Y022800D02*
X007546Y022800D01*
X007471Y022725D01*
X007471Y022650D01*
X007546Y022575D01*
X007696Y022575D01*
X007771Y022500D01*
X007771Y022424D01*
X007696Y022349D01*
X007546Y022349D01*
X007471Y022424D01*
X007471Y022500D01*
X007546Y022575D01*
X007696Y022575D02*
X007771Y022650D01*
X007771Y022725D01*
X007696Y022800D01*
X007311Y022725D02*
X007311Y022575D01*
X007236Y022500D01*
X007011Y022500D01*
X007161Y022500D02*
X007311Y022349D01*
X007011Y022349D02*
X007011Y022800D01*
X007236Y022800D01*
X007311Y022725D01*
X007197Y021894D02*
X007272Y021819D01*
X007272Y021669D01*
X007197Y021594D01*
X006971Y021594D01*
X006971Y021444D02*
X006971Y021894D01*
X007197Y021894D01*
X007432Y021819D02*
X007432Y021744D01*
X007507Y021669D01*
X007732Y021669D01*
X007732Y021519D02*
X007732Y021819D01*
X007657Y021894D01*
X007507Y021894D01*
X007432Y021819D01*
X007432Y021519D02*
X007507Y021444D01*
X007657Y021444D01*
X007732Y021519D01*
X007582Y021304D02*
X007432Y021154D01*
X007272Y021229D02*
X007272Y021079D01*
X007197Y021003D01*
X006971Y021003D01*
X006971Y020853D02*
X006971Y021304D01*
X007197Y021304D01*
X007272Y021229D01*
X007272Y021444D02*
X007122Y021594D01*
X007582Y021304D02*
X007582Y020853D01*
X007432Y020853D02*
X007732Y020853D01*
X007892Y020928D02*
X007967Y020853D01*
X008117Y020853D01*
X008192Y020928D01*
X008192Y021229D01*
X007892Y020928D01*
X007892Y021229D01*
X007967Y021304D01*
X008117Y021304D01*
X008192Y021229D01*
X008464Y021838D02*
X008614Y021838D01*
X008689Y021913D01*
X008849Y021838D02*
X009149Y022138D01*
X009149Y022213D01*
X009074Y022288D01*
X008924Y022288D01*
X008849Y022213D01*
X008689Y022213D02*
X008614Y022288D01*
X008464Y022288D01*
X008389Y022213D01*
X008389Y021913D01*
X008464Y021838D01*
X008849Y021838D02*
X009149Y021838D01*
X009527Y022782D02*
X009677Y022782D01*
X009752Y022858D01*
X009912Y022858D02*
X009987Y022782D01*
X010137Y022782D01*
X010212Y022858D01*
X010212Y022933D01*
X010137Y023008D01*
X009912Y023008D01*
X009912Y022858D01*
X009912Y023008D02*
X010062Y023158D01*
X010212Y023233D01*
X009752Y023158D02*
X009677Y023233D01*
X009527Y023233D01*
X009452Y023158D01*
X009452Y022858D01*
X009527Y022782D01*
X009480Y024181D02*
X009657Y024181D01*
X009657Y024358D01*
X007122Y021003D02*
X007272Y020853D01*
X006476Y017918D02*
X006551Y017843D01*
X006551Y017768D01*
X006476Y017693D01*
X006551Y017618D01*
X006551Y017543D01*
X006476Y017468D01*
X006326Y017468D01*
X006251Y017543D01*
X006091Y017543D02*
X006015Y017468D01*
X005865Y017468D01*
X005790Y017543D01*
X005790Y017843D01*
X005865Y017918D01*
X006015Y017918D01*
X006091Y017843D01*
X006251Y017843D02*
X006326Y017918D01*
X006476Y017918D01*
X006476Y017693D02*
X006401Y017693D01*
X006374Y016134D02*
X006223Y016134D01*
X006148Y016059D01*
X006148Y015759D01*
X006223Y015684D01*
X006374Y015684D01*
X006449Y015759D01*
X006609Y015684D02*
X006909Y015984D01*
X006909Y016059D01*
X006834Y016134D01*
X006684Y016134D01*
X006609Y016059D01*
X006449Y016059D02*
X006374Y016134D01*
X005992Y016134D02*
X005841Y016134D01*
X005917Y016134D02*
X005917Y015684D01*
X005992Y015684D02*
X005841Y015684D01*
X006609Y015684D02*
X006909Y015684D01*
X007444Y015634D02*
X007444Y015184D01*
X007444Y015334D02*
X007669Y015334D01*
X007744Y015409D01*
X007744Y015559D01*
X007669Y015634D01*
X007444Y015634D01*
X007594Y015334D02*
X007744Y015184D01*
X007904Y015259D02*
X007979Y015184D01*
X008129Y015184D01*
X008205Y015259D01*
X008205Y015334D01*
X008129Y015409D01*
X008054Y015409D01*
X008129Y015409D02*
X008205Y015484D01*
X008205Y015559D01*
X008129Y015634D01*
X007979Y015634D01*
X007904Y015559D01*
X007385Y014926D02*
X007385Y014475D01*
X007235Y014475D02*
X007535Y014475D01*
X007460Y014335D02*
X007310Y014335D01*
X007235Y014260D01*
X007075Y014260D02*
X007075Y014110D01*
X007000Y014035D01*
X006775Y014035D01*
X006925Y014035D02*
X007075Y013885D01*
X007077Y013784D02*
X007077Y013559D01*
X007228Y013634D01*
X007303Y013634D01*
X007378Y013559D01*
X007378Y013409D01*
X007303Y013334D01*
X007153Y013334D01*
X007077Y013409D01*
X006917Y013334D02*
X006767Y013484D01*
X006842Y013484D02*
X006617Y013484D01*
X006617Y013334D02*
X006617Y013784D01*
X006842Y013784D01*
X006917Y013709D01*
X006917Y013559D01*
X006842Y013484D01*
X007077Y013784D02*
X007378Y013784D01*
X007235Y013885D02*
X007535Y013885D01*
X007728Y013964D02*
X007728Y014141D01*
X007905Y014141D01*
X007535Y014185D02*
X007535Y014260D01*
X007460Y014335D01*
X007535Y014185D02*
X007235Y013885D01*
X007075Y014260D02*
X007000Y014335D01*
X006775Y014335D01*
X006775Y013885D01*
X006775Y014475D02*
X006775Y014926D01*
X007000Y014926D01*
X007075Y014851D01*
X007075Y014701D01*
X007000Y014626D01*
X006775Y014626D01*
X006925Y014626D02*
X007075Y014475D01*
X007235Y014776D02*
X007385Y014926D01*
X008324Y014833D02*
X008324Y014458D01*
X008399Y014383D01*
X008549Y014383D01*
X008624Y014458D01*
X008624Y014833D01*
X008784Y014683D02*
X008934Y014833D01*
X008934Y014383D01*
X008784Y014383D02*
X009084Y014383D01*
X009480Y014141D02*
X009657Y013964D01*
X010003Y014908D02*
X010003Y015359D01*
X010228Y015359D01*
X010303Y015284D01*
X010303Y015134D01*
X010228Y015059D01*
X010003Y015059D01*
X010153Y015059D02*
X010303Y014908D01*
X010463Y015134D02*
X010764Y015134D01*
X010688Y015359D02*
X010688Y014908D01*
X010463Y015134D02*
X010688Y015359D01*
X009244Y015625D02*
X009244Y015775D01*
X009169Y015850D01*
X009019Y016011D02*
X009019Y016311D01*
X008794Y016236D02*
X009019Y016011D01*
X008869Y015850D02*
X008794Y015775D01*
X008794Y015625D01*
X008869Y015550D01*
X009169Y015550D01*
X009244Y015625D01*
X009244Y016236D02*
X008794Y016236D01*
X008809Y016706D02*
X008658Y016706D01*
X008733Y016706D02*
X008733Y017156D01*
X008658Y017156D02*
X008809Y017156D01*
X008965Y017081D02*
X008965Y016781D01*
X009040Y016706D01*
X009191Y016706D01*
X009266Y016781D01*
X009426Y016706D02*
X009726Y016706D01*
X009576Y016706D02*
X009576Y017156D01*
X009426Y017006D01*
X009266Y017081D02*
X009191Y017156D01*
X009040Y017156D01*
X008965Y017081D01*
X008850Y017349D02*
X008700Y017349D01*
X008625Y017424D01*
X008625Y017725D01*
X008700Y017800D01*
X008850Y017800D01*
X008925Y017725D01*
X009085Y017800D02*
X009085Y017575D01*
X009235Y017650D01*
X009311Y017650D01*
X009386Y017575D01*
X009386Y017424D01*
X009311Y017349D01*
X009160Y017349D01*
X009085Y017424D01*
X008925Y017424D02*
X008850Y017349D01*
X009085Y017800D02*
X009386Y017800D01*
X010593Y017843D02*
X010593Y017543D01*
X010669Y017468D01*
X010819Y017468D01*
X010894Y017543D01*
X011054Y017468D02*
X011354Y017468D01*
X011204Y017468D02*
X011204Y017918D01*
X011054Y017768D01*
X010894Y017843D02*
X010819Y017918D01*
X010669Y017918D01*
X010593Y017843D01*
X010836Y019426D02*
X011136Y019876D01*
X011296Y019801D02*
X011371Y019876D01*
X011521Y019876D01*
X011596Y019801D01*
X011596Y019726D01*
X011296Y019426D01*
X011596Y019426D01*
X011136Y019426D02*
X010836Y019876D01*
X009657Y012389D02*
X009657Y012212D01*
X009480Y012212D01*
X009527Y011264D02*
X009452Y011189D01*
X009452Y010889D01*
X009527Y010814D01*
X009677Y010814D01*
X009752Y010889D01*
X009912Y010889D02*
X009987Y010814D01*
X010137Y010814D01*
X010212Y010889D01*
X010212Y010964D01*
X010137Y011039D01*
X009912Y011039D01*
X009912Y010889D01*
X009912Y011039D02*
X010062Y011189D01*
X010212Y011264D01*
X009752Y011189D02*
X009677Y011264D01*
X009527Y011264D01*
X009074Y010319D02*
X008924Y010319D01*
X008849Y010244D01*
X008689Y010244D02*
X008614Y010319D01*
X008464Y010319D01*
X008389Y010244D01*
X008389Y009944D01*
X008464Y009869D01*
X008614Y009869D01*
X008689Y009944D01*
X008849Y009869D02*
X009149Y010169D01*
X009149Y010244D01*
X009074Y010319D01*
X009149Y009869D02*
X008849Y009869D01*
X008192Y009260D02*
X007892Y008960D01*
X007967Y008885D01*
X008117Y008885D01*
X008192Y008960D01*
X008192Y009260D01*
X008117Y009335D01*
X007967Y009335D01*
X007892Y009260D01*
X007892Y008960D01*
X007732Y008885D02*
X007432Y008885D01*
X007582Y008885D02*
X007582Y009335D01*
X007432Y009185D01*
X007272Y009110D02*
X007197Y009035D01*
X006971Y009035D01*
X006971Y008885D02*
X006971Y009335D01*
X007197Y009335D01*
X007272Y009260D01*
X007272Y009110D01*
X007122Y009035D02*
X007272Y008885D01*
X007272Y009475D02*
X007122Y009626D01*
X007197Y009626D02*
X006971Y009626D01*
X006971Y009475D02*
X006971Y009926D01*
X007197Y009926D01*
X007272Y009851D01*
X007272Y009701D01*
X007197Y009626D01*
X007432Y009550D02*
X007507Y009475D01*
X007657Y009475D01*
X007732Y009550D01*
X007732Y009851D01*
X007657Y009926D01*
X007507Y009926D01*
X007432Y009851D01*
X007432Y009776D01*
X007507Y009701D01*
X007732Y009701D01*
X007696Y010381D02*
X007546Y010381D01*
X007471Y010456D01*
X007471Y010531D01*
X007546Y010606D01*
X007696Y010606D01*
X007771Y010531D01*
X007771Y010456D01*
X007696Y010381D01*
X007696Y010606D02*
X007771Y010681D01*
X007771Y010756D01*
X007696Y010831D01*
X007546Y010831D01*
X007471Y010756D01*
X007471Y010681D01*
X007546Y010606D01*
X007311Y010606D02*
X007236Y010531D01*
X007011Y010531D01*
X007161Y010531D02*
X007311Y010381D01*
X007311Y010606D02*
X007311Y010756D01*
X007236Y010831D01*
X007011Y010831D01*
X007011Y010381D01*
X006971Y011326D02*
X006971Y011776D01*
X007197Y011776D01*
X007272Y011701D01*
X007272Y011551D01*
X007197Y011476D01*
X006971Y011476D01*
X007122Y011476D02*
X007272Y011326D01*
X007432Y011326D02*
X007432Y011401D01*
X007732Y011701D01*
X007732Y011776D01*
X007432Y011776D01*
X007263Y012034D02*
X007113Y012034D01*
X007038Y012110D01*
X007038Y012260D01*
X007188Y012410D01*
X007338Y012485D01*
X007263Y012260D02*
X007038Y012260D01*
X006878Y012260D02*
X006878Y012410D01*
X006803Y012485D01*
X006578Y012485D01*
X006578Y012034D01*
X006578Y012185D02*
X006803Y012185D01*
X006878Y012260D01*
X006728Y012185D02*
X006878Y012034D01*
X007263Y012034D02*
X007338Y012110D01*
X007338Y012185D01*
X007263Y012260D01*
X007728Y012212D02*
X007905Y012212D01*
X007728Y012212D02*
X007728Y012389D01*
X006909Y027653D02*
X006609Y027653D01*
X006909Y027953D01*
X006909Y028028D01*
X006834Y028103D01*
X006684Y028103D01*
X006609Y028028D01*
X006449Y028028D02*
X006374Y028103D01*
X006223Y028103D01*
X006148Y028028D01*
X006148Y027728D01*
X006223Y027653D01*
X006374Y027653D01*
X006449Y027728D01*
X005992Y027653D02*
X005841Y027653D01*
X005917Y027653D02*
X005917Y028103D01*
X005992Y028103D02*
X005841Y028103D01*
X005865Y029436D02*
X006015Y029436D01*
X006091Y029511D01*
X006251Y029511D02*
X006326Y029436D01*
X006476Y029436D01*
X006551Y029511D01*
X006551Y029586D01*
X006476Y029661D01*
X006401Y029661D01*
X006476Y029661D02*
X006551Y029736D01*
X006551Y029811D01*
X006476Y029886D01*
X006326Y029886D01*
X006251Y029811D01*
X006091Y029811D02*
X006015Y029886D01*
X005865Y029886D01*
X005790Y029811D01*
X005790Y029511D01*
X005865Y029436D01*
X032483Y029393D02*
X032558Y029318D01*
X032708Y029318D01*
X032783Y029393D01*
X032944Y029393D02*
X033019Y029318D01*
X033169Y029318D01*
X033244Y029393D01*
X033244Y029543D01*
X033169Y029618D01*
X033094Y029618D01*
X032944Y029543D01*
X032944Y029768D01*
X033244Y029768D01*
X032783Y029693D02*
X032708Y029768D01*
X032558Y029768D01*
X032483Y029693D01*
X032483Y029393D01*
X032517Y029125D02*
X032667Y029125D01*
X032592Y029125D02*
X032592Y028674D01*
X032517Y028674D02*
X032667Y028674D01*
X032824Y028749D02*
X032824Y029050D01*
X032899Y029125D01*
X033049Y029125D01*
X033124Y029050D01*
X033284Y028974D02*
X033434Y029125D01*
X033434Y028674D01*
X033284Y028674D02*
X033584Y028674D01*
X033124Y028749D02*
X033049Y028674D01*
X032899Y028674D01*
X032824Y028749D01*
X034452Y029511D02*
X034527Y029436D01*
X034677Y029436D01*
X034752Y029511D01*
X034912Y029436D02*
X035212Y029436D01*
X035062Y029436D02*
X035062Y029886D01*
X034912Y029736D01*
X034752Y029811D02*
X034677Y029886D01*
X034527Y029886D01*
X034452Y029811D01*
X034452Y029511D01*
X034694Y031394D02*
X034994Y031845D01*
X035154Y031770D02*
X035229Y031845D01*
X035379Y031845D01*
X035455Y031770D01*
X035455Y031695D01*
X035154Y031394D01*
X035455Y031394D01*
X034994Y031394D02*
X034694Y031845D01*
D12*
X005647Y008150D02*
X004738Y008150D01*
X004738Y020251D01*
X005647Y020251D01*
X005647Y008150D01*
X010738Y009650D02*
X011647Y009650D01*
X011647Y011751D01*
X010738Y011751D01*
X010738Y009650D01*
X011738Y008150D02*
X012647Y008150D01*
X012647Y020251D01*
X011738Y020251D01*
X011738Y008150D01*
X012691Y008150D02*
X013600Y008150D01*
X013600Y020251D01*
X012691Y020251D01*
X012691Y008150D01*
X018691Y009650D02*
X019600Y009650D01*
X019600Y011751D01*
X018691Y011751D01*
X018691Y009650D01*
X019691Y008150D02*
X020600Y008150D01*
X020600Y020251D01*
X019691Y020251D01*
X019691Y008150D01*
X020643Y008150D02*
X021553Y008150D01*
X021553Y020251D01*
X020643Y020251D01*
X020643Y008150D01*
X026643Y009650D02*
X027553Y009650D01*
X027553Y011751D01*
X026643Y011751D01*
X026643Y009650D01*
X027643Y008150D02*
X028553Y008150D01*
X028553Y020251D01*
X027643Y020251D01*
X027643Y008150D01*
X028596Y008150D02*
X029505Y008150D01*
X029505Y020251D01*
X028596Y020251D01*
X028596Y008150D01*
X034596Y009650D02*
X035505Y009650D01*
X035505Y011751D01*
X034596Y011751D01*
X034596Y009650D01*
X035596Y008150D02*
X036505Y008150D01*
X036505Y020251D01*
X035596Y020251D01*
X035596Y008150D01*
X035602Y019342D02*
X029500Y019342D01*
X029500Y020106D01*
X035602Y020106D01*
X035602Y019342D01*
X035596Y020118D02*
X036505Y020118D01*
X036505Y032220D01*
X035596Y032220D01*
X035596Y020118D01*
X035505Y021618D02*
X034596Y021618D01*
X034596Y023720D01*
X035505Y023720D01*
X035505Y021618D01*
X029505Y020118D02*
X028596Y020118D01*
X028596Y032220D01*
X029505Y032220D01*
X029505Y020118D01*
X028553Y020118D02*
X027643Y020118D01*
X027643Y032220D01*
X028553Y032220D01*
X028553Y020118D01*
X027649Y020106D02*
X027649Y019342D01*
X021547Y019342D01*
X021547Y020106D01*
X027649Y020106D01*
X027553Y021618D02*
X026643Y021618D01*
X026643Y023720D01*
X027553Y023720D01*
X027553Y021618D01*
X021553Y020118D02*
X020643Y020118D01*
X020643Y032220D01*
X021553Y032220D01*
X021553Y020118D01*
X020600Y020118D02*
X019691Y020118D01*
X019691Y032220D01*
X020600Y032220D01*
X020600Y020118D01*
X019696Y020106D02*
X019696Y019342D01*
X013594Y019342D01*
X013594Y020106D01*
X019696Y020106D01*
X019600Y021618D02*
X018691Y021618D01*
X018691Y023720D01*
X019600Y023720D01*
X019600Y021618D01*
X013600Y020118D02*
X012691Y020118D01*
X012691Y032220D01*
X013600Y032220D01*
X013600Y020118D01*
X012647Y020118D02*
X011738Y020118D01*
X011738Y032220D01*
X012647Y032220D01*
X012647Y020118D01*
X011743Y020106D02*
X011743Y019342D01*
X005642Y019342D01*
X005642Y020106D01*
X011743Y020106D01*
X011647Y021618D02*
X010738Y021618D01*
X010738Y023720D01*
X011647Y023720D01*
X011647Y021618D01*
X005647Y020118D02*
X004738Y020118D01*
X004738Y032220D01*
X005647Y032220D01*
X005647Y020118D01*
X005642Y031311D02*
X011743Y031311D01*
X011743Y032074D01*
X005642Y032074D01*
X005642Y031311D01*
X013594Y031311D02*
X019696Y031311D01*
X019696Y032074D01*
X013594Y032074D01*
X013594Y031311D01*
X021547Y031311D02*
X027649Y031311D01*
X027649Y032074D01*
X021547Y032074D01*
X021547Y031311D01*
X029500Y031311D02*
X035602Y031311D01*
X035602Y032074D01*
X029500Y032074D01*
X029500Y031311D01*
D13*
X029750Y031582D02*
X029616Y031717D01*
X030019Y031717D01*
X030019Y031851D02*
X030019Y031582D01*
X029531Y030800D02*
X029262Y030800D01*
X029397Y030800D02*
X029397Y030397D01*
X029531Y030531D01*
X029066Y031582D02*
X029066Y031851D01*
X029066Y031717D02*
X028663Y031717D01*
X028798Y031582D01*
X022066Y031582D02*
X022066Y031851D01*
X022066Y031717D02*
X021663Y031717D01*
X021798Y031582D01*
X021114Y031582D02*
X021114Y031851D01*
X021114Y031717D02*
X020710Y031717D01*
X020845Y031582D01*
X021309Y030800D02*
X021578Y030800D01*
X021444Y030800D02*
X021444Y030397D01*
X021578Y030531D01*
X014114Y031582D02*
X014114Y031851D01*
X014114Y031717D02*
X013710Y031717D01*
X013845Y031582D01*
X013161Y031582D02*
X013161Y031851D01*
X013161Y031717D02*
X012758Y031717D01*
X012892Y031582D01*
X013357Y030800D02*
X013626Y030800D01*
X013491Y030800D02*
X013491Y030397D01*
X013626Y030531D01*
X006161Y031582D02*
X006161Y031851D01*
X006161Y031717D02*
X005758Y031717D01*
X005892Y031582D01*
X005673Y030800D02*
X005404Y030800D01*
X005538Y030800D02*
X005538Y030397D01*
X005673Y030531D01*
X011758Y023217D02*
X012161Y023217D01*
X012161Y023351D02*
X012161Y023082D01*
X011892Y023082D02*
X011758Y023217D01*
X013161Y019883D02*
X013161Y019614D01*
X013161Y019748D02*
X012758Y019748D01*
X012892Y019614D01*
X013710Y019748D02*
X014114Y019748D01*
X014114Y019614D02*
X014114Y019883D01*
X013845Y019614D02*
X013710Y019748D01*
X013626Y018832D02*
X013357Y018832D01*
X013491Y018832D02*
X013491Y018428D01*
X013626Y018563D01*
X019710Y023217D02*
X020114Y023217D01*
X020114Y023351D02*
X020114Y023082D01*
X019845Y023082D02*
X019710Y023217D01*
X021114Y019883D02*
X021114Y019614D01*
X021114Y019748D02*
X020710Y019748D01*
X020845Y019614D01*
X021663Y019748D02*
X022066Y019748D01*
X022066Y019614D02*
X022066Y019883D01*
X021798Y019614D02*
X021663Y019748D01*
X021578Y018832D02*
X021309Y018832D01*
X021444Y018832D02*
X021444Y018428D01*
X021578Y018563D01*
X027663Y023217D02*
X028066Y023217D01*
X028066Y023351D02*
X028066Y023082D01*
X027798Y023082D02*
X027663Y023217D01*
X029066Y019883D02*
X029066Y019614D01*
X029066Y019748D02*
X028663Y019748D01*
X028798Y019614D01*
X029616Y019748D02*
X030019Y019748D01*
X030019Y019614D02*
X030019Y019883D01*
X029750Y019614D02*
X029616Y019748D01*
X029531Y018832D02*
X029262Y018832D01*
X029397Y018832D02*
X029397Y018428D01*
X029531Y018563D01*
X035616Y023217D02*
X036019Y023217D01*
X036019Y023351D02*
X036019Y023082D01*
X035750Y023082D02*
X035616Y023217D01*
X037019Y019883D02*
X037019Y019614D01*
X037019Y019748D02*
X036616Y019748D01*
X036750Y019614D01*
X036019Y011383D02*
X036019Y011114D01*
X036019Y011248D02*
X035616Y011248D01*
X035750Y011114D01*
X028066Y011114D02*
X028066Y011383D01*
X028066Y011248D02*
X027663Y011248D01*
X027798Y011114D01*
X020114Y011114D02*
X020114Y011383D01*
X020114Y011248D02*
X019710Y011248D01*
X019845Y011114D01*
X012161Y011114D02*
X012161Y011383D01*
X012161Y011248D02*
X011758Y011248D01*
X011892Y011114D01*
X005538Y018428D02*
X005538Y018832D01*
X005404Y018832D02*
X005673Y018832D01*
X005673Y018563D02*
X005538Y018428D01*
X005892Y019614D02*
X005758Y019748D01*
X006161Y019748D01*
X006161Y019614D02*
X006161Y019883D01*
X036616Y031717D02*
X037019Y031717D01*
X037019Y031851D02*
X037019Y031582D01*
X036750Y031582D02*
X036616Y031717D01*
D14*
X033284Y025879D03*
X025331Y025879D03*
X017378Y025879D03*
X009426Y025879D03*
X009426Y013910D03*
X017378Y013910D03*
X025331Y013910D03*
X033284Y013910D03*
D15*
X031615Y016637D02*
X031578Y016637D01*
X031615Y016637D02*
X031615Y017275D01*
X031578Y017275D01*
X031260Y017275D02*
X031223Y017275D01*
X030886Y017275D02*
X030849Y017275D01*
X030532Y017275D02*
X030495Y017275D01*
X030495Y016637D01*
X030532Y016637D01*
X030849Y016637D02*
X031260Y016637D01*
X023662Y016637D02*
X023625Y016637D01*
X023662Y016637D02*
X023662Y017275D01*
X023625Y017275D01*
X023307Y017275D02*
X023270Y017275D01*
X022933Y017275D02*
X022896Y017275D01*
X022579Y017275D02*
X022542Y017275D01*
X022542Y016637D01*
X022579Y016637D01*
X022896Y016637D02*
X023307Y016637D01*
X015709Y016637D02*
X015672Y016637D01*
X015709Y016637D02*
X015709Y017275D01*
X015672Y017275D01*
X015355Y017275D02*
X015318Y017275D01*
X014981Y017275D02*
X014944Y017275D01*
X014626Y017275D02*
X014589Y017275D01*
X014589Y016637D01*
X014626Y016637D01*
X014944Y016637D02*
X015355Y016637D01*
X007756Y016637D02*
X007719Y016637D01*
X007756Y016637D02*
X007756Y017275D01*
X007719Y017275D01*
X007402Y017275D02*
X007365Y017275D01*
X007028Y017275D02*
X006991Y017275D01*
X006674Y017275D02*
X006637Y017275D01*
X006637Y016637D01*
X006674Y016637D01*
X006991Y016637D02*
X007402Y016637D01*
X007402Y028606D02*
X006991Y028606D01*
X006674Y028606D02*
X006637Y028606D01*
X006637Y029244D01*
X006674Y029244D01*
X006991Y029244D02*
X007028Y029244D01*
X007365Y029244D02*
X007402Y029244D01*
X007719Y029244D02*
X007756Y029244D01*
X007756Y028606D01*
X007719Y028606D01*
X014589Y028606D02*
X014626Y028606D01*
X014589Y028606D02*
X014589Y029244D01*
X014626Y029244D01*
X014944Y029244D02*
X014981Y029244D01*
X015318Y029244D02*
X015355Y029244D01*
X015672Y029244D02*
X015709Y029244D01*
X015709Y028606D01*
X015672Y028606D01*
X015355Y028606D02*
X014944Y028606D01*
X022542Y028606D02*
X022579Y028606D01*
X022542Y028606D02*
X022542Y029244D01*
X022579Y029244D01*
X022896Y029244D02*
X022933Y029244D01*
X023270Y029244D02*
X023307Y029244D01*
X023625Y029244D02*
X023662Y029244D01*
X023662Y028606D01*
X023625Y028606D01*
X023307Y028606D02*
X022896Y028606D01*
X030495Y028606D02*
X030532Y028606D01*
X030495Y028606D02*
X030495Y029244D01*
X030532Y029244D01*
X030849Y029244D02*
X030886Y029244D01*
X031223Y029244D02*
X031260Y029244D01*
X031578Y029244D02*
X031615Y029244D01*
X031615Y028606D01*
X031578Y028606D01*
X031260Y028606D02*
X030849Y028606D01*
D16*
X033653Y028649D02*
X033653Y028708D01*
X033909Y028708D01*
X034342Y028708D02*
X034598Y028708D01*
X034598Y028649D01*
X034598Y027626D02*
X034598Y027567D01*
X034342Y027567D01*
X033909Y027567D02*
X033653Y027567D01*
X033653Y027626D01*
X026645Y027626D02*
X026645Y027567D01*
X026389Y027567D01*
X025956Y027567D02*
X025700Y027567D01*
X025700Y027626D01*
X025700Y028649D02*
X025700Y028708D01*
X025956Y028708D01*
X026389Y028708D02*
X026645Y028708D01*
X026645Y028649D01*
X018692Y028649D02*
X018692Y028708D01*
X018437Y028708D01*
X018003Y028708D02*
X017748Y028708D01*
X017748Y028649D01*
X017748Y027626D02*
X017748Y027567D01*
X018003Y027567D01*
X018437Y027567D02*
X018692Y027567D01*
X018692Y027626D01*
X010740Y027626D02*
X010740Y027567D01*
X010484Y027567D01*
X010051Y027567D02*
X009795Y027567D01*
X009795Y027626D01*
X009795Y028649D02*
X009795Y028708D01*
X010051Y028708D01*
X010484Y028708D02*
X010740Y028708D01*
X010740Y028649D01*
X010740Y016740D02*
X010484Y016740D01*
X010740Y016740D02*
X010740Y016681D01*
X010051Y016740D02*
X009795Y016740D01*
X009795Y016681D01*
X009795Y015657D02*
X009795Y015598D01*
X010051Y015598D01*
X010484Y015598D02*
X010740Y015598D01*
X010740Y015657D01*
X017748Y015598D02*
X017748Y015657D01*
X017748Y015598D02*
X018003Y015598D01*
X018437Y015598D02*
X018692Y015598D01*
X018692Y015657D01*
X018692Y016681D02*
X018692Y016740D01*
X018437Y016740D01*
X018003Y016740D02*
X017748Y016740D01*
X017748Y016681D01*
X025700Y016740D02*
X025700Y016681D01*
X025700Y016740D02*
X025956Y016740D01*
X026389Y016740D02*
X026645Y016740D01*
X026645Y016681D01*
X026645Y015657D02*
X026645Y015598D01*
X026389Y015598D01*
X025956Y015598D02*
X025700Y015598D01*
X025700Y015657D01*
X033653Y015598D02*
X033653Y015657D01*
X033653Y015598D02*
X033909Y015598D01*
X034342Y015598D02*
X034598Y015598D01*
X034598Y015657D01*
X034598Y016681D02*
X034598Y016740D01*
X034342Y016740D01*
X033909Y016740D02*
X033653Y016740D01*
X033653Y016681D01*
D17*
X033633Y016858D02*
X033830Y016858D01*
X025878Y016858D02*
X025681Y016858D01*
X017925Y016858D02*
X017728Y016858D01*
X009972Y016858D02*
X009775Y016858D01*
X009775Y028826D02*
X009972Y028826D01*
X017728Y028826D02*
X017925Y028826D01*
X025681Y028826D02*
X025878Y028826D01*
X033633Y028826D02*
X033830Y028826D01*
M02*
