G75*
%MOIN*%
%OFA0B0*%
%FSLAX24Y24*%
%IPPOS*%
%LPD*%
%AMOC8*
5,1,8,0,0,1.08239X$1,22.5*
%
%ADD10C,0.0098*%
%ADD11C,0.0050*%
%ADD12C,0.0080*%
%ADD13C,0.0030*%
%ADD14R,0.0089X0.0089*%
%ADD15C,0.0060*%
%ADD16C,0.0071*%
%ADD17C,0.0087*%
D10*
X009835Y014633D02*
X009837Y014645D01*
X009842Y014656D01*
X009851Y014665D01*
X009862Y014670D01*
X009874Y014672D01*
X009886Y014670D01*
X009897Y014665D01*
X009906Y014656D01*
X009911Y014645D01*
X009913Y014633D01*
X009911Y014621D01*
X009906Y014610D01*
X009897Y014601D01*
X009886Y014596D01*
X009874Y014594D01*
X009862Y014596D01*
X009851Y014601D01*
X009842Y014610D01*
X009837Y014621D01*
X009835Y014633D01*
X018102Y014633D02*
X018104Y014645D01*
X018109Y014656D01*
X018118Y014665D01*
X018129Y014670D01*
X018141Y014672D01*
X018153Y014670D01*
X018164Y014665D01*
X018173Y014656D01*
X018178Y014645D01*
X018180Y014633D01*
X018178Y014621D01*
X018173Y014610D01*
X018164Y014601D01*
X018153Y014596D01*
X018141Y014594D01*
X018129Y014596D01*
X018118Y014601D01*
X018109Y014610D01*
X018104Y014621D01*
X018102Y014633D01*
X026370Y014633D02*
X026372Y014645D01*
X026377Y014656D01*
X026386Y014665D01*
X026397Y014670D01*
X026409Y014672D01*
X026421Y014670D01*
X026432Y014665D01*
X026441Y014656D01*
X026446Y014645D01*
X026448Y014633D01*
X026446Y014621D01*
X026441Y014610D01*
X026432Y014601D01*
X026421Y014596D01*
X026409Y014594D01*
X026397Y014596D01*
X026386Y014601D01*
X026377Y014610D01*
X026372Y014621D01*
X026370Y014633D01*
X034638Y014633D02*
X034640Y014645D01*
X034645Y014656D01*
X034654Y014665D01*
X034665Y014670D01*
X034677Y014672D01*
X034689Y014670D01*
X034700Y014665D01*
X034709Y014656D01*
X034714Y014645D01*
X034716Y014633D01*
X034714Y014621D01*
X034709Y014610D01*
X034700Y014601D01*
X034689Y014596D01*
X034677Y014594D01*
X034665Y014596D01*
X034654Y014601D01*
X034645Y014610D01*
X034640Y014621D01*
X034638Y014633D01*
X034638Y026917D02*
X034640Y026929D01*
X034645Y026940D01*
X034654Y026949D01*
X034665Y026954D01*
X034677Y026956D01*
X034689Y026954D01*
X034700Y026949D01*
X034709Y026940D01*
X034714Y026929D01*
X034716Y026917D01*
X034714Y026905D01*
X034709Y026894D01*
X034700Y026885D01*
X034689Y026880D01*
X034677Y026878D01*
X034665Y026880D01*
X034654Y026885D01*
X034645Y026894D01*
X034640Y026905D01*
X034638Y026917D01*
X026370Y026917D02*
X026372Y026929D01*
X026377Y026940D01*
X026386Y026949D01*
X026397Y026954D01*
X026409Y026956D01*
X026421Y026954D01*
X026432Y026949D01*
X026441Y026940D01*
X026446Y026929D01*
X026448Y026917D01*
X026446Y026905D01*
X026441Y026894D01*
X026432Y026885D01*
X026421Y026880D01*
X026409Y026878D01*
X026397Y026880D01*
X026386Y026885D01*
X026377Y026894D01*
X026372Y026905D01*
X026370Y026917D01*
X018102Y026917D02*
X018104Y026929D01*
X018109Y026940D01*
X018118Y026949D01*
X018129Y026954D01*
X018141Y026956D01*
X018153Y026954D01*
X018164Y026949D01*
X018173Y026940D01*
X018178Y026929D01*
X018180Y026917D01*
X018178Y026905D01*
X018173Y026894D01*
X018164Y026885D01*
X018153Y026880D01*
X018141Y026878D01*
X018129Y026880D01*
X018118Y026885D01*
X018109Y026894D01*
X018104Y026905D01*
X018102Y026917D01*
X009835Y026917D02*
X009837Y026929D01*
X009842Y026940D01*
X009851Y026949D01*
X009862Y026954D01*
X009874Y026956D01*
X009886Y026954D01*
X009897Y026949D01*
X009906Y026940D01*
X009911Y026929D01*
X009913Y026917D01*
X009911Y026905D01*
X009906Y026894D01*
X009897Y026885D01*
X009886Y026880D01*
X009874Y026878D01*
X009862Y026880D01*
X009851Y026885D01*
X009842Y026894D01*
X009837Y026905D01*
X009835Y026917D01*
D11*
X009657Y026720D02*
X009480Y026897D01*
X009084Y027139D02*
X008784Y027139D01*
X008934Y027139D02*
X008934Y027589D01*
X008784Y027439D01*
X008624Y027589D02*
X008624Y027214D01*
X008549Y027139D01*
X008399Y027139D01*
X008324Y027214D01*
X008324Y027589D01*
X008129Y027940D02*
X007979Y027940D01*
X007904Y028015D01*
X007744Y027940D02*
X007594Y028090D01*
X007669Y028090D02*
X007444Y028090D01*
X007444Y027940D02*
X007444Y028390D01*
X007669Y028390D01*
X007744Y028315D01*
X007744Y028165D01*
X007669Y028090D01*
X007904Y028315D02*
X007979Y028390D01*
X008129Y028390D01*
X008205Y028315D01*
X008205Y028240D01*
X008129Y028165D01*
X008205Y028090D01*
X008205Y028015D01*
X008129Y027940D01*
X008129Y028165D02*
X008054Y028165D01*
X008794Y028381D02*
X008869Y028306D01*
X009169Y028306D01*
X009244Y028381D01*
X009244Y028531D01*
X009169Y028606D01*
X009019Y028766D02*
X008794Y028992D01*
X009244Y028992D01*
X009019Y029067D02*
X009019Y028766D01*
X008869Y028606D02*
X008794Y028531D01*
X008794Y028381D01*
X008809Y029462D02*
X008658Y029462D01*
X008733Y029462D02*
X008733Y029912D01*
X008658Y029912D02*
X008809Y029912D01*
X008965Y029837D02*
X008965Y029537D01*
X009040Y029462D01*
X009191Y029462D01*
X009266Y029537D01*
X009426Y029462D02*
X009726Y029462D01*
X009576Y029462D02*
X009576Y029912D01*
X009426Y029762D01*
X009266Y029837D02*
X009191Y029912D01*
X009040Y029912D01*
X008965Y029837D01*
X008850Y030105D02*
X008925Y030180D01*
X008850Y030105D02*
X008700Y030105D01*
X008625Y030180D01*
X008625Y030481D01*
X008700Y030556D01*
X008850Y030556D01*
X008925Y030481D01*
X009085Y030556D02*
X009085Y030331D01*
X009235Y030406D01*
X009311Y030406D01*
X009386Y030331D01*
X009386Y030180D01*
X009311Y030105D01*
X009160Y030105D01*
X009085Y030180D01*
X009085Y030556D02*
X009386Y030556D01*
X010593Y030599D02*
X010593Y030298D01*
X010669Y030223D01*
X010819Y030223D01*
X010894Y030298D01*
X011054Y030223D02*
X011354Y030223D01*
X011204Y030223D02*
X011204Y030674D01*
X011054Y030524D01*
X010894Y030599D02*
X010819Y030674D01*
X010669Y030674D01*
X010593Y030599D01*
X010836Y032182D02*
X011136Y032632D01*
X011296Y032557D02*
X011371Y032632D01*
X011521Y032632D01*
X011596Y032557D01*
X011596Y032482D01*
X011296Y032182D01*
X011596Y032182D01*
X011136Y032182D02*
X010836Y032632D01*
X014058Y030599D02*
X014058Y030298D01*
X014133Y030223D01*
X014283Y030223D01*
X014358Y030298D01*
X014518Y030298D02*
X014593Y030223D01*
X014744Y030223D01*
X014819Y030298D01*
X014819Y030374D01*
X014744Y030449D01*
X014669Y030449D01*
X014744Y030449D02*
X014819Y030524D01*
X014819Y030599D01*
X014744Y030674D01*
X014593Y030674D01*
X014518Y030599D01*
X014358Y030599D02*
X014283Y030674D01*
X014133Y030674D01*
X014058Y030599D01*
X014109Y028890D02*
X014259Y028890D01*
X014184Y028890D02*
X014184Y028440D01*
X014109Y028440D02*
X014259Y028440D01*
X014416Y028515D02*
X014491Y028440D01*
X014641Y028440D01*
X014716Y028515D01*
X014877Y028440D02*
X015177Y028740D01*
X015177Y028815D01*
X015102Y028890D01*
X014952Y028890D01*
X014877Y028815D01*
X014716Y028815D02*
X014641Y028890D01*
X014491Y028890D01*
X014416Y028815D01*
X014416Y028515D01*
X014877Y028440D02*
X015177Y028440D01*
X015712Y028390D02*
X015712Y027940D01*
X015712Y028090D02*
X015937Y028090D01*
X016012Y028165D01*
X016012Y028315D01*
X015937Y028390D01*
X015712Y028390D01*
X015862Y028090D02*
X016012Y027940D01*
X016172Y028015D02*
X016247Y027940D01*
X016397Y027940D01*
X016472Y028015D01*
X016472Y028090D01*
X016397Y028165D01*
X016322Y028165D01*
X016397Y028165D02*
X016472Y028240D01*
X016472Y028315D01*
X016397Y028390D01*
X016247Y028390D01*
X016172Y028315D01*
X015653Y027682D02*
X015653Y027231D01*
X015503Y027231D02*
X015803Y027231D01*
X015728Y027091D02*
X015578Y027091D01*
X015503Y027016D01*
X015343Y027016D02*
X015343Y026866D01*
X015267Y026791D01*
X015042Y026791D01*
X015042Y026641D02*
X015042Y027091D01*
X015267Y027091D01*
X015343Y027016D01*
X015343Y027231D02*
X015192Y027381D01*
X015267Y027381D02*
X015042Y027381D01*
X015042Y027231D02*
X015042Y027682D01*
X015267Y027682D01*
X015343Y027607D01*
X015343Y027456D01*
X015267Y027381D01*
X015503Y027532D02*
X015653Y027682D01*
X015728Y027091D02*
X015803Y027016D01*
X015803Y026941D01*
X015503Y026641D01*
X015803Y026641D01*
X015645Y026540D02*
X015345Y026540D01*
X015345Y026315D01*
X015495Y026390D01*
X015570Y026390D01*
X015645Y026315D01*
X015645Y026165D01*
X015570Y026090D01*
X015420Y026090D01*
X015345Y026165D01*
X015185Y026090D02*
X015035Y026240D01*
X015110Y026240D02*
X014885Y026240D01*
X014885Y026090D02*
X014885Y026540D01*
X015110Y026540D01*
X015185Y026465D01*
X015185Y026315D01*
X015110Y026240D01*
X015343Y026641D02*
X015192Y026791D01*
X015996Y026720D02*
X015996Y026897D01*
X016173Y026897D01*
X016591Y027214D02*
X016591Y027589D01*
X016892Y027589D02*
X016892Y027214D01*
X016817Y027139D01*
X016667Y027139D01*
X016591Y027214D01*
X017052Y027139D02*
X017352Y027139D01*
X017202Y027139D02*
X017202Y027589D01*
X017052Y027439D01*
X017137Y028306D02*
X017437Y028306D01*
X017512Y028381D01*
X017512Y028531D01*
X017437Y028606D01*
X017287Y028766D02*
X017062Y028992D01*
X017512Y028992D01*
X017287Y029067D02*
X017287Y028766D01*
X017137Y028606D02*
X017062Y028531D01*
X017062Y028381D01*
X017137Y028306D01*
X018271Y028115D02*
X018271Y027664D01*
X018271Y027814D02*
X018496Y027814D01*
X018571Y027890D01*
X018571Y028040D01*
X018496Y028115D01*
X018271Y028115D01*
X018421Y027814D02*
X018571Y027664D01*
X018731Y027890D02*
X019031Y027890D01*
X018956Y028115D02*
X018956Y027664D01*
X018731Y027890D02*
X018956Y028115D01*
X017994Y029462D02*
X017693Y029462D01*
X017844Y029462D02*
X017844Y029912D01*
X017693Y029762D01*
X017533Y029837D02*
X017458Y029912D01*
X017308Y029912D01*
X017233Y029837D01*
X017233Y029537D01*
X017308Y029462D01*
X017458Y029462D01*
X017533Y029537D01*
X017076Y029462D02*
X016926Y029462D01*
X017001Y029462D02*
X017001Y029912D01*
X016926Y029912D02*
X017076Y029912D01*
X017118Y030105D02*
X017193Y030180D01*
X017118Y030105D02*
X016968Y030105D01*
X016893Y030180D01*
X016893Y030481D01*
X016968Y030556D01*
X017118Y030556D01*
X017193Y030481D01*
X017353Y030556D02*
X017353Y030331D01*
X017503Y030406D01*
X017578Y030406D01*
X017653Y030331D01*
X017653Y030180D01*
X017578Y030105D01*
X017428Y030105D01*
X017353Y030180D01*
X017353Y030556D02*
X017653Y030556D01*
X018861Y030599D02*
X018861Y030298D01*
X018936Y030223D01*
X019086Y030223D01*
X019161Y030298D01*
X019322Y030223D02*
X019622Y030223D01*
X019472Y030223D02*
X019472Y030674D01*
X019322Y030524D01*
X019161Y030599D02*
X019086Y030674D01*
X018936Y030674D01*
X018861Y030599D01*
X019103Y032182D02*
X019404Y032632D01*
X019564Y032557D02*
X019639Y032632D01*
X019789Y032632D01*
X019864Y032557D01*
X019864Y032482D01*
X019564Y032182D01*
X019864Y032182D01*
X019404Y032182D02*
X019103Y032632D01*
X022326Y030599D02*
X022326Y030298D01*
X022401Y030223D01*
X022551Y030223D01*
X022626Y030298D01*
X022786Y030298D02*
X022861Y030223D01*
X023011Y030223D01*
X023086Y030298D01*
X023086Y030374D01*
X023011Y030449D01*
X022936Y030449D01*
X023011Y030449D02*
X023086Y030524D01*
X023086Y030599D01*
X023011Y030674D01*
X022861Y030674D01*
X022786Y030599D01*
X022626Y030599D02*
X022551Y030674D01*
X022401Y030674D01*
X022326Y030599D01*
X022377Y028890D02*
X022527Y028890D01*
X022452Y028890D02*
X022452Y028440D01*
X022377Y028440D02*
X022527Y028440D01*
X022684Y028515D02*
X022684Y028815D01*
X022759Y028890D01*
X022909Y028890D01*
X022984Y028815D01*
X023144Y028815D02*
X023219Y028890D01*
X023369Y028890D01*
X023444Y028815D01*
X023444Y028740D01*
X023144Y028440D01*
X023444Y028440D01*
X023979Y028390D02*
X024204Y028390D01*
X024280Y028315D01*
X024280Y028165D01*
X024204Y028090D01*
X023979Y028090D01*
X023979Y027940D02*
X023979Y028390D01*
X024129Y028090D02*
X024280Y027940D01*
X024440Y028015D02*
X024515Y027940D01*
X024665Y027940D01*
X024740Y028015D01*
X024740Y028090D01*
X024665Y028165D01*
X024590Y028165D01*
X024665Y028165D02*
X024740Y028240D01*
X024740Y028315D01*
X024665Y028390D01*
X024515Y028390D01*
X024440Y028315D01*
X023921Y027682D02*
X023921Y027231D01*
X024071Y027231D02*
X023770Y027231D01*
X023845Y027091D02*
X023770Y027016D01*
X023845Y027091D02*
X023996Y027091D01*
X024071Y027016D01*
X024071Y026941D01*
X023770Y026641D01*
X024071Y026641D01*
X023913Y026540D02*
X023613Y026540D01*
X023613Y026315D01*
X023763Y026390D01*
X023838Y026390D01*
X023913Y026315D01*
X023913Y026165D01*
X023838Y026090D01*
X023688Y026090D01*
X023613Y026165D01*
X023453Y026090D02*
X023303Y026240D01*
X023378Y026240D02*
X023153Y026240D01*
X023153Y026090D02*
X023153Y026540D01*
X023378Y026540D01*
X023453Y026465D01*
X023453Y026315D01*
X023378Y026240D01*
X023310Y026641D02*
X023310Y027091D01*
X023535Y027091D01*
X023610Y027016D01*
X023610Y026866D01*
X023535Y026791D01*
X023310Y026791D01*
X023460Y026791D02*
X023610Y026641D01*
X023610Y027231D02*
X023460Y027381D01*
X023535Y027381D02*
X023310Y027381D01*
X023310Y027231D02*
X023310Y027682D01*
X023535Y027682D01*
X023610Y027607D01*
X023610Y027456D01*
X023535Y027381D01*
X023770Y027532D02*
X023921Y027682D01*
X024263Y026897D02*
X024263Y026720D01*
X024263Y026897D02*
X024441Y026897D01*
X024859Y027214D02*
X024859Y027589D01*
X025159Y027589D02*
X025159Y027214D01*
X025084Y027139D01*
X024934Y027139D01*
X024859Y027214D01*
X025320Y027139D02*
X025620Y027139D01*
X025470Y027139D02*
X025470Y027589D01*
X025320Y027439D01*
X025404Y028306D02*
X025705Y028306D01*
X025780Y028381D01*
X025780Y028531D01*
X025705Y028606D01*
X025554Y028766D02*
X025329Y028992D01*
X025780Y028992D01*
X025554Y029067D02*
X025554Y028766D01*
X025404Y028606D02*
X025329Y028531D01*
X025329Y028381D01*
X025404Y028306D01*
X026538Y028115D02*
X026538Y027664D01*
X026538Y027814D02*
X026764Y027814D01*
X026839Y027890D01*
X026839Y028040D01*
X026764Y028115D01*
X026538Y028115D01*
X026688Y027814D02*
X026839Y027664D01*
X026999Y027890D02*
X027224Y028115D01*
X027224Y027664D01*
X027299Y027890D02*
X026999Y027890D01*
X026015Y026897D02*
X026192Y026720D01*
X026192Y025145D02*
X026192Y024968D01*
X026015Y024968D01*
X026062Y023981D02*
X025987Y023906D01*
X025987Y023606D01*
X026062Y023531D01*
X026212Y023531D01*
X026287Y023606D01*
X026448Y023606D02*
X026523Y023531D01*
X026673Y023531D01*
X026748Y023606D01*
X026748Y023681D01*
X026673Y023756D01*
X026448Y023756D01*
X026448Y023606D01*
X026448Y023756D02*
X026598Y023906D01*
X026748Y023981D01*
X026287Y023906D02*
X026212Y023981D01*
X026062Y023981D01*
X025610Y023075D02*
X025460Y023075D01*
X025385Y023000D01*
X025224Y023000D02*
X025149Y023075D01*
X024999Y023075D01*
X024924Y023000D01*
X024924Y022700D01*
X024999Y022625D01*
X025149Y022625D01*
X025224Y022700D01*
X025385Y022625D02*
X025685Y022925D01*
X025685Y023000D01*
X025610Y023075D01*
X025685Y022625D02*
X025385Y022625D01*
X024728Y022016D02*
X024653Y022091D01*
X024503Y022091D01*
X024428Y022016D01*
X024428Y021716D01*
X024728Y022016D01*
X024728Y021716D01*
X024653Y021641D01*
X024503Y021641D01*
X024428Y021716D01*
X024267Y021641D02*
X023967Y021641D01*
X024117Y021641D02*
X024117Y022091D01*
X023967Y021941D01*
X023807Y021866D02*
X023732Y021791D01*
X023507Y021791D01*
X023657Y021791D02*
X023807Y021641D01*
X023807Y021866D02*
X023807Y022016D01*
X023732Y022091D01*
X023507Y022091D01*
X023507Y021641D01*
X023507Y022231D02*
X023507Y022682D01*
X023732Y022682D01*
X023807Y022607D01*
X023807Y022456D01*
X023732Y022381D01*
X023507Y022381D01*
X023657Y022381D02*
X023807Y022231D01*
X023967Y022306D02*
X024042Y022231D01*
X024192Y022231D01*
X024267Y022306D01*
X024267Y022607D01*
X024192Y022682D01*
X024042Y022682D01*
X023967Y022607D01*
X023967Y022532D01*
X024042Y022456D01*
X024267Y022456D01*
X024232Y023137D02*
X024082Y023137D01*
X024007Y023212D01*
X024007Y023287D01*
X024082Y023362D01*
X024232Y023362D01*
X024307Y023287D01*
X024307Y023212D01*
X024232Y023137D01*
X024232Y023362D02*
X024307Y023437D01*
X024307Y023512D01*
X024232Y023587D01*
X024082Y023587D01*
X024007Y023512D01*
X024007Y023437D01*
X024082Y023362D01*
X023846Y023362D02*
X023771Y023287D01*
X023546Y023287D01*
X023546Y023137D02*
X023546Y023587D01*
X023771Y023587D01*
X023846Y023512D01*
X023846Y023362D01*
X023696Y023287D02*
X023846Y023137D01*
X023807Y024082D02*
X023657Y024232D01*
X023732Y024232D02*
X023507Y024232D01*
X023507Y024082D02*
X023507Y024532D01*
X023732Y024532D01*
X023807Y024457D01*
X023807Y024307D01*
X023732Y024232D01*
X023967Y024157D02*
X023967Y024082D01*
X023967Y024157D02*
X024267Y024457D01*
X024267Y024532D01*
X023967Y024532D01*
X023799Y024790D02*
X023874Y024865D01*
X023874Y024940D01*
X023799Y025016D01*
X023574Y025016D01*
X023574Y024865D01*
X023649Y024790D01*
X023799Y024790D01*
X023574Y025016D02*
X023724Y025166D01*
X023874Y025241D01*
X024263Y025145D02*
X024263Y024968D01*
X024441Y024968D01*
X023413Y025016D02*
X023338Y024940D01*
X023113Y024940D01*
X023113Y024790D02*
X023113Y025241D01*
X023338Y025241D01*
X023413Y025166D01*
X023413Y025016D01*
X023263Y024940D02*
X023413Y024790D01*
X022909Y028440D02*
X022984Y028515D01*
X022909Y028440D02*
X022759Y028440D01*
X022684Y028515D01*
X025194Y029462D02*
X025344Y029462D01*
X025269Y029462D02*
X025269Y029912D01*
X025194Y029912D02*
X025344Y029912D01*
X025501Y029837D02*
X025501Y029537D01*
X025576Y029462D01*
X025726Y029462D01*
X025801Y029537D01*
X025961Y029462D02*
X026261Y029462D01*
X026111Y029462D02*
X026111Y029912D01*
X025961Y029762D01*
X025801Y029837D02*
X025726Y029912D01*
X025576Y029912D01*
X025501Y029837D01*
X025386Y030105D02*
X025461Y030180D01*
X025386Y030105D02*
X025235Y030105D01*
X025160Y030180D01*
X025160Y030481D01*
X025235Y030556D01*
X025386Y030556D01*
X025461Y030481D01*
X025621Y030556D02*
X025621Y030331D01*
X025771Y030406D01*
X025846Y030406D01*
X025921Y030331D01*
X025921Y030180D01*
X025846Y030105D01*
X025696Y030105D01*
X025621Y030180D01*
X025621Y030556D02*
X025921Y030556D01*
X027129Y030599D02*
X027129Y030298D01*
X027204Y030223D01*
X027354Y030223D01*
X027429Y030298D01*
X027589Y030223D02*
X027890Y030223D01*
X027739Y030223D02*
X027739Y030674D01*
X027589Y030524D01*
X027429Y030599D02*
X027354Y030674D01*
X027204Y030674D01*
X027129Y030599D01*
X027371Y032182D02*
X027671Y032632D01*
X027831Y032557D02*
X027906Y032632D01*
X028057Y032632D01*
X028132Y032557D01*
X028132Y032482D01*
X027831Y032182D01*
X028132Y032182D01*
X027671Y032182D02*
X027371Y032632D01*
X030593Y030599D02*
X030593Y030298D01*
X030669Y030223D01*
X030819Y030223D01*
X030894Y030298D01*
X031054Y030298D02*
X031129Y030223D01*
X031279Y030223D01*
X031354Y030298D01*
X031354Y030374D01*
X031279Y030449D01*
X031204Y030449D01*
X031279Y030449D02*
X031354Y030524D01*
X031354Y030599D01*
X031279Y030674D01*
X031129Y030674D01*
X031054Y030599D01*
X030894Y030599D02*
X030819Y030674D01*
X030669Y030674D01*
X030593Y030599D01*
X030645Y028890D02*
X030795Y028890D01*
X030720Y028890D02*
X030720Y028440D01*
X030645Y028440D02*
X030795Y028440D01*
X030952Y028515D02*
X030952Y028815D01*
X031027Y028890D01*
X031177Y028890D01*
X031252Y028815D01*
X031412Y028815D02*
X031487Y028890D01*
X031637Y028890D01*
X031712Y028815D01*
X031712Y028740D01*
X031412Y028440D01*
X031712Y028440D01*
X032247Y028390D02*
X032472Y028390D01*
X032547Y028315D01*
X032547Y028165D01*
X032472Y028090D01*
X032247Y028090D01*
X032247Y027940D02*
X032247Y028390D01*
X032397Y028090D02*
X032547Y027940D01*
X032707Y028015D02*
X032782Y027940D01*
X032933Y027940D01*
X033008Y028015D01*
X033008Y028090D01*
X032933Y028165D01*
X032858Y028165D01*
X032933Y028165D02*
X033008Y028240D01*
X033008Y028315D01*
X032933Y028390D01*
X032782Y028390D01*
X032707Y028315D01*
X032188Y027682D02*
X032188Y027231D01*
X032038Y027231D02*
X032338Y027231D01*
X032263Y027091D02*
X032113Y027091D01*
X032038Y027016D01*
X031878Y027016D02*
X031878Y026866D01*
X031803Y026791D01*
X031578Y026791D01*
X031728Y026791D02*
X031878Y026641D01*
X031881Y026540D02*
X031881Y026315D01*
X032031Y026390D01*
X032106Y026390D01*
X032181Y026315D01*
X032181Y026165D01*
X032106Y026090D01*
X031956Y026090D01*
X031881Y026165D01*
X031720Y026090D02*
X031570Y026240D01*
X031645Y026240D02*
X031420Y026240D01*
X031420Y026090D02*
X031420Y026540D01*
X031645Y026540D01*
X031720Y026465D01*
X031720Y026315D01*
X031645Y026240D01*
X031881Y026540D02*
X032181Y026540D01*
X032038Y026641D02*
X032338Y026941D01*
X032338Y027016D01*
X032263Y027091D01*
X032531Y026897D02*
X032531Y026720D01*
X032531Y026897D02*
X032708Y026897D01*
X032338Y026641D02*
X032038Y026641D01*
X031878Y027016D02*
X031803Y027091D01*
X031578Y027091D01*
X031578Y026641D01*
X031578Y027231D02*
X031578Y027682D01*
X031803Y027682D01*
X031878Y027607D01*
X031878Y027456D01*
X031803Y027381D01*
X031578Y027381D01*
X031728Y027381D02*
X031878Y027231D01*
X032038Y027532D02*
X032188Y027682D01*
X033127Y027589D02*
X033127Y027214D01*
X033202Y027139D01*
X033352Y027139D01*
X033427Y027214D01*
X033427Y027589D01*
X033587Y027439D02*
X033737Y027589D01*
X033737Y027139D01*
X033587Y027139D02*
X033888Y027139D01*
X034283Y026897D02*
X034460Y026720D01*
X034806Y027664D02*
X034806Y028115D01*
X035031Y028115D01*
X035106Y028040D01*
X035106Y027890D01*
X035031Y027814D01*
X034806Y027814D01*
X034956Y027814D02*
X035106Y027664D01*
X035266Y027890D02*
X035492Y028115D01*
X035492Y027664D01*
X035567Y027890D02*
X035266Y027890D01*
X034047Y028381D02*
X034047Y028531D01*
X033972Y028606D01*
X033822Y028766D02*
X033822Y029067D01*
X033597Y028992D02*
X033822Y028766D01*
X033672Y028606D02*
X033597Y028531D01*
X033597Y028381D01*
X033672Y028306D01*
X033972Y028306D01*
X034047Y028381D01*
X034047Y028992D02*
X033597Y028992D01*
X033612Y029462D02*
X033462Y029462D01*
X033537Y029462D02*
X033537Y029912D01*
X033462Y029912D02*
X033612Y029912D01*
X033768Y029837D02*
X033844Y029912D01*
X033994Y029912D01*
X034069Y029837D01*
X034229Y029762D02*
X034379Y029912D01*
X034379Y029462D01*
X034229Y029462D02*
X034529Y029462D01*
X034069Y029537D02*
X033994Y029462D01*
X033844Y029462D01*
X033768Y029537D01*
X033768Y029837D01*
X033653Y030105D02*
X033503Y030105D01*
X033428Y030180D01*
X033428Y030481D01*
X033503Y030556D01*
X033653Y030556D01*
X033728Y030481D01*
X033888Y030556D02*
X033888Y030331D01*
X034039Y030406D01*
X034114Y030406D01*
X034189Y030331D01*
X034189Y030180D01*
X034114Y030105D01*
X033964Y030105D01*
X033888Y030180D01*
X033728Y030180D02*
X033653Y030105D01*
X033888Y030556D02*
X034189Y030556D01*
X035397Y030599D02*
X035397Y030298D01*
X035472Y030223D01*
X035622Y030223D01*
X035697Y030298D01*
X035857Y030223D02*
X036157Y030223D01*
X036007Y030223D02*
X036007Y030674D01*
X035857Y030524D01*
X035697Y030599D02*
X035622Y030674D01*
X035472Y030674D01*
X035397Y030599D01*
X035639Y032182D02*
X035939Y032632D01*
X036099Y032557D02*
X036174Y032632D01*
X036324Y032632D01*
X036399Y032557D01*
X036399Y032482D01*
X036099Y032182D01*
X036399Y032182D01*
X035939Y032182D02*
X035639Y032632D01*
X031252Y028515D02*
X031177Y028440D01*
X031027Y028440D01*
X030952Y028515D01*
X031381Y025241D02*
X031606Y025241D01*
X031681Y025166D01*
X031681Y025016D01*
X031606Y024940D01*
X031381Y024940D01*
X031381Y024790D02*
X031381Y025241D01*
X031531Y024940D02*
X031681Y024790D01*
X031841Y024865D02*
X031916Y024790D01*
X032066Y024790D01*
X032142Y024865D01*
X032142Y024940D01*
X032066Y025016D01*
X031841Y025016D01*
X031841Y024865D01*
X031841Y025016D02*
X031991Y025166D01*
X032142Y025241D01*
X032531Y025145D02*
X032531Y024968D01*
X032708Y024968D01*
X032535Y024532D02*
X032235Y024532D01*
X032075Y024457D02*
X032075Y024307D01*
X032000Y024232D01*
X031775Y024232D01*
X031925Y024232D02*
X032075Y024082D01*
X032235Y024082D02*
X032235Y024157D01*
X032535Y024457D01*
X032535Y024532D01*
X032075Y024457D02*
X032000Y024532D01*
X031775Y024532D01*
X031775Y024082D01*
X031814Y023587D02*
X032039Y023587D01*
X032114Y023512D01*
X032114Y023362D01*
X032039Y023287D01*
X031814Y023287D01*
X031964Y023287D02*
X032114Y023137D01*
X032274Y023212D02*
X032349Y023137D01*
X032500Y023137D01*
X032575Y023212D01*
X032575Y023287D01*
X032500Y023362D01*
X032349Y023362D01*
X032274Y023437D01*
X032274Y023512D01*
X032349Y023587D01*
X032500Y023587D01*
X032575Y023512D01*
X032575Y023437D01*
X032500Y023362D01*
X032349Y023362D02*
X032274Y023287D01*
X032274Y023212D01*
X031814Y023137D02*
X031814Y023587D01*
X031775Y022682D02*
X032000Y022682D01*
X032075Y022607D01*
X032075Y022456D01*
X032000Y022381D01*
X031775Y022381D01*
X031925Y022381D02*
X032075Y022231D01*
X032000Y022091D02*
X032075Y022016D01*
X032075Y021866D01*
X032000Y021791D01*
X031775Y021791D01*
X031925Y021791D02*
X032075Y021641D01*
X032235Y021641D02*
X032535Y021641D01*
X032385Y021641D02*
X032385Y022091D01*
X032235Y021941D01*
X032000Y022091D02*
X031775Y022091D01*
X031775Y021641D01*
X031775Y022231D02*
X031775Y022682D01*
X032235Y022607D02*
X032235Y022532D01*
X032310Y022456D01*
X032535Y022456D01*
X032535Y022306D02*
X032535Y022607D01*
X032460Y022682D01*
X032310Y022682D01*
X032235Y022607D01*
X032235Y022306D02*
X032310Y022231D01*
X032460Y022231D01*
X032535Y022306D01*
X032770Y022091D02*
X032921Y022091D01*
X032996Y022016D01*
X032695Y021716D01*
X032770Y021641D01*
X032921Y021641D01*
X032996Y021716D01*
X032996Y022016D01*
X032770Y022091D02*
X032695Y022016D01*
X032695Y021716D01*
X033267Y022625D02*
X033192Y022700D01*
X033192Y023000D01*
X033267Y023075D01*
X033417Y023075D01*
X033492Y023000D01*
X033652Y023000D02*
X033727Y023075D01*
X033877Y023075D01*
X033953Y023000D01*
X033953Y022925D01*
X033652Y022625D01*
X033953Y022625D01*
X033492Y022700D02*
X033417Y022625D01*
X033267Y022625D01*
X034255Y023606D02*
X034330Y023531D01*
X034480Y023531D01*
X034555Y023606D01*
X034715Y023606D02*
X034790Y023531D01*
X034940Y023531D01*
X035016Y023606D01*
X035016Y023681D01*
X034940Y023756D01*
X034715Y023756D01*
X034715Y023606D01*
X034715Y023756D02*
X034865Y023906D01*
X035016Y023981D01*
X034555Y023906D02*
X034480Y023981D01*
X034330Y023981D01*
X034255Y023906D01*
X034255Y023606D01*
X034283Y024968D02*
X034460Y024968D01*
X034460Y025145D01*
X035639Y020349D02*
X035939Y019898D01*
X036099Y019898D02*
X036399Y020198D01*
X036399Y020274D01*
X036324Y020349D01*
X036174Y020349D01*
X036099Y020274D01*
X035939Y020349D02*
X035639Y019898D01*
X036099Y019898D02*
X036399Y019898D01*
X036007Y018390D02*
X036007Y017940D01*
X035857Y017940D02*
X036157Y017940D01*
X035857Y018240D02*
X036007Y018390D01*
X035697Y018315D02*
X035622Y018390D01*
X035472Y018390D01*
X035397Y018315D01*
X035397Y018015D01*
X035472Y017940D01*
X035622Y017940D01*
X035697Y018015D01*
X034379Y017629D02*
X034379Y017178D01*
X034229Y017178D02*
X034529Y017178D01*
X034229Y017478D02*
X034379Y017629D01*
X034069Y017553D02*
X033994Y017629D01*
X033844Y017629D01*
X033768Y017553D01*
X033768Y017253D01*
X033844Y017178D01*
X033994Y017178D01*
X034069Y017253D01*
X033612Y017178D02*
X033462Y017178D01*
X033537Y017178D02*
X033537Y017629D01*
X033462Y017629D02*
X033612Y017629D01*
X033653Y017822D02*
X033728Y017897D01*
X033653Y017822D02*
X033503Y017822D01*
X033428Y017897D01*
X033428Y018197D01*
X033503Y018272D01*
X033653Y018272D01*
X033728Y018197D01*
X033888Y018272D02*
X033888Y018047D01*
X034039Y018122D01*
X034114Y018122D01*
X034189Y018047D01*
X034189Y017897D01*
X034114Y017822D01*
X033964Y017822D01*
X033888Y017897D01*
X033888Y018272D02*
X034189Y018272D01*
X033822Y016783D02*
X033822Y016483D01*
X033597Y016708D01*
X034047Y016708D01*
X033972Y016323D02*
X034047Y016248D01*
X034047Y016098D01*
X033972Y016023D01*
X033672Y016023D01*
X033597Y016098D01*
X033597Y016248D01*
X033672Y016323D01*
X033008Y016032D02*
X033008Y015957D01*
X032933Y015882D01*
X033008Y015807D01*
X033008Y015732D01*
X032933Y015656D01*
X032782Y015656D01*
X032707Y015732D01*
X032547Y015656D02*
X032397Y015807D01*
X032472Y015807D02*
X032247Y015807D01*
X032247Y015656D02*
X032247Y016107D01*
X032472Y016107D01*
X032547Y016032D01*
X032547Y015882D01*
X032472Y015807D01*
X032707Y016032D02*
X032782Y016107D01*
X032933Y016107D01*
X033008Y016032D01*
X032933Y015882D02*
X032858Y015882D01*
X033127Y015306D02*
X033127Y014930D01*
X033202Y014855D01*
X033352Y014855D01*
X033427Y014930D01*
X033427Y015306D01*
X033587Y015156D02*
X033737Y015306D01*
X033737Y014855D01*
X033587Y014855D02*
X033888Y014855D01*
X034283Y014614D02*
X034460Y014437D01*
X034806Y015381D02*
X034806Y015831D01*
X035031Y015831D01*
X035106Y015756D01*
X035106Y015606D01*
X035031Y015531D01*
X034806Y015531D01*
X034956Y015531D02*
X035106Y015381D01*
X035266Y015606D02*
X035492Y015831D01*
X035492Y015381D01*
X035567Y015606D02*
X035266Y015606D01*
X032708Y014614D02*
X032531Y014614D01*
X032531Y014437D01*
X032338Y014357D02*
X032038Y014357D01*
X032338Y014658D01*
X032338Y014733D01*
X032263Y014808D01*
X032113Y014808D01*
X032038Y014733D01*
X031878Y014733D02*
X031878Y014582D01*
X031803Y014507D01*
X031578Y014507D01*
X031578Y014357D02*
X031578Y014808D01*
X031803Y014808D01*
X031878Y014733D01*
X031878Y014948D02*
X031728Y015098D01*
X031803Y015098D02*
X031578Y015098D01*
X031578Y014948D02*
X031578Y015398D01*
X031803Y015398D01*
X031878Y015323D01*
X031878Y015173D01*
X031803Y015098D01*
X032038Y015248D02*
X032188Y015398D01*
X032188Y014948D01*
X032038Y014948D02*
X032338Y014948D01*
X032181Y014256D02*
X031881Y014256D01*
X031881Y014031D01*
X032031Y014106D01*
X032106Y014106D01*
X032181Y014031D01*
X032181Y013881D01*
X032106Y013806D01*
X031956Y013806D01*
X031881Y013881D01*
X031720Y013806D02*
X031570Y013956D01*
X031645Y013956D02*
X031420Y013956D01*
X031420Y013806D02*
X031420Y014256D01*
X031645Y014256D01*
X031720Y014181D01*
X031720Y014031D01*
X031645Y013956D01*
X031878Y014357D02*
X031728Y014507D01*
X031606Y012957D02*
X031681Y012882D01*
X031681Y012732D01*
X031606Y012657D01*
X031381Y012657D01*
X031531Y012657D02*
X031681Y012507D01*
X031841Y012582D02*
X031916Y012507D01*
X032066Y012507D01*
X032142Y012582D01*
X032142Y012657D01*
X032066Y012732D01*
X031841Y012732D01*
X031841Y012582D01*
X031841Y012732D02*
X031991Y012882D01*
X032142Y012957D01*
X032531Y012862D02*
X032531Y012685D01*
X032708Y012685D01*
X032535Y012249D02*
X032235Y012249D01*
X032075Y012174D02*
X032075Y012023D01*
X032000Y011948D01*
X031775Y011948D01*
X031925Y011948D02*
X032075Y011798D01*
X032235Y011798D02*
X032235Y011873D01*
X032535Y012174D01*
X032535Y012249D01*
X032075Y012174D02*
X032000Y012249D01*
X031775Y012249D01*
X031775Y011798D01*
X031814Y011304D02*
X032039Y011304D01*
X032114Y011229D01*
X032114Y011079D01*
X032039Y011003D01*
X031814Y011003D01*
X031814Y010853D02*
X031814Y011304D01*
X031964Y011003D02*
X032114Y010853D01*
X032274Y010928D02*
X032274Y011003D01*
X032349Y011079D01*
X032500Y011079D01*
X032575Y011003D01*
X032575Y010928D01*
X032500Y010853D01*
X032349Y010853D01*
X032274Y010928D01*
X032349Y011079D02*
X032274Y011154D01*
X032274Y011229D01*
X032349Y011304D01*
X032500Y011304D01*
X032575Y011229D01*
X032575Y011154D01*
X032500Y011079D01*
X033192Y010717D02*
X033192Y010417D01*
X033267Y010342D01*
X033417Y010342D01*
X033492Y010417D01*
X033652Y010342D02*
X033953Y010642D01*
X033953Y010717D01*
X033877Y010792D01*
X033727Y010792D01*
X033652Y010717D01*
X033492Y010717D02*
X033417Y010792D01*
X033267Y010792D01*
X033192Y010717D01*
X032535Y010323D02*
X032460Y010398D01*
X032310Y010398D01*
X032235Y010323D01*
X032235Y010248D01*
X032310Y010173D01*
X032535Y010173D01*
X032535Y010023D02*
X032535Y010323D01*
X032535Y010023D02*
X032460Y009948D01*
X032310Y009948D01*
X032235Y010023D01*
X032075Y009948D02*
X031925Y010098D01*
X032000Y010098D02*
X031775Y010098D01*
X031775Y009948D02*
X031775Y010398D01*
X032000Y010398D01*
X032075Y010323D01*
X032075Y010173D01*
X032000Y010098D01*
X032000Y009808D02*
X032075Y009733D01*
X032075Y009582D01*
X032000Y009507D01*
X031775Y009507D01*
X031925Y009507D02*
X032075Y009357D01*
X032235Y009357D02*
X032535Y009357D01*
X032385Y009357D02*
X032385Y009808D01*
X032235Y009658D01*
X032000Y009808D02*
X031775Y009808D01*
X031775Y009357D01*
X032695Y009432D02*
X032996Y009733D01*
X032996Y009432D01*
X032921Y009357D01*
X032770Y009357D01*
X032695Y009432D01*
X032695Y009733D01*
X032770Y009808D01*
X032921Y009808D01*
X032996Y009733D01*
X033652Y010342D02*
X033953Y010342D01*
X034330Y011247D02*
X034480Y011247D01*
X034555Y011322D01*
X034715Y011322D02*
X034790Y011247D01*
X034940Y011247D01*
X035016Y011322D01*
X035016Y011397D01*
X034940Y011472D01*
X034715Y011472D01*
X034715Y011322D01*
X034715Y011472D02*
X034865Y011622D01*
X035016Y011697D01*
X034555Y011622D02*
X034480Y011697D01*
X034330Y011697D01*
X034255Y011622D01*
X034255Y011322D01*
X034330Y011247D01*
X034283Y012685D02*
X034460Y012685D01*
X034460Y012862D01*
X031606Y012957D02*
X031381Y012957D01*
X031381Y012507D01*
X031412Y016156D02*
X031712Y016457D01*
X031712Y016532D01*
X031637Y016607D01*
X031487Y016607D01*
X031412Y016532D01*
X031252Y016532D02*
X031177Y016607D01*
X031027Y016607D01*
X030952Y016532D01*
X030952Y016232D01*
X031027Y016156D01*
X031177Y016156D01*
X031252Y016232D01*
X031412Y016156D02*
X031712Y016156D01*
X030795Y016156D02*
X030645Y016156D01*
X030720Y016156D02*
X030720Y016607D01*
X030645Y016607D02*
X030795Y016607D01*
X030819Y017940D02*
X030894Y018015D01*
X030819Y017940D02*
X030669Y017940D01*
X030593Y018015D01*
X030593Y018315D01*
X030669Y018390D01*
X030819Y018390D01*
X030894Y018315D01*
X031054Y018315D02*
X031129Y018390D01*
X031279Y018390D01*
X031354Y018315D01*
X031354Y018240D01*
X031279Y018165D01*
X031354Y018090D01*
X031354Y018015D01*
X031279Y017940D01*
X031129Y017940D01*
X031054Y018015D01*
X031204Y018165D02*
X031279Y018165D01*
X028132Y019898D02*
X027831Y019898D01*
X028132Y020198D01*
X028132Y020274D01*
X028057Y020349D01*
X027906Y020349D01*
X027831Y020274D01*
X027671Y020349D02*
X027371Y019898D01*
X027671Y019898D02*
X027371Y020349D01*
X027354Y018390D02*
X027204Y018390D01*
X027129Y018315D01*
X027129Y018015D01*
X027204Y017940D01*
X027354Y017940D01*
X027429Y018015D01*
X027589Y017940D02*
X027890Y017940D01*
X027739Y017940D02*
X027739Y018390D01*
X027589Y018240D01*
X027429Y018315D02*
X027354Y018390D01*
X026261Y017178D02*
X025961Y017178D01*
X026111Y017178D02*
X026111Y017629D01*
X025961Y017478D01*
X025801Y017553D02*
X025726Y017629D01*
X025576Y017629D01*
X025501Y017553D01*
X025501Y017253D01*
X025576Y017178D01*
X025726Y017178D01*
X025801Y017253D01*
X025846Y017822D02*
X025696Y017822D01*
X025621Y017897D01*
X025621Y018047D02*
X025771Y018122D01*
X025846Y018122D01*
X025921Y018047D01*
X025921Y017897D01*
X025846Y017822D01*
X025621Y018047D02*
X025621Y018272D01*
X025921Y018272D01*
X025461Y018197D02*
X025386Y018272D01*
X025235Y018272D01*
X025160Y018197D01*
X025160Y017897D01*
X025235Y017822D01*
X025386Y017822D01*
X025461Y017897D01*
X025344Y017629D02*
X025194Y017629D01*
X025269Y017629D02*
X025269Y017178D01*
X025194Y017178D02*
X025344Y017178D01*
X025554Y016783D02*
X025554Y016483D01*
X025329Y016708D01*
X025780Y016708D01*
X025705Y016323D02*
X025780Y016248D01*
X025780Y016098D01*
X025705Y016023D01*
X025404Y016023D01*
X025329Y016098D01*
X025329Y016248D01*
X025404Y016323D01*
X024740Y016032D02*
X024740Y015957D01*
X024665Y015882D01*
X024740Y015807D01*
X024740Y015732D01*
X024665Y015656D01*
X024515Y015656D01*
X024440Y015732D01*
X024280Y015656D02*
X024129Y015807D01*
X024204Y015807D02*
X023979Y015807D01*
X023979Y015656D02*
X023979Y016107D01*
X024204Y016107D01*
X024280Y016032D01*
X024280Y015882D01*
X024204Y015807D01*
X024440Y016032D02*
X024515Y016107D01*
X024665Y016107D01*
X024740Y016032D01*
X024665Y015882D02*
X024590Y015882D01*
X024859Y015306D02*
X024859Y014930D01*
X024934Y014855D01*
X025084Y014855D01*
X025159Y014930D01*
X025159Y015306D01*
X025320Y015156D02*
X025470Y015306D01*
X025470Y014855D01*
X025320Y014855D02*
X025620Y014855D01*
X026015Y014614D02*
X026192Y014437D01*
X026538Y015381D02*
X026538Y015831D01*
X026764Y015831D01*
X026839Y015756D01*
X026839Y015606D01*
X026764Y015531D01*
X026538Y015531D01*
X026688Y015531D02*
X026839Y015381D01*
X026999Y015606D02*
X027224Y015831D01*
X027224Y015381D01*
X027299Y015606D02*
X026999Y015606D01*
X024441Y014614D02*
X024263Y014614D01*
X024263Y014437D01*
X024071Y014357D02*
X023770Y014357D01*
X024071Y014658D01*
X024071Y014733D01*
X023996Y014808D01*
X023845Y014808D01*
X023770Y014733D01*
X023610Y014733D02*
X023610Y014582D01*
X023535Y014507D01*
X023310Y014507D01*
X023310Y014357D02*
X023310Y014808D01*
X023535Y014808D01*
X023610Y014733D01*
X023610Y014948D02*
X023460Y015098D01*
X023535Y015098D02*
X023310Y015098D01*
X023310Y014948D02*
X023310Y015398D01*
X023535Y015398D01*
X023610Y015323D01*
X023610Y015173D01*
X023535Y015098D01*
X023770Y015248D02*
X023921Y015398D01*
X023921Y014948D01*
X024071Y014948D02*
X023770Y014948D01*
X023460Y014507D02*
X023610Y014357D01*
X023613Y014256D02*
X023613Y014031D01*
X023763Y014106D01*
X023838Y014106D01*
X023913Y014031D01*
X023913Y013881D01*
X023838Y013806D01*
X023688Y013806D01*
X023613Y013881D01*
X023453Y013806D02*
X023303Y013956D01*
X023378Y013956D02*
X023153Y013956D01*
X023153Y013806D02*
X023153Y014256D01*
X023378Y014256D01*
X023453Y014181D01*
X023453Y014031D01*
X023378Y013956D01*
X023613Y014256D02*
X023913Y014256D01*
X023874Y012957D02*
X023724Y012882D01*
X023574Y012732D01*
X023799Y012732D01*
X023874Y012657D01*
X023874Y012582D01*
X023799Y012507D01*
X023649Y012507D01*
X023574Y012582D01*
X023574Y012732D01*
X023413Y012732D02*
X023338Y012657D01*
X023113Y012657D01*
X023113Y012507D02*
X023113Y012957D01*
X023338Y012957D01*
X023413Y012882D01*
X023413Y012732D01*
X023263Y012657D02*
X023413Y012507D01*
X023507Y012249D02*
X023732Y012249D01*
X023807Y012174D01*
X023807Y012023D01*
X023732Y011948D01*
X023507Y011948D01*
X023507Y011798D02*
X023507Y012249D01*
X023657Y011948D02*
X023807Y011798D01*
X023967Y011798D02*
X023967Y011873D01*
X024267Y012174D01*
X024267Y012249D01*
X023967Y012249D01*
X024263Y012685D02*
X024441Y012685D01*
X024263Y012685D02*
X024263Y012862D01*
X024232Y011304D02*
X024082Y011304D01*
X024007Y011229D01*
X024007Y011154D01*
X024082Y011079D01*
X024232Y011079D01*
X024307Y011003D01*
X024307Y010928D01*
X024232Y010853D01*
X024082Y010853D01*
X024007Y010928D01*
X024007Y011003D01*
X024082Y011079D01*
X024232Y011079D02*
X024307Y011154D01*
X024307Y011229D01*
X024232Y011304D01*
X023846Y011229D02*
X023846Y011079D01*
X023771Y011003D01*
X023546Y011003D01*
X023546Y010853D02*
X023546Y011304D01*
X023771Y011304D01*
X023846Y011229D01*
X023696Y011003D02*
X023846Y010853D01*
X023732Y010398D02*
X023807Y010323D01*
X023807Y010173D01*
X023732Y010098D01*
X023507Y010098D01*
X023657Y010098D02*
X023807Y009948D01*
X023732Y009808D02*
X023807Y009733D01*
X023807Y009582D01*
X023732Y009507D01*
X023507Y009507D01*
X023507Y009357D02*
X023507Y009808D01*
X023732Y009808D01*
X023507Y009948D02*
X023507Y010398D01*
X023732Y010398D01*
X023967Y010323D02*
X023967Y010248D01*
X024042Y010173D01*
X024267Y010173D01*
X024267Y010023D02*
X024267Y010323D01*
X024192Y010398D01*
X024042Y010398D01*
X023967Y010323D01*
X023967Y010023D02*
X024042Y009948D01*
X024192Y009948D01*
X024267Y010023D01*
X024117Y009808D02*
X024117Y009357D01*
X023967Y009357D02*
X024267Y009357D01*
X024428Y009432D02*
X024728Y009733D01*
X024728Y009432D01*
X024653Y009357D01*
X024503Y009357D01*
X024428Y009432D01*
X024428Y009733D01*
X024503Y009808D01*
X024653Y009808D01*
X024728Y009733D01*
X024999Y010342D02*
X025149Y010342D01*
X025224Y010417D01*
X025385Y010342D02*
X025685Y010642D01*
X025685Y010717D01*
X025610Y010792D01*
X025460Y010792D01*
X025385Y010717D01*
X025224Y010717D02*
X025149Y010792D01*
X024999Y010792D01*
X024924Y010717D01*
X024924Y010417D01*
X024999Y010342D01*
X025385Y010342D02*
X025685Y010342D01*
X026062Y011247D02*
X026212Y011247D01*
X026287Y011322D01*
X026448Y011322D02*
X026523Y011247D01*
X026673Y011247D01*
X026748Y011322D01*
X026748Y011397D01*
X026673Y011472D01*
X026448Y011472D01*
X026448Y011322D01*
X026448Y011472D02*
X026598Y011622D01*
X026748Y011697D01*
X026287Y011622D02*
X026212Y011697D01*
X026062Y011697D01*
X025987Y011622D01*
X025987Y011322D01*
X026062Y011247D01*
X026015Y012685D02*
X026192Y012685D01*
X026192Y012862D01*
X024117Y009808D02*
X023967Y009658D01*
X023807Y009357D02*
X023657Y009507D01*
X018480Y011322D02*
X018480Y011397D01*
X018405Y011472D01*
X018180Y011472D01*
X018180Y011322D01*
X018255Y011247D01*
X018405Y011247D01*
X018480Y011322D01*
X018330Y011622D02*
X018180Y011472D01*
X018330Y011622D02*
X018480Y011697D01*
X018020Y011622D02*
X017945Y011697D01*
X017795Y011697D01*
X017719Y011622D01*
X017719Y011322D01*
X017795Y011247D01*
X017945Y011247D01*
X018020Y011322D01*
X017417Y010717D02*
X017342Y010792D01*
X017192Y010792D01*
X017117Y010717D01*
X016957Y010717D02*
X016882Y010792D01*
X016732Y010792D01*
X016656Y010717D01*
X016656Y010417D01*
X016732Y010342D01*
X016882Y010342D01*
X016957Y010417D01*
X017117Y010342D02*
X017417Y010642D01*
X017417Y010717D01*
X017417Y010342D02*
X017117Y010342D01*
X016460Y009733D02*
X016160Y009432D01*
X016235Y009357D01*
X016385Y009357D01*
X016460Y009432D01*
X016460Y009733D01*
X016385Y009808D01*
X016235Y009808D01*
X016160Y009733D01*
X016160Y009432D01*
X016000Y009357D02*
X015700Y009357D01*
X015850Y009357D02*
X015850Y009808D01*
X015700Y009658D01*
X015539Y009733D02*
X015539Y009582D01*
X015464Y009507D01*
X015239Y009507D01*
X015239Y009357D02*
X015239Y009808D01*
X015464Y009808D01*
X015539Y009733D01*
X015539Y009948D02*
X015389Y010098D01*
X015464Y010098D02*
X015239Y010098D01*
X015239Y009948D02*
X015239Y010398D01*
X015464Y010398D01*
X015539Y010323D01*
X015539Y010173D01*
X015464Y010098D01*
X015700Y010023D02*
X015775Y009948D01*
X015925Y009948D01*
X016000Y010023D01*
X016000Y010323D01*
X015925Y010398D01*
X015775Y010398D01*
X015700Y010323D01*
X015700Y010248D01*
X015775Y010173D01*
X016000Y010173D01*
X015964Y010853D02*
X015814Y010853D01*
X015739Y010928D01*
X015739Y011003D01*
X015814Y011079D01*
X015964Y011079D01*
X016039Y011003D01*
X016039Y010928D01*
X015964Y010853D01*
X015964Y011079D02*
X016039Y011154D01*
X016039Y011229D01*
X015964Y011304D01*
X015814Y011304D01*
X015739Y011229D01*
X015739Y011154D01*
X015814Y011079D01*
X015579Y011079D02*
X015579Y011229D01*
X015504Y011304D01*
X015279Y011304D01*
X015279Y010853D01*
X015279Y011003D02*
X015504Y011003D01*
X015579Y011079D01*
X015429Y011003D02*
X015579Y010853D01*
X015539Y011798D02*
X015389Y011948D01*
X015464Y011948D02*
X015239Y011948D01*
X015239Y011798D02*
X015239Y012249D01*
X015464Y012249D01*
X015539Y012174D01*
X015539Y012023D01*
X015464Y011948D01*
X015700Y011873D02*
X015700Y011798D01*
X015700Y011873D02*
X016000Y012174D01*
X016000Y012249D01*
X015700Y012249D01*
X015531Y012507D02*
X015606Y012582D01*
X015606Y012657D01*
X015531Y012732D01*
X015306Y012732D01*
X015306Y012582D01*
X015381Y012507D01*
X015531Y012507D01*
X015306Y012732D02*
X015456Y012882D01*
X015606Y012957D01*
X015996Y012862D02*
X015996Y012685D01*
X016173Y012685D01*
X015146Y012732D02*
X015071Y012657D01*
X014845Y012657D01*
X014845Y012507D02*
X014845Y012957D01*
X015071Y012957D01*
X015146Y012882D01*
X015146Y012732D01*
X014996Y012657D02*
X015146Y012507D01*
X015185Y013806D02*
X015035Y013956D01*
X015110Y013956D02*
X014885Y013956D01*
X014885Y013806D02*
X014885Y014256D01*
X015110Y014256D01*
X015185Y014181D01*
X015185Y014031D01*
X015110Y013956D01*
X015345Y013881D02*
X015420Y013806D01*
X015570Y013806D01*
X015645Y013881D01*
X015645Y014031D01*
X015570Y014106D01*
X015495Y014106D01*
X015345Y014031D01*
X015345Y014256D01*
X015645Y014256D01*
X015503Y014357D02*
X015803Y014357D01*
X015996Y014437D02*
X015996Y014614D01*
X016173Y014614D01*
X015803Y014658D02*
X015803Y014733D01*
X015728Y014808D01*
X015578Y014808D01*
X015503Y014733D01*
X015343Y014733D02*
X015343Y014582D01*
X015267Y014507D01*
X015042Y014507D01*
X015042Y014357D02*
X015042Y014808D01*
X015267Y014808D01*
X015343Y014733D01*
X015343Y014948D02*
X015192Y015098D01*
X015267Y015098D02*
X015042Y015098D01*
X015042Y014948D02*
X015042Y015398D01*
X015267Y015398D01*
X015343Y015323D01*
X015343Y015173D01*
X015267Y015098D01*
X015503Y015248D02*
X015653Y015398D01*
X015653Y014948D01*
X015503Y014948D02*
X015803Y014948D01*
X015803Y014658D02*
X015503Y014357D01*
X015343Y014357D02*
X015192Y014507D01*
X015712Y015656D02*
X015712Y016107D01*
X015937Y016107D01*
X016012Y016032D01*
X016012Y015882D01*
X015937Y015807D01*
X015712Y015807D01*
X015862Y015807D02*
X016012Y015656D01*
X016172Y015732D02*
X016247Y015656D01*
X016397Y015656D01*
X016472Y015732D01*
X016472Y015807D01*
X016397Y015882D01*
X016322Y015882D01*
X016397Y015882D02*
X016472Y015957D01*
X016472Y016032D01*
X016397Y016107D01*
X016247Y016107D01*
X016172Y016032D01*
X016591Y015306D02*
X016591Y014930D01*
X016667Y014855D01*
X016817Y014855D01*
X016892Y014930D01*
X016892Y015306D01*
X017052Y015156D02*
X017202Y015306D01*
X017202Y014855D01*
X017052Y014855D02*
X017352Y014855D01*
X017748Y014614D02*
X017925Y014437D01*
X018271Y015381D02*
X018271Y015831D01*
X018496Y015831D01*
X018571Y015756D01*
X018571Y015606D01*
X018496Y015531D01*
X018271Y015531D01*
X018421Y015531D02*
X018571Y015381D01*
X018731Y015606D02*
X019031Y015606D01*
X018956Y015381D02*
X018956Y015831D01*
X018731Y015606D01*
X017512Y016098D02*
X017437Y016023D01*
X017137Y016023D01*
X017062Y016098D01*
X017062Y016248D01*
X017137Y016323D01*
X017287Y016483D02*
X017062Y016708D01*
X017512Y016708D01*
X017287Y016783D02*
X017287Y016483D01*
X017437Y016323D02*
X017512Y016248D01*
X017512Y016098D01*
X017458Y017178D02*
X017533Y017253D01*
X017458Y017178D02*
X017308Y017178D01*
X017233Y017253D01*
X017233Y017553D01*
X017308Y017629D01*
X017458Y017629D01*
X017533Y017553D01*
X017693Y017478D02*
X017844Y017629D01*
X017844Y017178D01*
X017994Y017178D02*
X017693Y017178D01*
X017578Y017822D02*
X017428Y017822D01*
X017353Y017897D01*
X017353Y018047D02*
X017503Y018122D01*
X017578Y018122D01*
X017653Y018047D01*
X017653Y017897D01*
X017578Y017822D01*
X017353Y018047D02*
X017353Y018272D01*
X017653Y018272D01*
X017193Y018197D02*
X017118Y018272D01*
X016968Y018272D01*
X016893Y018197D01*
X016893Y017897D01*
X016968Y017822D01*
X017118Y017822D01*
X017193Y017897D01*
X017076Y017629D02*
X016926Y017629D01*
X017001Y017629D02*
X017001Y017178D01*
X016926Y017178D02*
X017076Y017178D01*
X018861Y018015D02*
X018936Y017940D01*
X019086Y017940D01*
X019161Y018015D01*
X019322Y017940D02*
X019622Y017940D01*
X019472Y017940D02*
X019472Y018390D01*
X019322Y018240D01*
X019161Y018315D02*
X019086Y018390D01*
X018936Y018390D01*
X018861Y018315D01*
X018861Y018015D01*
X019103Y019898D02*
X019404Y020349D01*
X019564Y020274D02*
X019639Y020349D01*
X019789Y020349D01*
X019864Y020274D01*
X019864Y020198D01*
X019564Y019898D01*
X019864Y019898D01*
X019404Y019898D02*
X019103Y020349D01*
X017417Y022625D02*
X017117Y022625D01*
X017417Y022925D01*
X017417Y023000D01*
X017342Y023075D01*
X017192Y023075D01*
X017117Y023000D01*
X016957Y023000D02*
X016882Y023075D01*
X016732Y023075D01*
X016656Y023000D01*
X016656Y022700D01*
X016732Y022625D01*
X016882Y022625D01*
X016957Y022700D01*
X016385Y022091D02*
X016460Y022016D01*
X016160Y021716D01*
X016235Y021641D01*
X016385Y021641D01*
X016460Y021716D01*
X016460Y022016D01*
X016385Y022091D02*
X016235Y022091D01*
X016160Y022016D01*
X016160Y021716D01*
X016000Y021641D02*
X015700Y021641D01*
X015850Y021641D02*
X015850Y022091D01*
X015700Y021941D01*
X015539Y021866D02*
X015464Y021791D01*
X015239Y021791D01*
X015389Y021791D02*
X015539Y021641D01*
X015539Y021866D02*
X015539Y022016D01*
X015464Y022091D01*
X015239Y022091D01*
X015239Y021641D01*
X015239Y022231D02*
X015239Y022682D01*
X015464Y022682D01*
X015539Y022607D01*
X015539Y022456D01*
X015464Y022381D01*
X015239Y022381D01*
X015389Y022381D02*
X015539Y022231D01*
X015700Y022306D02*
X015775Y022231D01*
X015925Y022231D01*
X016000Y022306D01*
X016000Y022607D01*
X015925Y022682D01*
X015775Y022682D01*
X015700Y022607D01*
X015700Y022532D01*
X015775Y022456D01*
X016000Y022456D01*
X015964Y023137D02*
X015814Y023137D01*
X015739Y023212D01*
X015739Y023287D01*
X015814Y023362D01*
X015964Y023362D01*
X016039Y023287D01*
X016039Y023212D01*
X015964Y023137D01*
X015964Y023362D02*
X016039Y023437D01*
X016039Y023512D01*
X015964Y023587D01*
X015814Y023587D01*
X015739Y023512D01*
X015739Y023437D01*
X015814Y023362D01*
X015579Y023362D02*
X015579Y023512D01*
X015504Y023587D01*
X015279Y023587D01*
X015279Y023137D01*
X015279Y023287D02*
X015504Y023287D01*
X015579Y023362D01*
X015429Y023287D02*
X015579Y023137D01*
X015539Y024082D02*
X015389Y024232D01*
X015464Y024232D02*
X015239Y024232D01*
X015239Y024082D02*
X015239Y024532D01*
X015464Y024532D01*
X015539Y024457D01*
X015539Y024307D01*
X015464Y024232D01*
X015700Y024157D02*
X016000Y024457D01*
X016000Y024532D01*
X015700Y024532D01*
X015531Y024790D02*
X015606Y024865D01*
X015606Y024940D01*
X015531Y025016D01*
X015306Y025016D01*
X015306Y024865D01*
X015381Y024790D01*
X015531Y024790D01*
X015306Y025016D02*
X015456Y025166D01*
X015606Y025241D01*
X015996Y025145D02*
X015996Y024968D01*
X016173Y024968D01*
X015700Y024157D02*
X015700Y024082D01*
X015146Y024790D02*
X014996Y024940D01*
X015071Y024940D02*
X014845Y024940D01*
X014845Y024790D02*
X014845Y025241D01*
X015071Y025241D01*
X015146Y025166D01*
X015146Y025016D01*
X015071Y024940D01*
X017748Y024968D02*
X017925Y024968D01*
X017925Y025145D01*
X017945Y023981D02*
X017795Y023981D01*
X017719Y023906D01*
X017719Y023606D01*
X017795Y023531D01*
X017945Y023531D01*
X018020Y023606D01*
X018180Y023606D02*
X018255Y023531D01*
X018405Y023531D01*
X018480Y023606D01*
X018480Y023681D01*
X018405Y023756D01*
X018180Y023756D01*
X018180Y023606D01*
X018180Y023756D02*
X018330Y023906D01*
X018480Y023981D01*
X018020Y023906D02*
X017945Y023981D01*
X017925Y026720D02*
X017748Y026897D01*
X010764Y027890D02*
X010463Y027890D01*
X010688Y028115D01*
X010688Y027664D01*
X010303Y027664D02*
X010153Y027814D01*
X010228Y027814D02*
X010003Y027814D01*
X010003Y027664D02*
X010003Y028115D01*
X010228Y028115D01*
X010303Y028040D01*
X010303Y027890D01*
X010228Y027814D01*
X007905Y026897D02*
X007728Y026897D01*
X007728Y026720D01*
X007535Y026641D02*
X007235Y026641D01*
X007535Y026941D01*
X007535Y027016D01*
X007460Y027091D01*
X007310Y027091D01*
X007235Y027016D01*
X007075Y027016D02*
X007075Y026866D01*
X007000Y026791D01*
X006775Y026791D01*
X006925Y026791D02*
X007075Y026641D01*
X007077Y026540D02*
X007077Y026315D01*
X007228Y026390D01*
X007303Y026390D01*
X007378Y026315D01*
X007378Y026165D01*
X007303Y026090D01*
X007153Y026090D01*
X007077Y026165D01*
X006917Y026090D02*
X006767Y026240D01*
X006842Y026240D02*
X006617Y026240D01*
X006617Y026090D02*
X006617Y026540D01*
X006842Y026540D01*
X006917Y026465D01*
X006917Y026315D01*
X006842Y026240D01*
X007077Y026540D02*
X007378Y026540D01*
X007075Y027016D02*
X007000Y027091D01*
X006775Y027091D01*
X006775Y026641D01*
X006775Y027231D02*
X006775Y027682D01*
X007000Y027682D01*
X007075Y027607D01*
X007075Y027456D01*
X007000Y027381D01*
X006775Y027381D01*
X006925Y027381D02*
X007075Y027231D01*
X007235Y027231D02*
X007535Y027231D01*
X007385Y027231D02*
X007385Y027682D01*
X007235Y027532D01*
X006909Y028440D02*
X006609Y028440D01*
X006909Y028740D01*
X006909Y028815D01*
X006834Y028890D01*
X006684Y028890D01*
X006609Y028815D01*
X006449Y028815D02*
X006374Y028890D01*
X006223Y028890D01*
X006148Y028815D01*
X006148Y028515D01*
X006223Y028440D01*
X006374Y028440D01*
X006449Y028515D01*
X005992Y028440D02*
X005841Y028440D01*
X005917Y028440D02*
X005917Y028890D01*
X005992Y028890D02*
X005841Y028890D01*
X005865Y030223D02*
X006015Y030223D01*
X006091Y030298D01*
X006251Y030298D02*
X006326Y030223D01*
X006476Y030223D01*
X006551Y030298D01*
X006551Y030374D01*
X006476Y030449D01*
X006401Y030449D01*
X006476Y030449D02*
X006551Y030524D01*
X006551Y030599D01*
X006476Y030674D01*
X006326Y030674D01*
X006251Y030599D01*
X006091Y030599D02*
X006015Y030674D01*
X005865Y030674D01*
X005790Y030599D01*
X005790Y030298D01*
X005865Y030223D01*
X006578Y025241D02*
X006803Y025241D01*
X006878Y025166D01*
X006878Y025016D01*
X006803Y024940D01*
X006578Y024940D01*
X006578Y024790D02*
X006578Y025241D01*
X006728Y024940D02*
X006878Y024790D01*
X007038Y024865D02*
X007038Y025016D01*
X007263Y025016D01*
X007338Y024940D01*
X007338Y024865D01*
X007263Y024790D01*
X007113Y024790D01*
X007038Y024865D01*
X007038Y025016D02*
X007188Y025166D01*
X007338Y025241D01*
X007728Y025145D02*
X007728Y024968D01*
X007905Y024968D01*
X007732Y024532D02*
X007732Y024457D01*
X007432Y024157D01*
X007432Y024082D01*
X007272Y024082D02*
X007122Y024232D01*
X007197Y024232D02*
X006971Y024232D01*
X006971Y024082D02*
X006971Y024532D01*
X007197Y024532D01*
X007272Y024457D01*
X007272Y024307D01*
X007197Y024232D01*
X007432Y024532D02*
X007732Y024532D01*
X007696Y023587D02*
X007771Y023512D01*
X007771Y023437D01*
X007696Y023362D01*
X007546Y023362D01*
X007471Y023437D01*
X007471Y023512D01*
X007546Y023587D01*
X007696Y023587D01*
X007696Y023362D02*
X007771Y023287D01*
X007771Y023212D01*
X007696Y023137D01*
X007546Y023137D01*
X007471Y023212D01*
X007471Y023287D01*
X007546Y023362D01*
X007311Y023362D02*
X007311Y023512D01*
X007236Y023587D01*
X007011Y023587D01*
X007011Y023137D01*
X007011Y023287D02*
X007236Y023287D01*
X007311Y023362D01*
X007161Y023287D02*
X007311Y023137D01*
X007197Y022682D02*
X006971Y022682D01*
X006971Y022231D01*
X006971Y022091D02*
X007197Y022091D01*
X007272Y022016D01*
X007272Y021866D01*
X007197Y021791D01*
X006971Y021791D01*
X006971Y021641D02*
X006971Y022091D01*
X006971Y022381D02*
X007197Y022381D01*
X007272Y022456D01*
X007272Y022607D01*
X007197Y022682D01*
X007432Y022607D02*
X007432Y022532D01*
X007507Y022456D01*
X007732Y022456D01*
X007732Y022306D02*
X007732Y022607D01*
X007657Y022682D01*
X007507Y022682D01*
X007432Y022607D01*
X007432Y022306D02*
X007507Y022231D01*
X007657Y022231D01*
X007732Y022306D01*
X007582Y022091D02*
X007582Y021641D01*
X007432Y021641D02*
X007732Y021641D01*
X007892Y021716D02*
X008192Y022016D01*
X008192Y021716D01*
X008117Y021641D01*
X007967Y021641D01*
X007892Y021716D01*
X007892Y022016D01*
X007967Y022091D01*
X008117Y022091D01*
X008192Y022016D01*
X007582Y022091D02*
X007432Y021941D01*
X007272Y022231D02*
X007122Y022381D01*
X007122Y021791D02*
X007272Y021641D01*
X008389Y022700D02*
X008464Y022625D01*
X008614Y022625D01*
X008689Y022700D01*
X008849Y022625D02*
X009149Y022925D01*
X009149Y023000D01*
X009074Y023075D01*
X008924Y023075D01*
X008849Y023000D01*
X008689Y023000D02*
X008614Y023075D01*
X008464Y023075D01*
X008389Y023000D01*
X008389Y022700D01*
X008849Y022625D02*
X009149Y022625D01*
X009527Y023531D02*
X009677Y023531D01*
X009752Y023606D01*
X009912Y023606D02*
X009987Y023531D01*
X010137Y023531D01*
X010212Y023606D01*
X010212Y023681D01*
X010137Y023756D01*
X009912Y023756D01*
X009912Y023606D01*
X009912Y023756D02*
X010062Y023906D01*
X010212Y023981D01*
X009752Y023906D02*
X009677Y023981D01*
X009527Y023981D01*
X009452Y023906D01*
X009452Y023606D01*
X009527Y023531D01*
X009480Y024968D02*
X009657Y024968D01*
X009657Y025145D01*
X010836Y020349D02*
X011136Y019898D01*
X011296Y019898D02*
X011596Y020198D01*
X011596Y020274D01*
X011521Y020349D01*
X011371Y020349D01*
X011296Y020274D01*
X011136Y020349D02*
X010836Y019898D01*
X011296Y019898D02*
X011596Y019898D01*
X011204Y018390D02*
X011204Y017940D01*
X011054Y017940D02*
X011354Y017940D01*
X011054Y018240D02*
X011204Y018390D01*
X010894Y018315D02*
X010819Y018390D01*
X010669Y018390D01*
X010593Y018315D01*
X010593Y018015D01*
X010669Y017940D01*
X010819Y017940D01*
X010894Y018015D01*
X009576Y017629D02*
X009576Y017178D01*
X009426Y017178D02*
X009726Y017178D01*
X009426Y017478D02*
X009576Y017629D01*
X009266Y017553D02*
X009191Y017629D01*
X009040Y017629D01*
X008965Y017553D01*
X008965Y017253D01*
X009040Y017178D01*
X009191Y017178D01*
X009266Y017253D01*
X008809Y017178D02*
X008658Y017178D01*
X008733Y017178D02*
X008733Y017629D01*
X008658Y017629D02*
X008809Y017629D01*
X008850Y017822D02*
X008925Y017897D01*
X008850Y017822D02*
X008700Y017822D01*
X008625Y017897D01*
X008625Y018197D01*
X008700Y018272D01*
X008850Y018272D01*
X008925Y018197D01*
X009085Y018272D02*
X009085Y018047D01*
X009235Y018122D01*
X009311Y018122D01*
X009386Y018047D01*
X009386Y017897D01*
X009311Y017822D01*
X009160Y017822D01*
X009085Y017897D01*
X009085Y018272D02*
X009386Y018272D01*
X009019Y016783D02*
X009019Y016483D01*
X008794Y016708D01*
X009244Y016708D01*
X009169Y016323D02*
X009244Y016248D01*
X009244Y016098D01*
X009169Y016023D01*
X008869Y016023D01*
X008794Y016098D01*
X008794Y016248D01*
X008869Y016323D01*
X008205Y016032D02*
X008205Y015957D01*
X008129Y015882D01*
X008205Y015807D01*
X008205Y015732D01*
X008129Y015656D01*
X007979Y015656D01*
X007904Y015732D01*
X007744Y015656D02*
X007594Y015807D01*
X007669Y015807D02*
X007444Y015807D01*
X007444Y015656D02*
X007444Y016107D01*
X007669Y016107D01*
X007744Y016032D01*
X007744Y015882D01*
X007669Y015807D01*
X007904Y016032D02*
X007979Y016107D01*
X008129Y016107D01*
X008205Y016032D01*
X008129Y015882D02*
X008054Y015882D01*
X008324Y015306D02*
X008324Y014930D01*
X008399Y014855D01*
X008549Y014855D01*
X008624Y014930D01*
X008624Y015306D01*
X008784Y015156D02*
X008934Y015306D01*
X008934Y014855D01*
X008784Y014855D02*
X009084Y014855D01*
X009480Y014614D02*
X009657Y014437D01*
X010003Y015381D02*
X010003Y015831D01*
X010228Y015831D01*
X010303Y015756D01*
X010303Y015606D01*
X010228Y015531D01*
X010003Y015531D01*
X010153Y015531D02*
X010303Y015381D01*
X010463Y015606D02*
X010764Y015606D01*
X010688Y015381D02*
X010688Y015831D01*
X010463Y015606D01*
X007905Y014614D02*
X007728Y014614D01*
X007728Y014437D01*
X007535Y014357D02*
X007235Y014357D01*
X007535Y014658D01*
X007535Y014733D01*
X007460Y014808D01*
X007310Y014808D01*
X007235Y014733D01*
X007075Y014733D02*
X007075Y014582D01*
X007000Y014507D01*
X006775Y014507D01*
X006925Y014507D02*
X007075Y014357D01*
X007077Y014256D02*
X007077Y014031D01*
X007228Y014106D01*
X007303Y014106D01*
X007378Y014031D01*
X007378Y013881D01*
X007303Y013806D01*
X007153Y013806D01*
X007077Y013881D01*
X006917Y013806D02*
X006767Y013956D01*
X006842Y013956D02*
X006617Y013956D01*
X006617Y013806D02*
X006617Y014256D01*
X006842Y014256D01*
X006917Y014181D01*
X006917Y014031D01*
X006842Y013956D01*
X007077Y014256D02*
X007378Y014256D01*
X007075Y014733D02*
X007000Y014808D01*
X006775Y014808D01*
X006775Y014357D01*
X006775Y014948D02*
X006775Y015398D01*
X007000Y015398D01*
X007075Y015323D01*
X007075Y015173D01*
X007000Y015098D01*
X006775Y015098D01*
X006925Y015098D02*
X007075Y014948D01*
X007235Y014948D02*
X007535Y014948D01*
X007385Y014948D02*
X007385Y015398D01*
X007235Y015248D01*
X006909Y016156D02*
X006609Y016156D01*
X006909Y016457D01*
X006909Y016532D01*
X006834Y016607D01*
X006684Y016607D01*
X006609Y016532D01*
X006449Y016532D02*
X006374Y016607D01*
X006223Y016607D01*
X006148Y016532D01*
X006148Y016232D01*
X006223Y016156D01*
X006374Y016156D01*
X006449Y016232D01*
X005992Y016156D02*
X005841Y016156D01*
X005917Y016156D02*
X005917Y016607D01*
X005992Y016607D02*
X005841Y016607D01*
X005865Y017940D02*
X005790Y018015D01*
X005790Y018315D01*
X005865Y018390D01*
X006015Y018390D01*
X006091Y018315D01*
X006251Y018315D02*
X006326Y018390D01*
X006476Y018390D01*
X006551Y018315D01*
X006551Y018240D01*
X006476Y018165D01*
X006551Y018090D01*
X006551Y018015D01*
X006476Y017940D01*
X006326Y017940D01*
X006251Y018015D01*
X006091Y018015D02*
X006015Y017940D01*
X005865Y017940D01*
X006401Y018165D02*
X006476Y018165D01*
X006578Y012957D02*
X006803Y012957D01*
X006878Y012882D01*
X006878Y012732D01*
X006803Y012657D01*
X006578Y012657D01*
X006728Y012657D02*
X006878Y012507D01*
X007038Y012582D02*
X007038Y012732D01*
X007263Y012732D01*
X007338Y012657D01*
X007338Y012582D01*
X007263Y012507D01*
X007113Y012507D01*
X007038Y012582D01*
X007038Y012732D02*
X007188Y012882D01*
X007338Y012957D01*
X007728Y012862D02*
X007728Y012685D01*
X007905Y012685D01*
X007732Y012249D02*
X007732Y012174D01*
X007432Y011873D01*
X007432Y011798D01*
X007272Y011798D02*
X007122Y011948D01*
X007197Y011948D02*
X006971Y011948D01*
X006971Y011798D02*
X006971Y012249D01*
X007197Y012249D01*
X007272Y012174D01*
X007272Y012023D01*
X007197Y011948D01*
X007432Y012249D02*
X007732Y012249D01*
X007696Y011304D02*
X007771Y011229D01*
X007771Y011154D01*
X007696Y011079D01*
X007546Y011079D01*
X007471Y011154D01*
X007471Y011229D01*
X007546Y011304D01*
X007696Y011304D01*
X007696Y011079D02*
X007771Y011003D01*
X007771Y010928D01*
X007696Y010853D01*
X007546Y010853D01*
X007471Y010928D01*
X007471Y011003D01*
X007546Y011079D01*
X007311Y011079D02*
X007311Y011229D01*
X007236Y011304D01*
X007011Y011304D01*
X007011Y010853D01*
X007011Y011003D02*
X007236Y011003D01*
X007311Y011079D01*
X007161Y011003D02*
X007311Y010853D01*
X007197Y010398D02*
X006971Y010398D01*
X006971Y009948D01*
X006971Y009808D02*
X007197Y009808D01*
X007272Y009733D01*
X007272Y009582D01*
X007197Y009507D01*
X006971Y009507D01*
X006971Y009357D02*
X006971Y009808D01*
X006971Y010098D02*
X007197Y010098D01*
X007272Y010173D01*
X007272Y010323D01*
X007197Y010398D01*
X007432Y010323D02*
X007432Y010248D01*
X007507Y010173D01*
X007732Y010173D01*
X007732Y010023D02*
X007732Y010323D01*
X007657Y010398D01*
X007507Y010398D01*
X007432Y010323D01*
X007432Y010023D02*
X007507Y009948D01*
X007657Y009948D01*
X007732Y010023D01*
X007582Y009808D02*
X007582Y009357D01*
X007432Y009357D02*
X007732Y009357D01*
X007892Y009432D02*
X008192Y009733D01*
X008192Y009432D01*
X008117Y009357D01*
X007967Y009357D01*
X007892Y009432D01*
X007892Y009733D01*
X007967Y009808D01*
X008117Y009808D01*
X008192Y009733D01*
X007582Y009808D02*
X007432Y009658D01*
X007272Y009948D02*
X007122Y010098D01*
X007122Y009507D02*
X007272Y009357D01*
X008389Y010417D02*
X008389Y010717D01*
X008464Y010792D01*
X008614Y010792D01*
X008689Y010717D01*
X008849Y010717D02*
X008924Y010792D01*
X009074Y010792D01*
X009149Y010717D01*
X009149Y010642D01*
X008849Y010342D01*
X009149Y010342D01*
X008689Y010417D02*
X008614Y010342D01*
X008464Y010342D01*
X008389Y010417D01*
X009452Y011322D02*
X009527Y011247D01*
X009677Y011247D01*
X009752Y011322D01*
X009912Y011322D02*
X009987Y011247D01*
X010137Y011247D01*
X010212Y011322D01*
X010212Y011397D01*
X010137Y011472D01*
X009912Y011472D01*
X009912Y011322D01*
X009912Y011472D02*
X010062Y011622D01*
X010212Y011697D01*
X009752Y011622D02*
X009677Y011697D01*
X009527Y011697D01*
X009452Y011622D01*
X009452Y011322D01*
X009480Y012685D02*
X009657Y012685D01*
X009657Y012862D01*
X006578Y012957D02*
X006578Y012507D01*
X014058Y018015D02*
X014133Y017940D01*
X014283Y017940D01*
X014358Y018015D01*
X014518Y018015D02*
X014593Y017940D01*
X014744Y017940D01*
X014819Y018015D01*
X014819Y018090D01*
X014744Y018165D01*
X014669Y018165D01*
X014744Y018165D02*
X014819Y018240D01*
X014819Y018315D01*
X014744Y018390D01*
X014593Y018390D01*
X014518Y018315D01*
X014358Y018315D02*
X014283Y018390D01*
X014133Y018390D01*
X014058Y018315D01*
X014058Y018015D01*
X014109Y016607D02*
X014259Y016607D01*
X014184Y016607D02*
X014184Y016156D01*
X014109Y016156D02*
X014259Y016156D01*
X014416Y016232D02*
X014491Y016156D01*
X014641Y016156D01*
X014716Y016232D01*
X014877Y016156D02*
X015177Y016457D01*
X015177Y016532D01*
X015102Y016607D01*
X014952Y016607D01*
X014877Y016532D01*
X014716Y016532D02*
X014641Y016607D01*
X014491Y016607D01*
X014416Y016532D01*
X014416Y016232D01*
X014877Y016156D02*
X015177Y016156D01*
X017925Y012862D02*
X017925Y012685D01*
X017748Y012685D01*
X015389Y009507D02*
X015539Y009357D01*
X022377Y016156D02*
X022527Y016156D01*
X022452Y016156D02*
X022452Y016607D01*
X022377Y016607D02*
X022527Y016607D01*
X022684Y016532D02*
X022684Y016232D01*
X022759Y016156D01*
X022909Y016156D01*
X022984Y016232D01*
X023144Y016156D02*
X023444Y016457D01*
X023444Y016532D01*
X023369Y016607D01*
X023219Y016607D01*
X023144Y016532D01*
X022984Y016532D02*
X022909Y016607D01*
X022759Y016607D01*
X022684Y016532D01*
X023144Y016156D02*
X023444Y016156D01*
X023011Y017940D02*
X022861Y017940D01*
X022786Y018015D01*
X022626Y018015D02*
X022551Y017940D01*
X022401Y017940D01*
X022326Y018015D01*
X022326Y018315D01*
X022401Y018390D01*
X022551Y018390D01*
X022626Y018315D01*
X022786Y018315D02*
X022861Y018390D01*
X023011Y018390D01*
X023086Y018315D01*
X023086Y018240D01*
X023011Y018165D01*
X023086Y018090D01*
X023086Y018015D01*
X023011Y017940D01*
X023011Y018165D02*
X022936Y018165D01*
D12*
X005647Y008622D02*
X004738Y008622D01*
X004738Y020724D01*
X005647Y020724D01*
X005647Y008622D01*
X010738Y010122D02*
X011647Y010122D01*
X011647Y012224D01*
X010738Y012224D01*
X010738Y010122D01*
X011738Y008622D02*
X012647Y008622D01*
X012647Y020724D01*
X011738Y020724D01*
X011738Y008622D01*
X013005Y008622D02*
X013915Y008622D01*
X013915Y020724D01*
X013005Y020724D01*
X013005Y008622D01*
X019005Y010122D02*
X019915Y010122D01*
X019915Y012224D01*
X019005Y012224D01*
X019005Y010122D01*
X020005Y008622D02*
X020915Y008622D01*
X020915Y020724D01*
X020005Y020724D01*
X020005Y008622D01*
X021273Y008622D02*
X022183Y008622D01*
X022183Y020724D01*
X021273Y020724D01*
X021273Y008622D01*
X027273Y010122D02*
X028183Y010122D01*
X028183Y012224D01*
X027273Y012224D01*
X027273Y010122D01*
X028273Y008622D02*
X029183Y008622D01*
X029183Y020724D01*
X028273Y020724D01*
X028273Y008622D01*
X029541Y008622D02*
X030450Y008622D01*
X030450Y020724D01*
X029541Y020724D01*
X029541Y008622D01*
X035541Y010122D02*
X036450Y010122D01*
X036450Y012224D01*
X035541Y012224D01*
X035541Y010122D01*
X036541Y008622D02*
X037450Y008622D01*
X037450Y020724D01*
X036541Y020724D01*
X036541Y008622D01*
X036546Y019815D02*
X030445Y019815D01*
X030445Y020578D01*
X036546Y020578D01*
X036546Y019815D01*
X036541Y020906D02*
X037450Y020906D01*
X037450Y033007D01*
X036541Y033007D01*
X036541Y020906D01*
X036450Y022406D02*
X035541Y022406D01*
X035541Y024507D01*
X036450Y024507D01*
X036450Y022406D01*
X030450Y020906D02*
X029541Y020906D01*
X029541Y033007D01*
X030450Y033007D01*
X030450Y020906D01*
X029183Y020906D02*
X028273Y020906D01*
X028273Y033007D01*
X029183Y033007D01*
X029183Y020906D01*
X028279Y020578D02*
X028279Y019815D01*
X022177Y019815D01*
X022177Y020578D01*
X028279Y020578D01*
X028183Y022406D02*
X027273Y022406D01*
X027273Y024507D01*
X028183Y024507D01*
X028183Y022406D01*
X022183Y020906D02*
X021273Y020906D01*
X021273Y033007D01*
X022183Y033007D01*
X022183Y020906D01*
X020915Y020906D02*
X020005Y020906D01*
X020005Y033007D01*
X020915Y033007D01*
X020915Y020906D01*
X020011Y020578D02*
X020011Y019815D01*
X013909Y019815D01*
X013909Y020578D01*
X020011Y020578D01*
X019915Y022406D02*
X019005Y022406D01*
X019005Y024507D01*
X019915Y024507D01*
X019915Y022406D01*
X013915Y020906D02*
X013005Y020906D01*
X013005Y033007D01*
X013915Y033007D01*
X013915Y020906D01*
X012647Y020906D02*
X011738Y020906D01*
X011738Y033007D01*
X012647Y033007D01*
X012647Y020906D01*
X011743Y020578D02*
X011743Y019815D01*
X005642Y019815D01*
X005642Y020578D01*
X011743Y020578D01*
X011647Y022406D02*
X010738Y022406D01*
X010738Y024507D01*
X011647Y024507D01*
X011647Y022406D01*
X005647Y020906D02*
X004738Y020906D01*
X004738Y033007D01*
X005647Y033007D01*
X005647Y020906D01*
X005642Y032098D02*
X011743Y032098D01*
X011743Y032862D01*
X005642Y032862D01*
X005642Y032098D01*
X013909Y032098D02*
X020011Y032098D01*
X020011Y032862D01*
X013909Y032862D01*
X013909Y032098D01*
X022177Y032098D02*
X028279Y032098D01*
X028279Y032862D01*
X022177Y032862D01*
X022177Y032098D01*
X030445Y032098D02*
X036546Y032098D01*
X036546Y032862D01*
X030445Y032862D01*
X030445Y032098D01*
D13*
X030695Y032370D02*
X030561Y032504D01*
X030964Y032504D01*
X030964Y032370D02*
X030964Y032639D01*
X030476Y031588D02*
X030207Y031588D01*
X030341Y031588D02*
X030341Y031184D01*
X030476Y031319D01*
X029696Y032370D02*
X029696Y032639D01*
X029696Y032504D02*
X029293Y032504D01*
X029427Y032370D01*
X022696Y032370D02*
X022696Y032639D01*
X022696Y032504D02*
X022293Y032504D01*
X022427Y032370D01*
X022208Y031588D02*
X021939Y031588D01*
X022074Y031588D02*
X022074Y031184D01*
X022208Y031319D01*
X021429Y032370D02*
X021429Y032639D01*
X021429Y032504D02*
X021025Y032504D01*
X021160Y032370D01*
X014429Y032370D02*
X014429Y032639D01*
X014429Y032504D02*
X014025Y032504D01*
X014160Y032370D01*
X013940Y031588D02*
X013672Y031588D01*
X013806Y031588D02*
X013806Y031184D01*
X013940Y031319D01*
X013161Y032370D02*
X013161Y032639D01*
X013161Y032504D02*
X012758Y032504D01*
X012892Y032370D01*
X006161Y032370D02*
X006161Y032639D01*
X006161Y032504D02*
X005758Y032504D01*
X005892Y032370D01*
X005673Y031588D02*
X005404Y031588D01*
X005538Y031588D02*
X005538Y031184D01*
X005673Y031319D01*
X011758Y024004D02*
X012161Y024004D01*
X012161Y023870D02*
X012161Y024139D01*
X011892Y023870D02*
X011758Y024004D01*
X013161Y020355D02*
X013161Y020086D01*
X013161Y020221D02*
X012758Y020221D01*
X012892Y020086D01*
X013672Y019304D02*
X013940Y019304D01*
X013806Y019304D02*
X013806Y018901D01*
X013940Y019035D01*
X014160Y020086D02*
X014025Y020221D01*
X014429Y020221D01*
X014429Y020355D02*
X014429Y020086D01*
X020025Y024004D02*
X020160Y023870D01*
X020025Y024004D02*
X020429Y024004D01*
X020429Y023870D02*
X020429Y024139D01*
X021429Y020355D02*
X021429Y020086D01*
X021429Y020221D02*
X021025Y020221D01*
X021160Y020086D01*
X021939Y019304D02*
X022208Y019304D01*
X022074Y019304D02*
X022074Y018901D01*
X022208Y019035D01*
X022427Y020086D02*
X022293Y020221D01*
X022696Y020221D01*
X022696Y020355D02*
X022696Y020086D01*
X028293Y024004D02*
X028427Y023870D01*
X028293Y024004D02*
X028696Y024004D01*
X028696Y023870D02*
X028696Y024139D01*
X029696Y020355D02*
X029696Y020086D01*
X029696Y020221D02*
X029293Y020221D01*
X029427Y020086D01*
X030207Y019304D02*
X030476Y019304D01*
X030341Y019304D02*
X030341Y018901D01*
X030476Y019035D01*
X030695Y020086D02*
X030561Y020221D01*
X030964Y020221D01*
X030964Y020355D02*
X030964Y020086D01*
X036561Y024004D02*
X036695Y023870D01*
X036561Y024004D02*
X036964Y024004D01*
X036964Y023870D02*
X036964Y024139D01*
X037964Y020355D02*
X037964Y020086D01*
X037964Y020221D02*
X037561Y020221D01*
X037695Y020086D01*
X036964Y011855D02*
X036964Y011586D01*
X036964Y011721D02*
X036561Y011721D01*
X036695Y011586D01*
X028696Y011586D02*
X028696Y011855D01*
X028696Y011721D02*
X028293Y011721D01*
X028427Y011586D01*
X020429Y011586D02*
X020429Y011855D01*
X020429Y011721D02*
X020025Y011721D01*
X020160Y011586D01*
X012161Y011586D02*
X012161Y011855D01*
X012161Y011721D02*
X011758Y011721D01*
X011892Y011586D01*
X005538Y018901D02*
X005538Y019304D01*
X005404Y019304D02*
X005673Y019304D01*
X005673Y019035D02*
X005538Y018901D01*
X005892Y020086D02*
X005758Y020221D01*
X006161Y020221D01*
X006161Y020355D02*
X006161Y020086D01*
X037561Y032504D02*
X037695Y032370D01*
X037561Y032504D02*
X037964Y032504D01*
X037964Y032370D02*
X037964Y032639D01*
D14*
X034229Y026666D03*
X025961Y026666D03*
X017693Y026666D03*
X009426Y026666D03*
X009426Y014382D03*
X017693Y014382D03*
X025961Y014382D03*
X034229Y014382D03*
D15*
X032559Y017110D02*
X032522Y017110D01*
X032559Y017110D02*
X032559Y017748D01*
X032522Y017748D01*
X032205Y017748D02*
X032168Y017748D01*
X031831Y017748D02*
X031794Y017748D01*
X031477Y017748D02*
X031440Y017748D01*
X031440Y017110D01*
X031477Y017110D01*
X031794Y017110D02*
X032205Y017110D01*
X024292Y017110D02*
X024255Y017110D01*
X024292Y017110D02*
X024292Y017748D01*
X024255Y017748D01*
X023937Y017748D02*
X023900Y017748D01*
X023563Y017748D02*
X023526Y017748D01*
X023209Y017748D02*
X023172Y017748D01*
X023172Y017110D01*
X023209Y017110D01*
X023526Y017110D02*
X023937Y017110D01*
X016024Y017110D02*
X015987Y017110D01*
X016024Y017110D02*
X016024Y017748D01*
X015987Y017748D01*
X015670Y017748D02*
X015633Y017748D01*
X015296Y017748D02*
X015259Y017748D01*
X014941Y017748D02*
X014904Y017748D01*
X014904Y017110D01*
X014941Y017110D01*
X015259Y017110D02*
X015670Y017110D01*
X007756Y017110D02*
X007719Y017110D01*
X007756Y017110D02*
X007756Y017748D01*
X007719Y017748D01*
X007402Y017748D02*
X007365Y017748D01*
X007028Y017748D02*
X006991Y017748D01*
X006674Y017748D02*
X006637Y017748D01*
X006637Y017110D01*
X006674Y017110D01*
X006991Y017110D02*
X007402Y017110D01*
X007402Y029393D02*
X006991Y029393D01*
X006674Y029393D02*
X006637Y029393D01*
X006637Y030031D01*
X006674Y030031D01*
X006991Y030031D02*
X007028Y030031D01*
X007365Y030031D02*
X007402Y030031D01*
X007719Y030031D02*
X007756Y030031D01*
X007756Y029393D01*
X007719Y029393D01*
X014904Y029393D02*
X014941Y029393D01*
X014904Y029393D02*
X014904Y030031D01*
X014941Y030031D01*
X015259Y030031D02*
X015296Y030031D01*
X015633Y030031D02*
X015670Y030031D01*
X015987Y030031D02*
X016024Y030031D01*
X016024Y029393D01*
X015987Y029393D01*
X015670Y029393D02*
X015259Y029393D01*
X023172Y029393D02*
X023209Y029393D01*
X023172Y029393D02*
X023172Y030031D01*
X023209Y030031D01*
X023526Y030031D02*
X023563Y030031D01*
X023900Y030031D02*
X023937Y030031D01*
X024255Y030031D02*
X024292Y030031D01*
X024292Y029393D01*
X024255Y029393D01*
X023937Y029393D02*
X023526Y029393D01*
X031440Y029393D02*
X031477Y029393D01*
X031440Y029393D02*
X031440Y030031D01*
X031477Y030031D01*
X031794Y030031D02*
X031831Y030031D01*
X032168Y030031D02*
X032205Y030031D01*
X032522Y030031D02*
X032559Y030031D01*
X032559Y029393D01*
X032522Y029393D01*
X032205Y029393D02*
X031794Y029393D01*
D16*
X034598Y029437D02*
X034598Y029496D01*
X034854Y029496D01*
X035287Y029496D02*
X035543Y029496D01*
X035543Y029437D01*
X035543Y028413D02*
X035543Y028354D01*
X035287Y028354D01*
X034854Y028354D02*
X034598Y028354D01*
X034598Y028413D01*
X027275Y028413D02*
X027275Y028354D01*
X027019Y028354D01*
X026586Y028354D02*
X026330Y028354D01*
X026330Y028413D01*
X026330Y029437D02*
X026330Y029496D01*
X026586Y029496D01*
X027019Y029496D02*
X027275Y029496D01*
X027275Y029437D01*
X019007Y029437D02*
X019007Y029496D01*
X018752Y029496D01*
X018318Y029496D02*
X018063Y029496D01*
X018063Y029437D01*
X018063Y028413D02*
X018063Y028354D01*
X018318Y028354D01*
X018752Y028354D02*
X019007Y028354D01*
X019007Y028413D01*
X010740Y028413D02*
X010740Y028354D01*
X010484Y028354D01*
X010051Y028354D02*
X009795Y028354D01*
X009795Y028413D01*
X009795Y029437D02*
X009795Y029496D01*
X010051Y029496D01*
X010484Y029496D02*
X010740Y029496D01*
X010740Y029437D01*
X010740Y017212D02*
X010484Y017212D01*
X010740Y017212D02*
X010740Y017153D01*
X010051Y017212D02*
X009795Y017212D01*
X009795Y017153D01*
X009795Y016130D02*
X009795Y016070D01*
X010051Y016070D01*
X010484Y016070D02*
X010740Y016070D01*
X010740Y016130D01*
X018063Y016070D02*
X018063Y016130D01*
X018063Y016070D02*
X018318Y016070D01*
X018752Y016070D02*
X019007Y016070D01*
X019007Y016130D01*
X019007Y017153D02*
X019007Y017212D01*
X018752Y017212D01*
X018318Y017212D02*
X018063Y017212D01*
X018063Y017153D01*
X026330Y017212D02*
X026330Y017153D01*
X026330Y017212D02*
X026586Y017212D01*
X027019Y017212D02*
X027275Y017212D01*
X027275Y017153D01*
X027275Y016130D02*
X027275Y016070D01*
X027019Y016070D01*
X026586Y016070D02*
X026330Y016070D01*
X026330Y016130D01*
X034598Y016070D02*
X034598Y016130D01*
X034598Y016070D02*
X034854Y016070D01*
X035287Y016070D02*
X035543Y016070D01*
X035543Y016130D01*
X035543Y017153D02*
X035543Y017212D01*
X035287Y017212D01*
X034854Y017212D02*
X034598Y017212D01*
X034598Y017153D01*
D17*
X034578Y017330D02*
X034775Y017330D01*
X026507Y017330D02*
X026311Y017330D01*
X018240Y017330D02*
X018043Y017330D01*
X009972Y017330D02*
X009775Y017330D01*
X009775Y029614D02*
X009972Y029614D01*
X018043Y029614D02*
X018240Y029614D01*
X026311Y029614D02*
X026507Y029614D01*
X034578Y029614D02*
X034775Y029614D01*
M02*
