%
M48
M72
T01C0.0118
T02C0.0394
T03C0.1575
%
T01
X6094Y9397
X6094Y10381
X6094Y11405
X6094Y12389
X7551Y11956
X8181Y11523
X8535Y10618
X8850Y10775
X9165Y10618
X9480Y11444
X10464Y11720
X10740Y12232
X11212Y13492
X10464Y14319
X10464Y14712
X11212Y14830
X11212Y14437
X10897Y15500
X11212Y15578
X10858Y16878
X10582Y17114
X10267Y17862
X9441Y16405
X9441Y16051
X8574Y15933
X8574Y16208
X8574Y15657
X8574Y15145
X9283Y14437
X9716Y14515
X9086Y13570
X8692Y13177
X8299Y13570
X8299Y12783
X9086Y12783
X7944Y10185
X5779Y14122
X5779Y14752
X6330Y15618
X7315Y15933
X7826Y16917
X7196Y17074
X6645Y17035
X6094Y21366
X6094Y22350
X6094Y23374
X6094Y24358
X7551Y23925
X8181Y23492
X8850Y22744
X9165Y22586
X8535Y22586
X7944Y22153
X9480Y23413
X10464Y23689
X10740Y24200
X11212Y25460
X10464Y26287
X10464Y26681
X11212Y26799
X11212Y26405
X10897Y27468
X11212Y27547
X10858Y28846
X10582Y29082
X10267Y29830
X9441Y28374
X9441Y28019
X8574Y27901
X8574Y27626
X8574Y27114
X9283Y26405
X9716Y26484
X9086Y25539
X8692Y25145
X8299Y24752
X8299Y25539
X9086Y24752
X5779Y26090
X5779Y26720
X6330Y27586
X7315Y27901
X7826Y28885
X7196Y29043
X6645Y29004
X8574Y28177
X13732Y26720
X13732Y26090
X14283Y27586
X15267Y27901
X15779Y28885
X15149Y29043
X14598Y29004
X16527Y28177
X16527Y27901
X16527Y27626
X16527Y27114
X17236Y26405
X17669Y26484
X18417Y26681
X18417Y26287
X19165Y26405
X19165Y26799
X18850Y27468
X19165Y27547
X18811Y28846
X18535Y29082
X18220Y29830
X17393Y28374
X17393Y28019
X17039Y25539
X16645Y25145
X16252Y24752
X17039Y24752
X16252Y25539
X15503Y23925
X16133Y23492
X16803Y22744
X17118Y22586
X16488Y22586
X15897Y22153
X17433Y23413
X18417Y23689
X18692Y24200
X19165Y25460
X21685Y26090
X21685Y26720
X22236Y27586
X23220Y27901
X23732Y28885
X23102Y29043
X22551Y29004
X24480Y28177
X24480Y27901
X24480Y27626
X24480Y27114
X25189Y26405
X25622Y26484
X26370Y26681
X26370Y26287
X27118Y26405
X27118Y26799
X26803Y27468
X27118Y27547
X26763Y28846
X26488Y29082
X26173Y29830
X25346Y28374
X25346Y28019
X24992Y25539
X24598Y25145
X24992Y24752
X24204Y24752
X24204Y25539
X23456Y23925
X24086Y23492
X24755Y22744
X24441Y22586
X25070Y22586
X25385Y23413
X26370Y23689
X26645Y24200
X27118Y25460
X29637Y26090
X29637Y26720
X30189Y27586
X31173Y27901
X31685Y28885
X31055Y29043
X30503Y29004
X32433Y28177
X32433Y27901
X32433Y27626
X32433Y27114
X33141Y26405
X33574Y26484
X34322Y26681
X34322Y26287
X35070Y26405
X35070Y26799
X34755Y27468
X35070Y27547
X34716Y28846
X34441Y29082
X34126Y29830
X33299Y28374
X33299Y28019
X32944Y25539
X32551Y25145
X32944Y24752
X32157Y24752
X32157Y25539
X31409Y23925
X32039Y23492
X32708Y22744
X32393Y22586
X31803Y22153
X33023Y22586
X33338Y23413
X34322Y23689
X34598Y24200
X35070Y25460
X29952Y24358
X29952Y23374
X29952Y22350
X29952Y21366
X26173Y17862
X26488Y17114
X26763Y16878
X27118Y15578
X26803Y15500
X27118Y14830
X27118Y14437
X26370Y14319
X26370Y14712
X25622Y14515
X25189Y14437
X24480Y15145
X24480Y15657
X24480Y15933
X24480Y16208
X25346Y16051
X25346Y16405
X23732Y16917
X23102Y17074
X22551Y17035
X23220Y15933
X22236Y15618
X21685Y14752
X21685Y14122
X22000Y12389
X22000Y11405
X22000Y10381
X22000Y9397
X23850Y10185
X24441Y10618
X24755Y10775
X25070Y10618
X25385Y11444
X26370Y11720
X26645Y12232
X27118Y13492
X24992Y13570
X24598Y13177
X24204Y13570
X24204Y12783
X24992Y12783
X24086Y11523
X23456Y11956
X19165Y13492
X18417Y14319
X18417Y14712
X19165Y14830
X19165Y14437
X18850Y15500
X19165Y15578
X18811Y16878
X18535Y17114
X18220Y17862
X17393Y16405
X17393Y16051
X16527Y15933
X16527Y16208
X16527Y15657
X16527Y15145
X17236Y14437
X17669Y14515
X17039Y13570
X16645Y13177
X16252Y13570
X16252Y12783
X17039Y12783
X17433Y11444
X17118Y10618
X16803Y10775
X16488Y10618
X15897Y10185
X16133Y11523
X15503Y11956
X14047Y12389
X14047Y11405
X14047Y10381
X14047Y9397
X18417Y11720
X18692Y12232
X15267Y15933
X15779Y16917
X15149Y17074
X14598Y17035
X14283Y15618
X13732Y14752
X13732Y14122
X14047Y21366
X14047Y22350
X14047Y23374
X14047Y24358
X22000Y24358
X22000Y23374
X22000Y22350
X22000Y21366
X23850Y22153
X30503Y17035
X31055Y17074
X31685Y16917
X32433Y16208
X32433Y15933
X32433Y15657
X32433Y15145
X33141Y14437
X33574Y14515
X34322Y14319
X34322Y14712
X35070Y14830
X35070Y14437
X34755Y15500
X35070Y15578
X34716Y16878
X34441Y17114
X34126Y17862
X33299Y16405
X33299Y16051
X31173Y15933
X30189Y15618
X29637Y14752
X29637Y14122
X29952Y12389
X29952Y11405
X29952Y10381
X29952Y9397
X31803Y10185
X32393Y10618
X32708Y10775
X33023Y10618
X33338Y11444
X34322Y11720
X34598Y12232
X35070Y13492
X32944Y13570
X32551Y13177
X32944Y12783
X32157Y12783
X32157Y13570
X31409Y11956
X32039Y11523
T02
X35051Y11200
X35051Y10200
X36051Y9700
X36051Y8700
X36051Y10700
X36051Y11700
X36051Y12700
X36051Y13700
X36051Y14700
X36051Y15700
X36051Y16700
X36051Y17700
X36051Y18700
X35051Y18700
X34051Y18700
X33051Y18700
X32051Y18700
X31051Y18700
X30051Y18700
X29051Y18700
X29051Y17700
X28098Y17700
X28098Y18700
X27098Y18700
X26098Y18700
X25098Y18700
X24098Y18700
X23098Y18700
X22098Y18700
X21098Y18700
X21098Y17700
X20145Y17700
X20145Y18700
X19145Y18700
X18145Y18700
X17145Y18700
X16145Y18700
X15145Y18700
X14145Y18700
X13145Y18700
X13145Y17700
X12192Y17700
X12192Y18700
X11192Y18700
X10192Y18700
X9192Y18700
X8192Y18700
X7192Y18700
X6192Y18700
X5192Y18700
X5192Y17700
X5192Y16700
X5192Y15700
X5192Y14700
X5192Y13700
X5192Y12700
X5192Y11700
X5192Y10700
X5192Y9700
X5192Y8700
X11192Y10200
X12192Y9700
X12192Y8700
X13145Y8700
X13145Y9700
X13145Y10700
X12192Y10700
X11192Y11200
X12192Y11700
X13145Y11700
X13145Y12700
X13145Y13700
X12192Y13700
X12192Y12700
X12192Y14700
X13145Y14700
X13145Y15700
X12192Y15700
X12192Y16700
X13145Y16700
X13145Y19700
X12192Y19700
X12192Y20669
X13145Y20669
X13145Y21669
X13145Y22669
X12192Y22669
X12192Y21669
X11192Y22169
X11192Y23169
X12192Y23669
X13145Y23669
X13145Y24669
X12192Y24669
X12192Y25669
X12192Y26669
X13145Y26669
X13145Y25669
X13145Y27669
X12192Y27669
X12192Y28669
X13145Y28669
X13145Y29669
X12192Y29669
X12192Y30669
X11192Y30669
X12192Y31669
X13145Y31669
X13145Y30669
X14145Y30669
X15145Y30669
X16145Y30669
X17145Y30669
X18145Y30669
X19145Y30669
X20145Y30669
X20145Y31669
X21098Y31669
X21098Y30669
X22098Y30669
X23098Y30669
X24098Y30669
X25098Y30669
X26098Y30669
X27098Y30669
X28098Y30669
X28098Y31669
X29051Y31669
X29051Y30669
X30051Y30669
X31051Y30669
X32051Y30669
X33051Y30669
X34051Y30669
X35051Y30669
X36051Y30669
X36051Y31669
X36051Y29669
X36051Y28669
X36051Y27669
X36051Y26669
X36051Y25669
X36051Y24669
X36051Y23669
X36051Y22669
X36051Y21669
X36051Y20669
X36051Y19700
X35051Y22169
X35051Y23169
X29051Y23669
X28098Y23669
X27098Y23169
X28098Y22669
X28098Y21669
X27098Y22169
X28098Y20669
X29051Y20669
X29051Y19700
X28098Y19700
X29051Y21669
X29051Y22669
X29051Y24669
X28098Y24669
X28098Y25669
X28098Y26669
X29051Y26669
X29051Y25669
X29051Y27669
X28098Y27669
X28098Y28669
X29051Y28669
X29051Y29669
X28098Y29669
X21098Y29669
X20145Y29669
X20145Y28669
X21098Y28669
X21098Y27669
X20145Y27669
X20145Y26669
X20145Y25669
X21098Y25669
X21098Y26669
X21098Y24669
X20145Y24669
X20145Y23669
X19145Y23169
X20145Y22669
X20145Y21669
X19145Y22169
X20145Y20669
X21098Y20669
X21098Y19700
X20145Y19700
X21098Y21669
X21098Y22669
X21098Y23669
X21098Y16700
X20145Y16700
X20145Y15700
X21098Y15700
X21098Y14700
X20145Y14700
X20145Y13700
X20145Y12700
X21098Y12700
X21098Y13700
X21098Y11700
X20145Y11700
X19145Y11200
X20145Y10700
X19145Y10200
X20145Y9700
X20145Y8700
X21098Y8700
X21098Y9700
X21098Y10700
X27098Y10200
X28098Y9700
X28098Y8700
X29051Y8700
X29051Y9700
X29051Y10700
X28098Y10700
X27098Y11200
X28098Y11700
X29051Y11700
X29051Y12700
X29051Y13700
X28098Y13700
X28098Y12700
X28098Y14700
X29051Y14700
X29051Y15700
X28098Y15700
X28098Y16700
X29051Y16700
X10192Y30669
X9192Y30669
X8192Y30669
X7192Y30669
X6192Y30669
X5192Y30669
X5192Y31669
X5192Y29669
X5192Y28669
X5192Y27669
X5192Y26669
X5192Y25669
X5192Y24669
X5192Y23669
X5192Y22669
X5192Y21669
X5192Y20669
X5192Y19700
T03
X6685Y6405
X34559Y6405
X34559Y33964
X6685Y33964
M30
