%
M48
M72
T01C0.0118
T02C0.0394
T03C0.1575
%
T01
X6094Y9870
X6094Y10854
X6094Y11878
X6094Y12862
X7551Y12429
X8181Y11996
X8850Y11248
X9165Y11011
X8535Y11011
X7944Y10657
X9480Y11917
X10464Y12193
X10740Y12704
X11212Y13964
X11212Y14909
X11212Y15303
X10897Y15972
X11212Y16051
X10464Y15185
X10464Y14791
X9716Y14988
X9283Y14909
X9086Y14043
X8692Y13649
X8299Y13256
X8299Y14043
X9086Y13256
X8574Y15618
X8574Y16130
X8574Y16405
X8574Y16681
X7590Y17429
X7196Y17547
X6803Y17429
X7315Y16405
X6330Y16090
X5779Y15224
X5779Y14594
X9441Y16523
X9441Y16878
X10582Y17586
X10858Y17350
X10267Y18334
X14047Y15224
X14047Y14594
X14598Y16090
X15582Y16405
X15858Y17429
X15464Y17547
X15070Y17429
X16842Y16681
X16842Y16405
X16842Y16130
X16842Y15618
X17551Y14909
X17984Y14988
X18732Y15185
X18732Y14791
X19480Y14909
X19480Y15303
X19165Y15972
X19480Y16051
X19126Y17350
X18850Y17586
X18535Y18334
X17708Y16878
X17708Y16523
X17354Y14043
X16960Y13649
X16566Y13256
X16566Y14043
X17354Y13256
X16448Y11996
X15818Y12429
X17118Y11248
X17433Y11011
X16803Y11011
X16212Y10657
X17748Y11917
X18732Y12193
X19007Y12704
X19480Y13964
X22315Y14594
X22315Y15224
X22866Y16090
X23850Y16405
X24126Y17429
X23732Y17547
X23338Y17429
X25110Y16681
X25110Y16405
X25110Y16130
X25110Y15618
X25818Y14909
X26252Y14988
X27000Y15185
X27000Y14791
X27748Y14909
X27748Y15303
X27433Y15972
X27748Y16051
X27393Y17350
X27118Y17586
X26803Y18334
X25976Y16878
X25976Y16523
X25622Y14043
X25228Y13649
X25622Y13256
X24834Y13256
X24834Y14043
X24086Y12429
X24716Y11996
X25385Y11248
X25070Y11011
X25700Y11011
X26015Y11917
X27000Y12193
X27275Y12704
X27748Y13964
X30582Y14594
X30582Y15224
X31133Y16090
X32118Y16405
X32393Y17429
X32000Y17547
X31606Y17429
X33378Y16681
X33378Y16405
X33378Y16130
X33378Y15618
X34086Y14909
X34519Y14988
X35267Y15185
X35267Y14791
X36015Y14909
X36015Y15303
X35700Y15972
X36015Y16051
X35661Y17350
X35385Y17586
X35070Y18334
X34244Y16878
X34244Y16523
X33889Y14043
X33496Y13649
X33889Y13256
X33102Y13256
X33102Y14043
X32354Y12429
X32984Y11996
X33653Y11248
X33338Y11011
X33968Y11011
X34283Y11917
X35267Y12193
X35543Y12704
X36015Y13964
X32748Y10657
X30897Y10854
X30897Y11878
X30897Y12862
X30897Y9870
X24480Y10657
X22629Y10854
X22629Y11878
X22629Y12862
X22629Y9870
X14362Y9870
X14362Y10854
X14362Y11878
X14362Y12862
X14362Y22153
X14362Y23137
X14362Y24161
X14362Y25145
X15818Y24712
X16448Y24279
X17118Y23531
X17433Y23295
X16803Y23295
X16212Y22941
X17748Y24200
X18732Y24476
X19007Y24988
X19480Y26248
X19480Y27193
X19480Y27586
X19165Y28256
X19480Y28334
X18732Y27468
X18732Y27074
X17984Y27271
X17551Y27193
X17354Y26326
X16960Y25933
X16566Y26326
X16566Y25539
X17354Y25539
X16842Y27901
X16842Y28413
X16842Y28689
X16842Y28964
X17708Y28807
X17708Y29161
X18850Y29870
X19126Y29633
X18535Y30618
X15858Y29712
X15464Y29830
X15070Y29712
X15582Y28689
X14598Y28374
X14047Y27507
X14047Y26878
X11212Y27193
X11212Y27586
X10897Y28256
X11212Y28334
X10464Y27468
X10464Y27074
X9716Y27271
X9283Y27193
X9086Y26326
X8692Y25933
X8299Y26326
X8299Y25539
X9086Y25539
X8181Y24279
X7551Y24712
X8850Y23531
X9165Y23295
X8535Y23295
X7944Y22941
X9480Y24200
X10464Y24476
X10740Y24988
X11212Y26248
X9441Y28807
X9441Y29161
X8574Y28964
X8574Y28689
X8574Y28413
X8574Y27901
X7315Y28689
X6330Y28374
X5779Y27507
X5779Y26878
X6094Y25145
X6094Y24161
X6094Y23137
X6094Y22153
X6803Y29712
X7196Y29830
X7590Y29712
X10267Y30618
X10582Y29870
X10858Y29633
X22315Y27507
X22315Y26878
X22866Y28374
X23850Y28689
X24126Y29712
X23732Y29830
X23338Y29712
X25110Y28964
X25110Y28689
X25110Y28413
X25110Y27901
X25818Y27193
X26252Y27271
X27000Y27074
X27000Y27468
X27748Y27586
X27748Y27193
X27748Y26248
X27275Y24988
X27000Y24476
X26015Y24200
X25385Y23531
X25070Y23295
X25700Y23295
X24480Y22941
X24716Y24279
X24086Y24712
X24834Y25539
X25228Y25933
X25622Y26326
X25622Y25539
X24834Y26326
X22629Y25145
X22629Y24161
X22629Y23137
X22629Y22153
X27433Y28256
X27748Y28334
X27393Y29633
X27118Y29870
X26803Y30618
X25976Y29161
X25976Y28807
X30582Y27507
X30582Y26878
X31133Y28374
X32118Y28689
X32393Y29712
X32000Y29830
X31606Y29712
X33378Y28964
X33378Y28689
X33378Y28413
X33378Y27901
X34086Y27193
X34519Y27271
X35267Y27074
X35267Y27468
X36015Y27586
X36015Y27193
X36015Y26248
X35543Y24988
X35267Y24476
X34283Y24200
X33653Y23531
X33338Y23295
X33968Y23295
X32748Y22941
X32984Y24279
X32354Y24712
X33102Y25539
X33496Y25933
X33889Y26326
X33889Y25539
X33102Y26326
X30897Y25145
X30897Y24161
X30897Y23137
X30897Y22153
X35700Y28256
X36015Y28334
X35661Y29633
X35385Y29870
X35070Y30618
X34244Y29161
X34244Y28807
T02
X33996Y31456
X34996Y31456
X35996Y31456
X36996Y31456
X36996Y32456
X36996Y30456
X36996Y29456
X36996Y28456
X36996Y27456
X36996Y26456
X36996Y25456
X36996Y24456
X35996Y23956
X36996Y23456
X36996Y22456
X35996Y22956
X36996Y21456
X36996Y20173
X36996Y19173
X35996Y19173
X34996Y19173
X33996Y19173
X32996Y19173
X31996Y19173
X30996Y19173
X29996Y19173
X29996Y20173
X28728Y20173
X28728Y19173
X27728Y19173
X26728Y19173
X25728Y19173
X24728Y19173
X23728Y19173
X22728Y19173
X21728Y19173
X21728Y20173
X20460Y20173
X20460Y19173
X19460Y19173
X18460Y19173
X17460Y19173
X16460Y19173
X15460Y19173
X14460Y19173
X13460Y19173
X13460Y20173
X12192Y20173
X12192Y19173
X11192Y19173
X10192Y19173
X9192Y19173
X8192Y19173
X7192Y19173
X6192Y19173
X5192Y19173
X5192Y20173
X5192Y21456
X5192Y22456
X5192Y23456
X5192Y24456
X5192Y25456
X5192Y26456
X5192Y27456
X5192Y28456
X5192Y29456
X5192Y30456
X5192Y31456
X5192Y32456
X6192Y31456
X7192Y31456
X8192Y31456
X9192Y31456
X10192Y31456
X11192Y31456
X12192Y31456
X12192Y32456
X13460Y32456
X13460Y31456
X13460Y30456
X13460Y29456
X13460Y28456
X13460Y27456
X13460Y26456
X13460Y25456
X13460Y24456
X13460Y23456
X13460Y22456
X13460Y21456
X12192Y21456
X12192Y22456
X12192Y23456
X12192Y24456
X12192Y25456
X12192Y26456
X12192Y27456
X12192Y28456
X12192Y29456
X12192Y30456
X14460Y31456
X15460Y31456
X16460Y31456
X17460Y31456
X18460Y31456
X19460Y31456
X20460Y31456
X20460Y32456
X21728Y32456
X21728Y31456
X21728Y30456
X21728Y29456
X21728Y28456
X21728Y27456
X21728Y26456
X21728Y25456
X21728Y24456
X21728Y23456
X21728Y22456
X21728Y21456
X20460Y21456
X20460Y22456
X20460Y23456
X20460Y24456
X20460Y25456
X20460Y26456
X20460Y27456
X20460Y28456
X20460Y29456
X20460Y30456
X22728Y31456
X23728Y31456
X24728Y31456
X25728Y31456
X26728Y31456
X27728Y31456
X28728Y31456
X28728Y32456
X29996Y32456
X29996Y31456
X30996Y31456
X31996Y31456
X32996Y31456
X29996Y30456
X29996Y29456
X29996Y28456
X29996Y27456
X29996Y26456
X29996Y25456
X29996Y24456
X29996Y23456
X29996Y22456
X29996Y21456
X28728Y21456
X28728Y22456
X28728Y23456
X28728Y24456
X28728Y25456
X28728Y26456
X28728Y27456
X28728Y28456
X28728Y29456
X28728Y30456
X27728Y23956
X27728Y22956
X28728Y18173
X28728Y17173
X28728Y16173
X28728Y15173
X28728Y14173
X28728Y13173
X28728Y12173
X28728Y11173
X28728Y10173
X28728Y9173
X29996Y9173
X29996Y10173
X29996Y11173
X29996Y12173
X29996Y13173
X29996Y14173
X29996Y15173
X29996Y16173
X29996Y17173
X29996Y18173
X27728Y11673
X27728Y10673
X21728Y11173
X21728Y10173
X21728Y9173
X20460Y9173
X20460Y10173
X20460Y11173
X20460Y12173
X20460Y13173
X20460Y14173
X20460Y15173
X20460Y16173
X20460Y17173
X20460Y18173
X21728Y18173
X21728Y17173
X21728Y16173
X21728Y15173
X21728Y14173
X21728Y13173
X21728Y12173
X19460Y11673
X19460Y10673
X13460Y11173
X13460Y10173
X13460Y9173
X12192Y9173
X12192Y10173
X12192Y11173
X12192Y12173
X12192Y13173
X12192Y14173
X12192Y15173
X12192Y16173
X12192Y17173
X12192Y18173
X13460Y18173
X13460Y17173
X13460Y16173
X13460Y15173
X13460Y14173
X13460Y13173
X13460Y12173
X11192Y11673
X11192Y10673
X5192Y11173
X5192Y10173
X5192Y9173
X5192Y12173
X5192Y13173
X5192Y14173
X5192Y15173
X5192Y16173
X5192Y17173
X5192Y18173
X11192Y22956
X11192Y23956
X19460Y23956
X19460Y22956
X35996Y11673
X36996Y12173
X36996Y13173
X36996Y14173
X36996Y15173
X36996Y16173
X36996Y17173
X36996Y18173
X36996Y11173
X36996Y10173
X35996Y10673
X36996Y9173
T03
X6685Y6405
X35503Y6405
X35503Y35224
X6685Y35224
M30
