G75*
%MOIN*%
%OFA0B0*%
%FSLAX24Y24*%
%IPPOS*%
%LPD*%
%AMOC8*
5,1,8,0,0,1.08239X$1,22.5*
%
%ADD10C,0.1655*%
%ADD11C,0.0079*%
%ADD12OC8,0.0671*%
%ADD13R,0.1378X0.1378*%
%ADD14R,0.0138X0.0295*%
%ADD15R,0.0295X0.0138*%
%ADD16R,0.0297X0.0552*%
%ADD17R,0.0434X0.0356*%
%ADD18R,0.0356X0.0434*%
%ADD19R,0.0474X0.0513*%
%ADD20C,0.0356*%
%ADD21C,0.0095*%
%ADD22R,0.0533X0.0730*%
D10*
X006685Y006405D03*
X034559Y006405D03*
X034559Y033964D03*
X006685Y033964D03*
D11*
X010228Y033942D02*
X011015Y033942D01*
X011015Y033865D02*
X010228Y033865D01*
X010228Y033788D02*
X011015Y033788D01*
X011015Y033711D02*
X010228Y033711D01*
X010228Y033633D02*
X011015Y033633D01*
X011015Y033570D02*
X010228Y033570D01*
X010228Y034358D01*
X011015Y034358D01*
X011015Y033570D01*
X011015Y034020D02*
X010228Y034020D01*
X010228Y034097D02*
X011015Y034097D01*
X011015Y034174D02*
X010228Y034174D01*
X010228Y034251D02*
X011015Y034251D01*
X011015Y034329D02*
X010228Y034329D01*
X032196Y006799D02*
X032984Y006799D01*
X032984Y006011D01*
X032196Y006011D01*
X032196Y006799D01*
X032196Y006754D02*
X032984Y006754D01*
X032984Y006677D02*
X032196Y006677D01*
X032196Y006599D02*
X032984Y006599D01*
X032984Y006522D02*
X032196Y006522D01*
X032196Y006445D02*
X032984Y006445D01*
X032984Y006368D02*
X032196Y006368D01*
X032196Y006290D02*
X032984Y006290D01*
X032984Y006213D02*
X032196Y006213D01*
X032196Y006136D02*
X032984Y006136D01*
X032984Y006059D02*
X032196Y006059D01*
D12*
X029051Y008700D03*
X029051Y009700D03*
X028098Y009700D03*
X028098Y008700D03*
X027098Y010200D03*
X028098Y010700D03*
X027098Y011200D03*
X028098Y011700D03*
X029051Y011700D03*
X029051Y010700D03*
X029051Y012700D03*
X029051Y013700D03*
X028098Y013700D03*
X028098Y012700D03*
X028098Y014700D03*
X029051Y014700D03*
X029051Y015700D03*
X028098Y015700D03*
X028098Y016700D03*
X029051Y016700D03*
X029051Y017700D03*
X029051Y018700D03*
X030051Y018700D03*
X031051Y018700D03*
X032051Y018700D03*
X033051Y018700D03*
X034051Y018700D03*
X035051Y018700D03*
X036051Y018700D03*
X036051Y017700D03*
X036051Y016700D03*
X036051Y015700D03*
X036051Y014700D03*
X036051Y013700D03*
X036051Y012700D03*
X036051Y011700D03*
X036051Y010700D03*
X036051Y009700D03*
X036051Y008700D03*
X035051Y010200D03*
X035051Y011200D03*
X028098Y017700D03*
X028098Y018700D03*
X027098Y018700D03*
X026098Y018700D03*
X025098Y018700D03*
X024098Y018700D03*
X023098Y018700D03*
X022098Y018700D03*
X021098Y018700D03*
X021098Y017700D03*
X020145Y017700D03*
X020145Y018700D03*
X019145Y018700D03*
X018145Y018700D03*
X017145Y018700D03*
X016145Y018700D03*
X015145Y018700D03*
X014145Y018700D03*
X013145Y018700D03*
X013145Y017700D03*
X012192Y017700D03*
X012192Y018700D03*
X011192Y018700D03*
X010192Y018700D03*
X009192Y018700D03*
X008192Y018700D03*
X007192Y018700D03*
X006192Y018700D03*
X005192Y018700D03*
X005192Y017700D03*
X005192Y016700D03*
X005192Y015700D03*
X005192Y014700D03*
X005192Y013700D03*
X005192Y012700D03*
X005192Y011700D03*
X005192Y010700D03*
X005192Y009700D03*
X005192Y008700D03*
X011192Y010200D03*
X012192Y009700D03*
X012192Y008700D03*
X013145Y008700D03*
X013145Y009700D03*
X013145Y010700D03*
X012192Y010700D03*
X011192Y011200D03*
X012192Y011700D03*
X013145Y011700D03*
X013145Y012700D03*
X013145Y013700D03*
X012192Y013700D03*
X012192Y012700D03*
X012192Y014700D03*
X013145Y014700D03*
X013145Y015700D03*
X012192Y015700D03*
X012192Y016700D03*
X013145Y016700D03*
X013145Y019700D03*
X012192Y019700D03*
X012192Y020669D03*
X013145Y020669D03*
X013145Y021669D03*
X013145Y022669D03*
X012192Y022669D03*
X012192Y021669D03*
X011192Y022169D03*
X011192Y023169D03*
X012192Y023669D03*
X013145Y023669D03*
X013145Y024669D03*
X012192Y024669D03*
X012192Y025669D03*
X012192Y026669D03*
X013145Y026669D03*
X013145Y025669D03*
X013145Y027669D03*
X012192Y027669D03*
X012192Y028669D03*
X013145Y028669D03*
X013145Y029669D03*
X012192Y029669D03*
X012192Y030669D03*
X011192Y030669D03*
X012192Y031669D03*
X013145Y031669D03*
X013145Y030669D03*
X014145Y030669D03*
X015145Y030669D03*
X016145Y030669D03*
X017145Y030669D03*
X018145Y030669D03*
X019145Y030669D03*
X020145Y030669D03*
X020145Y031669D03*
X021098Y031669D03*
X021098Y030669D03*
X022098Y030669D03*
X023098Y030669D03*
X024098Y030669D03*
X025098Y030669D03*
X026098Y030669D03*
X027098Y030669D03*
X028098Y030669D03*
X028098Y031669D03*
X029051Y031669D03*
X029051Y030669D03*
X030051Y030669D03*
X031051Y030669D03*
X032051Y030669D03*
X033051Y030669D03*
X034051Y030669D03*
X035051Y030669D03*
X036051Y030669D03*
X036051Y031669D03*
X036051Y029669D03*
X036051Y028669D03*
X036051Y027669D03*
X036051Y026669D03*
X036051Y025669D03*
X036051Y024669D03*
X036051Y023669D03*
X036051Y022669D03*
X036051Y021669D03*
X036051Y020669D03*
X036051Y019700D03*
X035051Y022169D03*
X035051Y023169D03*
X029051Y023669D03*
X028098Y023669D03*
X027098Y023169D03*
X028098Y022669D03*
X028098Y021669D03*
X027098Y022169D03*
X028098Y020669D03*
X029051Y020669D03*
X029051Y019700D03*
X028098Y019700D03*
X029051Y021669D03*
X029051Y022669D03*
X029051Y024669D03*
X028098Y024669D03*
X028098Y025669D03*
X028098Y026669D03*
X029051Y026669D03*
X029051Y025669D03*
X029051Y027669D03*
X028098Y027669D03*
X028098Y028669D03*
X029051Y028669D03*
X029051Y029669D03*
X028098Y029669D03*
X021098Y029669D03*
X020145Y029669D03*
X020145Y028669D03*
X021098Y028669D03*
X021098Y027669D03*
X020145Y027669D03*
X020145Y026669D03*
X020145Y025669D03*
X021098Y025669D03*
X021098Y026669D03*
X021098Y024669D03*
X020145Y024669D03*
X020145Y023669D03*
X019145Y023169D03*
X020145Y022669D03*
X020145Y021669D03*
X019145Y022169D03*
X020145Y020669D03*
X021098Y020669D03*
X021098Y019700D03*
X020145Y019700D03*
X021098Y021669D03*
X021098Y022669D03*
X021098Y023669D03*
X021098Y016700D03*
X020145Y016700D03*
X020145Y015700D03*
X021098Y015700D03*
X021098Y014700D03*
X020145Y014700D03*
X020145Y013700D03*
X020145Y012700D03*
X021098Y012700D03*
X021098Y013700D03*
X021098Y011700D03*
X020145Y011700D03*
X019145Y011200D03*
X020145Y010700D03*
X019145Y010200D03*
X020145Y009700D03*
X020145Y008700D03*
X021098Y008700D03*
X021098Y009700D03*
X021098Y010700D03*
X005192Y019700D03*
X005192Y020669D03*
X005192Y021669D03*
X005192Y022669D03*
X005192Y023669D03*
X005192Y024669D03*
X005192Y025669D03*
X005192Y026669D03*
X005192Y027669D03*
X005192Y028669D03*
X005192Y029669D03*
X005192Y030669D03*
X005192Y031669D03*
X006192Y030669D03*
X007192Y030669D03*
X008192Y030669D03*
X009192Y030669D03*
X010192Y030669D03*
D13*
X008692Y025145D03*
X016645Y025145D03*
X024598Y025145D03*
X032551Y025145D03*
X032551Y013177D03*
X024598Y013177D03*
X016645Y013177D03*
X008692Y013177D03*
D14*
X008594Y014102D03*
X008397Y014102D03*
X008200Y014102D03*
X008003Y014102D03*
X008791Y014102D03*
X008988Y014102D03*
X009185Y014102D03*
X009381Y014102D03*
X009381Y012252D03*
X009185Y012252D03*
X008988Y012252D03*
X008791Y012252D03*
X008594Y012252D03*
X008397Y012252D03*
X008200Y012252D03*
X008003Y012252D03*
X015956Y012252D03*
X016153Y012252D03*
X016350Y012252D03*
X016547Y012252D03*
X016744Y012252D03*
X016941Y012252D03*
X017137Y012252D03*
X017334Y012252D03*
X017334Y014102D03*
X017137Y014102D03*
X016941Y014102D03*
X016744Y014102D03*
X016547Y014102D03*
X016350Y014102D03*
X016153Y014102D03*
X015956Y014102D03*
X023909Y014102D03*
X024106Y014102D03*
X024303Y014102D03*
X024500Y014102D03*
X024696Y014102D03*
X024893Y014102D03*
X025090Y014102D03*
X025287Y014102D03*
X025287Y012252D03*
X025090Y012252D03*
X024893Y012252D03*
X024696Y012252D03*
X024500Y012252D03*
X024303Y012252D03*
X024106Y012252D03*
X023909Y012252D03*
X031862Y012252D03*
X032059Y012252D03*
X032255Y012252D03*
X032452Y012252D03*
X032649Y012252D03*
X032846Y012252D03*
X033043Y012252D03*
X033240Y012252D03*
X033240Y014102D03*
X033043Y014102D03*
X032846Y014102D03*
X032649Y014102D03*
X032452Y014102D03*
X032255Y014102D03*
X032059Y014102D03*
X031862Y014102D03*
X031862Y024220D03*
X032059Y024220D03*
X032255Y024220D03*
X032452Y024220D03*
X032649Y024220D03*
X032846Y024220D03*
X033043Y024220D03*
X033240Y024220D03*
X033240Y026070D03*
X033043Y026070D03*
X032846Y026070D03*
X032649Y026070D03*
X032452Y026070D03*
X032255Y026070D03*
X032059Y026070D03*
X031862Y026070D03*
X025287Y026070D03*
X025090Y026070D03*
X024893Y026070D03*
X024696Y026070D03*
X024500Y026070D03*
X024303Y026070D03*
X024106Y026070D03*
X023909Y026070D03*
X023909Y024220D03*
X024106Y024220D03*
X024303Y024220D03*
X024500Y024220D03*
X024696Y024220D03*
X024893Y024220D03*
X025090Y024220D03*
X025287Y024220D03*
X017334Y024220D03*
X017137Y024220D03*
X016941Y024220D03*
X016744Y024220D03*
X016547Y024220D03*
X016350Y024220D03*
X016153Y024220D03*
X015956Y024220D03*
X015956Y026070D03*
X016153Y026070D03*
X016350Y026070D03*
X016547Y026070D03*
X016744Y026070D03*
X016941Y026070D03*
X017137Y026070D03*
X017334Y026070D03*
X009381Y026070D03*
X009185Y026070D03*
X008988Y026070D03*
X008791Y026070D03*
X008594Y026070D03*
X008397Y026070D03*
X008200Y026070D03*
X008003Y026070D03*
X008003Y024220D03*
X008200Y024220D03*
X008397Y024220D03*
X008594Y024220D03*
X008791Y024220D03*
X008988Y024220D03*
X009185Y024220D03*
X009381Y024220D03*
D15*
X009618Y024456D03*
X009618Y024653D03*
X009618Y024850D03*
X009618Y025047D03*
X009618Y025244D03*
X009618Y025441D03*
X009618Y025637D03*
X009618Y025834D03*
X007767Y025834D03*
X007767Y025637D03*
X007767Y025441D03*
X007767Y025244D03*
X007767Y025047D03*
X007767Y024850D03*
X007767Y024653D03*
X007767Y024456D03*
X015720Y024456D03*
X015720Y024653D03*
X015720Y024850D03*
X015720Y025047D03*
X015720Y025244D03*
X015720Y025441D03*
X015720Y025637D03*
X015720Y025834D03*
X017570Y025834D03*
X017570Y025637D03*
X017570Y025441D03*
X017570Y025244D03*
X017570Y025047D03*
X017570Y024850D03*
X017570Y024653D03*
X017570Y024456D03*
X023673Y024456D03*
X023673Y024653D03*
X023673Y024850D03*
X023673Y025047D03*
X023673Y025244D03*
X023673Y025441D03*
X023673Y025637D03*
X023673Y025834D03*
X025523Y025834D03*
X025523Y025637D03*
X025523Y025441D03*
X025523Y025244D03*
X025523Y025047D03*
X025523Y024850D03*
X025523Y024653D03*
X025523Y024456D03*
X031626Y024456D03*
X031626Y024653D03*
X031626Y024850D03*
X031626Y025047D03*
X031626Y025244D03*
X031626Y025441D03*
X031626Y025637D03*
X031626Y025834D03*
X033476Y025834D03*
X033476Y025637D03*
X033476Y025441D03*
X033476Y025244D03*
X033476Y025047D03*
X033476Y024850D03*
X033476Y024653D03*
X033476Y024456D03*
X033476Y013866D03*
X033476Y013669D03*
X033476Y013472D03*
X033476Y013275D03*
X033476Y013078D03*
X033476Y012881D03*
X033476Y012685D03*
X033476Y012488D03*
X031626Y012488D03*
X031626Y012685D03*
X031626Y012881D03*
X031626Y013078D03*
X031626Y013275D03*
X031626Y013472D03*
X031626Y013669D03*
X031626Y013866D03*
X025523Y013866D03*
X025523Y013669D03*
X025523Y013472D03*
X025523Y013275D03*
X025523Y013078D03*
X025523Y012881D03*
X025523Y012685D03*
X025523Y012488D03*
X023673Y012488D03*
X023673Y012685D03*
X023673Y012881D03*
X023673Y013078D03*
X023673Y013275D03*
X023673Y013472D03*
X023673Y013669D03*
X023673Y013866D03*
X017570Y013866D03*
X017570Y013669D03*
X017570Y013472D03*
X017570Y013275D03*
X017570Y013078D03*
X017570Y012881D03*
X017570Y012685D03*
X017570Y012488D03*
X015720Y012488D03*
X015720Y012685D03*
X015720Y012881D03*
X015720Y013078D03*
X015720Y013275D03*
X015720Y013472D03*
X015720Y013669D03*
X015720Y013866D03*
X009618Y013866D03*
X009618Y013669D03*
X009618Y013472D03*
X009618Y013275D03*
X009618Y013078D03*
X009618Y012881D03*
X009618Y012685D03*
X009618Y012488D03*
X007767Y012488D03*
X007767Y012685D03*
X007767Y012881D03*
X007767Y013078D03*
X007767Y013275D03*
X007767Y013472D03*
X007767Y013669D03*
X007767Y013866D03*
D16*
X007570Y016444D03*
X006822Y016444D03*
X006822Y017468D03*
X007196Y017468D03*
X007570Y017468D03*
X014775Y017468D03*
X015149Y017468D03*
X015523Y017468D03*
X015523Y016444D03*
X014775Y016444D03*
X022728Y016444D03*
X023476Y016444D03*
X023476Y017468D03*
X023102Y017468D03*
X022728Y017468D03*
X030681Y017468D03*
X031055Y017468D03*
X031429Y017468D03*
X031429Y016444D03*
X030681Y016444D03*
X030681Y028413D03*
X031429Y028413D03*
X031429Y029437D03*
X031055Y029437D03*
X030681Y029437D03*
X023476Y029437D03*
X023102Y029437D03*
X022728Y029437D03*
X022728Y028413D03*
X023476Y028413D03*
X015523Y028413D03*
X014775Y028413D03*
X014775Y029437D03*
X015149Y029437D03*
X015523Y029437D03*
X007570Y029437D03*
X007196Y029437D03*
X006822Y029437D03*
X006822Y028413D03*
X007570Y028413D03*
D17*
X006330Y028590D03*
X006330Y029102D03*
X010228Y029102D03*
X010228Y029614D03*
X014283Y029102D03*
X014283Y028590D03*
X018181Y029102D03*
X018181Y029614D03*
X022236Y029102D03*
X022236Y028590D03*
X026133Y029102D03*
X026133Y029614D03*
X030189Y029102D03*
X030189Y028590D03*
X034086Y029102D03*
X034086Y029614D03*
X033023Y023354D03*
X033023Y022842D03*
X032393Y022803D03*
X032393Y023315D03*
X034086Y017645D03*
X034086Y017133D03*
X030189Y017133D03*
X030189Y016622D03*
X026133Y017133D03*
X026133Y017645D03*
X022236Y017133D03*
X022236Y016622D03*
X018181Y017133D03*
X018181Y017645D03*
X014283Y017133D03*
X014283Y016622D03*
X010228Y017133D03*
X010228Y017645D03*
X006330Y017133D03*
X006330Y016622D03*
X008535Y011346D03*
X008535Y010834D03*
X009165Y010874D03*
X009165Y011385D03*
X016488Y011346D03*
X016488Y010834D03*
X017118Y010874D03*
X017118Y011385D03*
X024441Y011346D03*
X024441Y010834D03*
X025070Y010874D03*
X025070Y011385D03*
X032393Y011346D03*
X032393Y010834D03*
X033023Y010874D03*
X033023Y011385D03*
X025070Y022842D03*
X025070Y023354D03*
X024441Y023315D03*
X024441Y022803D03*
X017118Y022842D03*
X017118Y023354D03*
X016488Y023315D03*
X016488Y022803D03*
X009165Y022842D03*
X009165Y023354D03*
X008535Y023315D03*
X008535Y022803D03*
D18*
X006586Y022665D03*
X006074Y022665D03*
X006074Y021681D03*
X006586Y021681D03*
X006586Y021051D03*
X006074Y021051D03*
X006074Y023689D03*
X006586Y023689D03*
X006586Y024712D03*
X006074Y024712D03*
X005878Y025539D03*
X006389Y025539D03*
X006547Y026090D03*
X006035Y026090D03*
X006035Y026720D03*
X006547Y026720D03*
X006704Y027389D03*
X007216Y027389D03*
X007649Y027901D03*
X008161Y027901D03*
X009185Y026799D03*
X009696Y026799D03*
X013988Y026720D03*
X014500Y026720D03*
X014657Y027389D03*
X015169Y027389D03*
X015602Y027901D03*
X016114Y027901D03*
X017137Y026799D03*
X017649Y026799D03*
X014500Y026090D03*
X013988Y026090D03*
X013830Y025539D03*
X014342Y025539D03*
X014539Y024712D03*
X014027Y024712D03*
X014027Y023689D03*
X014539Y023689D03*
X014539Y022665D03*
X014027Y022665D03*
X014027Y021681D03*
X014539Y021681D03*
X014539Y021051D03*
X014027Y021051D03*
X015602Y015933D03*
X016114Y015933D03*
X015169Y015421D03*
X014657Y015421D03*
X014500Y014752D03*
X014500Y014122D03*
X013988Y014122D03*
X013988Y014752D03*
X013830Y013570D03*
X014342Y013570D03*
X014539Y012744D03*
X014027Y012744D03*
X014027Y011720D03*
X014539Y011720D03*
X014539Y010696D03*
X014027Y010696D03*
X014027Y009712D03*
X014027Y009082D03*
X014539Y009082D03*
X014539Y009712D03*
X017137Y014830D03*
X017649Y014830D03*
X021941Y014752D03*
X022452Y014752D03*
X022452Y014122D03*
X021941Y014122D03*
X021783Y013570D03*
X022295Y013570D03*
X022492Y012744D03*
X021980Y012744D03*
X021980Y011720D03*
X022492Y011720D03*
X022492Y010696D03*
X021980Y010696D03*
X021980Y009712D03*
X021980Y009082D03*
X022492Y009082D03*
X022492Y009712D03*
X025090Y014830D03*
X025602Y014830D03*
X024066Y015933D03*
X023555Y015933D03*
X023122Y015421D03*
X022610Y015421D03*
X022492Y021051D03*
X021980Y021051D03*
X021980Y021681D03*
X022492Y021681D03*
X022492Y022665D03*
X021980Y022665D03*
X021980Y023689D03*
X022492Y023689D03*
X022492Y024712D03*
X021980Y024712D03*
X021783Y025539D03*
X022295Y025539D03*
X022452Y026090D03*
X021941Y026090D03*
X021941Y026720D03*
X022452Y026720D03*
X022610Y027389D03*
X023122Y027389D03*
X023555Y027901D03*
X024066Y027901D03*
X025090Y026799D03*
X025602Y026799D03*
X029893Y026720D03*
X030405Y026720D03*
X030563Y027389D03*
X031074Y027389D03*
X031507Y027901D03*
X032019Y027901D03*
X033043Y026799D03*
X033555Y026799D03*
X030405Y026090D03*
X029893Y026090D03*
X029736Y025539D03*
X030248Y025539D03*
X030444Y024712D03*
X029933Y024712D03*
X029933Y023689D03*
X030444Y023689D03*
X030444Y022665D03*
X029933Y022665D03*
X029933Y021681D03*
X030444Y021681D03*
X030444Y021051D03*
X029933Y021051D03*
X031507Y015933D03*
X032019Y015933D03*
X031074Y015421D03*
X030563Y015421D03*
X030405Y014752D03*
X029893Y014752D03*
X029893Y014122D03*
X030405Y014122D03*
X030248Y013570D03*
X029736Y013570D03*
X029933Y012744D03*
X030444Y012744D03*
X030444Y011720D03*
X029933Y011720D03*
X029933Y010696D03*
X030444Y010696D03*
X030444Y009712D03*
X029933Y009712D03*
X029933Y009082D03*
X030444Y009082D03*
X033043Y014830D03*
X033555Y014830D03*
X009696Y014830D03*
X009185Y014830D03*
X008161Y015933D03*
X007649Y015933D03*
X007216Y015421D03*
X006704Y015421D03*
X006547Y014752D03*
X006547Y014122D03*
X006035Y014122D03*
X006035Y014752D03*
X005878Y013570D03*
X006389Y013570D03*
X006586Y012744D03*
X006074Y012744D03*
X006074Y011720D03*
X006586Y011720D03*
X006586Y010696D03*
X006074Y010696D03*
X006074Y009712D03*
X006074Y009082D03*
X006586Y009082D03*
X006586Y009712D03*
D19*
X008181Y016819D03*
X008181Y017488D03*
X016133Y017488D03*
X016133Y016819D03*
X024086Y016819D03*
X024086Y017488D03*
X032039Y017488D03*
X032039Y016819D03*
X032039Y028787D03*
X032039Y029456D03*
X024086Y029456D03*
X024086Y028787D03*
X016133Y028787D03*
X016133Y029456D03*
X008181Y029456D03*
X008181Y028787D03*
D20*
X008063Y028334D03*
X007315Y027901D03*
X007590Y026641D03*
X007984Y026641D03*
X008181Y029870D03*
X015267Y027901D03*
X016015Y028334D03*
X016133Y029870D03*
X015937Y026641D03*
X015543Y026641D03*
X023220Y027901D03*
X023968Y028334D03*
X024086Y029870D03*
X023889Y026641D03*
X023496Y026641D03*
X031173Y027901D03*
X031921Y028334D03*
X032039Y029870D03*
X031842Y026641D03*
X031448Y026641D03*
X032039Y017901D03*
X031921Y016366D03*
X031173Y015933D03*
X031448Y014673D03*
X031842Y014673D03*
X024086Y017901D03*
X023968Y016366D03*
X023220Y015933D03*
X023496Y014673D03*
X023889Y014673D03*
X016015Y016366D03*
X015267Y015933D03*
X015543Y014673D03*
X015937Y014673D03*
X016133Y017901D03*
X008181Y017901D03*
X008063Y016366D03*
X007315Y015933D03*
X007590Y014673D03*
X007984Y014673D03*
D21*
X009634Y015727D02*
X009634Y015823D01*
X009896Y015823D01*
X009896Y015727D01*
X009634Y015727D01*
X009634Y015821D02*
X009896Y015821D01*
X009634Y015924D02*
X009634Y016020D01*
X009896Y016020D01*
X009896Y015924D01*
X009634Y015924D01*
X009634Y016018D02*
X009896Y016018D01*
X009634Y016121D02*
X009634Y016217D01*
X009896Y016217D01*
X009896Y016121D01*
X009634Y016121D01*
X009634Y016215D02*
X009896Y016215D01*
X009634Y016318D02*
X009634Y016414D01*
X009896Y016414D01*
X009896Y016318D01*
X009634Y016318D01*
X009634Y016412D02*
X009896Y016412D01*
X009634Y016515D02*
X009634Y016611D01*
X009896Y016611D01*
X009896Y016515D01*
X009634Y016515D01*
X009634Y016609D02*
X009896Y016609D01*
X010121Y016900D02*
X010217Y016900D01*
X010217Y016638D01*
X010121Y016638D01*
X010121Y016900D01*
X010121Y016732D02*
X010217Y016732D01*
X010217Y016826D02*
X010121Y016826D01*
X010318Y016900D02*
X010414Y016900D01*
X010414Y016638D01*
X010318Y016638D01*
X010318Y016900D01*
X010318Y016732D02*
X010414Y016732D01*
X010414Y016826D02*
X010318Y016826D01*
X010900Y016611D02*
X010900Y016515D01*
X010638Y016515D01*
X010638Y016611D01*
X010900Y016611D01*
X010900Y016609D02*
X010638Y016609D01*
X010900Y016414D02*
X010900Y016318D01*
X010638Y016318D01*
X010638Y016414D01*
X010900Y016414D01*
X010900Y016412D02*
X010638Y016412D01*
X010900Y016217D02*
X010900Y016121D01*
X010638Y016121D01*
X010638Y016217D01*
X010900Y016217D01*
X010900Y016215D02*
X010638Y016215D01*
X010900Y016020D02*
X010900Y015924D01*
X010638Y015924D01*
X010638Y016020D01*
X010900Y016020D01*
X010900Y016018D02*
X010638Y016018D01*
X010900Y015823D02*
X010900Y015727D01*
X010638Y015727D01*
X010638Y015823D01*
X010900Y015823D01*
X010900Y015821D02*
X010638Y015821D01*
X010414Y015438D02*
X010318Y015438D01*
X010318Y015700D01*
X010414Y015700D01*
X010414Y015438D01*
X010414Y015532D02*
X010318Y015532D01*
X010318Y015626D02*
X010414Y015626D01*
X010217Y015438D02*
X010121Y015438D01*
X010121Y015700D01*
X010217Y015700D01*
X010217Y015438D01*
X010217Y015532D02*
X010121Y015532D01*
X010121Y015626D02*
X010217Y015626D01*
X017587Y015727D02*
X017587Y015823D01*
X017849Y015823D01*
X017849Y015727D01*
X017587Y015727D01*
X017587Y015821D02*
X017849Y015821D01*
X017587Y015924D02*
X017587Y016020D01*
X017849Y016020D01*
X017849Y015924D01*
X017587Y015924D01*
X017587Y016018D02*
X017849Y016018D01*
X017587Y016121D02*
X017587Y016217D01*
X017849Y016217D01*
X017849Y016121D01*
X017587Y016121D01*
X017587Y016215D02*
X017849Y016215D01*
X017587Y016318D02*
X017587Y016414D01*
X017849Y016414D01*
X017849Y016318D01*
X017587Y016318D01*
X017587Y016412D02*
X017849Y016412D01*
X017587Y016515D02*
X017587Y016611D01*
X017849Y016611D01*
X017849Y016515D01*
X017587Y016515D01*
X017587Y016609D02*
X017849Y016609D01*
X018074Y016900D02*
X018170Y016900D01*
X018170Y016638D01*
X018074Y016638D01*
X018074Y016900D01*
X018074Y016732D02*
X018170Y016732D01*
X018170Y016826D02*
X018074Y016826D01*
X018270Y016900D02*
X018366Y016900D01*
X018366Y016638D01*
X018270Y016638D01*
X018270Y016900D01*
X018270Y016732D02*
X018366Y016732D01*
X018366Y016826D02*
X018270Y016826D01*
X018853Y016611D02*
X018853Y016515D01*
X018591Y016515D01*
X018591Y016611D01*
X018853Y016611D01*
X018853Y016609D02*
X018591Y016609D01*
X018853Y016414D02*
X018853Y016318D01*
X018591Y016318D01*
X018591Y016414D01*
X018853Y016414D01*
X018853Y016412D02*
X018591Y016412D01*
X018853Y016217D02*
X018853Y016121D01*
X018591Y016121D01*
X018591Y016217D01*
X018853Y016217D01*
X018853Y016215D02*
X018591Y016215D01*
X018853Y016020D02*
X018853Y015924D01*
X018591Y015924D01*
X018591Y016020D01*
X018853Y016020D01*
X018853Y016018D02*
X018591Y016018D01*
X018853Y015823D02*
X018853Y015727D01*
X018591Y015727D01*
X018591Y015823D01*
X018853Y015823D01*
X018853Y015821D02*
X018591Y015821D01*
X018366Y015438D02*
X018270Y015438D01*
X018270Y015700D01*
X018366Y015700D01*
X018366Y015438D01*
X018366Y015532D02*
X018270Y015532D01*
X018270Y015626D02*
X018366Y015626D01*
X018170Y015438D02*
X018074Y015438D01*
X018074Y015700D01*
X018170Y015700D01*
X018170Y015438D01*
X018170Y015532D02*
X018074Y015532D01*
X018074Y015626D02*
X018170Y015626D01*
X025540Y015727D02*
X025540Y015823D01*
X025802Y015823D01*
X025802Y015727D01*
X025540Y015727D01*
X025540Y015821D02*
X025802Y015821D01*
X025540Y015924D02*
X025540Y016020D01*
X025802Y016020D01*
X025802Y015924D01*
X025540Y015924D01*
X025540Y016018D02*
X025802Y016018D01*
X025540Y016121D02*
X025540Y016217D01*
X025802Y016217D01*
X025802Y016121D01*
X025540Y016121D01*
X025540Y016215D02*
X025802Y016215D01*
X025540Y016318D02*
X025540Y016414D01*
X025802Y016414D01*
X025802Y016318D01*
X025540Y016318D01*
X025540Y016412D02*
X025802Y016412D01*
X025540Y016515D02*
X025540Y016611D01*
X025802Y016611D01*
X025802Y016515D01*
X025540Y016515D01*
X025540Y016609D02*
X025802Y016609D01*
X026026Y016900D02*
X026122Y016900D01*
X026122Y016638D01*
X026026Y016638D01*
X026026Y016900D01*
X026026Y016732D02*
X026122Y016732D01*
X026122Y016826D02*
X026026Y016826D01*
X026223Y016900D02*
X026319Y016900D01*
X026319Y016638D01*
X026223Y016638D01*
X026223Y016900D01*
X026223Y016732D02*
X026319Y016732D01*
X026319Y016826D02*
X026223Y016826D01*
X026806Y016611D02*
X026806Y016515D01*
X026544Y016515D01*
X026544Y016611D01*
X026806Y016611D01*
X026806Y016609D02*
X026544Y016609D01*
X026806Y016414D02*
X026806Y016318D01*
X026544Y016318D01*
X026544Y016414D01*
X026806Y016414D01*
X026806Y016412D02*
X026544Y016412D01*
X026806Y016217D02*
X026806Y016121D01*
X026544Y016121D01*
X026544Y016217D01*
X026806Y016217D01*
X026806Y016215D02*
X026544Y016215D01*
X026806Y016020D02*
X026806Y015924D01*
X026544Y015924D01*
X026544Y016020D01*
X026806Y016020D01*
X026806Y016018D02*
X026544Y016018D01*
X026806Y015823D02*
X026806Y015727D01*
X026544Y015727D01*
X026544Y015823D01*
X026806Y015823D01*
X026806Y015821D02*
X026544Y015821D01*
X026319Y015438D02*
X026223Y015438D01*
X026223Y015700D01*
X026319Y015700D01*
X026319Y015438D01*
X026319Y015532D02*
X026223Y015532D01*
X026223Y015626D02*
X026319Y015626D01*
X026122Y015438D02*
X026026Y015438D01*
X026026Y015700D01*
X026122Y015700D01*
X026122Y015438D01*
X026122Y015532D02*
X026026Y015532D01*
X026026Y015626D02*
X026122Y015626D01*
X033493Y015727D02*
X033493Y015823D01*
X033755Y015823D01*
X033755Y015727D01*
X033493Y015727D01*
X033493Y015821D02*
X033755Y015821D01*
X033493Y015924D02*
X033493Y016020D01*
X033755Y016020D01*
X033755Y015924D01*
X033493Y015924D01*
X033493Y016018D02*
X033755Y016018D01*
X033493Y016121D02*
X033493Y016217D01*
X033755Y016217D01*
X033755Y016121D01*
X033493Y016121D01*
X033493Y016215D02*
X033755Y016215D01*
X033493Y016318D02*
X033493Y016414D01*
X033755Y016414D01*
X033755Y016318D01*
X033493Y016318D01*
X033493Y016412D02*
X033755Y016412D01*
X033493Y016515D02*
X033493Y016611D01*
X033755Y016611D01*
X033755Y016515D01*
X033493Y016515D01*
X033493Y016609D02*
X033755Y016609D01*
X033979Y016900D02*
X034075Y016900D01*
X034075Y016638D01*
X033979Y016638D01*
X033979Y016900D01*
X033979Y016732D02*
X034075Y016732D01*
X034075Y016826D02*
X033979Y016826D01*
X034176Y016900D02*
X034272Y016900D01*
X034272Y016638D01*
X034176Y016638D01*
X034176Y016900D01*
X034176Y016732D02*
X034272Y016732D01*
X034272Y016826D02*
X034176Y016826D01*
X034759Y016611D02*
X034759Y016515D01*
X034497Y016515D01*
X034497Y016611D01*
X034759Y016611D01*
X034759Y016609D02*
X034497Y016609D01*
X034759Y016414D02*
X034759Y016318D01*
X034497Y016318D01*
X034497Y016414D01*
X034759Y016414D01*
X034759Y016412D02*
X034497Y016412D01*
X034759Y016217D02*
X034759Y016121D01*
X034497Y016121D01*
X034497Y016217D01*
X034759Y016217D01*
X034759Y016215D02*
X034497Y016215D01*
X034759Y016020D02*
X034759Y015924D01*
X034497Y015924D01*
X034497Y016020D01*
X034759Y016020D01*
X034759Y016018D02*
X034497Y016018D01*
X034759Y015823D02*
X034759Y015727D01*
X034497Y015727D01*
X034497Y015823D01*
X034759Y015823D01*
X034759Y015821D02*
X034497Y015821D01*
X034272Y015438D02*
X034176Y015438D01*
X034176Y015700D01*
X034272Y015700D01*
X034272Y015438D01*
X034272Y015532D02*
X034176Y015532D01*
X034176Y015626D02*
X034272Y015626D01*
X034075Y015438D02*
X033979Y015438D01*
X033979Y015700D01*
X034075Y015700D01*
X034075Y015438D01*
X034075Y015532D02*
X033979Y015532D01*
X033979Y015626D02*
X034075Y015626D01*
X034075Y027406D02*
X033979Y027406D01*
X033979Y027668D01*
X034075Y027668D01*
X034075Y027406D01*
X034075Y027500D02*
X033979Y027500D01*
X033979Y027594D02*
X034075Y027594D01*
X034176Y027406D02*
X034272Y027406D01*
X034176Y027406D02*
X034176Y027668D01*
X034272Y027668D01*
X034272Y027406D01*
X034272Y027500D02*
X034176Y027500D01*
X034176Y027594D02*
X034272Y027594D01*
X034759Y027696D02*
X034759Y027792D01*
X034759Y027696D02*
X034497Y027696D01*
X034497Y027792D01*
X034759Y027792D01*
X034759Y027790D02*
X034497Y027790D01*
X034759Y027893D02*
X034759Y027989D01*
X034759Y027893D02*
X034497Y027893D01*
X034497Y027989D01*
X034759Y027989D01*
X034759Y027987D02*
X034497Y027987D01*
X034759Y028089D02*
X034759Y028185D01*
X034759Y028089D02*
X034497Y028089D01*
X034497Y028185D01*
X034759Y028185D01*
X034759Y028183D02*
X034497Y028183D01*
X034759Y028286D02*
X034759Y028382D01*
X034759Y028286D02*
X034497Y028286D01*
X034497Y028382D01*
X034759Y028382D01*
X034759Y028380D02*
X034497Y028380D01*
X034759Y028483D02*
X034759Y028579D01*
X034759Y028483D02*
X034497Y028483D01*
X034497Y028579D01*
X034759Y028579D01*
X034759Y028577D02*
X034497Y028577D01*
X034272Y028869D02*
X034176Y028869D01*
X034272Y028869D02*
X034272Y028607D01*
X034176Y028607D01*
X034176Y028869D01*
X034176Y028701D02*
X034272Y028701D01*
X034272Y028795D02*
X034176Y028795D01*
X034075Y028869D02*
X033979Y028869D01*
X034075Y028869D02*
X034075Y028607D01*
X033979Y028607D01*
X033979Y028869D01*
X033979Y028701D02*
X034075Y028701D01*
X034075Y028795D02*
X033979Y028795D01*
X033493Y028579D02*
X033493Y028483D01*
X033493Y028579D02*
X033755Y028579D01*
X033755Y028483D01*
X033493Y028483D01*
X033493Y028577D02*
X033755Y028577D01*
X033493Y028382D02*
X033493Y028286D01*
X033493Y028382D02*
X033755Y028382D01*
X033755Y028286D01*
X033493Y028286D01*
X033493Y028380D02*
X033755Y028380D01*
X033493Y028185D02*
X033493Y028089D01*
X033493Y028185D02*
X033755Y028185D01*
X033755Y028089D01*
X033493Y028089D01*
X033493Y028183D02*
X033755Y028183D01*
X033493Y027989D02*
X033493Y027893D01*
X033493Y027989D02*
X033755Y027989D01*
X033755Y027893D01*
X033493Y027893D01*
X033493Y027987D02*
X033755Y027987D01*
X033493Y027792D02*
X033493Y027696D01*
X033493Y027792D02*
X033755Y027792D01*
X033755Y027696D01*
X033493Y027696D01*
X033493Y027790D02*
X033755Y027790D01*
X026806Y027792D02*
X026806Y027696D01*
X026544Y027696D01*
X026544Y027792D01*
X026806Y027792D01*
X026806Y027790D02*
X026544Y027790D01*
X026806Y027893D02*
X026806Y027989D01*
X026806Y027893D02*
X026544Y027893D01*
X026544Y027989D01*
X026806Y027989D01*
X026806Y027987D02*
X026544Y027987D01*
X026806Y028089D02*
X026806Y028185D01*
X026806Y028089D02*
X026544Y028089D01*
X026544Y028185D01*
X026806Y028185D01*
X026806Y028183D02*
X026544Y028183D01*
X026806Y028286D02*
X026806Y028382D01*
X026806Y028286D02*
X026544Y028286D01*
X026544Y028382D01*
X026806Y028382D01*
X026806Y028380D02*
X026544Y028380D01*
X026806Y028483D02*
X026806Y028579D01*
X026806Y028483D02*
X026544Y028483D01*
X026544Y028579D01*
X026806Y028579D01*
X026806Y028577D02*
X026544Y028577D01*
X026319Y028869D02*
X026223Y028869D01*
X026319Y028869D02*
X026319Y028607D01*
X026223Y028607D01*
X026223Y028869D01*
X026223Y028701D02*
X026319Y028701D01*
X026319Y028795D02*
X026223Y028795D01*
X026122Y028869D02*
X026026Y028869D01*
X026122Y028869D02*
X026122Y028607D01*
X026026Y028607D01*
X026026Y028869D01*
X026026Y028701D02*
X026122Y028701D01*
X026122Y028795D02*
X026026Y028795D01*
X025540Y028579D02*
X025540Y028483D01*
X025540Y028579D02*
X025802Y028579D01*
X025802Y028483D01*
X025540Y028483D01*
X025540Y028577D02*
X025802Y028577D01*
X025540Y028382D02*
X025540Y028286D01*
X025540Y028382D02*
X025802Y028382D01*
X025802Y028286D01*
X025540Y028286D01*
X025540Y028380D02*
X025802Y028380D01*
X025540Y028185D02*
X025540Y028089D01*
X025540Y028185D02*
X025802Y028185D01*
X025802Y028089D01*
X025540Y028089D01*
X025540Y028183D02*
X025802Y028183D01*
X025540Y027989D02*
X025540Y027893D01*
X025540Y027989D02*
X025802Y027989D01*
X025802Y027893D01*
X025540Y027893D01*
X025540Y027987D02*
X025802Y027987D01*
X025540Y027792D02*
X025540Y027696D01*
X025540Y027792D02*
X025802Y027792D01*
X025802Y027696D01*
X025540Y027696D01*
X025540Y027790D02*
X025802Y027790D01*
X026026Y027406D02*
X026122Y027406D01*
X026026Y027406D02*
X026026Y027668D01*
X026122Y027668D01*
X026122Y027406D01*
X026122Y027500D02*
X026026Y027500D01*
X026026Y027594D02*
X026122Y027594D01*
X026223Y027406D02*
X026319Y027406D01*
X026223Y027406D02*
X026223Y027668D01*
X026319Y027668D01*
X026319Y027406D01*
X026319Y027500D02*
X026223Y027500D01*
X026223Y027594D02*
X026319Y027594D01*
X018853Y027696D02*
X018853Y027792D01*
X018853Y027696D02*
X018591Y027696D01*
X018591Y027792D01*
X018853Y027792D01*
X018853Y027790D02*
X018591Y027790D01*
X018853Y027893D02*
X018853Y027989D01*
X018853Y027893D02*
X018591Y027893D01*
X018591Y027989D01*
X018853Y027989D01*
X018853Y027987D02*
X018591Y027987D01*
X018853Y028089D02*
X018853Y028185D01*
X018853Y028089D02*
X018591Y028089D01*
X018591Y028185D01*
X018853Y028185D01*
X018853Y028183D02*
X018591Y028183D01*
X018853Y028286D02*
X018853Y028382D01*
X018853Y028286D02*
X018591Y028286D01*
X018591Y028382D01*
X018853Y028382D01*
X018853Y028380D02*
X018591Y028380D01*
X018853Y028483D02*
X018853Y028579D01*
X018853Y028483D02*
X018591Y028483D01*
X018591Y028579D01*
X018853Y028579D01*
X018853Y028577D02*
X018591Y028577D01*
X018366Y028869D02*
X018270Y028869D01*
X018366Y028869D02*
X018366Y028607D01*
X018270Y028607D01*
X018270Y028869D01*
X018270Y028701D02*
X018366Y028701D01*
X018366Y028795D02*
X018270Y028795D01*
X018170Y028869D02*
X018074Y028869D01*
X018170Y028869D02*
X018170Y028607D01*
X018074Y028607D01*
X018074Y028869D01*
X018074Y028701D02*
X018170Y028701D01*
X018170Y028795D02*
X018074Y028795D01*
X017587Y028579D02*
X017587Y028483D01*
X017587Y028579D02*
X017849Y028579D01*
X017849Y028483D01*
X017587Y028483D01*
X017587Y028577D02*
X017849Y028577D01*
X017587Y028382D02*
X017587Y028286D01*
X017587Y028382D02*
X017849Y028382D01*
X017849Y028286D01*
X017587Y028286D01*
X017587Y028380D02*
X017849Y028380D01*
X017587Y028185D02*
X017587Y028089D01*
X017587Y028185D02*
X017849Y028185D01*
X017849Y028089D01*
X017587Y028089D01*
X017587Y028183D02*
X017849Y028183D01*
X017587Y027989D02*
X017587Y027893D01*
X017587Y027989D02*
X017849Y027989D01*
X017849Y027893D01*
X017587Y027893D01*
X017587Y027987D02*
X017849Y027987D01*
X017587Y027792D02*
X017587Y027696D01*
X017587Y027792D02*
X017849Y027792D01*
X017849Y027696D01*
X017587Y027696D01*
X017587Y027790D02*
X017849Y027790D01*
X018074Y027406D02*
X018170Y027406D01*
X018074Y027406D02*
X018074Y027668D01*
X018170Y027668D01*
X018170Y027406D01*
X018170Y027500D02*
X018074Y027500D01*
X018074Y027594D02*
X018170Y027594D01*
X018270Y027406D02*
X018366Y027406D01*
X018270Y027406D02*
X018270Y027668D01*
X018366Y027668D01*
X018366Y027406D01*
X018366Y027500D02*
X018270Y027500D01*
X018270Y027594D02*
X018366Y027594D01*
X010900Y027696D02*
X010900Y027792D01*
X010900Y027696D02*
X010638Y027696D01*
X010638Y027792D01*
X010900Y027792D01*
X010900Y027790D02*
X010638Y027790D01*
X010900Y027893D02*
X010900Y027989D01*
X010900Y027893D02*
X010638Y027893D01*
X010638Y027989D01*
X010900Y027989D01*
X010900Y027987D02*
X010638Y027987D01*
X010900Y028089D02*
X010900Y028185D01*
X010900Y028089D02*
X010638Y028089D01*
X010638Y028185D01*
X010900Y028185D01*
X010900Y028183D02*
X010638Y028183D01*
X010900Y028286D02*
X010900Y028382D01*
X010900Y028286D02*
X010638Y028286D01*
X010638Y028382D01*
X010900Y028382D01*
X010900Y028380D02*
X010638Y028380D01*
X010900Y028483D02*
X010900Y028579D01*
X010900Y028483D02*
X010638Y028483D01*
X010638Y028579D01*
X010900Y028579D01*
X010900Y028577D02*
X010638Y028577D01*
X010414Y028869D02*
X010318Y028869D01*
X010414Y028869D02*
X010414Y028607D01*
X010318Y028607D01*
X010318Y028869D01*
X010318Y028701D02*
X010414Y028701D01*
X010414Y028795D02*
X010318Y028795D01*
X010217Y028869D02*
X010121Y028869D01*
X010217Y028869D02*
X010217Y028607D01*
X010121Y028607D01*
X010121Y028869D01*
X010121Y028701D02*
X010217Y028701D01*
X010217Y028795D02*
X010121Y028795D01*
X009634Y028579D02*
X009634Y028483D01*
X009634Y028579D02*
X009896Y028579D01*
X009896Y028483D01*
X009634Y028483D01*
X009634Y028577D02*
X009896Y028577D01*
X009634Y028382D02*
X009634Y028286D01*
X009634Y028382D02*
X009896Y028382D01*
X009896Y028286D01*
X009634Y028286D01*
X009634Y028380D02*
X009896Y028380D01*
X009634Y028185D02*
X009634Y028089D01*
X009634Y028185D02*
X009896Y028185D01*
X009896Y028089D01*
X009634Y028089D01*
X009634Y028183D02*
X009896Y028183D01*
X009634Y027989D02*
X009634Y027893D01*
X009634Y027989D02*
X009896Y027989D01*
X009896Y027893D01*
X009634Y027893D01*
X009634Y027987D02*
X009896Y027987D01*
X009634Y027792D02*
X009634Y027696D01*
X009634Y027792D02*
X009896Y027792D01*
X009896Y027696D01*
X009634Y027696D01*
X009634Y027790D02*
X009896Y027790D01*
X010121Y027406D02*
X010217Y027406D01*
X010121Y027406D02*
X010121Y027668D01*
X010217Y027668D01*
X010217Y027406D01*
X010217Y027500D02*
X010121Y027500D01*
X010121Y027594D02*
X010217Y027594D01*
X010318Y027406D02*
X010414Y027406D01*
X010318Y027406D02*
X010318Y027668D01*
X010414Y027668D01*
X010414Y027406D01*
X010414Y027500D02*
X010318Y027500D01*
X010318Y027594D02*
X010414Y027594D01*
D22*
X010267Y028137D03*
X018220Y028137D03*
X026173Y028137D03*
X034126Y028137D03*
X034126Y016169D03*
X026173Y016169D03*
X018220Y016169D03*
X010267Y016169D03*
M02*
