G75*
%MOIN*%
%OFA0B0*%
%FSLAX24Y24*%
%IPPOS*%
%LPD*%
%AMOC8*
5,1,8,0,0,1.08239X$1,22.5*
%
%ADD10C,0.0000*%
D10*
X004716Y004437D02*
X004716Y008216D01*
X004716Y020185D01*
X012669Y020185D01*
X020622Y020185D01*
X028574Y020185D01*
X028574Y008216D01*
X028574Y004437D01*
X036527Y004437D01*
X036527Y008216D01*
X036527Y020185D01*
X028574Y020185D01*
X028574Y032153D01*
X028574Y035933D01*
X036527Y035933D01*
X036527Y032153D01*
X036527Y020185D01*
X036527Y008216D02*
X028574Y008216D01*
X020622Y008216D01*
X020622Y004437D01*
X028574Y004437D01*
X033772Y006405D02*
X033774Y006461D01*
X033780Y006516D01*
X033790Y006570D01*
X033803Y006624D01*
X033821Y006677D01*
X033842Y006728D01*
X033866Y006778D01*
X033894Y006826D01*
X033926Y006872D01*
X033960Y006916D01*
X033998Y006957D01*
X034038Y006995D01*
X034081Y007030D01*
X034126Y007062D01*
X034174Y007091D01*
X034223Y007117D01*
X034274Y007139D01*
X034326Y007157D01*
X034380Y007171D01*
X034435Y007182D01*
X034490Y007189D01*
X034545Y007192D01*
X034601Y007191D01*
X034656Y007186D01*
X034711Y007177D01*
X034765Y007165D01*
X034818Y007148D01*
X034870Y007128D01*
X034920Y007104D01*
X034968Y007077D01*
X035015Y007047D01*
X035059Y007013D01*
X035101Y006976D01*
X035139Y006936D01*
X035176Y006894D01*
X035209Y006849D01*
X035238Y006803D01*
X035265Y006754D01*
X035287Y006703D01*
X035307Y006651D01*
X035322Y006597D01*
X035334Y006543D01*
X035342Y006488D01*
X035346Y006433D01*
X035346Y006377D01*
X035342Y006322D01*
X035334Y006267D01*
X035322Y006213D01*
X035307Y006159D01*
X035287Y006107D01*
X035265Y006056D01*
X035238Y006007D01*
X035209Y005961D01*
X035176Y005916D01*
X035139Y005874D01*
X035101Y005834D01*
X035059Y005797D01*
X035015Y005763D01*
X034968Y005733D01*
X034920Y005706D01*
X034870Y005682D01*
X034818Y005662D01*
X034765Y005645D01*
X034711Y005633D01*
X034656Y005624D01*
X034601Y005619D01*
X034545Y005618D01*
X034490Y005621D01*
X034435Y005628D01*
X034380Y005639D01*
X034326Y005653D01*
X034274Y005671D01*
X034223Y005693D01*
X034174Y005719D01*
X034126Y005748D01*
X034081Y005780D01*
X034038Y005815D01*
X033998Y005853D01*
X033960Y005894D01*
X033926Y005938D01*
X033894Y005984D01*
X033866Y006032D01*
X033842Y006082D01*
X033821Y006133D01*
X033803Y006186D01*
X033790Y006240D01*
X033780Y006294D01*
X033774Y006349D01*
X033772Y006405D01*
X020622Y008216D02*
X020622Y020185D01*
X020622Y032153D01*
X020622Y035933D01*
X028574Y035933D01*
X028574Y032153D02*
X020622Y032153D01*
X012669Y032153D01*
X012669Y035933D01*
X020622Y035933D01*
X028574Y032153D02*
X036527Y032153D01*
X033772Y033964D02*
X033774Y034020D01*
X033780Y034075D01*
X033790Y034129D01*
X033803Y034183D01*
X033821Y034236D01*
X033842Y034287D01*
X033866Y034337D01*
X033894Y034385D01*
X033926Y034431D01*
X033960Y034475D01*
X033998Y034516D01*
X034038Y034554D01*
X034081Y034589D01*
X034126Y034621D01*
X034174Y034650D01*
X034223Y034676D01*
X034274Y034698D01*
X034326Y034716D01*
X034380Y034730D01*
X034435Y034741D01*
X034490Y034748D01*
X034545Y034751D01*
X034601Y034750D01*
X034656Y034745D01*
X034711Y034736D01*
X034765Y034724D01*
X034818Y034707D01*
X034870Y034687D01*
X034920Y034663D01*
X034968Y034636D01*
X035015Y034606D01*
X035059Y034572D01*
X035101Y034535D01*
X035139Y034495D01*
X035176Y034453D01*
X035209Y034408D01*
X035238Y034362D01*
X035265Y034313D01*
X035287Y034262D01*
X035307Y034210D01*
X035322Y034156D01*
X035334Y034102D01*
X035342Y034047D01*
X035346Y033992D01*
X035346Y033936D01*
X035342Y033881D01*
X035334Y033826D01*
X035322Y033772D01*
X035307Y033718D01*
X035287Y033666D01*
X035265Y033615D01*
X035238Y033566D01*
X035209Y033520D01*
X035176Y033475D01*
X035139Y033433D01*
X035101Y033393D01*
X035059Y033356D01*
X035015Y033322D01*
X034968Y033292D01*
X034920Y033265D01*
X034870Y033241D01*
X034818Y033221D01*
X034765Y033204D01*
X034711Y033192D01*
X034656Y033183D01*
X034601Y033178D01*
X034545Y033177D01*
X034490Y033180D01*
X034435Y033187D01*
X034380Y033198D01*
X034326Y033212D01*
X034274Y033230D01*
X034223Y033252D01*
X034174Y033278D01*
X034126Y033307D01*
X034081Y033339D01*
X034038Y033374D01*
X033998Y033412D01*
X033960Y033453D01*
X033926Y033497D01*
X033894Y033543D01*
X033866Y033591D01*
X033842Y033641D01*
X033821Y033692D01*
X033803Y033745D01*
X033790Y033799D01*
X033780Y033853D01*
X033774Y033908D01*
X033772Y033964D01*
X012669Y032153D02*
X012669Y020185D01*
X012669Y008216D01*
X012669Y004437D01*
X020622Y004437D01*
X020622Y008216D02*
X012669Y008216D01*
X004716Y008216D01*
X005898Y006405D02*
X005900Y006461D01*
X005906Y006516D01*
X005916Y006570D01*
X005929Y006624D01*
X005947Y006677D01*
X005968Y006728D01*
X005992Y006778D01*
X006020Y006826D01*
X006052Y006872D01*
X006086Y006916D01*
X006124Y006957D01*
X006164Y006995D01*
X006207Y007030D01*
X006252Y007062D01*
X006300Y007091D01*
X006349Y007117D01*
X006400Y007139D01*
X006452Y007157D01*
X006506Y007171D01*
X006561Y007182D01*
X006616Y007189D01*
X006671Y007192D01*
X006727Y007191D01*
X006782Y007186D01*
X006837Y007177D01*
X006891Y007165D01*
X006944Y007148D01*
X006996Y007128D01*
X007046Y007104D01*
X007094Y007077D01*
X007141Y007047D01*
X007185Y007013D01*
X007227Y006976D01*
X007265Y006936D01*
X007302Y006894D01*
X007335Y006849D01*
X007364Y006803D01*
X007391Y006754D01*
X007413Y006703D01*
X007433Y006651D01*
X007448Y006597D01*
X007460Y006543D01*
X007468Y006488D01*
X007472Y006433D01*
X007472Y006377D01*
X007468Y006322D01*
X007460Y006267D01*
X007448Y006213D01*
X007433Y006159D01*
X007413Y006107D01*
X007391Y006056D01*
X007364Y006007D01*
X007335Y005961D01*
X007302Y005916D01*
X007265Y005874D01*
X007227Y005834D01*
X007185Y005797D01*
X007141Y005763D01*
X007094Y005733D01*
X007046Y005706D01*
X006996Y005682D01*
X006944Y005662D01*
X006891Y005645D01*
X006837Y005633D01*
X006782Y005624D01*
X006727Y005619D01*
X006671Y005618D01*
X006616Y005621D01*
X006561Y005628D01*
X006506Y005639D01*
X006452Y005653D01*
X006400Y005671D01*
X006349Y005693D01*
X006300Y005719D01*
X006252Y005748D01*
X006207Y005780D01*
X006164Y005815D01*
X006124Y005853D01*
X006086Y005894D01*
X006052Y005938D01*
X006020Y005984D01*
X005992Y006032D01*
X005968Y006082D01*
X005947Y006133D01*
X005929Y006186D01*
X005916Y006240D01*
X005906Y006294D01*
X005900Y006349D01*
X005898Y006405D01*
X004716Y004437D02*
X012669Y004437D01*
X004716Y020185D02*
X004716Y032153D01*
X004716Y035933D01*
X012669Y035933D01*
X012669Y032153D02*
X004716Y032153D01*
X005898Y033964D02*
X005900Y034020D01*
X005906Y034075D01*
X005916Y034129D01*
X005929Y034183D01*
X005947Y034236D01*
X005968Y034287D01*
X005992Y034337D01*
X006020Y034385D01*
X006052Y034431D01*
X006086Y034475D01*
X006124Y034516D01*
X006164Y034554D01*
X006207Y034589D01*
X006252Y034621D01*
X006300Y034650D01*
X006349Y034676D01*
X006400Y034698D01*
X006452Y034716D01*
X006506Y034730D01*
X006561Y034741D01*
X006616Y034748D01*
X006671Y034751D01*
X006727Y034750D01*
X006782Y034745D01*
X006837Y034736D01*
X006891Y034724D01*
X006944Y034707D01*
X006996Y034687D01*
X007046Y034663D01*
X007094Y034636D01*
X007141Y034606D01*
X007185Y034572D01*
X007227Y034535D01*
X007265Y034495D01*
X007302Y034453D01*
X007335Y034408D01*
X007364Y034362D01*
X007391Y034313D01*
X007413Y034262D01*
X007433Y034210D01*
X007448Y034156D01*
X007460Y034102D01*
X007468Y034047D01*
X007472Y033992D01*
X007472Y033936D01*
X007468Y033881D01*
X007460Y033826D01*
X007448Y033772D01*
X007433Y033718D01*
X007413Y033666D01*
X007391Y033615D01*
X007364Y033566D01*
X007335Y033520D01*
X007302Y033475D01*
X007265Y033433D01*
X007227Y033393D01*
X007185Y033356D01*
X007141Y033322D01*
X007094Y033292D01*
X007046Y033265D01*
X006996Y033241D01*
X006944Y033221D01*
X006891Y033204D01*
X006837Y033192D01*
X006782Y033183D01*
X006727Y033178D01*
X006671Y033177D01*
X006616Y033180D01*
X006561Y033187D01*
X006506Y033198D01*
X006452Y033212D01*
X006400Y033230D01*
X006349Y033252D01*
X006300Y033278D01*
X006252Y033307D01*
X006207Y033339D01*
X006164Y033374D01*
X006124Y033412D01*
X006086Y033453D01*
X006052Y033497D01*
X006020Y033543D01*
X005992Y033591D01*
X005968Y033641D01*
X005947Y033692D01*
X005929Y033745D01*
X005916Y033799D01*
X005906Y033853D01*
X005900Y033908D01*
X005898Y033964D01*
M02*
