G75*
%MOIN*%
%OFA0B0*%
%FSLAX24Y24*%
%IPPOS*%
%LPD*%
%AMOC8*
5,1,8,0,0,1.08239X$1,22.5*
%
%ADD10OC8,0.0591*%
%ADD11C,0.0055*%
%ADD12R,0.0110X0.0276*%
%ADD13R,0.0276X0.0110*%
%ADD14R,0.1378X0.1378*%
%ADD15R,0.0217X0.0472*%
%ADD16R,0.0354X0.0276*%
%ADD17R,0.0276X0.0354*%
%ADD18R,0.0394X0.0433*%
%ADD19C,0.0276*%
%ADD20R,0.0453X0.0650*%
%ADD21C,0.0236*%
%ADD22C,0.0079*%
%ADD23C,0.0098*%
%ADD24C,0.0236*%
%ADD25C,0.0315*%
%ADD26C,0.0157*%
D10*
X005192Y008700D03*
X005192Y009700D03*
X005192Y010700D03*
X005192Y011700D03*
X005192Y012700D03*
X005192Y013700D03*
X005192Y014700D03*
X005192Y015700D03*
X005192Y016700D03*
X005192Y017700D03*
X005192Y018700D03*
X005192Y019700D03*
X005192Y020669D03*
X005192Y021669D03*
X005192Y022669D03*
X005192Y023669D03*
X005192Y024669D03*
X005192Y025669D03*
X005192Y026669D03*
X005192Y027669D03*
X005192Y028669D03*
X005192Y029669D03*
X005192Y030669D03*
X005192Y031669D03*
X006192Y030669D03*
X007192Y030669D03*
X008192Y030669D03*
X009192Y030669D03*
X010192Y030669D03*
X011192Y030669D03*
X012192Y030669D03*
X012192Y031669D03*
X013145Y031669D03*
X013145Y030669D03*
X013145Y029669D03*
X012192Y029669D03*
X012192Y028669D03*
X013145Y028669D03*
X013145Y027669D03*
X012192Y027669D03*
X012192Y026669D03*
X012192Y025669D03*
X013145Y025669D03*
X013145Y026669D03*
X013145Y024669D03*
X012192Y024669D03*
X012192Y023669D03*
X011192Y023169D03*
X012192Y022669D03*
X012192Y021669D03*
X011192Y022169D03*
X012192Y020669D03*
X013145Y020669D03*
X013145Y019700D03*
X012192Y019700D03*
X012192Y018700D03*
X011192Y018700D03*
X012192Y017700D03*
X013145Y017700D03*
X013145Y018700D03*
X014145Y018700D03*
X015145Y018700D03*
X016145Y018700D03*
X017145Y018700D03*
X018145Y018700D03*
X019145Y018700D03*
X020145Y018700D03*
X020145Y017700D03*
X021098Y017700D03*
X021098Y018700D03*
X022098Y018700D03*
X023098Y018700D03*
X024098Y018700D03*
X025098Y018700D03*
X026098Y018700D03*
X027098Y018700D03*
X028098Y018700D03*
X028098Y017700D03*
X029051Y017700D03*
X029051Y018700D03*
X030051Y018700D03*
X031051Y018700D03*
X032051Y018700D03*
X033051Y018700D03*
X034051Y018700D03*
X035051Y018700D03*
X036051Y018700D03*
X036051Y017700D03*
X036051Y016700D03*
X036051Y015700D03*
X036051Y014700D03*
X036051Y013700D03*
X036051Y012700D03*
X036051Y011700D03*
X036051Y010700D03*
X036051Y009700D03*
X036051Y008700D03*
X035051Y010200D03*
X035051Y011200D03*
X029051Y010700D03*
X028098Y010700D03*
X027098Y010200D03*
X028098Y009700D03*
X028098Y008700D03*
X029051Y008700D03*
X029051Y009700D03*
X027098Y011200D03*
X028098Y011700D03*
X029051Y011700D03*
X029051Y012700D03*
X029051Y013700D03*
X028098Y013700D03*
X028098Y012700D03*
X028098Y014700D03*
X029051Y014700D03*
X029051Y015700D03*
X028098Y015700D03*
X028098Y016700D03*
X029051Y016700D03*
X029051Y019700D03*
X028098Y019700D03*
X028098Y020669D03*
X029051Y020669D03*
X029051Y021669D03*
X029051Y022669D03*
X028098Y022669D03*
X028098Y021669D03*
X027098Y022169D03*
X027098Y023169D03*
X028098Y023669D03*
X029051Y023669D03*
X029051Y024669D03*
X028098Y024669D03*
X028098Y025669D03*
X028098Y026669D03*
X029051Y026669D03*
X029051Y025669D03*
X029051Y027669D03*
X028098Y027669D03*
X028098Y028669D03*
X029051Y028669D03*
X029051Y029669D03*
X028098Y029669D03*
X028098Y030669D03*
X028098Y031669D03*
X027098Y030669D03*
X026098Y030669D03*
X025098Y030669D03*
X024098Y030669D03*
X023098Y030669D03*
X022098Y030669D03*
X021098Y030669D03*
X021098Y031669D03*
X020145Y031669D03*
X020145Y030669D03*
X019145Y030669D03*
X018145Y030669D03*
X017145Y030669D03*
X016145Y030669D03*
X015145Y030669D03*
X014145Y030669D03*
X020145Y029669D03*
X021098Y029669D03*
X021098Y028669D03*
X020145Y028669D03*
X020145Y027669D03*
X021098Y027669D03*
X021098Y026669D03*
X021098Y025669D03*
X020145Y025669D03*
X020145Y026669D03*
X020145Y024669D03*
X021098Y024669D03*
X021098Y023669D03*
X020145Y023669D03*
X019145Y023169D03*
X020145Y022669D03*
X020145Y021669D03*
X019145Y022169D03*
X020145Y020669D03*
X021098Y020669D03*
X021098Y019700D03*
X020145Y019700D03*
X021098Y021669D03*
X021098Y022669D03*
X021098Y016700D03*
X020145Y016700D03*
X020145Y015700D03*
X021098Y015700D03*
X021098Y014700D03*
X020145Y014700D03*
X020145Y013700D03*
X020145Y012700D03*
X021098Y012700D03*
X021098Y013700D03*
X021098Y011700D03*
X020145Y011700D03*
X019145Y011200D03*
X020145Y010700D03*
X019145Y010200D03*
X020145Y009700D03*
X020145Y008700D03*
X021098Y008700D03*
X021098Y009700D03*
X021098Y010700D03*
X013145Y010700D03*
X012192Y010700D03*
X011192Y010200D03*
X012192Y009700D03*
X012192Y008700D03*
X013145Y008700D03*
X013145Y009700D03*
X011192Y011200D03*
X012192Y011700D03*
X013145Y011700D03*
X013145Y012700D03*
X013145Y013700D03*
X012192Y013700D03*
X012192Y012700D03*
X012192Y014700D03*
X013145Y014700D03*
X013145Y015700D03*
X012192Y015700D03*
X012192Y016700D03*
X013145Y016700D03*
X010192Y018700D03*
X009192Y018700D03*
X008192Y018700D03*
X007192Y018700D03*
X006192Y018700D03*
X013145Y021669D03*
X013145Y022669D03*
X013145Y023669D03*
X029051Y030669D03*
X030051Y030669D03*
X029051Y031669D03*
X031051Y030669D03*
X032051Y030669D03*
X033051Y030669D03*
X034051Y030669D03*
X035051Y030669D03*
X036051Y030669D03*
X036051Y031669D03*
X036051Y029669D03*
X036051Y028669D03*
X036051Y027669D03*
X036051Y026669D03*
X036051Y025669D03*
X036051Y024669D03*
X036051Y023669D03*
X036051Y022669D03*
X036051Y021669D03*
X036051Y020669D03*
X036051Y019700D03*
X035051Y022169D03*
X035051Y023169D03*
D11*
X033365Y024428D02*
X033365Y024484D01*
X033587Y024484D01*
X033587Y024428D01*
X033365Y024428D01*
X033365Y024482D02*
X033587Y024482D01*
X033212Y024331D02*
X033212Y024109D01*
X033212Y024331D02*
X033268Y024331D01*
X033268Y024109D01*
X033212Y024109D01*
X033212Y024163D02*
X033268Y024163D01*
X033268Y024217D02*
X033212Y024217D01*
X033212Y024271D02*
X033268Y024271D01*
X033268Y024325D02*
X033212Y024325D01*
X031834Y024331D02*
X031834Y024109D01*
X031834Y024331D02*
X031890Y024331D01*
X031890Y024109D01*
X031834Y024109D01*
X031834Y024163D02*
X031890Y024163D01*
X031890Y024217D02*
X031834Y024217D01*
X031834Y024271D02*
X031890Y024271D01*
X031890Y024325D02*
X031834Y024325D01*
X031515Y024428D02*
X031515Y024484D01*
X031737Y024484D01*
X031737Y024428D01*
X031515Y024428D01*
X031515Y024482D02*
X031737Y024482D01*
X031515Y025806D02*
X031515Y025862D01*
X031737Y025862D01*
X031737Y025806D01*
X031515Y025806D01*
X031515Y025860D02*
X031737Y025860D01*
X031834Y025959D02*
X031834Y026181D01*
X031890Y026181D01*
X031890Y025959D01*
X031834Y025959D01*
X031834Y026013D02*
X031890Y026013D01*
X031890Y026067D02*
X031834Y026067D01*
X031834Y026121D02*
X031890Y026121D01*
X031890Y026175D02*
X031834Y026175D01*
X033212Y026181D02*
X033212Y025959D01*
X033212Y026181D02*
X033268Y026181D01*
X033268Y025959D01*
X033212Y025959D01*
X033212Y026013D02*
X033268Y026013D01*
X033268Y026067D02*
X033212Y026067D01*
X033212Y026121D02*
X033268Y026121D01*
X033268Y026175D02*
X033212Y026175D01*
X033365Y025862D02*
X033365Y025806D01*
X033365Y025862D02*
X033587Y025862D01*
X033587Y025806D01*
X033365Y025806D01*
X033365Y025860D02*
X033587Y025860D01*
X033999Y027426D02*
X034055Y027426D01*
X033999Y027426D02*
X033999Y027648D01*
X034055Y027648D01*
X034055Y027426D01*
X034055Y027480D02*
X033999Y027480D01*
X033999Y027534D02*
X034055Y027534D01*
X034055Y027588D02*
X033999Y027588D01*
X033999Y027642D02*
X034055Y027642D01*
X034196Y027426D02*
X034252Y027426D01*
X034196Y027426D02*
X034196Y027648D01*
X034252Y027648D01*
X034252Y027426D01*
X034252Y027480D02*
X034196Y027480D01*
X034196Y027534D02*
X034252Y027534D01*
X034252Y027588D02*
X034196Y027588D01*
X034196Y027642D02*
X034252Y027642D01*
X034739Y027716D02*
X034739Y027772D01*
X034739Y027716D02*
X034517Y027716D01*
X034517Y027772D01*
X034739Y027772D01*
X034739Y027770D02*
X034517Y027770D01*
X034739Y027913D02*
X034739Y027969D01*
X034739Y027913D02*
X034517Y027913D01*
X034517Y027969D01*
X034739Y027969D01*
X034739Y027967D02*
X034517Y027967D01*
X034739Y028109D02*
X034739Y028165D01*
X034739Y028109D02*
X034517Y028109D01*
X034517Y028165D01*
X034739Y028165D01*
X034739Y028163D02*
X034517Y028163D01*
X034739Y028306D02*
X034739Y028362D01*
X034739Y028306D02*
X034517Y028306D01*
X034517Y028362D01*
X034739Y028362D01*
X034739Y028360D02*
X034517Y028360D01*
X034739Y028503D02*
X034739Y028559D01*
X034739Y028503D02*
X034517Y028503D01*
X034517Y028559D01*
X034739Y028559D01*
X034739Y028557D02*
X034517Y028557D01*
X034252Y028849D02*
X034196Y028849D01*
X034252Y028849D02*
X034252Y028627D01*
X034196Y028627D01*
X034196Y028849D01*
X034196Y028681D02*
X034252Y028681D01*
X034252Y028735D02*
X034196Y028735D01*
X034196Y028789D02*
X034252Y028789D01*
X034252Y028843D02*
X034196Y028843D01*
X034055Y028849D02*
X033999Y028849D01*
X034055Y028849D02*
X034055Y028627D01*
X033999Y028627D01*
X033999Y028849D01*
X033999Y028681D02*
X034055Y028681D01*
X034055Y028735D02*
X033999Y028735D01*
X033999Y028789D02*
X034055Y028789D01*
X034055Y028843D02*
X033999Y028843D01*
X033513Y028559D02*
X033513Y028503D01*
X033513Y028559D02*
X033735Y028559D01*
X033735Y028503D01*
X033513Y028503D01*
X033513Y028557D02*
X033735Y028557D01*
X033513Y028362D02*
X033513Y028306D01*
X033513Y028362D02*
X033735Y028362D01*
X033735Y028306D01*
X033513Y028306D01*
X033513Y028360D02*
X033735Y028360D01*
X033513Y028165D02*
X033513Y028109D01*
X033513Y028165D02*
X033735Y028165D01*
X033735Y028109D01*
X033513Y028109D01*
X033513Y028163D02*
X033735Y028163D01*
X033513Y027969D02*
X033513Y027913D01*
X033513Y027969D02*
X033735Y027969D01*
X033735Y027913D01*
X033513Y027913D01*
X033513Y027967D02*
X033735Y027967D01*
X033513Y027772D02*
X033513Y027716D01*
X033513Y027772D02*
X033735Y027772D01*
X033735Y027716D01*
X033513Y027716D01*
X033513Y027770D02*
X033735Y027770D01*
X026786Y027772D02*
X026786Y027716D01*
X026564Y027716D01*
X026564Y027772D01*
X026786Y027772D01*
X026786Y027770D02*
X026564Y027770D01*
X026786Y027913D02*
X026786Y027969D01*
X026786Y027913D02*
X026564Y027913D01*
X026564Y027969D01*
X026786Y027969D01*
X026786Y027967D02*
X026564Y027967D01*
X026786Y028109D02*
X026786Y028165D01*
X026786Y028109D02*
X026564Y028109D01*
X026564Y028165D01*
X026786Y028165D01*
X026786Y028163D02*
X026564Y028163D01*
X026786Y028306D02*
X026786Y028362D01*
X026786Y028306D02*
X026564Y028306D01*
X026564Y028362D01*
X026786Y028362D01*
X026786Y028360D02*
X026564Y028360D01*
X026786Y028503D02*
X026786Y028559D01*
X026786Y028503D02*
X026564Y028503D01*
X026564Y028559D01*
X026786Y028559D01*
X026786Y028557D02*
X026564Y028557D01*
X026299Y028849D02*
X026243Y028849D01*
X026299Y028849D02*
X026299Y028627D01*
X026243Y028627D01*
X026243Y028849D01*
X026243Y028681D02*
X026299Y028681D01*
X026299Y028735D02*
X026243Y028735D01*
X026243Y028789D02*
X026299Y028789D01*
X026299Y028843D02*
X026243Y028843D01*
X026102Y028849D02*
X026046Y028849D01*
X026102Y028849D02*
X026102Y028627D01*
X026046Y028627D01*
X026046Y028849D01*
X026046Y028681D02*
X026102Y028681D01*
X026102Y028735D02*
X026046Y028735D01*
X026046Y028789D02*
X026102Y028789D01*
X026102Y028843D02*
X026046Y028843D01*
X025560Y028559D02*
X025560Y028503D01*
X025560Y028559D02*
X025782Y028559D01*
X025782Y028503D01*
X025560Y028503D01*
X025560Y028557D02*
X025782Y028557D01*
X025560Y028362D02*
X025560Y028306D01*
X025560Y028362D02*
X025782Y028362D01*
X025782Y028306D01*
X025560Y028306D01*
X025560Y028360D02*
X025782Y028360D01*
X025560Y028165D02*
X025560Y028109D01*
X025560Y028165D02*
X025782Y028165D01*
X025782Y028109D01*
X025560Y028109D01*
X025560Y028163D02*
X025782Y028163D01*
X025560Y027969D02*
X025560Y027913D01*
X025560Y027969D02*
X025782Y027969D01*
X025782Y027913D01*
X025560Y027913D01*
X025560Y027967D02*
X025782Y027967D01*
X025560Y027772D02*
X025560Y027716D01*
X025560Y027772D02*
X025782Y027772D01*
X025782Y027716D01*
X025560Y027716D01*
X025560Y027770D02*
X025782Y027770D01*
X026046Y027426D02*
X026102Y027426D01*
X026046Y027426D02*
X026046Y027648D01*
X026102Y027648D01*
X026102Y027426D01*
X026102Y027480D02*
X026046Y027480D01*
X026046Y027534D02*
X026102Y027534D01*
X026102Y027588D02*
X026046Y027588D01*
X026046Y027642D02*
X026102Y027642D01*
X026243Y027426D02*
X026299Y027426D01*
X026243Y027426D02*
X026243Y027648D01*
X026299Y027648D01*
X026299Y027426D01*
X026299Y027480D02*
X026243Y027480D01*
X026243Y027534D02*
X026299Y027534D01*
X026299Y027588D02*
X026243Y027588D01*
X026243Y027642D02*
X026299Y027642D01*
X025259Y026181D02*
X025259Y025959D01*
X025259Y026181D02*
X025315Y026181D01*
X025315Y025959D01*
X025259Y025959D01*
X025259Y026013D02*
X025315Y026013D01*
X025315Y026067D02*
X025259Y026067D01*
X025259Y026121D02*
X025315Y026121D01*
X025315Y026175D02*
X025259Y026175D01*
X025412Y025862D02*
X025412Y025806D01*
X025412Y025862D02*
X025634Y025862D01*
X025634Y025806D01*
X025412Y025806D01*
X025412Y025860D02*
X025634Y025860D01*
X025412Y024484D02*
X025412Y024428D01*
X025412Y024484D02*
X025634Y024484D01*
X025634Y024428D01*
X025412Y024428D01*
X025412Y024482D02*
X025634Y024482D01*
X025259Y024331D02*
X025259Y024109D01*
X025259Y024331D02*
X025315Y024331D01*
X025315Y024109D01*
X025259Y024109D01*
X025259Y024163D02*
X025315Y024163D01*
X025315Y024217D02*
X025259Y024217D01*
X025259Y024271D02*
X025315Y024271D01*
X025315Y024325D02*
X025259Y024325D01*
X023881Y024331D02*
X023881Y024109D01*
X023881Y024331D02*
X023937Y024331D01*
X023937Y024109D01*
X023881Y024109D01*
X023881Y024163D02*
X023937Y024163D01*
X023937Y024217D02*
X023881Y024217D01*
X023881Y024271D02*
X023937Y024271D01*
X023937Y024325D02*
X023881Y024325D01*
X023562Y024428D02*
X023562Y024484D01*
X023784Y024484D01*
X023784Y024428D01*
X023562Y024428D01*
X023562Y024482D02*
X023784Y024482D01*
X023562Y025806D02*
X023562Y025862D01*
X023784Y025862D01*
X023784Y025806D01*
X023562Y025806D01*
X023562Y025860D02*
X023784Y025860D01*
X023881Y025959D02*
X023881Y026181D01*
X023937Y026181D01*
X023937Y025959D01*
X023881Y025959D01*
X023881Y026013D02*
X023937Y026013D01*
X023937Y026067D02*
X023881Y026067D01*
X023881Y026121D02*
X023937Y026121D01*
X023937Y026175D02*
X023881Y026175D01*
X018833Y027716D02*
X018833Y027772D01*
X018833Y027716D02*
X018611Y027716D01*
X018611Y027772D01*
X018833Y027772D01*
X018833Y027770D02*
X018611Y027770D01*
X018833Y027913D02*
X018833Y027969D01*
X018833Y027913D02*
X018611Y027913D01*
X018611Y027969D01*
X018833Y027969D01*
X018833Y027967D02*
X018611Y027967D01*
X018833Y028109D02*
X018833Y028165D01*
X018833Y028109D02*
X018611Y028109D01*
X018611Y028165D01*
X018833Y028165D01*
X018833Y028163D02*
X018611Y028163D01*
X018833Y028306D02*
X018833Y028362D01*
X018833Y028306D02*
X018611Y028306D01*
X018611Y028362D01*
X018833Y028362D01*
X018833Y028360D02*
X018611Y028360D01*
X018833Y028503D02*
X018833Y028559D01*
X018833Y028503D02*
X018611Y028503D01*
X018611Y028559D01*
X018833Y028559D01*
X018833Y028557D02*
X018611Y028557D01*
X018346Y028849D02*
X018290Y028849D01*
X018346Y028849D02*
X018346Y028627D01*
X018290Y028627D01*
X018290Y028849D01*
X018290Y028681D02*
X018346Y028681D01*
X018346Y028735D02*
X018290Y028735D01*
X018290Y028789D02*
X018346Y028789D01*
X018346Y028843D02*
X018290Y028843D01*
X018150Y028849D02*
X018094Y028849D01*
X018150Y028849D02*
X018150Y028627D01*
X018094Y028627D01*
X018094Y028849D01*
X018094Y028681D02*
X018150Y028681D01*
X018150Y028735D02*
X018094Y028735D01*
X018094Y028789D02*
X018150Y028789D01*
X018150Y028843D02*
X018094Y028843D01*
X017607Y028559D02*
X017607Y028503D01*
X017607Y028559D02*
X017829Y028559D01*
X017829Y028503D01*
X017607Y028503D01*
X017607Y028557D02*
X017829Y028557D01*
X017607Y028362D02*
X017607Y028306D01*
X017607Y028362D02*
X017829Y028362D01*
X017829Y028306D01*
X017607Y028306D01*
X017607Y028360D02*
X017829Y028360D01*
X017607Y028165D02*
X017607Y028109D01*
X017607Y028165D02*
X017829Y028165D01*
X017829Y028109D01*
X017607Y028109D01*
X017607Y028163D02*
X017829Y028163D01*
X017607Y027969D02*
X017607Y027913D01*
X017607Y027969D02*
X017829Y027969D01*
X017829Y027913D01*
X017607Y027913D01*
X017607Y027967D02*
X017829Y027967D01*
X017607Y027772D02*
X017607Y027716D01*
X017607Y027772D02*
X017829Y027772D01*
X017829Y027716D01*
X017607Y027716D01*
X017607Y027770D02*
X017829Y027770D01*
X018094Y027426D02*
X018150Y027426D01*
X018094Y027426D02*
X018094Y027648D01*
X018150Y027648D01*
X018150Y027426D01*
X018150Y027480D02*
X018094Y027480D01*
X018094Y027534D02*
X018150Y027534D01*
X018150Y027588D02*
X018094Y027588D01*
X018094Y027642D02*
X018150Y027642D01*
X018290Y027426D02*
X018346Y027426D01*
X018290Y027426D02*
X018290Y027648D01*
X018346Y027648D01*
X018346Y027426D01*
X018346Y027480D02*
X018290Y027480D01*
X018290Y027534D02*
X018346Y027534D01*
X018346Y027588D02*
X018290Y027588D01*
X018290Y027642D02*
X018346Y027642D01*
X017306Y026181D02*
X017306Y025959D01*
X017306Y026181D02*
X017362Y026181D01*
X017362Y025959D01*
X017306Y025959D01*
X017306Y026013D02*
X017362Y026013D01*
X017362Y026067D02*
X017306Y026067D01*
X017306Y026121D02*
X017362Y026121D01*
X017362Y026175D02*
X017306Y026175D01*
X017459Y025862D02*
X017459Y025806D01*
X017459Y025862D02*
X017681Y025862D01*
X017681Y025806D01*
X017459Y025806D01*
X017459Y025860D02*
X017681Y025860D01*
X017459Y024484D02*
X017459Y024428D01*
X017459Y024484D02*
X017681Y024484D01*
X017681Y024428D01*
X017459Y024428D01*
X017459Y024482D02*
X017681Y024482D01*
X017306Y024331D02*
X017306Y024109D01*
X017306Y024331D02*
X017362Y024331D01*
X017362Y024109D01*
X017306Y024109D01*
X017306Y024163D02*
X017362Y024163D01*
X017362Y024217D02*
X017306Y024217D01*
X017306Y024271D02*
X017362Y024271D01*
X017362Y024325D02*
X017306Y024325D01*
X015928Y024331D02*
X015928Y024109D01*
X015928Y024331D02*
X015984Y024331D01*
X015984Y024109D01*
X015928Y024109D01*
X015928Y024163D02*
X015984Y024163D01*
X015984Y024217D02*
X015928Y024217D01*
X015928Y024271D02*
X015984Y024271D01*
X015984Y024325D02*
X015928Y024325D01*
X015609Y024428D02*
X015609Y024484D01*
X015831Y024484D01*
X015831Y024428D01*
X015609Y024428D01*
X015609Y024482D02*
X015831Y024482D01*
X015609Y025806D02*
X015609Y025862D01*
X015831Y025862D01*
X015831Y025806D01*
X015609Y025806D01*
X015609Y025860D02*
X015831Y025860D01*
X015928Y025959D02*
X015928Y026181D01*
X015984Y026181D01*
X015984Y025959D01*
X015928Y025959D01*
X015928Y026013D02*
X015984Y026013D01*
X015984Y026067D02*
X015928Y026067D01*
X015928Y026121D02*
X015984Y026121D01*
X015984Y026175D02*
X015928Y026175D01*
X010880Y027716D02*
X010880Y027772D01*
X010880Y027716D02*
X010658Y027716D01*
X010658Y027772D01*
X010880Y027772D01*
X010880Y027770D02*
X010658Y027770D01*
X010880Y027913D02*
X010880Y027969D01*
X010880Y027913D02*
X010658Y027913D01*
X010658Y027969D01*
X010880Y027969D01*
X010880Y027967D02*
X010658Y027967D01*
X010880Y028109D02*
X010880Y028165D01*
X010880Y028109D02*
X010658Y028109D01*
X010658Y028165D01*
X010880Y028165D01*
X010880Y028163D02*
X010658Y028163D01*
X010880Y028306D02*
X010880Y028362D01*
X010880Y028306D02*
X010658Y028306D01*
X010658Y028362D01*
X010880Y028362D01*
X010880Y028360D02*
X010658Y028360D01*
X010880Y028503D02*
X010880Y028559D01*
X010880Y028503D02*
X010658Y028503D01*
X010658Y028559D01*
X010880Y028559D01*
X010880Y028557D02*
X010658Y028557D01*
X010394Y028849D02*
X010338Y028849D01*
X010394Y028849D02*
X010394Y028627D01*
X010338Y028627D01*
X010338Y028849D01*
X010338Y028681D02*
X010394Y028681D01*
X010394Y028735D02*
X010338Y028735D01*
X010338Y028789D02*
X010394Y028789D01*
X010394Y028843D02*
X010338Y028843D01*
X010197Y028849D02*
X010141Y028849D01*
X010197Y028849D02*
X010197Y028627D01*
X010141Y028627D01*
X010141Y028849D01*
X010141Y028681D02*
X010197Y028681D01*
X010197Y028735D02*
X010141Y028735D01*
X010141Y028789D02*
X010197Y028789D01*
X010197Y028843D02*
X010141Y028843D01*
X009654Y028559D02*
X009654Y028503D01*
X009654Y028559D02*
X009876Y028559D01*
X009876Y028503D01*
X009654Y028503D01*
X009654Y028557D02*
X009876Y028557D01*
X009654Y028362D02*
X009654Y028306D01*
X009654Y028362D02*
X009876Y028362D01*
X009876Y028306D01*
X009654Y028306D01*
X009654Y028360D02*
X009876Y028360D01*
X009654Y028165D02*
X009654Y028109D01*
X009654Y028165D02*
X009876Y028165D01*
X009876Y028109D01*
X009654Y028109D01*
X009654Y028163D02*
X009876Y028163D01*
X009654Y027969D02*
X009654Y027913D01*
X009654Y027969D02*
X009876Y027969D01*
X009876Y027913D01*
X009654Y027913D01*
X009654Y027967D02*
X009876Y027967D01*
X009654Y027772D02*
X009654Y027716D01*
X009654Y027772D02*
X009876Y027772D01*
X009876Y027716D01*
X009654Y027716D01*
X009654Y027770D02*
X009876Y027770D01*
X010141Y027426D02*
X010197Y027426D01*
X010141Y027426D02*
X010141Y027648D01*
X010197Y027648D01*
X010197Y027426D01*
X010197Y027480D02*
X010141Y027480D01*
X010141Y027534D02*
X010197Y027534D01*
X010197Y027588D02*
X010141Y027588D01*
X010141Y027642D02*
X010197Y027642D01*
X010338Y027426D02*
X010394Y027426D01*
X010338Y027426D02*
X010338Y027648D01*
X010394Y027648D01*
X010394Y027426D01*
X010394Y027480D02*
X010338Y027480D01*
X010338Y027534D02*
X010394Y027534D01*
X010394Y027588D02*
X010338Y027588D01*
X010338Y027642D02*
X010394Y027642D01*
X009353Y026181D02*
X009353Y025959D01*
X009353Y026181D02*
X009409Y026181D01*
X009409Y025959D01*
X009353Y025959D01*
X009353Y026013D02*
X009409Y026013D01*
X009409Y026067D02*
X009353Y026067D01*
X009353Y026121D02*
X009409Y026121D01*
X009409Y026175D02*
X009353Y026175D01*
X009507Y025862D02*
X009507Y025806D01*
X009507Y025862D02*
X009729Y025862D01*
X009729Y025806D01*
X009507Y025806D01*
X009507Y025860D02*
X009729Y025860D01*
X009507Y024484D02*
X009507Y024428D01*
X009507Y024484D02*
X009729Y024484D01*
X009729Y024428D01*
X009507Y024428D01*
X009507Y024482D02*
X009729Y024482D01*
X009353Y024331D02*
X009353Y024109D01*
X009353Y024331D02*
X009409Y024331D01*
X009409Y024109D01*
X009353Y024109D01*
X009353Y024163D02*
X009409Y024163D01*
X009409Y024217D02*
X009353Y024217D01*
X009353Y024271D02*
X009409Y024271D01*
X009409Y024325D02*
X009353Y024325D01*
X007975Y024331D02*
X007975Y024109D01*
X007975Y024331D02*
X008031Y024331D01*
X008031Y024109D01*
X007975Y024109D01*
X007975Y024163D02*
X008031Y024163D01*
X008031Y024217D02*
X007975Y024217D01*
X007975Y024271D02*
X008031Y024271D01*
X008031Y024325D02*
X007975Y024325D01*
X007656Y024428D02*
X007656Y024484D01*
X007878Y024484D01*
X007878Y024428D01*
X007656Y024428D01*
X007656Y024482D02*
X007878Y024482D01*
X007656Y025806D02*
X007656Y025862D01*
X007878Y025862D01*
X007878Y025806D01*
X007656Y025806D01*
X007656Y025860D02*
X007878Y025860D01*
X007975Y025959D02*
X007975Y026181D01*
X008031Y026181D01*
X008031Y025959D01*
X007975Y025959D01*
X007975Y026013D02*
X008031Y026013D01*
X008031Y026067D02*
X007975Y026067D01*
X007975Y026121D02*
X008031Y026121D01*
X008031Y026175D02*
X007975Y026175D01*
X010141Y016880D02*
X010197Y016880D01*
X010197Y016658D01*
X010141Y016658D01*
X010141Y016880D01*
X010141Y016712D02*
X010197Y016712D01*
X010197Y016766D02*
X010141Y016766D01*
X010141Y016820D02*
X010197Y016820D01*
X010197Y016874D02*
X010141Y016874D01*
X010338Y016880D02*
X010394Y016880D01*
X010394Y016658D01*
X010338Y016658D01*
X010338Y016880D01*
X010338Y016712D02*
X010394Y016712D01*
X010394Y016766D02*
X010338Y016766D01*
X010338Y016820D02*
X010394Y016820D01*
X010394Y016874D02*
X010338Y016874D01*
X010880Y016591D02*
X010880Y016535D01*
X010658Y016535D01*
X010658Y016591D01*
X010880Y016591D01*
X010880Y016589D02*
X010658Y016589D01*
X010880Y016394D02*
X010880Y016338D01*
X010658Y016338D01*
X010658Y016394D01*
X010880Y016394D01*
X010880Y016392D02*
X010658Y016392D01*
X010880Y016197D02*
X010880Y016141D01*
X010658Y016141D01*
X010658Y016197D01*
X010880Y016197D01*
X010880Y016195D02*
X010658Y016195D01*
X010880Y016000D02*
X010880Y015944D01*
X010658Y015944D01*
X010658Y016000D01*
X010880Y016000D01*
X010880Y015998D02*
X010658Y015998D01*
X010880Y015803D02*
X010880Y015747D01*
X010658Y015747D01*
X010658Y015803D01*
X010880Y015803D01*
X010880Y015801D02*
X010658Y015801D01*
X010394Y015458D02*
X010338Y015458D01*
X010338Y015680D01*
X010394Y015680D01*
X010394Y015458D01*
X010394Y015512D02*
X010338Y015512D01*
X010338Y015566D02*
X010394Y015566D01*
X010394Y015620D02*
X010338Y015620D01*
X010338Y015674D02*
X010394Y015674D01*
X010197Y015458D02*
X010141Y015458D01*
X010141Y015680D01*
X010197Y015680D01*
X010197Y015458D01*
X010197Y015512D02*
X010141Y015512D01*
X010141Y015566D02*
X010197Y015566D01*
X010197Y015620D02*
X010141Y015620D01*
X010141Y015674D02*
X010197Y015674D01*
X009654Y015747D02*
X009654Y015803D01*
X009876Y015803D01*
X009876Y015747D01*
X009654Y015747D01*
X009654Y015801D02*
X009876Y015801D01*
X009654Y015944D02*
X009654Y016000D01*
X009876Y016000D01*
X009876Y015944D01*
X009654Y015944D01*
X009654Y015998D02*
X009876Y015998D01*
X009654Y016141D02*
X009654Y016197D01*
X009876Y016197D01*
X009876Y016141D01*
X009654Y016141D01*
X009654Y016195D02*
X009876Y016195D01*
X009654Y016338D02*
X009654Y016394D01*
X009876Y016394D01*
X009876Y016338D01*
X009654Y016338D01*
X009654Y016392D02*
X009876Y016392D01*
X009654Y016535D02*
X009654Y016591D01*
X009876Y016591D01*
X009876Y016535D01*
X009654Y016535D01*
X009654Y016589D02*
X009876Y016589D01*
X009353Y014213D02*
X009353Y013991D01*
X009353Y014213D02*
X009409Y014213D01*
X009409Y013991D01*
X009353Y013991D01*
X009353Y014045D02*
X009409Y014045D01*
X009409Y014099D02*
X009353Y014099D01*
X009353Y014153D02*
X009409Y014153D01*
X009409Y014207D02*
X009353Y014207D01*
X009507Y013894D02*
X009507Y013838D01*
X009507Y013894D02*
X009729Y013894D01*
X009729Y013838D01*
X009507Y013838D01*
X009507Y013892D02*
X009729Y013892D01*
X009507Y012516D02*
X009507Y012460D01*
X009507Y012516D02*
X009729Y012516D01*
X009729Y012460D01*
X009507Y012460D01*
X009507Y012514D02*
X009729Y012514D01*
X009353Y012363D02*
X009353Y012141D01*
X009353Y012363D02*
X009409Y012363D01*
X009409Y012141D01*
X009353Y012141D01*
X009353Y012195D02*
X009409Y012195D01*
X009409Y012249D02*
X009353Y012249D01*
X009353Y012303D02*
X009409Y012303D01*
X009409Y012357D02*
X009353Y012357D01*
X007975Y012363D02*
X007975Y012141D01*
X007975Y012363D02*
X008031Y012363D01*
X008031Y012141D01*
X007975Y012141D01*
X007975Y012195D02*
X008031Y012195D01*
X008031Y012249D02*
X007975Y012249D01*
X007975Y012303D02*
X008031Y012303D01*
X008031Y012357D02*
X007975Y012357D01*
X007656Y012460D02*
X007656Y012516D01*
X007878Y012516D01*
X007878Y012460D01*
X007656Y012460D01*
X007656Y012514D02*
X007878Y012514D01*
X007656Y013838D02*
X007656Y013894D01*
X007878Y013894D01*
X007878Y013838D01*
X007656Y013838D01*
X007656Y013892D02*
X007878Y013892D01*
X007975Y013991D02*
X007975Y014213D01*
X008031Y014213D01*
X008031Y013991D01*
X007975Y013991D01*
X007975Y014045D02*
X008031Y014045D01*
X008031Y014099D02*
X007975Y014099D01*
X007975Y014153D02*
X008031Y014153D01*
X008031Y014207D02*
X007975Y014207D01*
X015609Y013894D02*
X015609Y013838D01*
X015609Y013894D02*
X015831Y013894D01*
X015831Y013838D01*
X015609Y013838D01*
X015609Y013892D02*
X015831Y013892D01*
X015928Y013991D02*
X015928Y014213D01*
X015984Y014213D01*
X015984Y013991D01*
X015928Y013991D01*
X015928Y014045D02*
X015984Y014045D01*
X015984Y014099D02*
X015928Y014099D01*
X015928Y014153D02*
X015984Y014153D01*
X015984Y014207D02*
X015928Y014207D01*
X017306Y014213D02*
X017306Y013991D01*
X017306Y014213D02*
X017362Y014213D01*
X017362Y013991D01*
X017306Y013991D01*
X017306Y014045D02*
X017362Y014045D01*
X017362Y014099D02*
X017306Y014099D01*
X017306Y014153D02*
X017362Y014153D01*
X017362Y014207D02*
X017306Y014207D01*
X017459Y013894D02*
X017459Y013838D01*
X017459Y013894D02*
X017681Y013894D01*
X017681Y013838D01*
X017459Y013838D01*
X017459Y013892D02*
X017681Y013892D01*
X017459Y012516D02*
X017459Y012460D01*
X017459Y012516D02*
X017681Y012516D01*
X017681Y012460D01*
X017459Y012460D01*
X017459Y012514D02*
X017681Y012514D01*
X017306Y012363D02*
X017306Y012141D01*
X017306Y012363D02*
X017362Y012363D01*
X017362Y012141D01*
X017306Y012141D01*
X017306Y012195D02*
X017362Y012195D01*
X017362Y012249D02*
X017306Y012249D01*
X017306Y012303D02*
X017362Y012303D01*
X017362Y012357D02*
X017306Y012357D01*
X015928Y012363D02*
X015928Y012141D01*
X015928Y012363D02*
X015984Y012363D01*
X015984Y012141D01*
X015928Y012141D01*
X015928Y012195D02*
X015984Y012195D01*
X015984Y012249D02*
X015928Y012249D01*
X015928Y012303D02*
X015984Y012303D01*
X015984Y012357D02*
X015928Y012357D01*
X015609Y012460D02*
X015609Y012516D01*
X015831Y012516D01*
X015831Y012460D01*
X015609Y012460D01*
X015609Y012514D02*
X015831Y012514D01*
X017607Y015747D02*
X017607Y015803D01*
X017829Y015803D01*
X017829Y015747D01*
X017607Y015747D01*
X017607Y015801D02*
X017829Y015801D01*
X017607Y015944D02*
X017607Y016000D01*
X017829Y016000D01*
X017829Y015944D01*
X017607Y015944D01*
X017607Y015998D02*
X017829Y015998D01*
X017607Y016141D02*
X017607Y016197D01*
X017829Y016197D01*
X017829Y016141D01*
X017607Y016141D01*
X017607Y016195D02*
X017829Y016195D01*
X017607Y016338D02*
X017607Y016394D01*
X017829Y016394D01*
X017829Y016338D01*
X017607Y016338D01*
X017607Y016392D02*
X017829Y016392D01*
X017607Y016535D02*
X017607Y016591D01*
X017829Y016591D01*
X017829Y016535D01*
X017607Y016535D01*
X017607Y016589D02*
X017829Y016589D01*
X018094Y016880D02*
X018150Y016880D01*
X018150Y016658D01*
X018094Y016658D01*
X018094Y016880D01*
X018094Y016712D02*
X018150Y016712D01*
X018150Y016766D02*
X018094Y016766D01*
X018094Y016820D02*
X018150Y016820D01*
X018150Y016874D02*
X018094Y016874D01*
X018290Y016880D02*
X018346Y016880D01*
X018346Y016658D01*
X018290Y016658D01*
X018290Y016880D01*
X018290Y016712D02*
X018346Y016712D01*
X018346Y016766D02*
X018290Y016766D01*
X018290Y016820D02*
X018346Y016820D01*
X018346Y016874D02*
X018290Y016874D01*
X018833Y016591D02*
X018833Y016535D01*
X018611Y016535D01*
X018611Y016591D01*
X018833Y016591D01*
X018833Y016589D02*
X018611Y016589D01*
X018833Y016394D02*
X018833Y016338D01*
X018611Y016338D01*
X018611Y016394D01*
X018833Y016394D01*
X018833Y016392D02*
X018611Y016392D01*
X018833Y016197D02*
X018833Y016141D01*
X018611Y016141D01*
X018611Y016197D01*
X018833Y016197D01*
X018833Y016195D02*
X018611Y016195D01*
X018833Y016000D02*
X018833Y015944D01*
X018611Y015944D01*
X018611Y016000D01*
X018833Y016000D01*
X018833Y015998D02*
X018611Y015998D01*
X018833Y015803D02*
X018833Y015747D01*
X018611Y015747D01*
X018611Y015803D01*
X018833Y015803D01*
X018833Y015801D02*
X018611Y015801D01*
X018346Y015458D02*
X018290Y015458D01*
X018290Y015680D01*
X018346Y015680D01*
X018346Y015458D01*
X018346Y015512D02*
X018290Y015512D01*
X018290Y015566D02*
X018346Y015566D01*
X018346Y015620D02*
X018290Y015620D01*
X018290Y015674D02*
X018346Y015674D01*
X018150Y015458D02*
X018094Y015458D01*
X018094Y015680D01*
X018150Y015680D01*
X018150Y015458D01*
X018150Y015512D02*
X018094Y015512D01*
X018094Y015566D02*
X018150Y015566D01*
X018150Y015620D02*
X018094Y015620D01*
X018094Y015674D02*
X018150Y015674D01*
X023562Y013894D02*
X023562Y013838D01*
X023562Y013894D02*
X023784Y013894D01*
X023784Y013838D01*
X023562Y013838D01*
X023562Y013892D02*
X023784Y013892D01*
X023881Y013991D02*
X023881Y014213D01*
X023937Y014213D01*
X023937Y013991D01*
X023881Y013991D01*
X023881Y014045D02*
X023937Y014045D01*
X023937Y014099D02*
X023881Y014099D01*
X023881Y014153D02*
X023937Y014153D01*
X023937Y014207D02*
X023881Y014207D01*
X025259Y014213D02*
X025259Y013991D01*
X025259Y014213D02*
X025315Y014213D01*
X025315Y013991D01*
X025259Y013991D01*
X025259Y014045D02*
X025315Y014045D01*
X025315Y014099D02*
X025259Y014099D01*
X025259Y014153D02*
X025315Y014153D01*
X025315Y014207D02*
X025259Y014207D01*
X025412Y013894D02*
X025412Y013838D01*
X025412Y013894D02*
X025634Y013894D01*
X025634Y013838D01*
X025412Y013838D01*
X025412Y013892D02*
X025634Y013892D01*
X025412Y012516D02*
X025412Y012460D01*
X025412Y012516D02*
X025634Y012516D01*
X025634Y012460D01*
X025412Y012460D01*
X025412Y012514D02*
X025634Y012514D01*
X025259Y012363D02*
X025259Y012141D01*
X025259Y012363D02*
X025315Y012363D01*
X025315Y012141D01*
X025259Y012141D01*
X025259Y012195D02*
X025315Y012195D01*
X025315Y012249D02*
X025259Y012249D01*
X025259Y012303D02*
X025315Y012303D01*
X025315Y012357D02*
X025259Y012357D01*
X023881Y012363D02*
X023881Y012141D01*
X023881Y012363D02*
X023937Y012363D01*
X023937Y012141D01*
X023881Y012141D01*
X023881Y012195D02*
X023937Y012195D01*
X023937Y012249D02*
X023881Y012249D01*
X023881Y012303D02*
X023937Y012303D01*
X023937Y012357D02*
X023881Y012357D01*
X023562Y012460D02*
X023562Y012516D01*
X023784Y012516D01*
X023784Y012460D01*
X023562Y012460D01*
X023562Y012514D02*
X023784Y012514D01*
X025560Y015747D02*
X025560Y015803D01*
X025782Y015803D01*
X025782Y015747D01*
X025560Y015747D01*
X025560Y015801D02*
X025782Y015801D01*
X025560Y015944D02*
X025560Y016000D01*
X025782Y016000D01*
X025782Y015944D01*
X025560Y015944D01*
X025560Y015998D02*
X025782Y015998D01*
X025560Y016141D02*
X025560Y016197D01*
X025782Y016197D01*
X025782Y016141D01*
X025560Y016141D01*
X025560Y016195D02*
X025782Y016195D01*
X025560Y016338D02*
X025560Y016394D01*
X025782Y016394D01*
X025782Y016338D01*
X025560Y016338D01*
X025560Y016392D02*
X025782Y016392D01*
X025560Y016535D02*
X025560Y016591D01*
X025782Y016591D01*
X025782Y016535D01*
X025560Y016535D01*
X025560Y016589D02*
X025782Y016589D01*
X026046Y016880D02*
X026102Y016880D01*
X026102Y016658D01*
X026046Y016658D01*
X026046Y016880D01*
X026046Y016712D02*
X026102Y016712D01*
X026102Y016766D02*
X026046Y016766D01*
X026046Y016820D02*
X026102Y016820D01*
X026102Y016874D02*
X026046Y016874D01*
X026243Y016880D02*
X026299Y016880D01*
X026299Y016658D01*
X026243Y016658D01*
X026243Y016880D01*
X026243Y016712D02*
X026299Y016712D01*
X026299Y016766D02*
X026243Y016766D01*
X026243Y016820D02*
X026299Y016820D01*
X026299Y016874D02*
X026243Y016874D01*
X026786Y016591D02*
X026786Y016535D01*
X026564Y016535D01*
X026564Y016591D01*
X026786Y016591D01*
X026786Y016589D02*
X026564Y016589D01*
X026786Y016394D02*
X026786Y016338D01*
X026564Y016338D01*
X026564Y016394D01*
X026786Y016394D01*
X026786Y016392D02*
X026564Y016392D01*
X026786Y016197D02*
X026786Y016141D01*
X026564Y016141D01*
X026564Y016197D01*
X026786Y016197D01*
X026786Y016195D02*
X026564Y016195D01*
X026786Y016000D02*
X026786Y015944D01*
X026564Y015944D01*
X026564Y016000D01*
X026786Y016000D01*
X026786Y015998D02*
X026564Y015998D01*
X026786Y015803D02*
X026786Y015747D01*
X026564Y015747D01*
X026564Y015803D01*
X026786Y015803D01*
X026786Y015801D02*
X026564Y015801D01*
X026299Y015458D02*
X026243Y015458D01*
X026243Y015680D01*
X026299Y015680D01*
X026299Y015458D01*
X026299Y015512D02*
X026243Y015512D01*
X026243Y015566D02*
X026299Y015566D01*
X026299Y015620D02*
X026243Y015620D01*
X026243Y015674D02*
X026299Y015674D01*
X026102Y015458D02*
X026046Y015458D01*
X026046Y015680D01*
X026102Y015680D01*
X026102Y015458D01*
X026102Y015512D02*
X026046Y015512D01*
X026046Y015566D02*
X026102Y015566D01*
X026102Y015620D02*
X026046Y015620D01*
X026046Y015674D02*
X026102Y015674D01*
X031515Y013894D02*
X031515Y013838D01*
X031515Y013894D02*
X031737Y013894D01*
X031737Y013838D01*
X031515Y013838D01*
X031515Y013892D02*
X031737Y013892D01*
X031834Y013991D02*
X031834Y014213D01*
X031890Y014213D01*
X031890Y013991D01*
X031834Y013991D01*
X031834Y014045D02*
X031890Y014045D01*
X031890Y014099D02*
X031834Y014099D01*
X031834Y014153D02*
X031890Y014153D01*
X031890Y014207D02*
X031834Y014207D01*
X033212Y014213D02*
X033212Y013991D01*
X033212Y014213D02*
X033268Y014213D01*
X033268Y013991D01*
X033212Y013991D01*
X033212Y014045D02*
X033268Y014045D01*
X033268Y014099D02*
X033212Y014099D01*
X033212Y014153D02*
X033268Y014153D01*
X033268Y014207D02*
X033212Y014207D01*
X033365Y013894D02*
X033365Y013838D01*
X033365Y013894D02*
X033587Y013894D01*
X033587Y013838D01*
X033365Y013838D01*
X033365Y013892D02*
X033587Y013892D01*
X033365Y012516D02*
X033365Y012460D01*
X033365Y012516D02*
X033587Y012516D01*
X033587Y012460D01*
X033365Y012460D01*
X033365Y012514D02*
X033587Y012514D01*
X033212Y012363D02*
X033212Y012141D01*
X033212Y012363D02*
X033268Y012363D01*
X033268Y012141D01*
X033212Y012141D01*
X033212Y012195D02*
X033268Y012195D01*
X033268Y012249D02*
X033212Y012249D01*
X033212Y012303D02*
X033268Y012303D01*
X033268Y012357D02*
X033212Y012357D01*
X031834Y012363D02*
X031834Y012141D01*
X031834Y012363D02*
X031890Y012363D01*
X031890Y012141D01*
X031834Y012141D01*
X031834Y012195D02*
X031890Y012195D01*
X031890Y012249D02*
X031834Y012249D01*
X031834Y012303D02*
X031890Y012303D01*
X031890Y012357D02*
X031834Y012357D01*
X031515Y012460D02*
X031515Y012516D01*
X031737Y012516D01*
X031737Y012460D01*
X031515Y012460D01*
X031515Y012514D02*
X031737Y012514D01*
X033513Y015747D02*
X033513Y015803D01*
X033735Y015803D01*
X033735Y015747D01*
X033513Y015747D01*
X033513Y015801D02*
X033735Y015801D01*
X033513Y015944D02*
X033513Y016000D01*
X033735Y016000D01*
X033735Y015944D01*
X033513Y015944D01*
X033513Y015998D02*
X033735Y015998D01*
X033513Y016141D02*
X033513Y016197D01*
X033735Y016197D01*
X033735Y016141D01*
X033513Y016141D01*
X033513Y016195D02*
X033735Y016195D01*
X033513Y016338D02*
X033513Y016394D01*
X033735Y016394D01*
X033735Y016338D01*
X033513Y016338D01*
X033513Y016392D02*
X033735Y016392D01*
X033513Y016535D02*
X033513Y016591D01*
X033735Y016591D01*
X033735Y016535D01*
X033513Y016535D01*
X033513Y016589D02*
X033735Y016589D01*
X033999Y016880D02*
X034055Y016880D01*
X034055Y016658D01*
X033999Y016658D01*
X033999Y016880D01*
X033999Y016712D02*
X034055Y016712D01*
X034055Y016766D02*
X033999Y016766D01*
X033999Y016820D02*
X034055Y016820D01*
X034055Y016874D02*
X033999Y016874D01*
X034196Y016880D02*
X034252Y016880D01*
X034252Y016658D01*
X034196Y016658D01*
X034196Y016880D01*
X034196Y016712D02*
X034252Y016712D01*
X034252Y016766D02*
X034196Y016766D01*
X034196Y016820D02*
X034252Y016820D01*
X034252Y016874D02*
X034196Y016874D01*
X034739Y016591D02*
X034739Y016535D01*
X034517Y016535D01*
X034517Y016591D01*
X034739Y016591D01*
X034739Y016589D02*
X034517Y016589D01*
X034739Y016394D02*
X034739Y016338D01*
X034517Y016338D01*
X034517Y016394D01*
X034739Y016394D01*
X034739Y016392D02*
X034517Y016392D01*
X034739Y016197D02*
X034739Y016141D01*
X034517Y016141D01*
X034517Y016197D01*
X034739Y016197D01*
X034739Y016195D02*
X034517Y016195D01*
X034739Y016000D02*
X034739Y015944D01*
X034517Y015944D01*
X034517Y016000D01*
X034739Y016000D01*
X034739Y015998D02*
X034517Y015998D01*
X034739Y015803D02*
X034739Y015747D01*
X034517Y015747D01*
X034517Y015803D01*
X034739Y015803D01*
X034739Y015801D02*
X034517Y015801D01*
X034252Y015458D02*
X034196Y015458D01*
X034196Y015680D01*
X034252Y015680D01*
X034252Y015458D01*
X034252Y015512D02*
X034196Y015512D01*
X034196Y015566D02*
X034252Y015566D01*
X034252Y015620D02*
X034196Y015620D01*
X034196Y015674D02*
X034252Y015674D01*
X034055Y015458D02*
X033999Y015458D01*
X033999Y015680D01*
X034055Y015680D01*
X034055Y015458D01*
X034055Y015512D02*
X033999Y015512D01*
X033999Y015566D02*
X034055Y015566D01*
X034055Y015620D02*
X033999Y015620D01*
X033999Y015674D02*
X034055Y015674D01*
D12*
X033043Y014102D03*
X032846Y014102D03*
X032649Y014102D03*
X032452Y014102D03*
X032255Y014102D03*
X032059Y014102D03*
X032059Y012252D03*
X032255Y012252D03*
X032452Y012252D03*
X032649Y012252D03*
X032846Y012252D03*
X033043Y012252D03*
X025090Y012252D03*
X024893Y012252D03*
X024696Y012252D03*
X024500Y012252D03*
X024303Y012252D03*
X024106Y012252D03*
X024106Y014102D03*
X024303Y014102D03*
X024500Y014102D03*
X024696Y014102D03*
X024893Y014102D03*
X025090Y014102D03*
X017137Y014102D03*
X016941Y014102D03*
X016744Y014102D03*
X016547Y014102D03*
X016350Y014102D03*
X016153Y014102D03*
X016153Y012252D03*
X016350Y012252D03*
X016547Y012252D03*
X016744Y012252D03*
X016941Y012252D03*
X017137Y012252D03*
X009185Y012252D03*
X008988Y012252D03*
X008791Y012252D03*
X008594Y012252D03*
X008397Y012252D03*
X008200Y012252D03*
X008200Y014102D03*
X008397Y014102D03*
X008594Y014102D03*
X008791Y014102D03*
X008988Y014102D03*
X009185Y014102D03*
X009185Y024220D03*
X008988Y024220D03*
X008791Y024220D03*
X008594Y024220D03*
X008397Y024220D03*
X008200Y024220D03*
X008200Y026070D03*
X008397Y026070D03*
X008594Y026070D03*
X008791Y026070D03*
X008988Y026070D03*
X009185Y026070D03*
X016153Y026070D03*
X016350Y026070D03*
X016547Y026070D03*
X016744Y026070D03*
X016941Y026070D03*
X017137Y026070D03*
X017137Y024220D03*
X016941Y024220D03*
X016744Y024220D03*
X016547Y024220D03*
X016350Y024220D03*
X016153Y024220D03*
X024106Y024220D03*
X024303Y024220D03*
X024500Y024220D03*
X024696Y024220D03*
X024893Y024220D03*
X025090Y024220D03*
X025090Y026070D03*
X024893Y026070D03*
X024696Y026070D03*
X024500Y026070D03*
X024303Y026070D03*
X024106Y026070D03*
X032059Y026070D03*
X032255Y026070D03*
X032452Y026070D03*
X032649Y026070D03*
X032846Y026070D03*
X033043Y026070D03*
X033043Y024220D03*
X032846Y024220D03*
X032649Y024220D03*
X032452Y024220D03*
X032255Y024220D03*
X032059Y024220D03*
D13*
X031626Y024653D03*
X031626Y024850D03*
X031626Y025047D03*
X031626Y025244D03*
X031626Y025441D03*
X031626Y025637D03*
X033476Y025637D03*
X033476Y025441D03*
X033476Y025244D03*
X033476Y025047D03*
X033476Y024850D03*
X033476Y024653D03*
X025523Y024653D03*
X025523Y024850D03*
X025523Y025047D03*
X025523Y025244D03*
X025523Y025441D03*
X025523Y025637D03*
X023673Y025637D03*
X023673Y025441D03*
X023673Y025244D03*
X023673Y025047D03*
X023673Y024850D03*
X023673Y024653D03*
X017570Y024653D03*
X017570Y024850D03*
X017570Y025047D03*
X017570Y025244D03*
X017570Y025441D03*
X017570Y025637D03*
X015720Y025637D03*
X015720Y025441D03*
X015720Y025244D03*
X015720Y025047D03*
X015720Y024850D03*
X015720Y024653D03*
X009618Y024653D03*
X009618Y024850D03*
X009618Y025047D03*
X009618Y025244D03*
X009618Y025441D03*
X009618Y025637D03*
X007767Y025637D03*
X007767Y025441D03*
X007767Y025244D03*
X007767Y025047D03*
X007767Y024850D03*
X007767Y024653D03*
X007767Y013669D03*
X007767Y013472D03*
X007767Y013275D03*
X007767Y013078D03*
X007767Y012881D03*
X007767Y012685D03*
X009618Y012685D03*
X009618Y012881D03*
X009618Y013078D03*
X009618Y013275D03*
X009618Y013472D03*
X009618Y013669D03*
X015720Y013669D03*
X015720Y013472D03*
X015720Y013275D03*
X015720Y013078D03*
X015720Y012881D03*
X015720Y012685D03*
X017570Y012685D03*
X017570Y012881D03*
X017570Y013078D03*
X017570Y013275D03*
X017570Y013472D03*
X017570Y013669D03*
X023673Y013669D03*
X023673Y013472D03*
X023673Y013275D03*
X023673Y013078D03*
X023673Y012881D03*
X023673Y012685D03*
X025523Y012685D03*
X025523Y012881D03*
X025523Y013078D03*
X025523Y013275D03*
X025523Y013472D03*
X025523Y013669D03*
X031626Y013669D03*
X031626Y013472D03*
X031626Y013275D03*
X031626Y013078D03*
X031626Y012881D03*
X031626Y012685D03*
X033476Y012685D03*
X033476Y012881D03*
X033476Y013078D03*
X033476Y013275D03*
X033476Y013472D03*
X033476Y013669D03*
D14*
X032551Y013177D03*
X024598Y013177D03*
X016645Y013177D03*
X008692Y013177D03*
X008692Y025145D03*
X016645Y025145D03*
X024598Y025145D03*
X032551Y025145D03*
D15*
X031429Y028413D03*
X030681Y028413D03*
X030681Y029437D03*
X031055Y029437D03*
X031429Y029437D03*
X023476Y029437D03*
X023102Y029437D03*
X022728Y029437D03*
X022728Y028413D03*
X023476Y028413D03*
X015523Y028413D03*
X014775Y028413D03*
X014775Y029437D03*
X015149Y029437D03*
X015523Y029437D03*
X007570Y029437D03*
X007196Y029437D03*
X006822Y029437D03*
X006822Y028413D03*
X007570Y028413D03*
X007570Y017468D03*
X007196Y017468D03*
X006822Y017468D03*
X006822Y016444D03*
X007570Y016444D03*
X014775Y016444D03*
X015523Y016444D03*
X015523Y017468D03*
X015149Y017468D03*
X014775Y017468D03*
X022728Y017468D03*
X023102Y017468D03*
X023476Y017468D03*
X023476Y016444D03*
X022728Y016444D03*
X030681Y016444D03*
X031429Y016444D03*
X031429Y017468D03*
X031055Y017468D03*
X030681Y017468D03*
D16*
X030189Y017133D03*
X030189Y016622D03*
X034086Y017133D03*
X034086Y017645D03*
X033023Y022842D03*
X033023Y023354D03*
X032393Y023315D03*
X032393Y022803D03*
X030189Y028590D03*
X030189Y029102D03*
X034086Y029102D03*
X034086Y029614D03*
X026133Y029614D03*
X026133Y029102D03*
X022236Y029102D03*
X022236Y028590D03*
X018181Y029102D03*
X018181Y029614D03*
X014283Y029102D03*
X014283Y028590D03*
X010228Y029102D03*
X010228Y029614D03*
X006330Y029102D03*
X006330Y028590D03*
X008535Y023315D03*
X008535Y022803D03*
X009165Y022842D03*
X009165Y023354D03*
X010228Y017645D03*
X010228Y017133D03*
X006330Y017133D03*
X006330Y016622D03*
X008535Y011346D03*
X008535Y010834D03*
X009165Y010874D03*
X009165Y011385D03*
X014283Y016622D03*
X014283Y017133D03*
X018181Y017133D03*
X018181Y017645D03*
X022236Y017133D03*
X022236Y016622D03*
X026133Y017133D03*
X026133Y017645D03*
X025070Y022842D03*
X025070Y023354D03*
X024441Y023315D03*
X024441Y022803D03*
X017118Y022842D03*
X017118Y023354D03*
X016488Y023315D03*
X016488Y022803D03*
X017118Y011385D03*
X017118Y010874D03*
X016488Y010834D03*
X016488Y011346D03*
X024441Y011346D03*
X024441Y010834D03*
X025070Y010874D03*
X025070Y011385D03*
X032393Y011346D03*
X032393Y010834D03*
X033023Y010874D03*
X033023Y011385D03*
D17*
X030444Y011720D03*
X029933Y011720D03*
X029933Y010696D03*
X030444Y010696D03*
X030444Y009712D03*
X029933Y009712D03*
X029933Y009082D03*
X030444Y009082D03*
X030444Y012744D03*
X029933Y012744D03*
X029736Y013570D03*
X030248Y013570D03*
X030405Y014122D03*
X029893Y014122D03*
X029893Y014752D03*
X030405Y014752D03*
X030563Y015421D03*
X031074Y015421D03*
X031507Y015933D03*
X032019Y015933D03*
X033043Y014830D03*
X033555Y014830D03*
X030444Y021051D03*
X029933Y021051D03*
X029933Y021681D03*
X030444Y021681D03*
X030444Y022665D03*
X029933Y022665D03*
X029933Y023689D03*
X030444Y023689D03*
X030444Y024712D03*
X029933Y024712D03*
X029736Y025539D03*
X030248Y025539D03*
X030405Y026090D03*
X029893Y026090D03*
X029893Y026720D03*
X030405Y026720D03*
X030563Y027389D03*
X031074Y027389D03*
X031507Y027901D03*
X032019Y027901D03*
X033043Y026799D03*
X033555Y026799D03*
X025602Y026799D03*
X025090Y026799D03*
X024066Y027901D03*
X023555Y027901D03*
X023122Y027389D03*
X022610Y027389D03*
X022452Y026720D03*
X021941Y026720D03*
X021941Y026090D03*
X022452Y026090D03*
X022295Y025539D03*
X021783Y025539D03*
X021980Y024712D03*
X022492Y024712D03*
X022492Y023689D03*
X021980Y023689D03*
X021980Y022665D03*
X022492Y022665D03*
X022492Y021681D03*
X021980Y021681D03*
X021980Y021051D03*
X022492Y021051D03*
X023555Y015933D03*
X024066Y015933D03*
X023122Y015421D03*
X022610Y015421D03*
X022452Y014752D03*
X021941Y014752D03*
X021941Y014122D03*
X022452Y014122D03*
X022295Y013570D03*
X021783Y013570D03*
X021980Y012744D03*
X022492Y012744D03*
X022492Y011720D03*
X021980Y011720D03*
X021980Y010696D03*
X022492Y010696D03*
X022492Y009712D03*
X022492Y009082D03*
X021980Y009082D03*
X021980Y009712D03*
X025090Y014830D03*
X025602Y014830D03*
X017649Y014830D03*
X017137Y014830D03*
X016114Y015933D03*
X015602Y015933D03*
X015169Y015421D03*
X014657Y015421D03*
X014500Y014752D03*
X014500Y014122D03*
X013988Y014122D03*
X013988Y014752D03*
X013830Y013570D03*
X014342Y013570D03*
X014539Y012744D03*
X014027Y012744D03*
X014027Y011720D03*
X014539Y011720D03*
X014539Y010696D03*
X014027Y010696D03*
X014027Y009712D03*
X014027Y009082D03*
X014539Y009082D03*
X014539Y009712D03*
X009696Y014830D03*
X009185Y014830D03*
X008161Y015933D03*
X007649Y015933D03*
X007216Y015421D03*
X006704Y015421D03*
X006547Y014752D03*
X006547Y014122D03*
X006035Y014122D03*
X006035Y014752D03*
X005878Y013570D03*
X006389Y013570D03*
X006586Y012744D03*
X006074Y012744D03*
X006074Y011720D03*
X006586Y011720D03*
X006586Y010696D03*
X006074Y010696D03*
X006074Y009712D03*
X006074Y009082D03*
X006586Y009082D03*
X006586Y009712D03*
X006586Y021051D03*
X006074Y021051D03*
X006074Y021681D03*
X006586Y021681D03*
X006586Y022665D03*
X006074Y022665D03*
X006074Y023689D03*
X006586Y023689D03*
X006586Y024712D03*
X006074Y024712D03*
X005878Y025539D03*
X006389Y025539D03*
X006547Y026090D03*
X006035Y026090D03*
X006035Y026720D03*
X006547Y026720D03*
X006704Y027389D03*
X007216Y027389D03*
X007649Y027901D03*
X008161Y027901D03*
X009185Y026799D03*
X009696Y026799D03*
X013988Y026720D03*
X014500Y026720D03*
X014657Y027389D03*
X015169Y027389D03*
X015602Y027901D03*
X016114Y027901D03*
X017137Y026799D03*
X017649Y026799D03*
X014500Y026090D03*
X013988Y026090D03*
X013830Y025539D03*
X014342Y025539D03*
X014539Y024712D03*
X014027Y024712D03*
X014027Y023689D03*
X014539Y023689D03*
X014539Y022665D03*
X014027Y022665D03*
X014027Y021681D03*
X014539Y021681D03*
X014539Y021051D03*
X014027Y021051D03*
D18*
X016133Y017488D03*
X016133Y016819D03*
X008181Y016819D03*
X008181Y017488D03*
X008181Y028787D03*
X008181Y029456D03*
X016133Y029456D03*
X016133Y028787D03*
X024086Y028787D03*
X024086Y029456D03*
X032039Y029456D03*
X032039Y028787D03*
X032039Y017488D03*
X032039Y016819D03*
X024086Y016819D03*
X024086Y017488D03*
D19*
X024086Y017901D03*
X023968Y016366D03*
X023220Y015933D03*
X023496Y014673D03*
X023889Y014673D03*
X031173Y015933D03*
X031921Y016366D03*
X032039Y017901D03*
X031842Y014673D03*
X031448Y014673D03*
X031448Y026641D03*
X031842Y026641D03*
X031173Y027901D03*
X031921Y028334D03*
X032039Y029870D03*
X024086Y029870D03*
X023968Y028334D03*
X023220Y027901D03*
X023496Y026641D03*
X023889Y026641D03*
X016015Y028334D03*
X015267Y027901D03*
X015543Y026641D03*
X015937Y026641D03*
X016133Y029870D03*
X008181Y029870D03*
X008063Y028334D03*
X007315Y027901D03*
X007590Y026641D03*
X007984Y026641D03*
X008181Y017901D03*
X008063Y016366D03*
X007315Y015933D03*
X007590Y014673D03*
X007984Y014673D03*
X015267Y015933D03*
X016015Y016366D03*
X016133Y017901D03*
X015937Y014673D03*
X015543Y014673D03*
D20*
X018220Y016169D03*
X010267Y016169D03*
X010267Y028137D03*
X018220Y028137D03*
X026173Y028137D03*
X034126Y028137D03*
X034126Y016169D03*
X026173Y016169D03*
D21*
X025346Y016051D03*
X025346Y016405D03*
X024480Y016208D03*
X024480Y015933D03*
X024480Y015657D03*
X024480Y015145D03*
X025189Y014437D03*
X025622Y014515D03*
X026370Y014319D03*
X026370Y014712D03*
X027118Y014830D03*
X027118Y014437D03*
X026803Y015500D03*
X027118Y015578D03*
X026763Y016878D03*
X026488Y017114D03*
X026173Y017862D03*
X023732Y016917D03*
X023102Y017074D03*
X022551Y017035D03*
X023220Y015933D03*
X022236Y015618D03*
X021685Y014752D03*
X021685Y014122D03*
X022000Y012389D03*
X022000Y011405D03*
X022000Y010381D03*
X022000Y009397D03*
X023850Y010185D03*
X024441Y010618D03*
X024755Y010775D03*
X025070Y010618D03*
X025385Y011444D03*
X026370Y011720D03*
X026645Y012232D03*
X027118Y013492D03*
X024992Y013570D03*
X024598Y013177D03*
X024204Y013570D03*
X024204Y012783D03*
X024992Y012783D03*
X024086Y011523D03*
X023456Y011956D03*
X019165Y013492D03*
X018417Y014319D03*
X018417Y014712D03*
X019165Y014830D03*
X019165Y014437D03*
X018850Y015500D03*
X019165Y015578D03*
X018811Y016878D03*
X018535Y017114D03*
X018220Y017862D03*
X017393Y016405D03*
X017393Y016051D03*
X016527Y015933D03*
X016527Y016208D03*
X016527Y015657D03*
X016527Y015145D03*
X017236Y014437D03*
X017669Y014515D03*
X017039Y013570D03*
X016645Y013177D03*
X016252Y013570D03*
X016252Y012783D03*
X017039Y012783D03*
X017433Y011444D03*
X017118Y010618D03*
X016803Y010775D03*
X016488Y010618D03*
X015897Y010185D03*
X016133Y011523D03*
X015503Y011956D03*
X014047Y012389D03*
X014047Y011405D03*
X014047Y010381D03*
X014047Y009397D03*
X010740Y012232D03*
X010464Y011720D03*
X009480Y011444D03*
X009165Y010618D03*
X008850Y010775D03*
X008535Y010618D03*
X007944Y010185D03*
X008181Y011523D03*
X007551Y011956D03*
X008299Y012783D03*
X008692Y013177D03*
X008299Y013570D03*
X009086Y013570D03*
X009086Y012783D03*
X010464Y014319D03*
X010464Y014712D03*
X011212Y014830D03*
X011212Y014437D03*
X010897Y015500D03*
X011212Y015578D03*
X010858Y016878D03*
X010582Y017114D03*
X010267Y017862D03*
X009441Y016405D03*
X009441Y016051D03*
X008574Y015933D03*
X008574Y016208D03*
X008574Y015657D03*
X008574Y015145D03*
X009283Y014437D03*
X009716Y014515D03*
X011212Y013492D03*
X013732Y014122D03*
X013732Y014752D03*
X014283Y015618D03*
X015267Y015933D03*
X015779Y016917D03*
X015149Y017074D03*
X014598Y017035D03*
X014047Y021366D03*
X014047Y022350D03*
X014047Y023374D03*
X014047Y024358D03*
X015503Y023925D03*
X016133Y023492D03*
X016803Y022744D03*
X017118Y022586D03*
X016488Y022586D03*
X015897Y022153D03*
X017433Y023413D03*
X018417Y023689D03*
X018692Y024200D03*
X019165Y025460D03*
X018417Y026287D03*
X018417Y026681D03*
X019165Y026799D03*
X019165Y026405D03*
X018850Y027468D03*
X019165Y027547D03*
X018811Y028846D03*
X018535Y029082D03*
X018220Y029830D03*
X017393Y028374D03*
X017393Y028019D03*
X016527Y027901D03*
X016527Y027626D03*
X016527Y027114D03*
X017236Y026405D03*
X017669Y026484D03*
X017039Y025539D03*
X016645Y025145D03*
X016252Y024752D03*
X017039Y024752D03*
X016252Y025539D03*
X013732Y026090D03*
X013732Y026720D03*
X014283Y027586D03*
X015267Y027901D03*
X015779Y028885D03*
X015149Y029043D03*
X014598Y029004D03*
X016527Y028177D03*
X021685Y026720D03*
X021685Y026090D03*
X022236Y027586D03*
X023220Y027901D03*
X023732Y028885D03*
X023102Y029043D03*
X022551Y029004D03*
X024480Y028177D03*
X024480Y027901D03*
X024480Y027626D03*
X024480Y027114D03*
X025189Y026405D03*
X025622Y026484D03*
X026370Y026681D03*
X026370Y026287D03*
X027118Y026405D03*
X027118Y026799D03*
X026803Y027468D03*
X027118Y027547D03*
X026763Y028846D03*
X026488Y029082D03*
X026173Y029830D03*
X025346Y028374D03*
X025346Y028019D03*
X024992Y025539D03*
X024598Y025145D03*
X024992Y024752D03*
X024204Y024752D03*
X024204Y025539D03*
X023456Y023925D03*
X024086Y023492D03*
X024755Y022744D03*
X024441Y022586D03*
X025070Y022586D03*
X025385Y023413D03*
X026370Y023689D03*
X026645Y024200D03*
X027118Y025460D03*
X029637Y026090D03*
X029637Y026720D03*
X030189Y027586D03*
X031173Y027901D03*
X031685Y028885D03*
X031055Y029043D03*
X030503Y029004D03*
X032433Y028177D03*
X032433Y027901D03*
X032433Y027626D03*
X032433Y027114D03*
X033141Y026405D03*
X033574Y026484D03*
X034322Y026681D03*
X034322Y026287D03*
X035070Y026405D03*
X035070Y026799D03*
X034755Y027468D03*
X035070Y027547D03*
X034716Y028846D03*
X034441Y029082D03*
X034126Y029830D03*
X033299Y028374D03*
X033299Y028019D03*
X032944Y025539D03*
X032551Y025145D03*
X032944Y024752D03*
X032157Y024752D03*
X032157Y025539D03*
X031409Y023925D03*
X032039Y023492D03*
X032708Y022744D03*
X032393Y022586D03*
X031803Y022153D03*
X033023Y022586D03*
X033338Y023413D03*
X034322Y023689D03*
X034598Y024200D03*
X035070Y025460D03*
X029952Y024358D03*
X029952Y023374D03*
X029952Y022350D03*
X029952Y021366D03*
X034126Y017862D03*
X034441Y017114D03*
X034716Y016878D03*
X035070Y015578D03*
X034755Y015500D03*
X035070Y014830D03*
X035070Y014437D03*
X034322Y014319D03*
X034322Y014712D03*
X033574Y014515D03*
X033141Y014437D03*
X032433Y015145D03*
X032433Y015657D03*
X032433Y015933D03*
X032433Y016208D03*
X033299Y016051D03*
X033299Y016405D03*
X031685Y016917D03*
X031055Y017074D03*
X030503Y017035D03*
X031173Y015933D03*
X030189Y015618D03*
X029637Y014752D03*
X029637Y014122D03*
X029952Y012389D03*
X029952Y011405D03*
X029952Y010381D03*
X029952Y009397D03*
X031803Y010185D03*
X032393Y010618D03*
X032708Y010775D03*
X033023Y010618D03*
X033338Y011444D03*
X034322Y011720D03*
X034598Y012232D03*
X035070Y013492D03*
X032944Y013570D03*
X032551Y013177D03*
X032944Y012783D03*
X032157Y012783D03*
X032157Y013570D03*
X031409Y011956D03*
X032039Y011523D03*
X022000Y021366D03*
X022000Y022350D03*
X022000Y023374D03*
X022000Y024358D03*
X023850Y022153D03*
X018692Y012232D03*
X018417Y011720D03*
X007826Y016917D03*
X007196Y017074D03*
X006645Y017035D03*
X007315Y015933D03*
X006330Y015618D03*
X005779Y014752D03*
X005779Y014122D03*
X006094Y012389D03*
X006094Y011405D03*
X006094Y010381D03*
X006094Y009397D03*
X006094Y021366D03*
X006094Y022350D03*
X006094Y023374D03*
X006094Y024358D03*
X007551Y023925D03*
X008181Y023492D03*
X008850Y022744D03*
X009165Y022586D03*
X008535Y022586D03*
X007944Y022153D03*
X009480Y023413D03*
X010464Y023689D03*
X010740Y024200D03*
X011212Y025460D03*
X010464Y026287D03*
X010464Y026681D03*
X011212Y026799D03*
X011212Y026405D03*
X010897Y027468D03*
X011212Y027547D03*
X010858Y028846D03*
X010582Y029082D03*
X010267Y029830D03*
X009441Y028374D03*
X009441Y028019D03*
X008574Y027901D03*
X008574Y027626D03*
X008574Y027114D03*
X009283Y026405D03*
X009716Y026484D03*
X009086Y025539D03*
X008692Y025145D03*
X008299Y024752D03*
X008299Y025539D03*
X009086Y024752D03*
X005779Y026090D03*
X005779Y026720D03*
X006330Y027586D03*
X007315Y027901D03*
X007826Y028885D03*
X007196Y029043D03*
X006645Y029004D03*
X008574Y028177D03*
D22*
X010425Y028413D02*
X010543Y028531D01*
X008692Y025145D02*
X008594Y025047D01*
X008594Y024220D01*
X016547Y024220D02*
X016547Y025047D01*
X016645Y025145D01*
X018378Y028413D02*
X018496Y028531D01*
X024500Y025047D02*
X024500Y024220D01*
X024500Y025047D02*
X024598Y025145D01*
X026330Y028413D02*
X026448Y028531D01*
X032452Y025047D02*
X032452Y024220D01*
X032452Y025047D02*
X032551Y025145D01*
X034283Y028413D02*
X034401Y028531D01*
X034401Y016563D02*
X034283Y016444D01*
X032551Y013177D02*
X032452Y013078D01*
X032452Y012252D01*
X026448Y016563D02*
X026330Y016444D01*
X024598Y013177D02*
X024500Y013078D01*
X024500Y012252D01*
X018496Y016563D02*
X018378Y016444D01*
X016645Y013177D02*
X016547Y013078D01*
X016547Y012252D01*
X010543Y016563D02*
X010425Y016444D01*
X008692Y013177D02*
X008594Y013078D01*
X008594Y012252D01*
D23*
X008594Y011819D01*
X008850Y011563D01*
X008850Y010775D01*
X008456Y010737D02*
X009244Y010737D01*
X009244Y010834D02*
X008456Y010834D01*
X008456Y010931D02*
X009244Y010931D01*
X009244Y010933D02*
X009244Y010539D01*
X008456Y010539D01*
X008456Y010933D01*
X009244Y010933D01*
X009244Y010640D02*
X008456Y010640D01*
X008456Y010543D02*
X009244Y010543D01*
X009165Y011385D02*
X009047Y011504D01*
X009047Y011641D01*
X008791Y011897D01*
X008791Y012252D01*
X008988Y012252D02*
X008988Y011976D01*
X009204Y011759D01*
X009992Y011759D01*
X011015Y010736D01*
X012157Y010736D01*
X012192Y010700D01*
X011192Y011200D02*
X010984Y011200D01*
X010464Y011720D01*
X010622Y011956D02*
X010976Y011956D01*
X011212Y011720D01*
X012173Y011720D01*
X012192Y011700D01*
X011783Y012488D02*
X011996Y012700D01*
X012192Y012700D01*
X011783Y012488D02*
X009618Y012488D01*
X009618Y012685D02*
X011035Y012685D01*
X012051Y013700D01*
X012192Y013700D01*
X011881Y014200D02*
X011488Y013807D01*
X011488Y013413D01*
X010956Y012881D01*
X009618Y012881D01*
X009618Y013078D02*
X010799Y013078D01*
X011212Y013492D01*
X011291Y013964D02*
X011370Y013964D01*
X011685Y014279D01*
X011685Y015893D01*
X011842Y016051D01*
X011842Y016350D01*
X012192Y016700D01*
X011645Y017232D02*
X011645Y016130D01*
X011488Y015972D01*
X011488Y014358D01*
X011291Y014161D01*
X011212Y014161D01*
X010523Y013472D01*
X009618Y013472D01*
X009618Y013275D02*
X010602Y013275D01*
X011291Y013964D01*
X011212Y014437D02*
X010444Y013669D01*
X009618Y013669D01*
X009618Y013866D02*
X010366Y013866D01*
X010937Y014437D01*
X010937Y014555D01*
X011212Y014830D01*
X011015Y015224D02*
X011212Y015421D01*
X011212Y015578D01*
X011015Y015775D02*
X011448Y016208D01*
X011448Y017586D01*
X011192Y017842D01*
X011192Y018700D01*
X010425Y018019D02*
X010403Y017399D01*
X009998Y017399D01*
X009923Y017324D01*
X009923Y016943D01*
X009988Y016878D01*
X009652Y016878D01*
X009637Y016892D01*
X009637Y018019D01*
X010425Y018019D01*
X010424Y018006D02*
X009637Y018006D01*
X009637Y017909D02*
X010421Y017909D01*
X010418Y017812D02*
X009637Y017812D01*
X009637Y017715D02*
X010414Y017715D01*
X010411Y017618D02*
X009637Y017618D01*
X009637Y017522D02*
X010408Y017522D01*
X010404Y017425D02*
X009637Y017425D01*
X009637Y017328D02*
X009926Y017328D01*
X009923Y017231D02*
X009637Y017231D01*
X009637Y017134D02*
X009923Y017134D01*
X009923Y017037D02*
X009637Y017037D01*
X009637Y016940D02*
X009925Y016940D01*
X009952Y016878D02*
X010061Y016769D01*
X010169Y016769D01*
X010169Y016267D01*
X010267Y016169D01*
X010169Y016070D01*
X010169Y015569D01*
X010366Y015569D02*
X010366Y015480D01*
X010425Y015421D01*
X010818Y015421D01*
X010897Y015500D01*
X011015Y015775D02*
X010769Y015775D01*
X010769Y015972D02*
X010464Y015972D01*
X010267Y016169D01*
X009765Y016169D01*
X009765Y016366D02*
X009519Y016366D01*
X009441Y016405D01*
X009716Y016563D02*
X009765Y016563D01*
X009716Y016563D02*
X009192Y017086D01*
X009192Y018700D01*
X008692Y018885D02*
X008692Y018098D01*
X008889Y017901D01*
X008889Y015933D01*
X009047Y015775D01*
X009765Y015775D01*
X009765Y015972D02*
X009519Y015972D01*
X009441Y016051D01*
X009204Y015421D02*
X008791Y015007D01*
X008791Y014102D01*
X008988Y014102D02*
X008988Y014732D01*
X009086Y014830D01*
X009185Y014830D01*
X009185Y014929D01*
X009401Y015145D01*
X009913Y015145D01*
X010070Y014988D01*
X010661Y014988D01*
X010740Y014909D01*
X010740Y014594D01*
X010464Y014319D01*
X010464Y014673D02*
X010464Y014712D01*
X010464Y014673D02*
X009952Y014161D01*
X009480Y014161D01*
X009421Y014102D01*
X009381Y014102D01*
X009185Y014102D02*
X009185Y014338D01*
X009283Y014437D01*
X008594Y014693D02*
X008594Y014102D01*
X008397Y014102D02*
X008397Y014535D01*
X008259Y014673D01*
X007984Y014673D01*
X008102Y014397D02*
X007866Y014397D01*
X007590Y014673D01*
X007275Y014476D02*
X006822Y014476D01*
X006547Y014752D01*
X006566Y014752D01*
X005618Y015700D01*
X005192Y015700D01*
X006055Y015539D02*
X006055Y015893D01*
X005248Y016700D01*
X005192Y016700D01*
X005897Y016444D02*
X006606Y015736D01*
X006901Y015736D01*
X007216Y015421D01*
X007374Y015263D01*
X008456Y015263D01*
X008574Y015145D01*
X008220Y015067D02*
X006527Y015067D01*
X006055Y015539D01*
X005897Y016444D02*
X005897Y016996D01*
X005192Y017700D01*
X006133Y017311D02*
X006133Y016887D01*
X006560Y016887D01*
X006635Y016812D01*
X006635Y016783D01*
X006661Y016809D01*
X006984Y016809D01*
X007059Y016734D01*
X007059Y016155D01*
X007039Y016136D01*
X007039Y015849D01*
X007152Y015736D01*
X007895Y015736D01*
X007895Y015828D01*
X007876Y015876D01*
X007876Y016120D01*
X007771Y016120D01*
X007732Y016080D01*
X007409Y016080D01*
X007334Y016155D01*
X007334Y016734D01*
X007409Y016809D01*
X007732Y016809D01*
X007807Y016734D01*
X007807Y016654D01*
X007808Y016653D01*
X007850Y016612D01*
X007962Y016612D01*
X008010Y016631D01*
X008115Y016631D01*
X008213Y016591D01*
X008275Y016529D01*
X008323Y016509D01*
X008359Y016473D01*
X008342Y017143D01*
X007931Y017143D01*
X007856Y017218D01*
X007856Y017242D01*
X007807Y017242D01*
X007807Y017179D01*
X007732Y017104D01*
X007409Y017104D01*
X007334Y017179D01*
X007334Y017311D01*
X007059Y017311D01*
X007059Y017179D01*
X006984Y017104D01*
X006661Y017104D01*
X006586Y017179D01*
X006586Y017311D01*
X006133Y017311D01*
X006133Y017231D02*
X006586Y017231D01*
X006631Y017134D02*
X006133Y017134D01*
X006133Y017037D02*
X008345Y017037D01*
X008343Y017134D02*
X007762Y017134D01*
X007807Y017231D02*
X007856Y017231D01*
X007570Y017468D02*
X007570Y017842D01*
X007511Y017901D01*
X006921Y017901D01*
X006822Y017803D01*
X006822Y017468D01*
X007059Y017231D02*
X007334Y017231D01*
X007379Y017134D02*
X007014Y017134D01*
X007046Y016746D02*
X007347Y016746D01*
X007334Y016649D02*
X007059Y016649D01*
X007059Y016552D02*
X007334Y016552D01*
X007334Y016455D02*
X007059Y016455D01*
X007059Y016358D02*
X007334Y016358D01*
X007334Y016262D02*
X007059Y016262D01*
X007059Y016165D02*
X007334Y016165D01*
X007039Y016068D02*
X007876Y016068D01*
X007876Y015971D02*
X007039Y015971D01*
X007039Y015874D02*
X007876Y015874D01*
X007895Y015777D02*
X007111Y015777D01*
X006822Y016444D02*
X006330Y016444D01*
X006330Y016622D01*
X006605Y016843D02*
X008350Y016843D01*
X008352Y016746D02*
X007794Y016746D01*
X007812Y016649D02*
X008355Y016649D01*
X008357Y016552D02*
X008252Y016552D01*
X008347Y016940D02*
X006133Y016940D01*
X007192Y018700D02*
X007192Y018921D01*
X007472Y019200D01*
X008378Y019200D01*
X008692Y018885D01*
X010192Y018700D02*
X010192Y018567D01*
X011252Y017507D01*
X011252Y016287D01*
X011133Y016169D01*
X010769Y016169D01*
X010769Y016366D02*
X010976Y016366D01*
X011055Y016444D01*
X011055Y016681D01*
X010858Y016878D01*
X010769Y016563D02*
X010543Y016563D01*
X010425Y016444D02*
X010425Y016326D01*
X010267Y016169D01*
X010366Y016769D02*
X010366Y016996D01*
X010228Y017133D01*
X011645Y017232D02*
X012114Y017700D01*
X012192Y017700D01*
X013145Y017700D02*
X013850Y016996D01*
X013850Y016444D01*
X014559Y015736D01*
X014854Y015736D01*
X015169Y015421D01*
X015326Y015263D01*
X016409Y015263D01*
X016527Y015145D01*
X016744Y015007D02*
X017157Y015421D01*
X017866Y015421D01*
X018063Y015224D01*
X018968Y015224D01*
X019165Y015421D01*
X019165Y015578D01*
X018968Y015775D02*
X019401Y016208D01*
X019401Y017586D01*
X019145Y017842D01*
X019145Y018700D01*
X018378Y018019D02*
X018356Y017399D01*
X017950Y017399D01*
X017876Y017324D01*
X017876Y016943D01*
X017941Y016878D01*
X017604Y016878D01*
X017590Y016892D01*
X017590Y018019D01*
X018378Y018019D01*
X018377Y018006D02*
X017590Y018006D01*
X017590Y017909D02*
X018374Y017909D01*
X018370Y017812D02*
X017590Y017812D01*
X017590Y017715D02*
X018367Y017715D01*
X018364Y017618D02*
X017590Y017618D01*
X017590Y017522D02*
X018360Y017522D01*
X018357Y017425D02*
X017590Y017425D01*
X017590Y017328D02*
X017879Y017328D01*
X017876Y017231D02*
X017590Y017231D01*
X017590Y017134D02*
X017876Y017134D01*
X017876Y017037D02*
X017590Y017037D01*
X017590Y016940D02*
X017878Y016940D01*
X017905Y016878D02*
X018013Y016769D01*
X018122Y016769D01*
X018122Y016267D01*
X018220Y016169D01*
X018122Y016070D01*
X018122Y015569D01*
X018318Y015569D02*
X018318Y015480D01*
X018378Y015421D01*
X018771Y015421D01*
X018850Y015500D01*
X018968Y015775D02*
X018722Y015775D01*
X018722Y015972D02*
X018417Y015972D01*
X018220Y016169D01*
X017718Y016169D01*
X017718Y016366D02*
X017472Y016366D01*
X017393Y016405D01*
X017669Y016563D02*
X017718Y016563D01*
X017669Y016563D02*
X017145Y017086D01*
X017145Y018700D01*
X016645Y018885D02*
X016645Y018098D01*
X016842Y017901D01*
X016842Y015933D01*
X017000Y015775D01*
X017718Y015775D01*
X017718Y015972D02*
X017472Y015972D01*
X017393Y016051D01*
X018220Y016169D02*
X018378Y016326D01*
X018378Y016444D01*
X018496Y016563D02*
X018722Y016563D01*
X018722Y016366D02*
X018929Y016366D01*
X019007Y016444D01*
X019007Y016681D01*
X018811Y016878D01*
X018318Y016769D02*
X018318Y016996D01*
X018181Y017133D01*
X019204Y017507D02*
X019204Y016287D01*
X019086Y016169D01*
X018722Y016169D01*
X019441Y015972D02*
X019598Y016130D01*
X019598Y017232D01*
X020066Y017700D01*
X020145Y017700D01*
X019204Y017507D02*
X018145Y018567D01*
X018145Y018700D01*
X016645Y018885D02*
X016330Y019200D01*
X015425Y019200D01*
X015145Y018921D01*
X015145Y018700D01*
X014874Y017901D02*
X014775Y017803D01*
X014775Y017468D01*
X014539Y017311D02*
X014539Y017179D01*
X014614Y017104D01*
X014936Y017104D01*
X015011Y017179D01*
X015011Y017311D01*
X015287Y017311D01*
X015287Y017179D01*
X015362Y017104D01*
X015684Y017104D01*
X015759Y017179D01*
X015759Y017242D01*
X015809Y017242D01*
X015809Y017218D01*
X015884Y017143D01*
X016295Y017143D01*
X016312Y016473D01*
X016275Y016509D01*
X016228Y016529D01*
X016166Y016591D01*
X016068Y016631D01*
X015962Y016631D01*
X015915Y016612D01*
X015802Y016612D01*
X015761Y016653D01*
X015759Y016654D01*
X015759Y016734D01*
X015684Y016809D01*
X015362Y016809D01*
X015287Y016734D01*
X015287Y016155D01*
X015362Y016080D01*
X015684Y016080D01*
X015724Y016120D01*
X015828Y016120D01*
X015828Y015876D01*
X015848Y015828D01*
X015848Y015736D01*
X015104Y015736D01*
X014992Y015849D01*
X014992Y016136D01*
X015011Y016155D01*
X015011Y016734D01*
X014936Y016809D01*
X014614Y016809D01*
X014588Y016783D01*
X014588Y016812D01*
X014513Y016887D01*
X014086Y016887D01*
X014086Y017311D01*
X014539Y017311D01*
X014539Y017231D02*
X014086Y017231D01*
X014086Y017134D02*
X014584Y017134D01*
X014558Y016843D02*
X016303Y016843D01*
X016305Y016746D02*
X015747Y016746D01*
X015765Y016649D02*
X016307Y016649D01*
X016310Y016552D02*
X016205Y016552D01*
X016300Y016940D02*
X014086Y016940D01*
X014086Y017037D02*
X016298Y017037D01*
X016295Y017134D02*
X015714Y017134D01*
X015759Y017231D02*
X015809Y017231D01*
X015523Y017468D02*
X015523Y017842D01*
X015464Y017901D01*
X014874Y017901D01*
X015011Y017231D02*
X015287Y017231D01*
X015332Y017134D02*
X014966Y017134D01*
X014999Y016746D02*
X015299Y016746D01*
X015287Y016649D02*
X015011Y016649D01*
X015011Y016552D02*
X015287Y016552D01*
X015287Y016455D02*
X015011Y016455D01*
X015011Y016358D02*
X015287Y016358D01*
X015287Y016262D02*
X015011Y016262D01*
X015011Y016165D02*
X015287Y016165D01*
X014992Y016068D02*
X015828Y016068D01*
X015828Y015971D02*
X014992Y015971D01*
X014992Y015874D02*
X015829Y015874D01*
X015848Y015777D02*
X015063Y015777D01*
X014775Y016444D02*
X014283Y016444D01*
X014283Y016622D01*
X014007Y015893D02*
X013200Y016700D01*
X013145Y016700D01*
X014007Y015893D02*
X014007Y015539D01*
X014480Y015067D01*
X016173Y015067D01*
X016547Y014693D01*
X016547Y014102D01*
X016744Y014102D02*
X016744Y015007D01*
X016941Y014732D02*
X017039Y014830D01*
X017137Y014830D01*
X017137Y014929D01*
X017354Y015145D01*
X017866Y015145D01*
X018023Y014988D01*
X018614Y014988D01*
X018692Y014909D01*
X018692Y014594D01*
X018417Y014319D01*
X018417Y014673D02*
X018417Y014712D01*
X018417Y014673D02*
X017905Y014161D01*
X017433Y014161D01*
X017374Y014102D01*
X017334Y014102D01*
X017137Y014102D02*
X017137Y014338D01*
X017236Y014437D01*
X016941Y014732D02*
X016941Y014102D01*
X016350Y014102D02*
X016350Y014535D01*
X016212Y014673D01*
X015937Y014673D01*
X016055Y014397D02*
X015818Y014397D01*
X015543Y014673D01*
X015228Y014476D02*
X015602Y014102D01*
X015956Y014102D01*
X016153Y014102D02*
X016153Y014299D01*
X016055Y014397D01*
X015720Y013866D02*
X015523Y013866D01*
X015267Y014122D01*
X014500Y014122D01*
X014185Y014437D01*
X013417Y014437D01*
X013153Y014700D01*
X013145Y014700D01*
X012192Y014700D02*
X011881Y014389D01*
X011881Y014200D01*
X011015Y015224D02*
X010110Y015224D01*
X009913Y015421D01*
X009204Y015421D01*
X008594Y014693D02*
X008220Y015067D01*
X008102Y014397D02*
X008200Y014299D01*
X008200Y014102D01*
X008003Y014102D02*
X007649Y014102D01*
X007275Y014476D01*
X007315Y014122D02*
X006547Y014122D01*
X006232Y014437D01*
X005464Y014437D01*
X005200Y014700D01*
X005192Y014700D01*
X005192Y013700D02*
X005637Y013256D01*
X006074Y013256D01*
X006389Y013570D01*
X006488Y013669D01*
X007767Y013669D01*
X007767Y013866D02*
X007570Y013866D01*
X007315Y014122D01*
X007767Y013472D02*
X006783Y013472D01*
X006685Y013374D01*
X006685Y012842D01*
X006586Y012744D01*
X006271Y013059D01*
X005551Y013059D01*
X005192Y012700D01*
X005527Y012035D02*
X006271Y012035D01*
X006586Y011720D01*
X006586Y012212D01*
X006881Y012507D01*
X006881Y013177D01*
X006980Y013275D01*
X007767Y013275D01*
X007767Y013078D02*
X007177Y013078D01*
X007078Y012980D01*
X007078Y012429D01*
X006881Y012232D01*
X006881Y011484D01*
X006586Y011189D01*
X006586Y010696D01*
X006271Y011011D01*
X005503Y011011D01*
X005192Y010700D01*
X005519Y010027D02*
X006271Y010027D01*
X006586Y009712D01*
X006881Y010007D01*
X006881Y011169D01*
X007078Y011366D01*
X007078Y012153D01*
X007275Y012350D01*
X007275Y012783D01*
X007374Y012881D01*
X007767Y012881D01*
X007767Y012685D02*
X007570Y012685D01*
X007472Y012586D01*
X007472Y012271D01*
X007275Y012074D01*
X007275Y011287D01*
X007078Y011090D01*
X007078Y009574D01*
X006586Y009082D01*
X006204Y008700D01*
X005192Y008700D01*
X005192Y009700D02*
X005519Y010027D01*
X005192Y011700D02*
X005527Y012035D01*
X007472Y011484D02*
X007472Y009948D01*
X007708Y009712D01*
X009244Y009712D01*
X010255Y008700D01*
X012192Y008700D01*
X012192Y009700D02*
X012169Y009700D01*
X012157Y009712D01*
X010700Y009712D01*
X010503Y009909D01*
X007866Y009909D01*
X007669Y010106D01*
X007669Y011366D01*
X008200Y011897D01*
X008200Y012252D01*
X008003Y012252D02*
X008003Y012015D01*
X007472Y011484D01*
X007551Y011956D02*
X007669Y012074D01*
X007669Y012468D01*
X007689Y012488D01*
X007767Y012488D01*
X008397Y012252D02*
X008397Y011700D01*
X008535Y011563D01*
X008535Y011346D01*
X009185Y012055D02*
X009283Y011956D01*
X010149Y011956D01*
X010189Y011996D01*
X010582Y011996D01*
X010622Y011956D01*
X010740Y012232D02*
X010720Y012252D01*
X009381Y012252D01*
X009185Y012252D02*
X009185Y012055D01*
X013145Y011700D02*
X013480Y012035D01*
X014224Y012035D01*
X014539Y011720D01*
X014539Y012212D01*
X014834Y012507D01*
X014834Y013177D01*
X014933Y013275D01*
X015720Y013275D01*
X015720Y013078D02*
X015129Y013078D01*
X015031Y012980D01*
X015031Y012429D01*
X014834Y012232D01*
X014834Y011484D01*
X014539Y011189D01*
X014539Y010696D01*
X014224Y011011D01*
X013456Y011011D01*
X013145Y010700D01*
X013472Y010027D02*
X014224Y010027D01*
X014539Y009712D01*
X014834Y010007D01*
X014834Y011169D01*
X015031Y011366D01*
X015031Y012153D01*
X015228Y012350D01*
X015228Y012783D01*
X015326Y012881D01*
X015720Y012881D01*
X015720Y012685D02*
X015523Y012685D01*
X015425Y012586D01*
X015425Y012271D01*
X015228Y012074D01*
X015228Y011287D01*
X015031Y011090D01*
X015031Y009574D01*
X014539Y009082D01*
X014157Y008700D01*
X013145Y008700D01*
X013145Y009700D02*
X013472Y010027D01*
X015425Y009948D02*
X015425Y011484D01*
X015956Y012015D01*
X015956Y012252D01*
X016153Y012252D02*
X016153Y011897D01*
X015622Y011366D01*
X015622Y010106D01*
X015818Y009909D01*
X018456Y009909D01*
X018653Y009712D01*
X020110Y009712D01*
X020122Y009700D01*
X020145Y009700D01*
X020145Y008700D02*
X018208Y008700D01*
X017196Y009712D01*
X015661Y009712D01*
X015425Y009948D01*
X016409Y010539D02*
X016409Y010933D01*
X017196Y010933D01*
X017196Y010539D01*
X016409Y010539D01*
X016409Y010543D02*
X017196Y010543D01*
X017196Y010640D02*
X016409Y010640D01*
X016409Y010737D02*
X017196Y010737D01*
X017196Y010834D02*
X016409Y010834D01*
X016409Y010931D02*
X017196Y010931D01*
X016803Y010775D02*
X016803Y011563D01*
X016547Y011819D01*
X016547Y012252D01*
X016744Y012252D02*
X016744Y011897D01*
X017000Y011641D01*
X017000Y011504D01*
X017118Y011385D01*
X017157Y011759D02*
X017944Y011759D01*
X018968Y010736D01*
X020110Y010736D01*
X020145Y010700D01*
X019145Y011200D02*
X018937Y011200D01*
X018417Y011720D01*
X018574Y011956D02*
X018929Y011956D01*
X019165Y011720D01*
X020126Y011720D01*
X020145Y011700D01*
X019736Y012488D02*
X019948Y012700D01*
X020145Y012700D01*
X019736Y012488D02*
X017570Y012488D01*
X017570Y012685D02*
X018988Y012685D01*
X020003Y013700D01*
X020145Y013700D01*
X019834Y014200D02*
X019834Y014389D01*
X020145Y014700D01*
X019834Y014200D02*
X019441Y013807D01*
X019441Y013413D01*
X018909Y012881D01*
X017570Y012881D01*
X017570Y013078D02*
X018752Y013078D01*
X019165Y013492D01*
X019244Y013964D02*
X019322Y013964D01*
X019637Y014279D01*
X019637Y015893D01*
X019795Y016051D01*
X019795Y016350D01*
X020145Y016700D01*
X019441Y015972D02*
X019441Y014358D01*
X019244Y014161D01*
X019165Y014161D01*
X018476Y013472D01*
X017570Y013472D01*
X017570Y013275D02*
X018555Y013275D01*
X019244Y013964D01*
X019165Y014437D02*
X018397Y013669D01*
X017570Y013669D01*
X017570Y013866D02*
X018318Y013866D01*
X018889Y014437D01*
X018889Y014555D01*
X019165Y014830D01*
X021098Y014700D02*
X021106Y014700D01*
X021370Y014437D01*
X022137Y014437D01*
X022452Y014122D01*
X023220Y014122D01*
X023476Y013866D01*
X023673Y013866D01*
X023673Y013669D02*
X022393Y013669D01*
X022295Y013570D01*
X021980Y013256D01*
X021543Y013256D01*
X021098Y013700D01*
X021456Y013059D02*
X021098Y012700D01*
X021456Y013059D02*
X022177Y013059D01*
X022492Y012744D01*
X022590Y012842D01*
X022590Y013374D01*
X022689Y013472D01*
X023673Y013472D01*
X023673Y013275D02*
X022885Y013275D01*
X022787Y013177D01*
X022787Y012507D01*
X022492Y012212D01*
X022492Y011720D01*
X022177Y012035D01*
X021433Y012035D01*
X021098Y011700D01*
X021409Y011011D02*
X022177Y011011D01*
X022492Y010696D01*
X022492Y011189D01*
X022787Y011484D01*
X022787Y012232D01*
X022984Y012429D01*
X022984Y012980D01*
X023082Y013078D01*
X023673Y013078D01*
X023673Y012881D02*
X023279Y012881D01*
X023181Y012783D01*
X023181Y012350D01*
X022984Y012153D01*
X022984Y011366D01*
X022787Y011169D01*
X022787Y010007D01*
X022492Y009712D01*
X022177Y010027D01*
X021425Y010027D01*
X021098Y009700D01*
X021098Y008700D02*
X022110Y008700D01*
X022492Y009082D01*
X022984Y009574D01*
X022984Y011090D01*
X023181Y011287D01*
X023181Y012074D01*
X023378Y012271D01*
X023378Y012586D01*
X023476Y012685D01*
X023673Y012685D01*
X023673Y012488D02*
X023594Y012488D01*
X023574Y012468D01*
X023574Y012074D01*
X023456Y011956D01*
X023909Y012015D02*
X023378Y011484D01*
X023378Y009948D01*
X023614Y009712D01*
X025149Y009712D01*
X026161Y008700D01*
X028098Y008700D01*
X028098Y009700D02*
X028074Y009700D01*
X028063Y009712D01*
X026606Y009712D01*
X026409Y009909D01*
X023771Y009909D01*
X023574Y010106D01*
X023574Y011366D01*
X024106Y011897D01*
X024106Y012252D01*
X024303Y012252D02*
X024303Y011700D01*
X024441Y011563D01*
X024441Y011346D01*
X024755Y011563D02*
X024755Y010775D01*
X024362Y010737D02*
X025149Y010737D01*
X025149Y010834D02*
X024362Y010834D01*
X024362Y010931D02*
X025149Y010931D01*
X025149Y010933D02*
X025149Y010539D01*
X024362Y010539D01*
X024362Y010933D01*
X025149Y010933D01*
X025149Y010640D02*
X024362Y010640D01*
X024362Y010543D02*
X025149Y010543D01*
X025070Y011385D02*
X024952Y011504D01*
X024952Y011641D01*
X024696Y011897D01*
X024696Y012252D01*
X024500Y012252D02*
X024500Y011819D01*
X024755Y011563D01*
X025110Y011759D02*
X024893Y011976D01*
X024893Y012252D01*
X025090Y012252D02*
X025090Y012055D01*
X025189Y011956D01*
X026055Y011956D01*
X026094Y011996D01*
X026488Y011996D01*
X026527Y011956D01*
X026881Y011956D01*
X027118Y011720D01*
X028078Y011720D01*
X028098Y011700D01*
X027689Y012488D02*
X027901Y012700D01*
X028098Y012700D01*
X027689Y012488D02*
X025523Y012488D01*
X025523Y012685D02*
X026941Y012685D01*
X027956Y013700D01*
X028098Y013700D01*
X027787Y014200D02*
X027787Y014389D01*
X028098Y014700D01*
X027787Y014200D02*
X027393Y013807D01*
X027393Y013413D01*
X026862Y012881D01*
X025523Y012881D01*
X025523Y013078D02*
X026704Y013078D01*
X027118Y013492D01*
X027196Y013964D02*
X027275Y013964D01*
X027590Y014279D01*
X027590Y015893D01*
X027748Y016051D01*
X027748Y016350D01*
X028098Y016700D01*
X027551Y017232D02*
X027551Y016130D01*
X027393Y015972D01*
X027393Y014358D01*
X027196Y014161D01*
X027118Y014161D01*
X026429Y013472D01*
X025523Y013472D01*
X025523Y013275D02*
X026507Y013275D01*
X027196Y013964D01*
X027118Y014437D02*
X026350Y013669D01*
X025523Y013669D01*
X025523Y013866D02*
X026271Y013866D01*
X026842Y014437D01*
X026842Y014555D01*
X027118Y014830D01*
X026921Y015224D02*
X027118Y015421D01*
X027118Y015578D01*
X026921Y015775D02*
X027354Y016208D01*
X027354Y017586D01*
X027098Y017842D01*
X027098Y018700D01*
X026330Y018019D02*
X026309Y017399D01*
X025903Y017399D01*
X025828Y017324D01*
X025828Y016943D01*
X025893Y016878D01*
X025557Y016878D01*
X025543Y016892D01*
X025543Y018019D01*
X026330Y018019D01*
X026330Y018006D02*
X025543Y018006D01*
X025543Y017909D02*
X026326Y017909D01*
X026323Y017812D02*
X025543Y017812D01*
X025543Y017715D02*
X026320Y017715D01*
X026316Y017618D02*
X025543Y017618D01*
X025543Y017522D02*
X026313Y017522D01*
X026310Y017425D02*
X025543Y017425D01*
X025543Y017328D02*
X025832Y017328D01*
X025828Y017231D02*
X025543Y017231D01*
X025543Y017134D02*
X025828Y017134D01*
X025828Y017037D02*
X025543Y017037D01*
X025543Y016940D02*
X025831Y016940D01*
X025858Y016878D02*
X025966Y016769D01*
X026074Y016769D01*
X026074Y016267D01*
X026173Y016169D01*
X026074Y016070D01*
X026074Y015569D01*
X026271Y015569D02*
X026271Y015480D01*
X026330Y015421D01*
X026724Y015421D01*
X026803Y015500D01*
X026921Y015775D02*
X026675Y015775D01*
X026675Y015972D02*
X026370Y015972D01*
X026173Y016169D01*
X025671Y016169D01*
X025671Y016366D02*
X025425Y016366D01*
X025346Y016405D01*
X025622Y016563D02*
X025671Y016563D01*
X025622Y016563D02*
X025098Y017086D01*
X025098Y018700D01*
X024598Y018885D02*
X024598Y018098D01*
X024795Y017901D01*
X024795Y015933D01*
X024952Y015775D01*
X025671Y015775D01*
X025671Y015972D02*
X025425Y015972D01*
X025346Y016051D01*
X025110Y015421D02*
X024696Y015007D01*
X024696Y014102D01*
X024500Y014102D02*
X024500Y014693D01*
X024126Y015067D01*
X022433Y015067D01*
X021960Y015539D01*
X021960Y015893D01*
X021153Y016700D01*
X021098Y016700D01*
X021803Y016444D02*
X022511Y015736D01*
X022807Y015736D01*
X023122Y015421D01*
X023279Y015263D01*
X024362Y015263D01*
X024480Y015145D01*
X024893Y014732D02*
X024992Y014830D01*
X025090Y014830D01*
X025090Y014929D01*
X025307Y015145D01*
X025818Y015145D01*
X025976Y014988D01*
X026566Y014988D01*
X026645Y014909D01*
X026645Y014594D01*
X026370Y014319D01*
X026370Y014673D02*
X026370Y014712D01*
X026370Y014673D02*
X025858Y014161D01*
X025385Y014161D01*
X025326Y014102D01*
X025287Y014102D01*
X025090Y014102D02*
X025090Y014338D01*
X025189Y014437D01*
X024893Y014732D02*
X024893Y014102D01*
X024303Y014102D02*
X024303Y014535D01*
X024165Y014673D01*
X023889Y014673D01*
X023771Y014397D02*
X023496Y014673D01*
X023181Y014476D02*
X023555Y014102D01*
X023909Y014102D01*
X024106Y014102D02*
X024106Y014299D01*
X024007Y014397D01*
X023771Y014397D01*
X023181Y014476D02*
X022728Y014476D01*
X022452Y014752D01*
X022472Y014752D01*
X021523Y015700D01*
X021098Y015700D01*
X021803Y016444D02*
X021803Y016996D01*
X021098Y017700D01*
X022039Y017311D02*
X022492Y017311D01*
X022492Y017179D01*
X022567Y017104D01*
X022889Y017104D01*
X022964Y017179D01*
X022964Y017311D01*
X023240Y017311D01*
X023240Y017179D01*
X023315Y017104D01*
X023637Y017104D01*
X023712Y017179D01*
X023712Y017242D01*
X023761Y017242D01*
X023761Y017218D01*
X023836Y017143D01*
X024248Y017143D01*
X024265Y016473D01*
X024228Y016509D01*
X024181Y016529D01*
X024119Y016591D01*
X024021Y016631D01*
X023915Y016631D01*
X023868Y016612D01*
X023755Y016612D01*
X023714Y016653D01*
X023712Y016654D01*
X023712Y016734D01*
X023637Y016809D01*
X023315Y016809D01*
X023240Y016734D01*
X023240Y016155D01*
X023315Y016080D01*
X023637Y016080D01*
X023677Y016120D01*
X023781Y016120D01*
X023781Y015876D01*
X023801Y015828D01*
X023801Y015736D01*
X023057Y015736D01*
X022944Y015849D01*
X022944Y016136D01*
X022964Y016155D01*
X022964Y016734D01*
X022889Y016809D01*
X022567Y016809D01*
X022541Y016783D01*
X022541Y016812D01*
X022466Y016887D01*
X022039Y016887D01*
X022039Y017311D01*
X022039Y017231D02*
X022492Y017231D01*
X022537Y017134D02*
X022039Y017134D01*
X022039Y017037D02*
X024250Y017037D01*
X024248Y017134D02*
X023667Y017134D01*
X023712Y017231D02*
X023761Y017231D01*
X023476Y017468D02*
X023476Y017842D01*
X023417Y017901D01*
X022826Y017901D01*
X022728Y017803D01*
X022728Y017468D01*
X022964Y017231D02*
X023240Y017231D01*
X023285Y017134D02*
X022919Y017134D01*
X022952Y016746D02*
X023252Y016746D01*
X023240Y016649D02*
X022964Y016649D01*
X022964Y016552D02*
X023240Y016552D01*
X023240Y016455D02*
X022964Y016455D01*
X022964Y016358D02*
X023240Y016358D01*
X023240Y016262D02*
X022964Y016262D01*
X022964Y016165D02*
X023240Y016165D01*
X022944Y016068D02*
X023781Y016068D01*
X023781Y015971D02*
X022944Y015971D01*
X022944Y015874D02*
X023782Y015874D01*
X023801Y015777D02*
X023016Y015777D01*
X022728Y016444D02*
X022236Y016444D01*
X022236Y016622D01*
X022510Y016843D02*
X024255Y016843D01*
X024258Y016746D02*
X023700Y016746D01*
X023718Y016649D02*
X024260Y016649D01*
X024263Y016552D02*
X024157Y016552D01*
X024253Y016940D02*
X022039Y016940D01*
X023098Y018700D02*
X023098Y018921D01*
X023378Y019200D01*
X024283Y019200D01*
X024598Y018885D01*
X026098Y018700D02*
X026098Y018567D01*
X027157Y017507D01*
X027157Y016287D01*
X027039Y016169D01*
X026675Y016169D01*
X026675Y016366D02*
X026881Y016366D01*
X026960Y016444D01*
X026960Y016681D01*
X026763Y016878D01*
X026675Y016563D02*
X026448Y016563D01*
X026330Y016444D02*
X026330Y016326D01*
X026173Y016169D01*
X026271Y016769D02*
X026271Y016996D01*
X026133Y017133D01*
X027551Y017232D02*
X028019Y017700D01*
X028098Y017700D01*
X029051Y017700D02*
X029755Y016996D01*
X029755Y016444D01*
X030464Y015736D01*
X030759Y015736D01*
X031074Y015421D01*
X031232Y015263D01*
X032315Y015263D01*
X032433Y015145D01*
X032649Y015007D02*
X033063Y015421D01*
X033771Y015421D01*
X033968Y015224D01*
X034874Y015224D01*
X035070Y015421D01*
X035070Y015578D01*
X034874Y015775D02*
X034628Y015775D01*
X034628Y015972D02*
X034322Y015972D01*
X034126Y016169D01*
X034027Y016070D01*
X034027Y015569D01*
X034224Y015569D02*
X034224Y015480D01*
X034283Y015421D01*
X034677Y015421D01*
X034755Y015500D01*
X034874Y015775D02*
X035307Y016208D01*
X035307Y017586D01*
X035051Y017842D01*
X035051Y018700D01*
X034051Y018700D02*
X034051Y018567D01*
X035110Y017507D01*
X035110Y016287D01*
X034992Y016169D01*
X034628Y016169D01*
X034628Y016366D02*
X034834Y016366D01*
X034913Y016444D01*
X034913Y016681D01*
X034716Y016878D01*
X034628Y016563D02*
X034401Y016563D01*
X034283Y016444D02*
X034283Y016326D01*
X034126Y016169D01*
X034027Y016267D01*
X034027Y016769D01*
X033919Y016769D01*
X033811Y016878D01*
X033846Y016878D02*
X033510Y016878D01*
X033496Y016892D01*
X033496Y018019D01*
X034283Y018019D01*
X034262Y017399D01*
X033856Y017399D01*
X033781Y017324D01*
X033781Y016943D01*
X033846Y016878D01*
X033784Y016940D02*
X033496Y016940D01*
X033496Y017037D02*
X033781Y017037D01*
X033781Y017134D02*
X033496Y017134D01*
X033496Y017231D02*
X033781Y017231D01*
X033784Y017328D02*
X033496Y017328D01*
X033496Y017425D02*
X034263Y017425D01*
X034266Y017522D02*
X033496Y017522D01*
X033496Y017618D02*
X034269Y017618D01*
X034273Y017715D02*
X033496Y017715D01*
X033496Y017812D02*
X034276Y017812D01*
X034279Y017909D02*
X033496Y017909D01*
X033496Y018006D02*
X034283Y018006D01*
X034086Y017133D02*
X034224Y016996D01*
X034224Y016769D01*
X033624Y016563D02*
X033574Y016563D01*
X033051Y017086D01*
X033051Y018700D01*
X032551Y018885D02*
X032551Y018098D01*
X032748Y017901D01*
X032748Y015933D01*
X032905Y015775D01*
X033624Y015775D01*
X033624Y015972D02*
X033378Y015972D01*
X033299Y016051D01*
X033378Y016366D02*
X033624Y016366D01*
X033624Y016169D02*
X034126Y016169D01*
X033378Y016366D02*
X033299Y016405D01*
X032217Y016473D02*
X032181Y016509D01*
X032133Y016529D01*
X032071Y016591D01*
X031974Y016631D01*
X031868Y016631D01*
X031820Y016612D01*
X031708Y016612D01*
X031667Y016653D01*
X031665Y016654D01*
X031665Y016734D01*
X031590Y016809D01*
X031267Y016809D01*
X031192Y016734D01*
X031192Y016155D01*
X031267Y016080D01*
X031590Y016080D01*
X031629Y016120D01*
X031734Y016120D01*
X031734Y015876D01*
X031753Y015828D01*
X031753Y015736D01*
X031010Y015736D01*
X030897Y015849D01*
X030897Y016136D01*
X030917Y016155D01*
X030917Y016734D01*
X030842Y016809D01*
X030519Y016809D01*
X030494Y016783D01*
X030494Y016812D01*
X030419Y016887D01*
X029992Y016887D01*
X029992Y017311D01*
X030444Y017311D01*
X030444Y017179D01*
X030519Y017104D01*
X030842Y017104D01*
X030917Y017179D01*
X030917Y017311D01*
X031192Y017311D01*
X031192Y017179D01*
X031267Y017104D01*
X031590Y017104D01*
X031665Y017179D01*
X031665Y017242D01*
X031714Y017242D01*
X031714Y017218D01*
X031789Y017143D01*
X032201Y017143D01*
X032217Y016473D01*
X032215Y016552D02*
X032110Y016552D01*
X032213Y016649D02*
X031670Y016649D01*
X031652Y016746D02*
X032211Y016746D01*
X032208Y016843D02*
X030463Y016843D01*
X030489Y017134D02*
X029992Y017134D01*
X029992Y017231D02*
X030444Y017231D01*
X030681Y017468D02*
X030681Y017803D01*
X030779Y017901D01*
X031370Y017901D01*
X031429Y017842D01*
X031429Y017468D01*
X031665Y017231D02*
X031714Y017231D01*
X031620Y017134D02*
X032201Y017134D01*
X032203Y017037D02*
X029992Y017037D01*
X029992Y016940D02*
X032206Y016940D01*
X031734Y016068D02*
X030897Y016068D01*
X030897Y015971D02*
X031734Y015971D01*
X031735Y015874D02*
X030897Y015874D01*
X030969Y015777D02*
X031753Y015777D01*
X031192Y016165D02*
X030917Y016165D01*
X030917Y016262D02*
X031192Y016262D01*
X031192Y016358D02*
X030917Y016358D01*
X030917Y016455D02*
X031192Y016455D01*
X031192Y016552D02*
X030917Y016552D01*
X030917Y016649D02*
X031192Y016649D01*
X031205Y016746D02*
X030904Y016746D01*
X030681Y016444D02*
X030189Y016444D01*
X030189Y016622D01*
X030872Y017134D02*
X031238Y017134D01*
X031192Y017231D02*
X030917Y017231D01*
X029913Y015893D02*
X029106Y016700D01*
X029051Y016700D01*
X029913Y015893D02*
X029913Y015539D01*
X030385Y015067D01*
X032078Y015067D01*
X032452Y014693D01*
X032452Y014102D01*
X032255Y014102D02*
X032255Y014535D01*
X032118Y014673D01*
X031842Y014673D01*
X031724Y014397D02*
X031448Y014673D01*
X031133Y014476D02*
X031507Y014102D01*
X031862Y014102D01*
X032059Y014102D02*
X032059Y014299D01*
X031960Y014397D01*
X031724Y014397D01*
X031626Y013866D02*
X031429Y013866D01*
X031173Y014122D01*
X030405Y014122D01*
X030090Y014437D01*
X029322Y014437D01*
X029059Y014700D01*
X029051Y014700D01*
X029051Y013700D02*
X029496Y013256D01*
X029933Y013256D01*
X030248Y013570D01*
X030346Y013669D01*
X031626Y013669D01*
X031626Y013472D02*
X030641Y013472D01*
X030543Y013374D01*
X030543Y012842D01*
X030444Y012744D01*
X030129Y013059D01*
X029409Y013059D01*
X029051Y012700D01*
X029385Y012035D02*
X030129Y012035D01*
X030444Y011720D01*
X030444Y012212D01*
X030740Y012507D01*
X030740Y013177D01*
X030838Y013275D01*
X031626Y013275D01*
X031626Y013078D02*
X031035Y013078D01*
X030937Y012980D01*
X030937Y012429D01*
X030740Y012232D01*
X030740Y011484D01*
X030444Y011189D01*
X030444Y010696D01*
X030129Y011011D01*
X029362Y011011D01*
X029051Y010700D01*
X029378Y010027D02*
X030129Y010027D01*
X030444Y009712D01*
X030740Y010007D01*
X030740Y011169D01*
X030937Y011366D01*
X030937Y012153D01*
X031133Y012350D01*
X031133Y012783D01*
X031232Y012881D01*
X031626Y012881D01*
X031626Y012685D02*
X031429Y012685D01*
X031330Y012586D01*
X031330Y012271D01*
X031133Y012074D01*
X031133Y011287D01*
X030937Y011090D01*
X030937Y009574D01*
X030444Y009082D01*
X030063Y008700D01*
X029051Y008700D01*
X029051Y009700D02*
X029378Y010027D01*
X028098Y010700D02*
X028063Y010736D01*
X026921Y010736D01*
X025897Y011759D01*
X025110Y011759D01*
X025287Y012252D02*
X026626Y012252D01*
X026645Y012232D01*
X026370Y011720D02*
X026889Y011200D01*
X027098Y011200D01*
X029051Y011700D02*
X029385Y012035D01*
X031330Y011484D02*
X031330Y009948D01*
X031566Y009712D01*
X033102Y009712D01*
X034114Y008700D01*
X036051Y008700D01*
X036051Y009700D02*
X036027Y009700D01*
X036015Y009712D01*
X034559Y009712D01*
X034362Y009909D01*
X031724Y009909D01*
X031527Y010106D01*
X031527Y011366D01*
X032059Y011897D01*
X032059Y012252D01*
X032255Y012252D02*
X032255Y011700D01*
X032393Y011563D01*
X032393Y011346D01*
X032708Y011563D02*
X032708Y010775D01*
X032315Y010737D02*
X033102Y010737D01*
X033102Y010834D02*
X032315Y010834D01*
X032315Y010931D02*
X033102Y010931D01*
X033102Y010933D02*
X033102Y010539D01*
X032315Y010539D01*
X032315Y010933D01*
X033102Y010933D01*
X033102Y010640D02*
X032315Y010640D01*
X032315Y010543D02*
X033102Y010543D01*
X033023Y011385D02*
X032905Y011504D01*
X032905Y011641D01*
X032649Y011897D01*
X032649Y012252D01*
X032452Y012252D02*
X032452Y011819D01*
X032708Y011563D01*
X033063Y011759D02*
X032846Y011976D01*
X032846Y012252D01*
X033043Y012252D02*
X033043Y012055D01*
X033141Y011956D01*
X034007Y011956D01*
X034047Y011996D01*
X034441Y011996D01*
X034480Y011956D01*
X034834Y011956D01*
X035070Y011720D01*
X036031Y011720D01*
X036051Y011700D01*
X035641Y012488D02*
X035854Y012700D01*
X036051Y012700D01*
X035641Y012488D02*
X033476Y012488D01*
X033476Y012685D02*
X034893Y012685D01*
X035909Y013700D01*
X036051Y013700D01*
X035740Y014200D02*
X035740Y014389D01*
X036051Y014700D01*
X035740Y014200D02*
X035346Y013807D01*
X035346Y013413D01*
X034815Y012881D01*
X033476Y012881D01*
X033476Y013078D02*
X034657Y013078D01*
X035070Y013492D01*
X035149Y013964D02*
X034460Y013275D01*
X033476Y013275D01*
X033476Y013472D02*
X034381Y013472D01*
X035070Y014161D01*
X035149Y014161D01*
X035346Y014358D01*
X035346Y015972D01*
X035503Y016130D01*
X035503Y017232D01*
X035972Y017700D01*
X036051Y017700D01*
X036051Y016700D02*
X035700Y016350D01*
X035700Y016051D01*
X035543Y015893D01*
X035543Y014279D01*
X035228Y013964D01*
X035149Y013964D01*
X035070Y014437D02*
X034303Y013669D01*
X033476Y013669D01*
X033476Y013866D02*
X034224Y013866D01*
X034795Y014437D01*
X034795Y014555D01*
X035070Y014830D01*
X034598Y014909D02*
X034598Y014594D01*
X034322Y014319D01*
X034322Y014673D02*
X034322Y014712D01*
X034322Y014673D02*
X033811Y014161D01*
X033338Y014161D01*
X033279Y014102D01*
X033240Y014102D01*
X033043Y014102D02*
X033043Y014338D01*
X033141Y014437D01*
X033043Y014830D02*
X032944Y014830D01*
X032846Y014732D01*
X032846Y014102D01*
X032649Y014102D02*
X032649Y015007D01*
X033043Y014929D02*
X033259Y015145D01*
X033771Y015145D01*
X033929Y014988D01*
X034519Y014988D01*
X034598Y014909D01*
X033043Y014929D02*
X033043Y014830D01*
X031133Y014476D02*
X030681Y014476D01*
X030405Y014752D01*
X030425Y014752D01*
X029476Y015700D01*
X029051Y015700D01*
X026921Y015224D02*
X026015Y015224D01*
X025818Y015421D01*
X025110Y015421D01*
X023909Y012252D02*
X023909Y012015D01*
X021409Y011011D02*
X021098Y010700D01*
X018692Y012232D02*
X018673Y012252D01*
X017334Y012252D01*
X017137Y012252D02*
X017137Y012055D01*
X017236Y011956D01*
X018102Y011956D01*
X018141Y011996D01*
X018535Y011996D01*
X018574Y011956D01*
X017157Y011759D02*
X016941Y011976D01*
X016941Y012252D01*
X016350Y011700D02*
X016488Y011563D01*
X016488Y011346D01*
X016350Y011700D02*
X016350Y012252D01*
X015720Y012488D02*
X015641Y012488D01*
X015622Y012468D01*
X015622Y012074D01*
X015503Y011956D01*
X014637Y012842D02*
X014539Y012744D01*
X014224Y013059D01*
X013503Y013059D01*
X013145Y012700D01*
X013590Y013256D02*
X014027Y013256D01*
X014342Y013570D01*
X014441Y013669D01*
X015720Y013669D01*
X015720Y013472D02*
X014736Y013472D01*
X014637Y013374D01*
X014637Y012842D01*
X013590Y013256D02*
X013145Y013700D01*
X014500Y014752D02*
X014775Y014476D01*
X015228Y014476D01*
X014519Y014752D02*
X014500Y014752D01*
X014519Y014752D02*
X013570Y015700D01*
X013145Y015700D01*
X013145Y020669D02*
X014157Y020669D01*
X014539Y021051D01*
X015031Y021543D01*
X015031Y023059D01*
X015228Y023256D01*
X015228Y024043D01*
X015425Y024240D01*
X015425Y024555D01*
X015523Y024653D01*
X015720Y024653D01*
X015720Y024456D02*
X015641Y024456D01*
X015622Y024437D01*
X015622Y024043D01*
X015503Y023925D01*
X015956Y023984D02*
X015425Y023452D01*
X015425Y021917D01*
X015661Y021681D01*
X017196Y021681D01*
X018208Y020669D01*
X020145Y020669D01*
X021098Y020669D02*
X022110Y020669D01*
X022492Y021051D01*
X022984Y021543D01*
X022984Y023059D01*
X023181Y023256D01*
X023181Y024043D01*
X023378Y024240D01*
X023378Y024555D01*
X023476Y024653D01*
X023673Y024653D01*
X023673Y024456D02*
X023594Y024456D01*
X023574Y024437D01*
X023574Y024043D01*
X023456Y023925D01*
X023909Y023984D02*
X023378Y023452D01*
X023378Y021917D01*
X023614Y021681D01*
X025149Y021681D01*
X026161Y020669D01*
X028098Y020669D01*
X029051Y020669D02*
X030063Y020669D01*
X030444Y021051D01*
X030937Y021543D01*
X030937Y023059D01*
X031133Y023256D01*
X031133Y024043D01*
X031330Y024240D01*
X031330Y024555D01*
X031429Y024653D01*
X031626Y024653D01*
X031626Y024456D02*
X031547Y024456D01*
X031527Y024437D01*
X031527Y024043D01*
X031409Y023925D01*
X031862Y023984D02*
X031330Y023452D01*
X031330Y021917D01*
X031566Y021681D01*
X033102Y021681D01*
X034114Y020669D01*
X036051Y020669D01*
X036051Y021669D02*
X036027Y021669D01*
X036015Y021681D01*
X034559Y021681D01*
X034362Y021878D01*
X031724Y021878D01*
X031527Y022074D01*
X031527Y023334D01*
X032059Y023866D01*
X032059Y024220D01*
X032255Y024220D02*
X032255Y023669D01*
X032393Y023531D01*
X032393Y023315D01*
X032708Y023531D02*
X032708Y022744D01*
X032315Y022756D02*
X033102Y022756D01*
X033102Y022852D02*
X032315Y022852D01*
X032315Y022901D02*
X033102Y022901D01*
X033102Y022507D01*
X032315Y022507D01*
X032315Y022901D01*
X032315Y022659D02*
X033102Y022659D01*
X033102Y022562D02*
X032315Y022562D01*
X033023Y023354D02*
X032905Y023472D01*
X032905Y023610D01*
X032649Y023866D01*
X032649Y024220D01*
X032452Y024220D02*
X032452Y023787D01*
X032708Y023531D01*
X033063Y023728D02*
X032846Y023944D01*
X032846Y024220D01*
X033043Y024220D02*
X033043Y024023D01*
X033141Y023925D01*
X034007Y023925D01*
X034047Y023964D01*
X034441Y023964D01*
X034480Y023925D01*
X034834Y023925D01*
X035070Y023689D01*
X036031Y023689D01*
X036051Y023669D01*
X035641Y024456D02*
X035854Y024669D01*
X036051Y024669D01*
X035641Y024456D02*
X033476Y024456D01*
X033476Y024653D02*
X034893Y024653D01*
X035909Y025669D01*
X036051Y025669D01*
X035740Y026169D02*
X035740Y026358D01*
X036051Y026669D01*
X035740Y026169D02*
X035346Y025775D01*
X035346Y025381D01*
X034815Y024850D01*
X033476Y024850D01*
X033476Y025047D02*
X034657Y025047D01*
X035070Y025460D01*
X035149Y025933D02*
X035228Y025933D01*
X035543Y026248D01*
X035543Y027862D01*
X035700Y028019D01*
X035700Y028319D01*
X036051Y028669D01*
X035503Y029200D02*
X035503Y028098D01*
X035346Y027941D01*
X035346Y026326D01*
X035149Y026130D01*
X035070Y026130D01*
X034381Y025441D01*
X033476Y025441D01*
X033476Y025637D02*
X034303Y025637D01*
X035070Y026405D01*
X034795Y026405D02*
X034795Y026523D01*
X035070Y026799D01*
X034874Y027193D02*
X035070Y027389D01*
X035070Y027547D01*
X034874Y027744D02*
X034628Y027744D01*
X034628Y027941D02*
X034322Y027941D01*
X034126Y028137D01*
X034027Y028039D01*
X034027Y027537D01*
X034224Y027537D02*
X034224Y027448D01*
X034283Y027389D01*
X034677Y027389D01*
X034755Y027468D01*
X034874Y027193D02*
X033968Y027193D01*
X033771Y027389D01*
X033063Y027389D01*
X032649Y026976D01*
X032649Y026070D01*
X032452Y026070D02*
X032452Y026661D01*
X032078Y027035D01*
X030385Y027035D01*
X029913Y027507D01*
X029913Y027862D01*
X029106Y028669D01*
X029051Y028669D01*
X029755Y028413D02*
X030464Y027704D01*
X030759Y027704D01*
X031074Y027389D01*
X031232Y027232D01*
X032315Y027232D01*
X032433Y027114D01*
X032846Y026700D02*
X032944Y026799D01*
X033043Y026799D01*
X033043Y026897D01*
X033259Y027114D01*
X033771Y027114D01*
X033929Y026956D01*
X034519Y026956D01*
X034598Y026878D01*
X034598Y026563D01*
X034322Y026287D01*
X034322Y026641D02*
X034322Y026681D01*
X034322Y026641D02*
X033811Y026130D01*
X033338Y026130D01*
X033279Y026070D01*
X033240Y026070D01*
X033043Y026070D02*
X033043Y026307D01*
X033141Y026405D01*
X032846Y026700D02*
X032846Y026070D01*
X033476Y025834D02*
X034224Y025834D01*
X034795Y026405D01*
X035149Y025933D02*
X034460Y025244D01*
X033476Y025244D01*
X033240Y024220D02*
X034578Y024220D01*
X034598Y024200D01*
X034322Y023689D02*
X034842Y023169D01*
X035051Y023169D01*
X034874Y022704D02*
X036015Y022704D01*
X036051Y022669D01*
X034874Y022704D02*
X033850Y023728D01*
X033063Y023728D01*
X031862Y023984D02*
X031862Y024220D01*
X031626Y024850D02*
X031232Y024850D01*
X031133Y024752D01*
X031133Y024319D01*
X030937Y024122D01*
X030937Y023334D01*
X030740Y023137D01*
X030740Y021976D01*
X030444Y021681D01*
X030129Y021996D01*
X029378Y021996D01*
X029051Y021669D01*
X029051Y022669D02*
X029362Y022980D01*
X030129Y022980D01*
X030444Y022665D01*
X030444Y023157D01*
X030740Y023452D01*
X030740Y024200D01*
X030937Y024397D01*
X030937Y024948D01*
X031035Y025047D01*
X031626Y025047D01*
X031626Y025244D02*
X030838Y025244D01*
X030740Y025145D01*
X030740Y024476D01*
X030444Y024181D01*
X030444Y023689D01*
X030129Y024004D01*
X029385Y024004D01*
X029051Y023669D01*
X028098Y023669D02*
X028078Y023689D01*
X027118Y023689D01*
X026881Y023925D01*
X026527Y023925D01*
X026488Y023964D01*
X026094Y023964D01*
X026055Y023925D01*
X025189Y023925D01*
X025090Y024023D01*
X025090Y024220D01*
X024893Y024220D02*
X024893Y023944D01*
X025110Y023728D01*
X025897Y023728D01*
X026921Y022704D01*
X028063Y022704D01*
X028098Y022669D01*
X028063Y021681D02*
X026606Y021681D01*
X026409Y021878D01*
X023771Y021878D01*
X023574Y022074D01*
X023574Y023334D01*
X024106Y023866D01*
X024106Y024220D01*
X024303Y024220D02*
X024303Y023669D01*
X024441Y023531D01*
X024441Y023315D01*
X024755Y023531D02*
X024755Y022744D01*
X024362Y022756D02*
X025149Y022756D01*
X025149Y022852D02*
X024362Y022852D01*
X024362Y022901D02*
X025149Y022901D01*
X025149Y022507D01*
X024362Y022507D01*
X024362Y022901D01*
X024362Y022659D02*
X025149Y022659D01*
X025149Y022562D02*
X024362Y022562D01*
X025070Y023354D02*
X024952Y023472D01*
X024952Y023610D01*
X024696Y023866D01*
X024696Y024220D01*
X024500Y024220D02*
X024500Y023787D01*
X024755Y023531D01*
X025287Y024220D02*
X026626Y024220D01*
X026645Y024200D01*
X026941Y024653D02*
X025523Y024653D01*
X025523Y024456D02*
X027689Y024456D01*
X027901Y024669D01*
X028098Y024669D01*
X027393Y025381D02*
X027393Y025775D01*
X027787Y026169D01*
X027787Y026358D01*
X028098Y026669D01*
X027590Y026248D02*
X027590Y027862D01*
X027748Y028019D01*
X027748Y028319D01*
X028098Y028669D01*
X027551Y029200D02*
X027551Y028098D01*
X027393Y027941D01*
X027393Y026326D01*
X027196Y026130D01*
X027118Y026130D01*
X026429Y025441D01*
X025523Y025441D01*
X025523Y025637D02*
X026350Y025637D01*
X027118Y026405D01*
X026842Y026405D02*
X026842Y026523D01*
X027118Y026799D01*
X026921Y027193D02*
X027118Y027389D01*
X027118Y027547D01*
X026921Y027744D02*
X026675Y027744D01*
X026675Y027941D02*
X026370Y027941D01*
X026173Y028137D01*
X026074Y028039D01*
X026074Y027537D01*
X026271Y027537D02*
X026271Y027448D01*
X026330Y027389D01*
X026724Y027389D01*
X026803Y027468D01*
X026921Y027193D02*
X026015Y027193D01*
X025818Y027389D01*
X025110Y027389D01*
X024696Y026976D01*
X024696Y026070D01*
X024500Y026070D02*
X024500Y026661D01*
X024126Y027035D01*
X022433Y027035D01*
X021960Y027507D01*
X021960Y027862D01*
X021153Y028669D01*
X021098Y028669D01*
X021803Y028413D02*
X022511Y027704D01*
X022807Y027704D01*
X023122Y027389D01*
X023279Y027232D01*
X024362Y027232D01*
X024480Y027114D01*
X024893Y026700D02*
X024992Y026799D01*
X025090Y026799D01*
X025090Y026897D01*
X025307Y027114D01*
X025818Y027114D01*
X025976Y026956D01*
X026566Y026956D01*
X026645Y026878D01*
X026645Y026563D01*
X026370Y026287D01*
X026370Y026641D02*
X026370Y026681D01*
X026370Y026641D02*
X025858Y026130D01*
X025385Y026130D01*
X025326Y026070D01*
X025287Y026070D01*
X025090Y026070D02*
X025090Y026307D01*
X025189Y026405D01*
X024893Y026700D02*
X024893Y026070D01*
X025523Y025834D02*
X026271Y025834D01*
X026842Y026405D01*
X027196Y025933D02*
X027275Y025933D01*
X027590Y026248D01*
X027196Y025933D02*
X026507Y025244D01*
X025523Y025244D01*
X025523Y025047D02*
X026704Y025047D01*
X027118Y025460D01*
X027393Y025381D02*
X026862Y024850D01*
X025523Y024850D01*
X026370Y023689D02*
X026889Y023169D01*
X027098Y023169D01*
X026941Y024653D02*
X027956Y025669D01*
X028098Y025669D01*
X029051Y025669D02*
X029496Y025224D01*
X029933Y025224D01*
X030248Y025539D01*
X030346Y025637D01*
X031626Y025637D01*
X031626Y025441D02*
X030641Y025441D01*
X030543Y025342D01*
X030543Y024811D01*
X030444Y024712D01*
X030129Y025027D01*
X029409Y025027D01*
X029051Y024669D01*
X030405Y026090D02*
X030090Y026405D01*
X029322Y026405D01*
X029059Y026669D01*
X029051Y026669D01*
X029051Y027669D02*
X029476Y027669D01*
X030425Y026720D01*
X030405Y026720D01*
X030681Y026444D01*
X031133Y026444D01*
X031507Y026070D01*
X031862Y026070D01*
X032059Y026070D02*
X032059Y026267D01*
X031960Y026366D01*
X031724Y026366D01*
X031448Y026641D01*
X031842Y026641D02*
X032118Y026641D01*
X032255Y026504D01*
X032255Y026070D01*
X031626Y025834D02*
X031429Y025834D01*
X031173Y026090D01*
X030405Y026090D01*
X031010Y027704D02*
X030897Y027817D01*
X030897Y028104D01*
X030917Y028124D01*
X030917Y028702D01*
X030842Y028777D01*
X030519Y028777D01*
X030494Y028751D01*
X030494Y028781D01*
X030419Y028856D01*
X029992Y028856D01*
X029992Y029279D01*
X030444Y029279D01*
X030444Y029147D01*
X030519Y029072D01*
X030842Y029072D01*
X030917Y029147D01*
X030917Y029279D01*
X031192Y029279D01*
X031192Y029147D01*
X031267Y029072D01*
X031590Y029072D01*
X031665Y029147D01*
X031665Y029210D01*
X031714Y029210D01*
X031714Y029187D01*
X031789Y029112D01*
X032201Y029112D01*
X032217Y028441D01*
X032181Y028478D01*
X032133Y028497D01*
X032071Y028560D01*
X031974Y028600D01*
X031868Y028600D01*
X031820Y028580D01*
X031708Y028580D01*
X031667Y028622D01*
X031665Y028622D01*
X031665Y028702D01*
X031590Y028777D01*
X031267Y028777D01*
X031192Y028702D01*
X031192Y028124D01*
X031267Y028049D01*
X031590Y028049D01*
X031629Y028088D01*
X031734Y028088D01*
X031734Y027844D01*
X031753Y027797D01*
X031753Y027704D01*
X031010Y027704D01*
X030919Y027796D02*
X031753Y027796D01*
X031734Y027893D02*
X030897Y027893D01*
X030897Y027989D02*
X031734Y027989D01*
X031734Y028086D02*
X031628Y028086D01*
X031230Y028086D02*
X030897Y028086D01*
X030917Y028183D02*
X031192Y028183D01*
X031192Y028280D02*
X030917Y028280D01*
X030917Y028377D02*
X031192Y028377D01*
X031192Y028474D02*
X030917Y028474D01*
X030917Y028571D02*
X031192Y028571D01*
X031192Y028668D02*
X030917Y028668D01*
X030854Y028765D02*
X031255Y028765D01*
X031602Y028765D02*
X032209Y028765D01*
X032207Y028862D02*
X029992Y028862D01*
X029992Y028959D02*
X032204Y028959D01*
X032202Y029056D02*
X029992Y029056D01*
X029992Y029153D02*
X030444Y029153D01*
X030444Y029250D02*
X029992Y029250D01*
X029755Y028964D02*
X029755Y028413D01*
X030189Y028413D02*
X030189Y028590D01*
X030189Y028413D02*
X030681Y028413D01*
X030507Y028765D02*
X030494Y028765D01*
X029755Y028964D02*
X029051Y029669D01*
X028098Y029669D02*
X028019Y029669D01*
X027551Y029200D01*
X027354Y029555D02*
X027354Y028177D01*
X026921Y027744D01*
X027039Y028137D02*
X026675Y028137D01*
X026675Y028334D02*
X026881Y028334D01*
X026960Y028413D01*
X026960Y028649D01*
X026763Y028846D01*
X026675Y028531D02*
X026448Y028531D01*
X026330Y028413D02*
X026330Y028295D01*
X026173Y028137D01*
X026074Y028236D01*
X026074Y028738D01*
X025966Y028738D01*
X025858Y028846D01*
X025878Y028862D02*
X025543Y028862D01*
X025543Y028860D02*
X025543Y029988D01*
X026330Y029988D01*
X026309Y029368D01*
X025903Y029368D01*
X025828Y029293D01*
X025828Y028911D01*
X025893Y028846D01*
X025557Y028846D01*
X025543Y028860D01*
X025543Y028959D02*
X025828Y028959D01*
X025828Y029056D02*
X025543Y029056D01*
X025543Y029153D02*
X025828Y029153D01*
X025828Y029250D02*
X025543Y029250D01*
X025543Y029346D02*
X025882Y029346D01*
X026133Y029102D02*
X026271Y028964D01*
X026271Y028738D01*
X026173Y028137D02*
X025671Y028137D01*
X025671Y027941D02*
X025425Y027941D01*
X025346Y028019D01*
X025425Y028334D02*
X025671Y028334D01*
X025671Y028531D02*
X025622Y028531D01*
X025098Y029055D01*
X025098Y030669D01*
X024598Y030854D02*
X024283Y031169D01*
X023378Y031169D01*
X023098Y030889D01*
X023098Y030669D01*
X022826Y029870D02*
X022728Y029771D01*
X022728Y029437D01*
X022964Y029279D02*
X022964Y029147D01*
X022889Y029072D01*
X022567Y029072D01*
X022492Y029147D01*
X022492Y029279D01*
X022039Y029279D01*
X022039Y028856D01*
X022466Y028856D01*
X022541Y028781D01*
X022541Y028751D01*
X022567Y028777D01*
X022889Y028777D01*
X022964Y028702D01*
X022964Y028124D01*
X022944Y028104D01*
X022944Y027817D01*
X023057Y027704D01*
X023801Y027704D01*
X023801Y027797D01*
X023781Y027844D01*
X023781Y028088D01*
X023677Y028088D01*
X023637Y028049D01*
X023315Y028049D01*
X023240Y028124D01*
X023240Y028702D01*
X023315Y028777D01*
X023637Y028777D01*
X023712Y028702D01*
X023712Y028622D01*
X023714Y028622D01*
X023755Y028580D01*
X023868Y028580D01*
X023915Y028600D01*
X024021Y028600D01*
X024119Y028560D01*
X024181Y028497D01*
X024228Y028478D01*
X024265Y028441D01*
X024248Y029112D01*
X023836Y029112D01*
X023761Y029187D01*
X023761Y029210D01*
X023712Y029210D01*
X023712Y029147D01*
X023637Y029072D01*
X023315Y029072D01*
X023240Y029147D01*
X023240Y029279D01*
X022964Y029279D01*
X022964Y029250D02*
X023240Y029250D01*
X023240Y029153D02*
X022964Y029153D01*
X022901Y028765D02*
X023302Y028765D01*
X023240Y028668D02*
X022964Y028668D01*
X022964Y028571D02*
X023240Y028571D01*
X023240Y028474D02*
X022964Y028474D01*
X022964Y028377D02*
X023240Y028377D01*
X023240Y028280D02*
X022964Y028280D01*
X022964Y028183D02*
X023240Y028183D01*
X023277Y028086D02*
X022944Y028086D01*
X022944Y027989D02*
X023781Y027989D01*
X023781Y027893D02*
X022944Y027893D01*
X022966Y027796D02*
X023801Y027796D01*
X023781Y028086D02*
X023675Y028086D01*
X024232Y028474D02*
X024264Y028474D01*
X024261Y028571D02*
X024091Y028571D01*
X024259Y028668D02*
X023712Y028668D01*
X023649Y028765D02*
X024257Y028765D01*
X024254Y028862D02*
X022039Y028862D01*
X022039Y028959D02*
X024252Y028959D01*
X024249Y029056D02*
X022039Y029056D01*
X022039Y029153D02*
X022492Y029153D01*
X022492Y029250D02*
X022039Y029250D01*
X021803Y028964D02*
X021803Y028413D01*
X022236Y028413D02*
X022236Y028590D01*
X022236Y028413D02*
X022728Y028413D01*
X022554Y028765D02*
X022541Y028765D01*
X021803Y028964D02*
X021098Y029669D01*
X020145Y029669D02*
X020066Y029669D01*
X019598Y029200D01*
X019598Y028098D01*
X019441Y027941D01*
X019441Y026326D01*
X019244Y026130D01*
X019165Y026130D01*
X018476Y025441D01*
X017570Y025441D01*
X017570Y025637D02*
X018397Y025637D01*
X019165Y026405D01*
X018889Y026405D02*
X018889Y026523D01*
X019165Y026799D01*
X018968Y027193D02*
X019165Y027389D01*
X019165Y027547D01*
X018968Y027744D02*
X018722Y027744D01*
X018722Y027941D02*
X018417Y027941D01*
X018220Y028137D01*
X018122Y028039D01*
X018122Y027537D01*
X018318Y027537D02*
X018318Y027448D01*
X018378Y027389D01*
X018771Y027389D01*
X018850Y027468D01*
X018968Y027193D02*
X018063Y027193D01*
X017866Y027389D01*
X017157Y027389D01*
X016744Y026976D01*
X016744Y026070D01*
X016941Y026070D02*
X016941Y026700D01*
X017039Y026799D01*
X017137Y026799D01*
X017137Y026897D01*
X017354Y027114D01*
X017866Y027114D01*
X018023Y026956D01*
X018614Y026956D01*
X018692Y026878D01*
X018692Y026563D01*
X018417Y026287D01*
X018417Y026641D02*
X018417Y026681D01*
X018417Y026641D02*
X017905Y026130D01*
X017433Y026130D01*
X017374Y026070D01*
X017334Y026070D01*
X017137Y026070D02*
X017137Y026307D01*
X017236Y026405D01*
X017570Y025834D02*
X018318Y025834D01*
X018889Y026405D01*
X019244Y025933D02*
X019322Y025933D01*
X019637Y026248D01*
X019637Y027862D01*
X019795Y028019D01*
X019795Y028319D01*
X020145Y028669D01*
X019401Y028177D02*
X019401Y029555D01*
X019145Y029811D01*
X019145Y030669D01*
X018378Y029988D02*
X018356Y029368D01*
X017950Y029368D01*
X017876Y029293D01*
X017876Y028911D01*
X017941Y028846D01*
X017604Y028846D01*
X017590Y028860D01*
X017590Y029988D01*
X018378Y029988D01*
X018375Y029928D02*
X017590Y029928D01*
X017590Y029831D02*
X018372Y029831D01*
X018369Y029734D02*
X017590Y029734D01*
X017590Y029637D02*
X018365Y029637D01*
X018362Y029540D02*
X017590Y029540D01*
X017590Y029443D02*
X018359Y029443D01*
X018181Y029102D02*
X018318Y028964D01*
X018318Y028738D01*
X018122Y028738D02*
X018122Y028236D01*
X018220Y028137D01*
X017718Y028137D01*
X017718Y027941D02*
X017472Y027941D01*
X017393Y028019D01*
X017472Y028334D02*
X017718Y028334D01*
X017718Y028531D02*
X017669Y028531D01*
X017145Y029055D01*
X017145Y030669D01*
X016645Y030854D02*
X016330Y031169D01*
X015425Y031169D01*
X015145Y030889D01*
X015145Y030669D01*
X014874Y029870D02*
X014775Y029771D01*
X014775Y029437D01*
X014539Y029279D02*
X014539Y029147D01*
X014614Y029072D01*
X014936Y029072D01*
X015011Y029147D01*
X015011Y029279D01*
X015287Y029279D01*
X015287Y029147D01*
X015362Y029072D01*
X015684Y029072D01*
X015759Y029147D01*
X015759Y029210D01*
X015809Y029210D01*
X015809Y029187D01*
X015884Y029112D01*
X016295Y029112D01*
X016312Y028441D01*
X016275Y028478D01*
X016228Y028497D01*
X016166Y028560D01*
X016068Y028600D01*
X015962Y028600D01*
X015915Y028580D01*
X015802Y028580D01*
X015761Y028622D01*
X015759Y028622D01*
X015759Y028702D01*
X015684Y028777D01*
X015362Y028777D01*
X015287Y028702D01*
X015287Y028124D01*
X015362Y028049D01*
X015684Y028049D01*
X015724Y028088D01*
X015828Y028088D01*
X015828Y027844D01*
X015848Y027797D01*
X015848Y027704D01*
X015104Y027704D01*
X014992Y027817D01*
X014992Y028104D01*
X015011Y028124D01*
X015011Y028702D01*
X014936Y028777D01*
X014614Y028777D01*
X014588Y028751D01*
X014588Y028781D01*
X014513Y028856D01*
X014086Y028856D01*
X014086Y029279D01*
X014539Y029279D01*
X014539Y029250D02*
X014086Y029250D01*
X014086Y029153D02*
X014539Y029153D01*
X014588Y028765D02*
X014602Y028765D01*
X014949Y028765D02*
X015350Y028765D01*
X015287Y028668D02*
X015011Y028668D01*
X015011Y028571D02*
X015287Y028571D01*
X015287Y028474D02*
X015011Y028474D01*
X015011Y028377D02*
X015287Y028377D01*
X015287Y028280D02*
X015011Y028280D01*
X015011Y028183D02*
X015287Y028183D01*
X015324Y028086D02*
X014992Y028086D01*
X014992Y027989D02*
X015828Y027989D01*
X015828Y027893D02*
X014992Y027893D01*
X015013Y027796D02*
X015848Y027796D01*
X015828Y028086D02*
X015722Y028086D01*
X016279Y028474D02*
X016311Y028474D01*
X016309Y028571D02*
X016138Y028571D01*
X016306Y028668D02*
X015759Y028668D01*
X015697Y028765D02*
X016304Y028765D01*
X016301Y028862D02*
X014086Y028862D01*
X014086Y028959D02*
X016299Y028959D01*
X016296Y029056D02*
X014086Y029056D01*
X013850Y028964D02*
X013850Y028413D01*
X014559Y027704D01*
X014854Y027704D01*
X015169Y027389D01*
X015326Y027232D01*
X016409Y027232D01*
X016527Y027114D01*
X016173Y027035D02*
X014480Y027035D01*
X014007Y027507D01*
X014007Y027862D01*
X013200Y028669D01*
X013145Y028669D01*
X013850Y028964D02*
X013145Y029669D01*
X012192Y029669D02*
X012114Y029669D01*
X011645Y029200D01*
X011645Y028098D01*
X011488Y027941D01*
X011488Y026326D01*
X011291Y026130D01*
X011212Y026130D01*
X010523Y025441D01*
X009618Y025441D01*
X009618Y025637D02*
X010444Y025637D01*
X011212Y026405D01*
X010937Y026405D02*
X010937Y026523D01*
X011212Y026799D01*
X011015Y027193D02*
X011212Y027389D01*
X011212Y027547D01*
X011015Y027744D02*
X010769Y027744D01*
X010769Y027941D02*
X010464Y027941D01*
X010267Y028137D01*
X010169Y028039D01*
X010169Y027537D01*
X010366Y027537D02*
X010366Y027448D01*
X010425Y027389D01*
X010818Y027389D01*
X010897Y027468D01*
X011015Y027193D02*
X010110Y027193D01*
X009913Y027389D01*
X009204Y027389D01*
X008791Y026976D01*
X008791Y026070D01*
X008988Y026070D02*
X008988Y026700D01*
X009086Y026799D01*
X009185Y026799D01*
X009185Y026897D01*
X009401Y027114D01*
X009913Y027114D01*
X010070Y026956D01*
X010661Y026956D01*
X010740Y026878D01*
X010740Y026563D01*
X010464Y026287D01*
X010464Y026641D02*
X010464Y026681D01*
X010464Y026641D02*
X009952Y026130D01*
X009480Y026130D01*
X009421Y026070D01*
X009381Y026070D01*
X009185Y026070D02*
X009185Y026307D01*
X009283Y026405D01*
X009618Y025834D02*
X010366Y025834D01*
X010937Y026405D01*
X011291Y025933D02*
X011370Y025933D01*
X011685Y026248D01*
X011685Y027862D01*
X011842Y028019D01*
X011842Y028319D01*
X012192Y028669D01*
X011448Y028177D02*
X011015Y027744D01*
X011133Y028137D02*
X010769Y028137D01*
X010769Y028334D02*
X010976Y028334D01*
X011055Y028413D01*
X011055Y028649D01*
X010858Y028846D01*
X010769Y028531D02*
X010543Y028531D01*
X010425Y028413D02*
X010425Y028295D01*
X010267Y028137D01*
X010169Y028236D01*
X010169Y028738D01*
X010061Y028738D01*
X009952Y028846D01*
X009972Y028862D02*
X009637Y028862D01*
X009637Y028860D02*
X009637Y029988D01*
X010425Y029988D01*
X010403Y029368D01*
X009998Y029368D01*
X009923Y029293D01*
X009923Y028911D01*
X009988Y028846D01*
X009652Y028846D01*
X009637Y028860D01*
X009637Y028959D02*
X009923Y028959D01*
X009923Y029056D02*
X009637Y029056D01*
X009637Y029153D02*
X009923Y029153D01*
X009923Y029250D02*
X009637Y029250D01*
X009637Y029346D02*
X009976Y029346D01*
X010228Y029102D02*
X010366Y028964D01*
X010366Y028738D01*
X010267Y028137D02*
X009765Y028137D01*
X009765Y027941D02*
X009519Y027941D01*
X009441Y028019D01*
X009519Y028334D02*
X009765Y028334D01*
X009765Y028531D02*
X009716Y028531D01*
X009192Y029055D01*
X009192Y030669D01*
X008692Y030854D02*
X008692Y030067D01*
X008889Y029870D01*
X008889Y027901D01*
X009047Y027744D01*
X009765Y027744D01*
X009519Y028334D02*
X009441Y028374D01*
X008359Y028441D02*
X008323Y028478D01*
X008275Y028497D01*
X008213Y028560D01*
X008115Y028600D01*
X008010Y028600D01*
X007962Y028580D01*
X007850Y028580D01*
X007808Y028622D01*
X007807Y028622D01*
X007807Y028702D01*
X007732Y028777D01*
X007409Y028777D01*
X007334Y028702D01*
X007334Y028124D01*
X007409Y028049D01*
X007732Y028049D01*
X007771Y028088D01*
X007876Y028088D01*
X007876Y027844D01*
X007895Y027797D01*
X007895Y027704D01*
X007152Y027704D01*
X007039Y027817D01*
X007039Y028104D01*
X007059Y028124D01*
X007059Y028702D01*
X006984Y028777D01*
X006661Y028777D01*
X006635Y028751D01*
X006635Y028781D01*
X006560Y028856D01*
X006133Y028856D01*
X006133Y029279D01*
X006586Y029279D01*
X006586Y029147D01*
X006661Y029072D01*
X006984Y029072D01*
X007059Y029147D01*
X007059Y029279D01*
X007334Y029279D01*
X007334Y029147D01*
X007409Y029072D01*
X007732Y029072D01*
X007807Y029147D01*
X007807Y029210D01*
X007856Y029210D01*
X007856Y029187D01*
X007931Y029112D01*
X008342Y029112D01*
X008359Y028441D01*
X008358Y028474D02*
X008326Y028474D01*
X008356Y028571D02*
X008185Y028571D01*
X008353Y028668D02*
X007807Y028668D01*
X007744Y028765D02*
X008351Y028765D01*
X008349Y028862D02*
X006133Y028862D01*
X006133Y028959D02*
X008346Y028959D01*
X008344Y029056D02*
X006133Y029056D01*
X006133Y029153D02*
X006586Y029153D01*
X006586Y029250D02*
X006133Y029250D01*
X005897Y028964D02*
X005897Y028413D01*
X006606Y027704D01*
X006901Y027704D01*
X007216Y027389D01*
X007374Y027232D01*
X008456Y027232D01*
X008574Y027114D01*
X008220Y027035D02*
X006527Y027035D01*
X006055Y027507D01*
X006055Y027862D01*
X005248Y028669D01*
X005192Y028669D01*
X005897Y028964D02*
X005192Y029669D01*
X006330Y028590D02*
X006330Y028413D01*
X006822Y028413D01*
X007059Y028377D02*
X007334Y028377D01*
X007334Y028280D02*
X007059Y028280D01*
X007059Y028183D02*
X007334Y028183D01*
X007372Y028086D02*
X007039Y028086D01*
X007039Y027989D02*
X007876Y027989D01*
X007876Y027893D02*
X007039Y027893D01*
X007060Y027796D02*
X007895Y027796D01*
X007876Y028086D02*
X007769Y028086D01*
X007334Y028474D02*
X007059Y028474D01*
X007059Y028571D02*
X007334Y028571D01*
X007334Y028668D02*
X007059Y028668D01*
X006996Y028765D02*
X007397Y028765D01*
X007334Y029153D02*
X007059Y029153D01*
X007059Y029250D02*
X007334Y029250D01*
X007570Y029437D02*
X007570Y029811D01*
X007511Y029870D01*
X006921Y029870D01*
X006822Y029771D01*
X006822Y029437D01*
X006649Y028765D02*
X006635Y028765D01*
X007807Y029153D02*
X007890Y029153D01*
X007192Y030669D02*
X007192Y030889D01*
X007472Y031169D01*
X008378Y031169D01*
X008692Y030854D01*
X009637Y029928D02*
X010423Y029928D01*
X010419Y029831D02*
X009637Y029831D01*
X009637Y029734D02*
X010416Y029734D01*
X010413Y029637D02*
X009637Y029637D01*
X009637Y029540D02*
X010409Y029540D01*
X010406Y029443D02*
X009637Y029443D01*
X010192Y030535D02*
X010192Y030669D01*
X010192Y030535D02*
X011252Y029476D01*
X011252Y028256D01*
X011133Y028137D01*
X011448Y028177D02*
X011448Y029555D01*
X011192Y029811D01*
X011192Y030669D01*
X014283Y028590D02*
X014283Y028413D01*
X014775Y028413D01*
X015011Y029153D02*
X015287Y029153D01*
X015287Y029250D02*
X015011Y029250D01*
X015523Y029437D02*
X015523Y029811D01*
X015464Y029870D01*
X014874Y029870D01*
X015759Y029153D02*
X015843Y029153D01*
X016645Y030067D02*
X016842Y029870D01*
X016842Y027901D01*
X017000Y027744D01*
X017718Y027744D01*
X018220Y028137D02*
X018378Y028295D01*
X018378Y028413D01*
X018496Y028531D02*
X018722Y028531D01*
X018722Y028334D02*
X018929Y028334D01*
X019007Y028413D01*
X019007Y028649D01*
X018811Y028846D01*
X019204Y028256D02*
X019204Y029476D01*
X018145Y030535D01*
X018145Y030669D01*
X017929Y029346D02*
X017590Y029346D01*
X017590Y029250D02*
X017876Y029250D01*
X017876Y029153D02*
X017590Y029153D01*
X017590Y029056D02*
X017876Y029056D01*
X017876Y028959D02*
X017590Y028959D01*
X017590Y028862D02*
X017925Y028862D01*
X017905Y028846D02*
X018013Y028738D01*
X018122Y028738D01*
X017472Y028334D02*
X017393Y028374D01*
X018722Y028137D02*
X019086Y028137D01*
X019204Y028256D01*
X019401Y028177D02*
X018968Y027744D01*
X020145Y026669D02*
X019834Y026358D01*
X019834Y026169D01*
X019441Y025775D01*
X019441Y025381D01*
X018909Y024850D01*
X017570Y024850D01*
X017570Y024653D02*
X018988Y024653D01*
X020003Y025669D01*
X020145Y025669D01*
X019244Y025933D02*
X018555Y025244D01*
X017570Y025244D01*
X017570Y025047D02*
X018752Y025047D01*
X019165Y025460D01*
X019948Y024669D02*
X020145Y024669D01*
X019948Y024669D02*
X019736Y024456D01*
X017570Y024456D01*
X017334Y024220D02*
X018673Y024220D01*
X018692Y024200D01*
X018535Y023964D02*
X018574Y023925D01*
X018929Y023925D01*
X019165Y023689D01*
X020126Y023689D01*
X020145Y023669D01*
X019145Y023169D02*
X018937Y023169D01*
X018417Y023689D01*
X018535Y023964D02*
X018141Y023964D01*
X018102Y023925D01*
X017236Y023925D01*
X017137Y024023D01*
X017137Y024220D01*
X016941Y024220D02*
X016941Y023944D01*
X017157Y023728D01*
X017944Y023728D01*
X018968Y022704D01*
X020110Y022704D01*
X020145Y022669D01*
X020110Y021681D02*
X018653Y021681D01*
X018456Y021878D01*
X015818Y021878D01*
X015622Y022074D01*
X015622Y023334D01*
X016153Y023866D01*
X016153Y024220D01*
X015956Y024220D02*
X015956Y023984D01*
X016350Y024220D02*
X016350Y023669D01*
X016488Y023531D01*
X016488Y023315D01*
X016803Y023531D02*
X016547Y023787D01*
X016547Y024220D01*
X016744Y024220D02*
X016744Y023866D01*
X017000Y023610D01*
X017000Y023472D01*
X017118Y023354D01*
X016803Y023531D02*
X016803Y022744D01*
X017196Y022756D02*
X016409Y022756D01*
X016409Y022852D02*
X017196Y022852D01*
X017196Y022901D02*
X017196Y022507D01*
X016409Y022507D01*
X016409Y022901D01*
X017196Y022901D01*
X017196Y022659D02*
X016409Y022659D01*
X016409Y022562D02*
X017196Y022562D01*
X015031Y023334D02*
X014834Y023137D01*
X014834Y021976D01*
X014539Y021681D01*
X014224Y021996D01*
X013472Y021996D01*
X013145Y021669D01*
X013145Y022669D02*
X013456Y022980D01*
X014224Y022980D01*
X014539Y022665D01*
X014539Y023157D01*
X014834Y023452D01*
X014834Y024200D01*
X015031Y024397D01*
X015031Y024948D01*
X015129Y025047D01*
X015720Y025047D01*
X015720Y025244D02*
X014933Y025244D01*
X014834Y025145D01*
X014834Y024476D01*
X014539Y024181D01*
X014539Y023689D01*
X014224Y024004D01*
X013480Y024004D01*
X013145Y023669D01*
X012192Y023669D02*
X012173Y023689D01*
X011212Y023689D01*
X010976Y023925D01*
X010622Y023925D01*
X010582Y023964D01*
X010189Y023964D01*
X010149Y023925D01*
X009283Y023925D01*
X009185Y024023D01*
X009185Y024220D01*
X009381Y024220D02*
X010720Y024220D01*
X010740Y024200D01*
X011035Y024653D02*
X009618Y024653D01*
X009618Y024456D02*
X011783Y024456D01*
X011996Y024669D01*
X012192Y024669D01*
X011488Y025381D02*
X011488Y025775D01*
X011881Y026169D01*
X011881Y026358D01*
X012192Y026669D01*
X012192Y025669D02*
X012051Y025669D01*
X011035Y024653D01*
X010956Y024850D02*
X011488Y025381D01*
X011212Y025460D02*
X010799Y025047D01*
X009618Y025047D01*
X009618Y025244D02*
X010602Y025244D01*
X011291Y025933D01*
X010956Y024850D02*
X009618Y024850D01*
X008988Y024220D02*
X008988Y023944D01*
X009204Y023728D01*
X009992Y023728D01*
X011015Y022704D01*
X012157Y022704D01*
X012192Y022669D01*
X012157Y021681D02*
X010700Y021681D01*
X010503Y021878D01*
X007866Y021878D01*
X007669Y022074D01*
X007669Y023334D01*
X008200Y023866D01*
X008200Y024220D01*
X008003Y024220D02*
X008003Y023984D01*
X007472Y023452D01*
X007472Y021917D01*
X007708Y021681D01*
X009244Y021681D01*
X010255Y020669D01*
X012192Y020669D01*
X012192Y021669D02*
X012169Y021669D01*
X012157Y021681D01*
X011192Y023169D02*
X010984Y023169D01*
X010464Y023689D01*
X009165Y023354D02*
X009047Y023472D01*
X009047Y023610D01*
X008791Y023866D01*
X008791Y024220D01*
X008594Y024220D02*
X008594Y023787D01*
X008850Y023531D01*
X008850Y022744D01*
X008456Y022756D02*
X009244Y022756D01*
X009244Y022852D02*
X008456Y022852D01*
X008456Y022901D02*
X009244Y022901D01*
X009244Y022507D01*
X008456Y022507D01*
X008456Y022901D01*
X008456Y022659D02*
X009244Y022659D01*
X009244Y022562D02*
X008456Y022562D01*
X008535Y023315D02*
X008535Y023531D01*
X008397Y023669D01*
X008397Y024220D01*
X007767Y024456D02*
X007689Y024456D01*
X007669Y024437D01*
X007669Y024043D01*
X007551Y023925D01*
X007275Y024043D02*
X007275Y023256D01*
X007078Y023059D01*
X007078Y021543D01*
X006586Y021051D01*
X006204Y020669D01*
X005192Y020669D01*
X005192Y021669D02*
X005519Y021996D01*
X006271Y021996D01*
X006586Y021681D01*
X006881Y021976D01*
X006881Y023137D01*
X007078Y023334D01*
X007078Y024122D01*
X007275Y024319D01*
X007275Y024752D01*
X007374Y024850D01*
X007767Y024850D01*
X007767Y024653D02*
X007570Y024653D01*
X007472Y024555D01*
X007472Y024240D01*
X007275Y024043D01*
X007078Y024397D02*
X006881Y024200D01*
X006881Y023452D01*
X006586Y023157D01*
X006586Y022665D01*
X006271Y022980D01*
X005503Y022980D01*
X005192Y022669D01*
X005192Y023669D02*
X005527Y024004D01*
X006271Y024004D01*
X006586Y023689D01*
X006586Y024181D01*
X006881Y024476D01*
X006881Y025145D01*
X006980Y025244D01*
X007767Y025244D01*
X007767Y025441D02*
X006783Y025441D01*
X006685Y025342D01*
X006685Y024811D01*
X006586Y024712D01*
X006271Y025027D01*
X005551Y025027D01*
X005192Y024669D01*
X005637Y025224D02*
X006074Y025224D01*
X006389Y025539D01*
X006488Y025637D01*
X007767Y025637D01*
X007767Y025834D02*
X007570Y025834D01*
X007315Y026090D01*
X006547Y026090D01*
X006232Y026405D01*
X005464Y026405D01*
X005200Y026669D01*
X005192Y026669D01*
X005192Y025669D02*
X005637Y025224D01*
X007078Y024948D02*
X007078Y024397D01*
X007078Y024948D02*
X007177Y025047D01*
X007767Y025047D01*
X007649Y026070D02*
X007275Y026444D01*
X006822Y026444D01*
X006547Y026720D01*
X006566Y026720D01*
X005618Y027669D01*
X005192Y027669D01*
X007590Y026641D02*
X007866Y026366D01*
X008102Y026366D01*
X008200Y026267D01*
X008200Y026070D01*
X008003Y026070D02*
X007649Y026070D01*
X007984Y026641D02*
X008259Y026641D01*
X008397Y026504D01*
X008397Y026070D01*
X008594Y026070D02*
X008594Y026661D01*
X008220Y027035D01*
X013145Y026669D02*
X013153Y026669D01*
X013417Y026405D01*
X014185Y026405D01*
X014500Y026090D01*
X015267Y026090D01*
X015523Y025834D01*
X015720Y025834D01*
X015720Y025637D02*
X014441Y025637D01*
X014342Y025539D01*
X014027Y025224D01*
X013590Y025224D01*
X013145Y025669D01*
X013503Y025027D02*
X013145Y024669D01*
X013503Y025027D02*
X014224Y025027D01*
X014539Y024712D01*
X014637Y024811D01*
X014637Y025342D01*
X014736Y025441D01*
X015720Y025441D01*
X015720Y024850D02*
X015326Y024850D01*
X015228Y024752D01*
X015228Y024319D01*
X015031Y024122D01*
X015031Y023334D01*
X015602Y026070D02*
X015228Y026444D01*
X014775Y026444D01*
X014500Y026720D01*
X014519Y026720D01*
X013570Y027669D01*
X013145Y027669D01*
X015543Y026641D02*
X015818Y026366D01*
X016055Y026366D01*
X016153Y026267D01*
X016153Y026070D01*
X015956Y026070D02*
X015602Y026070D01*
X015937Y026641D02*
X016212Y026641D01*
X016350Y026504D01*
X016350Y026070D01*
X016547Y026070D02*
X016547Y026661D01*
X016173Y027035D01*
X016645Y030067D02*
X016645Y030854D01*
X021098Y027669D02*
X021523Y027669D01*
X022472Y026720D01*
X022452Y026720D01*
X022728Y026444D01*
X023181Y026444D01*
X023555Y026070D01*
X023909Y026070D01*
X024106Y026070D02*
X024106Y026267D01*
X024007Y026366D01*
X023771Y026366D01*
X023496Y026641D01*
X023889Y026641D02*
X024165Y026641D01*
X024303Y026504D01*
X024303Y026070D01*
X023673Y025834D02*
X023476Y025834D01*
X023220Y026090D01*
X022452Y026090D01*
X022137Y026405D01*
X021370Y026405D01*
X021106Y026669D01*
X021098Y026669D01*
X021098Y025669D02*
X021543Y025224D01*
X021980Y025224D01*
X022295Y025539D01*
X022393Y025637D01*
X023673Y025637D01*
X023673Y025441D02*
X022689Y025441D01*
X022590Y025342D01*
X022590Y024811D01*
X022492Y024712D01*
X022177Y025027D01*
X021456Y025027D01*
X021098Y024669D01*
X021433Y024004D02*
X022177Y024004D01*
X022492Y023689D01*
X022492Y024181D01*
X022787Y024476D01*
X022787Y025145D01*
X022885Y025244D01*
X023673Y025244D01*
X023673Y025047D02*
X023082Y025047D01*
X022984Y024948D01*
X022984Y024397D01*
X022787Y024200D01*
X022787Y023452D01*
X022492Y023157D01*
X022492Y022665D01*
X022177Y022980D01*
X021409Y022980D01*
X021098Y022669D01*
X021425Y021996D02*
X022177Y021996D01*
X022492Y021681D01*
X022787Y021976D01*
X022787Y023137D01*
X022984Y023334D01*
X022984Y024122D01*
X023181Y024319D01*
X023181Y024752D01*
X023279Y024850D01*
X023673Y024850D01*
X023909Y024220D02*
X023909Y023984D01*
X021433Y024004D02*
X021098Y023669D01*
X021425Y021996D02*
X021098Y021669D01*
X020145Y021669D02*
X020122Y021669D01*
X020110Y021681D01*
X024952Y027744D02*
X025671Y027744D01*
X025425Y028334D02*
X025346Y028374D01*
X024795Y027901D02*
X024952Y027744D01*
X024795Y027901D02*
X024795Y029870D01*
X024598Y030067D01*
X024598Y030854D01*
X025543Y029928D02*
X026328Y029928D01*
X026325Y029831D02*
X025543Y029831D01*
X025543Y029734D02*
X026322Y029734D01*
X026318Y029637D02*
X025543Y029637D01*
X025543Y029540D02*
X026315Y029540D01*
X026311Y029443D02*
X025543Y029443D01*
X026098Y030535D02*
X026098Y030669D01*
X026098Y030535D02*
X027157Y029476D01*
X027157Y028256D01*
X027039Y028137D01*
X027354Y029555D02*
X027098Y029811D01*
X027098Y030669D01*
X023796Y029153D02*
X023712Y029153D01*
X023476Y029437D02*
X023476Y029811D01*
X023417Y029870D01*
X022826Y029870D01*
X030681Y029771D02*
X030681Y029437D01*
X030917Y029250D02*
X031192Y029250D01*
X031192Y029153D02*
X030917Y029153D01*
X031429Y029437D02*
X031429Y029811D01*
X031370Y029870D01*
X030779Y029870D01*
X030681Y029771D01*
X031051Y030669D02*
X031051Y030889D01*
X031330Y031169D01*
X032236Y031169D01*
X032551Y030854D01*
X032551Y030067D01*
X032748Y029870D01*
X032748Y027901D01*
X032905Y027744D01*
X033624Y027744D01*
X033624Y027941D02*
X033378Y027941D01*
X033299Y028019D01*
X033378Y028334D02*
X033624Y028334D01*
X033624Y028137D02*
X034126Y028137D01*
X034027Y028236D01*
X034027Y028738D01*
X033919Y028738D01*
X033811Y028846D01*
X033830Y028862D02*
X033496Y028862D01*
X033496Y028860D02*
X033496Y029988D01*
X034283Y029988D01*
X034262Y029368D01*
X033856Y029368D01*
X033781Y029293D01*
X033781Y028911D01*
X033846Y028846D01*
X033510Y028846D01*
X033496Y028860D01*
X033496Y028959D02*
X033781Y028959D01*
X033781Y029056D02*
X033496Y029056D01*
X033496Y029153D02*
X033781Y029153D01*
X033781Y029250D02*
X033496Y029250D01*
X033496Y029346D02*
X033835Y029346D01*
X034086Y029102D02*
X034224Y028964D01*
X034224Y028738D01*
X034401Y028531D02*
X034628Y028531D01*
X034628Y028334D02*
X034834Y028334D01*
X034913Y028413D01*
X034913Y028649D01*
X034716Y028846D01*
X035110Y028256D02*
X034992Y028137D01*
X034628Y028137D01*
X034283Y028295D02*
X034126Y028137D01*
X034283Y028295D02*
X034283Y028413D01*
X033624Y028531D02*
X033574Y028531D01*
X033051Y029055D01*
X033051Y030669D01*
X033496Y029928D02*
X034281Y029928D01*
X034278Y029831D02*
X033496Y029831D01*
X033496Y029734D02*
X034274Y029734D01*
X034271Y029637D02*
X033496Y029637D01*
X033496Y029540D02*
X034268Y029540D01*
X034264Y029443D02*
X033496Y029443D01*
X033299Y028374D02*
X033378Y028334D01*
X032217Y028474D02*
X032185Y028474D01*
X032214Y028571D02*
X032044Y028571D01*
X032212Y028668D02*
X031665Y028668D01*
X031665Y029153D02*
X031748Y029153D01*
X034051Y030535D02*
X034051Y030669D01*
X034051Y030535D02*
X035110Y029476D01*
X035110Y028256D01*
X035307Y028177D02*
X034874Y027744D01*
X035307Y028177D02*
X035307Y029555D01*
X035051Y029811D01*
X035051Y030669D01*
X035972Y029669D02*
X035503Y029200D01*
X035972Y029669D02*
X036051Y029669D01*
X028098Y021669D02*
X028074Y021669D01*
X028063Y021681D01*
X031051Y018921D02*
X031330Y019200D01*
X032236Y019200D01*
X032551Y018885D01*
X031051Y018921D02*
X031051Y018700D01*
X031547Y012488D02*
X031527Y012468D01*
X031527Y012074D01*
X031409Y011956D01*
X031862Y012015D02*
X031330Y011484D01*
X031862Y012015D02*
X031862Y012252D01*
X031626Y012488D02*
X031547Y012488D01*
X033063Y011759D02*
X033850Y011759D01*
X034874Y010736D01*
X036015Y010736D01*
X036051Y010700D01*
X035051Y011200D02*
X034842Y011200D01*
X034322Y011720D01*
X034598Y012232D02*
X034578Y012252D01*
X033240Y012252D01*
D24*
X033338Y011444D02*
X033082Y011444D01*
X033023Y011385D01*
X032393Y011346D02*
X032216Y011346D01*
X032039Y011523D01*
X033574Y014515D02*
X033555Y014535D01*
X033555Y014830D01*
X032157Y015933D02*
X032019Y015933D01*
X032019Y016267D02*
X031921Y016366D01*
X031606Y016366D01*
X031527Y016444D01*
X031429Y017468D02*
X031448Y017488D01*
X032039Y017488D01*
X034086Y017645D02*
X034126Y017704D01*
X034086Y017133D02*
X034106Y017114D01*
X034441Y017114D01*
X030563Y015421D02*
X030385Y015421D01*
X030189Y015618D01*
X026488Y017114D02*
X026153Y017114D01*
X026133Y017133D01*
X026133Y017645D02*
X026173Y017704D01*
X024086Y017488D02*
X023496Y017488D01*
X023476Y017468D01*
X023574Y016444D02*
X023653Y016366D01*
X023968Y016366D01*
X024066Y016267D01*
X024066Y015933D02*
X024204Y015933D01*
X022610Y015421D02*
X022433Y015421D01*
X022236Y015618D01*
X025602Y014830D02*
X025602Y014535D01*
X025622Y014515D01*
X025385Y011444D02*
X025129Y011444D01*
X025070Y011385D01*
X024441Y011346D02*
X024263Y011346D01*
X024086Y011523D01*
X018535Y017114D02*
X018200Y017114D01*
X018181Y017133D01*
X018181Y017645D02*
X018220Y017704D01*
X016133Y017488D02*
X015543Y017488D01*
X015523Y017468D01*
X015622Y016444D02*
X015700Y016366D01*
X016015Y016366D01*
X016114Y016267D01*
X016114Y015933D02*
X016252Y015933D01*
X014657Y015421D02*
X014480Y015421D01*
X014283Y015618D01*
X017649Y014830D02*
X017649Y014535D01*
X017669Y014515D01*
X017433Y011444D02*
X017177Y011444D01*
X017118Y011385D01*
X016488Y011346D02*
X016311Y011346D01*
X016133Y011523D01*
X010582Y017114D02*
X010248Y017114D01*
X010228Y017133D01*
X010228Y017645D02*
X010267Y017704D01*
X008181Y017488D02*
X007590Y017488D01*
X007570Y017468D01*
X007669Y016444D02*
X007748Y016366D01*
X008063Y016366D01*
X008161Y016267D01*
X008161Y015933D02*
X008299Y015933D01*
X006704Y015421D02*
X006527Y015421D01*
X006330Y015618D01*
X009696Y014830D02*
X009696Y014535D01*
X009716Y014515D01*
X009480Y011444D02*
X009224Y011444D01*
X009165Y011385D01*
X008535Y011346D02*
X008358Y011346D01*
X008181Y011523D01*
X008358Y023315D02*
X008181Y023492D01*
X008358Y023315D02*
X008535Y023315D01*
X009165Y023354D02*
X009224Y023413D01*
X009480Y023413D01*
X009716Y026484D02*
X009696Y026504D01*
X009696Y026799D01*
X008299Y027901D02*
X008161Y027901D01*
X008161Y028236D02*
X008063Y028334D01*
X007748Y028334D01*
X007669Y028413D01*
X007570Y029437D02*
X007590Y029456D01*
X008181Y029456D01*
X010228Y029614D02*
X010267Y029673D01*
X010228Y029102D02*
X010248Y029082D01*
X010582Y029082D01*
X014283Y027586D02*
X014480Y027389D01*
X014657Y027389D01*
X015622Y028413D02*
X015700Y028334D01*
X016015Y028334D01*
X016114Y028236D01*
X016114Y027901D02*
X016252Y027901D01*
X016133Y029456D02*
X015543Y029456D01*
X015523Y029437D01*
X018181Y029614D02*
X018220Y029673D01*
X018181Y029102D02*
X018200Y029082D01*
X018535Y029082D01*
X017649Y026799D02*
X017649Y026504D01*
X017669Y026484D01*
X016133Y023492D02*
X016311Y023315D01*
X016488Y023315D01*
X017118Y023354D02*
X017177Y023413D01*
X017433Y023413D01*
X022236Y027586D02*
X022433Y027389D01*
X022610Y027389D01*
X023574Y028413D02*
X023653Y028334D01*
X023968Y028334D01*
X024066Y028236D01*
X024066Y027901D02*
X024204Y027901D01*
X024086Y029456D02*
X023496Y029456D01*
X023476Y029437D01*
X026133Y029614D02*
X026173Y029673D01*
X026133Y029102D02*
X026153Y029082D01*
X026488Y029082D01*
X025602Y026799D02*
X025602Y026504D01*
X025622Y026484D01*
X024086Y023492D02*
X024263Y023315D01*
X024441Y023315D01*
X025070Y023354D02*
X025129Y023413D01*
X025385Y023413D01*
X030189Y027586D02*
X030385Y027389D01*
X030563Y027389D01*
X031527Y028413D02*
X031606Y028334D01*
X031921Y028334D01*
X032019Y028236D01*
X032019Y027901D02*
X032157Y027901D01*
X032039Y029456D02*
X031448Y029456D01*
X031429Y029437D01*
X034086Y029614D02*
X034126Y029673D01*
X034086Y029102D02*
X034106Y029082D01*
X034441Y029082D01*
X033555Y026799D02*
X033555Y026504D01*
X033574Y026484D01*
X032039Y023492D02*
X032216Y023315D01*
X032393Y023315D01*
X033023Y023354D02*
X033082Y023413D01*
X033338Y023413D01*
X006704Y027389D02*
X006527Y027389D01*
X006330Y027586D01*
D25*
X008161Y027901D02*
X008161Y028236D01*
X008299Y027901D02*
X008574Y027626D01*
X008574Y027901D01*
X008574Y028177D01*
X008299Y027901D01*
X008181Y029456D02*
X008181Y029870D01*
X008181Y030439D01*
X008192Y030669D01*
X010267Y029830D02*
X010267Y029673D01*
X016133Y029870D02*
X016133Y029456D01*
X016133Y029870D02*
X016133Y030439D01*
X016145Y030669D01*
X018220Y029830D02*
X018220Y029673D01*
X016527Y028177D02*
X016252Y027901D01*
X016527Y027626D01*
X016527Y027901D01*
X016527Y028177D01*
X016114Y028236D02*
X016114Y027901D01*
X024066Y027901D02*
X024066Y028236D01*
X024204Y027901D02*
X024480Y027626D01*
X024480Y027901D01*
X024480Y028177D01*
X024204Y027901D01*
X024086Y029456D02*
X024086Y029870D01*
X024086Y030439D01*
X024098Y030669D01*
X026173Y029830D02*
X026173Y029673D01*
X032019Y028236D02*
X032019Y027901D01*
X032157Y027901D02*
X032433Y027626D01*
X032433Y027901D01*
X032433Y028177D01*
X032157Y027901D01*
X032039Y029456D02*
X032039Y029870D01*
X032039Y030439D01*
X032051Y030669D01*
X034126Y029830D02*
X034126Y029673D01*
X032051Y018700D02*
X032039Y018470D01*
X032039Y017901D01*
X032039Y017488D01*
X032019Y016267D02*
X032019Y015933D01*
X032157Y015933D02*
X032433Y015657D01*
X032433Y015933D01*
X032433Y016208D01*
X032157Y015933D01*
X034126Y017704D02*
X034126Y017862D01*
X026173Y017862D02*
X026173Y017704D01*
X024086Y017901D02*
X024086Y017488D01*
X024086Y017901D02*
X024086Y018470D01*
X024098Y018700D01*
X024066Y016267D02*
X024066Y015933D01*
X024204Y015933D02*
X024480Y015657D01*
X024480Y015933D01*
X024480Y016208D01*
X024204Y015933D01*
X018220Y017704D02*
X018220Y017862D01*
X016133Y017901D02*
X016133Y017488D01*
X016133Y017901D02*
X016133Y018470D01*
X016145Y018700D01*
X016114Y016267D02*
X016114Y015933D01*
X016252Y015933D02*
X016527Y015657D01*
X016527Y015933D01*
X016527Y016208D01*
X016252Y015933D01*
X010267Y017704D02*
X010267Y017862D01*
X008181Y017901D02*
X008181Y017488D01*
X008181Y017901D02*
X008181Y018470D01*
X008192Y018700D01*
X008161Y016267D02*
X008161Y015933D01*
X008299Y015933D02*
X008574Y015657D01*
X008574Y015933D01*
X008574Y016208D01*
X008299Y015933D01*
D26*
X007669Y016444D02*
X007570Y016444D01*
X006035Y014752D02*
X005779Y014752D01*
X005779Y014122D02*
X006035Y014122D01*
X005878Y014023D02*
X005779Y014122D01*
X005878Y014023D02*
X005878Y013570D01*
X006074Y012744D02*
X006074Y012409D01*
X006094Y012389D01*
X006074Y011720D02*
X006074Y011425D01*
X006094Y011405D01*
X006074Y010696D02*
X006074Y010401D01*
X006094Y010381D01*
X006074Y009712D02*
X006074Y009417D01*
X006094Y009397D01*
X006074Y009378D01*
X006074Y009082D01*
X007944Y010185D02*
X007944Y011287D01*
X008181Y011523D01*
X014027Y011425D02*
X014047Y011405D01*
X014027Y011425D02*
X014027Y011720D01*
X014047Y012389D02*
X014027Y012409D01*
X014027Y012744D01*
X013830Y013570D02*
X013830Y014023D01*
X013732Y014122D01*
X013988Y014122D01*
X013988Y014752D02*
X013732Y014752D01*
X015523Y016444D02*
X015622Y016444D01*
X014027Y021051D02*
X014027Y021346D01*
X014047Y021366D01*
X014027Y021385D01*
X014027Y021681D01*
X014047Y022350D02*
X014027Y022370D01*
X014027Y022665D01*
X014047Y023374D02*
X014027Y023393D01*
X014027Y023689D01*
X014047Y024358D02*
X014027Y024378D01*
X014027Y024712D01*
X013830Y025539D02*
X013830Y025992D01*
X013732Y026090D01*
X013988Y026090D01*
X013988Y026720D02*
X013732Y026720D01*
X015523Y028413D02*
X015622Y028413D01*
X016133Y023492D02*
X015897Y023256D01*
X015897Y022153D01*
X021685Y026090D02*
X021941Y026090D01*
X021783Y025992D02*
X021685Y026090D01*
X021783Y025992D02*
X021783Y025539D01*
X021980Y024712D02*
X021980Y024378D01*
X022000Y024358D01*
X021980Y023689D02*
X021980Y023393D01*
X022000Y023374D01*
X021980Y022665D02*
X021980Y022370D01*
X022000Y022350D01*
X021980Y021681D02*
X021980Y021385D01*
X022000Y021366D01*
X021980Y021346D01*
X021980Y021051D01*
X023850Y022153D02*
X023850Y023256D01*
X024086Y023492D01*
X021941Y026720D02*
X021685Y026720D01*
X023476Y028413D02*
X023574Y028413D01*
X029637Y026720D02*
X029893Y026720D01*
X029893Y026090D02*
X029637Y026090D01*
X029736Y025992D01*
X029736Y025539D01*
X029933Y024712D02*
X029933Y024378D01*
X029952Y024358D01*
X029933Y023689D02*
X029933Y023393D01*
X029952Y023374D01*
X029933Y022665D02*
X029933Y022370D01*
X029952Y022350D01*
X029933Y021681D02*
X029933Y021385D01*
X029952Y021366D01*
X029933Y021346D01*
X029933Y021051D01*
X031803Y022153D02*
X031803Y023256D01*
X032039Y023492D01*
X031527Y028413D02*
X031429Y028413D01*
X031429Y016444D02*
X031527Y016444D01*
X029893Y014752D02*
X029637Y014752D01*
X029637Y014122D02*
X029893Y014122D01*
X029736Y014023D02*
X029637Y014122D01*
X029736Y014023D02*
X029736Y013570D01*
X029933Y012744D02*
X029933Y012409D01*
X029952Y012389D01*
X029933Y011720D02*
X029933Y011425D01*
X029952Y011405D01*
X029933Y010696D02*
X029933Y010401D01*
X029952Y010381D01*
X029933Y009712D02*
X029933Y009417D01*
X029952Y009397D01*
X029933Y009378D01*
X029933Y009082D01*
X031803Y010185D02*
X031803Y011287D01*
X032039Y011523D01*
X024086Y011523D02*
X023850Y011287D01*
X023850Y010185D01*
X022000Y010381D02*
X021980Y010401D01*
X021980Y010696D01*
X022000Y011405D02*
X021980Y011425D01*
X021980Y011720D01*
X022000Y012389D02*
X021980Y012409D01*
X021980Y012744D01*
X021783Y013570D02*
X021783Y014023D01*
X021685Y014122D01*
X021941Y014122D01*
X021941Y014752D02*
X021685Y014752D01*
X023476Y016444D02*
X023574Y016444D01*
X021980Y009712D02*
X021980Y009417D01*
X022000Y009397D01*
X021980Y009378D01*
X021980Y009082D01*
X016133Y011523D02*
X015897Y011287D01*
X015897Y010185D01*
X014047Y010381D02*
X014027Y010401D01*
X014027Y010696D01*
X014027Y009712D02*
X014027Y009417D01*
X014047Y009397D01*
X014027Y009378D01*
X014027Y009082D01*
X006074Y021051D02*
X006074Y021346D01*
X006094Y021366D01*
X006074Y021385D01*
X006074Y021681D01*
X006094Y022350D02*
X006074Y022370D01*
X006074Y022665D01*
X006094Y023374D02*
X006074Y023393D01*
X006074Y023689D01*
X006094Y024358D02*
X006074Y024378D01*
X006074Y024712D01*
X005878Y025539D02*
X005878Y025992D01*
X005779Y026090D01*
X006035Y026090D01*
X006035Y026720D02*
X005779Y026720D01*
X007570Y028413D02*
X007669Y028413D01*
X008181Y023492D02*
X007944Y023256D01*
X007944Y022153D01*
M02*
