G75*
%MOIN*%
%OFA0B0*%
%FSLAX24Y24*%
%IPPOS*%
%LPD*%
%AMOC8*
5,1,8,0,0,1.08239X$1,22.5*
%
%ADD10C,0.1655*%
%ADD11OC8,0.0671*%
D10*
X006685Y006405D03*
X034559Y006405D03*
X034559Y033964D03*
X006685Y033964D03*
D11*
X005192Y031669D03*
X005192Y030669D03*
X005192Y029669D03*
X005192Y028669D03*
X005192Y027669D03*
X005192Y026669D03*
X005192Y025669D03*
X005192Y024669D03*
X005192Y023669D03*
X005192Y022669D03*
X005192Y021669D03*
X005192Y020669D03*
X005192Y019700D03*
X005192Y018700D03*
X005192Y017700D03*
X005192Y016700D03*
X005192Y015700D03*
X005192Y014700D03*
X005192Y013700D03*
X005192Y012700D03*
X005192Y011700D03*
X005192Y010700D03*
X005192Y009700D03*
X005192Y008700D03*
X011192Y010200D03*
X012192Y009700D03*
X012192Y008700D03*
X013145Y008700D03*
X013145Y009700D03*
X013145Y010700D03*
X012192Y010700D03*
X011192Y011200D03*
X012192Y011700D03*
X013145Y011700D03*
X013145Y012700D03*
X013145Y013700D03*
X012192Y013700D03*
X012192Y012700D03*
X012192Y014700D03*
X013145Y014700D03*
X013145Y015700D03*
X012192Y015700D03*
X012192Y016700D03*
X013145Y016700D03*
X013145Y017700D03*
X013145Y018700D03*
X012192Y018700D03*
X011192Y018700D03*
X012192Y017700D03*
X012192Y019700D03*
X013145Y019700D03*
X013145Y020669D03*
X012192Y020669D03*
X012192Y021669D03*
X012192Y022669D03*
X011192Y023169D03*
X012192Y023669D03*
X013145Y023669D03*
X013145Y024669D03*
X012192Y024669D03*
X012192Y025669D03*
X012192Y026669D03*
X013145Y026669D03*
X013145Y025669D03*
X013145Y027669D03*
X012192Y027669D03*
X012192Y028669D03*
X013145Y028669D03*
X013145Y029669D03*
X012192Y029669D03*
X012192Y030669D03*
X011192Y030669D03*
X012192Y031669D03*
X013145Y031669D03*
X013145Y030669D03*
X014145Y030669D03*
X015145Y030669D03*
X016145Y030669D03*
X017145Y030669D03*
X018145Y030669D03*
X019145Y030669D03*
X020145Y030669D03*
X020145Y031669D03*
X021098Y031669D03*
X021098Y030669D03*
X022098Y030669D03*
X023098Y030669D03*
X024098Y030669D03*
X025098Y030669D03*
X026098Y030669D03*
X027098Y030669D03*
X028098Y030669D03*
X028098Y031669D03*
X029051Y031669D03*
X029051Y030669D03*
X030051Y030669D03*
X031051Y030669D03*
X032051Y030669D03*
X033051Y030669D03*
X034051Y030669D03*
X035051Y030669D03*
X036051Y030669D03*
X036051Y031669D03*
X036051Y029669D03*
X036051Y028669D03*
X036051Y027669D03*
X036051Y026669D03*
X036051Y025669D03*
X036051Y024669D03*
X036051Y023669D03*
X036051Y022669D03*
X036051Y021669D03*
X036051Y020669D03*
X036051Y019700D03*
X036051Y018700D03*
X036051Y017700D03*
X036051Y016700D03*
X036051Y015700D03*
X036051Y014700D03*
X036051Y013700D03*
X036051Y012700D03*
X036051Y011700D03*
X036051Y010700D03*
X036051Y009700D03*
X036051Y008700D03*
X035051Y010200D03*
X035051Y011200D03*
X029051Y010700D03*
X028098Y010700D03*
X027098Y010200D03*
X028098Y009700D03*
X028098Y008700D03*
X029051Y008700D03*
X029051Y009700D03*
X027098Y011200D03*
X028098Y011700D03*
X029051Y011700D03*
X029051Y012700D03*
X029051Y013700D03*
X028098Y013700D03*
X028098Y012700D03*
X028098Y014700D03*
X029051Y014700D03*
X029051Y015700D03*
X028098Y015700D03*
X028098Y016700D03*
X029051Y016700D03*
X029051Y017700D03*
X029051Y018700D03*
X030051Y018700D03*
X031051Y018700D03*
X032051Y018700D03*
X033051Y018700D03*
X034051Y018700D03*
X035051Y018700D03*
X035051Y022169D03*
X035051Y023169D03*
X029051Y023669D03*
X028098Y023669D03*
X027098Y023169D03*
X028098Y022669D03*
X028098Y021669D03*
X027098Y022169D03*
X028098Y020669D03*
X029051Y020669D03*
X029051Y019700D03*
X028098Y019700D03*
X028098Y018700D03*
X028098Y017700D03*
X027098Y018700D03*
X026098Y018700D03*
X025098Y018700D03*
X024098Y018700D03*
X023098Y018700D03*
X022098Y018700D03*
X021098Y018700D03*
X021098Y017700D03*
X020145Y017700D03*
X020145Y018700D03*
X019145Y018700D03*
X018145Y018700D03*
X017145Y018700D03*
X016145Y018700D03*
X015145Y018700D03*
X014145Y018700D03*
X013145Y021669D03*
X013145Y022669D03*
X011192Y022169D03*
X010192Y018700D03*
X009192Y018700D03*
X008192Y018700D03*
X007192Y018700D03*
X006192Y018700D03*
X006192Y030669D03*
X007192Y030669D03*
X008192Y030669D03*
X009192Y030669D03*
X010192Y030669D03*
X019145Y023169D03*
X020145Y023669D03*
X021098Y023669D03*
X021098Y024669D03*
X020145Y024669D03*
X020145Y025669D03*
X020145Y026669D03*
X021098Y026669D03*
X021098Y025669D03*
X021098Y027669D03*
X020145Y027669D03*
X020145Y028669D03*
X021098Y028669D03*
X021098Y029669D03*
X020145Y029669D03*
X020145Y022669D03*
X020145Y021669D03*
X019145Y022169D03*
X020145Y020669D03*
X021098Y020669D03*
X021098Y019700D03*
X020145Y019700D03*
X021098Y021669D03*
X021098Y022669D03*
X021098Y016700D03*
X020145Y016700D03*
X020145Y015700D03*
X021098Y015700D03*
X021098Y014700D03*
X020145Y014700D03*
X020145Y013700D03*
X020145Y012700D03*
X021098Y012700D03*
X021098Y013700D03*
X021098Y011700D03*
X020145Y011700D03*
X019145Y011200D03*
X020145Y010700D03*
X019145Y010200D03*
X020145Y009700D03*
X020145Y008700D03*
X021098Y008700D03*
X021098Y009700D03*
X021098Y010700D03*
X029051Y021669D03*
X029051Y022669D03*
X029051Y024669D03*
X028098Y024669D03*
X028098Y025669D03*
X028098Y026669D03*
X029051Y026669D03*
X029051Y025669D03*
X029051Y027669D03*
X028098Y027669D03*
X028098Y028669D03*
X029051Y028669D03*
X029051Y029669D03*
X028098Y029669D03*
M02*
