G75*
%MOIN*%
%OFA0B0*%
%FSLAX24Y24*%
%IPPOS*%
%LPD*%
%AMOC8*
5,1,8,0,0,1.08239X$1,22.5*
%
%ADD10C,0.1340*%
%ADD11R,0.0787X0.0787*%
%ADD12OC8,0.0671*%
%ADD13R,0.1378X0.1378*%
%ADD14R,0.0138X0.0492*%
%ADD15R,0.0492X0.0138*%
%ADD16R,0.0315X0.0315*%
%ADD17C,0.0050*%
%ADD18C,0.0580*%
%ADD19C,0.0867*%
%ADD20R,0.0197X0.0315*%
%ADD21R,0.0315X0.0197*%
%ADD22R,0.0492X0.0177*%
%ADD23R,0.0709X0.0709*%
%ADD24R,0.0512X0.0591*%
D10*
X007557Y006405D03*
X007557Y035696D03*
X044092Y035696D03*
X044092Y006405D03*
D11*
X038659Y006011D03*
X037872Y006011D03*
X037872Y006799D03*
X038659Y006799D03*
X013463Y006799D03*
X012675Y006799D03*
X012675Y006011D03*
X013463Y006011D03*
X014644Y035303D03*
X015431Y035303D03*
X015431Y036090D03*
X014644Y036090D03*
D12*
X016805Y032811D03*
X016805Y031811D03*
X015805Y031811D03*
X014805Y031811D03*
X013805Y031811D03*
X012805Y031811D03*
X011805Y031811D03*
X010805Y031811D03*
X009805Y031811D03*
X009805Y030811D03*
X009805Y029811D03*
X009805Y028811D03*
X009805Y027811D03*
X009805Y026811D03*
X009805Y025811D03*
X009805Y024811D03*
X009805Y023811D03*
X009805Y022811D03*
X009805Y021811D03*
X009805Y020291D03*
X009805Y019291D03*
X009805Y018291D03*
X009805Y017291D03*
X009805Y016291D03*
X009805Y015291D03*
X009805Y014291D03*
X009805Y013291D03*
X009805Y012291D03*
X009805Y011291D03*
X009805Y010291D03*
X009805Y009291D03*
X014805Y010791D03*
X015805Y010791D03*
X016805Y011291D03*
X016805Y010291D03*
X016805Y009291D03*
X018152Y009291D03*
X018152Y010291D03*
X018152Y011291D03*
X018152Y012291D03*
X018152Y013291D03*
X018152Y014291D03*
X018152Y015291D03*
X018152Y016291D03*
X018152Y017291D03*
X018152Y018291D03*
X018152Y019291D03*
X019152Y019291D03*
X020152Y019291D03*
X021152Y019291D03*
X022152Y019291D03*
X023152Y019291D03*
X024152Y019291D03*
X025152Y019291D03*
X025152Y018291D03*
X025152Y017291D03*
X025152Y016291D03*
X025152Y015291D03*
X025152Y014291D03*
X025152Y013291D03*
X025152Y012291D03*
X024152Y011791D03*
X023152Y011791D03*
X023152Y010791D03*
X024152Y010791D03*
X025152Y011291D03*
X025152Y010291D03*
X025152Y009291D03*
X026498Y009291D03*
X026498Y010291D03*
X026498Y011291D03*
X026498Y012291D03*
X026498Y013291D03*
X026498Y014291D03*
X026498Y015291D03*
X026498Y016291D03*
X026498Y017291D03*
X026498Y018291D03*
X026498Y019291D03*
X027498Y019291D03*
X028498Y019291D03*
X029498Y019291D03*
X030498Y019291D03*
X031498Y019291D03*
X032498Y019291D03*
X033498Y019291D03*
X033498Y018291D03*
X033498Y017291D03*
X033498Y016291D03*
X033498Y015291D03*
X033498Y014291D03*
X033498Y013291D03*
X033498Y012291D03*
X032498Y011791D03*
X031498Y011791D03*
X031498Y010791D03*
X032498Y010791D03*
X033498Y011291D03*
X033498Y010291D03*
X033498Y009291D03*
X034844Y009291D03*
X034844Y010291D03*
X034844Y011291D03*
X034844Y012291D03*
X034844Y013291D03*
X034844Y014291D03*
X034844Y015291D03*
X034844Y016291D03*
X034844Y017291D03*
X034844Y018291D03*
X034844Y019291D03*
X035844Y019291D03*
X036844Y019291D03*
X037844Y019291D03*
X038844Y019291D03*
X039844Y019291D03*
X040844Y019291D03*
X041844Y019291D03*
X041844Y018291D03*
X041844Y017291D03*
X041844Y016291D03*
X041844Y015291D03*
X041844Y014291D03*
X041844Y013291D03*
X041844Y012291D03*
X040844Y011791D03*
X039844Y011791D03*
X039844Y010791D03*
X040844Y010791D03*
X041844Y011291D03*
X041844Y010291D03*
X041844Y009291D03*
X037844Y015791D03*
X036844Y015791D03*
X034844Y020291D03*
X033498Y020291D03*
X033498Y021811D03*
X033498Y022811D03*
X033498Y023811D03*
X032498Y024311D03*
X031498Y024311D03*
X031498Y023311D03*
X032498Y023311D03*
X033498Y024811D03*
X033498Y025811D03*
X033498Y026811D03*
X033498Y027811D03*
X033498Y028811D03*
X033498Y029811D03*
X033498Y030811D03*
X033498Y031811D03*
X032498Y031811D03*
X031498Y031811D03*
X030498Y031811D03*
X029498Y031811D03*
X028498Y031811D03*
X027498Y031811D03*
X026498Y031811D03*
X026498Y030811D03*
X026498Y029811D03*
X026498Y028811D03*
X026498Y027811D03*
X026498Y026811D03*
X026498Y025811D03*
X026498Y024811D03*
X026498Y023811D03*
X026498Y022811D03*
X026498Y021811D03*
X025152Y021811D03*
X025152Y022811D03*
X025152Y023811D03*
X024152Y024311D03*
X023152Y024311D03*
X023152Y023311D03*
X024152Y023311D03*
X025152Y024811D03*
X025152Y025811D03*
X025152Y026811D03*
X025152Y027811D03*
X025152Y028811D03*
X025152Y029811D03*
X025152Y030811D03*
X025152Y031811D03*
X024152Y031811D03*
X023152Y031811D03*
X022152Y031811D03*
X021152Y031811D03*
X020152Y031811D03*
X019152Y031811D03*
X018152Y031811D03*
X018152Y030811D03*
X018152Y029811D03*
X018152Y028811D03*
X018152Y027811D03*
X018152Y026811D03*
X018152Y025811D03*
X018152Y024811D03*
X018152Y023811D03*
X018152Y022811D03*
X018152Y021811D03*
X016805Y021811D03*
X016805Y022811D03*
X016805Y023811D03*
X015805Y024311D03*
X014805Y024311D03*
X014805Y023311D03*
X015805Y023311D03*
X016805Y024811D03*
X016805Y025811D03*
X016805Y026811D03*
X016805Y027811D03*
X016805Y028811D03*
X016805Y029811D03*
X016805Y030811D03*
X018152Y032811D03*
X020152Y028311D03*
X021152Y028311D03*
X025152Y032811D03*
X026498Y032811D03*
X028498Y028311D03*
X029498Y028311D03*
X034844Y028811D03*
X034844Y027811D03*
X034844Y026811D03*
X034844Y025811D03*
X034844Y024811D03*
X034844Y023811D03*
X034844Y022811D03*
X034844Y021811D03*
X039844Y023311D03*
X040844Y023311D03*
X041844Y023811D03*
X041844Y022811D03*
X041844Y021811D03*
X041844Y020291D03*
X040844Y024311D03*
X039844Y024311D03*
X041844Y024811D03*
X041844Y025811D03*
X041844Y026811D03*
X041844Y027811D03*
X041844Y028811D03*
X041844Y029811D03*
X041844Y030811D03*
X041844Y031811D03*
X040844Y031811D03*
X039844Y031811D03*
X038844Y031811D03*
X037844Y031811D03*
X036844Y031811D03*
X035844Y031811D03*
X034844Y031811D03*
X034844Y030811D03*
X034844Y029811D03*
X036844Y028311D03*
X037844Y028311D03*
X034844Y032811D03*
X033498Y032811D03*
X041844Y032811D03*
X026498Y020291D03*
X025152Y020291D03*
X028498Y015791D03*
X029498Y015791D03*
X021152Y015791D03*
X020152Y015791D03*
X016805Y016291D03*
X016805Y015291D03*
X016805Y014291D03*
X016805Y013291D03*
X016805Y012291D03*
X015805Y011791D03*
X014805Y011791D03*
X012805Y015791D03*
X011805Y015791D03*
X011805Y019291D03*
X010805Y019291D03*
X012805Y019291D03*
X013805Y019291D03*
X014805Y019291D03*
X015805Y019291D03*
X016805Y019291D03*
X016805Y018291D03*
X016805Y017291D03*
X016805Y020291D03*
X018152Y020291D03*
X012805Y028311D03*
X011805Y028311D03*
X009805Y032811D03*
D13*
X013659Y026287D03*
X022006Y026287D03*
X030352Y026287D03*
X038699Y026287D03*
X038699Y013767D03*
X030352Y013767D03*
X022006Y013767D03*
X013659Y013767D03*
D14*
X013561Y012724D03*
X013758Y012724D03*
X013955Y012724D03*
X014152Y012724D03*
X014348Y012724D03*
X013364Y012724D03*
X013167Y012724D03*
X012970Y012724D03*
X012970Y014811D03*
X013167Y014811D03*
X013364Y014811D03*
X013561Y014811D03*
X013758Y014811D03*
X013955Y014811D03*
X014152Y014811D03*
X014348Y014811D03*
X021317Y014811D03*
X021514Y014811D03*
X021711Y014811D03*
X021907Y014811D03*
X022104Y014811D03*
X022301Y014811D03*
X022498Y014811D03*
X022695Y014811D03*
X022695Y012724D03*
X022498Y012724D03*
X022301Y012724D03*
X022104Y012724D03*
X021907Y012724D03*
X021711Y012724D03*
X021514Y012724D03*
X021317Y012724D03*
X029663Y012724D03*
X029860Y012724D03*
X030057Y012724D03*
X030254Y012724D03*
X030451Y012724D03*
X030648Y012724D03*
X030844Y012724D03*
X031041Y012724D03*
X031041Y014811D03*
X030844Y014811D03*
X030648Y014811D03*
X030451Y014811D03*
X030254Y014811D03*
X030057Y014811D03*
X029860Y014811D03*
X029663Y014811D03*
X038010Y014811D03*
X038207Y014811D03*
X038403Y014811D03*
X038600Y014811D03*
X038797Y014811D03*
X038994Y014811D03*
X039191Y014811D03*
X039388Y014811D03*
X039388Y012724D03*
X039191Y012724D03*
X038994Y012724D03*
X038797Y012724D03*
X038600Y012724D03*
X038403Y012724D03*
X038207Y012724D03*
X038010Y012724D03*
X038010Y025244D03*
X038207Y025244D03*
X038403Y025244D03*
X038600Y025244D03*
X038797Y025244D03*
X038994Y025244D03*
X039191Y025244D03*
X039388Y025244D03*
X039388Y027330D03*
X039191Y027330D03*
X038994Y027330D03*
X038797Y027330D03*
X038600Y027330D03*
X038403Y027330D03*
X038207Y027330D03*
X038010Y027330D03*
X031041Y027330D03*
X030844Y027330D03*
X030648Y027330D03*
X030451Y027330D03*
X030254Y027330D03*
X030057Y027330D03*
X029860Y027330D03*
X029663Y027330D03*
X029663Y025244D03*
X029860Y025244D03*
X030057Y025244D03*
X030254Y025244D03*
X030451Y025244D03*
X030648Y025244D03*
X030844Y025244D03*
X031041Y025244D03*
X022695Y025244D03*
X022498Y025244D03*
X022301Y025244D03*
X022104Y025244D03*
X021907Y025244D03*
X021711Y025244D03*
X021514Y025244D03*
X021317Y025244D03*
X021317Y027330D03*
X021514Y027330D03*
X021711Y027330D03*
X021907Y027330D03*
X022104Y027330D03*
X022301Y027330D03*
X022498Y027330D03*
X022695Y027330D03*
X014348Y027330D03*
X014152Y027330D03*
X013955Y027330D03*
X013758Y027330D03*
X013561Y027330D03*
X013364Y027330D03*
X013167Y027330D03*
X012970Y027330D03*
X012970Y025244D03*
X013167Y025244D03*
X013364Y025244D03*
X013561Y025244D03*
X013758Y025244D03*
X013955Y025244D03*
X014152Y025244D03*
X014348Y025244D03*
D15*
X014703Y025598D03*
X014703Y025795D03*
X014703Y025992D03*
X014703Y026189D03*
X014703Y026385D03*
X014703Y026582D03*
X014703Y026779D03*
X014703Y026976D03*
X012616Y026976D03*
X012616Y026779D03*
X012616Y026582D03*
X012616Y026385D03*
X012616Y026189D03*
X012616Y025992D03*
X012616Y025795D03*
X012616Y025598D03*
X020963Y025598D03*
X020963Y025795D03*
X020963Y025992D03*
X020963Y026189D03*
X020963Y026385D03*
X020963Y026582D03*
X020963Y026779D03*
X020963Y026976D03*
X023049Y026976D03*
X023049Y026779D03*
X023049Y026582D03*
X023049Y026385D03*
X023049Y026189D03*
X023049Y025992D03*
X023049Y025795D03*
X023049Y025598D03*
X029309Y025598D03*
X029309Y025795D03*
X029309Y025992D03*
X029309Y026189D03*
X029309Y026385D03*
X029309Y026582D03*
X029309Y026779D03*
X029309Y026976D03*
X031396Y026976D03*
X031396Y026779D03*
X031396Y026582D03*
X031396Y026385D03*
X031396Y026189D03*
X031396Y025992D03*
X031396Y025795D03*
X031396Y025598D03*
X037655Y025598D03*
X037655Y025795D03*
X037655Y025992D03*
X037655Y026189D03*
X037655Y026385D03*
X037655Y026582D03*
X037655Y026779D03*
X037655Y026976D03*
X039742Y026976D03*
X039742Y026779D03*
X039742Y026582D03*
X039742Y026385D03*
X039742Y026189D03*
X039742Y025992D03*
X039742Y025795D03*
X039742Y025598D03*
X039742Y014456D03*
X039742Y014259D03*
X039742Y014063D03*
X039742Y013866D03*
X039742Y013669D03*
X039742Y013472D03*
X039742Y013275D03*
X039742Y013078D03*
X037655Y013078D03*
X037655Y013275D03*
X037655Y013472D03*
X037655Y013669D03*
X037655Y013866D03*
X037655Y014063D03*
X037655Y014259D03*
X037655Y014456D03*
X031396Y014456D03*
X031396Y014259D03*
X031396Y014063D03*
X031396Y013866D03*
X031396Y013669D03*
X031396Y013472D03*
X031396Y013275D03*
X031396Y013078D03*
X029309Y013078D03*
X029309Y013275D03*
X029309Y013472D03*
X029309Y013669D03*
X029309Y013866D03*
X029309Y014063D03*
X029309Y014259D03*
X029309Y014456D03*
X023049Y014456D03*
X023049Y014259D03*
X023049Y014063D03*
X023049Y013866D03*
X023049Y013669D03*
X023049Y013472D03*
X023049Y013275D03*
X023049Y013078D03*
X020963Y013078D03*
X020963Y013275D03*
X020963Y013472D03*
X020963Y013669D03*
X020963Y013866D03*
X020963Y014063D03*
X020963Y014259D03*
X020963Y014456D03*
X014703Y014456D03*
X014703Y014259D03*
X014703Y014063D03*
X014703Y013866D03*
X014703Y013669D03*
X014703Y013472D03*
X014703Y013275D03*
X014703Y013078D03*
X012616Y013078D03*
X012616Y013275D03*
X012616Y013472D03*
X012616Y013669D03*
X012616Y013866D03*
X012616Y014063D03*
X012616Y014259D03*
X012616Y014456D03*
D16*
X010707Y014358D03*
X010707Y013885D03*
X010707Y013413D03*
X010707Y012941D03*
X010707Y012468D03*
X010707Y011996D03*
X010707Y011523D03*
X010707Y011051D03*
X010707Y010578D03*
X010707Y010106D03*
X010707Y009633D03*
X010707Y009161D03*
X012439Y010067D03*
X012911Y010067D03*
X013344Y011484D03*
X013777Y011484D03*
X013777Y011956D03*
X013344Y011956D03*
X012715Y012193D03*
X012242Y012193D03*
X010707Y014830D03*
X010707Y015303D03*
X010707Y015775D03*
X010707Y016248D03*
X012518Y016563D03*
X012990Y016563D03*
X014250Y016011D03*
X014722Y016011D03*
X014722Y015460D03*
X014250Y015460D03*
X013699Y017980D03*
X013699Y018452D03*
X012911Y018452D03*
X012911Y017980D03*
X011022Y018256D03*
X010549Y018256D03*
X010707Y021681D03*
X010707Y022153D03*
X010707Y022626D03*
X010707Y023098D03*
X010707Y023570D03*
X010707Y024043D03*
X010707Y024515D03*
X010707Y024988D03*
X010707Y025460D03*
X010707Y025933D03*
X010707Y026405D03*
X010707Y026878D03*
X010707Y027350D03*
X010707Y027822D03*
X010707Y028295D03*
X010707Y028767D03*
X012518Y029082D03*
X012990Y029082D03*
X014250Y028531D03*
X014722Y028531D03*
X014722Y027980D03*
X014250Y027980D03*
X013699Y030500D03*
X013699Y030972D03*
X012911Y030972D03*
X012911Y030500D03*
X011022Y030775D03*
X010549Y030775D03*
X015195Y030736D03*
X015667Y030736D03*
X018896Y030775D03*
X019368Y030775D03*
X021258Y030972D03*
X021258Y030500D03*
X022045Y030500D03*
X022045Y030972D03*
X023541Y030736D03*
X024014Y030736D03*
X023069Y028531D03*
X022596Y028531D03*
X022596Y027980D03*
X023069Y027980D03*
X021337Y029082D03*
X020864Y029082D03*
X019053Y028767D03*
X019053Y028295D03*
X019053Y027822D03*
X019053Y027350D03*
X019053Y026878D03*
X019053Y026405D03*
X019053Y025933D03*
X019053Y025460D03*
X019053Y024988D03*
X019053Y024515D03*
X019053Y024043D03*
X019053Y023570D03*
X019053Y023098D03*
X019053Y022626D03*
X019053Y022153D03*
X019053Y021681D03*
X020785Y022586D03*
X021258Y022586D03*
X021691Y024004D03*
X022124Y024004D03*
X022124Y024476D03*
X021691Y024476D03*
X021061Y024712D03*
X020589Y024712D03*
X027400Y024515D03*
X027400Y024043D03*
X027400Y023570D03*
X027400Y023098D03*
X027400Y022626D03*
X027400Y022153D03*
X027400Y021681D03*
X029132Y022586D03*
X029604Y022586D03*
X030037Y024004D03*
X030470Y024004D03*
X030470Y024476D03*
X030037Y024476D03*
X029407Y024712D03*
X028935Y024712D03*
X027400Y024988D03*
X027400Y025460D03*
X027400Y025933D03*
X027400Y026405D03*
X027400Y026878D03*
X027400Y027350D03*
X027400Y027822D03*
X027400Y028295D03*
X027400Y028767D03*
X029211Y029082D03*
X029683Y029082D03*
X030943Y028531D03*
X031415Y028531D03*
X031415Y027980D03*
X030943Y027980D03*
X030392Y030500D03*
X030392Y030972D03*
X029604Y030972D03*
X029604Y030500D03*
X027715Y030775D03*
X027242Y030775D03*
X031888Y030736D03*
X032360Y030736D03*
X035589Y030775D03*
X036061Y030775D03*
X037951Y030972D03*
X037951Y030500D03*
X038738Y030500D03*
X038738Y030972D03*
X040234Y030736D03*
X040707Y030736D03*
X039762Y028531D03*
X039289Y028531D03*
X039289Y027980D03*
X039762Y027980D03*
X038029Y029082D03*
X037557Y029082D03*
X035746Y028767D03*
X035746Y028295D03*
X035746Y027822D03*
X035746Y027350D03*
X035746Y026878D03*
X035746Y026405D03*
X035746Y025933D03*
X035746Y025460D03*
X035746Y024988D03*
X035746Y024515D03*
X035746Y024043D03*
X035746Y023570D03*
X035746Y023098D03*
X035746Y022626D03*
X035746Y022153D03*
X035746Y021681D03*
X037478Y022586D03*
X037951Y022586D03*
X038384Y024004D03*
X038817Y024004D03*
X038817Y024476D03*
X038384Y024476D03*
X037754Y024712D03*
X037281Y024712D03*
X037951Y018452D03*
X037951Y017980D03*
X038738Y017980D03*
X038738Y018452D03*
X040234Y018216D03*
X040707Y018216D03*
X039762Y016011D03*
X039289Y016011D03*
X039289Y015460D03*
X039762Y015460D03*
X038029Y016563D03*
X037557Y016563D03*
X035746Y016248D03*
X035746Y015775D03*
X035746Y015303D03*
X035746Y014830D03*
X035746Y014358D03*
X035746Y013885D03*
X035746Y013413D03*
X035746Y012941D03*
X035746Y012468D03*
X035746Y011996D03*
X035746Y011523D03*
X035746Y011051D03*
X035746Y010578D03*
X035746Y010106D03*
X035746Y009633D03*
X035746Y009161D03*
X037478Y010067D03*
X037951Y010067D03*
X038384Y011484D03*
X038817Y011484D03*
X038817Y011956D03*
X038384Y011956D03*
X037754Y012193D03*
X037281Y012193D03*
X031415Y015460D03*
X030943Y015460D03*
X030943Y016011D03*
X031415Y016011D03*
X029683Y016563D03*
X029211Y016563D03*
X029604Y017980D03*
X029604Y018452D03*
X030392Y018452D03*
X030392Y017980D03*
X031888Y018216D03*
X032360Y018216D03*
X035589Y018256D03*
X036061Y018256D03*
X029407Y012193D03*
X028935Y012193D03*
X030037Y011956D03*
X030470Y011956D03*
X030470Y011484D03*
X030037Y011484D03*
X029604Y010067D03*
X029132Y010067D03*
X027400Y010106D03*
X027400Y010578D03*
X027400Y011051D03*
X027400Y011523D03*
X027400Y011996D03*
X027400Y012468D03*
X027400Y012941D03*
X027400Y013413D03*
X027400Y013885D03*
X027400Y014358D03*
X027400Y014830D03*
X027400Y015303D03*
X027400Y015775D03*
X027400Y016248D03*
X027242Y018256D03*
X027715Y018256D03*
X024014Y018216D03*
X023541Y018216D03*
X022045Y017980D03*
X022045Y018452D03*
X021258Y018452D03*
X021258Y017980D03*
X021337Y016563D03*
X020864Y016563D03*
X022596Y016011D03*
X023069Y016011D03*
X023069Y015460D03*
X022596Y015460D03*
X019053Y015303D03*
X019053Y015775D03*
X019053Y016248D03*
X019053Y014830D03*
X019053Y014358D03*
X019053Y013885D03*
X019053Y013413D03*
X019053Y012941D03*
X019053Y012468D03*
X019053Y011996D03*
X019053Y011523D03*
X019053Y011051D03*
X019053Y010578D03*
X019053Y010106D03*
X019053Y009633D03*
X019053Y009161D03*
X020785Y010067D03*
X021258Y010067D03*
X021691Y011484D03*
X022124Y011484D03*
X022124Y011956D03*
X021691Y011956D03*
X021061Y012193D03*
X020589Y012193D03*
X027400Y009633D03*
X027400Y009161D03*
X019368Y018256D03*
X018896Y018256D03*
X015667Y018216D03*
X015195Y018216D03*
X012911Y022586D03*
X012439Y022586D03*
X013344Y024004D03*
X013777Y024004D03*
X013777Y024476D03*
X013344Y024476D03*
X012715Y024712D03*
X012242Y024712D03*
D17*
X013314Y028948D02*
X013285Y028958D01*
X013259Y028975D01*
X013237Y028996D01*
X013220Y029022D01*
X013210Y029052D01*
X013207Y029082D01*
X013210Y029113D01*
X013220Y029142D01*
X013237Y029168D01*
X013259Y029190D01*
X013285Y029206D01*
X013314Y029217D01*
X013344Y029220D01*
X013375Y029217D01*
X013404Y029206D01*
X013430Y029190D01*
X013452Y029168D01*
X013469Y029142D01*
X013479Y029113D01*
X013482Y029082D01*
X013479Y029052D01*
X013469Y029022D01*
X013452Y028996D01*
X013430Y028975D01*
X013404Y028958D01*
X013375Y028948D01*
X013344Y028944D01*
X013314Y028948D01*
X013255Y028978D02*
X013434Y028978D01*
X013470Y029026D02*
X013219Y029026D01*
X013207Y029075D02*
X013481Y029075D01*
X013475Y029123D02*
X013214Y029123D01*
X013240Y029172D02*
X013449Y029172D01*
X013305Y030322D02*
X013274Y030326D01*
X013245Y030336D01*
X013219Y030353D01*
X013197Y030374D01*
X013181Y030400D01*
X013171Y030430D01*
X013167Y030460D01*
X013171Y030491D01*
X013181Y030520D01*
X013197Y030546D01*
X013219Y030568D01*
X013245Y030584D01*
X013274Y030595D01*
X013305Y030598D01*
X013336Y030595D01*
X013365Y030584D01*
X013391Y030568D01*
X013413Y030546D01*
X013429Y030520D01*
X013439Y030491D01*
X013443Y030460D01*
X013439Y030430D01*
X013429Y030400D01*
X013413Y030374D01*
X013391Y030353D01*
X013365Y030336D01*
X013336Y030326D01*
X013305Y030322D01*
X013246Y030336D02*
X013364Y030336D01*
X013419Y030384D02*
X013191Y030384D01*
X013170Y030433D02*
X013440Y030433D01*
X013440Y030481D02*
X013170Y030481D01*
X013187Y030530D02*
X013423Y030530D01*
X013375Y030578D02*
X013235Y030578D01*
X012287Y031148D02*
X012271Y031122D01*
X012249Y031101D01*
X012223Y031084D01*
X012194Y031074D01*
X012163Y031070D01*
X012133Y031074D01*
X012104Y031084D01*
X012077Y031101D01*
X012056Y031122D01*
X012039Y031148D01*
X012029Y031178D01*
X012026Y031208D01*
X012029Y031239D01*
X012039Y031268D01*
X012056Y031294D01*
X012077Y031316D01*
X012104Y031332D01*
X012133Y031343D01*
X012163Y031346D01*
X012194Y031343D01*
X012223Y031332D01*
X012249Y031316D01*
X012271Y031294D01*
X012287Y031268D01*
X012298Y031239D01*
X012301Y031208D01*
X012298Y031178D01*
X012287Y031148D01*
X012292Y031160D02*
X012035Y031160D01*
X012026Y031209D02*
X012301Y031209D01*
X012291Y031257D02*
X012035Y031257D01*
X012067Y031306D02*
X012259Y031306D01*
X012260Y031112D02*
X012066Y031112D01*
X020372Y031208D02*
X020375Y031178D01*
X020386Y031148D01*
X020402Y031122D01*
X020424Y031101D01*
X020450Y031084D01*
X020479Y031074D01*
X020510Y031070D01*
X020540Y031074D01*
X020570Y031084D01*
X020596Y031101D01*
X020618Y031122D01*
X020634Y031148D01*
X020644Y031178D01*
X020648Y031208D01*
X020644Y031239D01*
X020634Y031268D01*
X020618Y031294D01*
X020596Y031316D01*
X020570Y031332D01*
X020540Y031343D01*
X020510Y031346D01*
X020479Y031343D01*
X020450Y031332D01*
X020424Y031316D01*
X020402Y031294D01*
X020386Y031268D01*
X020375Y031239D01*
X020372Y031208D01*
X020372Y031209D02*
X020648Y031209D01*
X020638Y031257D02*
X020382Y031257D01*
X020414Y031306D02*
X020606Y031306D01*
X020638Y031160D02*
X020382Y031160D01*
X020413Y031112D02*
X020607Y031112D01*
X021533Y030530D02*
X021770Y030530D01*
X021776Y030520D02*
X021786Y030491D01*
X021789Y030460D01*
X021786Y030430D01*
X021776Y030400D01*
X021759Y030374D01*
X021737Y030353D01*
X021711Y030336D01*
X021682Y030326D01*
X021652Y030322D01*
X021621Y030326D01*
X021592Y030336D01*
X021566Y030353D01*
X021544Y030374D01*
X021527Y030400D01*
X021517Y030430D01*
X021514Y030460D01*
X021517Y030491D01*
X021527Y030520D01*
X021544Y030546D01*
X021566Y030568D01*
X021592Y030584D01*
X021621Y030595D01*
X021652Y030598D01*
X021682Y030595D01*
X021711Y030584D01*
X021737Y030568D01*
X021759Y030546D01*
X021776Y030520D01*
X021787Y030481D02*
X021516Y030481D01*
X021517Y030433D02*
X021786Y030433D01*
X021765Y030384D02*
X021538Y030384D01*
X021593Y030336D02*
X021710Y030336D01*
X021721Y030578D02*
X021582Y030578D01*
X021691Y029220D02*
X021722Y029217D01*
X021751Y029206D01*
X021777Y029190D01*
X021799Y029168D01*
X021815Y029142D01*
X021825Y029113D01*
X021829Y029082D01*
X021825Y029052D01*
X021815Y029022D01*
X021799Y028996D01*
X021777Y028975D01*
X021751Y028958D01*
X021722Y028948D01*
X021691Y028944D01*
X021660Y028948D01*
X021631Y028958D01*
X021605Y028975D01*
X021583Y028996D01*
X021567Y029022D01*
X021557Y029052D01*
X021553Y029082D01*
X021557Y029113D01*
X021567Y029142D01*
X021583Y029168D01*
X021605Y029190D01*
X021631Y029206D01*
X021660Y029217D01*
X021691Y029220D01*
X021587Y029172D02*
X021795Y029172D01*
X021822Y029123D02*
X021560Y029123D01*
X021554Y029075D02*
X021828Y029075D01*
X021816Y029026D02*
X021565Y029026D01*
X021602Y028978D02*
X021780Y028978D01*
X028722Y031178D02*
X028718Y031208D01*
X028722Y031239D01*
X028732Y031268D01*
X028749Y031294D01*
X028770Y031316D01*
X028796Y031332D01*
X028826Y031343D01*
X028856Y031346D01*
X028887Y031343D01*
X028916Y031332D01*
X028942Y031316D01*
X028964Y031294D01*
X028980Y031268D01*
X028991Y031239D01*
X028994Y031208D01*
X028991Y031178D01*
X028980Y031148D01*
X028964Y031122D01*
X028942Y031101D01*
X028916Y031084D01*
X028887Y031074D01*
X028856Y031070D01*
X028826Y031074D01*
X028796Y031084D01*
X028770Y031101D01*
X028749Y031122D01*
X028732Y031148D01*
X028722Y031178D01*
X028728Y031160D02*
X028985Y031160D01*
X028994Y031209D02*
X028718Y031209D01*
X028728Y031257D02*
X028984Y031257D01*
X028952Y031306D02*
X028760Y031306D01*
X028759Y031112D02*
X028953Y031112D01*
X029880Y030530D02*
X030116Y030530D01*
X030122Y030520D02*
X030132Y030491D01*
X030136Y030460D01*
X030132Y030430D01*
X030122Y030400D01*
X030106Y030374D01*
X030084Y030353D01*
X030058Y030336D01*
X030029Y030326D01*
X029998Y030322D01*
X029967Y030326D01*
X029938Y030336D01*
X029912Y030353D01*
X029890Y030374D01*
X029874Y030400D01*
X029864Y030430D01*
X029860Y030460D01*
X029864Y030491D01*
X029874Y030520D01*
X029890Y030546D01*
X029912Y030568D01*
X029938Y030584D01*
X029967Y030595D01*
X029998Y030598D01*
X030029Y030595D01*
X030058Y030584D01*
X030084Y030568D01*
X030106Y030546D01*
X030122Y030520D01*
X030133Y030481D02*
X029863Y030481D01*
X029863Y030433D02*
X030133Y030433D01*
X030112Y030384D02*
X029884Y030384D01*
X029939Y030336D02*
X030057Y030336D01*
X030068Y030578D02*
X029928Y030578D01*
X030037Y029220D02*
X030068Y029217D01*
X030097Y029206D01*
X030123Y029190D01*
X030145Y029168D01*
X030161Y029142D01*
X030172Y029113D01*
X030175Y029082D01*
X030172Y029052D01*
X030161Y029022D01*
X030145Y028996D01*
X030123Y028975D01*
X030097Y028958D01*
X030068Y028948D01*
X030037Y028944D01*
X030007Y028948D01*
X029978Y028958D01*
X029951Y028975D01*
X029930Y028996D01*
X029913Y029022D01*
X029903Y029052D01*
X029900Y029082D01*
X029903Y029113D01*
X029913Y029142D01*
X029930Y029168D01*
X029951Y029190D01*
X029978Y029206D01*
X030007Y029217D01*
X030037Y029220D01*
X029933Y029172D02*
X030142Y029172D01*
X030168Y029123D02*
X029907Y029123D01*
X029900Y029075D02*
X030174Y029075D01*
X030163Y029026D02*
X029912Y029026D01*
X029948Y028978D02*
X030126Y028978D01*
X037068Y031178D02*
X037065Y031208D01*
X037068Y031239D01*
X037079Y031268D01*
X037095Y031294D01*
X037117Y031316D01*
X037143Y031332D01*
X037172Y031343D01*
X037203Y031346D01*
X037233Y031343D01*
X037262Y031332D01*
X037289Y031316D01*
X037310Y031294D01*
X037327Y031268D01*
X037337Y031239D01*
X037340Y031208D01*
X037337Y031178D01*
X037327Y031148D01*
X037310Y031122D01*
X037289Y031101D01*
X037262Y031084D01*
X037233Y031074D01*
X037203Y031070D01*
X037172Y031074D01*
X037143Y031084D01*
X037117Y031101D01*
X037095Y031122D01*
X037079Y031148D01*
X037068Y031178D01*
X037074Y031160D02*
X037331Y031160D01*
X037340Y031209D02*
X037065Y031209D01*
X037075Y031257D02*
X037331Y031257D01*
X037299Y031306D02*
X037107Y031306D01*
X037106Y031112D02*
X037300Y031112D01*
X038226Y030530D02*
X038462Y030530D01*
X038469Y030520D02*
X038479Y030491D01*
X038482Y030460D01*
X038479Y030430D01*
X038469Y030400D01*
X038452Y030374D01*
X038430Y030353D01*
X038404Y030336D01*
X038375Y030326D01*
X038344Y030322D01*
X038314Y030326D01*
X038285Y030336D01*
X038259Y030353D01*
X038237Y030374D01*
X038220Y030400D01*
X038210Y030430D01*
X038207Y030460D01*
X038210Y030491D01*
X038220Y030520D01*
X038237Y030546D01*
X038259Y030568D01*
X038285Y030584D01*
X038314Y030595D01*
X038344Y030598D01*
X038375Y030595D01*
X038404Y030584D01*
X038430Y030568D01*
X038452Y030546D01*
X038469Y030520D01*
X038480Y030481D02*
X038209Y030481D01*
X038210Y030433D02*
X038479Y030433D01*
X038458Y030384D02*
X038230Y030384D01*
X038286Y030336D02*
X038403Y030336D01*
X038414Y030578D02*
X038275Y030578D01*
X038384Y029220D02*
X038414Y029217D01*
X038444Y029206D01*
X038470Y029190D01*
X038492Y029168D01*
X038508Y029142D01*
X038518Y029113D01*
X038522Y029082D01*
X038518Y029052D01*
X038508Y029022D01*
X038492Y028996D01*
X038470Y028975D01*
X038444Y028958D01*
X038414Y028948D01*
X038384Y028944D01*
X038353Y028948D01*
X038324Y028958D01*
X038298Y028975D01*
X038276Y028996D01*
X038260Y029022D01*
X038249Y029052D01*
X038246Y029082D01*
X038249Y029113D01*
X038260Y029142D01*
X038276Y029168D01*
X038298Y029190D01*
X038324Y029206D01*
X038353Y029217D01*
X038384Y029220D01*
X038280Y029172D02*
X038488Y029172D01*
X038515Y029123D02*
X038253Y029123D01*
X038247Y029075D02*
X038521Y029075D01*
X038509Y029026D02*
X038258Y029026D01*
X038295Y028978D02*
X038473Y028978D01*
X037233Y018823D02*
X037262Y018813D01*
X037289Y018796D01*
X037310Y018774D01*
X037327Y018748D01*
X037337Y018719D01*
X037340Y018689D01*
X037337Y018658D01*
X037327Y018629D01*
X037310Y018603D01*
X037289Y018581D01*
X037262Y018564D01*
X037233Y018554D01*
X037203Y018551D01*
X037172Y018554D01*
X037143Y018564D01*
X037117Y018581D01*
X037095Y018603D01*
X037079Y018629D01*
X037068Y018658D01*
X037065Y018689D01*
X037068Y018719D01*
X037079Y018748D01*
X037095Y018774D01*
X037117Y018796D01*
X037143Y018813D01*
X037172Y018823D01*
X037203Y018826D01*
X037233Y018823D01*
X037292Y018793D02*
X037113Y018793D01*
X037077Y018744D02*
X037328Y018744D01*
X037340Y018696D02*
X037066Y018696D01*
X037072Y018647D02*
X037333Y018647D01*
X037306Y018599D02*
X037099Y018599D01*
X038220Y018000D02*
X038237Y018026D01*
X038259Y018048D01*
X038285Y018065D01*
X038314Y018075D01*
X038344Y018078D01*
X038375Y018075D01*
X038404Y018065D01*
X038430Y018048D01*
X038452Y018026D01*
X038469Y018000D01*
X038479Y017971D01*
X038482Y017941D01*
X038479Y017910D01*
X038469Y017881D01*
X038452Y017855D01*
X038430Y017833D01*
X038404Y017816D01*
X038375Y017806D01*
X038344Y017803D01*
X038314Y017806D01*
X038285Y017816D01*
X038259Y017833D01*
X038237Y017855D01*
X038220Y017881D01*
X038210Y017910D01*
X038207Y017941D01*
X038210Y017971D01*
X038220Y018000D01*
X038231Y018017D02*
X038458Y018017D01*
X038479Y017968D02*
X038210Y017968D01*
X038209Y017920D02*
X038480Y017920D01*
X038463Y017871D02*
X038226Y017871D01*
X038275Y017823D02*
X038414Y017823D01*
X038403Y018065D02*
X038286Y018065D01*
X038384Y016700D02*
X038414Y016697D01*
X038444Y016687D01*
X038470Y016670D01*
X038492Y016649D01*
X038508Y016622D01*
X038518Y016593D01*
X038522Y016563D01*
X038518Y016532D01*
X038508Y016503D01*
X038492Y016477D01*
X038470Y016455D01*
X038444Y016438D01*
X038414Y016428D01*
X038384Y016425D01*
X038353Y016428D01*
X038324Y016438D01*
X038298Y016455D01*
X038276Y016477D01*
X038260Y016503D01*
X038249Y016532D01*
X038246Y016563D01*
X038249Y016593D01*
X038260Y016622D01*
X038276Y016649D01*
X038298Y016670D01*
X038324Y016687D01*
X038353Y016697D01*
X038384Y016700D01*
X038481Y016659D02*
X038286Y016659D01*
X038255Y016610D02*
X038512Y016610D01*
X038521Y016562D02*
X038246Y016562D01*
X038256Y016513D02*
X038512Y016513D01*
X038480Y016465D02*
X038288Y016465D01*
X030175Y016563D02*
X030172Y016532D01*
X030161Y016503D01*
X030145Y016477D01*
X030123Y016455D01*
X030097Y016438D01*
X030068Y016428D01*
X030037Y016425D01*
X030007Y016428D01*
X029978Y016438D01*
X029951Y016455D01*
X029930Y016477D01*
X029913Y016503D01*
X029903Y016532D01*
X029900Y016563D01*
X029903Y016593D01*
X029913Y016622D01*
X029930Y016649D01*
X029951Y016670D01*
X029978Y016687D01*
X030007Y016697D01*
X030037Y016700D01*
X030068Y016697D01*
X030097Y016687D01*
X030123Y016670D01*
X030145Y016649D01*
X030161Y016622D01*
X030172Y016593D01*
X030175Y016563D01*
X030175Y016562D02*
X029900Y016562D01*
X029909Y016610D02*
X030166Y016610D01*
X030135Y016659D02*
X029940Y016659D01*
X029910Y016513D02*
X030165Y016513D01*
X030133Y016465D02*
X029942Y016465D01*
X029998Y017803D02*
X029967Y017806D01*
X029938Y017816D01*
X029912Y017833D01*
X029890Y017855D01*
X029874Y017881D01*
X029864Y017910D01*
X029860Y017941D01*
X029864Y017971D01*
X029874Y018000D01*
X029890Y018026D01*
X029912Y018048D01*
X029938Y018065D01*
X029967Y018075D01*
X029998Y018078D01*
X030029Y018075D01*
X030058Y018065D01*
X030084Y018048D01*
X030106Y018026D01*
X030122Y018000D01*
X030132Y017971D01*
X030136Y017941D01*
X030132Y017910D01*
X030122Y017881D01*
X030106Y017855D01*
X030084Y017833D01*
X030058Y017816D01*
X030029Y017806D01*
X029998Y017803D01*
X029928Y017823D02*
X030068Y017823D01*
X030116Y017871D02*
X029880Y017871D01*
X029863Y017920D02*
X030133Y017920D01*
X030133Y017968D02*
X029863Y017968D01*
X029884Y018017D02*
X030112Y018017D01*
X030056Y018065D02*
X029940Y018065D01*
X028980Y018629D02*
X028964Y018603D01*
X028942Y018581D01*
X028916Y018564D01*
X028887Y018554D01*
X028856Y018551D01*
X028826Y018554D01*
X028796Y018564D01*
X028770Y018581D01*
X028749Y018603D01*
X028732Y018629D01*
X028722Y018658D01*
X028718Y018689D01*
X028722Y018719D01*
X028732Y018748D01*
X028749Y018774D01*
X028770Y018796D01*
X028796Y018813D01*
X028826Y018823D01*
X028856Y018826D01*
X028887Y018823D01*
X028916Y018813D01*
X028942Y018796D01*
X028964Y018774D01*
X028980Y018748D01*
X028991Y018719D01*
X028994Y018689D01*
X028991Y018658D01*
X028980Y018629D01*
X028987Y018647D02*
X028726Y018647D01*
X028719Y018696D02*
X028993Y018696D01*
X028982Y018744D02*
X028731Y018744D01*
X028767Y018793D02*
X028946Y018793D01*
X028960Y018599D02*
X028752Y018599D01*
X021789Y017941D02*
X021786Y017910D01*
X021776Y017881D01*
X021759Y017855D01*
X021737Y017833D01*
X021711Y017816D01*
X021682Y017806D01*
X021652Y017803D01*
X021621Y017806D01*
X021592Y017816D01*
X021566Y017833D01*
X021544Y017855D01*
X021527Y017881D01*
X021517Y017910D01*
X021514Y017941D01*
X021517Y017971D01*
X021527Y018000D01*
X021544Y018026D01*
X021566Y018048D01*
X021592Y018065D01*
X021621Y018075D01*
X021652Y018078D01*
X021682Y018075D01*
X021711Y018065D01*
X021737Y018048D01*
X021759Y018026D01*
X021776Y018000D01*
X021786Y017971D01*
X021789Y017941D01*
X021787Y017920D02*
X021516Y017920D01*
X021517Y017968D02*
X021786Y017968D01*
X021765Y018017D02*
X021538Y018017D01*
X021593Y018065D02*
X021710Y018065D01*
X021770Y017871D02*
X021533Y017871D01*
X021582Y017823D02*
X021721Y017823D01*
X020618Y018603D02*
X020596Y018581D01*
X020570Y018564D01*
X020540Y018554D01*
X020510Y018551D01*
X020479Y018554D01*
X020450Y018564D01*
X020424Y018581D01*
X020402Y018603D01*
X020386Y018629D01*
X020375Y018658D01*
X020372Y018689D01*
X020375Y018719D01*
X020386Y018748D01*
X020402Y018774D01*
X020424Y018796D01*
X020450Y018813D01*
X020479Y018823D01*
X020510Y018826D01*
X020540Y018823D01*
X020570Y018813D01*
X020596Y018796D01*
X020618Y018774D01*
X020634Y018748D01*
X020644Y018719D01*
X020648Y018689D01*
X020644Y018658D01*
X020634Y018629D01*
X020618Y018603D01*
X020614Y018599D02*
X020406Y018599D01*
X020379Y018647D02*
X020640Y018647D01*
X020647Y018696D02*
X020373Y018696D01*
X020384Y018744D02*
X020635Y018744D01*
X020599Y018793D02*
X020420Y018793D01*
X021631Y016687D02*
X021660Y016697D01*
X021691Y016700D01*
X021722Y016697D01*
X021751Y016687D01*
X021777Y016670D01*
X021799Y016649D01*
X021815Y016622D01*
X021825Y016593D01*
X021829Y016563D01*
X021825Y016532D01*
X021815Y016503D01*
X021799Y016477D01*
X021777Y016455D01*
X021751Y016438D01*
X021722Y016428D01*
X021691Y016425D01*
X021660Y016428D01*
X021631Y016438D01*
X021605Y016455D01*
X021583Y016477D01*
X021567Y016503D01*
X021557Y016532D01*
X021553Y016563D01*
X021557Y016593D01*
X021567Y016622D01*
X021583Y016649D01*
X021605Y016670D01*
X021631Y016687D01*
X021593Y016659D02*
X021788Y016659D01*
X021819Y016610D02*
X021562Y016610D01*
X021553Y016562D02*
X021829Y016562D01*
X021819Y016513D02*
X021563Y016513D01*
X021595Y016465D02*
X021787Y016465D01*
X013482Y016563D02*
X013479Y016532D01*
X013469Y016503D01*
X013452Y016477D01*
X013430Y016455D01*
X013404Y016438D01*
X013375Y016428D01*
X013344Y016425D01*
X013314Y016428D01*
X013285Y016438D01*
X013259Y016455D01*
X013237Y016477D01*
X013220Y016503D01*
X013210Y016532D01*
X013207Y016563D01*
X013210Y016593D01*
X013220Y016622D01*
X013237Y016649D01*
X013259Y016670D01*
X013285Y016687D01*
X013314Y016697D01*
X013344Y016700D01*
X013375Y016697D01*
X013404Y016687D01*
X013430Y016670D01*
X013452Y016649D01*
X013469Y016622D01*
X013479Y016593D01*
X013482Y016563D01*
X013482Y016562D02*
X013207Y016562D01*
X013216Y016610D02*
X013473Y016610D01*
X013442Y016659D02*
X013247Y016659D01*
X013217Y016513D02*
X013472Y016513D01*
X013440Y016465D02*
X013249Y016465D01*
X013305Y017803D02*
X013274Y017806D01*
X013245Y017816D01*
X013219Y017833D01*
X013197Y017855D01*
X013181Y017881D01*
X013171Y017910D01*
X013167Y017941D01*
X013171Y017971D01*
X013181Y018000D01*
X013197Y018026D01*
X013219Y018048D01*
X013245Y018065D01*
X013274Y018075D01*
X013305Y018078D01*
X013336Y018075D01*
X013365Y018065D01*
X013391Y018048D01*
X013413Y018026D01*
X013429Y018000D01*
X013439Y017971D01*
X013443Y017941D01*
X013439Y017910D01*
X013429Y017881D01*
X013413Y017855D01*
X013391Y017833D01*
X013365Y017816D01*
X013336Y017806D01*
X013305Y017803D01*
X013235Y017823D02*
X013375Y017823D01*
X013423Y017871D02*
X013187Y017871D01*
X013170Y017920D02*
X013440Y017920D01*
X013440Y017968D02*
X013170Y017968D01*
X013191Y018017D02*
X013419Y018017D01*
X013363Y018065D02*
X013247Y018065D01*
X012287Y018629D02*
X012271Y018603D01*
X012249Y018581D01*
X012223Y018564D01*
X012194Y018554D01*
X012163Y018551D01*
X012133Y018554D01*
X012104Y018564D01*
X012077Y018581D01*
X012056Y018603D01*
X012039Y018629D01*
X012029Y018658D01*
X012026Y018689D01*
X012029Y018719D01*
X012039Y018748D01*
X012056Y018774D01*
X012077Y018796D01*
X012104Y018813D01*
X012133Y018823D01*
X012163Y018826D01*
X012194Y018823D01*
X012223Y018813D01*
X012249Y018796D01*
X012271Y018774D01*
X012287Y018748D01*
X012298Y018719D01*
X012301Y018689D01*
X012298Y018658D01*
X012287Y018629D01*
X012294Y018647D02*
X012033Y018647D01*
X012026Y018696D02*
X012300Y018696D01*
X012289Y018744D02*
X012038Y018744D01*
X012074Y018793D02*
X012253Y018793D01*
X012267Y018599D02*
X012060Y018599D01*
D18*
X013699Y022822D03*
X022045Y022822D03*
X030392Y022822D03*
X038738Y022822D03*
X038738Y010303D03*
X030392Y010303D03*
X022045Y010303D03*
X013699Y010303D03*
D19*
X013069Y006405D03*
X038266Y006405D03*
X015037Y035696D03*
D20*
X014545Y030480D03*
X014033Y030480D03*
X014033Y029732D03*
X014289Y029732D03*
X014545Y029732D03*
X022380Y029732D03*
X022636Y029732D03*
X022892Y029732D03*
X022892Y030480D03*
X022380Y030480D03*
X030726Y030480D03*
X031238Y030480D03*
X031238Y029732D03*
X030982Y029732D03*
X030726Y029732D03*
X039073Y029732D03*
X039329Y029732D03*
X039585Y029732D03*
X039585Y030480D03*
X039073Y030480D03*
X039073Y017960D03*
X039585Y017960D03*
X039585Y017212D03*
X039329Y017212D03*
X039073Y017212D03*
X031238Y017212D03*
X030982Y017212D03*
X030726Y017212D03*
X030726Y017960D03*
X031238Y017960D03*
X022892Y017960D03*
X022380Y017960D03*
X022380Y017212D03*
X022636Y017212D03*
X022892Y017212D03*
X014545Y017212D03*
X014289Y017212D03*
X014033Y017212D03*
X014033Y017960D03*
X014545Y017960D03*
D21*
X014978Y017724D03*
X014978Y017468D03*
X014978Y017212D03*
X015726Y017212D03*
X015726Y017724D03*
X023325Y017724D03*
X023325Y017468D03*
X023325Y017212D03*
X024073Y017212D03*
X024073Y017724D03*
X031671Y017724D03*
X031671Y017468D03*
X031671Y017212D03*
X032419Y017212D03*
X032419Y017724D03*
X040018Y017724D03*
X040018Y017468D03*
X040018Y017212D03*
X040766Y017212D03*
X040766Y017724D03*
X040766Y029732D03*
X040766Y030244D03*
X040018Y030244D03*
X040018Y029988D03*
X040018Y029732D03*
X032419Y029732D03*
X032419Y030244D03*
X031671Y030244D03*
X031671Y029988D03*
X031671Y029732D03*
X024073Y029732D03*
X024073Y030244D03*
X023325Y030244D03*
X023325Y029988D03*
X023325Y029732D03*
X015726Y029732D03*
X015726Y030244D03*
X014978Y030244D03*
X014978Y029988D03*
X014978Y029732D03*
D22*
X012488Y029781D03*
X012488Y029525D03*
X012488Y030037D03*
X012488Y030293D03*
X010657Y030293D03*
X010657Y030037D03*
X010657Y029781D03*
X010657Y029525D03*
X019004Y029525D03*
X019004Y029781D03*
X019004Y030037D03*
X019004Y030293D03*
X020835Y030293D03*
X020835Y030037D03*
X020835Y029781D03*
X020835Y029525D03*
X027350Y029525D03*
X027350Y029781D03*
X027350Y030037D03*
X027350Y030293D03*
X029181Y030293D03*
X029181Y030037D03*
X029181Y029781D03*
X029181Y029525D03*
X035697Y029525D03*
X035697Y029781D03*
X035697Y030037D03*
X035697Y030293D03*
X037527Y030293D03*
X037527Y030037D03*
X037527Y029781D03*
X037527Y029525D03*
X037527Y017773D03*
X037527Y017517D03*
X037527Y017261D03*
X037527Y017006D03*
X035697Y017006D03*
X035697Y017261D03*
X035697Y017517D03*
X035697Y017773D03*
X029181Y017773D03*
X029181Y017517D03*
X029181Y017261D03*
X029181Y017006D03*
X027350Y017006D03*
X027350Y017261D03*
X027350Y017517D03*
X027350Y017773D03*
X020835Y017773D03*
X020835Y017517D03*
X020835Y017261D03*
X020835Y017006D03*
X019004Y017006D03*
X019004Y017261D03*
X019004Y017517D03*
X019004Y017773D03*
X012488Y017773D03*
X012488Y017517D03*
X012488Y017261D03*
X012488Y017006D03*
X010657Y017006D03*
X010657Y017261D03*
X010657Y017517D03*
X010657Y017773D03*
D23*
X011573Y017389D03*
X019919Y017389D03*
X028266Y017389D03*
X036612Y017389D03*
X036612Y029909D03*
X028266Y029909D03*
X019919Y029909D03*
X011573Y029909D03*
D24*
X011986Y024102D03*
X012655Y024102D03*
X012655Y023196D03*
X011986Y023196D03*
X020333Y023196D03*
X021002Y023196D03*
X021002Y024102D03*
X020333Y024102D03*
X028679Y024102D03*
X029348Y024102D03*
X029348Y023196D03*
X028679Y023196D03*
X037026Y023196D03*
X037695Y023196D03*
X037695Y024102D03*
X037026Y024102D03*
X037026Y011582D03*
X037695Y011582D03*
X037695Y010677D03*
X037026Y010677D03*
X029348Y010677D03*
X028679Y010677D03*
X028679Y011582D03*
X029348Y011582D03*
X021002Y011582D03*
X020333Y011582D03*
X020333Y010677D03*
X021002Y010677D03*
X012655Y010677D03*
X011986Y010677D03*
X011986Y011582D03*
X012655Y011582D03*
M02*
