G75*
%MOIN*%
%OFA0B0*%
%FSLAX24Y24*%
%IPPOS*%
%LPD*%
%AMOC8*
5,1,8,0,0,1.08239X$1,22.5*
%
%ADD10C,0.1655*%
%ADD11R,0.0787X0.0787*%
%ADD12OC8,0.0671*%
%ADD13R,0.1378X0.1378*%
%ADD14R,0.0138X0.0492*%
%ADD15R,0.0492X0.0138*%
%ADD16R,0.0315X0.0315*%
%ADD17C,0.0050*%
%ADD18C,0.0474*%
%ADD19R,0.0315X0.0197*%
%ADD20R,0.0709X0.0709*%
%ADD21R,0.0512X0.0591*%
D10*
X006755Y006405D03*
X035574Y006405D03*
X035574Y035224D03*
X006755Y035224D03*
D11*
X010692Y035224D03*
X033605Y006405D03*
D12*
X037066Y009173D03*
X037066Y010173D03*
X037066Y011173D03*
X036066Y011673D03*
X037066Y012173D03*
X037066Y013173D03*
X037066Y014173D03*
X037066Y015173D03*
X037066Y016173D03*
X037066Y017173D03*
X037066Y018173D03*
X037066Y019173D03*
X036066Y019173D03*
X035066Y019173D03*
X034066Y019173D03*
X033066Y019173D03*
X032066Y019173D03*
X031066Y019173D03*
X030066Y019173D03*
X030066Y020173D03*
X028798Y020173D03*
X028798Y019173D03*
X027798Y019173D03*
X026798Y019173D03*
X025798Y019173D03*
X024798Y019173D03*
X023798Y019173D03*
X022798Y019173D03*
X021798Y019173D03*
X021798Y020173D03*
X020530Y020173D03*
X020530Y019173D03*
X019530Y019173D03*
X018530Y019173D03*
X017530Y019173D03*
X016530Y019173D03*
X015530Y019173D03*
X014530Y019173D03*
X013530Y019173D03*
X013530Y020173D03*
X012263Y020173D03*
X012263Y019173D03*
X012263Y018173D03*
X012263Y017173D03*
X012263Y016173D03*
X012263Y015173D03*
X012263Y014173D03*
X012263Y013173D03*
X012263Y012173D03*
X012263Y011173D03*
X012263Y010173D03*
X012263Y009173D03*
X013530Y009173D03*
X013530Y010173D03*
X013530Y011173D03*
X013530Y012173D03*
X013530Y013173D03*
X013530Y014173D03*
X013530Y015173D03*
X013530Y016173D03*
X013530Y017173D03*
X013530Y018173D03*
X011263Y019173D03*
X010263Y019173D03*
X009263Y019173D03*
X008263Y019173D03*
X007263Y019173D03*
X006263Y019173D03*
X005263Y019173D03*
X005263Y020173D03*
X005263Y021456D03*
X005263Y022456D03*
X005263Y023456D03*
X005263Y024456D03*
X005263Y025456D03*
X005263Y026456D03*
X005263Y027456D03*
X005263Y028456D03*
X005263Y029456D03*
X005263Y030456D03*
X005263Y031456D03*
X005263Y032456D03*
X006263Y031456D03*
X007263Y031456D03*
X008263Y031456D03*
X009263Y031456D03*
X010263Y031456D03*
X011263Y031456D03*
X012263Y031456D03*
X012263Y032456D03*
X013530Y032456D03*
X013530Y031456D03*
X013530Y030456D03*
X013530Y029456D03*
X013530Y028456D03*
X013530Y027456D03*
X013530Y026456D03*
X013530Y025456D03*
X013530Y024456D03*
X013530Y023456D03*
X013530Y022456D03*
X013530Y021456D03*
X012263Y021456D03*
X012263Y022456D03*
X012263Y023456D03*
X012263Y024456D03*
X012263Y025456D03*
X012263Y026456D03*
X012263Y027456D03*
X012263Y028456D03*
X012263Y029456D03*
X012263Y030456D03*
X014530Y031456D03*
X015530Y031456D03*
X016530Y031456D03*
X017530Y031456D03*
X018530Y031456D03*
X019530Y031456D03*
X020530Y031456D03*
X020530Y032456D03*
X021798Y032456D03*
X021798Y031456D03*
X021798Y030456D03*
X021798Y029456D03*
X021798Y028456D03*
X021798Y027456D03*
X021798Y026456D03*
X021798Y025456D03*
X021798Y024456D03*
X021798Y023456D03*
X021798Y022456D03*
X021798Y021456D03*
X020530Y021456D03*
X020530Y022456D03*
X020530Y023456D03*
X020530Y024456D03*
X020530Y025456D03*
X020530Y026456D03*
X020530Y027456D03*
X020530Y028456D03*
X020530Y029456D03*
X020530Y030456D03*
X022798Y031456D03*
X023798Y031456D03*
X024798Y031456D03*
X025798Y031456D03*
X026798Y031456D03*
X027798Y031456D03*
X028798Y031456D03*
X028798Y032456D03*
X030066Y032456D03*
X030066Y031456D03*
X030066Y030456D03*
X030066Y029456D03*
X030066Y028456D03*
X030066Y027456D03*
X030066Y026456D03*
X030066Y025456D03*
X030066Y024456D03*
X030066Y023456D03*
X030066Y022456D03*
X030066Y021456D03*
X028798Y021456D03*
X028798Y022456D03*
X028798Y023456D03*
X028798Y024456D03*
X028798Y025456D03*
X028798Y026456D03*
X028798Y027456D03*
X028798Y028456D03*
X028798Y029456D03*
X028798Y030456D03*
X031066Y031456D03*
X032066Y031456D03*
X033066Y031456D03*
X034066Y031456D03*
X035066Y031456D03*
X036066Y031456D03*
X037066Y031456D03*
X037066Y032456D03*
X037066Y030456D03*
X037066Y029456D03*
X037066Y028456D03*
X037066Y027456D03*
X037066Y026456D03*
X037066Y025456D03*
X037066Y024456D03*
X036066Y023956D03*
X037066Y023456D03*
X037066Y022456D03*
X036066Y022956D03*
X035066Y022956D03*
X035066Y023956D03*
X037066Y021456D03*
X037066Y020173D03*
X033066Y015673D03*
X032066Y015673D03*
X030066Y016173D03*
X030066Y017173D03*
X030066Y018173D03*
X028798Y018173D03*
X028798Y017173D03*
X028798Y016173D03*
X028798Y015173D03*
X028798Y014173D03*
X028798Y013173D03*
X028798Y012173D03*
X028798Y011173D03*
X028798Y010173D03*
X028798Y009173D03*
X030066Y009173D03*
X030066Y010173D03*
X030066Y011173D03*
X030066Y012173D03*
X030066Y013173D03*
X030066Y014173D03*
X030066Y015173D03*
X027798Y011673D03*
X026798Y011673D03*
X026798Y010673D03*
X027798Y010673D03*
X024798Y015673D03*
X023798Y015673D03*
X021798Y016173D03*
X021798Y017173D03*
X021798Y018173D03*
X020530Y018173D03*
X020530Y017173D03*
X020530Y016173D03*
X020530Y015173D03*
X020530Y014173D03*
X020530Y013173D03*
X020530Y012173D03*
X020530Y011173D03*
X020530Y010173D03*
X020530Y009173D03*
X021798Y009173D03*
X021798Y010173D03*
X021798Y011173D03*
X021798Y012173D03*
X021798Y013173D03*
X021798Y014173D03*
X021798Y015173D03*
X019530Y011673D03*
X018530Y011673D03*
X018530Y010673D03*
X019530Y010673D03*
X016530Y015673D03*
X015530Y015673D03*
X011263Y011673D03*
X010263Y011673D03*
X010263Y010673D03*
X011263Y010673D03*
X008263Y015673D03*
X007263Y015673D03*
X005263Y016173D03*
X005263Y017173D03*
X005263Y018173D03*
X005263Y015173D03*
X005263Y014173D03*
X005263Y013173D03*
X005263Y012173D03*
X005263Y011173D03*
X005263Y010173D03*
X005263Y009173D03*
X010263Y022956D03*
X011263Y022956D03*
X011263Y023956D03*
X010263Y023956D03*
X008263Y027956D03*
X007263Y027956D03*
X015530Y027956D03*
X016530Y027956D03*
X018530Y023956D03*
X018530Y022956D03*
X019530Y022956D03*
X019530Y023956D03*
X023798Y027956D03*
X024798Y027956D03*
X026798Y023956D03*
X026798Y022956D03*
X027798Y022956D03*
X027798Y023956D03*
X032066Y027956D03*
X033066Y027956D03*
X035066Y011673D03*
X035066Y010673D03*
X036066Y010673D03*
D13*
X033645Y013649D03*
X025377Y013649D03*
X017109Y013649D03*
X008841Y013649D03*
X008841Y025933D03*
X017109Y025933D03*
X025377Y025933D03*
X033645Y025933D03*
D14*
X033743Y026976D03*
X033546Y026976D03*
X033349Y026976D03*
X033153Y026976D03*
X032956Y026976D03*
X033940Y026976D03*
X034137Y026976D03*
X034334Y026976D03*
X034334Y024889D03*
X034137Y024889D03*
X033940Y024889D03*
X033743Y024889D03*
X033546Y024889D03*
X033349Y024889D03*
X033153Y024889D03*
X032956Y024889D03*
X026066Y024889D03*
X025869Y024889D03*
X025672Y024889D03*
X025475Y024889D03*
X025279Y024889D03*
X025082Y024889D03*
X024885Y024889D03*
X024688Y024889D03*
X024688Y026976D03*
X024885Y026976D03*
X025082Y026976D03*
X025279Y026976D03*
X025475Y026976D03*
X025672Y026976D03*
X025869Y026976D03*
X026066Y026976D03*
X017798Y026976D03*
X017601Y026976D03*
X017404Y026976D03*
X017208Y026976D03*
X017011Y026976D03*
X016814Y026976D03*
X016617Y026976D03*
X016420Y026976D03*
X016420Y024889D03*
X016617Y024889D03*
X016814Y024889D03*
X017011Y024889D03*
X017208Y024889D03*
X017404Y024889D03*
X017601Y024889D03*
X017798Y024889D03*
X009530Y024889D03*
X009334Y024889D03*
X009137Y024889D03*
X008940Y024889D03*
X008743Y024889D03*
X008546Y024889D03*
X008349Y024889D03*
X008153Y024889D03*
X008153Y026976D03*
X008349Y026976D03*
X008546Y026976D03*
X008743Y026976D03*
X008940Y026976D03*
X009137Y026976D03*
X009334Y026976D03*
X009530Y026976D03*
X009530Y014693D03*
X009334Y014693D03*
X009137Y014693D03*
X008940Y014693D03*
X008743Y014693D03*
X008546Y014693D03*
X008349Y014693D03*
X008153Y014693D03*
X008153Y012606D03*
X008349Y012606D03*
X008546Y012606D03*
X008743Y012606D03*
X008940Y012606D03*
X009137Y012606D03*
X009334Y012606D03*
X009530Y012606D03*
X016420Y012606D03*
X016617Y012606D03*
X016814Y012606D03*
X017011Y012606D03*
X017208Y012606D03*
X017404Y012606D03*
X017601Y012606D03*
X017798Y012606D03*
X017798Y014693D03*
X017601Y014693D03*
X017404Y014693D03*
X017208Y014693D03*
X017011Y014693D03*
X016814Y014693D03*
X016617Y014693D03*
X016420Y014693D03*
X024688Y014693D03*
X024885Y014693D03*
X025082Y014693D03*
X025279Y014693D03*
X025475Y014693D03*
X025672Y014693D03*
X025869Y014693D03*
X026066Y014693D03*
X026066Y012606D03*
X025869Y012606D03*
X025672Y012606D03*
X025475Y012606D03*
X025279Y012606D03*
X025082Y012606D03*
X024885Y012606D03*
X024688Y012606D03*
X032956Y012606D03*
X033153Y012606D03*
X033349Y012606D03*
X033546Y012606D03*
X033743Y012606D03*
X033940Y012606D03*
X034137Y012606D03*
X034334Y012606D03*
X034334Y014693D03*
X034137Y014693D03*
X033940Y014693D03*
X033743Y014693D03*
X033546Y014693D03*
X033349Y014693D03*
X033153Y014693D03*
X032956Y014693D03*
D15*
X032641Y014338D03*
X032641Y014141D03*
X032641Y013944D03*
X032641Y013748D03*
X032641Y013551D03*
X032641Y013354D03*
X032641Y013157D03*
X032641Y012960D03*
X034688Y012960D03*
X034688Y013157D03*
X034688Y013354D03*
X034688Y013551D03*
X034688Y013748D03*
X034688Y013944D03*
X034688Y014141D03*
X034688Y014338D03*
X032631Y016887D03*
X032631Y017143D03*
X032631Y017399D03*
X032631Y017655D03*
X030879Y017655D03*
X030879Y017399D03*
X030879Y017143D03*
X030879Y016887D03*
X026420Y014338D03*
X026420Y014141D03*
X026420Y013944D03*
X026420Y013748D03*
X026420Y013551D03*
X026420Y013354D03*
X026420Y013157D03*
X026420Y012960D03*
X024373Y012960D03*
X024373Y013157D03*
X024373Y013354D03*
X024373Y013551D03*
X024373Y013748D03*
X024373Y013944D03*
X024373Y014141D03*
X024373Y014338D03*
X024363Y016887D03*
X024363Y017143D03*
X024363Y017399D03*
X024363Y017655D03*
X022611Y017655D03*
X022611Y017399D03*
X022611Y017143D03*
X022611Y016887D03*
X018153Y014338D03*
X018153Y014141D03*
X018153Y013944D03*
X018153Y013748D03*
X018153Y013551D03*
X018153Y013354D03*
X018153Y013157D03*
X018153Y012960D03*
X016105Y012960D03*
X016105Y013157D03*
X016105Y013354D03*
X016105Y013551D03*
X016105Y013748D03*
X016105Y013944D03*
X016105Y014141D03*
X016105Y014338D03*
X016095Y016887D03*
X016095Y017143D03*
X016095Y017399D03*
X016095Y017655D03*
X014343Y017655D03*
X014343Y017399D03*
X014343Y017143D03*
X014343Y016887D03*
X009885Y014338D03*
X009885Y014141D03*
X009885Y013944D03*
X009885Y013748D03*
X009885Y013551D03*
X009885Y013354D03*
X009885Y013157D03*
X009885Y012960D03*
X007838Y012960D03*
X007838Y013157D03*
X007838Y013354D03*
X007838Y013551D03*
X007838Y013748D03*
X007838Y013944D03*
X007838Y014141D03*
X007838Y014338D03*
X007828Y016887D03*
X007828Y017143D03*
X007828Y017399D03*
X007828Y017655D03*
X006076Y017655D03*
X006076Y017399D03*
X006076Y017143D03*
X006076Y016887D03*
X007838Y025244D03*
X007838Y025441D03*
X007838Y025637D03*
X007838Y025834D03*
X007838Y026031D03*
X007838Y026228D03*
X007838Y026425D03*
X007838Y026622D03*
X009885Y026622D03*
X009885Y026425D03*
X009885Y026228D03*
X009885Y026031D03*
X009885Y025834D03*
X009885Y025637D03*
X009885Y025441D03*
X009885Y025244D03*
X007828Y029171D03*
X007828Y029427D03*
X007828Y029683D03*
X007828Y029939D03*
X006076Y029939D03*
X006076Y029683D03*
X006076Y029427D03*
X006076Y029171D03*
X014343Y029171D03*
X014343Y029427D03*
X014343Y029683D03*
X014343Y029939D03*
X016095Y029939D03*
X016095Y029683D03*
X016095Y029427D03*
X016095Y029171D03*
X016105Y026622D03*
X016105Y026425D03*
X016105Y026228D03*
X016105Y026031D03*
X016105Y025834D03*
X016105Y025637D03*
X016105Y025441D03*
X016105Y025244D03*
X018153Y025244D03*
X018153Y025441D03*
X018153Y025637D03*
X018153Y025834D03*
X018153Y026031D03*
X018153Y026228D03*
X018153Y026425D03*
X018153Y026622D03*
X022611Y029171D03*
X022611Y029427D03*
X022611Y029683D03*
X022611Y029939D03*
X024363Y029939D03*
X024363Y029683D03*
X024363Y029427D03*
X024363Y029171D03*
X024373Y026622D03*
X024373Y026425D03*
X024373Y026228D03*
X024373Y026031D03*
X024373Y025834D03*
X024373Y025637D03*
X024373Y025441D03*
X024373Y025244D03*
X026420Y025244D03*
X026420Y025441D03*
X026420Y025637D03*
X026420Y025834D03*
X026420Y026031D03*
X026420Y026228D03*
X026420Y026425D03*
X026420Y026622D03*
X030879Y029171D03*
X030879Y029427D03*
X030879Y029683D03*
X030879Y029939D03*
X032631Y029939D03*
X032631Y029683D03*
X032631Y029427D03*
X032631Y029171D03*
X032641Y026622D03*
X032641Y026425D03*
X032641Y026228D03*
X032641Y026031D03*
X032641Y025834D03*
X032641Y025637D03*
X032641Y025441D03*
X032641Y025244D03*
X034688Y025244D03*
X034688Y025441D03*
X034688Y025637D03*
X034688Y025834D03*
X034688Y026031D03*
X034688Y026228D03*
X034688Y026425D03*
X034688Y026622D03*
D16*
X034865Y027586D03*
X034393Y027586D03*
X034393Y028059D03*
X034865Y028059D03*
X034786Y029397D03*
X035259Y029397D03*
X033645Y030145D03*
X033172Y030145D03*
X033172Y030618D03*
X033645Y030618D03*
X033290Y028728D03*
X032818Y028728D03*
X030967Y028413D03*
X030967Y027941D03*
X030967Y027547D03*
X030967Y027074D03*
X030967Y026641D03*
X030967Y026169D03*
X030967Y025696D03*
X030967Y025224D03*
X030967Y024673D03*
X030967Y024200D03*
X030967Y023689D03*
X030967Y023216D03*
X030967Y022704D03*
X030967Y022232D03*
X030967Y021838D03*
X030967Y021366D03*
X032385Y022350D03*
X032857Y022350D03*
X033841Y023452D03*
X034275Y023452D03*
X034275Y023925D03*
X033841Y023925D03*
X032739Y024397D03*
X032267Y024397D03*
X026991Y029397D03*
X026519Y029397D03*
X026597Y028059D03*
X026125Y028059D03*
X026125Y027586D03*
X026597Y027586D03*
X025023Y028728D03*
X024550Y028728D03*
X024904Y030145D03*
X024904Y030618D03*
X025377Y030618D03*
X025377Y030145D03*
X023015Y030381D03*
X022542Y030381D03*
X022700Y028413D03*
X022700Y027941D03*
X022700Y027547D03*
X022700Y027074D03*
X022700Y026641D03*
X022700Y026169D03*
X022700Y025696D03*
X022700Y025224D03*
X022700Y024673D03*
X022700Y024200D03*
X022700Y023689D03*
X022700Y023216D03*
X022700Y022704D03*
X022700Y022232D03*
X022700Y021838D03*
X022700Y021366D03*
X024117Y022350D03*
X024590Y022350D03*
X025574Y023452D03*
X026007Y023452D03*
X026007Y023925D03*
X025574Y023925D03*
X024471Y024397D03*
X023999Y024397D03*
X018723Y029397D03*
X018251Y029397D03*
X018330Y028059D03*
X017857Y028059D03*
X017857Y027586D03*
X018330Y027586D03*
X016755Y028728D03*
X016282Y028728D03*
X016637Y030145D03*
X017109Y030145D03*
X017109Y030618D03*
X016637Y030618D03*
X014747Y030381D03*
X014275Y030381D03*
X014432Y028413D03*
X014432Y027941D03*
X014432Y027547D03*
X014432Y027074D03*
X014432Y026641D03*
X014432Y026169D03*
X014432Y025696D03*
X014432Y025224D03*
X014432Y024673D03*
X014432Y024200D03*
X014432Y023689D03*
X014432Y023216D03*
X014432Y022704D03*
X014432Y022232D03*
X014432Y021838D03*
X014432Y021366D03*
X015849Y022350D03*
X016322Y022350D03*
X017306Y023452D03*
X017739Y023452D03*
X017739Y023925D03*
X017306Y023925D03*
X016204Y024397D03*
X015731Y024397D03*
X010456Y029397D03*
X009983Y029397D03*
X010062Y028059D03*
X009590Y028059D03*
X009590Y027586D03*
X010062Y027586D03*
X008487Y028728D03*
X008015Y028728D03*
X008369Y030145D03*
X008841Y030145D03*
X008841Y030618D03*
X008369Y030618D03*
X006479Y030381D03*
X006007Y030381D03*
X006164Y028413D03*
X006164Y027941D03*
X006164Y027547D03*
X006164Y027074D03*
X006164Y026641D03*
X006164Y026169D03*
X006164Y025696D03*
X006164Y025224D03*
X006164Y024673D03*
X006164Y024200D03*
X006164Y023689D03*
X006164Y023216D03*
X006164Y022704D03*
X006164Y022232D03*
X006164Y021838D03*
X006164Y021366D03*
X007582Y022350D03*
X008054Y022350D03*
X009038Y023452D03*
X009471Y023452D03*
X009471Y023925D03*
X009038Y023925D03*
X007936Y024397D03*
X007464Y024397D03*
X008369Y018334D03*
X008841Y018334D03*
X008841Y017862D03*
X008369Y017862D03*
X008487Y016444D03*
X008015Y016444D03*
X009590Y015775D03*
X010062Y015775D03*
X010062Y015303D03*
X009590Y015303D03*
X009983Y017114D03*
X010456Y017114D03*
X014275Y018098D03*
X014747Y018098D03*
X016637Y017862D03*
X017109Y017862D03*
X017109Y018334D03*
X016637Y018334D03*
X016755Y016444D03*
X016282Y016444D03*
X014432Y016130D03*
X014432Y015657D03*
X014432Y015263D03*
X014432Y014791D03*
X014432Y014358D03*
X014432Y013885D03*
X014432Y013413D03*
X014432Y012941D03*
X014432Y012389D03*
X014432Y011917D03*
X014432Y011405D03*
X014432Y010933D03*
X014432Y010421D03*
X014432Y009948D03*
X014432Y009555D03*
X014432Y009082D03*
X015849Y010067D03*
X016322Y010067D03*
X017306Y011169D03*
X017739Y011169D03*
X017739Y011641D03*
X017306Y011641D03*
X016204Y012114D03*
X015731Y012114D03*
X017857Y015303D03*
X017857Y015775D03*
X018330Y015775D03*
X018330Y015303D03*
X018251Y017114D03*
X018723Y017114D03*
X022542Y018098D03*
X023015Y018098D03*
X024550Y016444D03*
X025023Y016444D03*
X026125Y015775D03*
X026125Y015303D03*
X026597Y015303D03*
X026597Y015775D03*
X026519Y017114D03*
X026991Y017114D03*
X025377Y017862D03*
X025377Y018334D03*
X024904Y018334D03*
X024904Y017862D03*
X022700Y016130D03*
X022700Y015657D03*
X022700Y015263D03*
X022700Y014791D03*
X022700Y014358D03*
X022700Y013885D03*
X022700Y013413D03*
X022700Y012941D03*
X022700Y012389D03*
X022700Y011917D03*
X022700Y011405D03*
X022700Y010933D03*
X022700Y010421D03*
X022700Y009948D03*
X022700Y009555D03*
X022700Y009082D03*
X024117Y010067D03*
X024590Y010067D03*
X025574Y011169D03*
X026007Y011169D03*
X026007Y011641D03*
X025574Y011641D03*
X024471Y012114D03*
X023999Y012114D03*
X030967Y011917D03*
X030967Y011405D03*
X030967Y010933D03*
X030967Y010421D03*
X030967Y009948D03*
X030967Y009555D03*
X030967Y009082D03*
X032385Y010067D03*
X032857Y010067D03*
X033841Y011169D03*
X034275Y011169D03*
X034275Y011641D03*
X033841Y011641D03*
X032739Y012114D03*
X032267Y012114D03*
X030967Y012389D03*
X030967Y012941D03*
X030967Y013413D03*
X030967Y013885D03*
X030967Y014358D03*
X030967Y014791D03*
X030967Y015263D03*
X030967Y015657D03*
X030967Y016130D03*
X032818Y016444D03*
X033290Y016444D03*
X034393Y015775D03*
X034393Y015303D03*
X034865Y015303D03*
X034865Y015775D03*
X034786Y017114D03*
X035259Y017114D03*
X033645Y017862D03*
X033172Y017862D03*
X033172Y018334D03*
X033645Y018334D03*
X031282Y018098D03*
X030810Y018098D03*
X030810Y030381D03*
X031282Y030381D03*
X009471Y011641D03*
X009038Y011641D03*
X009038Y011169D03*
X009471Y011169D03*
X008054Y010067D03*
X007582Y010067D03*
X006164Y009948D03*
X006164Y009555D03*
X006164Y009082D03*
X006164Y010421D03*
X006164Y010933D03*
X006164Y011405D03*
X006164Y011917D03*
X006164Y012389D03*
X006164Y012941D03*
X006164Y013413D03*
X006164Y013885D03*
X006164Y014358D03*
X006164Y014791D03*
X006164Y015263D03*
X006164Y015657D03*
X006164Y016130D03*
X006007Y018098D03*
X006479Y018098D03*
X007464Y012114D03*
X007936Y012114D03*
D17*
X007660Y016307D02*
X007630Y016310D01*
X007601Y016320D01*
X007574Y016337D01*
X007553Y016359D01*
X007536Y016385D01*
X007526Y016414D01*
X007523Y016444D01*
X007526Y016475D01*
X007536Y016504D01*
X007553Y016530D01*
X007574Y016552D01*
X007601Y016569D01*
X007630Y016579D01*
X007660Y016582D01*
X007691Y016579D01*
X007720Y016569D01*
X007746Y016552D01*
X007768Y016530D01*
X007785Y016504D01*
X007795Y016475D01*
X007798Y016444D01*
X007795Y016414D01*
X007785Y016385D01*
X007768Y016359D01*
X007746Y016337D01*
X007720Y016320D01*
X007691Y016310D01*
X007660Y016307D01*
X007604Y016319D02*
X007717Y016319D01*
X007774Y016368D02*
X007547Y016368D01*
X007526Y016416D02*
X007795Y016416D01*
X007796Y016465D02*
X007525Y016465D01*
X007542Y016513D02*
X007779Y016513D01*
X007731Y016562D02*
X007590Y016562D01*
X008664Y016444D02*
X008668Y016414D01*
X008678Y016385D01*
X008694Y016359D01*
X008716Y016337D01*
X008742Y016320D01*
X008771Y016310D01*
X008802Y016307D01*
X008833Y016310D01*
X008862Y016320D01*
X008888Y016337D01*
X008910Y016359D01*
X008926Y016385D01*
X008936Y016414D01*
X008940Y016444D01*
X008936Y016475D01*
X008926Y016504D01*
X008910Y016530D01*
X008888Y016552D01*
X008862Y016569D01*
X008833Y016579D01*
X008802Y016582D01*
X008771Y016579D01*
X008742Y016569D01*
X008716Y016552D01*
X008694Y016530D01*
X008678Y016504D01*
X008668Y016475D01*
X008664Y016444D01*
X008667Y016465D02*
X008938Y016465D01*
X008937Y016416D02*
X008668Y016416D01*
X008689Y016368D02*
X008916Y016368D01*
X008859Y016319D02*
X008746Y016319D01*
X008684Y016513D02*
X008921Y016513D01*
X008873Y016562D02*
X008731Y016562D01*
X009018Y017423D02*
X008992Y017439D01*
X008970Y017461D01*
X008954Y017487D01*
X008943Y017516D01*
X008940Y017547D01*
X008943Y017578D01*
X008954Y017607D01*
X008970Y017633D01*
X008992Y017655D01*
X009018Y017671D01*
X009047Y017681D01*
X009078Y017685D01*
X009108Y017681D01*
X009138Y017671D01*
X009164Y017655D01*
X009185Y017633D01*
X009202Y017607D01*
X009212Y017578D01*
X009216Y017547D01*
X009212Y017516D01*
X009202Y017487D01*
X009185Y017461D01*
X009164Y017439D01*
X009138Y017423D01*
X009108Y017413D01*
X009078Y017409D01*
X009047Y017413D01*
X009018Y017423D01*
X008999Y017435D02*
X009157Y017435D01*
X009199Y017483D02*
X008956Y017483D01*
X008942Y017532D02*
X009214Y017532D01*
X009211Y017580D02*
X008944Y017580D01*
X008967Y017629D02*
X009188Y017629D01*
X009120Y017677D02*
X009036Y017677D01*
X006141Y018461D02*
X006131Y018432D01*
X006115Y018406D01*
X006093Y018384D01*
X006067Y018368D01*
X006038Y018357D01*
X006007Y018354D01*
X005976Y018357D01*
X005947Y018368D01*
X005921Y018384D01*
X005899Y018406D01*
X005883Y018432D01*
X005873Y018461D01*
X005869Y018492D01*
X005873Y018522D01*
X005883Y018552D01*
X005899Y018578D01*
X005921Y018599D01*
X005947Y018616D01*
X005976Y018626D01*
X006007Y018630D01*
X006038Y018626D01*
X006067Y018616D01*
X006093Y018599D01*
X006115Y018578D01*
X006131Y018552D01*
X006141Y018522D01*
X006145Y018492D01*
X006141Y018461D01*
X006138Y018453D02*
X005875Y018453D01*
X005870Y018502D02*
X006144Y018502D01*
X006131Y018550D02*
X005882Y018550D01*
X005920Y018599D02*
X006094Y018599D01*
X006113Y018405D02*
X005900Y018405D01*
X005987Y018356D02*
X006027Y018356D01*
X014137Y018492D02*
X014140Y018461D01*
X014150Y018432D01*
X014167Y018406D01*
X014189Y018384D01*
X014215Y018368D01*
X014244Y018357D01*
X014275Y018354D01*
X014305Y018357D01*
X014334Y018368D01*
X014360Y018384D01*
X014382Y018406D01*
X014399Y018432D01*
X014409Y018461D01*
X014412Y018492D01*
X014409Y018522D01*
X014399Y018552D01*
X014382Y018578D01*
X014360Y018599D01*
X014334Y018616D01*
X014305Y018626D01*
X014275Y018630D01*
X014244Y018626D01*
X014215Y018616D01*
X014189Y018599D01*
X014167Y018578D01*
X014150Y018552D01*
X014140Y018522D01*
X014137Y018492D01*
X014138Y018502D02*
X014411Y018502D01*
X014406Y018453D02*
X014143Y018453D01*
X014168Y018405D02*
X014381Y018405D01*
X014295Y018356D02*
X014255Y018356D01*
X014150Y018550D02*
X014399Y018550D01*
X014361Y018599D02*
X014188Y018599D01*
X015842Y016552D02*
X015868Y016569D01*
X015897Y016579D01*
X015928Y016582D01*
X015959Y016579D01*
X015988Y016569D01*
X016014Y016552D01*
X016036Y016530D01*
X016052Y016504D01*
X016062Y016475D01*
X016066Y016444D01*
X016062Y016414D01*
X016052Y016385D01*
X016036Y016359D01*
X016014Y016337D01*
X015988Y016320D01*
X015959Y016310D01*
X015928Y016307D01*
X015897Y016310D01*
X015868Y016320D01*
X015842Y016337D01*
X015820Y016359D01*
X015804Y016385D01*
X015794Y016414D01*
X015790Y016444D01*
X015794Y016475D01*
X015804Y016504D01*
X015820Y016530D01*
X015842Y016552D01*
X015857Y016562D02*
X015999Y016562D01*
X016047Y016513D02*
X015810Y016513D01*
X015793Y016465D02*
X016064Y016465D01*
X016063Y016416D02*
X015794Y016416D01*
X015815Y016368D02*
X016042Y016368D01*
X015985Y016319D02*
X015872Y016319D01*
X016932Y016444D02*
X016936Y016414D01*
X016946Y016385D01*
X016962Y016359D01*
X016984Y016337D01*
X017010Y016320D01*
X017039Y016310D01*
X017070Y016307D01*
X017101Y016310D01*
X017130Y016320D01*
X017156Y016337D01*
X017178Y016359D01*
X017194Y016385D01*
X017204Y016414D01*
X017208Y016444D01*
X017204Y016475D01*
X017194Y016504D01*
X017178Y016530D01*
X017156Y016552D01*
X017130Y016569D01*
X017101Y016579D01*
X017070Y016582D01*
X017039Y016579D01*
X017010Y016569D01*
X016984Y016552D01*
X016962Y016530D01*
X016946Y016504D01*
X016936Y016475D01*
X016932Y016444D01*
X016934Y016465D02*
X017205Y016465D01*
X017204Y016416D02*
X016935Y016416D01*
X016956Y016368D02*
X017183Y016368D01*
X017126Y016319D02*
X017013Y016319D01*
X016951Y016513D02*
X017188Y016513D01*
X017141Y016562D02*
X016999Y016562D01*
X017286Y017423D02*
X017260Y017439D01*
X017238Y017461D01*
X017221Y017487D01*
X017211Y017516D01*
X017208Y017547D01*
X017211Y017578D01*
X017221Y017607D01*
X017238Y017633D01*
X017260Y017655D01*
X017286Y017671D01*
X017315Y017681D01*
X017345Y017685D01*
X017376Y017681D01*
X017405Y017671D01*
X017431Y017655D01*
X017453Y017633D01*
X017470Y017607D01*
X017480Y017578D01*
X017483Y017547D01*
X017480Y017516D01*
X017470Y017487D01*
X017453Y017461D01*
X017431Y017439D01*
X017405Y017423D01*
X017376Y017413D01*
X017345Y017409D01*
X017315Y017413D01*
X017286Y017423D01*
X017267Y017435D02*
X017424Y017435D01*
X017467Y017483D02*
X017224Y017483D01*
X017209Y017532D02*
X017482Y017532D01*
X017479Y017580D02*
X017212Y017580D01*
X017235Y017629D02*
X017456Y017629D01*
X017388Y017677D02*
X017303Y017677D01*
X022408Y018461D02*
X022404Y018492D01*
X022408Y018522D01*
X022418Y018552D01*
X022435Y018578D01*
X022456Y018599D01*
X022629Y018599D01*
X022628Y018599D02*
X022650Y018578D01*
X022666Y018552D01*
X022677Y018522D01*
X022680Y018492D01*
X022677Y018461D01*
X022666Y018432D01*
X022650Y018406D01*
X022628Y018384D01*
X022602Y018368D01*
X022573Y018357D01*
X022542Y018354D01*
X022512Y018357D01*
X022482Y018368D01*
X022456Y018384D01*
X022435Y018406D01*
X022418Y018432D01*
X022408Y018461D01*
X022411Y018453D02*
X022674Y018453D01*
X022679Y018502D02*
X022406Y018502D01*
X022418Y018550D02*
X022667Y018550D01*
X022628Y018599D02*
X022602Y018616D01*
X022573Y018626D01*
X022542Y018630D01*
X022512Y018626D01*
X022482Y018616D01*
X022456Y018599D01*
X022436Y018405D02*
X022649Y018405D01*
X022562Y018356D02*
X022522Y018356D01*
X024110Y016552D02*
X024136Y016569D01*
X024165Y016579D01*
X024196Y016582D01*
X024226Y016579D01*
X024256Y016569D01*
X024282Y016552D01*
X024304Y016530D01*
X024320Y016504D01*
X024330Y016475D01*
X024334Y016444D01*
X024330Y016414D01*
X024320Y016385D01*
X024304Y016359D01*
X024282Y016337D01*
X024256Y016320D01*
X024226Y016310D01*
X024196Y016307D01*
X024165Y016310D01*
X024136Y016320D01*
X024110Y016337D01*
X024088Y016359D01*
X024072Y016385D01*
X024061Y016414D01*
X024058Y016444D01*
X024061Y016475D01*
X024072Y016504D01*
X024088Y016530D01*
X024110Y016552D01*
X024125Y016562D02*
X024267Y016562D01*
X024314Y016513D02*
X024077Y016513D01*
X024060Y016465D02*
X024331Y016465D01*
X024330Y016416D02*
X024061Y016416D01*
X024082Y016368D02*
X024309Y016368D01*
X024252Y016319D02*
X024139Y016319D01*
X025203Y016414D02*
X025200Y016444D01*
X025203Y016475D01*
X025213Y016504D01*
X025230Y016530D01*
X025252Y016552D01*
X025278Y016569D01*
X025307Y016579D01*
X025338Y016582D01*
X025368Y016579D01*
X025397Y016569D01*
X025423Y016552D01*
X025445Y016530D01*
X025462Y016504D01*
X025472Y016475D01*
X025475Y016444D01*
X025472Y016414D01*
X025462Y016385D01*
X025445Y016359D01*
X025423Y016337D01*
X025397Y016320D01*
X025368Y016310D01*
X025338Y016307D01*
X025307Y016310D01*
X025278Y016320D01*
X025252Y016337D01*
X025230Y016359D01*
X025213Y016385D01*
X025203Y016414D01*
X025203Y016416D02*
X025472Y016416D01*
X025473Y016465D02*
X025202Y016465D01*
X025219Y016513D02*
X025456Y016513D01*
X025408Y016562D02*
X025267Y016562D01*
X025224Y016368D02*
X025451Y016368D01*
X025394Y016319D02*
X025281Y016319D01*
X025582Y017413D02*
X025553Y017423D01*
X025527Y017439D01*
X025505Y017461D01*
X025489Y017487D01*
X025479Y017516D01*
X025475Y017547D01*
X025479Y017578D01*
X025489Y017607D01*
X025505Y017633D01*
X025527Y017655D01*
X025553Y017671D01*
X025582Y017681D01*
X025613Y017685D01*
X025644Y017681D01*
X025673Y017671D01*
X025699Y017655D01*
X025721Y017633D01*
X025737Y017607D01*
X025747Y017578D01*
X025751Y017547D01*
X025747Y017516D01*
X025737Y017487D01*
X025721Y017461D01*
X025699Y017439D01*
X025673Y017423D01*
X025644Y017413D01*
X025613Y017409D01*
X025582Y017413D01*
X025534Y017435D02*
X025692Y017435D01*
X025735Y017483D02*
X025491Y017483D01*
X025477Y017532D02*
X025749Y017532D01*
X025747Y017580D02*
X025480Y017580D01*
X025503Y017629D02*
X025723Y017629D01*
X025655Y017677D02*
X025571Y017677D01*
X030676Y018461D02*
X030672Y018492D01*
X030676Y018522D01*
X030686Y018552D01*
X030702Y018578D01*
X030724Y018599D01*
X030750Y018616D01*
X030779Y018626D01*
X030810Y018630D01*
X030841Y018626D01*
X030870Y018616D01*
X030896Y018599D01*
X030918Y018578D01*
X030934Y018552D01*
X030944Y018522D01*
X030948Y018492D01*
X030944Y018461D01*
X030934Y018432D01*
X030918Y018406D01*
X030896Y018384D01*
X030870Y018368D01*
X030841Y018357D01*
X030810Y018354D01*
X030779Y018357D01*
X030750Y018368D01*
X030724Y018384D01*
X030702Y018406D01*
X030686Y018432D01*
X030676Y018461D01*
X030678Y018453D02*
X030942Y018453D01*
X030947Y018502D02*
X030673Y018502D01*
X030685Y018550D02*
X030935Y018550D01*
X030897Y018599D02*
X030723Y018599D01*
X030703Y018405D02*
X030917Y018405D01*
X030830Y018356D02*
X030790Y018356D01*
X032378Y016552D02*
X032404Y016569D01*
X032433Y016579D01*
X032464Y016582D01*
X032494Y016579D01*
X032523Y016569D01*
X032549Y016552D01*
X032571Y016530D01*
X032588Y016504D01*
X032598Y016475D01*
X032601Y016444D01*
X032598Y016414D01*
X032588Y016385D01*
X032571Y016359D01*
X032549Y016337D01*
X032523Y016320D01*
X032494Y016310D01*
X032464Y016307D01*
X032433Y016310D01*
X032404Y016320D01*
X032378Y016337D01*
X032356Y016359D01*
X032339Y016385D01*
X032329Y016414D01*
X032326Y016444D01*
X032329Y016475D01*
X032339Y016504D01*
X032356Y016530D01*
X032378Y016552D01*
X032393Y016562D02*
X032534Y016562D01*
X032582Y016513D02*
X032345Y016513D01*
X032328Y016465D02*
X032599Y016465D01*
X032598Y016416D02*
X032329Y016416D01*
X032350Y016368D02*
X032577Y016368D01*
X032520Y016319D02*
X032407Y016319D01*
X033467Y016444D02*
X033471Y016414D01*
X033481Y016385D01*
X033498Y016359D01*
X033519Y016337D01*
X033545Y016320D01*
X033575Y016310D01*
X033605Y016307D01*
X033636Y016310D01*
X033665Y016320D01*
X033691Y016337D01*
X033713Y016359D01*
X033729Y016385D01*
X033740Y016414D01*
X033743Y016444D01*
X033740Y016475D01*
X033729Y016504D01*
X033713Y016530D01*
X033691Y016552D01*
X033665Y016569D01*
X033636Y016579D01*
X033605Y016582D01*
X033575Y016579D01*
X033545Y016569D01*
X033519Y016552D01*
X033498Y016530D01*
X033481Y016504D01*
X033471Y016475D01*
X033467Y016444D01*
X033470Y016465D02*
X033741Y016465D01*
X033740Y016416D02*
X033471Y016416D01*
X033492Y016368D02*
X033719Y016368D01*
X033662Y016319D02*
X033549Y016319D01*
X033487Y016513D02*
X033724Y016513D01*
X033676Y016562D02*
X033534Y016562D01*
X033821Y017423D02*
X033795Y017439D01*
X033773Y017461D01*
X033757Y017487D01*
X033747Y017516D01*
X033743Y017547D01*
X033747Y017578D01*
X033757Y017607D01*
X033773Y017633D01*
X033795Y017655D01*
X033821Y017671D01*
X033850Y017681D01*
X033881Y017685D01*
X033912Y017681D01*
X033941Y017671D01*
X033967Y017655D01*
X033989Y017633D01*
X034005Y017607D01*
X034015Y017578D01*
X034019Y017547D01*
X034015Y017516D01*
X034005Y017487D01*
X033989Y017461D01*
X033967Y017439D01*
X033941Y017423D01*
X033912Y017413D01*
X033881Y017409D01*
X033850Y017413D01*
X033821Y017423D01*
X033802Y017435D02*
X033960Y017435D01*
X034003Y017483D02*
X033759Y017483D01*
X033745Y017532D02*
X034017Y017532D01*
X034014Y017580D02*
X033747Y017580D01*
X033771Y017629D02*
X033991Y017629D01*
X033923Y017677D02*
X033839Y017677D01*
X033605Y028590D02*
X033575Y028594D01*
X033545Y028604D01*
X033519Y028620D01*
X033498Y028642D01*
X033481Y028668D01*
X033471Y028697D01*
X033467Y028728D01*
X033471Y028759D01*
X033481Y028788D01*
X033498Y028814D01*
X033519Y028836D01*
X033545Y028852D01*
X033575Y028862D01*
X033605Y028866D01*
X033636Y028862D01*
X033665Y028852D01*
X033691Y028836D01*
X033713Y028814D01*
X033729Y028788D01*
X033740Y028759D01*
X033743Y028728D01*
X033740Y028697D01*
X033729Y028668D01*
X033713Y028642D01*
X033691Y028620D01*
X033665Y028604D01*
X033636Y028594D01*
X033605Y028590D01*
X033501Y028638D02*
X033709Y028638D01*
X033736Y028687D02*
X033475Y028687D01*
X033468Y028735D02*
X033742Y028735D01*
X033731Y028784D02*
X033480Y028784D01*
X033516Y028832D02*
X033695Y028832D01*
X033850Y029696D02*
X033821Y029706D01*
X033795Y029723D01*
X033773Y029744D01*
X033757Y029771D01*
X033747Y029800D01*
X033743Y029830D01*
X033747Y029861D01*
X033757Y029890D01*
X033773Y029916D01*
X033795Y029938D01*
X033821Y029954D01*
X033850Y029965D01*
X033881Y029968D01*
X033912Y029965D01*
X033941Y029954D01*
X033967Y029938D01*
X033989Y029916D01*
X034005Y029890D01*
X034015Y029861D01*
X034019Y029830D01*
X034015Y029800D01*
X034005Y029771D01*
X033989Y029744D01*
X033967Y029723D01*
X033941Y029706D01*
X033912Y029696D01*
X033881Y029693D01*
X033850Y029696D01*
X033824Y029705D02*
X033938Y029705D01*
X033994Y029754D02*
X033767Y029754D01*
X033746Y029802D02*
X034015Y029802D01*
X034016Y029851D02*
X033745Y029851D01*
X033762Y029899D02*
X033999Y029899D01*
X033951Y029948D02*
X033810Y029948D01*
X032571Y028814D02*
X032588Y028788D01*
X032598Y028759D01*
X032601Y028728D01*
X032598Y028697D01*
X032588Y028668D01*
X032571Y028642D01*
X032549Y028620D01*
X032523Y028604D01*
X032494Y028594D01*
X032464Y028590D01*
X032433Y028594D01*
X032404Y028604D01*
X032378Y028620D01*
X032356Y028642D01*
X032339Y028668D01*
X032329Y028697D01*
X032326Y028728D01*
X032329Y028759D01*
X032339Y028788D01*
X032356Y028814D01*
X032378Y028836D01*
X032404Y028852D01*
X032433Y028862D01*
X032464Y028866D01*
X032494Y028862D01*
X032523Y028852D01*
X032549Y028836D01*
X032571Y028814D01*
X032553Y028832D02*
X032374Y028832D01*
X032338Y028784D02*
X032589Y028784D01*
X032601Y028735D02*
X032327Y028735D01*
X032333Y028687D02*
X032594Y028687D01*
X032567Y028638D02*
X032360Y028638D01*
X030896Y030667D02*
X030870Y030651D01*
X030841Y030641D01*
X030810Y030637D01*
X030779Y030641D01*
X030750Y030651D01*
X030724Y030667D01*
X030702Y030689D01*
X030686Y030715D01*
X030676Y030745D01*
X030672Y030775D01*
X030676Y030806D01*
X030686Y030835D01*
X030702Y030861D01*
X030724Y030883D01*
X030750Y030899D01*
X030779Y030910D01*
X030810Y030913D01*
X030841Y030910D01*
X030870Y030899D01*
X030896Y030883D01*
X030918Y030861D01*
X030934Y030835D01*
X030944Y030806D01*
X030948Y030775D01*
X030944Y030745D01*
X030934Y030715D01*
X030918Y030689D01*
X030896Y030667D01*
X030904Y030675D02*
X030716Y030675D01*
X030683Y030724D02*
X030937Y030724D01*
X030947Y030772D02*
X030673Y030772D01*
X030681Y030821D02*
X030939Y030821D01*
X030910Y030869D02*
X030710Y030869D01*
X025747Y029861D02*
X025751Y029830D01*
X025747Y029800D01*
X025737Y029771D01*
X025721Y029744D01*
X025699Y029723D01*
X025673Y029706D01*
X025644Y029696D01*
X025613Y029693D01*
X025582Y029696D01*
X025553Y029706D01*
X025527Y029723D01*
X025505Y029744D01*
X025489Y029771D01*
X025479Y029800D01*
X025475Y029830D01*
X025479Y029861D01*
X025489Y029890D01*
X025505Y029916D01*
X025527Y029938D01*
X025553Y029954D01*
X025582Y029965D01*
X025613Y029968D01*
X025644Y029965D01*
X025673Y029954D01*
X025699Y029938D01*
X025721Y029916D01*
X025737Y029890D01*
X025747Y029861D01*
X025749Y029851D02*
X025478Y029851D01*
X025479Y029802D02*
X025748Y029802D01*
X025727Y029754D02*
X025500Y029754D01*
X025556Y029705D02*
X025670Y029705D01*
X025732Y029899D02*
X025495Y029899D01*
X025543Y029948D02*
X025684Y029948D01*
X025368Y028862D02*
X025397Y028852D01*
X025423Y028836D01*
X025445Y028814D01*
X025462Y028788D01*
X025472Y028759D01*
X025475Y028728D01*
X025472Y028697D01*
X025462Y028668D01*
X025445Y028642D01*
X025423Y028620D01*
X025397Y028604D01*
X025368Y028594D01*
X025338Y028590D01*
X025307Y028594D01*
X025278Y028604D01*
X025252Y028620D01*
X025230Y028642D01*
X025213Y028668D01*
X025203Y028697D01*
X025200Y028728D01*
X025203Y028759D01*
X025213Y028788D01*
X025230Y028814D01*
X025252Y028836D01*
X025278Y028852D01*
X025307Y028862D01*
X025338Y028866D01*
X025368Y028862D01*
X025427Y028832D02*
X025248Y028832D01*
X025212Y028784D02*
X025463Y028784D01*
X025475Y028735D02*
X025201Y028735D01*
X025207Y028687D02*
X025468Y028687D01*
X025441Y028638D02*
X025234Y028638D01*
X024334Y028728D02*
X024330Y028697D01*
X024320Y028668D01*
X024304Y028642D01*
X024282Y028620D01*
X024256Y028604D01*
X024226Y028594D01*
X024196Y028590D01*
X024165Y028594D01*
X024136Y028604D01*
X024110Y028620D01*
X024088Y028642D01*
X024072Y028668D01*
X024061Y028697D01*
X024058Y028728D01*
X024061Y028759D01*
X024072Y028788D01*
X024088Y028814D01*
X024110Y028836D01*
X024136Y028852D01*
X024165Y028862D01*
X024196Y028866D01*
X024226Y028862D01*
X024256Y028852D01*
X024282Y028836D01*
X024304Y028814D01*
X024320Y028788D01*
X024330Y028759D01*
X024334Y028728D01*
X024333Y028735D02*
X024059Y028735D01*
X024065Y028687D02*
X024326Y028687D01*
X024300Y028638D02*
X024092Y028638D01*
X024070Y028784D02*
X024321Y028784D01*
X024285Y028832D02*
X024106Y028832D01*
X022628Y030667D02*
X022602Y030651D01*
X022573Y030641D01*
X022542Y030637D01*
X022512Y030641D01*
X022482Y030651D01*
X022456Y030667D01*
X022435Y030689D01*
X022418Y030715D01*
X022408Y030745D01*
X022404Y030775D01*
X022408Y030806D01*
X022418Y030835D01*
X022435Y030861D01*
X022456Y030883D01*
X022482Y030899D01*
X022512Y030910D01*
X022542Y030913D01*
X022573Y030910D01*
X022602Y030899D01*
X022628Y030883D01*
X022650Y030861D01*
X022666Y030835D01*
X022677Y030806D01*
X022680Y030775D01*
X022677Y030745D01*
X022666Y030715D01*
X022650Y030689D01*
X022628Y030667D01*
X022636Y030675D02*
X022449Y030675D01*
X022415Y030724D02*
X022669Y030724D01*
X022680Y030772D02*
X022405Y030772D01*
X022413Y030821D02*
X022671Y030821D01*
X022642Y030869D02*
X022443Y030869D01*
X017480Y029861D02*
X017483Y029830D01*
X017480Y029800D01*
X017470Y029771D01*
X017453Y029744D01*
X017431Y029723D01*
X017405Y029706D01*
X017376Y029696D01*
X017345Y029693D01*
X017315Y029696D01*
X017286Y029706D01*
X017260Y029723D01*
X017238Y029744D01*
X017221Y029771D01*
X017211Y029800D01*
X017208Y029830D01*
X017211Y029861D01*
X017221Y029890D01*
X017238Y029916D01*
X017260Y029938D01*
X017286Y029954D01*
X017315Y029965D01*
X017345Y029968D01*
X017376Y029965D01*
X017405Y029954D01*
X017431Y029938D01*
X017453Y029916D01*
X017470Y029890D01*
X017480Y029861D01*
X017481Y029851D02*
X017210Y029851D01*
X017211Y029802D02*
X017480Y029802D01*
X017459Y029754D02*
X017232Y029754D01*
X017288Y029705D02*
X017403Y029705D01*
X017464Y029899D02*
X017227Y029899D01*
X017275Y029948D02*
X017416Y029948D01*
X017101Y028862D02*
X017130Y028852D01*
X017156Y028836D01*
X017178Y028814D01*
X017194Y028788D01*
X017204Y028759D01*
X017208Y028728D01*
X017204Y028697D01*
X017194Y028668D01*
X017178Y028642D01*
X017156Y028620D01*
X017130Y028604D01*
X017101Y028594D01*
X017070Y028590D01*
X017039Y028594D01*
X017010Y028604D01*
X016984Y028620D01*
X016962Y028642D01*
X016946Y028668D01*
X016936Y028697D01*
X016932Y028728D01*
X016936Y028759D01*
X016946Y028788D01*
X016962Y028814D01*
X016984Y028836D01*
X017010Y028852D01*
X017039Y028862D01*
X017070Y028866D01*
X017101Y028862D01*
X017159Y028832D02*
X016980Y028832D01*
X016944Y028784D02*
X017195Y028784D01*
X017207Y028735D02*
X016933Y028735D01*
X016939Y028687D02*
X017200Y028687D01*
X017174Y028638D02*
X016966Y028638D01*
X016066Y028728D02*
X016062Y028697D01*
X016052Y028668D01*
X016036Y028642D01*
X016014Y028620D01*
X015988Y028604D01*
X015959Y028594D01*
X015928Y028590D01*
X015897Y028594D01*
X015868Y028604D01*
X015842Y028620D01*
X015820Y028642D01*
X015804Y028668D01*
X015794Y028697D01*
X015790Y028728D01*
X015794Y028759D01*
X015804Y028788D01*
X015820Y028814D01*
X015842Y028836D01*
X015868Y028852D01*
X015897Y028862D01*
X015928Y028866D01*
X015959Y028862D01*
X015988Y028852D01*
X016014Y028836D01*
X016036Y028814D01*
X016052Y028788D01*
X016062Y028759D01*
X016066Y028728D01*
X016065Y028735D02*
X015791Y028735D01*
X015797Y028687D02*
X016059Y028687D01*
X016032Y028638D02*
X015824Y028638D01*
X015803Y028784D02*
X016054Y028784D01*
X016017Y028832D02*
X015839Y028832D01*
X014360Y030667D02*
X014334Y030651D01*
X014305Y030641D01*
X014275Y030637D01*
X014244Y030641D01*
X014215Y030651D01*
X014189Y030667D01*
X014167Y030689D01*
X014150Y030715D01*
X014140Y030745D01*
X014137Y030775D01*
X014140Y030806D01*
X014150Y030835D01*
X014167Y030861D01*
X014189Y030883D01*
X014215Y030899D01*
X014244Y030910D01*
X014275Y030913D01*
X014305Y030910D01*
X014334Y030899D01*
X014360Y030883D01*
X014382Y030861D01*
X014399Y030835D01*
X014409Y030806D01*
X014412Y030775D01*
X014409Y030745D01*
X014399Y030715D01*
X014382Y030689D01*
X014360Y030667D01*
X014368Y030675D02*
X014181Y030675D01*
X014147Y030724D02*
X014402Y030724D01*
X014412Y030772D02*
X014137Y030772D01*
X014145Y030821D02*
X014404Y030821D01*
X014374Y030869D02*
X014175Y030869D01*
X009212Y029861D02*
X009216Y029830D01*
X009212Y029800D01*
X009202Y029771D01*
X009185Y029744D01*
X009164Y029723D01*
X009138Y029706D01*
X009108Y029696D01*
X009078Y029693D01*
X009047Y029696D01*
X009018Y029706D01*
X008992Y029723D01*
X008970Y029744D01*
X008954Y029771D01*
X008943Y029800D01*
X008940Y029830D01*
X008943Y029861D01*
X008954Y029890D01*
X008970Y029916D01*
X008992Y029938D01*
X009018Y029954D01*
X009047Y029965D01*
X009078Y029968D01*
X009108Y029965D01*
X009138Y029954D01*
X009164Y029938D01*
X009185Y029916D01*
X009202Y029890D01*
X009212Y029861D01*
X009213Y029851D02*
X008942Y029851D01*
X008943Y029802D02*
X009212Y029802D01*
X009191Y029754D02*
X008964Y029754D01*
X009021Y029705D02*
X009135Y029705D01*
X009196Y029899D02*
X008959Y029899D01*
X009007Y029948D02*
X009148Y029948D01*
X008833Y028862D02*
X008862Y028852D01*
X008888Y028836D01*
X008910Y028814D01*
X008926Y028788D01*
X008936Y028759D01*
X008940Y028728D01*
X008936Y028697D01*
X008926Y028668D01*
X008910Y028642D01*
X008888Y028620D01*
X008862Y028604D01*
X008833Y028594D01*
X008802Y028590D01*
X008771Y028594D01*
X008742Y028604D01*
X008716Y028620D01*
X008694Y028642D01*
X008678Y028668D01*
X008668Y028697D01*
X008664Y028728D01*
X008668Y028759D01*
X008678Y028788D01*
X008694Y028814D01*
X008716Y028836D01*
X008742Y028852D01*
X008771Y028862D01*
X008802Y028866D01*
X008833Y028862D01*
X008891Y028832D02*
X008713Y028832D01*
X008677Y028784D02*
X008928Y028784D01*
X008939Y028735D02*
X008665Y028735D01*
X008671Y028687D02*
X008933Y028687D01*
X008906Y028638D02*
X008698Y028638D01*
X007798Y028728D02*
X007795Y028697D01*
X007785Y028668D01*
X007768Y028642D01*
X007746Y028620D01*
X007720Y028604D01*
X007691Y028594D01*
X007660Y028590D01*
X007630Y028594D01*
X007601Y028604D01*
X007574Y028620D01*
X007553Y028642D01*
X007536Y028668D01*
X007526Y028697D01*
X007523Y028728D01*
X007526Y028759D01*
X007536Y028788D01*
X007553Y028814D01*
X007574Y028836D01*
X007601Y028852D01*
X007630Y028862D01*
X007660Y028866D01*
X007691Y028862D01*
X007720Y028852D01*
X007746Y028836D01*
X007768Y028814D01*
X007785Y028788D01*
X007795Y028759D01*
X007798Y028728D01*
X007797Y028735D02*
X007523Y028735D01*
X007530Y028687D02*
X007791Y028687D01*
X007764Y028638D02*
X007556Y028638D01*
X007535Y028784D02*
X007786Y028784D01*
X007750Y028832D02*
X007571Y028832D01*
X006093Y030667D02*
X006067Y030651D01*
X006038Y030641D01*
X006007Y030637D01*
X005976Y030641D01*
X005947Y030651D01*
X005921Y030667D01*
X005899Y030689D01*
X005883Y030715D01*
X005873Y030745D01*
X005869Y030775D01*
X005873Y030806D01*
X005883Y030835D01*
X005899Y030861D01*
X005921Y030883D01*
X005947Y030899D01*
X005976Y030910D01*
X006007Y030913D01*
X006038Y030910D01*
X006067Y030899D01*
X006093Y030883D01*
X006115Y030861D01*
X006131Y030835D01*
X006141Y030806D01*
X006145Y030775D01*
X006141Y030745D01*
X006131Y030715D01*
X006115Y030689D01*
X006093Y030667D01*
X006101Y030675D02*
X005913Y030675D01*
X005880Y030724D02*
X006134Y030724D01*
X006144Y030772D02*
X005869Y030772D01*
X005878Y030821D02*
X006136Y030821D01*
X006106Y030869D02*
X005907Y030869D01*
D18*
X010692Y035224D03*
X033605Y006405D03*
D19*
X035357Y017567D03*
X035357Y018078D03*
X034767Y018059D03*
X034767Y018315D03*
X034097Y018315D03*
X034097Y017803D03*
X034767Y017803D03*
X036027Y017822D03*
X036027Y017567D03*
X036027Y018078D03*
X027759Y018078D03*
X027759Y017822D03*
X027759Y017567D03*
X027090Y017567D03*
X027090Y018078D03*
X026499Y018059D03*
X026499Y018315D03*
X025830Y018315D03*
X025830Y017803D03*
X026499Y017803D03*
X019491Y017822D03*
X019491Y017567D03*
X019491Y018078D03*
X018822Y018078D03*
X018822Y017567D03*
X018231Y017803D03*
X018231Y018059D03*
X018231Y018315D03*
X017562Y018315D03*
X017562Y017803D03*
X011223Y017822D03*
X011223Y017567D03*
X011223Y018078D03*
X010554Y018078D03*
X010554Y017567D03*
X009964Y017803D03*
X009964Y018059D03*
X009964Y018315D03*
X009294Y018315D03*
X009294Y017803D03*
X010554Y029850D03*
X009964Y030086D03*
X009964Y030342D03*
X009964Y030598D03*
X010554Y030362D03*
X011223Y030362D03*
X011223Y030106D03*
X011223Y029850D03*
X009294Y030086D03*
X009294Y030598D03*
X017562Y030598D03*
X017562Y030086D03*
X018231Y030086D03*
X018231Y030342D03*
X018231Y030598D03*
X018822Y030362D03*
X018822Y029850D03*
X019491Y029850D03*
X019491Y030106D03*
X019491Y030362D03*
X025830Y030598D03*
X025830Y030086D03*
X026499Y030086D03*
X026499Y030342D03*
X026499Y030598D03*
X027090Y030362D03*
X027090Y029850D03*
X027759Y029850D03*
X027759Y030106D03*
X027759Y030362D03*
X034097Y030598D03*
X034097Y030086D03*
X034767Y030086D03*
X034767Y030342D03*
X034767Y030598D03*
X035357Y030362D03*
X035357Y029850D03*
X036027Y029850D03*
X036027Y030106D03*
X036027Y030362D03*
D20*
X031755Y029555D03*
X023487Y029555D03*
X015219Y029555D03*
X006952Y029555D03*
X006952Y017271D03*
X015219Y017271D03*
X023487Y017271D03*
X031755Y017271D03*
D21*
X032247Y022921D03*
X032916Y022921D03*
X032916Y023826D03*
X032247Y023826D03*
X024649Y023826D03*
X023979Y023826D03*
X023979Y022921D03*
X024649Y022921D03*
X016381Y022921D03*
X015712Y022921D03*
X015712Y023826D03*
X016381Y023826D03*
X008113Y023826D03*
X007444Y023826D03*
X007444Y022921D03*
X008113Y022921D03*
X008113Y011543D03*
X007444Y011543D03*
X007444Y010637D03*
X008113Y010637D03*
X015712Y010637D03*
X016381Y010637D03*
X016381Y011543D03*
X015712Y011543D03*
X023979Y011543D03*
X024649Y011543D03*
X024649Y010637D03*
X023979Y010637D03*
X032247Y010637D03*
X032916Y010637D03*
X032916Y011543D03*
X032247Y011543D03*
M02*
