G75*
%MOIN*%
%OFA0B0*%
%FSLAX24Y24*%
%IPPOS*%
%LPD*%
%AMOC8*
5,1,8,0,0,1.08239X$1,22.5*
%
%ADD10C,0.0000*%
D10*
X004786Y004437D02*
X004786Y008531D01*
X004786Y020815D01*
X012897Y020815D01*
X021164Y020815D01*
X029432Y020815D01*
X029432Y008531D01*
X029432Y004437D01*
X037542Y004437D01*
X037542Y008531D01*
X037542Y020815D01*
X029432Y020815D01*
X029432Y033098D01*
X029432Y037193D01*
X037542Y037193D01*
X037542Y033098D01*
X037542Y020815D01*
X037542Y033098D02*
X029432Y033098D01*
X021164Y033098D01*
X021164Y037193D01*
X029432Y037193D01*
X034787Y035224D02*
X034789Y035280D01*
X034795Y035335D01*
X034805Y035389D01*
X034818Y035443D01*
X034836Y035496D01*
X034857Y035547D01*
X034881Y035597D01*
X034909Y035645D01*
X034941Y035691D01*
X034975Y035735D01*
X035013Y035776D01*
X035053Y035814D01*
X035096Y035849D01*
X035141Y035881D01*
X035189Y035910D01*
X035238Y035936D01*
X035289Y035958D01*
X035341Y035976D01*
X035395Y035990D01*
X035450Y036001D01*
X035505Y036008D01*
X035560Y036011D01*
X035616Y036010D01*
X035671Y036005D01*
X035726Y035996D01*
X035780Y035984D01*
X035833Y035967D01*
X035885Y035947D01*
X035935Y035923D01*
X035983Y035896D01*
X036030Y035866D01*
X036074Y035832D01*
X036116Y035795D01*
X036154Y035755D01*
X036191Y035713D01*
X036224Y035668D01*
X036253Y035622D01*
X036280Y035573D01*
X036302Y035522D01*
X036322Y035470D01*
X036337Y035416D01*
X036349Y035362D01*
X036357Y035307D01*
X036361Y035252D01*
X036361Y035196D01*
X036357Y035141D01*
X036349Y035086D01*
X036337Y035032D01*
X036322Y034978D01*
X036302Y034926D01*
X036280Y034875D01*
X036253Y034826D01*
X036224Y034780D01*
X036191Y034735D01*
X036154Y034693D01*
X036116Y034653D01*
X036074Y034616D01*
X036030Y034582D01*
X035983Y034552D01*
X035935Y034525D01*
X035885Y034501D01*
X035833Y034481D01*
X035780Y034464D01*
X035726Y034452D01*
X035671Y034443D01*
X035616Y034438D01*
X035560Y034437D01*
X035505Y034440D01*
X035450Y034447D01*
X035395Y034458D01*
X035341Y034472D01*
X035289Y034490D01*
X035238Y034512D01*
X035189Y034538D01*
X035141Y034567D01*
X035096Y034599D01*
X035053Y034634D01*
X035013Y034672D01*
X034975Y034713D01*
X034941Y034757D01*
X034909Y034803D01*
X034881Y034851D01*
X034857Y034901D01*
X034836Y034952D01*
X034818Y035005D01*
X034805Y035059D01*
X034795Y035113D01*
X034789Y035168D01*
X034787Y035224D01*
X021164Y037193D02*
X012897Y037193D01*
X012897Y033098D01*
X012897Y020815D01*
X012897Y008531D01*
X012897Y004437D01*
X021164Y004437D01*
X021164Y008531D01*
X021164Y020815D01*
X021164Y033098D01*
X012897Y033098D01*
X004786Y033098D01*
X004786Y037193D01*
X012897Y037193D01*
X005968Y035224D02*
X005970Y035280D01*
X005976Y035335D01*
X005986Y035389D01*
X005999Y035443D01*
X006017Y035496D01*
X006038Y035547D01*
X006062Y035597D01*
X006090Y035645D01*
X006122Y035691D01*
X006156Y035735D01*
X006194Y035776D01*
X006234Y035814D01*
X006277Y035849D01*
X006322Y035881D01*
X006370Y035910D01*
X006419Y035936D01*
X006470Y035958D01*
X006522Y035976D01*
X006576Y035990D01*
X006631Y036001D01*
X006686Y036008D01*
X006741Y036011D01*
X006797Y036010D01*
X006852Y036005D01*
X006907Y035996D01*
X006961Y035984D01*
X007014Y035967D01*
X007066Y035947D01*
X007116Y035923D01*
X007164Y035896D01*
X007211Y035866D01*
X007255Y035832D01*
X007297Y035795D01*
X007335Y035755D01*
X007372Y035713D01*
X007405Y035668D01*
X007434Y035622D01*
X007461Y035573D01*
X007483Y035522D01*
X007503Y035470D01*
X007518Y035416D01*
X007530Y035362D01*
X007538Y035307D01*
X007542Y035252D01*
X007542Y035196D01*
X007538Y035141D01*
X007530Y035086D01*
X007518Y035032D01*
X007503Y034978D01*
X007483Y034926D01*
X007461Y034875D01*
X007434Y034826D01*
X007405Y034780D01*
X007372Y034735D01*
X007335Y034693D01*
X007297Y034653D01*
X007255Y034616D01*
X007211Y034582D01*
X007164Y034552D01*
X007116Y034525D01*
X007066Y034501D01*
X007014Y034481D01*
X006961Y034464D01*
X006907Y034452D01*
X006852Y034443D01*
X006797Y034438D01*
X006741Y034437D01*
X006686Y034440D01*
X006631Y034447D01*
X006576Y034458D01*
X006522Y034472D01*
X006470Y034490D01*
X006419Y034512D01*
X006370Y034538D01*
X006322Y034567D01*
X006277Y034599D01*
X006234Y034634D01*
X006194Y034672D01*
X006156Y034713D01*
X006122Y034757D01*
X006090Y034803D01*
X006062Y034851D01*
X006038Y034901D01*
X006017Y034952D01*
X005999Y035005D01*
X005986Y035059D01*
X005976Y035113D01*
X005970Y035168D01*
X005968Y035224D01*
X004786Y033098D02*
X004786Y020815D01*
X004786Y008531D02*
X012897Y008531D01*
X021164Y008531D01*
X029432Y008531D01*
X037542Y008531D01*
X034787Y006405D02*
X034789Y006461D01*
X034795Y006516D01*
X034805Y006570D01*
X034818Y006624D01*
X034836Y006677D01*
X034857Y006728D01*
X034881Y006778D01*
X034909Y006826D01*
X034941Y006872D01*
X034975Y006916D01*
X035013Y006957D01*
X035053Y006995D01*
X035096Y007030D01*
X035141Y007062D01*
X035189Y007091D01*
X035238Y007117D01*
X035289Y007139D01*
X035341Y007157D01*
X035395Y007171D01*
X035450Y007182D01*
X035505Y007189D01*
X035560Y007192D01*
X035616Y007191D01*
X035671Y007186D01*
X035726Y007177D01*
X035780Y007165D01*
X035833Y007148D01*
X035885Y007128D01*
X035935Y007104D01*
X035983Y007077D01*
X036030Y007047D01*
X036074Y007013D01*
X036116Y006976D01*
X036154Y006936D01*
X036191Y006894D01*
X036224Y006849D01*
X036253Y006803D01*
X036280Y006754D01*
X036302Y006703D01*
X036322Y006651D01*
X036337Y006597D01*
X036349Y006543D01*
X036357Y006488D01*
X036361Y006433D01*
X036361Y006377D01*
X036357Y006322D01*
X036349Y006267D01*
X036337Y006213D01*
X036322Y006159D01*
X036302Y006107D01*
X036280Y006056D01*
X036253Y006007D01*
X036224Y005961D01*
X036191Y005916D01*
X036154Y005874D01*
X036116Y005834D01*
X036074Y005797D01*
X036030Y005763D01*
X035983Y005733D01*
X035935Y005706D01*
X035885Y005682D01*
X035833Y005662D01*
X035780Y005645D01*
X035726Y005633D01*
X035671Y005624D01*
X035616Y005619D01*
X035560Y005618D01*
X035505Y005621D01*
X035450Y005628D01*
X035395Y005639D01*
X035341Y005653D01*
X035289Y005671D01*
X035238Y005693D01*
X035189Y005719D01*
X035141Y005748D01*
X035096Y005780D01*
X035053Y005815D01*
X035013Y005853D01*
X034975Y005894D01*
X034941Y005938D01*
X034909Y005984D01*
X034881Y006032D01*
X034857Y006082D01*
X034836Y006133D01*
X034818Y006186D01*
X034805Y006240D01*
X034795Y006294D01*
X034789Y006349D01*
X034787Y006405D01*
X029432Y004437D02*
X021164Y004437D01*
X012897Y004437D02*
X004786Y004437D01*
X005968Y006405D02*
X005970Y006461D01*
X005976Y006516D01*
X005986Y006570D01*
X005999Y006624D01*
X006017Y006677D01*
X006038Y006728D01*
X006062Y006778D01*
X006090Y006826D01*
X006122Y006872D01*
X006156Y006916D01*
X006194Y006957D01*
X006234Y006995D01*
X006277Y007030D01*
X006322Y007062D01*
X006370Y007091D01*
X006419Y007117D01*
X006470Y007139D01*
X006522Y007157D01*
X006576Y007171D01*
X006631Y007182D01*
X006686Y007189D01*
X006741Y007192D01*
X006797Y007191D01*
X006852Y007186D01*
X006907Y007177D01*
X006961Y007165D01*
X007014Y007148D01*
X007066Y007128D01*
X007116Y007104D01*
X007164Y007077D01*
X007211Y007047D01*
X007255Y007013D01*
X007297Y006976D01*
X007335Y006936D01*
X007372Y006894D01*
X007405Y006849D01*
X007434Y006803D01*
X007461Y006754D01*
X007483Y006703D01*
X007503Y006651D01*
X007518Y006597D01*
X007530Y006543D01*
X007538Y006488D01*
X007542Y006433D01*
X007542Y006377D01*
X007538Y006322D01*
X007530Y006267D01*
X007518Y006213D01*
X007503Y006159D01*
X007483Y006107D01*
X007461Y006056D01*
X007434Y006007D01*
X007405Y005961D01*
X007372Y005916D01*
X007335Y005874D01*
X007297Y005834D01*
X007255Y005797D01*
X007211Y005763D01*
X007164Y005733D01*
X007116Y005706D01*
X007066Y005682D01*
X007014Y005662D01*
X006961Y005645D01*
X006907Y005633D01*
X006852Y005624D01*
X006797Y005619D01*
X006741Y005618D01*
X006686Y005621D01*
X006631Y005628D01*
X006576Y005639D01*
X006522Y005653D01*
X006470Y005671D01*
X006419Y005693D01*
X006370Y005719D01*
X006322Y005748D01*
X006277Y005780D01*
X006234Y005815D01*
X006194Y005853D01*
X006156Y005894D01*
X006122Y005938D01*
X006090Y005984D01*
X006062Y006032D01*
X006038Y006082D01*
X006017Y006133D01*
X005999Y006186D01*
X005986Y006240D01*
X005976Y006294D01*
X005970Y006349D01*
X005968Y006405D01*
M02*
