G75*
%MOIN*%
%OFA0B0*%
%FSLAX24Y24*%
%IPPOS*%
%LPD*%
%AMOC8*
5,1,8,0,0,1.08239X$1,22.5*
%
%ADD10C,0.1340*%
%ADD11R,0.0787X0.0787*%
%ADD12OC8,0.0671*%
%ADD13R,0.1378X0.1378*%
%ADD14R,0.0138X0.0492*%
%ADD15R,0.0492X0.0138*%
%ADD16R,0.0315X0.0315*%
%ADD17C,0.0050*%
%ADD18C,0.0580*%
%ADD19C,0.0867*%
%ADD20R,0.0197X0.0315*%
%ADD21R,0.0315X0.0197*%
%ADD22R,0.0492X0.0177*%
%ADD23R,0.0709X0.0709*%
%ADD24R,0.0512X0.0591*%
D10*
X008659Y006405D03*
X008659Y035696D03*
X045195Y035696D03*
X045195Y006405D03*
D11*
X039762Y006011D03*
X038974Y006011D03*
X038974Y006799D03*
X039762Y006799D03*
X014565Y006799D03*
X013777Y006799D03*
X013777Y006011D03*
X014565Y006011D03*
X015746Y035303D03*
X016533Y035303D03*
X016533Y036090D03*
X015746Y036090D03*
D12*
X017907Y032811D03*
X017907Y031811D03*
X016907Y031811D03*
X015907Y031811D03*
X014907Y031811D03*
X013907Y031811D03*
X012907Y031811D03*
X011907Y031811D03*
X010907Y031811D03*
X010907Y030811D03*
X010907Y029811D03*
X010907Y028811D03*
X010907Y027811D03*
X010907Y026811D03*
X010907Y025811D03*
X010907Y024811D03*
X010907Y023811D03*
X010907Y022811D03*
X010907Y021811D03*
X010907Y020291D03*
X010907Y019291D03*
X010907Y018291D03*
X011907Y019291D03*
X012907Y019291D03*
X013907Y019291D03*
X014907Y019291D03*
X015907Y019291D03*
X016907Y019291D03*
X017907Y019291D03*
X017907Y018291D03*
X017907Y017291D03*
X017907Y016291D03*
X017907Y015291D03*
X017907Y014291D03*
X017907Y013291D03*
X017907Y012291D03*
X016907Y011791D03*
X015907Y011791D03*
X015907Y010791D03*
X016907Y010791D03*
X017907Y011291D03*
X017907Y010291D03*
X017907Y009291D03*
X019254Y009291D03*
X019254Y010291D03*
X019254Y011291D03*
X019254Y012291D03*
X019254Y013291D03*
X019254Y014291D03*
X019254Y015291D03*
X019254Y016291D03*
X019254Y017291D03*
X019254Y018291D03*
X019254Y019291D03*
X020254Y019291D03*
X021254Y019291D03*
X022254Y019291D03*
X023254Y019291D03*
X024254Y019291D03*
X025254Y019291D03*
X026254Y019291D03*
X026254Y018291D03*
X026254Y017291D03*
X026254Y016291D03*
X026254Y015291D03*
X026254Y014291D03*
X026254Y013291D03*
X026254Y012291D03*
X025254Y011791D03*
X026254Y011291D03*
X026254Y010291D03*
X025254Y010791D03*
X024254Y010791D03*
X024254Y011791D03*
X026254Y009291D03*
X027600Y009291D03*
X027600Y010291D03*
X027600Y011291D03*
X027600Y012291D03*
X027600Y013291D03*
X027600Y014291D03*
X027600Y015291D03*
X027600Y016291D03*
X027600Y017291D03*
X027600Y018291D03*
X027600Y019291D03*
X028600Y019291D03*
X029600Y019291D03*
X030600Y019291D03*
X031600Y019291D03*
X032600Y019291D03*
X033600Y019291D03*
X034600Y019291D03*
X034600Y018291D03*
X035947Y018291D03*
X035947Y019291D03*
X036947Y019291D03*
X037947Y019291D03*
X038947Y019291D03*
X039947Y019291D03*
X040947Y019291D03*
X041947Y019291D03*
X042947Y019291D03*
X042947Y018291D03*
X042947Y017291D03*
X042947Y016291D03*
X042947Y015291D03*
X042947Y014291D03*
X042947Y013291D03*
X042947Y012291D03*
X041947Y011791D03*
X040947Y011791D03*
X040947Y010791D03*
X041947Y010791D03*
X042947Y011291D03*
X042947Y010291D03*
X042947Y009291D03*
X035947Y009291D03*
X034600Y009291D03*
X034600Y010291D03*
X034600Y011291D03*
X035947Y011291D03*
X035947Y010291D03*
X035947Y012291D03*
X034600Y012291D03*
X034600Y013291D03*
X034600Y014291D03*
X035947Y014291D03*
X035947Y013291D03*
X035947Y015291D03*
X035947Y016291D03*
X034600Y016291D03*
X034600Y015291D03*
X034600Y017291D03*
X035947Y017291D03*
X037947Y015791D03*
X038947Y015791D03*
X035947Y020291D03*
X034600Y020291D03*
X034600Y021811D03*
X035947Y021811D03*
X035947Y022811D03*
X035947Y023811D03*
X034600Y023811D03*
X034600Y022811D03*
X033600Y023311D03*
X032600Y023311D03*
X032600Y024311D03*
X033600Y024311D03*
X034600Y024811D03*
X034600Y025811D03*
X035947Y025811D03*
X035947Y024811D03*
X035947Y026811D03*
X034600Y026811D03*
X034600Y027811D03*
X034600Y028811D03*
X035947Y028811D03*
X035947Y027811D03*
X035947Y029811D03*
X034600Y029811D03*
X034600Y030811D03*
X034600Y031811D03*
X035947Y031811D03*
X035947Y030811D03*
X036947Y031811D03*
X037947Y031811D03*
X038947Y031811D03*
X039947Y031811D03*
X040947Y031811D03*
X041947Y031811D03*
X042947Y031811D03*
X042947Y030811D03*
X042947Y029811D03*
X042947Y028811D03*
X042947Y027811D03*
X042947Y026811D03*
X042947Y025811D03*
X042947Y024811D03*
X041947Y024311D03*
X040947Y024311D03*
X040947Y023311D03*
X041947Y023311D03*
X042947Y023811D03*
X042947Y022811D03*
X042947Y021811D03*
X042947Y020291D03*
X038947Y028311D03*
X037947Y028311D03*
X033600Y031811D03*
X032600Y031811D03*
X031600Y031811D03*
X030600Y031811D03*
X029600Y031811D03*
X028600Y031811D03*
X027600Y031811D03*
X027600Y030811D03*
X027600Y029811D03*
X027600Y028811D03*
X027600Y027811D03*
X027600Y026811D03*
X027600Y025811D03*
X027600Y024811D03*
X027600Y023811D03*
X027600Y022811D03*
X027600Y021811D03*
X026254Y021811D03*
X026254Y022811D03*
X026254Y023811D03*
X025254Y024311D03*
X026254Y024811D03*
X026254Y025811D03*
X026254Y026811D03*
X026254Y027811D03*
X026254Y028811D03*
X026254Y029811D03*
X026254Y030811D03*
X026254Y031811D03*
X025254Y031811D03*
X024254Y031811D03*
X023254Y031811D03*
X022254Y031811D03*
X021254Y031811D03*
X020254Y031811D03*
X019254Y031811D03*
X019254Y030811D03*
X019254Y029811D03*
X019254Y028811D03*
X019254Y027811D03*
X019254Y026811D03*
X019254Y025811D03*
X019254Y024811D03*
X019254Y023811D03*
X019254Y022811D03*
X019254Y021811D03*
X017907Y021811D03*
X017907Y022811D03*
X017907Y023811D03*
X016907Y024311D03*
X015907Y024311D03*
X015907Y023311D03*
X016907Y023311D03*
X017907Y024811D03*
X017907Y025811D03*
X017907Y026811D03*
X017907Y027811D03*
X017907Y028811D03*
X017907Y029811D03*
X017907Y030811D03*
X019254Y032811D03*
X021254Y028311D03*
X022254Y028311D03*
X024254Y024311D03*
X024254Y023311D03*
X025254Y023311D03*
X026254Y020291D03*
X027600Y020291D03*
X029600Y015791D03*
X030600Y015791D03*
X032600Y011791D03*
X033600Y011791D03*
X033600Y010791D03*
X032600Y010791D03*
X022254Y015791D03*
X021254Y015791D03*
X019254Y020291D03*
X017907Y020291D03*
X013907Y015791D03*
X012907Y015791D03*
X010907Y016291D03*
X010907Y015291D03*
X010907Y014291D03*
X010907Y013291D03*
X010907Y012291D03*
X010907Y011291D03*
X010907Y010291D03*
X010907Y009291D03*
X010907Y017291D03*
X012907Y028311D03*
X013907Y028311D03*
X010907Y032811D03*
X026254Y032811D03*
X027600Y032811D03*
X029600Y028311D03*
X030600Y028311D03*
X034600Y032811D03*
X035947Y032811D03*
X042947Y032811D03*
D13*
X039801Y026287D03*
X031455Y026287D03*
X023108Y026287D03*
X014762Y026287D03*
X014762Y013767D03*
X023108Y013767D03*
X031455Y013767D03*
X039801Y013767D03*
D14*
X039703Y012724D03*
X039900Y012724D03*
X040096Y012724D03*
X040293Y012724D03*
X040490Y012724D03*
X039506Y012724D03*
X039309Y012724D03*
X039112Y012724D03*
X039112Y014811D03*
X039309Y014811D03*
X039506Y014811D03*
X039703Y014811D03*
X039900Y014811D03*
X040096Y014811D03*
X040293Y014811D03*
X040490Y014811D03*
X032144Y014811D03*
X031947Y014811D03*
X031750Y014811D03*
X031553Y014811D03*
X031356Y014811D03*
X031159Y014811D03*
X030963Y014811D03*
X030766Y014811D03*
X030766Y012724D03*
X030963Y012724D03*
X031159Y012724D03*
X031356Y012724D03*
X031553Y012724D03*
X031750Y012724D03*
X031947Y012724D03*
X032144Y012724D03*
X023797Y012724D03*
X023600Y012724D03*
X023403Y012724D03*
X023207Y012724D03*
X023010Y012724D03*
X022813Y012724D03*
X022616Y012724D03*
X022419Y012724D03*
X022419Y014811D03*
X022616Y014811D03*
X022813Y014811D03*
X023010Y014811D03*
X023207Y014811D03*
X023403Y014811D03*
X023600Y014811D03*
X023797Y014811D03*
X015451Y014811D03*
X015254Y014811D03*
X015057Y014811D03*
X014860Y014811D03*
X014663Y014811D03*
X014466Y014811D03*
X014270Y014811D03*
X014073Y014811D03*
X014073Y012724D03*
X014270Y012724D03*
X014466Y012724D03*
X014663Y012724D03*
X014860Y012724D03*
X015057Y012724D03*
X015254Y012724D03*
X015451Y012724D03*
X015451Y025244D03*
X015254Y025244D03*
X015057Y025244D03*
X014860Y025244D03*
X014663Y025244D03*
X014466Y025244D03*
X014270Y025244D03*
X014073Y025244D03*
X014073Y027330D03*
X014270Y027330D03*
X014466Y027330D03*
X014663Y027330D03*
X014860Y027330D03*
X015057Y027330D03*
X015254Y027330D03*
X015451Y027330D03*
X022419Y027330D03*
X022616Y027330D03*
X022813Y027330D03*
X023010Y027330D03*
X023207Y027330D03*
X023403Y027330D03*
X023600Y027330D03*
X023797Y027330D03*
X023797Y025244D03*
X023600Y025244D03*
X023403Y025244D03*
X023207Y025244D03*
X023010Y025244D03*
X022813Y025244D03*
X022616Y025244D03*
X022419Y025244D03*
X030766Y025244D03*
X030963Y025244D03*
X031159Y025244D03*
X031356Y025244D03*
X031553Y025244D03*
X031750Y025244D03*
X031947Y025244D03*
X032144Y025244D03*
X032144Y027330D03*
X031947Y027330D03*
X031750Y027330D03*
X031553Y027330D03*
X031356Y027330D03*
X031159Y027330D03*
X030963Y027330D03*
X030766Y027330D03*
X039112Y027330D03*
X039309Y027330D03*
X039506Y027330D03*
X039703Y027330D03*
X039900Y027330D03*
X040096Y027330D03*
X040293Y027330D03*
X040490Y027330D03*
X040490Y025244D03*
X040293Y025244D03*
X040096Y025244D03*
X039900Y025244D03*
X039703Y025244D03*
X039506Y025244D03*
X039309Y025244D03*
X039112Y025244D03*
D15*
X038758Y025598D03*
X038758Y025795D03*
X038758Y025992D03*
X038758Y026189D03*
X038758Y026385D03*
X038758Y026582D03*
X038758Y026779D03*
X038758Y026976D03*
X040844Y026976D03*
X040844Y026779D03*
X040844Y026582D03*
X040844Y026385D03*
X040844Y026189D03*
X040844Y025992D03*
X040844Y025795D03*
X040844Y025598D03*
X032498Y025598D03*
X032498Y025795D03*
X032498Y025992D03*
X032498Y026189D03*
X032498Y026385D03*
X032498Y026582D03*
X032498Y026779D03*
X032498Y026976D03*
X030411Y026976D03*
X030411Y026779D03*
X030411Y026582D03*
X030411Y026385D03*
X030411Y026189D03*
X030411Y025992D03*
X030411Y025795D03*
X030411Y025598D03*
X024152Y025598D03*
X024152Y025795D03*
X024152Y025992D03*
X024152Y026189D03*
X024152Y026385D03*
X024152Y026582D03*
X024152Y026779D03*
X024152Y026976D03*
X022065Y026976D03*
X022065Y026779D03*
X022065Y026582D03*
X022065Y026385D03*
X022065Y026189D03*
X022065Y025992D03*
X022065Y025795D03*
X022065Y025598D03*
X015805Y025598D03*
X015805Y025795D03*
X015805Y025992D03*
X015805Y026189D03*
X015805Y026385D03*
X015805Y026582D03*
X015805Y026779D03*
X015805Y026976D03*
X013718Y026976D03*
X013718Y026779D03*
X013718Y026582D03*
X013718Y026385D03*
X013718Y026189D03*
X013718Y025992D03*
X013718Y025795D03*
X013718Y025598D03*
X013718Y014456D03*
X013718Y014259D03*
X013718Y014063D03*
X013718Y013866D03*
X013718Y013669D03*
X013718Y013472D03*
X013718Y013275D03*
X013718Y013078D03*
X015805Y013078D03*
X015805Y013275D03*
X015805Y013472D03*
X015805Y013669D03*
X015805Y013866D03*
X015805Y014063D03*
X015805Y014259D03*
X015805Y014456D03*
X022065Y014456D03*
X022065Y014259D03*
X022065Y014063D03*
X022065Y013866D03*
X022065Y013669D03*
X022065Y013472D03*
X022065Y013275D03*
X022065Y013078D03*
X024152Y013078D03*
X024152Y013275D03*
X024152Y013472D03*
X024152Y013669D03*
X024152Y013866D03*
X024152Y014063D03*
X024152Y014259D03*
X024152Y014456D03*
X030411Y014456D03*
X030411Y014259D03*
X030411Y014063D03*
X030411Y013866D03*
X030411Y013669D03*
X030411Y013472D03*
X030411Y013275D03*
X030411Y013078D03*
X032498Y013078D03*
X032498Y013275D03*
X032498Y013472D03*
X032498Y013669D03*
X032498Y013866D03*
X032498Y014063D03*
X032498Y014259D03*
X032498Y014456D03*
X038758Y014456D03*
X038758Y014259D03*
X038758Y014063D03*
X038758Y013866D03*
X038758Y013669D03*
X038758Y013472D03*
X038758Y013275D03*
X038758Y013078D03*
X040844Y013078D03*
X040844Y013275D03*
X040844Y013472D03*
X040844Y013669D03*
X040844Y013866D03*
X040844Y014063D03*
X040844Y014259D03*
X040844Y014456D03*
D16*
X040864Y015460D03*
X040392Y015460D03*
X040392Y016011D03*
X040864Y016011D03*
X039132Y016563D03*
X038659Y016563D03*
X039053Y017980D03*
X039053Y018452D03*
X039840Y018452D03*
X039840Y017980D03*
X041337Y018216D03*
X041809Y018216D03*
X037163Y018256D03*
X036691Y018256D03*
X036848Y016248D03*
X036848Y015775D03*
X036848Y015303D03*
X036848Y014830D03*
X036848Y014358D03*
X036848Y013885D03*
X036848Y013413D03*
X036848Y012941D03*
X036848Y012468D03*
X036848Y011996D03*
X036848Y011523D03*
X036848Y011051D03*
X036848Y010578D03*
X036848Y010106D03*
X036848Y009633D03*
X036848Y009161D03*
X038581Y010067D03*
X039053Y010067D03*
X039486Y011484D03*
X039919Y011484D03*
X039919Y011956D03*
X039486Y011956D03*
X038856Y012193D03*
X038384Y012193D03*
X032518Y015460D03*
X032045Y015460D03*
X032045Y016011D03*
X032518Y016011D03*
X030785Y016563D03*
X030313Y016563D03*
X030707Y017980D03*
X030707Y018452D03*
X031494Y018452D03*
X031494Y017980D03*
X032990Y018216D03*
X033463Y018216D03*
X028817Y018256D03*
X028344Y018256D03*
X028502Y016248D03*
X028502Y015775D03*
X028502Y015303D03*
X028502Y014830D03*
X028502Y014358D03*
X028502Y013885D03*
X028502Y013413D03*
X028502Y012941D03*
X028502Y012468D03*
X028502Y011996D03*
X028502Y011523D03*
X028502Y011051D03*
X028502Y010578D03*
X028502Y010106D03*
X028502Y009633D03*
X028502Y009161D03*
X030234Y010067D03*
X030707Y010067D03*
X031140Y011484D03*
X031573Y011484D03*
X031573Y011956D03*
X031140Y011956D03*
X030510Y012193D03*
X030037Y012193D03*
X024171Y015460D03*
X023699Y015460D03*
X023699Y016011D03*
X024171Y016011D03*
X022439Y016563D03*
X021966Y016563D03*
X020155Y016248D03*
X020155Y015775D03*
X020155Y015303D03*
X020155Y014830D03*
X020155Y014358D03*
X020155Y013885D03*
X020155Y013413D03*
X020155Y012941D03*
X020155Y012468D03*
X020155Y011996D03*
X020155Y011523D03*
X020155Y011051D03*
X020155Y010578D03*
X020155Y010106D03*
X020155Y009633D03*
X020155Y009161D03*
X021888Y010067D03*
X022360Y010067D03*
X022793Y011484D03*
X023226Y011484D03*
X023226Y011956D03*
X022793Y011956D03*
X022163Y012193D03*
X021691Y012193D03*
X015825Y015460D03*
X015352Y015460D03*
X015352Y016011D03*
X015825Y016011D03*
X014092Y016563D03*
X013620Y016563D03*
X014014Y017980D03*
X014014Y018452D03*
X014801Y018452D03*
X014801Y017980D03*
X016297Y018216D03*
X016770Y018216D03*
X019998Y018256D03*
X020470Y018256D03*
X022360Y018452D03*
X022360Y017980D03*
X023148Y017980D03*
X023148Y018452D03*
X024644Y018216D03*
X025116Y018216D03*
X028502Y021681D03*
X028502Y022153D03*
X028502Y022626D03*
X028502Y023098D03*
X028502Y023570D03*
X028502Y024043D03*
X028502Y024515D03*
X028502Y024988D03*
X028502Y025460D03*
X028502Y025933D03*
X028502Y026405D03*
X028502Y026878D03*
X028502Y027350D03*
X028502Y027822D03*
X028502Y028295D03*
X028502Y028767D03*
X030313Y029082D03*
X030785Y029082D03*
X032045Y028531D03*
X032518Y028531D03*
X032518Y027980D03*
X032045Y027980D03*
X031494Y030500D03*
X031494Y030972D03*
X030707Y030972D03*
X030707Y030500D03*
X028817Y030775D03*
X028344Y030775D03*
X025116Y030736D03*
X024644Y030736D03*
X023148Y030972D03*
X023148Y030500D03*
X022360Y030500D03*
X022360Y030972D03*
X020470Y030775D03*
X019998Y030775D03*
X021966Y029082D03*
X022439Y029082D03*
X023699Y028531D03*
X024171Y028531D03*
X024171Y027980D03*
X023699Y027980D03*
X020155Y027822D03*
X020155Y027350D03*
X020155Y026878D03*
X020155Y026405D03*
X020155Y025933D03*
X020155Y025460D03*
X020155Y024988D03*
X020155Y024515D03*
X020155Y024043D03*
X020155Y023570D03*
X020155Y023098D03*
X020155Y022626D03*
X020155Y022153D03*
X020155Y021681D03*
X021888Y022586D03*
X022360Y022586D03*
X022793Y024004D03*
X023226Y024004D03*
X023226Y024476D03*
X022793Y024476D03*
X022163Y024712D03*
X021691Y024712D03*
X020155Y028295D03*
X020155Y028767D03*
X016770Y030736D03*
X016297Y030736D03*
X014801Y030972D03*
X014801Y030500D03*
X014014Y030500D03*
X014014Y030972D03*
X012124Y030775D03*
X011652Y030775D03*
X013620Y029082D03*
X014092Y029082D03*
X015352Y028531D03*
X015825Y028531D03*
X015825Y027980D03*
X015352Y027980D03*
X011809Y027822D03*
X011809Y027350D03*
X011809Y026878D03*
X011809Y026405D03*
X011809Y025933D03*
X011809Y025460D03*
X011809Y024988D03*
X011809Y024515D03*
X011809Y024043D03*
X011809Y023570D03*
X011809Y023098D03*
X011809Y022626D03*
X011809Y022153D03*
X011809Y021681D03*
X013541Y022586D03*
X014014Y022586D03*
X014447Y024004D03*
X014880Y024004D03*
X014880Y024476D03*
X014447Y024476D03*
X013817Y024712D03*
X013344Y024712D03*
X011809Y028295D03*
X011809Y028767D03*
X011652Y018256D03*
X012124Y018256D03*
X011809Y016248D03*
X011809Y015775D03*
X011809Y015303D03*
X011809Y014830D03*
X011809Y014358D03*
X011809Y013885D03*
X011809Y013413D03*
X011809Y012941D03*
X011809Y012468D03*
X011809Y011996D03*
X011809Y011523D03*
X011809Y011051D03*
X011809Y010578D03*
X011809Y010106D03*
X011809Y009633D03*
X011809Y009161D03*
X013541Y010067D03*
X014014Y010067D03*
X014447Y011484D03*
X014880Y011484D03*
X014880Y011956D03*
X014447Y011956D03*
X013817Y012193D03*
X013344Y012193D03*
X030234Y022586D03*
X030707Y022586D03*
X031140Y024004D03*
X031573Y024004D03*
X031573Y024476D03*
X031140Y024476D03*
X030510Y024712D03*
X030037Y024712D03*
X036848Y024515D03*
X036848Y024043D03*
X036848Y023570D03*
X036848Y023098D03*
X036848Y022626D03*
X036848Y022153D03*
X036848Y021681D03*
X038581Y022586D03*
X039053Y022586D03*
X039486Y024004D03*
X039919Y024004D03*
X039919Y024476D03*
X039486Y024476D03*
X038856Y024712D03*
X038384Y024712D03*
X036848Y024988D03*
X036848Y025460D03*
X036848Y025933D03*
X036848Y026405D03*
X036848Y026878D03*
X036848Y027350D03*
X036848Y027822D03*
X036848Y028295D03*
X036848Y028767D03*
X038659Y029082D03*
X039132Y029082D03*
X040392Y028531D03*
X040864Y028531D03*
X040864Y027980D03*
X040392Y027980D03*
X039840Y030500D03*
X039840Y030972D03*
X039053Y030972D03*
X039053Y030500D03*
X037163Y030775D03*
X036691Y030775D03*
X033463Y030736D03*
X032990Y030736D03*
X041337Y030736D03*
X041809Y030736D03*
D17*
X039582Y030481D02*
X039311Y030481D01*
X039312Y030491D02*
X039323Y030520D01*
X039339Y030546D01*
X039361Y030568D01*
X039387Y030584D01*
X039416Y030595D01*
X039447Y030598D01*
X039477Y030595D01*
X039507Y030584D01*
X039533Y030568D01*
X039555Y030546D01*
X039571Y030520D01*
X039581Y030491D01*
X039585Y030460D01*
X039581Y030430D01*
X039571Y030400D01*
X039555Y030374D01*
X039533Y030353D01*
X039507Y030336D01*
X039477Y030326D01*
X039447Y030322D01*
X039416Y030326D01*
X039387Y030336D01*
X039361Y030353D01*
X039339Y030374D01*
X039323Y030400D01*
X039312Y030430D01*
X039309Y030460D01*
X039312Y030491D01*
X039329Y030530D02*
X039565Y030530D01*
X039516Y030578D02*
X039377Y030578D01*
X039312Y030433D02*
X039581Y030433D01*
X039561Y030384D02*
X039333Y030384D01*
X039388Y030336D02*
X039506Y030336D01*
X038413Y031122D02*
X038391Y031101D01*
X038365Y031084D01*
X038336Y031074D01*
X038305Y031070D01*
X038274Y031074D01*
X038245Y031084D01*
X038219Y031101D01*
X038197Y031122D01*
X038181Y031148D01*
X038171Y031178D01*
X038167Y031208D01*
X038171Y031239D01*
X038181Y031268D01*
X038197Y031294D01*
X038219Y031316D01*
X038245Y031332D01*
X038274Y031343D01*
X038305Y031346D01*
X038336Y031343D01*
X038365Y031332D01*
X038391Y031316D01*
X038413Y031294D01*
X038429Y031268D01*
X038439Y031239D01*
X038443Y031208D01*
X038439Y031178D01*
X038429Y031148D01*
X038413Y031122D01*
X038402Y031112D02*
X038208Y031112D01*
X038177Y031160D02*
X038433Y031160D01*
X038443Y031209D02*
X038167Y031209D01*
X038177Y031257D02*
X038433Y031257D01*
X038401Y031306D02*
X038209Y031306D01*
X039426Y029206D02*
X039455Y029217D01*
X039486Y029220D01*
X039517Y029217D01*
X039546Y029206D01*
X039572Y029190D01*
X039594Y029168D01*
X039610Y029142D01*
X039620Y029113D01*
X039624Y029082D01*
X039620Y029052D01*
X039610Y029022D01*
X039594Y028996D01*
X039572Y028975D01*
X039546Y028958D01*
X039517Y028948D01*
X039486Y028944D01*
X039455Y028948D01*
X039426Y028958D01*
X039400Y028975D01*
X039378Y028996D01*
X039362Y029022D01*
X039352Y029052D01*
X039348Y029082D01*
X039352Y029113D01*
X039362Y029142D01*
X039378Y029168D01*
X039400Y029190D01*
X039426Y029206D01*
X039382Y029172D02*
X039590Y029172D01*
X039617Y029123D02*
X039355Y029123D01*
X039349Y029075D02*
X039623Y029075D01*
X039612Y029026D02*
X039361Y029026D01*
X039397Y028978D02*
X039575Y028978D01*
X031277Y029082D02*
X031274Y029052D01*
X031264Y029022D01*
X031247Y028996D01*
X031226Y028975D01*
X031199Y028958D01*
X031170Y028948D01*
X031140Y028944D01*
X031109Y028948D01*
X031080Y028958D01*
X031054Y028975D01*
X031032Y028996D01*
X031016Y029022D01*
X031005Y029052D01*
X031002Y029082D01*
X031005Y029113D01*
X031016Y029142D01*
X031032Y029168D01*
X031054Y029190D01*
X031080Y029206D01*
X031109Y029217D01*
X031140Y029220D01*
X031170Y029217D01*
X031199Y029206D01*
X031226Y029190D01*
X031247Y029168D01*
X031264Y029142D01*
X031274Y029113D01*
X031277Y029082D01*
X031277Y029075D02*
X031003Y029075D01*
X031009Y029123D02*
X031270Y029123D01*
X031244Y029172D02*
X031036Y029172D01*
X031014Y029026D02*
X031265Y029026D01*
X031229Y028978D02*
X031051Y028978D01*
X031100Y030322D02*
X031070Y030326D01*
X031041Y030336D01*
X031014Y030353D01*
X030993Y030374D01*
X030976Y030400D01*
X030966Y030430D01*
X030963Y030460D01*
X030966Y030491D01*
X030976Y030520D01*
X030993Y030546D01*
X031014Y030568D01*
X031041Y030584D01*
X031070Y030595D01*
X031100Y030598D01*
X031131Y030595D01*
X031160Y030584D01*
X031186Y030568D01*
X031208Y030546D01*
X031224Y030520D01*
X031235Y030491D01*
X031238Y030460D01*
X031235Y030430D01*
X031224Y030400D01*
X031208Y030374D01*
X031186Y030353D01*
X031160Y030336D01*
X031131Y030326D01*
X031100Y030322D01*
X031042Y030336D02*
X031159Y030336D01*
X031214Y030384D02*
X030986Y030384D01*
X030966Y030433D02*
X031235Y030433D01*
X031236Y030481D02*
X030965Y030481D01*
X030982Y030530D02*
X031218Y030530D01*
X031170Y030578D02*
X031031Y030578D01*
X030083Y031148D02*
X030066Y031122D01*
X030045Y031101D01*
X030018Y031084D01*
X029989Y031074D01*
X029959Y031070D01*
X029928Y031074D01*
X029899Y031084D01*
X029873Y031101D01*
X029851Y031122D01*
X029834Y031148D01*
X029824Y031178D01*
X029821Y031208D01*
X029824Y031239D01*
X029834Y031268D01*
X029851Y031294D01*
X029873Y031316D01*
X029899Y031332D01*
X029928Y031343D01*
X029959Y031346D01*
X029989Y031343D01*
X030018Y031332D01*
X030045Y031316D01*
X030066Y031294D01*
X030083Y031268D01*
X030093Y031239D01*
X030096Y031208D01*
X030093Y031178D01*
X030083Y031148D01*
X030087Y031160D02*
X029830Y031160D01*
X029821Y031209D02*
X030096Y031209D01*
X030087Y031257D02*
X029831Y031257D01*
X029862Y031306D02*
X030055Y031306D01*
X030056Y031112D02*
X029861Y031112D01*
X022928Y029113D02*
X022931Y029082D01*
X022928Y029052D01*
X022917Y029022D01*
X022901Y028996D01*
X022879Y028975D01*
X022853Y028958D01*
X022824Y028948D01*
X022793Y028944D01*
X022763Y028948D01*
X022733Y028958D01*
X022707Y028975D01*
X022686Y028996D01*
X022669Y029022D01*
X022659Y029052D01*
X022655Y029082D01*
X022659Y029113D01*
X022669Y029142D01*
X022686Y029168D01*
X022707Y029190D01*
X022733Y029206D01*
X022763Y029217D01*
X022793Y029220D01*
X022824Y029217D01*
X022853Y029206D01*
X022879Y029190D01*
X022901Y029168D01*
X022917Y029142D01*
X022928Y029113D01*
X022924Y029123D02*
X022663Y029123D01*
X022656Y029075D02*
X022930Y029075D01*
X022919Y029026D02*
X022668Y029026D01*
X022704Y028978D02*
X022882Y028978D01*
X022897Y029172D02*
X022689Y029172D01*
X022754Y030322D02*
X022723Y030326D01*
X022694Y030336D01*
X022668Y030353D01*
X022646Y030374D01*
X022630Y030400D01*
X022620Y030430D01*
X022616Y030460D01*
X022620Y030491D01*
X022630Y030520D01*
X022646Y030546D01*
X022668Y030568D01*
X022694Y030584D01*
X022723Y030595D01*
X022754Y030598D01*
X022785Y030595D01*
X022814Y030584D01*
X022840Y030568D01*
X022862Y030546D01*
X022878Y030520D01*
X022888Y030491D01*
X022892Y030460D01*
X022888Y030430D01*
X022878Y030400D01*
X022862Y030374D01*
X022840Y030353D01*
X022814Y030336D01*
X022785Y030326D01*
X022754Y030322D01*
X022695Y030336D02*
X022813Y030336D01*
X022868Y030384D02*
X022640Y030384D01*
X022619Y030433D02*
X022889Y030433D01*
X022889Y030481D02*
X022618Y030481D01*
X022636Y030530D02*
X022872Y030530D01*
X022823Y030578D02*
X022684Y030578D01*
X021736Y031148D02*
X021720Y031122D01*
X021698Y031101D01*
X021672Y031084D01*
X021643Y031074D01*
X021612Y031070D01*
X021581Y031074D01*
X021552Y031084D01*
X021526Y031101D01*
X021504Y031122D01*
X021488Y031148D01*
X021478Y031178D01*
X021474Y031208D01*
X021478Y031239D01*
X021488Y031268D01*
X021504Y031294D01*
X021526Y031316D01*
X021552Y031332D01*
X021581Y031343D01*
X021612Y031346D01*
X021643Y031343D01*
X021672Y031332D01*
X021698Y031316D01*
X021720Y031294D01*
X021736Y031268D01*
X021746Y031239D01*
X021750Y031208D01*
X021746Y031178D01*
X021736Y031148D01*
X021740Y031160D02*
X021484Y031160D01*
X021474Y031209D02*
X021750Y031209D01*
X021740Y031257D02*
X021484Y031257D01*
X021516Y031306D02*
X021708Y031306D01*
X021709Y031112D02*
X021515Y031112D01*
X014545Y030460D02*
X014542Y030430D01*
X014532Y030400D01*
X014515Y030374D01*
X014493Y030353D01*
X014467Y030336D01*
X014438Y030326D01*
X014407Y030322D01*
X014377Y030326D01*
X014348Y030336D01*
X014321Y030353D01*
X014300Y030374D01*
X014283Y030400D01*
X014273Y030430D01*
X014270Y030460D01*
X014273Y030491D01*
X014283Y030520D01*
X014300Y030546D01*
X014321Y030568D01*
X014348Y030584D01*
X014377Y030595D01*
X014407Y030598D01*
X014438Y030595D01*
X014467Y030584D01*
X014493Y030568D01*
X014515Y030546D01*
X014532Y030520D01*
X014542Y030491D01*
X014545Y030460D01*
X014543Y030481D02*
X014272Y030481D01*
X014273Y030433D02*
X014542Y030433D01*
X014521Y030384D02*
X014293Y030384D01*
X014349Y030336D02*
X014466Y030336D01*
X014525Y030530D02*
X014289Y030530D01*
X014338Y030578D02*
X014477Y030578D01*
X013390Y031148D02*
X013373Y031122D01*
X013352Y031101D01*
X013325Y031084D01*
X013296Y031074D01*
X013266Y031070D01*
X013235Y031074D01*
X013206Y031084D01*
X013180Y031101D01*
X013158Y031122D01*
X013142Y031148D01*
X013131Y031178D01*
X013128Y031208D01*
X013131Y031239D01*
X013142Y031268D01*
X013158Y031294D01*
X013180Y031316D01*
X013206Y031332D01*
X013235Y031343D01*
X013266Y031346D01*
X013296Y031343D01*
X013325Y031332D01*
X013352Y031316D01*
X013373Y031294D01*
X013390Y031268D01*
X013400Y031239D01*
X013403Y031208D01*
X013400Y031178D01*
X013390Y031148D01*
X013394Y031160D02*
X013137Y031160D01*
X013128Y031209D02*
X013403Y031209D01*
X013394Y031257D02*
X013138Y031257D01*
X013170Y031306D02*
X013362Y031306D01*
X013363Y031112D02*
X013169Y031112D01*
X014361Y029190D02*
X014387Y029206D01*
X014416Y029217D01*
X014447Y029220D01*
X014477Y029217D01*
X014507Y029206D01*
X014533Y029190D01*
X014555Y029168D01*
X014571Y029142D01*
X014581Y029113D01*
X014585Y029082D01*
X014581Y029052D01*
X014571Y029022D01*
X014555Y028996D01*
X014533Y028975D01*
X014507Y028958D01*
X014477Y028948D01*
X014447Y028944D01*
X014416Y028948D01*
X014387Y028958D01*
X014361Y028975D01*
X014339Y028996D01*
X014323Y029022D01*
X014312Y029052D01*
X014309Y029082D01*
X014312Y029113D01*
X014323Y029142D01*
X014339Y029168D01*
X014361Y029190D01*
X014343Y029172D02*
X014551Y029172D01*
X014578Y029123D02*
X014316Y029123D01*
X014310Y029075D02*
X014584Y029075D01*
X014572Y029026D02*
X014321Y029026D01*
X014358Y028978D02*
X014536Y028978D01*
X013296Y018823D02*
X013325Y018813D01*
X013352Y018796D01*
X013373Y018774D01*
X013390Y018748D01*
X013400Y018719D01*
X013403Y018689D01*
X013400Y018658D01*
X013390Y018629D01*
X013373Y018603D01*
X013352Y018581D01*
X013325Y018564D01*
X013296Y018554D01*
X013266Y018551D01*
X013235Y018554D01*
X013206Y018564D01*
X013180Y018581D01*
X013158Y018603D01*
X013142Y018629D01*
X013131Y018658D01*
X013128Y018689D01*
X013131Y018719D01*
X013142Y018748D01*
X013158Y018774D01*
X013180Y018796D01*
X013206Y018813D01*
X013235Y018823D01*
X013266Y018826D01*
X013296Y018823D01*
X013355Y018793D02*
X013176Y018793D01*
X013140Y018744D02*
X013391Y018744D01*
X013403Y018696D02*
X013129Y018696D01*
X013135Y018647D02*
X013396Y018647D01*
X013369Y018599D02*
X013162Y018599D01*
X014283Y018000D02*
X014300Y018026D01*
X014321Y018048D01*
X014348Y018065D01*
X014377Y018075D01*
X014407Y018078D01*
X014438Y018075D01*
X014467Y018065D01*
X014493Y018048D01*
X014515Y018026D01*
X014532Y018000D01*
X014542Y017971D01*
X014545Y017941D01*
X014542Y017910D01*
X014532Y017881D01*
X014515Y017855D01*
X014493Y017833D01*
X014467Y017816D01*
X014438Y017806D01*
X014407Y017803D01*
X014377Y017806D01*
X014348Y017816D01*
X014321Y017833D01*
X014300Y017855D01*
X014283Y017881D01*
X014273Y017910D01*
X014270Y017941D01*
X014273Y017971D01*
X014283Y018000D01*
X014294Y018017D02*
X014521Y018017D01*
X014542Y017968D02*
X014273Y017968D01*
X014272Y017920D02*
X014543Y017920D01*
X014526Y017871D02*
X014289Y017871D01*
X014338Y017823D02*
X014477Y017823D01*
X014466Y018065D02*
X014349Y018065D01*
X014447Y016700D02*
X014477Y016697D01*
X014507Y016687D01*
X014533Y016670D01*
X014555Y016649D01*
X014571Y016622D01*
X014581Y016593D01*
X014585Y016563D01*
X014581Y016532D01*
X014571Y016503D01*
X014555Y016477D01*
X014533Y016455D01*
X014507Y016438D01*
X014477Y016428D01*
X014447Y016425D01*
X014416Y016428D01*
X014387Y016438D01*
X014361Y016455D01*
X014339Y016477D01*
X014323Y016503D01*
X014312Y016532D01*
X014309Y016563D01*
X014312Y016593D01*
X014323Y016622D01*
X014339Y016649D01*
X014361Y016670D01*
X014387Y016687D01*
X014416Y016697D01*
X014447Y016700D01*
X014544Y016659D02*
X014349Y016659D01*
X014318Y016610D02*
X014575Y016610D01*
X014584Y016562D02*
X014309Y016562D01*
X014319Y016513D02*
X014575Y016513D01*
X014543Y016465D02*
X014351Y016465D01*
X021478Y018658D02*
X021474Y018689D01*
X021478Y018719D01*
X021488Y018748D01*
X021504Y018774D01*
X021526Y018796D01*
X021552Y018813D01*
X021581Y018823D01*
X021612Y018826D01*
X021643Y018823D01*
X021672Y018813D01*
X021698Y018796D01*
X021720Y018774D01*
X021736Y018748D01*
X021746Y018719D01*
X021750Y018689D01*
X021746Y018658D01*
X021736Y018629D01*
X021720Y018603D01*
X021698Y018581D01*
X021672Y018564D01*
X021643Y018554D01*
X021612Y018551D01*
X021581Y018554D01*
X021552Y018564D01*
X021526Y018581D01*
X021504Y018603D01*
X021488Y018629D01*
X021478Y018658D01*
X021482Y018647D02*
X021743Y018647D01*
X021749Y018696D02*
X021475Y018696D01*
X021487Y018744D02*
X021738Y018744D01*
X021702Y018793D02*
X021523Y018793D01*
X021508Y018599D02*
X021716Y018599D01*
X022640Y018017D02*
X022868Y018017D01*
X022862Y018026D02*
X022878Y018000D01*
X022888Y017971D01*
X022892Y017941D01*
X022888Y017910D01*
X022878Y017881D01*
X022862Y017855D01*
X022840Y017833D01*
X022814Y017816D01*
X022785Y017806D01*
X022754Y017803D01*
X022723Y017806D01*
X022694Y017816D01*
X022668Y017833D01*
X022646Y017855D01*
X022630Y017881D01*
X022620Y017910D01*
X022616Y017941D01*
X022620Y017971D01*
X022630Y018000D01*
X022646Y018026D01*
X022668Y018048D01*
X022694Y018065D01*
X022723Y018075D01*
X022754Y018078D01*
X022785Y018075D01*
X022814Y018065D01*
X022840Y018048D01*
X022862Y018026D01*
X022812Y018065D02*
X022695Y018065D01*
X022619Y017968D02*
X022889Y017968D01*
X022889Y017920D02*
X022618Y017920D01*
X022636Y017871D02*
X022872Y017871D01*
X022824Y017823D02*
X022684Y017823D01*
X022793Y016700D02*
X022824Y016697D01*
X022853Y016687D01*
X022879Y016670D01*
X022901Y016649D01*
X022917Y016622D01*
X022928Y016593D01*
X022931Y016563D01*
X022928Y016532D01*
X022917Y016503D01*
X022901Y016477D01*
X022879Y016455D01*
X022853Y016438D01*
X022824Y016428D01*
X022793Y016425D01*
X022763Y016428D01*
X022733Y016438D01*
X022707Y016455D01*
X022686Y016477D01*
X022669Y016503D01*
X022659Y016532D01*
X022655Y016563D01*
X022659Y016593D01*
X022669Y016622D01*
X022686Y016649D01*
X022707Y016670D01*
X022733Y016687D01*
X022763Y016697D01*
X022793Y016700D01*
X022696Y016659D02*
X022891Y016659D01*
X022922Y016610D02*
X022665Y016610D01*
X022656Y016562D02*
X022931Y016562D01*
X022921Y016513D02*
X022665Y016513D01*
X022698Y016465D02*
X022889Y016465D01*
X029824Y018658D02*
X029821Y018689D01*
X029824Y018719D01*
X029834Y018748D01*
X029851Y018774D01*
X029873Y018796D01*
X029899Y018813D01*
X029928Y018823D01*
X029959Y018826D01*
X029989Y018823D01*
X030018Y018813D01*
X030045Y018796D01*
X030066Y018774D01*
X030083Y018748D01*
X030093Y018719D01*
X030096Y018689D01*
X030093Y018658D01*
X030083Y018629D01*
X030066Y018603D01*
X030045Y018581D01*
X030018Y018564D01*
X029989Y018554D01*
X029959Y018551D01*
X029928Y018554D01*
X029899Y018564D01*
X029873Y018581D01*
X029851Y018603D01*
X029834Y018629D01*
X029824Y018658D01*
X029828Y018647D02*
X030089Y018647D01*
X030096Y018696D02*
X029822Y018696D01*
X029833Y018744D02*
X030084Y018744D01*
X030048Y018793D02*
X029869Y018793D01*
X029855Y018599D02*
X030062Y018599D01*
X030986Y018017D02*
X031214Y018017D01*
X031208Y018026D02*
X031224Y018000D01*
X031235Y017971D01*
X031238Y017941D01*
X031235Y017910D01*
X031224Y017881D01*
X031208Y017855D01*
X031186Y017833D01*
X031160Y017816D01*
X031131Y017806D01*
X031100Y017803D01*
X031070Y017806D01*
X031041Y017816D01*
X031014Y017833D01*
X030993Y017855D01*
X030976Y017881D01*
X030966Y017910D01*
X030963Y017941D01*
X030966Y017971D01*
X030976Y018000D01*
X030993Y018026D01*
X031014Y018048D01*
X031041Y018065D01*
X031070Y018075D01*
X031100Y018078D01*
X031131Y018075D01*
X031160Y018065D01*
X031186Y018048D01*
X031208Y018026D01*
X031159Y018065D02*
X031042Y018065D01*
X030966Y017968D02*
X031235Y017968D01*
X031236Y017920D02*
X030965Y017920D01*
X030982Y017871D02*
X031218Y017871D01*
X031170Y017823D02*
X031031Y017823D01*
X031140Y016700D02*
X031170Y016697D01*
X031199Y016687D01*
X031226Y016670D01*
X031247Y016649D01*
X031264Y016622D01*
X031274Y016593D01*
X031277Y016563D01*
X031274Y016532D01*
X031264Y016503D01*
X031247Y016477D01*
X031226Y016455D01*
X031199Y016438D01*
X031170Y016428D01*
X031140Y016425D01*
X031109Y016428D01*
X031080Y016438D01*
X031054Y016455D01*
X031032Y016477D01*
X031016Y016503D01*
X031005Y016532D01*
X031002Y016563D01*
X031005Y016593D01*
X031016Y016622D01*
X031032Y016649D01*
X031054Y016670D01*
X031080Y016687D01*
X031109Y016697D01*
X031140Y016700D01*
X031237Y016659D02*
X031042Y016659D01*
X031011Y016610D02*
X031268Y016610D01*
X031277Y016562D02*
X031002Y016562D01*
X031012Y016513D02*
X031267Y016513D01*
X031235Y016465D02*
X031044Y016465D01*
X038171Y018658D02*
X038167Y018689D01*
X038171Y018719D01*
X038181Y018748D01*
X038197Y018774D01*
X038219Y018796D01*
X038245Y018813D01*
X038274Y018823D01*
X038305Y018826D01*
X038336Y018823D01*
X038365Y018813D01*
X038391Y018796D01*
X038413Y018774D01*
X038429Y018748D01*
X038439Y018719D01*
X038443Y018689D01*
X038439Y018658D01*
X038429Y018629D01*
X038413Y018603D01*
X038391Y018581D01*
X038365Y018564D01*
X038336Y018554D01*
X038305Y018551D01*
X038274Y018554D01*
X038245Y018564D01*
X038219Y018581D01*
X038197Y018603D01*
X038181Y018629D01*
X038171Y018658D01*
X038174Y018647D02*
X038436Y018647D01*
X038442Y018696D02*
X038168Y018696D01*
X038179Y018744D02*
X038431Y018744D01*
X038395Y018793D02*
X038216Y018793D01*
X038201Y018599D02*
X038409Y018599D01*
X039333Y018017D02*
X039561Y018017D01*
X039555Y018026D02*
X039571Y018000D01*
X039581Y017971D01*
X039585Y017941D01*
X039581Y017910D01*
X039571Y017881D01*
X039555Y017855D01*
X039533Y017833D01*
X039507Y017816D01*
X039477Y017806D01*
X039447Y017803D01*
X039416Y017806D01*
X039387Y017816D01*
X039361Y017833D01*
X039339Y017855D01*
X039323Y017881D01*
X039312Y017910D01*
X039309Y017941D01*
X039312Y017971D01*
X039323Y018000D01*
X039339Y018026D01*
X039361Y018048D01*
X039387Y018065D01*
X039416Y018075D01*
X039447Y018078D01*
X039477Y018075D01*
X039507Y018065D01*
X039533Y018048D01*
X039555Y018026D01*
X039505Y018065D02*
X039388Y018065D01*
X039312Y017968D02*
X039581Y017968D01*
X039582Y017920D02*
X039311Y017920D01*
X039329Y017871D02*
X039565Y017871D01*
X039517Y017823D02*
X039377Y017823D01*
X039486Y016700D02*
X039517Y016697D01*
X039546Y016687D01*
X039572Y016670D01*
X039594Y016649D01*
X039610Y016622D01*
X039620Y016593D01*
X039624Y016563D01*
X039620Y016532D01*
X039610Y016503D01*
X039594Y016477D01*
X039572Y016455D01*
X039546Y016438D01*
X039517Y016428D01*
X039486Y016425D01*
X039455Y016428D01*
X039426Y016438D01*
X039400Y016455D01*
X039378Y016477D01*
X039362Y016503D01*
X039352Y016532D01*
X039348Y016563D01*
X039352Y016593D01*
X039362Y016622D01*
X039378Y016649D01*
X039400Y016670D01*
X039426Y016687D01*
X039455Y016697D01*
X039486Y016700D01*
X039389Y016659D02*
X039584Y016659D01*
X039615Y016610D02*
X039358Y016610D01*
X039348Y016562D02*
X039624Y016562D01*
X039614Y016513D02*
X039358Y016513D01*
X039390Y016465D02*
X039582Y016465D01*
D18*
X039840Y010303D03*
X031494Y010303D03*
X023148Y010303D03*
X014801Y010303D03*
X014801Y022822D03*
X023148Y022822D03*
X031494Y022822D03*
X039840Y022822D03*
D19*
X039368Y006405D03*
X014171Y006405D03*
X016140Y035696D03*
D20*
X015648Y030480D03*
X015136Y030480D03*
X015136Y029732D03*
X015392Y029732D03*
X015648Y029732D03*
X023482Y029732D03*
X023738Y029732D03*
X023994Y029732D03*
X023994Y030480D03*
X023482Y030480D03*
X031829Y030480D03*
X032340Y030480D03*
X032340Y029732D03*
X032085Y029732D03*
X031829Y029732D03*
X040175Y029732D03*
X040431Y029732D03*
X040687Y029732D03*
X040687Y030480D03*
X040175Y030480D03*
X040175Y017960D03*
X040687Y017960D03*
X040687Y017212D03*
X040431Y017212D03*
X040175Y017212D03*
X032340Y017212D03*
X032085Y017212D03*
X031829Y017212D03*
X031829Y017960D03*
X032340Y017960D03*
X023994Y017960D03*
X023482Y017960D03*
X023482Y017212D03*
X023738Y017212D03*
X023994Y017212D03*
X015648Y017212D03*
X015392Y017212D03*
X015136Y017212D03*
X015136Y017960D03*
X015648Y017960D03*
D21*
X016081Y017724D03*
X016081Y017468D03*
X016081Y017212D03*
X016829Y017212D03*
X016829Y017724D03*
X024427Y017724D03*
X024427Y017468D03*
X024427Y017212D03*
X025175Y017212D03*
X025175Y017724D03*
X032774Y017724D03*
X032774Y017468D03*
X032774Y017212D03*
X033522Y017212D03*
X033522Y017724D03*
X041120Y017724D03*
X041120Y017468D03*
X041120Y017212D03*
X041868Y017212D03*
X041868Y017724D03*
X041868Y029732D03*
X041868Y030244D03*
X041120Y030244D03*
X041120Y029988D03*
X041120Y029732D03*
X033522Y029732D03*
X033522Y030244D03*
X032774Y030244D03*
X032774Y029988D03*
X032774Y029732D03*
X025175Y029732D03*
X025175Y030244D03*
X024427Y030244D03*
X024427Y029988D03*
X024427Y029732D03*
X016829Y029732D03*
X016829Y030244D03*
X016081Y030244D03*
X016081Y029988D03*
X016081Y029732D03*
D22*
X013590Y029781D03*
X013590Y029525D03*
X013590Y030037D03*
X013590Y030293D03*
X011760Y030293D03*
X011760Y030037D03*
X011760Y029781D03*
X011760Y029525D03*
X020106Y029525D03*
X020106Y029781D03*
X020106Y030037D03*
X020106Y030293D03*
X021937Y030293D03*
X021937Y030037D03*
X021937Y029781D03*
X021937Y029525D03*
X028453Y029525D03*
X028453Y029781D03*
X028453Y030037D03*
X028453Y030293D03*
X030283Y030293D03*
X030283Y030037D03*
X030283Y029781D03*
X030283Y029525D03*
X036799Y029525D03*
X036799Y029781D03*
X036799Y030037D03*
X036799Y030293D03*
X038630Y030293D03*
X038630Y030037D03*
X038630Y029781D03*
X038630Y029525D03*
X038630Y017773D03*
X038630Y017517D03*
X038630Y017261D03*
X038630Y017006D03*
X036799Y017006D03*
X036799Y017261D03*
X036799Y017517D03*
X036799Y017773D03*
X030283Y017773D03*
X030283Y017517D03*
X030283Y017261D03*
X030283Y017006D03*
X028453Y017006D03*
X028453Y017261D03*
X028453Y017517D03*
X028453Y017773D03*
X021937Y017773D03*
X021937Y017517D03*
X021937Y017261D03*
X021937Y017006D03*
X020106Y017006D03*
X020106Y017261D03*
X020106Y017517D03*
X020106Y017773D03*
X013590Y017773D03*
X013590Y017517D03*
X013590Y017261D03*
X013590Y017006D03*
X011760Y017006D03*
X011760Y017261D03*
X011760Y017517D03*
X011760Y017773D03*
D23*
X012675Y017389D03*
X021022Y017389D03*
X029368Y017389D03*
X037715Y017389D03*
X037715Y029909D03*
X029368Y029909D03*
X021022Y029909D03*
X012675Y029909D03*
D24*
X013089Y024102D03*
X013758Y024102D03*
X013758Y023196D03*
X013089Y023196D03*
X021435Y023196D03*
X022104Y023196D03*
X022104Y024102D03*
X021435Y024102D03*
X029781Y024102D03*
X030451Y024102D03*
X030451Y023196D03*
X029781Y023196D03*
X038128Y023196D03*
X038797Y023196D03*
X038797Y024102D03*
X038128Y024102D03*
X038128Y011582D03*
X038797Y011582D03*
X038797Y010677D03*
X038128Y010677D03*
X030451Y010677D03*
X029781Y010677D03*
X029781Y011582D03*
X030451Y011582D03*
X022104Y011582D03*
X021435Y011582D03*
X021435Y010677D03*
X022104Y010677D03*
X013758Y010677D03*
X013089Y010677D03*
X013089Y011582D03*
X013758Y011582D03*
M02*
