G75*
%MOIN*%
%OFA0B0*%
%FSLAX24Y24*%
%IPPOS*%
%LPD*%
%AMOC8*
5,1,8,0,0,1.08239X$1,22.5*
%
%ADD10C,0.0098*%
%ADD11C,0.0080*%
%ADD12C,0.0070*%
%ADD13C,0.0060*%
%ADD14C,0.0050*%
%ADD15C,0.0079*%
%ADD16C,0.0059*%
D10*
X005692Y008728D02*
X005259Y009161D01*
X005692Y009594D01*
X005692Y008728D01*
X005692Y008798D02*
X005622Y008798D01*
X005692Y008895D02*
X005525Y008895D01*
X005428Y008992D02*
X005692Y008992D01*
X005692Y009089D02*
X005331Y009089D01*
X005284Y009186D02*
X005692Y009186D01*
X005692Y009283D02*
X005381Y009283D01*
X005478Y009380D02*
X005692Y009380D01*
X005692Y009477D02*
X005575Y009477D01*
X005671Y009574D02*
X005692Y009574D01*
X005692Y010657D02*
X004826Y010657D01*
X005259Y011169D02*
X005692Y010736D01*
X005692Y011602D01*
X005259Y011169D01*
X005303Y011124D02*
X005692Y011124D01*
X005692Y011028D02*
X005400Y011028D01*
X005497Y010931D02*
X005692Y010931D01*
X005692Y010834D02*
X005594Y010834D01*
X005691Y010737D02*
X005692Y010737D01*
X005692Y011221D02*
X005311Y011221D01*
X005408Y011318D02*
X005692Y011318D01*
X005692Y011415D02*
X005505Y011415D01*
X005602Y011512D02*
X005692Y011512D01*
X005692Y012665D02*
X004826Y012665D01*
X005276Y013160D02*
X005692Y013160D01*
X005692Y013257D02*
X005339Y013257D01*
X005259Y013177D02*
X005692Y012744D01*
X005692Y013610D01*
X005259Y013177D01*
X005373Y013063D02*
X005692Y013063D01*
X005692Y012966D02*
X005470Y012966D01*
X005566Y012869D02*
X005692Y012869D01*
X005692Y012772D02*
X005663Y012772D01*
X005692Y013354D02*
X005436Y013354D01*
X005533Y013451D02*
X005692Y013451D01*
X005692Y013548D02*
X005630Y013548D01*
X005692Y014673D02*
X004826Y014673D01*
X005259Y015185D02*
X005692Y014752D01*
X005692Y015618D01*
X005259Y015185D01*
X005270Y015195D02*
X005692Y015195D01*
X005692Y015098D02*
X005345Y015098D01*
X005442Y015001D02*
X005692Y015001D01*
X005692Y014905D02*
X005539Y014905D01*
X005636Y014808D02*
X005692Y014808D01*
X005692Y015292D02*
X005366Y015292D01*
X005463Y015389D02*
X005692Y015389D01*
X005692Y015486D02*
X005560Y015486D01*
X005657Y015583D02*
X005692Y015583D01*
X006401Y015736D02*
X006558Y015263D01*
X006361Y014712D02*
X006479Y014594D01*
X005692Y016681D02*
X004826Y016681D01*
X004826Y017665D02*
X005692Y017665D01*
X005692Y018689D02*
X004826Y018689D01*
X005692Y021011D02*
X005259Y021444D01*
X005692Y021878D01*
X005692Y021011D01*
X005692Y021108D02*
X005596Y021108D01*
X005692Y021205D02*
X005499Y021205D01*
X005402Y021302D02*
X005692Y021302D01*
X005692Y021399D02*
X005305Y021399D01*
X005310Y021495D02*
X005692Y021495D01*
X005692Y021592D02*
X005407Y021592D01*
X005504Y021689D02*
X005692Y021689D01*
X005692Y021786D02*
X005601Y021786D01*
X005692Y022941D02*
X004826Y022941D01*
X005277Y023434D02*
X005692Y023434D01*
X005692Y023337D02*
X005374Y023337D01*
X005471Y023240D02*
X005692Y023240D01*
X005692Y023143D02*
X005568Y023143D01*
X005665Y023046D02*
X005692Y023046D01*
X005692Y023019D02*
X005259Y023452D01*
X005692Y023885D01*
X005692Y023019D01*
X005692Y023531D02*
X005337Y023531D01*
X005434Y023628D02*
X005692Y023628D01*
X005692Y023725D02*
X005531Y023725D01*
X005628Y023822D02*
X005692Y023822D01*
X005692Y024948D02*
X004826Y024948D01*
X005259Y025460D02*
X005692Y025027D01*
X005692Y025893D01*
X005259Y025460D01*
X005268Y025469D02*
X005692Y025469D01*
X005692Y025373D02*
X005347Y025373D01*
X005443Y025276D02*
X005692Y025276D01*
X005692Y025179D02*
X005540Y025179D01*
X005637Y025082D02*
X005692Y025082D01*
X005692Y025566D02*
X005365Y025566D01*
X005462Y025663D02*
X005692Y025663D01*
X005692Y025760D02*
X005559Y025760D01*
X005656Y025857D02*
X005692Y025857D01*
X005692Y026956D02*
X004826Y026956D01*
X005259Y027468D02*
X005692Y027035D01*
X005692Y027901D01*
X005259Y027468D01*
X005296Y027505D02*
X005692Y027505D01*
X005692Y027602D02*
X005393Y027602D01*
X005489Y027699D02*
X005692Y027699D01*
X005692Y027796D02*
X005586Y027796D01*
X005683Y027893D02*
X005692Y027893D01*
X005692Y027408D02*
X005319Y027408D01*
X005416Y027311D02*
X005692Y027311D01*
X005692Y027214D02*
X005513Y027214D01*
X005610Y027117D02*
X005692Y027117D01*
X006361Y026996D02*
X006479Y026878D01*
X006558Y027547D02*
X006401Y028019D01*
X005692Y028964D02*
X004826Y028964D01*
X004826Y029948D02*
X005692Y029948D01*
X005692Y030972D02*
X004826Y030972D01*
X011834Y024948D02*
X012700Y024948D01*
X012521Y024694D02*
X012267Y024694D01*
X012267Y024597D02*
X012618Y024597D01*
X012715Y024500D02*
X012267Y024500D01*
X012267Y024403D02*
X012666Y024403D01*
X012739Y024476D02*
X012267Y024948D01*
X012267Y024004D01*
X012739Y024476D01*
X012569Y024306D02*
X012267Y024306D01*
X012267Y024209D02*
X012473Y024209D01*
X012376Y024112D02*
X012267Y024112D01*
X012267Y024016D02*
X012279Y024016D01*
X012267Y023925D02*
X012267Y022980D01*
X011794Y023452D01*
X012267Y023925D01*
X012267Y023919D02*
X012261Y023919D01*
X012267Y023822D02*
X012164Y023822D01*
X012067Y023725D02*
X012267Y023725D01*
X012267Y023628D02*
X011970Y023628D01*
X011873Y023531D02*
X012267Y023531D01*
X012267Y023434D02*
X011813Y023434D01*
X011910Y023337D02*
X012267Y023337D01*
X012267Y023240D02*
X012006Y023240D01*
X012103Y023143D02*
X012267Y023143D01*
X012267Y023046D02*
X012200Y023046D01*
X011979Y022756D02*
X011834Y022756D01*
X011834Y022852D02*
X011882Y022852D01*
X011834Y022901D02*
X012267Y022468D01*
X011834Y022035D01*
X011834Y022901D01*
X011834Y022659D02*
X012076Y022659D01*
X012173Y022562D02*
X011834Y022562D01*
X011834Y022465D02*
X012263Y022465D01*
X012166Y022368D02*
X011834Y022368D01*
X011834Y022271D02*
X012069Y022271D01*
X011973Y022174D02*
X011834Y022174D01*
X011834Y022077D02*
X011876Y022077D01*
X013093Y022941D02*
X013960Y022941D01*
X013960Y023019D02*
X013527Y023452D01*
X013960Y023885D01*
X013960Y023019D01*
X013960Y023046D02*
X013933Y023046D01*
X013960Y023143D02*
X013836Y023143D01*
X013739Y023240D02*
X013960Y023240D01*
X013960Y023337D02*
X013642Y023337D01*
X013545Y023434D02*
X013960Y023434D01*
X013960Y023531D02*
X013605Y023531D01*
X013702Y023628D02*
X013960Y023628D01*
X013960Y023725D02*
X013799Y023725D01*
X013896Y023822D02*
X013960Y023822D01*
X013960Y024948D02*
X013093Y024948D01*
X013614Y025373D02*
X013960Y025373D01*
X013960Y025469D02*
X013536Y025469D01*
X013527Y025460D02*
X013960Y025027D01*
X013960Y025893D01*
X013527Y025460D01*
X013633Y025566D02*
X013960Y025566D01*
X013960Y025663D02*
X013730Y025663D01*
X013827Y025760D02*
X013960Y025760D01*
X013960Y025857D02*
X013923Y025857D01*
X013960Y025276D02*
X013711Y025276D01*
X013808Y025179D02*
X013960Y025179D01*
X013960Y025082D02*
X013905Y025082D01*
X012424Y024791D02*
X012267Y024791D01*
X012267Y024888D02*
X012327Y024888D01*
X013093Y026956D02*
X013960Y026956D01*
X013960Y027035D02*
X013527Y027468D01*
X013960Y027901D01*
X013960Y027035D01*
X013960Y027117D02*
X013877Y027117D01*
X013960Y027214D02*
X013781Y027214D01*
X013684Y027311D02*
X013960Y027311D01*
X013960Y027408D02*
X013587Y027408D01*
X013563Y027505D02*
X013960Y027505D01*
X013960Y027602D02*
X013660Y027602D01*
X013757Y027699D02*
X013960Y027699D01*
X013960Y027796D02*
X013854Y027796D01*
X013951Y027893D02*
X013960Y027893D01*
X014668Y028019D02*
X014826Y027547D01*
X014629Y026996D02*
X014747Y026878D01*
X013960Y028964D02*
X013093Y028964D01*
X013093Y029948D02*
X013960Y029948D01*
X013960Y030972D02*
X013093Y030972D01*
X020101Y024948D02*
X020967Y024948D01*
X020789Y024694D02*
X020534Y024694D01*
X020534Y024597D02*
X020886Y024597D01*
X020983Y024500D02*
X020534Y024500D01*
X020534Y024403D02*
X020934Y024403D01*
X021007Y024476D02*
X020534Y024948D01*
X020534Y024004D01*
X021007Y024476D01*
X020837Y024306D02*
X020534Y024306D01*
X020534Y024209D02*
X020740Y024209D01*
X020643Y024112D02*
X020534Y024112D01*
X020534Y024016D02*
X020546Y024016D01*
X020534Y023925D02*
X020534Y022980D01*
X020062Y023452D01*
X020534Y023925D01*
X020534Y023919D02*
X020528Y023919D01*
X020534Y023822D02*
X020431Y023822D01*
X020334Y023725D02*
X020534Y023725D01*
X020534Y023628D02*
X020237Y023628D01*
X020141Y023531D02*
X020534Y023531D01*
X020534Y023434D02*
X020080Y023434D01*
X020177Y023337D02*
X020534Y023337D01*
X020534Y023240D02*
X020274Y023240D01*
X020371Y023143D02*
X020534Y023143D01*
X020534Y023046D02*
X020468Y023046D01*
X020247Y022756D02*
X020101Y022756D01*
X020101Y022852D02*
X020150Y022852D01*
X020101Y022901D02*
X020534Y022468D01*
X020101Y022035D01*
X020101Y022901D01*
X020101Y022659D02*
X020344Y022659D01*
X020441Y022562D02*
X020101Y022562D01*
X020101Y022465D02*
X020531Y022465D01*
X020434Y022368D02*
X020101Y022368D01*
X020101Y022271D02*
X020337Y022271D01*
X020240Y022174D02*
X020101Y022174D01*
X020101Y022077D02*
X020143Y022077D01*
X021361Y022941D02*
X022227Y022941D01*
X022227Y023019D02*
X021794Y023452D01*
X022227Y023885D01*
X022227Y023019D01*
X022227Y023046D02*
X022200Y023046D01*
X022227Y023143D02*
X022103Y023143D01*
X022006Y023240D02*
X022227Y023240D01*
X022227Y023337D02*
X021910Y023337D01*
X021813Y023434D02*
X022227Y023434D01*
X022227Y023531D02*
X021873Y023531D01*
X021970Y023628D02*
X022227Y023628D01*
X022227Y023725D02*
X022067Y023725D01*
X022164Y023822D02*
X022227Y023822D01*
X022227Y024948D02*
X021361Y024948D01*
X021882Y025373D02*
X022227Y025373D01*
X022227Y025469D02*
X021803Y025469D01*
X021794Y025460D02*
X022227Y025027D01*
X022227Y025893D01*
X021794Y025460D01*
X021900Y025566D02*
X022227Y025566D01*
X022227Y025663D02*
X021997Y025663D01*
X022094Y025760D02*
X022227Y025760D01*
X022227Y025857D02*
X022191Y025857D01*
X022227Y025276D02*
X021979Y025276D01*
X022076Y025179D02*
X022227Y025179D01*
X022227Y025082D02*
X022173Y025082D01*
X020692Y024791D02*
X020534Y024791D01*
X020534Y024888D02*
X020595Y024888D01*
X021361Y026956D02*
X022227Y026956D01*
X022227Y027035D02*
X021794Y027468D01*
X022227Y027901D01*
X022227Y027035D01*
X022227Y027117D02*
X022145Y027117D01*
X022227Y027214D02*
X022048Y027214D01*
X021951Y027311D02*
X022227Y027311D01*
X022227Y027408D02*
X021854Y027408D01*
X021831Y027505D02*
X022227Y027505D01*
X022227Y027602D02*
X021928Y027602D01*
X022025Y027699D02*
X022227Y027699D01*
X022227Y027796D02*
X022122Y027796D01*
X022219Y027893D02*
X022227Y027893D01*
X022936Y028019D02*
X023093Y027547D01*
X022897Y026996D02*
X023015Y026878D01*
X022227Y028964D02*
X021361Y028964D01*
X021361Y029948D02*
X022227Y029948D01*
X022227Y030972D02*
X021361Y030972D01*
X028369Y024948D02*
X029235Y024948D01*
X029057Y024694D02*
X028802Y024694D01*
X028802Y024597D02*
X029153Y024597D01*
X029250Y024500D02*
X028802Y024500D01*
X028802Y024403D02*
X029202Y024403D01*
X029275Y024476D02*
X028802Y024948D01*
X028802Y024004D01*
X029275Y024476D01*
X029105Y024306D02*
X028802Y024306D01*
X028802Y024209D02*
X029008Y024209D01*
X028911Y024112D02*
X028802Y024112D01*
X028802Y024016D02*
X028814Y024016D01*
X028802Y023925D02*
X028802Y022980D01*
X028330Y023452D01*
X028802Y023925D01*
X028802Y023919D02*
X028796Y023919D01*
X028802Y023822D02*
X028699Y023822D01*
X028602Y023725D02*
X028802Y023725D01*
X028802Y023628D02*
X028505Y023628D01*
X028408Y023531D02*
X028802Y023531D01*
X028802Y023434D02*
X028348Y023434D01*
X028445Y023337D02*
X028802Y023337D01*
X028802Y023240D02*
X028542Y023240D01*
X028639Y023143D02*
X028802Y023143D01*
X028802Y023046D02*
X028736Y023046D01*
X028515Y022756D02*
X028369Y022756D01*
X028369Y022852D02*
X028418Y022852D01*
X028369Y022901D02*
X028802Y022468D01*
X028369Y022035D01*
X028369Y022901D01*
X028369Y022659D02*
X028612Y022659D01*
X028709Y022562D02*
X028369Y022562D01*
X028369Y022465D02*
X028799Y022465D01*
X028702Y022368D02*
X028369Y022368D01*
X028369Y022271D02*
X028605Y022271D01*
X028508Y022174D02*
X028369Y022174D01*
X028369Y022077D02*
X028411Y022077D01*
X029629Y022941D02*
X030495Y022941D01*
X030495Y023019D02*
X030062Y023452D01*
X030495Y023885D01*
X030495Y023019D01*
X030495Y023046D02*
X030468Y023046D01*
X030495Y023143D02*
X030371Y023143D01*
X030274Y023240D02*
X030495Y023240D01*
X030495Y023337D02*
X030177Y023337D01*
X030080Y023434D02*
X030495Y023434D01*
X030495Y023531D02*
X030141Y023531D01*
X030237Y023628D02*
X030495Y023628D01*
X030495Y023725D02*
X030334Y023725D01*
X030431Y023822D02*
X030495Y023822D01*
X030495Y024948D02*
X029629Y024948D01*
X030150Y025373D02*
X030495Y025373D01*
X030495Y025469D02*
X030071Y025469D01*
X030062Y025460D02*
X030495Y025027D01*
X030495Y025893D01*
X030062Y025460D01*
X030168Y025566D02*
X030495Y025566D01*
X030495Y025663D02*
X030265Y025663D01*
X030362Y025760D02*
X030495Y025760D01*
X030495Y025857D02*
X030459Y025857D01*
X030495Y025276D02*
X030247Y025276D01*
X030344Y025179D02*
X030495Y025179D01*
X030495Y025082D02*
X030440Y025082D01*
X028960Y024791D02*
X028802Y024791D01*
X028802Y024888D02*
X028863Y024888D01*
X029629Y026956D02*
X030495Y026956D01*
X030495Y027035D02*
X030062Y027468D01*
X030495Y027901D01*
X030495Y027035D01*
X030495Y027117D02*
X030413Y027117D01*
X030495Y027214D02*
X030316Y027214D01*
X030219Y027311D02*
X030495Y027311D01*
X030495Y027408D02*
X030122Y027408D01*
X030099Y027505D02*
X030495Y027505D01*
X030495Y027602D02*
X030196Y027602D01*
X030293Y027699D02*
X030495Y027699D01*
X030495Y027796D02*
X030390Y027796D01*
X030486Y027893D02*
X030495Y027893D01*
X031204Y028019D02*
X031361Y027547D01*
X031164Y026996D02*
X031282Y026878D01*
X030495Y028964D02*
X029629Y028964D01*
X029629Y029948D02*
X030495Y029948D01*
X030495Y030972D02*
X029629Y030972D01*
X036637Y024948D02*
X037503Y024948D01*
X037324Y024694D02*
X037070Y024694D01*
X037070Y024597D02*
X037421Y024597D01*
X037518Y024500D02*
X037070Y024500D01*
X037070Y024403D02*
X037470Y024403D01*
X037542Y024476D02*
X037070Y024004D01*
X037070Y024948D01*
X037542Y024476D01*
X037373Y024306D02*
X037070Y024306D01*
X037070Y024209D02*
X037276Y024209D01*
X037179Y024112D02*
X037070Y024112D01*
X037070Y024016D02*
X037082Y024016D01*
X037070Y023925D02*
X037070Y022980D01*
X036597Y023452D01*
X037070Y023925D01*
X037070Y023919D02*
X037064Y023919D01*
X037070Y023822D02*
X036967Y023822D01*
X036870Y023725D02*
X037070Y023725D01*
X037070Y023628D02*
X036773Y023628D01*
X036676Y023531D02*
X037070Y023531D01*
X037070Y023434D02*
X036616Y023434D01*
X036713Y023337D02*
X037070Y023337D01*
X037070Y023240D02*
X036810Y023240D01*
X036907Y023143D02*
X037070Y023143D01*
X037070Y023046D02*
X037003Y023046D01*
X036782Y022756D02*
X036637Y022756D01*
X036637Y022852D02*
X036686Y022852D01*
X036637Y022901D02*
X037070Y022468D01*
X036637Y022035D01*
X036637Y022901D01*
X036637Y022659D02*
X036879Y022659D01*
X036976Y022562D02*
X036637Y022562D01*
X036637Y022465D02*
X037066Y022465D01*
X036970Y022368D02*
X036637Y022368D01*
X036637Y022271D02*
X036873Y022271D01*
X036776Y022174D02*
X036637Y022174D01*
X036637Y022077D02*
X036679Y022077D01*
X037070Y024791D02*
X037227Y024791D01*
X037130Y024888D02*
X037070Y024888D01*
X030495Y021878D02*
X030495Y021011D01*
X030062Y021444D01*
X030495Y021878D01*
X030495Y021786D02*
X030404Y021786D01*
X030495Y021689D02*
X030307Y021689D01*
X030210Y021592D02*
X030495Y021592D01*
X030495Y021495D02*
X030113Y021495D01*
X030108Y021399D02*
X030495Y021399D01*
X030495Y021302D02*
X030205Y021302D01*
X030302Y021205D02*
X030495Y021205D01*
X030495Y021108D02*
X030399Y021108D01*
X030495Y018689D02*
X029629Y018689D01*
X029629Y017665D02*
X030495Y017665D01*
X030495Y016681D02*
X029629Y016681D01*
X030495Y015618D02*
X030495Y014752D01*
X030062Y015185D01*
X030495Y015618D01*
X030495Y015583D02*
X030460Y015583D01*
X030495Y015486D02*
X030363Y015486D01*
X030267Y015389D02*
X030495Y015389D01*
X030495Y015292D02*
X030170Y015292D01*
X030073Y015195D02*
X030495Y015195D01*
X030495Y015098D02*
X030148Y015098D01*
X030245Y015001D02*
X030495Y015001D01*
X030495Y014905D02*
X030342Y014905D01*
X030439Y014808D02*
X030495Y014808D01*
X030495Y014673D02*
X029629Y014673D01*
X030495Y013610D02*
X030495Y012744D01*
X030062Y013177D01*
X030495Y013610D01*
X030495Y013548D02*
X030433Y013548D01*
X030495Y013451D02*
X030336Y013451D01*
X030239Y013354D02*
X030495Y013354D01*
X030495Y013257D02*
X030142Y013257D01*
X030079Y013160D02*
X030495Y013160D01*
X030495Y013063D02*
X030176Y013063D01*
X030273Y012966D02*
X030495Y012966D01*
X030495Y012869D02*
X030370Y012869D01*
X030467Y012772D02*
X030495Y012772D01*
X030495Y012665D02*
X029629Y012665D01*
X029235Y012665D02*
X028369Y012665D01*
X028802Y012665D02*
X028802Y011720D01*
X029275Y012193D01*
X028802Y012665D01*
X028802Y012578D02*
X028889Y012578D01*
X028802Y012481D02*
X028986Y012481D01*
X029083Y012385D02*
X028802Y012385D01*
X028802Y012288D02*
X029180Y012288D01*
X029273Y012191D02*
X028802Y012191D01*
X028802Y012094D02*
X029176Y012094D01*
X029079Y011997D02*
X028802Y011997D01*
X028802Y011900D02*
X028982Y011900D01*
X028885Y011803D02*
X028802Y011803D01*
X028802Y011641D02*
X028802Y010696D01*
X028330Y011169D01*
X028802Y011641D01*
X028802Y011609D02*
X028770Y011609D01*
X028802Y011512D02*
X028673Y011512D01*
X028576Y011415D02*
X028802Y011415D01*
X028802Y011318D02*
X028479Y011318D01*
X028382Y011221D02*
X028802Y011221D01*
X028802Y011124D02*
X028374Y011124D01*
X028471Y011028D02*
X028802Y011028D01*
X028802Y010931D02*
X028568Y010931D01*
X028665Y010834D02*
X028802Y010834D01*
X028802Y010737D02*
X028762Y010737D01*
X028541Y010446D02*
X028369Y010446D01*
X028369Y010543D02*
X028444Y010543D01*
X028369Y010618D02*
X028802Y010185D01*
X028369Y009752D01*
X028369Y010618D01*
X028369Y010349D02*
X028638Y010349D01*
X028735Y010252D02*
X028369Y010252D01*
X028369Y010155D02*
X028773Y010155D01*
X028676Y010058D02*
X028369Y010058D01*
X028369Y009961D02*
X028579Y009961D01*
X028482Y009864D02*
X028369Y009864D01*
X028369Y009768D02*
X028385Y009768D01*
X029629Y010657D02*
X030495Y010657D01*
X030495Y010736D02*
X030062Y011169D01*
X030495Y011602D01*
X030495Y010736D01*
X030494Y010737D02*
X030495Y010737D01*
X030495Y010834D02*
X030397Y010834D01*
X030300Y010931D02*
X030495Y010931D01*
X030495Y011028D02*
X030203Y011028D01*
X030106Y011124D02*
X030495Y011124D01*
X030495Y011221D02*
X030114Y011221D01*
X030211Y011318D02*
X030495Y011318D01*
X030495Y011415D02*
X030308Y011415D01*
X030405Y011512D02*
X030495Y011512D01*
X030495Y009594D02*
X030495Y008728D01*
X030062Y009161D01*
X030495Y009594D01*
X030495Y009574D02*
X030475Y009574D01*
X030495Y009477D02*
X030378Y009477D01*
X030281Y009380D02*
X030495Y009380D01*
X030495Y009283D02*
X030184Y009283D01*
X030087Y009186D02*
X030495Y009186D01*
X030495Y009089D02*
X030134Y009089D01*
X030231Y008992D02*
X030495Y008992D01*
X030495Y008895D02*
X030328Y008895D01*
X030425Y008798D02*
X030495Y008798D01*
X031282Y014594D02*
X031164Y014712D01*
X031361Y015263D02*
X031204Y015736D01*
X036637Y012665D02*
X037503Y012665D01*
X037253Y012481D02*
X037070Y012481D01*
X037070Y012385D02*
X037350Y012385D01*
X037447Y012288D02*
X037070Y012288D01*
X037070Y012191D02*
X037540Y012191D01*
X037542Y012193D02*
X037070Y012665D01*
X037070Y011720D01*
X037542Y012193D01*
X037443Y012094D02*
X037070Y012094D01*
X037070Y011997D02*
X037347Y011997D01*
X037250Y011900D02*
X037070Y011900D01*
X037070Y011803D02*
X037153Y011803D01*
X037070Y011641D02*
X037070Y010696D01*
X036597Y011169D01*
X037070Y011641D01*
X037070Y011609D02*
X037038Y011609D01*
X037070Y011512D02*
X036941Y011512D01*
X036844Y011415D02*
X037070Y011415D01*
X037070Y011318D02*
X036747Y011318D01*
X036650Y011221D02*
X037070Y011221D01*
X037070Y011124D02*
X036642Y011124D01*
X036739Y011028D02*
X037070Y011028D01*
X037070Y010931D02*
X036836Y010931D01*
X036933Y010834D02*
X037070Y010834D01*
X037070Y010737D02*
X037030Y010737D01*
X036808Y010446D02*
X036637Y010446D01*
X036637Y010543D02*
X036712Y010543D01*
X036637Y010618D02*
X037070Y010185D01*
X036637Y009752D01*
X036637Y010618D01*
X036637Y010349D02*
X036905Y010349D01*
X037002Y010252D02*
X036637Y010252D01*
X036637Y010155D02*
X037040Y010155D01*
X036943Y010058D02*
X036637Y010058D01*
X036637Y009961D02*
X036847Y009961D01*
X036750Y009864D02*
X036637Y009864D01*
X036637Y009768D02*
X036653Y009768D01*
X037070Y012578D02*
X037156Y012578D01*
X023015Y014594D02*
X022897Y014712D01*
X023093Y015263D02*
X022936Y015736D01*
X022227Y015618D02*
X022227Y014752D01*
X021794Y015185D01*
X022227Y015618D01*
X022227Y015583D02*
X022193Y015583D01*
X022227Y015486D02*
X022096Y015486D01*
X021999Y015389D02*
X022227Y015389D01*
X022227Y015292D02*
X021902Y015292D01*
X021805Y015195D02*
X022227Y015195D01*
X022227Y015098D02*
X021880Y015098D01*
X021977Y015001D02*
X022227Y015001D01*
X022227Y014905D02*
X022074Y014905D01*
X022171Y014808D02*
X022227Y014808D01*
X022227Y014673D02*
X021361Y014673D01*
X022227Y013610D02*
X022227Y012744D01*
X021794Y013177D01*
X022227Y013610D01*
X022227Y013548D02*
X022165Y013548D01*
X022227Y013451D02*
X022068Y013451D01*
X021971Y013354D02*
X022227Y013354D01*
X022227Y013257D02*
X021874Y013257D01*
X021811Y013160D02*
X022227Y013160D01*
X022227Y013063D02*
X021908Y013063D01*
X022005Y012966D02*
X022227Y012966D01*
X022227Y012869D02*
X022102Y012869D01*
X022199Y012772D02*
X022227Y012772D01*
X022227Y012665D02*
X021361Y012665D01*
X020967Y012665D02*
X020101Y012665D01*
X020534Y012665D02*
X021007Y012193D01*
X020534Y011720D01*
X020534Y012665D01*
X020534Y012578D02*
X020621Y012578D01*
X020534Y012481D02*
X020718Y012481D01*
X020815Y012385D02*
X020534Y012385D01*
X020534Y012288D02*
X020912Y012288D01*
X021005Y012191D02*
X020534Y012191D01*
X020534Y012094D02*
X020908Y012094D01*
X020811Y011997D02*
X020534Y011997D01*
X020534Y011900D02*
X020714Y011900D01*
X020617Y011803D02*
X020534Y011803D01*
X020534Y011641D02*
X020534Y010696D01*
X020062Y011169D01*
X020534Y011641D01*
X020534Y011609D02*
X020502Y011609D01*
X020534Y011512D02*
X020405Y011512D01*
X020308Y011415D02*
X020534Y011415D01*
X020534Y011318D02*
X020211Y011318D01*
X020114Y011221D02*
X020534Y011221D01*
X020534Y011124D02*
X020106Y011124D01*
X020203Y011028D02*
X020534Y011028D01*
X020534Y010931D02*
X020300Y010931D01*
X020397Y010834D02*
X020534Y010834D01*
X020534Y010737D02*
X020494Y010737D01*
X020273Y010446D02*
X020101Y010446D01*
X020101Y010543D02*
X020176Y010543D01*
X020101Y010618D02*
X020534Y010185D01*
X020101Y009752D01*
X020101Y010618D01*
X020101Y010349D02*
X020370Y010349D01*
X020467Y010252D02*
X020101Y010252D01*
X020101Y010155D02*
X020505Y010155D01*
X020408Y010058D02*
X020101Y010058D01*
X020101Y009961D02*
X020311Y009961D01*
X020214Y009864D02*
X020101Y009864D01*
X020101Y009768D02*
X020117Y009768D01*
X021361Y010657D02*
X022227Y010657D01*
X022227Y010736D02*
X021794Y011169D01*
X022227Y011602D01*
X022227Y010736D01*
X022226Y010737D02*
X022227Y010737D01*
X022227Y010834D02*
X022129Y010834D01*
X022033Y010931D02*
X022227Y010931D01*
X022227Y011028D02*
X021936Y011028D01*
X021839Y011124D02*
X022227Y011124D01*
X022227Y011221D02*
X021847Y011221D01*
X021944Y011318D02*
X022227Y011318D01*
X022227Y011415D02*
X022041Y011415D01*
X022138Y011512D02*
X022227Y011512D01*
X022227Y009594D02*
X022227Y008728D01*
X021794Y009161D01*
X022227Y009594D01*
X022227Y009574D02*
X022207Y009574D01*
X022227Y009477D02*
X022110Y009477D01*
X022013Y009380D02*
X022227Y009380D01*
X022227Y009283D02*
X021916Y009283D01*
X021819Y009186D02*
X022227Y009186D01*
X022227Y009089D02*
X021866Y009089D01*
X021963Y008992D02*
X022227Y008992D01*
X022227Y008895D02*
X022060Y008895D01*
X022157Y008798D02*
X022227Y008798D01*
X014826Y015263D02*
X014668Y015736D01*
X013960Y015618D02*
X013960Y014752D01*
X013527Y015185D01*
X013960Y015618D01*
X013960Y015583D02*
X013925Y015583D01*
X013960Y015486D02*
X013828Y015486D01*
X013731Y015389D02*
X013960Y015389D01*
X013960Y015292D02*
X013634Y015292D01*
X013537Y015195D02*
X013960Y015195D01*
X013960Y015098D02*
X013613Y015098D01*
X013710Y015001D02*
X013960Y015001D01*
X013960Y014905D02*
X013807Y014905D01*
X013904Y014808D02*
X013960Y014808D01*
X013960Y014673D02*
X013093Y014673D01*
X013960Y013610D02*
X013960Y012744D01*
X013527Y013177D01*
X013960Y013610D01*
X013960Y013548D02*
X013897Y013548D01*
X013960Y013451D02*
X013800Y013451D01*
X013704Y013354D02*
X013960Y013354D01*
X013960Y013257D02*
X013607Y013257D01*
X013543Y013160D02*
X013960Y013160D01*
X013960Y013063D02*
X013640Y013063D01*
X013737Y012966D02*
X013960Y012966D01*
X013960Y012869D02*
X013834Y012869D01*
X013931Y012772D02*
X013960Y012772D01*
X013960Y012665D02*
X013093Y012665D01*
X012700Y012665D02*
X011834Y012665D01*
X012267Y012665D02*
X012739Y012193D01*
X012267Y011720D01*
X012267Y012665D01*
X012267Y012578D02*
X012353Y012578D01*
X012267Y012481D02*
X012450Y012481D01*
X012547Y012385D02*
X012267Y012385D01*
X012267Y012288D02*
X012644Y012288D01*
X012737Y012191D02*
X012267Y012191D01*
X012267Y012094D02*
X012640Y012094D01*
X012543Y011997D02*
X012267Y011997D01*
X012267Y011900D02*
X012446Y011900D01*
X012350Y011803D02*
X012267Y011803D01*
X012267Y011641D02*
X012267Y010696D01*
X011794Y011169D01*
X012267Y011641D01*
X012267Y011609D02*
X012234Y011609D01*
X012267Y011512D02*
X012138Y011512D01*
X012041Y011415D02*
X012267Y011415D01*
X012267Y011318D02*
X011944Y011318D01*
X011847Y011221D02*
X012267Y011221D01*
X012267Y011124D02*
X011839Y011124D01*
X011936Y011028D02*
X012267Y011028D01*
X012267Y010931D02*
X012033Y010931D01*
X012129Y010834D02*
X012267Y010834D01*
X012267Y010737D02*
X012226Y010737D01*
X012005Y010446D02*
X011834Y010446D01*
X011834Y010543D02*
X011908Y010543D01*
X011834Y010618D02*
X012267Y010185D01*
X011834Y009752D01*
X011834Y010618D01*
X011834Y010349D02*
X012102Y010349D01*
X012199Y010252D02*
X011834Y010252D01*
X011834Y010155D02*
X012237Y010155D01*
X012140Y010058D02*
X011834Y010058D01*
X011834Y009961D02*
X012043Y009961D01*
X011946Y009864D02*
X011834Y009864D01*
X011834Y009768D02*
X011850Y009768D01*
X013093Y010657D02*
X013960Y010657D01*
X013960Y010736D02*
X013527Y011169D01*
X013960Y011602D01*
X013960Y010736D01*
X013959Y010737D02*
X013960Y010737D01*
X013960Y010834D02*
X013862Y010834D01*
X013765Y010931D02*
X013960Y010931D01*
X013960Y011028D02*
X013668Y011028D01*
X013571Y011124D02*
X013960Y011124D01*
X013960Y011221D02*
X013579Y011221D01*
X013676Y011318D02*
X013960Y011318D01*
X013960Y011415D02*
X013773Y011415D01*
X013870Y011512D02*
X013960Y011512D01*
X013960Y009594D02*
X013960Y008728D01*
X013527Y009161D01*
X013960Y009594D01*
X013960Y009574D02*
X013939Y009574D01*
X013960Y009477D02*
X013842Y009477D01*
X013745Y009380D02*
X013960Y009380D01*
X013960Y009283D02*
X013648Y009283D01*
X013551Y009186D02*
X013960Y009186D01*
X013960Y009089D02*
X013599Y009089D01*
X013695Y008992D02*
X013960Y008992D01*
X013960Y008895D02*
X013792Y008895D01*
X013889Y008798D02*
X013960Y008798D01*
X014747Y014594D02*
X014629Y014712D01*
X013960Y016681D02*
X013093Y016681D01*
X013093Y017665D02*
X013960Y017665D01*
X013960Y018689D02*
X013093Y018689D01*
X013960Y021011D02*
X013527Y021444D01*
X013960Y021878D01*
X013960Y021011D01*
X013960Y021108D02*
X013863Y021108D01*
X013766Y021205D02*
X013960Y021205D01*
X013960Y021302D02*
X013669Y021302D01*
X013572Y021399D02*
X013960Y021399D01*
X013960Y021495D02*
X013578Y021495D01*
X013674Y021592D02*
X013960Y021592D01*
X013960Y021689D02*
X013771Y021689D01*
X013868Y021786D02*
X013960Y021786D01*
X021361Y018689D02*
X022227Y018689D01*
X022227Y017665D02*
X021361Y017665D01*
X021361Y016681D02*
X022227Y016681D01*
X022227Y021011D02*
X021794Y021444D01*
X022227Y021878D01*
X022227Y021011D01*
X022227Y021108D02*
X022131Y021108D01*
X022227Y021205D02*
X022034Y021205D01*
X021937Y021302D02*
X022227Y021302D01*
X022227Y021399D02*
X021840Y021399D01*
X021845Y021495D02*
X022227Y021495D01*
X022227Y021592D02*
X021942Y021592D01*
X022039Y021689D02*
X022227Y021689D01*
X022227Y021786D02*
X022136Y021786D01*
D11*
X005717Y008622D02*
X004808Y008622D01*
X004808Y020724D01*
X005717Y020724D01*
X005717Y008622D01*
X008960Y009214D02*
X009104Y009214D01*
X009032Y009286D02*
X009032Y008997D01*
X009104Y008925D01*
X009274Y008925D02*
X009418Y008925D01*
X009346Y008925D02*
X009346Y009214D01*
X009274Y009214D01*
X009346Y009358D02*
X009346Y009430D01*
X009589Y009214D02*
X009805Y009214D01*
X009877Y009142D01*
X009877Y008925D01*
X010060Y008997D02*
X010132Y008925D01*
X010348Y008925D01*
X010348Y008853D02*
X010276Y008781D01*
X010204Y008781D01*
X010348Y008853D02*
X010348Y009214D01*
X010531Y009358D02*
X010675Y009358D01*
X010603Y009358D02*
X010603Y008925D01*
X010531Y008925D02*
X010675Y008925D01*
X010845Y008925D02*
X011133Y009214D01*
X011133Y009286D01*
X011061Y009358D01*
X010917Y009358D01*
X010845Y009286D01*
X010845Y008925D02*
X011133Y008925D01*
X011317Y008997D02*
X011389Y008925D01*
X011533Y008925D01*
X011605Y008997D01*
X011317Y008997D02*
X011317Y009286D01*
X011389Y009358D01*
X011533Y009358D01*
X011605Y009286D01*
X011808Y008622D02*
X012717Y008622D01*
X012717Y020724D01*
X011808Y020724D01*
X011808Y008622D01*
X013076Y008622D02*
X013985Y008622D01*
X013985Y020724D01*
X013076Y020724D01*
X013076Y008622D01*
X011717Y010122D02*
X010808Y010122D01*
X010808Y012224D01*
X011717Y012224D01*
X011717Y010122D01*
X010717Y010122D02*
X009808Y010122D01*
X009808Y012224D01*
X010717Y012224D01*
X010717Y010122D01*
X010060Y009214D02*
X010060Y008997D01*
X009589Y008925D02*
X009589Y009214D01*
X008814Y015218D02*
X006712Y015218D01*
X006712Y016128D01*
X008814Y016128D01*
X008814Y015218D01*
X011814Y019815D02*
X005712Y019815D01*
X005712Y020578D01*
X011814Y020578D01*
X011814Y019815D01*
X011808Y020906D02*
X012717Y020906D01*
X012717Y033007D01*
X011808Y033007D01*
X011808Y020906D01*
X011533Y021209D02*
X011605Y021281D01*
X011533Y021209D02*
X011389Y021209D01*
X011317Y021281D01*
X011317Y021569D01*
X011389Y021641D01*
X011533Y021641D01*
X011605Y021569D01*
X011133Y021569D02*
X011061Y021641D01*
X010917Y021641D01*
X010845Y021569D01*
X010675Y021641D02*
X010531Y021641D01*
X010603Y021641D02*
X010603Y021209D01*
X010531Y021209D02*
X010675Y021209D01*
X010845Y021209D02*
X011133Y021497D01*
X011133Y021569D01*
X011133Y021209D02*
X010845Y021209D01*
X010348Y021209D02*
X010132Y021209D01*
X010060Y021281D01*
X010060Y021497D01*
X009877Y021425D02*
X009877Y021209D01*
X009877Y021425D02*
X009805Y021497D01*
X009589Y021497D01*
X009589Y021209D01*
X009418Y021209D02*
X009274Y021209D01*
X009346Y021209D02*
X009346Y021497D01*
X009274Y021497D01*
X009346Y021641D02*
X009346Y021713D01*
X009104Y021497D02*
X008960Y021497D01*
X009032Y021569D02*
X009032Y021281D01*
X009104Y021209D01*
X010204Y021065D02*
X010276Y021065D01*
X010348Y021137D01*
X010348Y021497D01*
X010717Y022406D02*
X009808Y022406D01*
X009808Y024507D01*
X010717Y024507D01*
X010717Y022406D01*
X010808Y022406D02*
X011717Y022406D01*
X011717Y024507D01*
X010808Y024507D01*
X010808Y022406D01*
X013076Y020906D02*
X013985Y020906D01*
X013985Y033007D01*
X013076Y033007D01*
X013076Y020906D01*
X013980Y020578D02*
X013980Y019815D01*
X020081Y019815D01*
X020081Y020578D01*
X013980Y020578D01*
X017228Y021497D02*
X017372Y021497D01*
X017300Y021569D02*
X017300Y021281D01*
X017372Y021209D01*
X017542Y021209D02*
X017686Y021209D01*
X017614Y021209D02*
X017614Y021497D01*
X017542Y021497D01*
X017614Y021641D02*
X017614Y021713D01*
X017856Y021497D02*
X018072Y021497D01*
X018144Y021425D01*
X018144Y021209D01*
X018328Y021281D02*
X018400Y021209D01*
X018616Y021209D01*
X018616Y021137D02*
X018544Y021065D01*
X018472Y021065D01*
X018616Y021137D02*
X018616Y021497D01*
X018799Y021641D02*
X018943Y021641D01*
X018871Y021641D02*
X018871Y021209D01*
X018799Y021209D02*
X018943Y021209D01*
X019113Y021209D02*
X019401Y021497D01*
X019401Y021569D01*
X019329Y021641D01*
X019185Y021641D01*
X019113Y021569D01*
X019113Y021209D02*
X019401Y021209D01*
X019584Y021281D02*
X019656Y021209D01*
X019800Y021209D01*
X019872Y021281D01*
X019584Y021281D02*
X019584Y021569D01*
X019656Y021641D01*
X019800Y021641D01*
X019872Y021569D01*
X020076Y020906D02*
X020985Y020906D01*
X020985Y033007D01*
X020076Y033007D01*
X020076Y020906D01*
X020076Y020724D02*
X020985Y020724D01*
X020985Y008622D01*
X020076Y008622D01*
X020076Y020724D01*
X021343Y020724D02*
X022253Y020724D01*
X022253Y008622D01*
X021343Y008622D01*
X021343Y020724D01*
X021343Y020906D02*
X022253Y020906D01*
X022253Y033007D01*
X021343Y033007D01*
X021343Y020906D01*
X022247Y020578D02*
X022247Y019815D01*
X028349Y019815D01*
X028349Y020578D01*
X022247Y020578D01*
X019985Y022406D02*
X019076Y022406D01*
X019076Y024507D01*
X019985Y024507D01*
X019985Y022406D01*
X018985Y022406D02*
X018076Y022406D01*
X018076Y024507D01*
X018985Y024507D01*
X018985Y022406D01*
X018328Y021497D02*
X018328Y021281D01*
X017856Y021209D02*
X017856Y021497D01*
X017081Y016128D02*
X014980Y016128D01*
X014980Y015218D01*
X017081Y015218D01*
X017081Y016128D01*
X018076Y012224D02*
X018985Y012224D01*
X018985Y010122D01*
X018076Y010122D01*
X018076Y012224D01*
X019076Y012224D02*
X019985Y012224D01*
X019985Y010122D01*
X019076Y010122D01*
X019076Y012224D01*
X019185Y009358D02*
X019113Y009286D01*
X019185Y009358D02*
X019329Y009358D01*
X019401Y009286D01*
X019401Y009214D01*
X019113Y008925D01*
X019401Y008925D01*
X019584Y008997D02*
X019656Y008925D01*
X019800Y008925D01*
X019872Y008997D01*
X019584Y008997D02*
X019584Y009286D01*
X019656Y009358D01*
X019800Y009358D01*
X019872Y009286D01*
X018943Y009358D02*
X018799Y009358D01*
X018871Y009358D02*
X018871Y008925D01*
X018799Y008925D02*
X018943Y008925D01*
X018616Y008925D02*
X018400Y008925D01*
X018328Y008997D01*
X018328Y009214D01*
X018144Y009142D02*
X018144Y008925D01*
X018144Y009142D02*
X018072Y009214D01*
X017856Y009214D01*
X017856Y008925D01*
X017686Y008925D02*
X017542Y008925D01*
X017614Y008925D02*
X017614Y009214D01*
X017542Y009214D01*
X017614Y009358D02*
X017614Y009430D01*
X017372Y009214D02*
X017228Y009214D01*
X017300Y009286D02*
X017300Y008997D01*
X017372Y008925D01*
X018472Y008781D02*
X018544Y008781D01*
X018616Y008853D01*
X018616Y009214D01*
X023247Y015218D02*
X023247Y016128D01*
X025349Y016128D01*
X025349Y015218D01*
X023247Y015218D01*
X026343Y012224D02*
X027253Y012224D01*
X027253Y010122D01*
X026343Y010122D01*
X026343Y012224D01*
X027343Y012224D02*
X028253Y012224D01*
X028253Y010122D01*
X027343Y010122D01*
X027343Y012224D01*
X027453Y009358D02*
X027381Y009286D01*
X027453Y009358D02*
X027597Y009358D01*
X027669Y009286D01*
X027669Y009214D01*
X027381Y008925D01*
X027669Y008925D01*
X027852Y008997D02*
X027924Y008925D01*
X028068Y008925D01*
X028140Y008997D01*
X027852Y008997D02*
X027852Y009286D01*
X027924Y009358D01*
X028068Y009358D01*
X028140Y009286D01*
X028343Y008622D02*
X029253Y008622D01*
X029253Y020724D01*
X028343Y020724D01*
X028343Y008622D01*
X027211Y008925D02*
X027067Y008925D01*
X027139Y008925D02*
X027139Y009358D01*
X027067Y009358D02*
X027211Y009358D01*
X026883Y009214D02*
X026883Y008853D01*
X026811Y008781D01*
X026739Y008781D01*
X026667Y008925D02*
X026883Y008925D01*
X026667Y008925D02*
X026595Y008997D01*
X026595Y009214D01*
X026412Y009142D02*
X026412Y008925D01*
X026412Y009142D02*
X026340Y009214D01*
X026124Y009214D01*
X026124Y008925D01*
X025954Y008925D02*
X025810Y008925D01*
X025882Y008925D02*
X025882Y009214D01*
X025810Y009214D01*
X025882Y009358D02*
X025882Y009430D01*
X025640Y009214D02*
X025496Y009214D01*
X025568Y009286D02*
X025568Y008997D01*
X025640Y008925D01*
X029611Y008622D02*
X030521Y008622D01*
X030521Y020724D01*
X029611Y020724D01*
X029611Y008622D01*
X033763Y009214D02*
X033907Y009214D01*
X033835Y009286D02*
X033835Y008997D01*
X033907Y008925D01*
X034078Y008925D02*
X034222Y008925D01*
X034150Y008925D02*
X034150Y009214D01*
X034078Y009214D01*
X034150Y009358D02*
X034150Y009430D01*
X034392Y009214D02*
X034608Y009214D01*
X034680Y009142D01*
X034680Y008925D01*
X034863Y008997D02*
X034935Y008925D01*
X035151Y008925D01*
X035151Y008853D02*
X035079Y008781D01*
X035007Y008781D01*
X035151Y008853D02*
X035151Y009214D01*
X035334Y009358D02*
X035478Y009358D01*
X035406Y009358D02*
X035406Y008925D01*
X035334Y008925D02*
X035478Y008925D01*
X035648Y008925D02*
X035937Y009214D01*
X035937Y009286D01*
X035865Y009358D01*
X035720Y009358D01*
X035648Y009286D01*
X035648Y008925D02*
X035937Y008925D01*
X036120Y008997D02*
X036192Y008925D01*
X036336Y008925D01*
X036408Y008997D01*
X036120Y008997D02*
X036120Y009286D01*
X036192Y009358D01*
X036336Y009358D01*
X036408Y009286D01*
X036611Y008622D02*
X037521Y008622D01*
X037521Y020724D01*
X036611Y020724D01*
X036611Y008622D01*
X036521Y010122D02*
X035611Y010122D01*
X035611Y012224D01*
X036521Y012224D01*
X036521Y010122D01*
X035521Y010122D02*
X034611Y010122D01*
X034611Y012224D01*
X035521Y012224D01*
X035521Y010122D01*
X034863Y009214D02*
X034863Y008997D01*
X034392Y008925D02*
X034392Y009214D01*
X033617Y015218D02*
X031515Y015218D01*
X031515Y016128D01*
X033617Y016128D01*
X033617Y015218D01*
X036617Y019815D02*
X030515Y019815D01*
X030515Y020578D01*
X036617Y020578D01*
X036617Y019815D01*
X036611Y020906D02*
X037521Y020906D01*
X037521Y033007D01*
X036611Y033007D01*
X036611Y020906D01*
X036336Y021209D02*
X036408Y021281D01*
X036336Y021209D02*
X036192Y021209D01*
X036120Y021281D01*
X036120Y021569D01*
X036192Y021641D01*
X036336Y021641D01*
X036408Y021569D01*
X035937Y021569D02*
X035865Y021641D01*
X035720Y021641D01*
X035648Y021569D01*
X035478Y021641D02*
X035334Y021641D01*
X035406Y021641D02*
X035406Y021209D01*
X035334Y021209D02*
X035478Y021209D01*
X035648Y021209D02*
X035937Y021497D01*
X035937Y021569D01*
X035937Y021209D02*
X035648Y021209D01*
X035151Y021209D02*
X034935Y021209D01*
X034863Y021281D01*
X034863Y021497D01*
X034680Y021425D02*
X034680Y021209D01*
X034680Y021425D02*
X034608Y021497D01*
X034392Y021497D01*
X034392Y021209D01*
X034222Y021209D02*
X034078Y021209D01*
X034150Y021209D02*
X034150Y021497D01*
X034078Y021497D01*
X034150Y021641D02*
X034150Y021713D01*
X033907Y021497D02*
X033763Y021497D01*
X033835Y021569D02*
X033835Y021281D01*
X033907Y021209D01*
X035007Y021065D02*
X035079Y021065D01*
X035151Y021137D01*
X035151Y021497D01*
X035521Y022406D02*
X034611Y022406D01*
X034611Y024507D01*
X035521Y024507D01*
X035521Y022406D01*
X035611Y022406D02*
X036521Y022406D01*
X036521Y024507D01*
X035611Y024507D01*
X035611Y022406D01*
X033617Y027502D02*
X031515Y027502D01*
X031515Y028411D01*
X033617Y028411D01*
X033617Y027502D01*
X036617Y032098D02*
X030515Y032098D01*
X030515Y032862D01*
X036617Y032862D01*
X036617Y032098D01*
X030521Y033007D02*
X030521Y020906D01*
X029611Y020906D01*
X029611Y033007D01*
X030521Y033007D01*
X029253Y033007D02*
X029253Y020906D01*
X028343Y020906D01*
X028343Y033007D01*
X029253Y033007D01*
X028349Y032862D02*
X028349Y032098D01*
X022247Y032098D01*
X022247Y032862D01*
X028349Y032862D01*
X025349Y028411D02*
X025349Y027502D01*
X023247Y027502D01*
X023247Y028411D01*
X025349Y028411D01*
X026343Y024507D02*
X027253Y024507D01*
X027253Y022406D01*
X026343Y022406D01*
X026343Y024507D01*
X027343Y024507D02*
X028253Y024507D01*
X028253Y022406D01*
X027343Y022406D01*
X027343Y024507D01*
X025882Y021713D02*
X025882Y021641D01*
X025882Y021497D02*
X025882Y021209D01*
X025810Y021209D02*
X025954Y021209D01*
X026124Y021209D02*
X026124Y021497D01*
X026340Y021497D01*
X026412Y021425D01*
X026412Y021209D01*
X026595Y021281D02*
X026667Y021209D01*
X026883Y021209D01*
X026883Y021137D02*
X026811Y021065D01*
X026739Y021065D01*
X026883Y021137D02*
X026883Y021497D01*
X027067Y021641D02*
X027211Y021641D01*
X027139Y021641D02*
X027139Y021209D01*
X027067Y021209D02*
X027211Y021209D01*
X027381Y021209D02*
X027669Y021497D01*
X027669Y021569D01*
X027597Y021641D01*
X027453Y021641D01*
X027381Y021569D01*
X027381Y021209D02*
X027669Y021209D01*
X027852Y021281D02*
X027924Y021209D01*
X028068Y021209D01*
X028140Y021281D01*
X027852Y021281D02*
X027852Y021569D01*
X027924Y021641D01*
X028068Y021641D01*
X028140Y021569D01*
X026595Y021497D02*
X026595Y021281D01*
X025882Y021497D02*
X025810Y021497D01*
X025640Y021497D02*
X025496Y021497D01*
X025568Y021569D02*
X025568Y021281D01*
X025640Y021209D01*
X017081Y027502D02*
X014980Y027502D01*
X014980Y028411D01*
X017081Y028411D01*
X017081Y027502D01*
X020081Y032098D02*
X013980Y032098D01*
X013980Y032862D01*
X020081Y032862D01*
X020081Y032098D01*
X011814Y032098D02*
X011814Y032862D01*
X005712Y032862D01*
X005712Y032098D01*
X011814Y032098D01*
X008814Y028411D02*
X008814Y027502D01*
X006712Y027502D01*
X006712Y028411D01*
X008814Y028411D01*
X005717Y033007D02*
X004808Y033007D01*
X004808Y020906D01*
X005717Y020906D01*
X005717Y033007D01*
D12*
X010396Y031004D02*
X010530Y031004D01*
X010463Y031004D02*
X010463Y030602D01*
X010396Y030602D02*
X010530Y030602D01*
X010686Y030669D02*
X010753Y030602D01*
X010888Y030602D01*
X010955Y030669D01*
X011121Y030602D02*
X011390Y030870D01*
X011390Y030937D01*
X011323Y031004D01*
X011188Y031004D01*
X011121Y030937D01*
X010955Y030937D02*
X010888Y031004D01*
X010753Y031004D01*
X010686Y030937D01*
X010686Y030669D01*
X011121Y030602D02*
X011390Y030602D01*
X010824Y026607D02*
X010824Y026204D01*
X010958Y026204D02*
X010689Y026204D01*
X010523Y026271D02*
X010523Y026607D01*
X010689Y026472D02*
X010824Y026607D01*
X010523Y026271D02*
X010456Y026204D01*
X010322Y026204D01*
X010254Y026271D01*
X010254Y026607D01*
X010351Y025754D02*
X010351Y024594D01*
X010490Y024629D02*
X010490Y024763D01*
X010490Y024696D02*
X010893Y024696D01*
X010893Y024629D02*
X010893Y024763D01*
X010826Y024919D02*
X010893Y024986D01*
X010893Y025120D01*
X010826Y025188D01*
X010759Y025188D01*
X010692Y025120D01*
X010692Y024986D01*
X010625Y024919D01*
X010557Y024919D01*
X010490Y024986D01*
X010490Y025120D01*
X010557Y025188D01*
X010490Y025354D02*
X010490Y025556D01*
X010557Y025623D01*
X010692Y025623D01*
X010759Y025556D01*
X010759Y025354D01*
X010893Y025354D02*
X010490Y025354D01*
X011238Y025266D02*
X011238Y025131D01*
X011305Y025064D01*
X011373Y025064D01*
X011440Y025131D01*
X011440Y025266D01*
X011507Y025333D01*
X011574Y025333D01*
X011641Y025266D01*
X011641Y025131D01*
X011574Y025064D01*
X011641Y024898D02*
X011507Y024763D01*
X011507Y024830D02*
X011507Y024629D01*
X011641Y024629D02*
X011238Y024629D01*
X011238Y024830D01*
X011305Y024898D01*
X011440Y024898D01*
X011507Y024830D01*
X011099Y024594D02*
X011099Y025899D01*
X011238Y025768D02*
X011238Y025499D01*
X011238Y025633D02*
X011641Y025633D01*
X011305Y025333D02*
X011238Y025266D01*
X011188Y018721D02*
X011121Y018654D01*
X011188Y018721D02*
X011323Y018721D01*
X011390Y018654D01*
X011390Y018587D01*
X011121Y018318D01*
X011390Y018318D01*
X010955Y018385D02*
X010888Y018318D01*
X010753Y018318D01*
X010686Y018385D01*
X010686Y018654D01*
X010753Y018721D01*
X010888Y018721D01*
X010955Y018654D01*
X010530Y018721D02*
X010396Y018721D01*
X010463Y018721D02*
X010463Y018318D01*
X010396Y018318D02*
X010530Y018318D01*
X010523Y014323D02*
X010523Y013988D01*
X010456Y013920D01*
X010322Y013920D01*
X010254Y013988D01*
X010254Y014323D01*
X010689Y014189D02*
X010824Y014323D01*
X010824Y013920D01*
X010958Y013920D02*
X010689Y013920D01*
X011099Y013616D02*
X011099Y012311D01*
X011238Y012346D02*
X011238Y012547D01*
X011305Y012614D01*
X011440Y012614D01*
X011507Y012547D01*
X011507Y012346D01*
X011507Y012480D02*
X011641Y012614D01*
X011574Y012781D02*
X011641Y012848D01*
X011641Y012982D01*
X011574Y013049D01*
X011507Y013049D01*
X011440Y012982D01*
X011440Y012848D01*
X011373Y012781D01*
X011305Y012781D01*
X011238Y012848D01*
X011238Y012982D01*
X011305Y013049D01*
X011238Y013216D02*
X011238Y013484D01*
X011238Y013350D02*
X011641Y013350D01*
X010893Y013071D02*
X010490Y013071D01*
X010490Y013272D01*
X010557Y013339D01*
X010692Y013339D01*
X010759Y013272D01*
X010759Y013071D01*
X010759Y012904D02*
X010826Y012904D01*
X010893Y012837D01*
X010893Y012703D01*
X010826Y012636D01*
X010692Y012703D02*
X010625Y012636D01*
X010557Y012636D01*
X010490Y012703D01*
X010490Y012837D01*
X010557Y012904D01*
X010692Y012837D02*
X010759Y012904D01*
X010692Y012837D02*
X010692Y012703D01*
X010893Y012480D02*
X010893Y012346D01*
X010893Y012413D02*
X010490Y012413D01*
X010490Y012346D02*
X010490Y012480D01*
X010351Y012311D02*
X010351Y013471D01*
X011238Y012346D02*
X011641Y012346D01*
X018522Y013988D02*
X018589Y013920D01*
X018724Y013920D01*
X018791Y013988D01*
X018791Y014323D01*
X018957Y014189D02*
X019091Y014323D01*
X019091Y013920D01*
X018957Y013920D02*
X019226Y013920D01*
X019366Y013616D02*
X019366Y012311D01*
X019506Y012346D02*
X019506Y012547D01*
X019573Y012614D01*
X019707Y012614D01*
X019775Y012547D01*
X019775Y012346D01*
X019909Y012346D02*
X019506Y012346D01*
X019775Y012480D02*
X019909Y012614D01*
X019842Y012781D02*
X019909Y012848D01*
X019909Y012982D01*
X019842Y013049D01*
X019775Y013049D01*
X019707Y012982D01*
X019707Y012848D01*
X019640Y012781D01*
X019573Y012781D01*
X019506Y012848D01*
X019506Y012982D01*
X019573Y013049D01*
X019506Y013216D02*
X019506Y013484D01*
X019506Y013350D02*
X019909Y013350D01*
X019161Y013071D02*
X018758Y013071D01*
X018758Y013272D01*
X018825Y013339D01*
X018959Y013339D01*
X019027Y013272D01*
X019027Y013071D01*
X019027Y012904D02*
X019094Y012904D01*
X019161Y012837D01*
X019161Y012703D01*
X019094Y012636D01*
X018959Y012703D02*
X018959Y012837D01*
X019027Y012904D01*
X018825Y012904D02*
X018758Y012837D01*
X018758Y012703D01*
X018825Y012636D01*
X018892Y012636D01*
X018959Y012703D01*
X018758Y012480D02*
X018758Y012346D01*
X018758Y012413D02*
X019161Y012413D01*
X019161Y012346D02*
X019161Y012480D01*
X018618Y012311D02*
X018618Y013471D01*
X018522Y013988D02*
X018522Y014323D01*
X018664Y018318D02*
X018798Y018318D01*
X018731Y018318D02*
X018731Y018721D01*
X018664Y018721D02*
X018798Y018721D01*
X018954Y018654D02*
X018954Y018385D01*
X019021Y018318D01*
X019155Y018318D01*
X019222Y018385D01*
X019389Y018318D02*
X019657Y018587D01*
X019657Y018654D01*
X019590Y018721D01*
X019456Y018721D01*
X019389Y018654D01*
X019222Y018654D02*
X019155Y018721D01*
X019021Y018721D01*
X018954Y018654D01*
X019389Y018318D02*
X019657Y018318D01*
X019366Y024594D02*
X019366Y025899D01*
X019506Y025768D02*
X019506Y025499D01*
X019506Y025633D02*
X019909Y025633D01*
X019842Y025333D02*
X019909Y025266D01*
X019909Y025131D01*
X019842Y025064D01*
X019707Y025131D02*
X019707Y025266D01*
X019775Y025333D01*
X019842Y025333D01*
X019707Y025131D02*
X019640Y025064D01*
X019573Y025064D01*
X019506Y025131D01*
X019506Y025266D01*
X019573Y025333D01*
X019161Y025354D02*
X018758Y025354D01*
X018758Y025556D01*
X018825Y025623D01*
X018959Y025623D01*
X019027Y025556D01*
X019027Y025354D01*
X019027Y025188D02*
X019094Y025188D01*
X019161Y025120D01*
X019161Y024986D01*
X019094Y024919D01*
X018959Y024986D02*
X018959Y025120D01*
X019027Y025188D01*
X018825Y025188D02*
X018758Y025120D01*
X018758Y024986D01*
X018825Y024919D01*
X018892Y024919D01*
X018959Y024986D01*
X018758Y024763D02*
X018758Y024629D01*
X018758Y024696D02*
X019161Y024696D01*
X019161Y024629D02*
X019161Y024763D01*
X019506Y024830D02*
X019506Y024629D01*
X019909Y024629D01*
X019775Y024629D02*
X019775Y024830D01*
X019707Y024898D01*
X019573Y024898D01*
X019506Y024830D01*
X019775Y024763D02*
X019909Y024898D01*
X018618Y024594D02*
X018618Y025754D01*
X018589Y026204D02*
X018522Y026271D01*
X018522Y026607D01*
X018791Y026607D02*
X018791Y026271D01*
X018724Y026204D01*
X018589Y026204D01*
X018957Y026204D02*
X019226Y026204D01*
X019091Y026204D02*
X019091Y026607D01*
X018957Y026472D01*
X019021Y030602D02*
X019155Y030602D01*
X019222Y030669D01*
X019389Y030602D02*
X019657Y030870D01*
X019657Y030937D01*
X019590Y031004D01*
X019456Y031004D01*
X019389Y030937D01*
X019222Y030937D02*
X019155Y031004D01*
X019021Y031004D01*
X018954Y030937D01*
X018954Y030669D01*
X019021Y030602D01*
X018798Y030602D02*
X018664Y030602D01*
X018731Y030602D02*
X018731Y031004D01*
X018664Y031004D02*
X018798Y031004D01*
X019389Y030602D02*
X019657Y030602D01*
X026790Y026607D02*
X026790Y026271D01*
X026857Y026204D01*
X026991Y026204D01*
X027058Y026271D01*
X027058Y026607D01*
X027225Y026472D02*
X027359Y026607D01*
X027359Y026204D01*
X027225Y026204D02*
X027493Y026204D01*
X027634Y025899D02*
X027634Y024594D01*
X027774Y024629D02*
X027774Y024830D01*
X027841Y024898D01*
X027975Y024898D01*
X028042Y024830D01*
X028042Y024629D01*
X028042Y024763D02*
X028177Y024898D01*
X028109Y025064D02*
X028177Y025131D01*
X028177Y025266D01*
X028109Y025333D01*
X028042Y025333D01*
X027975Y025266D01*
X027975Y025131D01*
X027908Y025064D01*
X027841Y025064D01*
X027774Y025131D01*
X027774Y025266D01*
X027841Y025333D01*
X027774Y025499D02*
X027774Y025768D01*
X027774Y025633D02*
X028177Y025633D01*
X027429Y025354D02*
X027026Y025354D01*
X027026Y025556D01*
X027093Y025623D01*
X027227Y025623D01*
X027294Y025556D01*
X027294Y025354D01*
X027294Y025188D02*
X027361Y025188D01*
X027429Y025120D01*
X027429Y024986D01*
X027361Y024919D01*
X027227Y024986D02*
X027227Y025120D01*
X027294Y025188D01*
X027093Y025188D02*
X027026Y025120D01*
X027026Y024986D01*
X027093Y024919D01*
X027160Y024919D01*
X027227Y024986D01*
X027026Y024763D02*
X027026Y024629D01*
X027026Y024696D02*
X027429Y024696D01*
X027429Y024629D02*
X027429Y024763D01*
X027774Y024629D02*
X028177Y024629D01*
X026886Y024594D02*
X026886Y025754D01*
X026932Y030602D02*
X027066Y030602D01*
X026999Y030602D02*
X026999Y031004D01*
X026932Y031004D02*
X027066Y031004D01*
X027222Y030937D02*
X027222Y030669D01*
X027289Y030602D01*
X027423Y030602D01*
X027490Y030669D01*
X027657Y030602D02*
X027925Y030870D01*
X027925Y030937D01*
X027858Y031004D01*
X027724Y031004D01*
X027657Y030937D01*
X027490Y030937D02*
X027423Y031004D01*
X027289Y031004D01*
X027222Y030937D01*
X027657Y030602D02*
X027925Y030602D01*
X035199Y030602D02*
X035334Y030602D01*
X035266Y030602D02*
X035266Y031004D01*
X035199Y031004D02*
X035334Y031004D01*
X035489Y030937D02*
X035556Y031004D01*
X035691Y031004D01*
X035758Y030937D01*
X035924Y030937D02*
X035991Y031004D01*
X036126Y031004D01*
X036193Y030937D01*
X036193Y030870D01*
X035924Y030602D01*
X036193Y030602D01*
X035758Y030669D02*
X035691Y030602D01*
X035556Y030602D01*
X035489Y030669D01*
X035489Y030937D01*
X035627Y026607D02*
X035627Y026204D01*
X035493Y026204D02*
X035761Y026204D01*
X035902Y025899D02*
X035902Y024594D01*
X036042Y024629D02*
X036042Y024830D01*
X036109Y024898D01*
X036243Y024898D01*
X036310Y024830D01*
X036310Y024629D01*
X036444Y024629D02*
X036042Y024629D01*
X036310Y024763D02*
X036444Y024898D01*
X036377Y025064D02*
X036444Y025131D01*
X036444Y025266D01*
X036377Y025333D01*
X036310Y025333D01*
X036243Y025266D01*
X036243Y025131D01*
X036176Y025064D01*
X036109Y025064D01*
X036042Y025131D01*
X036042Y025266D01*
X036109Y025333D01*
X036042Y025499D02*
X036042Y025768D01*
X036042Y025633D02*
X036444Y025633D01*
X035696Y025354D02*
X035293Y025354D01*
X035293Y025556D01*
X035361Y025623D01*
X035495Y025623D01*
X035562Y025556D01*
X035562Y025354D01*
X035562Y025188D02*
X035629Y025188D01*
X035696Y025120D01*
X035696Y024986D01*
X035629Y024919D01*
X035495Y024986D02*
X035495Y025120D01*
X035562Y025188D01*
X035361Y025188D02*
X035293Y025120D01*
X035293Y024986D01*
X035361Y024919D01*
X035428Y024919D01*
X035495Y024986D01*
X035696Y024763D02*
X035696Y024629D01*
X035696Y024696D02*
X035293Y024696D01*
X035293Y024629D02*
X035293Y024763D01*
X035154Y024594D02*
X035154Y025754D01*
X035125Y026204D02*
X035259Y026204D01*
X035326Y026271D01*
X035326Y026607D01*
X035493Y026472D02*
X035627Y026607D01*
X035058Y026607D02*
X035058Y026271D01*
X035125Y026204D01*
X035199Y018721D02*
X035334Y018721D01*
X035266Y018721D02*
X035266Y018318D01*
X035199Y018318D02*
X035334Y018318D01*
X035489Y018385D02*
X035556Y018318D01*
X035691Y018318D01*
X035758Y018385D01*
X035924Y018318D02*
X036193Y018587D01*
X036193Y018654D01*
X036126Y018721D01*
X035991Y018721D01*
X035924Y018654D01*
X035758Y018654D02*
X035691Y018721D01*
X035556Y018721D01*
X035489Y018654D01*
X035489Y018385D01*
X035924Y018318D02*
X036193Y018318D01*
X035627Y014323D02*
X035493Y014189D01*
X035627Y014323D02*
X035627Y013920D01*
X035493Y013920D02*
X035761Y013920D01*
X035902Y013616D02*
X035902Y012311D01*
X036042Y012346D02*
X036042Y012547D01*
X036109Y012614D01*
X036243Y012614D01*
X036310Y012547D01*
X036310Y012346D01*
X036310Y012480D02*
X036444Y012614D01*
X036377Y012781D02*
X036444Y012848D01*
X036444Y012982D01*
X036377Y013049D01*
X036310Y013049D01*
X036243Y012982D01*
X036243Y012848D01*
X036176Y012781D01*
X036109Y012781D01*
X036042Y012848D01*
X036042Y012982D01*
X036109Y013049D01*
X036042Y013216D02*
X036042Y013484D01*
X036042Y013350D02*
X036444Y013350D01*
X035696Y013071D02*
X035293Y013071D01*
X035293Y013272D01*
X035361Y013339D01*
X035495Y013339D01*
X035562Y013272D01*
X035562Y013071D01*
X035562Y012904D02*
X035629Y012904D01*
X035696Y012837D01*
X035696Y012703D01*
X035629Y012636D01*
X035495Y012703D02*
X035495Y012837D01*
X035562Y012904D01*
X035361Y012904D02*
X035293Y012837D01*
X035293Y012703D01*
X035361Y012636D01*
X035428Y012636D01*
X035495Y012703D01*
X035696Y012480D02*
X035696Y012346D01*
X035696Y012413D02*
X035293Y012413D01*
X035293Y012346D02*
X035293Y012480D01*
X035154Y012311D02*
X035154Y013471D01*
X035125Y013920D02*
X035259Y013920D01*
X035326Y013988D01*
X035326Y014323D01*
X035058Y014323D02*
X035058Y013988D01*
X035125Y013920D01*
X036042Y012346D02*
X036444Y012346D01*
X028177Y012346D02*
X027774Y012346D01*
X027774Y012547D01*
X027841Y012614D01*
X027975Y012614D01*
X028042Y012547D01*
X028042Y012346D01*
X028042Y012480D02*
X028177Y012614D01*
X028109Y012781D02*
X028177Y012848D01*
X028177Y012982D01*
X028109Y013049D01*
X028042Y013049D01*
X027975Y012982D01*
X027975Y012848D01*
X027908Y012781D01*
X027841Y012781D01*
X027774Y012848D01*
X027774Y012982D01*
X027841Y013049D01*
X027774Y013216D02*
X027774Y013484D01*
X027774Y013350D02*
X028177Y013350D01*
X027634Y013616D02*
X027634Y012311D01*
X027429Y012346D02*
X027429Y012480D01*
X027429Y012413D02*
X027026Y012413D01*
X027026Y012346D02*
X027026Y012480D01*
X027093Y012636D02*
X027160Y012636D01*
X027227Y012703D01*
X027227Y012837D01*
X027294Y012904D01*
X027361Y012904D01*
X027429Y012837D01*
X027429Y012703D01*
X027361Y012636D01*
X027093Y012636D02*
X027026Y012703D01*
X027026Y012837D01*
X027093Y012904D01*
X027026Y013071D02*
X027026Y013272D01*
X027093Y013339D01*
X027227Y013339D01*
X027294Y013272D01*
X027294Y013071D01*
X027429Y013071D02*
X027026Y013071D01*
X026886Y013471D02*
X026886Y012311D01*
X026857Y013920D02*
X026991Y013920D01*
X027058Y013988D01*
X027058Y014323D01*
X027225Y014189D02*
X027359Y014323D01*
X027359Y013920D01*
X027225Y013920D02*
X027493Y013920D01*
X026857Y013920D02*
X026790Y013988D01*
X026790Y014323D01*
X026932Y018318D02*
X027066Y018318D01*
X026999Y018318D02*
X026999Y018721D01*
X026932Y018721D02*
X027066Y018721D01*
X027222Y018654D02*
X027222Y018385D01*
X027289Y018318D01*
X027423Y018318D01*
X027490Y018385D01*
X027657Y018318D02*
X027925Y018587D01*
X027925Y018654D01*
X027858Y018721D01*
X027724Y018721D01*
X027657Y018654D01*
X027490Y018654D02*
X027423Y018721D01*
X027289Y018721D01*
X027222Y018654D01*
X027657Y018318D02*
X027925Y018318D01*
D13*
X026812Y016822D02*
X026812Y016488D01*
X026701Y016488D02*
X026923Y016488D01*
X026701Y016711D02*
X026812Y016822D01*
X026561Y016767D02*
X026505Y016822D01*
X026394Y016822D01*
X026338Y016767D01*
X026338Y016544D01*
X026394Y016488D01*
X026505Y016488D01*
X026561Y016544D01*
X026474Y016350D02*
X026307Y016183D01*
X026529Y016183D01*
X026474Y016016D02*
X026474Y016350D01*
X026167Y016294D02*
X026167Y016183D01*
X026111Y016127D01*
X025944Y016127D01*
X025944Y016016D02*
X025944Y016350D01*
X026111Y016350D01*
X026167Y016294D01*
X026056Y016127D02*
X026167Y016016D01*
X026225Y016695D02*
X026225Y016806D01*
X026225Y016751D02*
X025891Y016751D01*
X025891Y016806D02*
X025891Y016695D01*
X025947Y016937D02*
X026169Y016937D01*
X026225Y016992D01*
X026225Y017104D01*
X026169Y017159D01*
X026225Y017299D02*
X026225Y017522D01*
X026225Y017410D02*
X025891Y017410D01*
X026002Y017299D01*
X025947Y017159D02*
X025891Y017104D01*
X025891Y016992D01*
X025947Y016937D01*
X025609Y016989D02*
X025609Y017100D01*
X025553Y017156D01*
X025553Y017296D02*
X025330Y017518D01*
X025275Y017518D01*
X025275Y017296D01*
X025330Y017156D02*
X025275Y017100D01*
X025275Y016989D01*
X025330Y016933D01*
X025553Y016933D01*
X025609Y016989D01*
X025609Y017296D02*
X025553Y017296D01*
X025097Y017179D02*
X025097Y017068D01*
X025041Y017012D01*
X024819Y017012D01*
X024763Y017068D01*
X024763Y017179D01*
X024819Y017235D01*
X024819Y017374D02*
X024763Y017430D01*
X024763Y017541D01*
X024819Y017597D01*
X024874Y017597D01*
X024930Y017541D01*
X024986Y017597D01*
X025041Y017597D01*
X025097Y017541D01*
X025097Y017430D01*
X025041Y017374D01*
X025041Y017235D02*
X025097Y017179D01*
X024930Y017486D02*
X024930Y017541D01*
X024588Y017944D02*
X024476Y017944D01*
X024421Y017999D01*
X024281Y017999D02*
X024225Y017944D01*
X024114Y017944D01*
X024058Y017999D01*
X024058Y018222D01*
X024114Y018278D01*
X024225Y018278D01*
X024281Y018222D01*
X024421Y018222D02*
X024476Y018278D01*
X024588Y018278D01*
X024643Y018222D01*
X024643Y018166D01*
X024588Y018111D01*
X024643Y018055D01*
X024643Y017999D01*
X024588Y017944D01*
X024588Y018111D02*
X024532Y018111D01*
X023928Y018278D02*
X023816Y018278D01*
X023872Y018278D02*
X023872Y017944D01*
X023816Y017944D02*
X023928Y017944D01*
X023521Y018339D02*
X023410Y018339D01*
X023354Y018394D01*
X023354Y018506D02*
X023465Y018561D01*
X023521Y018561D01*
X023577Y018506D01*
X023577Y018394D01*
X023521Y018339D01*
X023354Y018506D02*
X023354Y018673D01*
X023577Y018673D01*
X023214Y018617D02*
X023159Y018673D01*
X023047Y018673D01*
X022992Y018617D01*
X022992Y018394D01*
X023047Y018339D01*
X023159Y018339D01*
X023214Y018394D01*
X023402Y016547D02*
X023346Y016491D01*
X023346Y016268D01*
X023402Y016213D01*
X023513Y016213D01*
X023569Y016268D01*
X023708Y016380D02*
X023931Y016380D01*
X023875Y016213D02*
X023875Y016547D01*
X023708Y016380D01*
X023569Y016491D02*
X023513Y016547D01*
X023402Y016547D01*
X023277Y015129D02*
X023332Y015074D01*
X023332Y014962D01*
X023277Y014907D01*
X023110Y014907D01*
X023221Y014907D02*
X023332Y014795D01*
X023277Y014696D02*
X023332Y014641D01*
X023332Y014529D01*
X023277Y014474D01*
X023110Y014474D01*
X023221Y014474D02*
X023332Y014362D01*
X023315Y014263D02*
X023315Y014096D01*
X023426Y014152D01*
X023482Y014152D01*
X023537Y014096D01*
X023537Y013985D01*
X023482Y013929D01*
X023370Y013929D01*
X023315Y013985D01*
X023175Y013929D02*
X023064Y014041D01*
X023119Y014041D02*
X022952Y014041D01*
X022952Y013929D02*
X022952Y014263D01*
X023119Y014263D01*
X023175Y014208D01*
X023175Y014096D01*
X023119Y014041D01*
X023315Y014263D02*
X023537Y014263D01*
X023472Y014362D02*
X023695Y014362D01*
X023472Y014362D02*
X023695Y014585D01*
X023695Y014641D01*
X023639Y014696D01*
X023528Y014696D01*
X023472Y014641D01*
X023472Y014795D02*
X023695Y014795D01*
X023584Y014795D02*
X023584Y015129D01*
X023472Y015018D01*
X023277Y015129D02*
X023110Y015129D01*
X023110Y014795D01*
X023110Y014696D02*
X023277Y014696D01*
X023110Y014696D02*
X023110Y014362D01*
X023119Y013318D02*
X022952Y013318D01*
X022952Y012984D01*
X022952Y013096D02*
X023119Y013096D01*
X023175Y013151D01*
X023175Y013263D01*
X023119Y013318D01*
X023064Y013096D02*
X023175Y012984D01*
X023315Y013040D02*
X023370Y012984D01*
X023482Y012984D01*
X023537Y013040D01*
X023537Y013096D01*
X023482Y013151D01*
X023315Y013151D01*
X023315Y013040D01*
X023315Y013151D02*
X023426Y013263D01*
X023537Y013318D01*
X023537Y012767D02*
X023315Y012767D01*
X023175Y012711D02*
X023175Y012600D01*
X023119Y012544D01*
X022952Y012544D01*
X022952Y012433D02*
X022952Y012767D01*
X023119Y012767D01*
X023175Y012711D01*
X023064Y012544D02*
X023175Y012433D01*
X023315Y012433D02*
X023315Y012489D01*
X023537Y012711D01*
X023537Y012767D01*
X023607Y012255D02*
X023718Y012255D01*
X023774Y012200D01*
X023774Y012144D01*
X023718Y012088D01*
X023607Y012088D01*
X023551Y012144D01*
X023551Y012200D01*
X023607Y012255D01*
X023607Y012088D02*
X023551Y012033D01*
X023551Y011977D01*
X023607Y011921D01*
X023718Y011921D01*
X023774Y011977D01*
X023774Y012033D01*
X023718Y012088D01*
X023411Y011977D02*
X023355Y011921D01*
X023244Y011921D01*
X023188Y011977D01*
X023188Y012200D01*
X023244Y012255D01*
X023355Y012255D01*
X023411Y012200D01*
X023370Y011310D02*
X023482Y011310D01*
X023537Y011255D01*
X023537Y011199D01*
X023482Y011143D01*
X023370Y011143D01*
X023315Y011199D01*
X023315Y011255D01*
X023370Y011310D01*
X023370Y011143D02*
X023315Y011088D01*
X023315Y011032D01*
X023370Y010976D01*
X023482Y010976D01*
X023537Y011032D01*
X023537Y011088D01*
X023482Y011143D01*
X023175Y011143D02*
X023175Y011255D01*
X023119Y011310D01*
X022952Y011310D01*
X022952Y010976D01*
X022952Y011088D02*
X023119Y011088D01*
X023175Y011143D01*
X023064Y011088D02*
X023175Y010976D01*
X023119Y010326D02*
X022952Y010326D01*
X022952Y009992D01*
X022952Y010104D02*
X023119Y010104D01*
X023175Y010159D01*
X023175Y010271D01*
X023119Y010326D01*
X023315Y010271D02*
X023315Y010215D01*
X023370Y010159D01*
X023537Y010159D01*
X023537Y010048D02*
X023537Y010271D01*
X023482Y010326D01*
X023370Y010326D01*
X023315Y010271D01*
X023315Y010048D02*
X023370Y009992D01*
X023482Y009992D01*
X023537Y010048D01*
X023175Y009992D02*
X023064Y010104D01*
X023119Y009460D02*
X022952Y009460D01*
X022952Y009126D01*
X022952Y009237D02*
X023119Y009237D01*
X023175Y009293D01*
X023175Y009404D01*
X023119Y009460D01*
X023315Y009349D02*
X023426Y009460D01*
X023426Y009126D01*
X023315Y009126D02*
X023537Y009126D01*
X023677Y009182D02*
X023900Y009404D01*
X023900Y009182D01*
X023844Y009126D01*
X023733Y009126D01*
X023677Y009182D01*
X023677Y009404D01*
X023733Y009460D01*
X023844Y009460D01*
X023900Y009404D01*
X024055Y009536D02*
X024110Y009480D01*
X024222Y009480D01*
X024277Y009536D01*
X024417Y009536D02*
X024473Y009480D01*
X024584Y009480D01*
X024640Y009536D01*
X024640Y009759D01*
X024584Y009814D01*
X024473Y009814D01*
X024417Y009759D01*
X024417Y009703D01*
X024473Y009647D01*
X024640Y009647D01*
X024277Y009759D02*
X024222Y009814D01*
X024110Y009814D01*
X024055Y009759D01*
X024055Y009536D01*
X023175Y009126D02*
X023064Y009237D01*
X025393Y010178D02*
X025449Y010122D01*
X025671Y010122D01*
X025727Y010178D01*
X025727Y010289D01*
X025671Y010345D01*
X025727Y010485D02*
X025504Y010707D01*
X025449Y010707D01*
X025393Y010652D01*
X025393Y010540D01*
X025449Y010485D01*
X025449Y010345D02*
X025393Y010289D01*
X025393Y010178D01*
X025826Y010178D02*
X025882Y010122D01*
X026104Y010122D01*
X026160Y010178D01*
X026160Y010289D01*
X026104Y010345D01*
X026104Y010485D02*
X026160Y010540D01*
X026160Y010652D01*
X026104Y010707D01*
X026049Y010707D01*
X025993Y010652D01*
X025993Y010485D01*
X026104Y010485D01*
X025993Y010485D02*
X025882Y010596D01*
X025826Y010707D01*
X025727Y010707D02*
X025727Y010485D01*
X025882Y010345D02*
X025826Y010289D01*
X025826Y010178D01*
X026850Y014795D02*
X026850Y015136D01*
X027020Y015136D01*
X027077Y015079D01*
X027077Y014965D01*
X027020Y014909D01*
X026850Y014909D01*
X026963Y014909D02*
X027077Y014795D01*
X027218Y014852D02*
X027275Y014795D01*
X027388Y014795D01*
X027445Y014852D01*
X027445Y014909D01*
X027388Y014965D01*
X027332Y014965D01*
X027388Y014965D02*
X027445Y015022D01*
X027445Y015079D01*
X027388Y015136D01*
X027275Y015136D01*
X027218Y015079D01*
X031220Y014263D02*
X031220Y013929D01*
X031220Y014041D02*
X031387Y014041D01*
X031443Y014096D01*
X031443Y014208D01*
X031387Y014263D01*
X031220Y014263D01*
X031377Y014362D02*
X031377Y014696D01*
X031544Y014696D01*
X031600Y014641D01*
X031600Y014529D01*
X031544Y014474D01*
X031377Y014474D01*
X031489Y014474D02*
X031600Y014362D01*
X031582Y014263D02*
X031582Y014096D01*
X031694Y014152D01*
X031749Y014152D01*
X031805Y014096D01*
X031805Y013985D01*
X031749Y013929D01*
X031638Y013929D01*
X031582Y013985D01*
X031443Y013929D02*
X031331Y014041D01*
X031582Y014263D02*
X031805Y014263D01*
X031740Y014362D02*
X031963Y014585D01*
X031963Y014641D01*
X031907Y014696D01*
X031796Y014696D01*
X031740Y014641D01*
X031740Y014795D02*
X031963Y014795D01*
X031851Y014795D02*
X031851Y015129D01*
X031740Y015018D01*
X031600Y014962D02*
X031544Y014907D01*
X031377Y014907D01*
X031377Y014795D02*
X031377Y015129D01*
X031544Y015129D01*
X031600Y015074D01*
X031600Y014962D01*
X031489Y014907D02*
X031600Y014795D01*
X031740Y014362D02*
X031963Y014362D01*
X031805Y013318D02*
X031694Y013263D01*
X031582Y013151D01*
X031749Y013151D01*
X031805Y013096D01*
X031805Y013040D01*
X031749Y012984D01*
X031638Y012984D01*
X031582Y013040D01*
X031582Y013151D01*
X031443Y013151D02*
X031387Y013096D01*
X031220Y013096D01*
X031331Y013096D02*
X031443Y012984D01*
X031443Y013151D02*
X031443Y013263D01*
X031387Y013318D01*
X031220Y013318D01*
X031220Y012984D01*
X031220Y012767D02*
X031387Y012767D01*
X031443Y012711D01*
X031443Y012600D01*
X031387Y012544D01*
X031220Y012544D01*
X031220Y012433D02*
X031220Y012767D01*
X031331Y012544D02*
X031443Y012433D01*
X031582Y012433D02*
X031582Y012489D01*
X031805Y012711D01*
X031805Y012767D01*
X031582Y012767D01*
X031623Y012255D02*
X031512Y012255D01*
X031456Y012200D01*
X031456Y011977D01*
X031512Y011921D01*
X031623Y011921D01*
X031679Y011977D01*
X031819Y011977D02*
X031874Y011921D01*
X031986Y011921D01*
X032041Y011977D01*
X032041Y012033D01*
X031986Y012088D01*
X031874Y012088D01*
X031819Y012144D01*
X031819Y012200D01*
X031874Y012255D01*
X031986Y012255D01*
X032041Y012200D01*
X032041Y012144D01*
X031986Y012088D01*
X031874Y012088D02*
X031819Y012033D01*
X031819Y011977D01*
X031679Y012200D02*
X031623Y012255D01*
X031638Y011310D02*
X031749Y011310D01*
X031805Y011255D01*
X031805Y011199D01*
X031749Y011143D01*
X031638Y011143D01*
X031582Y011199D01*
X031582Y011255D01*
X031638Y011310D01*
X031638Y011143D02*
X031582Y011088D01*
X031582Y011032D01*
X031638Y010976D01*
X031749Y010976D01*
X031805Y011032D01*
X031805Y011088D01*
X031749Y011143D01*
X031443Y011143D02*
X031387Y011088D01*
X031220Y011088D01*
X031331Y011088D02*
X031443Y010976D01*
X031443Y011143D02*
X031443Y011255D01*
X031387Y011310D01*
X031220Y011310D01*
X031220Y010976D01*
X031220Y010326D02*
X031387Y010326D01*
X031443Y010271D01*
X031443Y010159D01*
X031387Y010104D01*
X031220Y010104D01*
X031331Y010104D02*
X031443Y009992D01*
X031582Y010048D02*
X031638Y009992D01*
X031749Y009992D01*
X031805Y010048D01*
X031805Y010271D01*
X031749Y010326D01*
X031638Y010326D01*
X031582Y010271D01*
X031582Y010215D01*
X031638Y010159D01*
X031805Y010159D01*
X031220Y009992D02*
X031220Y010326D01*
X031220Y009460D02*
X031387Y009460D01*
X031443Y009404D01*
X031443Y009293D01*
X031387Y009237D01*
X031220Y009237D01*
X031220Y009126D02*
X031220Y009460D01*
X031331Y009237D02*
X031443Y009126D01*
X031582Y009126D02*
X031805Y009126D01*
X031694Y009126D02*
X031694Y009460D01*
X031582Y009349D01*
X031945Y009404D02*
X031945Y009182D01*
X032168Y009404D01*
X032168Y009182D01*
X032112Y009126D01*
X032001Y009126D01*
X031945Y009182D01*
X031945Y009404D02*
X032001Y009460D01*
X032112Y009460D01*
X032168Y009404D01*
X032322Y009536D02*
X032322Y009759D01*
X032378Y009814D01*
X032489Y009814D01*
X032545Y009759D01*
X032685Y009759D02*
X032685Y009703D01*
X032740Y009647D01*
X032907Y009647D01*
X032907Y009536D02*
X032907Y009759D01*
X032852Y009814D01*
X032740Y009814D01*
X032685Y009759D01*
X032685Y009536D02*
X032740Y009480D01*
X032852Y009480D01*
X032907Y009536D01*
X032545Y009536D02*
X032489Y009480D01*
X032378Y009480D01*
X032322Y009536D01*
X033661Y010178D02*
X033716Y010122D01*
X033939Y010122D01*
X033995Y010178D01*
X033995Y010289D01*
X033939Y010345D01*
X033995Y010485D02*
X033772Y010707D01*
X033716Y010707D01*
X033661Y010652D01*
X033661Y010540D01*
X033716Y010485D01*
X033716Y010345D02*
X033661Y010289D01*
X033661Y010178D01*
X033995Y010485D02*
X033995Y010707D01*
X034094Y010707D02*
X034149Y010596D01*
X034261Y010485D01*
X034261Y010652D01*
X034316Y010707D01*
X034372Y010707D01*
X034428Y010652D01*
X034428Y010540D01*
X034372Y010485D01*
X034261Y010485D01*
X034372Y010345D02*
X034428Y010289D01*
X034428Y010178D01*
X034372Y010122D01*
X034149Y010122D01*
X034094Y010178D01*
X034094Y010289D01*
X034149Y010345D01*
X035118Y014795D02*
X035118Y015136D01*
X035288Y015136D01*
X035344Y015079D01*
X035344Y014965D01*
X035288Y014909D01*
X035118Y014909D01*
X035231Y014909D02*
X035344Y014795D01*
X035486Y014852D02*
X035543Y014795D01*
X035656Y014795D01*
X035713Y014852D01*
X035713Y014909D01*
X035656Y014965D01*
X035599Y014965D01*
X035656Y014965D02*
X035713Y015022D01*
X035713Y015079D01*
X035656Y015136D01*
X035543Y015136D01*
X035486Y015079D01*
X034742Y016016D02*
X034742Y016350D01*
X034575Y016183D01*
X034797Y016183D01*
X034773Y016488D02*
X034828Y016544D01*
X034773Y016488D02*
X034661Y016488D01*
X034606Y016544D01*
X034606Y016767D01*
X034661Y016822D01*
X034773Y016822D01*
X034828Y016767D01*
X034968Y016711D02*
X035080Y016822D01*
X035080Y016488D01*
X035191Y016488D02*
X034968Y016488D01*
X034493Y016695D02*
X034493Y016806D01*
X034493Y016751D02*
X034159Y016751D01*
X034159Y016806D02*
X034159Y016695D01*
X034214Y016937D02*
X034437Y016937D01*
X034493Y016992D01*
X034493Y017104D01*
X034437Y017159D01*
X034493Y017299D02*
X034493Y017522D01*
X034493Y017410D02*
X034159Y017410D01*
X034270Y017299D01*
X034214Y017159D02*
X034159Y017104D01*
X034159Y016992D01*
X034214Y016937D01*
X033876Y016989D02*
X033876Y017100D01*
X033821Y017156D01*
X033821Y017296D02*
X033598Y017518D01*
X033542Y017518D01*
X033542Y017296D01*
X033598Y017156D02*
X033542Y017100D01*
X033542Y016989D01*
X033598Y016933D01*
X033821Y016933D01*
X033876Y016989D01*
X033876Y017296D02*
X033821Y017296D01*
X033365Y017179D02*
X033365Y017068D01*
X033309Y017012D01*
X033086Y017012D01*
X033031Y017068D01*
X033031Y017179D01*
X033086Y017235D01*
X033086Y017374D02*
X033031Y017430D01*
X033031Y017541D01*
X033086Y017597D01*
X033142Y017597D01*
X033198Y017541D01*
X033253Y017597D01*
X033309Y017597D01*
X033365Y017541D01*
X033365Y017430D01*
X033309Y017374D01*
X033309Y017235D02*
X033365Y017179D01*
X033198Y017486D02*
X033198Y017541D01*
X032855Y017944D02*
X032744Y017944D01*
X032688Y017999D01*
X032548Y017999D02*
X032493Y017944D01*
X032381Y017944D01*
X032326Y017999D01*
X032326Y018222D01*
X032381Y018278D01*
X032493Y018278D01*
X032548Y018222D01*
X032688Y018222D02*
X032744Y018278D01*
X032855Y018278D01*
X032911Y018222D01*
X032911Y018166D01*
X032855Y018111D01*
X032911Y018055D01*
X032911Y017999D01*
X032855Y017944D01*
X032855Y018111D02*
X032800Y018111D01*
X032195Y018278D02*
X032084Y018278D01*
X032140Y018278D02*
X032140Y017944D01*
X032195Y017944D02*
X032084Y017944D01*
X031789Y018339D02*
X031677Y018339D01*
X031622Y018394D01*
X031622Y018506D02*
X031733Y018561D01*
X031789Y018561D01*
X031844Y018506D01*
X031844Y018394D01*
X031789Y018339D01*
X031622Y018506D02*
X031622Y018673D01*
X031844Y018673D01*
X031482Y018617D02*
X031426Y018673D01*
X031315Y018673D01*
X031259Y018617D01*
X031259Y018394D01*
X031315Y018339D01*
X031426Y018339D01*
X031482Y018394D01*
X031669Y016547D02*
X031614Y016491D01*
X031614Y016268D01*
X031669Y016213D01*
X031781Y016213D01*
X031836Y016268D01*
X031976Y016380D02*
X032199Y016380D01*
X032143Y016547D02*
X031976Y016380D01*
X031836Y016491D02*
X031781Y016547D01*
X031669Y016547D01*
X032143Y016547D02*
X032143Y016213D01*
X034212Y016127D02*
X034379Y016127D01*
X034435Y016183D01*
X034435Y016294D01*
X034379Y016350D01*
X034212Y016350D01*
X034212Y016016D01*
X034323Y016127D02*
X034435Y016016D01*
X032112Y021410D02*
X032001Y021410D01*
X031945Y021465D01*
X032168Y021688D01*
X032168Y021465D01*
X032112Y021410D01*
X031945Y021465D02*
X031945Y021688D01*
X032001Y021744D01*
X032112Y021744D01*
X032168Y021688D01*
X032322Y021820D02*
X032322Y022042D01*
X032378Y022098D01*
X032489Y022098D01*
X032545Y022042D01*
X032685Y022042D02*
X032685Y021987D01*
X032740Y021931D01*
X032907Y021931D01*
X032907Y021820D02*
X032907Y022042D01*
X032852Y022098D01*
X032740Y022098D01*
X032685Y022042D01*
X032685Y021820D02*
X032740Y021764D01*
X032852Y021764D01*
X032907Y021820D01*
X032545Y021820D02*
X032489Y021764D01*
X032378Y021764D01*
X032322Y021820D01*
X031694Y021744D02*
X031694Y021410D01*
X031805Y021410D02*
X031582Y021410D01*
X031443Y021410D02*
X031331Y021521D01*
X031387Y021521D02*
X031220Y021521D01*
X031220Y021410D02*
X031220Y021744D01*
X031387Y021744D01*
X031443Y021688D01*
X031443Y021577D01*
X031387Y021521D01*
X031582Y021632D02*
X031694Y021744D01*
X031749Y022276D02*
X031805Y022331D01*
X031805Y022554D01*
X031749Y022610D01*
X031638Y022610D01*
X031582Y022554D01*
X031582Y022498D01*
X031638Y022443D01*
X031805Y022443D01*
X031749Y022276D02*
X031638Y022276D01*
X031582Y022331D01*
X031443Y022276D02*
X031331Y022387D01*
X031387Y022387D02*
X031220Y022387D01*
X031220Y022276D02*
X031220Y022610D01*
X031387Y022610D01*
X031443Y022554D01*
X031443Y022443D01*
X031387Y022387D01*
X031443Y023260D02*
X031331Y023371D01*
X031387Y023371D02*
X031220Y023371D01*
X031220Y023260D02*
X031220Y023594D01*
X031387Y023594D01*
X031443Y023538D01*
X031443Y023427D01*
X031387Y023371D01*
X031582Y023371D02*
X031638Y023427D01*
X031749Y023427D01*
X031805Y023371D01*
X031805Y023316D01*
X031749Y023260D01*
X031638Y023260D01*
X031582Y023316D01*
X031582Y023371D01*
X031638Y023427D02*
X031582Y023483D01*
X031582Y023538D01*
X031638Y023594D01*
X031749Y023594D01*
X031805Y023538D01*
X031805Y023483D01*
X031749Y023427D01*
X031874Y024205D02*
X031819Y024260D01*
X031819Y024316D01*
X031874Y024372D01*
X031986Y024372D01*
X032041Y024316D01*
X032041Y024260D01*
X031986Y024205D01*
X031874Y024205D01*
X031874Y024372D02*
X031819Y024427D01*
X031819Y024483D01*
X031874Y024539D01*
X031986Y024539D01*
X032041Y024483D01*
X032041Y024427D01*
X031986Y024372D01*
X031679Y024483D02*
X031623Y024539D01*
X031512Y024539D01*
X031456Y024483D01*
X031456Y024260D01*
X031512Y024205D01*
X031623Y024205D01*
X031679Y024260D01*
X031582Y024717D02*
X031582Y024772D01*
X031805Y024995D01*
X031805Y025051D01*
X031582Y025051D01*
X031443Y024995D02*
X031443Y024884D01*
X031387Y024828D01*
X031220Y024828D01*
X031331Y024828D02*
X031443Y024717D01*
X031220Y024717D02*
X031220Y025051D01*
X031387Y025051D01*
X031443Y024995D01*
X031443Y025268D02*
X031331Y025379D01*
X031387Y025379D02*
X031220Y025379D01*
X031220Y025268D02*
X031220Y025602D01*
X031387Y025602D01*
X031443Y025546D01*
X031443Y025435D01*
X031387Y025379D01*
X031582Y025323D02*
X031638Y025268D01*
X031749Y025268D01*
X031805Y025323D01*
X031805Y025379D01*
X031749Y025435D01*
X031582Y025435D01*
X031582Y025323D01*
X031582Y025435D02*
X031694Y025546D01*
X031805Y025602D01*
X031749Y026213D02*
X031638Y026213D01*
X031582Y026268D01*
X031582Y026380D02*
X031694Y026435D01*
X031749Y026435D01*
X031805Y026380D01*
X031805Y026268D01*
X031749Y026213D01*
X031582Y026380D02*
X031582Y026547D01*
X031805Y026547D01*
X031740Y026646D02*
X031963Y026868D01*
X031963Y026924D01*
X031907Y026980D01*
X031796Y026980D01*
X031740Y026924D01*
X031600Y026924D02*
X031600Y026813D01*
X031544Y026757D01*
X031377Y026757D01*
X031377Y026646D02*
X031377Y026980D01*
X031544Y026980D01*
X031600Y026924D01*
X031600Y027079D02*
X031489Y027190D01*
X031544Y027190D02*
X031377Y027190D01*
X031377Y027079D02*
X031377Y027413D01*
X031544Y027413D01*
X031600Y027357D01*
X031600Y027246D01*
X031544Y027190D01*
X031740Y027079D02*
X031963Y027079D01*
X031851Y027079D02*
X031851Y027413D01*
X031740Y027301D01*
X031489Y026757D02*
X031600Y026646D01*
X031740Y026646D02*
X031963Y026646D01*
X031443Y026491D02*
X031443Y026380D01*
X031387Y026324D01*
X031220Y026324D01*
X031331Y026324D02*
X031443Y026213D01*
X031220Y026213D02*
X031220Y026547D01*
X031387Y026547D01*
X031443Y026491D01*
X031669Y028496D02*
X031781Y028496D01*
X031836Y028552D01*
X031669Y028496D02*
X031614Y028552D01*
X031614Y028774D01*
X031669Y028830D01*
X031781Y028830D01*
X031836Y028774D01*
X031976Y028663D02*
X032143Y028830D01*
X032143Y028496D01*
X032199Y028663D02*
X031976Y028663D01*
X033031Y029351D02*
X033086Y029295D01*
X033309Y029295D01*
X033365Y029351D01*
X033365Y029462D01*
X033309Y029518D01*
X033309Y029658D02*
X033365Y029714D01*
X033365Y029825D01*
X033309Y029881D01*
X033253Y029881D01*
X033198Y029825D01*
X033198Y029769D01*
X033198Y029825D02*
X033142Y029881D01*
X033086Y029881D01*
X033031Y029825D01*
X033031Y029714D01*
X033086Y029658D01*
X033086Y029518D02*
X033031Y029462D01*
X033031Y029351D01*
X033542Y029384D02*
X033542Y029272D01*
X033598Y029217D01*
X033821Y029217D01*
X033876Y029272D01*
X033876Y029384D01*
X033821Y029439D01*
X033821Y029579D02*
X033598Y029802D01*
X033542Y029802D01*
X033542Y029579D01*
X033598Y029439D02*
X033542Y029384D01*
X033821Y029579D02*
X033876Y029579D01*
X034159Y029694D02*
X034493Y029694D01*
X034493Y029583D02*
X034493Y029805D01*
X034270Y029583D02*
X034159Y029694D01*
X034214Y029443D02*
X034159Y029387D01*
X034159Y029276D01*
X034214Y029220D01*
X034437Y029220D01*
X034493Y029276D01*
X034493Y029387D01*
X034437Y029443D01*
X034493Y029090D02*
X034493Y028978D01*
X034493Y029034D02*
X034159Y029034D01*
X034159Y028978D02*
X034159Y029090D01*
X034606Y029050D02*
X034606Y028827D01*
X034661Y028772D01*
X034773Y028772D01*
X034828Y028827D01*
X034968Y028772D02*
X035191Y028772D01*
X035080Y028772D02*
X035080Y029106D01*
X034968Y028994D01*
X034828Y029050D02*
X034773Y029106D01*
X034661Y029106D01*
X034606Y029050D01*
X034742Y028633D02*
X034575Y028466D01*
X034797Y028466D01*
X034742Y028299D02*
X034742Y028633D01*
X034435Y028578D02*
X034435Y028466D01*
X034379Y028411D01*
X034212Y028411D01*
X034323Y028411D02*
X034435Y028299D01*
X034212Y028299D02*
X034212Y028633D01*
X034379Y028633D01*
X034435Y028578D01*
X035118Y027419D02*
X035288Y027419D01*
X035344Y027362D01*
X035344Y027249D01*
X035288Y027192D01*
X035118Y027192D01*
X035231Y027192D02*
X035344Y027079D01*
X035486Y027136D02*
X035543Y027079D01*
X035656Y027079D01*
X035713Y027136D01*
X035713Y027192D01*
X035656Y027249D01*
X035599Y027249D01*
X035656Y027249D02*
X035713Y027306D01*
X035713Y027362D01*
X035656Y027419D01*
X035543Y027419D01*
X035486Y027362D01*
X035118Y027419D02*
X035118Y027079D01*
X032855Y030227D02*
X032744Y030227D01*
X032688Y030283D01*
X032548Y030283D02*
X032493Y030227D01*
X032381Y030227D01*
X032326Y030283D01*
X032326Y030506D01*
X032381Y030561D01*
X032493Y030561D01*
X032548Y030506D01*
X032688Y030506D02*
X032744Y030561D01*
X032855Y030561D01*
X032911Y030506D01*
X032911Y030450D01*
X032855Y030394D01*
X032911Y030339D01*
X032911Y030283D01*
X032855Y030227D01*
X032855Y030394D02*
X032800Y030394D01*
X032195Y030227D02*
X032084Y030227D01*
X032140Y030227D02*
X032140Y030561D01*
X032195Y030561D02*
X032084Y030561D01*
X031844Y030678D02*
X031789Y030622D01*
X031677Y030622D01*
X031622Y030678D01*
X031622Y030789D02*
X031733Y030845D01*
X031789Y030845D01*
X031844Y030789D01*
X031844Y030678D01*
X031622Y030789D02*
X031622Y030956D01*
X031844Y030956D01*
X031482Y030900D02*
X031426Y030956D01*
X031315Y030956D01*
X031259Y030900D01*
X031259Y030678D01*
X031315Y030622D01*
X031426Y030622D01*
X031482Y030678D01*
X027445Y027362D02*
X027445Y027306D01*
X027388Y027249D01*
X027445Y027192D01*
X027445Y027136D01*
X027388Y027079D01*
X027275Y027079D01*
X027218Y027136D01*
X027077Y027079D02*
X026963Y027192D01*
X027020Y027192D02*
X026850Y027192D01*
X026850Y027079D02*
X026850Y027419D01*
X027020Y027419D01*
X027077Y027362D01*
X027077Y027249D01*
X027020Y027192D01*
X027218Y027362D02*
X027275Y027419D01*
X027388Y027419D01*
X027445Y027362D01*
X027388Y027249D02*
X027332Y027249D01*
X026474Y028299D02*
X026474Y028633D01*
X026307Y028466D01*
X026529Y028466D01*
X026505Y028772D02*
X026561Y028827D01*
X026505Y028772D02*
X026394Y028772D01*
X026338Y028827D01*
X026338Y029050D01*
X026394Y029106D01*
X026505Y029106D01*
X026561Y029050D01*
X026701Y028994D02*
X026812Y029106D01*
X026812Y028772D01*
X026701Y028772D02*
X026923Y028772D01*
X026225Y028978D02*
X026225Y029090D01*
X026225Y029034D02*
X025891Y029034D01*
X025891Y028978D02*
X025891Y029090D01*
X025947Y029220D02*
X026169Y029220D01*
X026225Y029276D01*
X026225Y029387D01*
X026169Y029443D01*
X026225Y029583D02*
X026225Y029805D01*
X026225Y029694D02*
X025891Y029694D01*
X026002Y029583D01*
X025947Y029443D02*
X025891Y029387D01*
X025891Y029276D01*
X025947Y029220D01*
X025609Y029272D02*
X025609Y029384D01*
X025553Y029439D01*
X025553Y029579D02*
X025330Y029802D01*
X025275Y029802D01*
X025275Y029579D01*
X025330Y029439D02*
X025275Y029384D01*
X025275Y029272D01*
X025330Y029217D01*
X025553Y029217D01*
X025609Y029272D01*
X025609Y029579D02*
X025553Y029579D01*
X025097Y029462D02*
X025041Y029518D01*
X025097Y029462D02*
X025097Y029351D01*
X025041Y029295D01*
X024819Y029295D01*
X024763Y029351D01*
X024763Y029462D01*
X024819Y029518D01*
X024819Y029658D02*
X024763Y029714D01*
X024763Y029825D01*
X024819Y029881D01*
X024874Y029881D01*
X024930Y029825D01*
X024986Y029881D01*
X025041Y029881D01*
X025097Y029825D01*
X025097Y029714D01*
X025041Y029658D01*
X024930Y029769D02*
X024930Y029825D01*
X024588Y030227D02*
X024476Y030227D01*
X024421Y030283D01*
X024281Y030283D02*
X024225Y030227D01*
X024114Y030227D01*
X024058Y030283D01*
X024058Y030506D01*
X024114Y030561D01*
X024225Y030561D01*
X024281Y030506D01*
X024421Y030506D02*
X024476Y030561D01*
X024588Y030561D01*
X024643Y030506D01*
X024643Y030450D01*
X024588Y030394D01*
X024643Y030339D01*
X024643Y030283D01*
X024588Y030227D01*
X024588Y030394D02*
X024532Y030394D01*
X023928Y030227D02*
X023816Y030227D01*
X023872Y030227D02*
X023872Y030561D01*
X023816Y030561D02*
X023928Y030561D01*
X023577Y030678D02*
X023521Y030622D01*
X023410Y030622D01*
X023354Y030678D01*
X023354Y030789D02*
X023465Y030845D01*
X023521Y030845D01*
X023577Y030789D01*
X023577Y030678D01*
X023354Y030789D02*
X023354Y030956D01*
X023577Y030956D01*
X023214Y030900D02*
X023159Y030956D01*
X023047Y030956D01*
X022992Y030900D01*
X022992Y030678D01*
X023047Y030622D01*
X023159Y030622D01*
X023214Y030678D01*
X023402Y028830D02*
X023346Y028774D01*
X023346Y028552D01*
X023402Y028496D01*
X023513Y028496D01*
X023569Y028552D01*
X023708Y028663D02*
X023931Y028663D01*
X023875Y028496D02*
X023875Y028830D01*
X023708Y028663D01*
X023569Y028774D02*
X023513Y028830D01*
X023402Y028830D01*
X023277Y027413D02*
X023332Y027357D01*
X023332Y027246D01*
X023277Y027190D01*
X023110Y027190D01*
X023221Y027190D02*
X023332Y027079D01*
X023277Y026980D02*
X023332Y026924D01*
X023332Y026813D01*
X023277Y026757D01*
X023110Y026757D01*
X023221Y026757D02*
X023332Y026646D01*
X023315Y026547D02*
X023315Y026380D01*
X023426Y026435D01*
X023482Y026435D01*
X023537Y026380D01*
X023537Y026268D01*
X023482Y026213D01*
X023370Y026213D01*
X023315Y026268D01*
X023175Y026213D02*
X023064Y026324D01*
X023119Y026324D02*
X022952Y026324D01*
X022952Y026213D02*
X022952Y026547D01*
X023119Y026547D01*
X023175Y026491D01*
X023175Y026380D01*
X023119Y026324D01*
X023315Y026547D02*
X023537Y026547D01*
X023472Y026646D02*
X023695Y026868D01*
X023695Y026924D01*
X023639Y026980D01*
X023528Y026980D01*
X023472Y026924D01*
X023472Y027079D02*
X023695Y027079D01*
X023584Y027079D02*
X023584Y027413D01*
X023472Y027301D01*
X023277Y027413D02*
X023110Y027413D01*
X023110Y027079D01*
X023110Y026980D02*
X023277Y026980D01*
X023110Y026980D02*
X023110Y026646D01*
X023472Y026646D02*
X023695Y026646D01*
X023537Y025602D02*
X023426Y025546D01*
X023315Y025435D01*
X023482Y025435D01*
X023537Y025379D01*
X023537Y025323D01*
X023482Y025268D01*
X023370Y025268D01*
X023315Y025323D01*
X023315Y025435D01*
X023175Y025435D02*
X023119Y025379D01*
X022952Y025379D01*
X022952Y025268D02*
X022952Y025602D01*
X023119Y025602D01*
X023175Y025546D01*
X023175Y025435D01*
X023064Y025379D02*
X023175Y025268D01*
X023119Y025051D02*
X023175Y024995D01*
X023175Y024884D01*
X023119Y024828D01*
X022952Y024828D01*
X022952Y024717D02*
X022952Y025051D01*
X023119Y025051D01*
X023315Y025051D02*
X023537Y025051D01*
X023537Y024995D01*
X023315Y024772D01*
X023315Y024717D01*
X023175Y024717D02*
X023064Y024828D01*
X023244Y024539D02*
X023188Y024483D01*
X023188Y024260D01*
X023244Y024205D01*
X023355Y024205D01*
X023411Y024260D01*
X023551Y024260D02*
X023607Y024205D01*
X023718Y024205D01*
X023774Y024260D01*
X023774Y024316D01*
X023718Y024372D01*
X023607Y024372D01*
X023551Y024427D01*
X023551Y024483D01*
X023607Y024539D01*
X023718Y024539D01*
X023774Y024483D01*
X023774Y024427D01*
X023718Y024372D01*
X023607Y024372D02*
X023551Y024316D01*
X023551Y024260D01*
X023411Y024483D02*
X023355Y024539D01*
X023244Y024539D01*
X023119Y023594D02*
X022952Y023594D01*
X022952Y023260D01*
X022952Y023371D02*
X023119Y023371D01*
X023175Y023427D01*
X023175Y023538D01*
X023119Y023594D01*
X023315Y023538D02*
X023315Y023483D01*
X023370Y023427D01*
X023482Y023427D01*
X023537Y023371D01*
X023537Y023316D01*
X023482Y023260D01*
X023370Y023260D01*
X023315Y023316D01*
X023315Y023371D01*
X023370Y023427D01*
X023482Y023427D02*
X023537Y023483D01*
X023537Y023538D01*
X023482Y023594D01*
X023370Y023594D01*
X023315Y023538D01*
X023064Y023371D02*
X023175Y023260D01*
X023119Y022610D02*
X022952Y022610D01*
X022952Y022276D01*
X022952Y022387D02*
X023119Y022387D01*
X023175Y022443D01*
X023175Y022554D01*
X023119Y022610D01*
X023315Y022554D02*
X023315Y022498D01*
X023370Y022443D01*
X023537Y022443D01*
X023537Y022554D02*
X023482Y022610D01*
X023370Y022610D01*
X023315Y022554D01*
X023537Y022554D02*
X023537Y022331D01*
X023482Y022276D01*
X023370Y022276D01*
X023315Y022331D01*
X023175Y022276D02*
X023064Y022387D01*
X023119Y021744D02*
X022952Y021744D01*
X022952Y021410D01*
X022952Y021521D02*
X023119Y021521D01*
X023175Y021577D01*
X023175Y021688D01*
X023119Y021744D01*
X023315Y021632D02*
X023426Y021744D01*
X023426Y021410D01*
X023315Y021410D02*
X023537Y021410D01*
X023677Y021465D02*
X023900Y021688D01*
X023900Y021465D01*
X023844Y021410D01*
X023733Y021410D01*
X023677Y021465D01*
X023677Y021688D01*
X023733Y021744D01*
X023844Y021744D01*
X023900Y021688D01*
X024055Y021820D02*
X024110Y021764D01*
X024222Y021764D01*
X024277Y021820D01*
X024417Y021820D02*
X024473Y021764D01*
X024584Y021764D01*
X024640Y021820D01*
X024640Y022042D01*
X024584Y022098D01*
X024473Y022098D01*
X024417Y022042D01*
X024417Y021987D01*
X024473Y021931D01*
X024640Y021931D01*
X024277Y022042D02*
X024222Y022098D01*
X024110Y022098D01*
X024055Y022042D01*
X024055Y021820D01*
X023175Y021410D02*
X023064Y021521D01*
X025393Y022461D02*
X025449Y022406D01*
X025671Y022406D01*
X025727Y022461D01*
X025727Y022573D01*
X025671Y022628D01*
X025727Y022768D02*
X025504Y022991D01*
X025449Y022991D01*
X025393Y022935D01*
X025393Y022824D01*
X025449Y022768D01*
X025449Y022628D02*
X025393Y022573D01*
X025393Y022461D01*
X025826Y022461D02*
X025882Y022406D01*
X026104Y022406D01*
X026160Y022461D01*
X026160Y022573D01*
X026104Y022628D01*
X026104Y022768D02*
X026160Y022824D01*
X026160Y022935D01*
X026104Y022991D01*
X026049Y022991D01*
X025993Y022935D01*
X025993Y022768D01*
X026104Y022768D01*
X025993Y022768D02*
X025882Y022879D01*
X025826Y022991D01*
X025727Y022991D02*
X025727Y022768D01*
X025882Y022628D02*
X025826Y022573D01*
X025826Y022461D01*
X025944Y028299D02*
X025944Y028633D01*
X026111Y028633D01*
X026167Y028578D01*
X026167Y028466D01*
X026111Y028411D01*
X025944Y028411D01*
X026056Y028411D02*
X026167Y028299D01*
X019177Y027362D02*
X019177Y027306D01*
X019121Y027249D01*
X019177Y027192D01*
X019177Y027136D01*
X019121Y027079D01*
X019007Y027079D01*
X018950Y027136D01*
X018809Y027079D02*
X018696Y027192D01*
X018752Y027192D02*
X018582Y027192D01*
X018582Y027079D02*
X018582Y027419D01*
X018752Y027419D01*
X018809Y027362D01*
X018809Y027249D01*
X018752Y027192D01*
X018950Y027362D02*
X019007Y027419D01*
X019121Y027419D01*
X019177Y027362D01*
X019121Y027249D02*
X019064Y027249D01*
X018206Y028299D02*
X018206Y028633D01*
X018039Y028466D01*
X018262Y028466D01*
X018237Y028772D02*
X018126Y028772D01*
X018070Y028827D01*
X018070Y029050D01*
X018126Y029106D01*
X018237Y029106D01*
X018293Y029050D01*
X018433Y028994D02*
X018544Y029106D01*
X018544Y028772D01*
X018433Y028772D02*
X018655Y028772D01*
X018293Y028827D02*
X018237Y028772D01*
X017957Y028978D02*
X017957Y029090D01*
X017957Y029034D02*
X017623Y029034D01*
X017623Y028978D02*
X017623Y029090D01*
X017679Y029220D02*
X017901Y029220D01*
X017957Y029276D01*
X017957Y029387D01*
X017901Y029443D01*
X017957Y029583D02*
X017957Y029805D01*
X017957Y029694D02*
X017623Y029694D01*
X017735Y029583D01*
X017679Y029443D02*
X017623Y029387D01*
X017623Y029276D01*
X017679Y029220D01*
X017341Y029272D02*
X017341Y029384D01*
X017285Y029439D01*
X017285Y029579D02*
X017341Y029579D01*
X017285Y029579D02*
X017063Y029802D01*
X017007Y029802D01*
X017007Y029579D01*
X017063Y029439D02*
X017007Y029384D01*
X017007Y029272D01*
X017063Y029217D01*
X017285Y029217D01*
X017341Y029272D01*
X016829Y029351D02*
X016829Y029462D01*
X016774Y029518D01*
X016774Y029658D02*
X016829Y029714D01*
X016829Y029825D01*
X016774Y029881D01*
X016718Y029881D01*
X016662Y029825D01*
X016662Y029769D01*
X016662Y029825D02*
X016607Y029881D01*
X016551Y029881D01*
X016495Y029825D01*
X016495Y029714D01*
X016551Y029658D01*
X016551Y029518D02*
X016495Y029462D01*
X016495Y029351D01*
X016551Y029295D01*
X016774Y029295D01*
X016829Y029351D01*
X016320Y030227D02*
X016209Y030227D01*
X016153Y030283D01*
X016013Y030283D02*
X015957Y030227D01*
X015846Y030227D01*
X015790Y030283D01*
X015790Y030506D01*
X015846Y030561D01*
X015957Y030561D01*
X016013Y030506D01*
X016153Y030506D02*
X016209Y030561D01*
X016320Y030561D01*
X016376Y030506D01*
X016376Y030450D01*
X016320Y030394D01*
X016376Y030339D01*
X016376Y030283D01*
X016320Y030227D01*
X016320Y030394D02*
X016264Y030394D01*
X015660Y030227D02*
X015549Y030227D01*
X015604Y030227D02*
X015604Y030561D01*
X015549Y030561D02*
X015660Y030561D01*
X015309Y030678D02*
X015253Y030622D01*
X015142Y030622D01*
X015086Y030678D01*
X015086Y030789D02*
X015198Y030845D01*
X015253Y030845D01*
X015309Y030789D01*
X015309Y030678D01*
X015086Y030789D02*
X015086Y030956D01*
X015309Y030956D01*
X014947Y030900D02*
X014891Y030956D01*
X014780Y030956D01*
X014724Y030900D01*
X014724Y030678D01*
X014780Y030622D01*
X014891Y030622D01*
X014947Y030678D01*
X015134Y028830D02*
X015078Y028774D01*
X015078Y028552D01*
X015134Y028496D01*
X015245Y028496D01*
X015301Y028552D01*
X015441Y028663D02*
X015663Y028663D01*
X015608Y028496D02*
X015608Y028830D01*
X015441Y028663D01*
X015301Y028774D02*
X015245Y028830D01*
X015134Y028830D01*
X015009Y027413D02*
X015065Y027357D01*
X015065Y027246D01*
X015009Y027190D01*
X014842Y027190D01*
X014842Y027079D02*
X014842Y027413D01*
X015009Y027413D01*
X015204Y027301D02*
X015316Y027413D01*
X015316Y027079D01*
X015427Y027079D02*
X015204Y027079D01*
X015260Y026980D02*
X015204Y026924D01*
X015260Y026980D02*
X015371Y026980D01*
X015427Y026924D01*
X015427Y026868D01*
X015204Y026646D01*
X015427Y026646D01*
X015270Y026547D02*
X015047Y026547D01*
X015047Y026380D01*
X015158Y026435D01*
X015214Y026435D01*
X015270Y026380D01*
X015270Y026268D01*
X015214Y026213D01*
X015103Y026213D01*
X015047Y026268D01*
X014907Y026213D02*
X014796Y026324D01*
X014851Y026324D02*
X014684Y026324D01*
X014684Y026213D02*
X014684Y026547D01*
X014851Y026547D01*
X014907Y026491D01*
X014907Y026380D01*
X014851Y026324D01*
X014842Y026646D02*
X014842Y026980D01*
X015009Y026980D01*
X015065Y026924D01*
X015065Y026813D01*
X015009Y026757D01*
X014842Y026757D01*
X014953Y026757D02*
X015065Y026646D01*
X015065Y027079D02*
X014953Y027190D01*
X014851Y025602D02*
X014684Y025602D01*
X014684Y025268D01*
X014684Y025379D02*
X014851Y025379D01*
X014907Y025435D01*
X014907Y025546D01*
X014851Y025602D01*
X014796Y025379D02*
X014907Y025268D01*
X015047Y025323D02*
X015103Y025268D01*
X015214Y025268D01*
X015270Y025323D01*
X015270Y025379D01*
X015214Y025435D01*
X015047Y025435D01*
X015047Y025323D01*
X015047Y025435D02*
X015158Y025546D01*
X015270Y025602D01*
X015270Y025051D02*
X015047Y025051D01*
X014907Y024995D02*
X014851Y025051D01*
X014684Y025051D01*
X014684Y024717D01*
X014684Y024828D02*
X014851Y024828D01*
X014907Y024884D01*
X014907Y024995D01*
X014796Y024828D02*
X014907Y024717D01*
X015047Y024717D02*
X015047Y024772D01*
X015270Y024995D01*
X015270Y025051D01*
X015339Y024539D02*
X015450Y024539D01*
X015506Y024483D01*
X015506Y024427D01*
X015450Y024372D01*
X015339Y024372D01*
X015283Y024427D01*
X015283Y024483D01*
X015339Y024539D01*
X015339Y024372D02*
X015283Y024316D01*
X015283Y024260D01*
X015339Y024205D01*
X015450Y024205D01*
X015506Y024260D01*
X015506Y024316D01*
X015450Y024372D01*
X015143Y024483D02*
X015088Y024539D01*
X014976Y024539D01*
X014921Y024483D01*
X014921Y024260D01*
X014976Y024205D01*
X015088Y024205D01*
X015143Y024260D01*
X015103Y023594D02*
X015214Y023594D01*
X015270Y023538D01*
X015270Y023483D01*
X015214Y023427D01*
X015103Y023427D01*
X015047Y023483D01*
X015047Y023538D01*
X015103Y023594D01*
X015103Y023427D02*
X015047Y023371D01*
X015047Y023316D01*
X015103Y023260D01*
X015214Y023260D01*
X015270Y023316D01*
X015270Y023371D01*
X015214Y023427D01*
X014907Y023427D02*
X014907Y023538D01*
X014851Y023594D01*
X014684Y023594D01*
X014684Y023260D01*
X014684Y023371D02*
X014851Y023371D01*
X014907Y023427D01*
X014796Y023371D02*
X014907Y023260D01*
X014851Y022610D02*
X014684Y022610D01*
X014684Y022276D01*
X014684Y022387D02*
X014851Y022387D01*
X014907Y022443D01*
X014907Y022554D01*
X014851Y022610D01*
X015047Y022554D02*
X015047Y022498D01*
X015103Y022443D01*
X015270Y022443D01*
X015270Y022554D02*
X015214Y022610D01*
X015103Y022610D01*
X015047Y022554D01*
X015270Y022554D02*
X015270Y022331D01*
X015214Y022276D01*
X015103Y022276D01*
X015047Y022331D01*
X014907Y022276D02*
X014796Y022387D01*
X014851Y021744D02*
X014684Y021744D01*
X014684Y021410D01*
X014684Y021521D02*
X014851Y021521D01*
X014907Y021577D01*
X014907Y021688D01*
X014851Y021744D01*
X015047Y021632D02*
X015158Y021744D01*
X015158Y021410D01*
X015047Y021410D02*
X015270Y021410D01*
X015410Y021465D02*
X015632Y021688D01*
X015632Y021465D01*
X015576Y021410D01*
X015465Y021410D01*
X015410Y021465D01*
X015410Y021688D01*
X015465Y021744D01*
X015576Y021744D01*
X015632Y021688D01*
X015787Y021820D02*
X015843Y021764D01*
X015954Y021764D01*
X016010Y021820D01*
X016149Y021820D02*
X016205Y021764D01*
X016316Y021764D01*
X016372Y021820D01*
X016372Y022042D01*
X016316Y022098D01*
X016205Y022098D01*
X016149Y022042D01*
X016149Y021987D01*
X016205Y021931D01*
X016372Y021931D01*
X016010Y022042D02*
X015954Y022098D01*
X015843Y022098D01*
X015787Y022042D01*
X015787Y021820D01*
X014907Y021410D02*
X014796Y021521D01*
X017125Y022461D02*
X017181Y022406D01*
X017403Y022406D01*
X017459Y022461D01*
X017459Y022573D01*
X017403Y022628D01*
X017459Y022768D02*
X017236Y022991D01*
X017181Y022991D01*
X017125Y022935D01*
X017125Y022824D01*
X017181Y022768D01*
X017181Y022628D02*
X017125Y022573D01*
X017125Y022461D01*
X017558Y022461D02*
X017614Y022406D01*
X017837Y022406D01*
X017892Y022461D01*
X017892Y022573D01*
X017837Y022628D01*
X017837Y022768D02*
X017725Y022768D01*
X017725Y022935D01*
X017781Y022991D01*
X017837Y022991D01*
X017892Y022935D01*
X017892Y022824D01*
X017837Y022768D01*
X017725Y022768D02*
X017614Y022879D01*
X017558Y022991D01*
X017459Y022991D02*
X017459Y022768D01*
X017614Y022628D02*
X017558Y022573D01*
X017558Y022461D01*
X015309Y018673D02*
X015086Y018673D01*
X015086Y018506D01*
X015198Y018561D01*
X015253Y018561D01*
X015309Y018506D01*
X015309Y018394D01*
X015253Y018339D01*
X015142Y018339D01*
X015086Y018394D01*
X014947Y018394D02*
X014891Y018339D01*
X014780Y018339D01*
X014724Y018394D01*
X014724Y018617D01*
X014780Y018673D01*
X014891Y018673D01*
X014947Y018617D01*
X015549Y018278D02*
X015660Y018278D01*
X015604Y018278D02*
X015604Y017944D01*
X015549Y017944D02*
X015660Y017944D01*
X015790Y017999D02*
X015846Y017944D01*
X015957Y017944D01*
X016013Y017999D01*
X016153Y017999D02*
X016209Y017944D01*
X016320Y017944D01*
X016376Y017999D01*
X016376Y018055D01*
X016320Y018111D01*
X016264Y018111D01*
X016320Y018111D02*
X016376Y018166D01*
X016376Y018222D01*
X016320Y018278D01*
X016209Y018278D01*
X016153Y018222D01*
X016013Y018222D02*
X015957Y018278D01*
X015846Y018278D01*
X015790Y018222D01*
X015790Y017999D01*
X016495Y017541D02*
X016495Y017430D01*
X016551Y017374D01*
X016551Y017235D02*
X016495Y017179D01*
X016495Y017068D01*
X016551Y017012D01*
X016774Y017012D01*
X016829Y017068D01*
X016829Y017179D01*
X016774Y017235D01*
X016774Y017374D02*
X016829Y017430D01*
X016829Y017541D01*
X016774Y017597D01*
X016718Y017597D01*
X016662Y017541D01*
X016662Y017486D01*
X016662Y017541D02*
X016607Y017597D01*
X016551Y017597D01*
X016495Y017541D01*
X017007Y017518D02*
X017063Y017518D01*
X017285Y017296D01*
X017341Y017296D01*
X017285Y017156D02*
X017341Y017100D01*
X017341Y016989D01*
X017285Y016933D01*
X017063Y016933D01*
X017007Y016989D01*
X017007Y017100D01*
X017063Y017156D01*
X017007Y017296D02*
X017007Y017518D01*
X017623Y017410D02*
X017957Y017410D01*
X017957Y017299D02*
X017957Y017522D01*
X017735Y017299D02*
X017623Y017410D01*
X017679Y017159D02*
X017623Y017104D01*
X017623Y016992D01*
X017679Y016937D01*
X017901Y016937D01*
X017957Y016992D01*
X017957Y017104D01*
X017901Y017159D01*
X017957Y016806D02*
X017957Y016695D01*
X017957Y016751D02*
X017623Y016751D01*
X017623Y016806D02*
X017623Y016695D01*
X017677Y016350D02*
X017844Y016350D01*
X017899Y016294D01*
X017899Y016183D01*
X017844Y016127D01*
X017677Y016127D01*
X017788Y016127D02*
X017899Y016016D01*
X018039Y016183D02*
X018262Y016183D01*
X018206Y016350D02*
X018039Y016183D01*
X018206Y016016D02*
X018206Y016350D01*
X018237Y016488D02*
X018126Y016488D01*
X018070Y016544D01*
X018070Y016767D01*
X018126Y016822D01*
X018237Y016822D01*
X018293Y016767D01*
X018433Y016711D02*
X018544Y016822D01*
X018544Y016488D01*
X018433Y016488D02*
X018655Y016488D01*
X018293Y016544D02*
X018237Y016488D01*
X017677Y016350D02*
X017677Y016016D01*
X018582Y015136D02*
X018582Y014795D01*
X018582Y014909D02*
X018752Y014909D01*
X018809Y014965D01*
X018809Y015079D01*
X018752Y015136D01*
X018582Y015136D01*
X018696Y014909D02*
X018809Y014795D01*
X018950Y014852D02*
X019007Y014795D01*
X019121Y014795D01*
X019177Y014852D01*
X019177Y014909D01*
X019121Y014965D01*
X019064Y014965D01*
X019121Y014965D02*
X019177Y015022D01*
X019177Y015079D01*
X019121Y015136D01*
X019007Y015136D01*
X018950Y015079D01*
X015608Y016213D02*
X015608Y016547D01*
X015441Y016380D01*
X015663Y016380D01*
X015301Y016491D02*
X015245Y016547D01*
X015134Y016547D01*
X015078Y016491D01*
X015078Y016268D01*
X015134Y016213D01*
X015245Y016213D01*
X015301Y016268D01*
X015316Y015129D02*
X015316Y014795D01*
X015427Y014795D02*
X015204Y014795D01*
X015260Y014696D02*
X015204Y014641D01*
X015260Y014696D02*
X015371Y014696D01*
X015427Y014641D01*
X015427Y014585D01*
X015204Y014362D01*
X015427Y014362D01*
X015270Y014263D02*
X015047Y014263D01*
X015047Y014096D01*
X015158Y014152D01*
X015214Y014152D01*
X015270Y014096D01*
X015270Y013985D01*
X015214Y013929D01*
X015103Y013929D01*
X015047Y013985D01*
X014907Y013929D02*
X014796Y014041D01*
X014851Y014041D02*
X014684Y014041D01*
X014684Y013929D02*
X014684Y014263D01*
X014851Y014263D01*
X014907Y014208D01*
X014907Y014096D01*
X014851Y014041D01*
X014842Y014362D02*
X014842Y014696D01*
X015009Y014696D01*
X015065Y014641D01*
X015065Y014529D01*
X015009Y014474D01*
X014842Y014474D01*
X014953Y014474D02*
X015065Y014362D01*
X015065Y014795D02*
X014953Y014907D01*
X015009Y014907D02*
X014842Y014907D01*
X014842Y014795D02*
X014842Y015129D01*
X015009Y015129D01*
X015065Y015074D01*
X015065Y014962D01*
X015009Y014907D01*
X015204Y015018D02*
X015316Y015129D01*
X015270Y013318D02*
X015158Y013263D01*
X015047Y013151D01*
X015214Y013151D01*
X015270Y013096D01*
X015270Y013040D01*
X015214Y012984D01*
X015103Y012984D01*
X015047Y013040D01*
X015047Y013151D01*
X014907Y013151D02*
X014851Y013096D01*
X014684Y013096D01*
X014684Y012984D02*
X014684Y013318D01*
X014851Y013318D01*
X014907Y013263D01*
X014907Y013151D01*
X014796Y013096D02*
X014907Y012984D01*
X014851Y012767D02*
X014907Y012711D01*
X014907Y012600D01*
X014851Y012544D01*
X014684Y012544D01*
X014684Y012433D02*
X014684Y012767D01*
X014851Y012767D01*
X015047Y012767D02*
X015270Y012767D01*
X015270Y012711D01*
X015047Y012489D01*
X015047Y012433D01*
X014907Y012433D02*
X014796Y012544D01*
X014976Y012255D02*
X014921Y012200D01*
X014921Y011977D01*
X014976Y011921D01*
X015088Y011921D01*
X015143Y011977D01*
X015283Y011977D02*
X015339Y011921D01*
X015450Y011921D01*
X015506Y011977D01*
X015506Y012033D01*
X015450Y012088D01*
X015339Y012088D01*
X015283Y012144D01*
X015283Y012200D01*
X015339Y012255D01*
X015450Y012255D01*
X015506Y012200D01*
X015506Y012144D01*
X015450Y012088D01*
X015339Y012088D02*
X015283Y012033D01*
X015283Y011977D01*
X015143Y012200D02*
X015088Y012255D01*
X014976Y012255D01*
X014851Y011310D02*
X014684Y011310D01*
X014684Y010976D01*
X014684Y011088D02*
X014851Y011088D01*
X014907Y011143D01*
X014907Y011255D01*
X014851Y011310D01*
X015047Y011255D02*
X015047Y011199D01*
X015103Y011143D01*
X015214Y011143D01*
X015270Y011088D01*
X015270Y011032D01*
X015214Y010976D01*
X015103Y010976D01*
X015047Y011032D01*
X015047Y011088D01*
X015103Y011143D01*
X015214Y011143D02*
X015270Y011199D01*
X015270Y011255D01*
X015214Y011310D01*
X015103Y011310D01*
X015047Y011255D01*
X014796Y011088D02*
X014907Y010976D01*
X014851Y010326D02*
X014684Y010326D01*
X014684Y009992D01*
X014684Y010104D02*
X014851Y010104D01*
X014907Y010159D01*
X014907Y010271D01*
X014851Y010326D01*
X015047Y010271D02*
X015047Y010215D01*
X015103Y010159D01*
X015270Y010159D01*
X015270Y010048D02*
X015270Y010271D01*
X015214Y010326D01*
X015103Y010326D01*
X015047Y010271D01*
X015047Y010048D02*
X015103Y009992D01*
X015214Y009992D01*
X015270Y010048D01*
X014907Y009992D02*
X014796Y010104D01*
X014851Y009460D02*
X014684Y009460D01*
X014684Y009126D01*
X014684Y009237D02*
X014851Y009237D01*
X014907Y009293D01*
X014907Y009404D01*
X014851Y009460D01*
X015047Y009349D02*
X015158Y009460D01*
X015158Y009126D01*
X015047Y009126D02*
X015270Y009126D01*
X015410Y009182D02*
X015632Y009404D01*
X015632Y009182D01*
X015576Y009126D01*
X015465Y009126D01*
X015410Y009182D01*
X015410Y009404D01*
X015465Y009460D01*
X015576Y009460D01*
X015632Y009404D01*
X015787Y009536D02*
X015843Y009480D01*
X015954Y009480D01*
X016010Y009536D01*
X016149Y009536D02*
X016205Y009480D01*
X016316Y009480D01*
X016372Y009536D01*
X016372Y009759D01*
X016316Y009814D01*
X016205Y009814D01*
X016149Y009759D01*
X016149Y009703D01*
X016205Y009647D01*
X016372Y009647D01*
X016010Y009759D02*
X015954Y009814D01*
X015843Y009814D01*
X015787Y009759D01*
X015787Y009536D01*
X014907Y009126D02*
X014796Y009237D01*
X017125Y010178D02*
X017181Y010122D01*
X017403Y010122D01*
X017459Y010178D01*
X017459Y010289D01*
X017403Y010345D01*
X017459Y010485D02*
X017236Y010707D01*
X017181Y010707D01*
X017125Y010652D01*
X017125Y010540D01*
X017181Y010485D01*
X017181Y010345D02*
X017125Y010289D01*
X017125Y010178D01*
X017558Y010178D02*
X017614Y010122D01*
X017837Y010122D01*
X017892Y010178D01*
X017892Y010289D01*
X017837Y010345D01*
X017837Y010485D02*
X017725Y010485D01*
X017725Y010652D01*
X017781Y010707D01*
X017837Y010707D01*
X017892Y010652D01*
X017892Y010540D01*
X017837Y010485D01*
X017725Y010485D02*
X017614Y010596D01*
X017558Y010707D01*
X017459Y010707D02*
X017459Y010485D01*
X017614Y010345D02*
X017558Y010289D01*
X017558Y010178D01*
X010910Y014852D02*
X010853Y014795D01*
X010739Y014795D01*
X010683Y014852D01*
X010541Y014795D02*
X010428Y014909D01*
X010485Y014909D02*
X010314Y014909D01*
X010314Y014795D02*
X010314Y015136D01*
X010485Y015136D01*
X010541Y015079D01*
X010541Y014965D01*
X010485Y014909D01*
X010683Y015079D02*
X010739Y015136D01*
X010853Y015136D01*
X010910Y015079D01*
X010910Y015022D01*
X010853Y014965D01*
X010910Y014909D01*
X010910Y014852D01*
X010853Y014965D02*
X010796Y014965D01*
X009938Y016016D02*
X009938Y016350D01*
X009771Y016183D01*
X009994Y016183D01*
X009970Y016488D02*
X010025Y016544D01*
X009970Y016488D02*
X009858Y016488D01*
X009803Y016544D01*
X009803Y016767D01*
X009858Y016822D01*
X009970Y016822D01*
X010025Y016767D01*
X010165Y016711D02*
X010276Y016822D01*
X010276Y016488D01*
X010165Y016488D02*
X010388Y016488D01*
X009689Y016695D02*
X009689Y016806D01*
X009689Y016751D02*
X009355Y016751D01*
X009355Y016806D02*
X009355Y016695D01*
X009411Y016937D02*
X009634Y016937D01*
X009689Y016992D01*
X009689Y017104D01*
X009634Y017159D01*
X009689Y017299D02*
X009689Y017522D01*
X009689Y017410D02*
X009355Y017410D01*
X009467Y017299D01*
X009411Y017159D02*
X009355Y017104D01*
X009355Y016992D01*
X009411Y016937D01*
X009073Y016989D02*
X009073Y017100D01*
X009018Y017156D01*
X009018Y017296D02*
X009073Y017296D01*
X009018Y017296D02*
X008795Y017518D01*
X008739Y017518D01*
X008739Y017296D01*
X008795Y017156D02*
X008739Y017100D01*
X008739Y016989D01*
X008795Y016933D01*
X009018Y016933D01*
X009073Y016989D01*
X008561Y017068D02*
X008561Y017179D01*
X008506Y017235D01*
X008506Y017374D02*
X008561Y017430D01*
X008561Y017541D01*
X008506Y017597D01*
X008450Y017597D01*
X008395Y017541D01*
X008395Y017486D01*
X008395Y017541D02*
X008339Y017597D01*
X008283Y017597D01*
X008228Y017541D01*
X008228Y017430D01*
X008283Y017374D01*
X008283Y017235D02*
X008228Y017179D01*
X008228Y017068D01*
X008283Y017012D01*
X008506Y017012D01*
X008561Y017068D01*
X009409Y016350D02*
X009576Y016350D01*
X009632Y016294D01*
X009632Y016183D01*
X009576Y016127D01*
X009409Y016127D01*
X009409Y016016D02*
X009409Y016350D01*
X009520Y016127D02*
X009632Y016016D01*
X007396Y016380D02*
X007173Y016380D01*
X007340Y016547D01*
X007340Y016213D01*
X007033Y016268D02*
X006977Y016213D01*
X006866Y016213D01*
X006810Y016268D01*
X006810Y016491D01*
X006866Y016547D01*
X006977Y016547D01*
X007033Y016491D01*
X007048Y015129D02*
X007048Y014795D01*
X006937Y014795D02*
X007159Y014795D01*
X007104Y014696D02*
X006992Y014696D01*
X006937Y014641D01*
X006797Y014641D02*
X006797Y014529D01*
X006741Y014474D01*
X006574Y014474D01*
X006686Y014474D02*
X006797Y014362D01*
X006779Y014263D02*
X006779Y014096D01*
X006891Y014152D01*
X006946Y014152D01*
X007002Y014096D01*
X007002Y013985D01*
X006946Y013929D01*
X006835Y013929D01*
X006779Y013985D01*
X006639Y013929D02*
X006528Y014041D01*
X006584Y014041D02*
X006417Y014041D01*
X006417Y013929D02*
X006417Y014263D01*
X006584Y014263D01*
X006639Y014208D01*
X006639Y014096D01*
X006584Y014041D01*
X006779Y014263D02*
X007002Y014263D01*
X006937Y014362D02*
X007159Y014585D01*
X007159Y014641D01*
X007104Y014696D01*
X006797Y014641D02*
X006741Y014696D01*
X006574Y014696D01*
X006574Y014362D01*
X006937Y014362D02*
X007159Y014362D01*
X006797Y014795D02*
X006686Y014907D01*
X006741Y014907D02*
X006574Y014907D01*
X006574Y014795D02*
X006574Y015129D01*
X006741Y015129D01*
X006797Y015074D01*
X006797Y014962D01*
X006741Y014907D01*
X006937Y015018D02*
X007048Y015129D01*
X007002Y013318D02*
X006891Y013263D01*
X006779Y013151D01*
X006946Y013151D01*
X007002Y013096D01*
X007002Y013040D01*
X006946Y012984D01*
X006835Y012984D01*
X006779Y013040D01*
X006779Y013151D01*
X006639Y013151D02*
X006584Y013096D01*
X006417Y013096D01*
X006528Y013096D02*
X006639Y012984D01*
X006639Y013151D02*
X006639Y013263D01*
X006584Y013318D01*
X006417Y013318D01*
X006417Y012984D01*
X006417Y012767D02*
X006584Y012767D01*
X006639Y012711D01*
X006639Y012600D01*
X006584Y012544D01*
X006417Y012544D01*
X006417Y012433D02*
X006417Y012767D01*
X006528Y012544D02*
X006639Y012433D01*
X006779Y012433D02*
X006779Y012489D01*
X007002Y012711D01*
X007002Y012767D01*
X006779Y012767D01*
X006820Y012255D02*
X006709Y012255D01*
X006653Y012200D01*
X006653Y011977D01*
X006709Y011921D01*
X006820Y011921D01*
X006876Y011977D01*
X007015Y011977D02*
X007015Y012033D01*
X007071Y012088D01*
X007182Y012088D01*
X007238Y012033D01*
X007238Y011977D01*
X007182Y011921D01*
X007071Y011921D01*
X007015Y011977D01*
X007071Y012088D02*
X007015Y012144D01*
X007015Y012200D01*
X007071Y012255D01*
X007182Y012255D01*
X007238Y012200D01*
X007238Y012144D01*
X007182Y012088D01*
X006876Y012200D02*
X006820Y012255D01*
X006835Y011310D02*
X006779Y011255D01*
X006779Y011199D01*
X006835Y011143D01*
X006946Y011143D01*
X007002Y011088D01*
X007002Y011032D01*
X006946Y010976D01*
X006835Y010976D01*
X006779Y011032D01*
X006779Y011088D01*
X006835Y011143D01*
X006946Y011143D02*
X007002Y011199D01*
X007002Y011255D01*
X006946Y011310D01*
X006835Y011310D01*
X006639Y011255D02*
X006639Y011143D01*
X006584Y011088D01*
X006417Y011088D01*
X006528Y011088D02*
X006639Y010976D01*
X006417Y010976D02*
X006417Y011310D01*
X006584Y011310D01*
X006639Y011255D01*
X006584Y010326D02*
X006417Y010326D01*
X006417Y009992D01*
X006417Y010104D02*
X006584Y010104D01*
X006639Y010159D01*
X006639Y010271D01*
X006584Y010326D01*
X006779Y010271D02*
X006779Y010215D01*
X006835Y010159D01*
X007002Y010159D01*
X007002Y010048D02*
X007002Y010271D01*
X006946Y010326D01*
X006835Y010326D01*
X006779Y010271D01*
X006779Y010048D02*
X006835Y009992D01*
X006946Y009992D01*
X007002Y010048D01*
X006639Y009992D02*
X006528Y010104D01*
X006584Y009460D02*
X006417Y009460D01*
X006417Y009126D01*
X006417Y009237D02*
X006584Y009237D01*
X006639Y009293D01*
X006639Y009404D01*
X006584Y009460D01*
X006779Y009349D02*
X006891Y009460D01*
X006891Y009126D01*
X007002Y009126D02*
X006779Y009126D01*
X006639Y009126D02*
X006528Y009237D01*
X007142Y009182D02*
X007142Y009404D01*
X007197Y009460D01*
X007309Y009460D01*
X007364Y009404D01*
X007142Y009182D01*
X007197Y009126D01*
X007309Y009126D01*
X007364Y009182D01*
X007364Y009404D01*
X007519Y009536D02*
X007575Y009480D01*
X007686Y009480D01*
X007742Y009536D01*
X007882Y009536D02*
X007937Y009480D01*
X008049Y009480D01*
X008104Y009536D01*
X008104Y009759D01*
X008049Y009814D01*
X007937Y009814D01*
X007882Y009759D01*
X007882Y009703D01*
X007937Y009647D01*
X008104Y009647D01*
X007742Y009759D02*
X007686Y009814D01*
X007575Y009814D01*
X007519Y009759D01*
X007519Y009536D01*
X008857Y010178D02*
X008913Y010122D01*
X009136Y010122D01*
X009191Y010178D01*
X009191Y010289D01*
X009136Y010345D01*
X009191Y010485D02*
X008969Y010707D01*
X008913Y010707D01*
X008857Y010652D01*
X008857Y010540D01*
X008913Y010485D01*
X008913Y010345D02*
X008857Y010289D01*
X008857Y010178D01*
X009291Y010178D02*
X009346Y010122D01*
X009569Y010122D01*
X009624Y010178D01*
X009624Y010289D01*
X009569Y010345D01*
X009569Y010485D02*
X009457Y010485D01*
X009457Y010652D01*
X009513Y010707D01*
X009569Y010707D01*
X009624Y010652D01*
X009624Y010540D01*
X009569Y010485D01*
X009457Y010485D02*
X009346Y010596D01*
X009291Y010707D01*
X009191Y010707D02*
X009191Y010485D01*
X009346Y010345D02*
X009291Y010289D01*
X009291Y010178D01*
X008052Y017944D02*
X007941Y017944D01*
X007885Y017999D01*
X007745Y017999D02*
X007690Y017944D01*
X007578Y017944D01*
X007523Y017999D01*
X007523Y018222D01*
X007578Y018278D01*
X007690Y018278D01*
X007745Y018222D01*
X007885Y018222D02*
X007941Y018278D01*
X008052Y018278D01*
X008108Y018222D01*
X008108Y018166D01*
X008052Y018111D01*
X008108Y018055D01*
X008108Y017999D01*
X008052Y017944D01*
X008052Y018111D02*
X007996Y018111D01*
X007392Y018278D02*
X007281Y018278D01*
X007337Y018278D02*
X007337Y017944D01*
X007392Y017944D02*
X007281Y017944D01*
X006986Y018339D02*
X006874Y018339D01*
X006819Y018394D01*
X006819Y018506D02*
X006930Y018561D01*
X006986Y018561D01*
X007041Y018506D01*
X007041Y018394D01*
X006986Y018339D01*
X006819Y018506D02*
X006819Y018673D01*
X007041Y018673D01*
X006679Y018617D02*
X006623Y018673D01*
X006512Y018673D01*
X006456Y018617D01*
X006456Y018394D01*
X006512Y018339D01*
X006623Y018339D01*
X006679Y018394D01*
X006639Y021410D02*
X006528Y021521D01*
X006584Y021521D02*
X006417Y021521D01*
X006417Y021410D02*
X006417Y021744D01*
X006584Y021744D01*
X006639Y021688D01*
X006639Y021577D01*
X006584Y021521D01*
X006779Y021632D02*
X006891Y021744D01*
X006891Y021410D01*
X007002Y021410D02*
X006779Y021410D01*
X007142Y021465D02*
X007142Y021688D01*
X007197Y021744D01*
X007309Y021744D01*
X007364Y021688D01*
X007142Y021465D01*
X007197Y021410D01*
X007309Y021410D01*
X007364Y021465D01*
X007364Y021688D01*
X007519Y021820D02*
X007575Y021764D01*
X007686Y021764D01*
X007742Y021820D01*
X007882Y021820D02*
X007937Y021764D01*
X008049Y021764D01*
X008104Y021820D01*
X008104Y022042D01*
X008049Y022098D01*
X007937Y022098D01*
X007882Y022042D01*
X007882Y021987D01*
X007937Y021931D01*
X008104Y021931D01*
X007742Y022042D02*
X007686Y022098D01*
X007575Y022098D01*
X007519Y022042D01*
X007519Y021820D01*
X007002Y022331D02*
X007002Y022554D01*
X006946Y022610D01*
X006835Y022610D01*
X006779Y022554D01*
X006779Y022498D01*
X006835Y022443D01*
X007002Y022443D01*
X007002Y022331D02*
X006946Y022276D01*
X006835Y022276D01*
X006779Y022331D01*
X006639Y022276D02*
X006528Y022387D01*
X006584Y022387D02*
X006417Y022387D01*
X006417Y022276D02*
X006417Y022610D01*
X006584Y022610D01*
X006639Y022554D01*
X006639Y022443D01*
X006584Y022387D01*
X006639Y023260D02*
X006528Y023371D01*
X006584Y023371D02*
X006417Y023371D01*
X006417Y023260D02*
X006417Y023594D01*
X006584Y023594D01*
X006639Y023538D01*
X006639Y023427D01*
X006584Y023371D01*
X006779Y023371D02*
X006835Y023427D01*
X006946Y023427D01*
X007002Y023371D01*
X007002Y023316D01*
X006946Y023260D01*
X006835Y023260D01*
X006779Y023316D01*
X006779Y023371D01*
X006835Y023427D02*
X006779Y023483D01*
X006779Y023538D01*
X006835Y023594D01*
X006946Y023594D01*
X007002Y023538D01*
X007002Y023483D01*
X006946Y023427D01*
X007071Y024205D02*
X007015Y024260D01*
X007015Y024316D01*
X007071Y024372D01*
X007182Y024372D01*
X007238Y024316D01*
X007238Y024260D01*
X007182Y024205D01*
X007071Y024205D01*
X007071Y024372D02*
X007015Y024427D01*
X007015Y024483D01*
X007071Y024539D01*
X007182Y024539D01*
X007238Y024483D01*
X007238Y024427D01*
X007182Y024372D01*
X006876Y024483D02*
X006820Y024539D01*
X006709Y024539D01*
X006653Y024483D01*
X006653Y024260D01*
X006709Y024205D01*
X006820Y024205D01*
X006876Y024260D01*
X006779Y024717D02*
X006779Y024772D01*
X007002Y024995D01*
X007002Y025051D01*
X006779Y025051D01*
X006639Y024995D02*
X006584Y025051D01*
X006417Y025051D01*
X006417Y024717D01*
X006417Y024828D02*
X006584Y024828D01*
X006639Y024884D01*
X006639Y024995D01*
X006528Y024828D02*
X006639Y024717D01*
X006639Y025268D02*
X006528Y025379D01*
X006584Y025379D02*
X006417Y025379D01*
X006417Y025268D02*
X006417Y025602D01*
X006584Y025602D01*
X006639Y025546D01*
X006639Y025435D01*
X006584Y025379D01*
X006779Y025435D02*
X006779Y025323D01*
X006835Y025268D01*
X006946Y025268D01*
X007002Y025323D01*
X007002Y025379D01*
X006946Y025435D01*
X006779Y025435D01*
X006891Y025546D01*
X007002Y025602D01*
X006946Y026213D02*
X006835Y026213D01*
X006779Y026268D01*
X006779Y026380D02*
X006891Y026435D01*
X006946Y026435D01*
X007002Y026380D01*
X007002Y026268D01*
X006946Y026213D01*
X006779Y026380D02*
X006779Y026547D01*
X007002Y026547D01*
X006937Y026646D02*
X007159Y026868D01*
X007159Y026924D01*
X007104Y026980D01*
X006992Y026980D01*
X006937Y026924D01*
X006797Y026924D02*
X006797Y026813D01*
X006741Y026757D01*
X006574Y026757D01*
X006574Y026646D02*
X006574Y026980D01*
X006741Y026980D01*
X006797Y026924D01*
X006797Y027079D02*
X006686Y027190D01*
X006741Y027190D02*
X006574Y027190D01*
X006574Y027079D02*
X006574Y027413D01*
X006741Y027413D01*
X006797Y027357D01*
X006797Y027246D01*
X006741Y027190D01*
X006937Y027079D02*
X007159Y027079D01*
X007048Y027079D02*
X007048Y027413D01*
X006937Y027301D01*
X006686Y026757D02*
X006797Y026646D01*
X006937Y026646D02*
X007159Y026646D01*
X006639Y026491D02*
X006639Y026380D01*
X006584Y026324D01*
X006417Y026324D01*
X006528Y026324D02*
X006639Y026213D01*
X006417Y026213D02*
X006417Y026547D01*
X006584Y026547D01*
X006639Y026491D01*
X006866Y028496D02*
X006810Y028552D01*
X006810Y028774D01*
X006866Y028830D01*
X006977Y028830D01*
X007033Y028774D01*
X007173Y028663D02*
X007396Y028663D01*
X007340Y028496D02*
X007340Y028830D01*
X007173Y028663D01*
X007033Y028552D02*
X006977Y028496D01*
X006866Y028496D01*
X008228Y029351D02*
X008283Y029295D01*
X008506Y029295D01*
X008561Y029351D01*
X008561Y029462D01*
X008506Y029518D01*
X008506Y029658D02*
X008561Y029714D01*
X008561Y029825D01*
X008506Y029881D01*
X008450Y029881D01*
X008395Y029825D01*
X008395Y029769D01*
X008395Y029825D02*
X008339Y029881D01*
X008283Y029881D01*
X008228Y029825D01*
X008228Y029714D01*
X008283Y029658D01*
X008283Y029518D02*
X008228Y029462D01*
X008228Y029351D01*
X008739Y029384D02*
X008739Y029272D01*
X008795Y029217D01*
X009018Y029217D01*
X009073Y029272D01*
X009073Y029384D01*
X009018Y029439D01*
X009018Y029579D02*
X009073Y029579D01*
X009018Y029579D02*
X008795Y029802D01*
X008739Y029802D01*
X008739Y029579D01*
X008795Y029439D02*
X008739Y029384D01*
X009355Y029387D02*
X009355Y029276D01*
X009411Y029220D01*
X009634Y029220D01*
X009689Y029276D01*
X009689Y029387D01*
X009634Y029443D01*
X009689Y029583D02*
X009689Y029805D01*
X009689Y029694D02*
X009355Y029694D01*
X009467Y029583D01*
X009411Y029443D02*
X009355Y029387D01*
X009355Y029090D02*
X009355Y028978D01*
X009355Y029034D02*
X009689Y029034D01*
X009689Y028978D02*
X009689Y029090D01*
X009803Y029050D02*
X009803Y028827D01*
X009858Y028772D01*
X009970Y028772D01*
X010025Y028827D01*
X010165Y028772D02*
X010388Y028772D01*
X010276Y028772D02*
X010276Y029106D01*
X010165Y028994D01*
X010025Y029050D02*
X009970Y029106D01*
X009858Y029106D01*
X009803Y029050D01*
X009938Y028633D02*
X009771Y028466D01*
X009994Y028466D01*
X009938Y028299D02*
X009938Y028633D01*
X009632Y028578D02*
X009632Y028466D01*
X009576Y028411D01*
X009409Y028411D01*
X009520Y028411D02*
X009632Y028299D01*
X009409Y028299D02*
X009409Y028633D01*
X009576Y028633D01*
X009632Y028578D01*
X010314Y027419D02*
X010485Y027419D01*
X010541Y027362D01*
X010541Y027249D01*
X010485Y027192D01*
X010314Y027192D01*
X010314Y027079D02*
X010314Y027419D01*
X010428Y027192D02*
X010541Y027079D01*
X010683Y027136D02*
X010739Y027079D01*
X010853Y027079D01*
X010910Y027136D01*
X010910Y027192D01*
X010853Y027249D01*
X010796Y027249D01*
X010853Y027249D02*
X010910Y027306D01*
X010910Y027362D01*
X010853Y027419D01*
X010739Y027419D01*
X010683Y027362D01*
X008052Y030227D02*
X007941Y030227D01*
X007885Y030283D01*
X007745Y030283D02*
X007690Y030227D01*
X007578Y030227D01*
X007523Y030283D01*
X007523Y030506D01*
X007578Y030561D01*
X007690Y030561D01*
X007745Y030506D01*
X007885Y030506D02*
X007941Y030561D01*
X008052Y030561D01*
X008108Y030506D01*
X008108Y030450D01*
X008052Y030394D01*
X008108Y030339D01*
X008108Y030283D01*
X008052Y030227D01*
X008052Y030394D02*
X007996Y030394D01*
X007392Y030227D02*
X007281Y030227D01*
X007337Y030227D02*
X007337Y030561D01*
X007392Y030561D02*
X007281Y030561D01*
X007041Y030678D02*
X006986Y030622D01*
X006874Y030622D01*
X006819Y030678D01*
X006819Y030789D02*
X006930Y030845D01*
X006986Y030845D01*
X007041Y030789D01*
X007041Y030678D01*
X006819Y030789D02*
X006819Y030956D01*
X007041Y030956D01*
X006679Y030900D02*
X006623Y030956D01*
X006512Y030956D01*
X006456Y030900D01*
X006456Y030678D01*
X006512Y030622D01*
X006623Y030622D01*
X006679Y030678D01*
X008913Y022991D02*
X008857Y022935D01*
X008857Y022824D01*
X008913Y022768D01*
X008913Y022628D02*
X008857Y022573D01*
X008857Y022461D01*
X008913Y022406D01*
X009136Y022406D01*
X009191Y022461D01*
X009191Y022573D01*
X009136Y022628D01*
X009191Y022768D02*
X008969Y022991D01*
X008913Y022991D01*
X009191Y022991D02*
X009191Y022768D01*
X009346Y022879D02*
X009457Y022768D01*
X009457Y022935D01*
X009513Y022991D01*
X009569Y022991D01*
X009624Y022935D01*
X009624Y022824D01*
X009569Y022768D01*
X009457Y022768D01*
X009346Y022879D02*
X009291Y022991D01*
X009346Y022628D02*
X009291Y022573D01*
X009291Y022461D01*
X009346Y022406D01*
X009569Y022406D01*
X009624Y022461D01*
X009624Y022573D01*
X009569Y022628D01*
X017677Y028299D02*
X017677Y028633D01*
X017844Y028633D01*
X017899Y028578D01*
X017899Y028466D01*
X017844Y028411D01*
X017677Y028411D01*
X017788Y028411D02*
X017899Y028299D01*
X033661Y022935D02*
X033661Y022824D01*
X033716Y022768D01*
X033716Y022628D02*
X033661Y022573D01*
X033661Y022461D01*
X033716Y022406D01*
X033939Y022406D01*
X033995Y022461D01*
X033995Y022573D01*
X033939Y022628D01*
X033995Y022768D02*
X033772Y022991D01*
X033716Y022991D01*
X033661Y022935D01*
X033995Y022991D02*
X033995Y022768D01*
X034149Y022879D02*
X034261Y022768D01*
X034261Y022935D01*
X034316Y022991D01*
X034372Y022991D01*
X034428Y022935D01*
X034428Y022824D01*
X034372Y022768D01*
X034261Y022768D01*
X034149Y022879D02*
X034094Y022991D01*
X034149Y022628D02*
X034094Y022573D01*
X034094Y022461D01*
X034149Y022406D01*
X034372Y022406D01*
X034428Y022461D01*
X034428Y022573D01*
X034372Y022628D01*
D14*
X034633Y024244D02*
X034633Y024480D01*
X034869Y024480D01*
X034633Y024244D01*
X034633Y024273D02*
X034662Y024273D01*
X034633Y024322D02*
X034711Y024322D01*
X034759Y024370D02*
X034633Y024370D01*
X034633Y024419D02*
X034808Y024419D01*
X034856Y024467D02*
X034633Y024467D01*
X034609Y024968D02*
X034432Y024968D01*
X034609Y024968D02*
X034609Y025145D01*
X035633Y024480D02*
X035633Y024244D01*
X035869Y024480D01*
X035633Y024480D01*
X035633Y024467D02*
X035856Y024467D01*
X035808Y024419D02*
X035633Y024419D01*
X035633Y024370D02*
X035759Y024370D01*
X035711Y024322D02*
X035633Y024322D01*
X035633Y024273D02*
X035662Y024273D01*
X034609Y026720D02*
X034609Y026897D01*
X034432Y026897D01*
X033590Y028153D02*
X033590Y028389D01*
X033353Y028389D01*
X033590Y028153D01*
X033589Y028153D01*
X033590Y028202D02*
X033541Y028202D01*
X033492Y028250D02*
X033590Y028250D01*
X033590Y028299D02*
X033444Y028299D01*
X033395Y028347D02*
X033590Y028347D01*
X032255Y028955D02*
X031255Y028955D01*
X031255Y030155D01*
X031555Y030155D01*
X031557Y030128D01*
X031562Y030101D01*
X031572Y030075D01*
X031584Y030051D01*
X031600Y030029D01*
X031618Y030009D01*
X031640Y029992D01*
X031663Y029977D01*
X031688Y029967D01*
X031714Y029959D01*
X031741Y029955D01*
X031769Y029955D01*
X031796Y029959D01*
X031822Y029967D01*
X031847Y029977D01*
X031870Y029992D01*
X031892Y030009D01*
X031910Y030029D01*
X031926Y030051D01*
X031938Y030075D01*
X031948Y030101D01*
X031953Y030128D01*
X031955Y030155D01*
X032255Y030155D01*
X032255Y028955D01*
X032680Y026897D02*
X032680Y026720D01*
X032680Y026897D02*
X032857Y026897D01*
X032680Y025145D02*
X032680Y024968D01*
X032857Y024968D01*
X029869Y020696D02*
X029633Y020696D01*
X029633Y020460D01*
X029869Y020696D01*
X029857Y020684D02*
X029633Y020684D01*
X029633Y020636D02*
X029808Y020636D01*
X029760Y020587D02*
X029633Y020587D01*
X029633Y020539D02*
X029711Y020539D01*
X029663Y020490D02*
X029633Y020490D01*
X030534Y020048D02*
X030534Y019812D01*
X030771Y019812D01*
X030534Y020048D01*
X030534Y020005D02*
X030578Y020005D01*
X030534Y019957D02*
X030626Y019957D01*
X030675Y019908D02*
X030534Y019908D01*
X030534Y019860D02*
X030723Y019860D01*
X031255Y017871D02*
X031555Y017871D01*
X031557Y017844D01*
X031562Y017817D01*
X031572Y017791D01*
X031584Y017767D01*
X031600Y017745D01*
X031618Y017725D01*
X031640Y017708D01*
X031663Y017693D01*
X031688Y017683D01*
X031714Y017675D01*
X031741Y017671D01*
X031769Y017671D01*
X031796Y017675D01*
X031822Y017683D01*
X031847Y017693D01*
X031870Y017708D01*
X031892Y017725D01*
X031910Y017745D01*
X031926Y017767D01*
X031938Y017791D01*
X031948Y017817D01*
X031953Y017844D01*
X031955Y017871D01*
X032255Y017871D01*
X032255Y016671D01*
X031255Y016671D01*
X031255Y017871D01*
X033353Y016106D02*
X033590Y015870D01*
X033590Y016106D01*
X033353Y016106D01*
X033383Y016077D02*
X033590Y016077D01*
X033590Y016028D02*
X033431Y016028D01*
X033480Y015980D02*
X033590Y015980D01*
X033590Y015931D02*
X033528Y015931D01*
X033577Y015883D02*
X033590Y015883D01*
X032857Y014614D02*
X032680Y014614D01*
X032680Y014437D01*
X032680Y012862D02*
X032680Y012685D01*
X032857Y012685D01*
X034432Y012685D02*
X034609Y012685D01*
X034609Y012862D01*
X034633Y012196D02*
X034869Y012196D01*
X034633Y011960D01*
X034633Y012196D01*
X034633Y012148D02*
X034821Y012148D01*
X034772Y012100D02*
X034633Y012100D01*
X034633Y012051D02*
X034724Y012051D01*
X034675Y012003D02*
X034633Y012003D01*
X035633Y012003D02*
X035675Y012003D01*
X035633Y011960D02*
X035633Y012196D01*
X035869Y012196D01*
X035633Y011960D01*
X035633Y012051D02*
X035724Y012051D01*
X035772Y012100D02*
X035633Y012100D01*
X035633Y012148D02*
X035821Y012148D01*
X034609Y014437D02*
X034609Y014614D01*
X034432Y014614D01*
X035475Y017429D02*
X035593Y017429D01*
X035790Y017429D01*
X035908Y017429D01*
X035790Y017429D02*
X035788Y017447D01*
X035783Y017464D01*
X035775Y017481D01*
X035764Y017495D01*
X035751Y017507D01*
X035736Y017517D01*
X035719Y017523D01*
X035701Y017527D01*
X035683Y017527D01*
X035665Y017523D01*
X035648Y017517D01*
X035633Y017507D01*
X035620Y017495D01*
X035609Y017481D01*
X035601Y017464D01*
X035596Y017447D01*
X035594Y017429D01*
X035475Y018216D02*
X035908Y018216D01*
X034649Y018452D02*
X034216Y018452D01*
X034216Y017665D02*
X034334Y017665D01*
X034530Y017665D01*
X034649Y017665D01*
X034530Y017665D02*
X034528Y017683D01*
X034523Y017700D01*
X034515Y017717D01*
X034504Y017731D01*
X034491Y017743D01*
X034476Y017753D01*
X034459Y017759D01*
X034441Y017763D01*
X034423Y017763D01*
X034405Y017759D01*
X034388Y017753D01*
X034373Y017743D01*
X034360Y017731D01*
X034349Y017717D01*
X034341Y017700D01*
X034336Y017683D01*
X034334Y017665D01*
X036633Y020460D02*
X036633Y020696D01*
X036869Y020696D01*
X036633Y020460D01*
X036633Y020490D02*
X036663Y020490D01*
X036633Y020539D02*
X036711Y020539D01*
X036760Y020587D02*
X036633Y020587D01*
X036633Y020636D02*
X036808Y020636D01*
X036857Y020684D02*
X036633Y020684D01*
X028601Y020696D02*
X028365Y020696D01*
X028365Y020460D01*
X028601Y020696D01*
X028589Y020684D02*
X028365Y020684D01*
X028365Y020636D02*
X028541Y020636D01*
X028492Y020587D02*
X028365Y020587D01*
X028365Y020539D02*
X028444Y020539D01*
X028395Y020490D02*
X028365Y020490D01*
X026381Y018452D02*
X025948Y018452D01*
X025948Y017665D02*
X026066Y017665D01*
X026263Y017665D01*
X026381Y017665D01*
X026262Y017665D02*
X026260Y017683D01*
X026255Y017700D01*
X026247Y017717D01*
X026236Y017731D01*
X026223Y017743D01*
X026208Y017753D01*
X026191Y017759D01*
X026173Y017763D01*
X026155Y017763D01*
X026137Y017759D01*
X026120Y017753D01*
X026105Y017743D01*
X026092Y017731D01*
X026081Y017717D01*
X026073Y017700D01*
X026068Y017683D01*
X026066Y017665D01*
X027208Y017429D02*
X027326Y017429D01*
X027523Y017429D01*
X027641Y017429D01*
X027522Y017429D02*
X027520Y017447D01*
X027515Y017464D01*
X027507Y017481D01*
X027496Y017495D01*
X027483Y017507D01*
X027468Y017517D01*
X027451Y017523D01*
X027433Y017527D01*
X027415Y017527D01*
X027397Y017523D01*
X027380Y017517D01*
X027365Y017507D01*
X027352Y017495D01*
X027341Y017481D01*
X027333Y017464D01*
X027328Y017447D01*
X027326Y017429D01*
X027208Y018216D02*
X027641Y018216D01*
X025322Y016106D02*
X025322Y015870D01*
X025086Y016106D01*
X025322Y016106D01*
X025322Y016077D02*
X025115Y016077D01*
X025163Y016028D02*
X025322Y016028D01*
X025322Y015980D02*
X025212Y015980D01*
X025260Y015931D02*
X025322Y015931D01*
X025322Y015883D02*
X025309Y015883D01*
X024590Y014614D02*
X024412Y014614D01*
X024412Y014437D01*
X024412Y012862D02*
X024412Y012685D01*
X024590Y012685D01*
X026164Y012685D02*
X026341Y012685D01*
X026341Y012862D01*
X026365Y012196D02*
X026601Y012196D01*
X026365Y011960D01*
X026365Y012196D01*
X026365Y012148D02*
X026553Y012148D01*
X026505Y012100D02*
X026365Y012100D01*
X026365Y012051D02*
X026456Y012051D01*
X026408Y012003D02*
X026365Y012003D01*
X027365Y012003D02*
X027408Y012003D01*
X027365Y011960D02*
X027365Y012196D01*
X027601Y012196D01*
X027365Y011960D01*
X027365Y012051D02*
X027456Y012051D01*
X027505Y012100D02*
X027365Y012100D01*
X027365Y012148D02*
X027553Y012148D01*
X026341Y014437D02*
X026341Y014614D01*
X026164Y014614D01*
X023987Y016671D02*
X022987Y016671D01*
X022987Y017871D01*
X023287Y017871D01*
X023289Y017844D01*
X023294Y017817D01*
X023304Y017791D01*
X023316Y017767D01*
X023332Y017745D01*
X023350Y017725D01*
X023372Y017708D01*
X023395Y017693D01*
X023420Y017683D01*
X023446Y017675D01*
X023473Y017671D01*
X023501Y017671D01*
X023528Y017675D01*
X023554Y017683D01*
X023579Y017693D01*
X023602Y017708D01*
X023624Y017725D01*
X023642Y017745D01*
X023658Y017767D01*
X023670Y017791D01*
X023680Y017817D01*
X023685Y017844D01*
X023687Y017871D01*
X023987Y017871D01*
X023987Y016671D01*
X022503Y019812D02*
X022267Y019812D01*
X022267Y020048D01*
X022503Y019812D01*
X022455Y019860D02*
X022267Y019860D01*
X022267Y019908D02*
X022407Y019908D01*
X022358Y019957D02*
X022267Y019957D01*
X022267Y020005D02*
X022310Y020005D01*
X021601Y020696D02*
X021365Y020696D01*
X021365Y020460D01*
X021601Y020696D01*
X021589Y020684D02*
X021365Y020684D01*
X021365Y020636D02*
X021541Y020636D01*
X021492Y020587D02*
X021365Y020587D01*
X021365Y020539D02*
X021444Y020539D01*
X021395Y020490D02*
X021365Y020490D01*
X020334Y020696D02*
X020097Y020460D01*
X020097Y020696D01*
X020334Y020696D01*
X020321Y020684D02*
X020097Y020684D01*
X020097Y020636D02*
X020273Y020636D01*
X020224Y020587D02*
X020097Y020587D01*
X020097Y020539D02*
X020176Y020539D01*
X020127Y020490D02*
X020097Y020490D01*
X019373Y018216D02*
X018940Y018216D01*
X018940Y017429D02*
X019058Y017429D01*
X019255Y017429D01*
X019373Y017429D01*
X019254Y017429D02*
X019252Y017447D01*
X019247Y017464D01*
X019239Y017481D01*
X019228Y017495D01*
X019215Y017507D01*
X019200Y017517D01*
X019183Y017523D01*
X019165Y017527D01*
X019147Y017527D01*
X019129Y017523D01*
X019112Y017517D01*
X019097Y017507D01*
X019084Y017495D01*
X019073Y017481D01*
X019065Y017464D01*
X019060Y017447D01*
X019058Y017429D01*
X018113Y017665D02*
X017995Y017665D01*
X017798Y017665D01*
X017680Y017665D01*
X017799Y017665D02*
X017801Y017683D01*
X017806Y017700D01*
X017814Y017717D01*
X017825Y017731D01*
X017838Y017743D01*
X017853Y017753D01*
X017870Y017759D01*
X017888Y017763D01*
X017906Y017763D01*
X017924Y017759D01*
X017941Y017753D01*
X017956Y017743D01*
X017969Y017731D01*
X017980Y017717D01*
X017988Y017700D01*
X017993Y017683D01*
X017995Y017665D01*
X018113Y018452D02*
X017680Y018452D01*
X015719Y017871D02*
X015719Y016671D01*
X014719Y016671D01*
X014719Y017871D01*
X015019Y017871D01*
X015021Y017844D01*
X015026Y017817D01*
X015036Y017791D01*
X015048Y017767D01*
X015064Y017745D01*
X015082Y017725D01*
X015104Y017708D01*
X015127Y017693D01*
X015152Y017683D01*
X015178Y017675D01*
X015205Y017671D01*
X015233Y017671D01*
X015260Y017675D01*
X015286Y017683D01*
X015311Y017693D01*
X015334Y017708D01*
X015356Y017725D01*
X015374Y017745D01*
X015390Y017767D01*
X015402Y017791D01*
X015412Y017817D01*
X015417Y017844D01*
X015419Y017871D01*
X015719Y017871D01*
X016818Y016106D02*
X017054Y016106D01*
X017054Y015870D01*
X016818Y016106D01*
X016847Y016077D02*
X017054Y016077D01*
X017054Y016028D02*
X016896Y016028D01*
X016944Y015980D02*
X017054Y015980D01*
X017054Y015931D02*
X016993Y015931D01*
X017041Y015883D02*
X017054Y015883D01*
X016322Y014614D02*
X016145Y014614D01*
X016145Y014437D01*
X016145Y012862D02*
X016145Y012685D01*
X016322Y012685D01*
X017897Y012685D02*
X018074Y012685D01*
X018074Y012862D01*
X018097Y012196D02*
X018334Y012196D01*
X018097Y011960D01*
X018097Y012196D01*
X018097Y012148D02*
X018285Y012148D01*
X018237Y012100D02*
X018097Y012100D01*
X018097Y012051D02*
X018188Y012051D01*
X018140Y012003D02*
X018097Y012003D01*
X019097Y012003D02*
X019140Y012003D01*
X019097Y011960D02*
X019097Y012196D01*
X019334Y012196D01*
X019097Y011960D01*
X019097Y012051D02*
X019188Y012051D01*
X019237Y012100D02*
X019097Y012100D01*
X019097Y012148D02*
X019285Y012148D01*
X018074Y014437D02*
X018074Y014614D01*
X017897Y014614D01*
X014235Y019812D02*
X013999Y019812D01*
X013999Y020048D01*
X014235Y019812D01*
X014188Y019860D02*
X013999Y019860D01*
X013999Y019908D02*
X014139Y019908D01*
X014091Y019957D02*
X013999Y019957D01*
X013999Y020005D02*
X014042Y020005D01*
X013334Y020696D02*
X013097Y020696D01*
X013097Y020460D01*
X013334Y020696D01*
X013321Y020684D02*
X013097Y020684D01*
X013097Y020636D02*
X013273Y020636D01*
X013224Y020587D02*
X013097Y020587D01*
X013097Y020539D02*
X013176Y020539D01*
X013127Y020490D02*
X013097Y020490D01*
X012066Y020696D02*
X011830Y020460D01*
X011830Y020696D01*
X012066Y020696D01*
X012054Y020684D02*
X011830Y020684D01*
X011830Y020636D02*
X012005Y020636D01*
X011957Y020587D02*
X011830Y020587D01*
X011830Y020539D02*
X011908Y020539D01*
X011860Y020490D02*
X011830Y020490D01*
X009845Y018452D02*
X009412Y018452D01*
X009412Y017665D02*
X009530Y017665D01*
X009727Y017665D01*
X009845Y017665D01*
X009727Y017665D02*
X009725Y017683D01*
X009720Y017700D01*
X009712Y017717D01*
X009701Y017731D01*
X009688Y017743D01*
X009673Y017753D01*
X009656Y017759D01*
X009638Y017763D01*
X009620Y017763D01*
X009602Y017759D01*
X009585Y017753D01*
X009570Y017743D01*
X009557Y017731D01*
X009546Y017717D01*
X009538Y017700D01*
X009533Y017683D01*
X009531Y017665D01*
X010672Y017429D02*
X010790Y017429D01*
X010987Y017429D01*
X011105Y017429D01*
X010987Y017429D02*
X010985Y017447D01*
X010980Y017464D01*
X010972Y017481D01*
X010961Y017495D01*
X010948Y017507D01*
X010933Y017517D01*
X010916Y017523D01*
X010898Y017527D01*
X010880Y017527D01*
X010862Y017523D01*
X010845Y017517D01*
X010830Y017507D01*
X010817Y017495D01*
X010806Y017481D01*
X010798Y017464D01*
X010793Y017447D01*
X010791Y017429D01*
X010672Y018216D02*
X011105Y018216D01*
X008786Y016106D02*
X008786Y015870D01*
X008550Y016106D01*
X008786Y016106D01*
X008786Y016077D02*
X008579Y016077D01*
X008628Y016028D02*
X008786Y016028D01*
X008786Y015980D02*
X008676Y015980D01*
X008725Y015931D02*
X008786Y015931D01*
X008786Y015883D02*
X008773Y015883D01*
X008054Y014614D02*
X007877Y014614D01*
X007877Y014437D01*
X007877Y012862D02*
X007877Y012685D01*
X008054Y012685D01*
X009629Y012685D02*
X009806Y012685D01*
X009806Y012862D01*
X009830Y012196D02*
X010066Y012196D01*
X009830Y011960D01*
X009830Y012196D01*
X009830Y012148D02*
X010018Y012148D01*
X009969Y012100D02*
X009830Y012100D01*
X009830Y012051D02*
X009921Y012051D01*
X009872Y012003D02*
X009830Y012003D01*
X010830Y012003D02*
X010872Y012003D01*
X010830Y011960D02*
X010830Y012196D01*
X011066Y012196D01*
X010830Y011960D01*
X010830Y012051D02*
X010921Y012051D01*
X010969Y012100D02*
X010830Y012100D01*
X010830Y012148D02*
X011018Y012148D01*
X009806Y014437D02*
X009806Y014614D01*
X009629Y014614D01*
X007452Y016671D02*
X006452Y016671D01*
X006452Y017871D01*
X006752Y017871D01*
X006754Y017844D01*
X006759Y017817D01*
X006769Y017791D01*
X006781Y017767D01*
X006797Y017745D01*
X006815Y017725D01*
X006837Y017708D01*
X006860Y017693D01*
X006885Y017683D01*
X006911Y017675D01*
X006938Y017671D01*
X006966Y017671D01*
X006993Y017675D01*
X007019Y017683D01*
X007044Y017693D01*
X007067Y017708D01*
X007089Y017725D01*
X007107Y017745D01*
X007123Y017767D01*
X007135Y017791D01*
X007145Y017817D01*
X007150Y017844D01*
X007152Y017871D01*
X007452Y017871D01*
X007452Y016671D01*
X005967Y019812D02*
X005731Y019812D01*
X005731Y020048D01*
X005967Y019812D01*
X005920Y019860D02*
X005731Y019860D01*
X005731Y019908D02*
X005871Y019908D01*
X005823Y019957D02*
X005731Y019957D01*
X005731Y020005D02*
X005774Y020005D01*
X005066Y020696D02*
X004830Y020696D01*
X004830Y020460D01*
X005066Y020696D01*
X005054Y020684D02*
X004830Y020684D01*
X004830Y020636D02*
X005005Y020636D01*
X004957Y020587D02*
X004830Y020587D01*
X004830Y020539D02*
X004908Y020539D01*
X004860Y020490D02*
X004830Y020490D01*
X007877Y024968D02*
X008054Y024968D01*
X007877Y024968D02*
X007877Y025145D01*
X007877Y026720D02*
X007877Y026897D01*
X008054Y026897D01*
X008786Y028153D02*
X008786Y028389D01*
X008550Y028389D01*
X008786Y028153D01*
X008786Y028153D01*
X008786Y028202D02*
X008738Y028202D01*
X008786Y028250D02*
X008689Y028250D01*
X008641Y028299D02*
X008786Y028299D01*
X008786Y028347D02*
X008592Y028347D01*
X007452Y028955D02*
X006452Y028955D01*
X006452Y030155D01*
X006752Y030155D01*
X006754Y030128D01*
X006759Y030101D01*
X006769Y030075D01*
X006781Y030051D01*
X006797Y030029D01*
X006815Y030009D01*
X006837Y029992D01*
X006860Y029977D01*
X006885Y029967D01*
X006911Y029959D01*
X006938Y029955D01*
X006966Y029955D01*
X006993Y029959D01*
X007019Y029967D01*
X007044Y029977D01*
X007067Y029992D01*
X007089Y030009D01*
X007107Y030029D01*
X007123Y030051D01*
X007135Y030075D01*
X007145Y030101D01*
X007150Y030128D01*
X007152Y030155D01*
X007452Y030155D01*
X007452Y028955D01*
X009412Y029948D02*
X009530Y029948D01*
X009727Y029948D01*
X009845Y029948D01*
X009727Y029948D02*
X009725Y029966D01*
X009720Y029983D01*
X009712Y030000D01*
X009701Y030014D01*
X009688Y030026D01*
X009673Y030036D01*
X009656Y030042D01*
X009638Y030046D01*
X009620Y030046D01*
X009602Y030042D01*
X009585Y030036D01*
X009570Y030026D01*
X009557Y030014D01*
X009546Y030000D01*
X009538Y029983D01*
X009533Y029966D01*
X009531Y029948D01*
X009412Y030736D02*
X009845Y030736D01*
X010672Y030500D02*
X011105Y030500D01*
X011105Y029712D02*
X010987Y029712D01*
X010790Y029712D01*
X010672Y029712D01*
X010791Y029712D02*
X010793Y029730D01*
X010798Y029747D01*
X010806Y029764D01*
X010817Y029778D01*
X010830Y029790D01*
X010845Y029800D01*
X010862Y029806D01*
X010880Y029810D01*
X010898Y029810D01*
X010916Y029806D01*
X010933Y029800D01*
X010948Y029790D01*
X010961Y029778D01*
X010972Y029764D01*
X010980Y029747D01*
X010985Y029730D01*
X010987Y029712D01*
X009806Y026897D02*
X009629Y026897D01*
X009806Y026897D02*
X009806Y026720D01*
X009806Y025145D02*
X009806Y024968D01*
X009629Y024968D01*
X009830Y024480D02*
X010066Y024480D01*
X009830Y024244D01*
X009830Y024480D01*
X009830Y024467D02*
X010053Y024467D01*
X010005Y024419D02*
X009830Y024419D01*
X009830Y024370D02*
X009956Y024370D01*
X009908Y024322D02*
X009830Y024322D01*
X009830Y024273D02*
X009859Y024273D01*
X010830Y024273D02*
X010859Y024273D01*
X010830Y024244D02*
X010830Y024480D01*
X011066Y024480D01*
X010830Y024244D01*
X010830Y024322D02*
X010908Y024322D01*
X010956Y024370D02*
X010830Y024370D01*
X010830Y024419D02*
X011005Y024419D01*
X011053Y024467D02*
X010830Y024467D01*
X014719Y028955D02*
X014719Y030155D01*
X015019Y030155D01*
X015021Y030128D01*
X015026Y030101D01*
X015036Y030075D01*
X015048Y030051D01*
X015064Y030029D01*
X015082Y030009D01*
X015104Y029992D01*
X015127Y029977D01*
X015152Y029967D01*
X015178Y029959D01*
X015205Y029955D01*
X015233Y029955D01*
X015260Y029959D01*
X015286Y029967D01*
X015311Y029977D01*
X015334Y029992D01*
X015356Y030009D01*
X015374Y030029D01*
X015390Y030051D01*
X015402Y030075D01*
X015412Y030101D01*
X015417Y030128D01*
X015419Y030155D01*
X015719Y030155D01*
X015719Y028955D01*
X014719Y028955D01*
X016145Y026897D02*
X016145Y026720D01*
X016145Y026897D02*
X016322Y026897D01*
X017054Y028153D02*
X017054Y028389D01*
X016818Y028389D01*
X017054Y028153D01*
X017054Y028153D01*
X017054Y028202D02*
X017006Y028202D01*
X017054Y028250D02*
X016957Y028250D01*
X016909Y028299D02*
X017054Y028299D01*
X017054Y028347D02*
X016860Y028347D01*
X017897Y026897D02*
X018074Y026897D01*
X018074Y026720D01*
X018074Y025145D02*
X018074Y024968D01*
X017897Y024968D01*
X018097Y024480D02*
X018334Y024480D01*
X018097Y024244D01*
X018097Y024480D01*
X018097Y024467D02*
X018321Y024467D01*
X018272Y024419D02*
X018097Y024419D01*
X018097Y024370D02*
X018224Y024370D01*
X018175Y024322D02*
X018097Y024322D01*
X018097Y024273D02*
X018127Y024273D01*
X019097Y024273D02*
X019127Y024273D01*
X019097Y024244D02*
X019097Y024480D01*
X019334Y024480D01*
X019097Y024244D01*
X019097Y024322D02*
X019175Y024322D01*
X019224Y024370D02*
X019097Y024370D01*
X019097Y024419D02*
X019272Y024419D01*
X019321Y024467D02*
X019097Y024467D01*
X016322Y024968D02*
X016145Y024968D01*
X016145Y025145D01*
X018940Y029712D02*
X019058Y029712D01*
X019255Y029712D01*
X019373Y029712D01*
X019254Y029712D02*
X019252Y029730D01*
X019247Y029747D01*
X019239Y029764D01*
X019228Y029778D01*
X019215Y029790D01*
X019200Y029800D01*
X019183Y029806D01*
X019165Y029810D01*
X019147Y029810D01*
X019129Y029806D01*
X019112Y029800D01*
X019097Y029790D01*
X019084Y029778D01*
X019073Y029764D01*
X019065Y029747D01*
X019060Y029730D01*
X019058Y029712D01*
X018940Y030500D02*
X019373Y030500D01*
X018113Y030736D02*
X017680Y030736D01*
X017680Y029948D02*
X017798Y029948D01*
X017995Y029948D01*
X018113Y029948D01*
X017995Y029948D02*
X017993Y029966D01*
X017988Y029983D01*
X017980Y030000D01*
X017969Y030014D01*
X017956Y030026D01*
X017941Y030036D01*
X017924Y030042D01*
X017906Y030046D01*
X017888Y030046D01*
X017870Y030042D01*
X017853Y030036D01*
X017838Y030026D01*
X017825Y030014D01*
X017814Y030000D01*
X017806Y029983D01*
X017801Y029966D01*
X017799Y029948D01*
X020097Y032744D02*
X020097Y032980D01*
X020334Y032980D01*
X020097Y032744D01*
X020097Y032761D02*
X020114Y032761D01*
X020097Y032809D02*
X020163Y032809D01*
X020211Y032858D02*
X020097Y032858D01*
X020097Y032906D02*
X020260Y032906D01*
X020308Y032955D02*
X020097Y032955D01*
X021365Y032955D02*
X021576Y032955D01*
X021601Y032980D02*
X021365Y032980D01*
X021365Y032744D01*
X021601Y032980D01*
X021528Y032906D02*
X021365Y032906D01*
X021365Y032858D02*
X021479Y032858D01*
X021431Y032809D02*
X021365Y032809D01*
X021365Y032761D02*
X021382Y032761D01*
X022267Y032332D02*
X022267Y032096D01*
X022503Y032096D01*
X022267Y032332D01*
X022267Y032324D02*
X022274Y032324D01*
X022267Y032276D02*
X022323Y032276D01*
X022371Y032227D02*
X022267Y032227D01*
X022267Y032179D02*
X022420Y032179D01*
X022468Y032130D02*
X022267Y032130D01*
X022987Y030155D02*
X023287Y030155D01*
X023289Y030128D01*
X023294Y030101D01*
X023304Y030075D01*
X023316Y030051D01*
X023332Y030029D01*
X023350Y030009D01*
X023372Y029992D01*
X023395Y029977D01*
X023420Y029967D01*
X023446Y029959D01*
X023473Y029955D01*
X023501Y029955D01*
X023528Y029959D01*
X023554Y029967D01*
X023579Y029977D01*
X023602Y029992D01*
X023624Y030009D01*
X023642Y030029D01*
X023658Y030051D01*
X023670Y030075D01*
X023680Y030101D01*
X023685Y030128D01*
X023687Y030155D01*
X023987Y030155D01*
X023987Y028955D01*
X022987Y028955D01*
X022987Y030155D01*
X025086Y028389D02*
X025322Y028153D01*
X025322Y028389D01*
X025086Y028389D01*
X025128Y028347D02*
X025322Y028347D01*
X025322Y028299D02*
X025176Y028299D01*
X025225Y028250D02*
X025322Y028250D01*
X025322Y028202D02*
X025273Y028202D01*
X025322Y028153D02*
X025322Y028153D01*
X024590Y026897D02*
X024412Y026897D01*
X024412Y026720D01*
X024412Y025145D02*
X024412Y024968D01*
X024590Y024968D01*
X026164Y024968D02*
X026341Y024968D01*
X026341Y025145D01*
X026365Y024480D02*
X026601Y024480D01*
X026365Y024244D01*
X026365Y024480D01*
X026365Y024467D02*
X026589Y024467D01*
X026540Y024419D02*
X026365Y024419D01*
X026365Y024370D02*
X026492Y024370D01*
X026443Y024322D02*
X026365Y024322D01*
X026365Y024273D02*
X026395Y024273D01*
X027365Y024273D02*
X027395Y024273D01*
X027365Y024244D02*
X027365Y024480D01*
X027601Y024480D01*
X027365Y024244D01*
X027365Y024322D02*
X027443Y024322D01*
X027492Y024370D02*
X027365Y024370D01*
X027365Y024419D02*
X027540Y024419D01*
X027589Y024467D02*
X027365Y024467D01*
X026341Y026720D02*
X026341Y026897D01*
X026164Y026897D01*
X027208Y029712D02*
X027326Y029712D01*
X027523Y029712D01*
X027641Y029712D01*
X027522Y029712D02*
X027520Y029730D01*
X027515Y029747D01*
X027507Y029764D01*
X027496Y029778D01*
X027483Y029790D01*
X027468Y029800D01*
X027451Y029806D01*
X027433Y029810D01*
X027415Y029810D01*
X027397Y029806D01*
X027380Y029800D01*
X027365Y029790D01*
X027352Y029778D01*
X027341Y029764D01*
X027333Y029747D01*
X027328Y029730D01*
X027326Y029712D01*
X027208Y030500D02*
X027641Y030500D01*
X026381Y030736D02*
X025948Y030736D01*
X025948Y029948D02*
X026066Y029948D01*
X026263Y029948D01*
X026381Y029948D01*
X026262Y029948D02*
X026260Y029966D01*
X026255Y029983D01*
X026247Y030000D01*
X026236Y030014D01*
X026223Y030026D01*
X026208Y030036D01*
X026191Y030042D01*
X026173Y030046D01*
X026155Y030046D01*
X026137Y030042D01*
X026120Y030036D01*
X026105Y030026D01*
X026092Y030014D01*
X026081Y030000D01*
X026073Y029983D01*
X026068Y029966D01*
X026066Y029948D01*
X028365Y032744D02*
X028365Y032980D01*
X028601Y032980D01*
X028365Y032744D01*
X028365Y032761D02*
X028382Y032761D01*
X028365Y032809D02*
X028431Y032809D01*
X028479Y032858D02*
X028365Y032858D01*
X028365Y032906D02*
X028528Y032906D01*
X028576Y032955D02*
X028365Y032955D01*
X029633Y032955D02*
X029844Y032955D01*
X029869Y032980D02*
X029633Y032980D01*
X029633Y032744D01*
X029869Y032980D01*
X029795Y032906D02*
X029633Y032906D01*
X029633Y032858D02*
X029747Y032858D01*
X029698Y032809D02*
X029633Y032809D01*
X029633Y032761D02*
X029650Y032761D01*
X030534Y032332D02*
X030534Y032096D01*
X030771Y032096D01*
X030534Y032332D01*
X030534Y032324D02*
X030542Y032324D01*
X030534Y032276D02*
X030591Y032276D01*
X030639Y032227D02*
X030534Y032227D01*
X030534Y032179D02*
X030688Y032179D01*
X030736Y032130D02*
X030534Y032130D01*
X034216Y030736D02*
X034649Y030736D01*
X034649Y029948D02*
X034530Y029948D01*
X034334Y029948D01*
X034216Y029948D01*
X034334Y029948D02*
X034336Y029966D01*
X034341Y029983D01*
X034349Y030000D01*
X034360Y030014D01*
X034373Y030026D01*
X034388Y030036D01*
X034405Y030042D01*
X034423Y030046D01*
X034441Y030046D01*
X034459Y030042D01*
X034476Y030036D01*
X034491Y030026D01*
X034504Y030014D01*
X034515Y030000D01*
X034523Y029983D01*
X034528Y029966D01*
X034530Y029948D01*
X035475Y029712D02*
X035593Y029712D01*
X035790Y029712D01*
X035908Y029712D01*
X035790Y029712D02*
X035788Y029730D01*
X035783Y029747D01*
X035775Y029764D01*
X035764Y029778D01*
X035751Y029790D01*
X035736Y029800D01*
X035719Y029806D01*
X035701Y029810D01*
X035683Y029810D01*
X035665Y029806D01*
X035648Y029800D01*
X035633Y029790D01*
X035620Y029778D01*
X035609Y029764D01*
X035601Y029747D01*
X035596Y029730D01*
X035594Y029712D01*
X035475Y030500D02*
X035908Y030500D01*
X036633Y032744D02*
X036633Y032980D01*
X036869Y032980D01*
X036633Y032744D01*
X036633Y032761D02*
X036650Y032761D01*
X036633Y032809D02*
X036698Y032809D01*
X036747Y032858D02*
X036633Y032858D01*
X036633Y032906D02*
X036795Y032906D01*
X036844Y032955D02*
X036633Y032955D01*
X014235Y032096D02*
X013999Y032096D01*
X013999Y032332D01*
X014235Y032096D01*
X014201Y032130D02*
X013999Y032130D01*
X013999Y032179D02*
X014152Y032179D01*
X014104Y032227D02*
X013999Y032227D01*
X013999Y032276D02*
X014055Y032276D01*
X014007Y032324D02*
X013999Y032324D01*
X013334Y032980D02*
X013097Y032980D01*
X013097Y032744D01*
X013334Y032980D01*
X013308Y032955D02*
X013097Y032955D01*
X013097Y032906D02*
X013260Y032906D01*
X013211Y032858D02*
X013097Y032858D01*
X013097Y032809D02*
X013163Y032809D01*
X013114Y032761D02*
X013097Y032761D01*
X012066Y032980D02*
X011830Y032744D01*
X011830Y032980D01*
X012066Y032980D01*
X012041Y032955D02*
X011830Y032955D01*
X011830Y032906D02*
X011992Y032906D01*
X011944Y032858D02*
X011830Y032858D01*
X011830Y032809D02*
X011895Y032809D01*
X011847Y032761D02*
X011830Y032761D01*
X005967Y032096D02*
X005731Y032096D01*
X005731Y032332D01*
X005967Y032096D01*
X005933Y032130D02*
X005731Y032130D01*
X005731Y032179D02*
X005884Y032179D01*
X005836Y032227D02*
X005731Y032227D01*
X005731Y032276D02*
X005787Y032276D01*
X005739Y032324D02*
X005731Y032324D01*
X005066Y032980D02*
X004830Y032980D01*
X004830Y032744D01*
X005066Y032980D01*
X005041Y032955D02*
X004830Y032955D01*
X004830Y032906D02*
X004992Y032906D01*
X004944Y032858D02*
X004830Y032858D01*
X004830Y032809D02*
X004895Y032809D01*
X004847Y032761D02*
X004830Y032761D01*
D15*
X007739Y027035D02*
X008015Y027035D01*
X007739Y027035D02*
X007739Y026759D01*
X007739Y025106D02*
X007739Y024830D01*
X008015Y024830D01*
X009668Y024830D02*
X009944Y024830D01*
X009944Y025106D01*
X009944Y026759D02*
X009944Y027035D01*
X009668Y027035D01*
X009944Y027114D02*
X009946Y027132D01*
X009952Y027148D01*
X009961Y027163D01*
X009974Y027176D01*
X009989Y027185D01*
X010005Y027191D01*
X010023Y027193D01*
X010041Y027191D01*
X010057Y027185D01*
X010072Y027176D01*
X010085Y027163D01*
X010094Y027148D01*
X010100Y027132D01*
X010102Y027114D01*
X010100Y027096D01*
X010094Y027080D01*
X010085Y027065D01*
X010072Y027052D01*
X010057Y027043D01*
X010041Y027037D01*
X010023Y027035D01*
X010005Y027037D01*
X009989Y027043D01*
X009974Y027052D01*
X009961Y027065D01*
X009952Y027080D01*
X009946Y027096D01*
X009944Y027114D01*
X016007Y027035D02*
X016007Y026759D01*
X016007Y027035D02*
X016282Y027035D01*
X017936Y027035D02*
X018212Y027035D01*
X018212Y026759D01*
X018211Y027114D02*
X018213Y027132D01*
X018219Y027148D01*
X018228Y027163D01*
X018241Y027176D01*
X018256Y027185D01*
X018272Y027191D01*
X018290Y027193D01*
X018308Y027191D01*
X018324Y027185D01*
X018339Y027176D01*
X018352Y027163D01*
X018361Y027148D01*
X018367Y027132D01*
X018369Y027114D01*
X018367Y027096D01*
X018361Y027080D01*
X018352Y027065D01*
X018339Y027052D01*
X018324Y027043D01*
X018308Y027037D01*
X018290Y027035D01*
X018272Y027037D01*
X018256Y027043D01*
X018241Y027052D01*
X018228Y027065D01*
X018219Y027080D01*
X018213Y027096D01*
X018211Y027114D01*
X018212Y025106D02*
X018212Y024830D01*
X017936Y024830D01*
X016282Y024830D02*
X016007Y024830D01*
X016007Y025106D01*
X024275Y025106D02*
X024275Y024830D01*
X024550Y024830D01*
X026204Y024830D02*
X026479Y024830D01*
X026479Y025106D01*
X026479Y026759D02*
X026479Y027035D01*
X026204Y027035D01*
X026479Y027114D02*
X026481Y027132D01*
X026487Y027148D01*
X026496Y027163D01*
X026509Y027176D01*
X026524Y027185D01*
X026540Y027191D01*
X026558Y027193D01*
X026576Y027191D01*
X026592Y027185D01*
X026607Y027176D01*
X026620Y027163D01*
X026629Y027148D01*
X026635Y027132D01*
X026637Y027114D01*
X026635Y027096D01*
X026629Y027080D01*
X026620Y027065D01*
X026607Y027052D01*
X026592Y027043D01*
X026576Y027037D01*
X026558Y027035D01*
X026540Y027037D01*
X026524Y027043D01*
X026509Y027052D01*
X026496Y027065D01*
X026487Y027080D01*
X026481Y027096D01*
X026479Y027114D01*
X024550Y027035D02*
X024275Y027035D01*
X024275Y026759D01*
X032542Y026759D02*
X032542Y027035D01*
X032818Y027035D01*
X034471Y027035D02*
X034747Y027035D01*
X034747Y026759D01*
X034747Y027114D02*
X034749Y027132D01*
X034755Y027148D01*
X034764Y027163D01*
X034777Y027176D01*
X034792Y027185D01*
X034808Y027191D01*
X034826Y027193D01*
X034844Y027191D01*
X034860Y027185D01*
X034875Y027176D01*
X034888Y027163D01*
X034897Y027148D01*
X034903Y027132D01*
X034905Y027114D01*
X034903Y027096D01*
X034897Y027080D01*
X034888Y027065D01*
X034875Y027052D01*
X034860Y027043D01*
X034844Y027037D01*
X034826Y027035D01*
X034808Y027037D01*
X034792Y027043D01*
X034777Y027052D01*
X034764Y027065D01*
X034755Y027080D01*
X034749Y027096D01*
X034747Y027114D01*
X034747Y025106D02*
X034747Y024830D01*
X034471Y024830D01*
X032818Y024830D02*
X032542Y024830D01*
X032542Y025106D01*
X032542Y014752D02*
X032818Y014752D01*
X032542Y014752D02*
X032542Y014476D01*
X032542Y012822D02*
X032542Y012547D01*
X032818Y012547D01*
X034471Y012547D02*
X034747Y012547D01*
X034747Y012822D01*
X034747Y014476D02*
X034747Y014752D01*
X034471Y014752D01*
X034747Y014830D02*
X034749Y014848D01*
X034755Y014864D01*
X034764Y014879D01*
X034777Y014892D01*
X034792Y014901D01*
X034808Y014907D01*
X034826Y014909D01*
X034844Y014907D01*
X034860Y014901D01*
X034875Y014892D01*
X034888Y014879D01*
X034897Y014864D01*
X034903Y014848D01*
X034905Y014830D01*
X034903Y014812D01*
X034897Y014796D01*
X034888Y014781D01*
X034875Y014768D01*
X034860Y014759D01*
X034844Y014753D01*
X034826Y014751D01*
X034808Y014753D01*
X034792Y014759D01*
X034777Y014768D01*
X034764Y014781D01*
X034755Y014796D01*
X034749Y014812D01*
X034747Y014830D01*
X026479Y014830D02*
X026481Y014848D01*
X026487Y014864D01*
X026496Y014879D01*
X026509Y014892D01*
X026524Y014901D01*
X026540Y014907D01*
X026558Y014909D01*
X026576Y014907D01*
X026592Y014901D01*
X026607Y014892D01*
X026620Y014879D01*
X026629Y014864D01*
X026635Y014848D01*
X026637Y014830D01*
X026635Y014812D01*
X026629Y014796D01*
X026620Y014781D01*
X026607Y014768D01*
X026592Y014759D01*
X026576Y014753D01*
X026558Y014751D01*
X026540Y014753D01*
X026524Y014759D01*
X026509Y014768D01*
X026496Y014781D01*
X026487Y014796D01*
X026481Y014812D01*
X026479Y014830D01*
X026479Y014752D02*
X026204Y014752D01*
X026479Y014752D02*
X026479Y014476D01*
X026479Y012822D02*
X026479Y012547D01*
X026204Y012547D01*
X024550Y012547D02*
X024275Y012547D01*
X024275Y012822D01*
X024275Y014476D02*
X024275Y014752D01*
X024550Y014752D01*
X018211Y014830D02*
X018213Y014848D01*
X018219Y014864D01*
X018228Y014879D01*
X018241Y014892D01*
X018256Y014901D01*
X018272Y014907D01*
X018290Y014909D01*
X018308Y014907D01*
X018324Y014901D01*
X018339Y014892D01*
X018352Y014879D01*
X018361Y014864D01*
X018367Y014848D01*
X018369Y014830D01*
X018367Y014812D01*
X018361Y014796D01*
X018352Y014781D01*
X018339Y014768D01*
X018324Y014759D01*
X018308Y014753D01*
X018290Y014751D01*
X018272Y014753D01*
X018256Y014759D01*
X018241Y014768D01*
X018228Y014781D01*
X018219Y014796D01*
X018213Y014812D01*
X018211Y014830D01*
X018212Y014752D02*
X017936Y014752D01*
X018212Y014752D02*
X018212Y014476D01*
X018212Y012822D02*
X018212Y012547D01*
X017936Y012547D01*
X016282Y012547D02*
X016007Y012547D01*
X016007Y012822D01*
X016007Y014476D02*
X016007Y014752D01*
X016282Y014752D01*
X009944Y014830D02*
X009946Y014848D01*
X009952Y014864D01*
X009961Y014879D01*
X009974Y014892D01*
X009989Y014901D01*
X010005Y014907D01*
X010023Y014909D01*
X010041Y014907D01*
X010057Y014901D01*
X010072Y014892D01*
X010085Y014879D01*
X010094Y014864D01*
X010100Y014848D01*
X010102Y014830D01*
X010100Y014812D01*
X010094Y014796D01*
X010085Y014781D01*
X010072Y014768D01*
X010057Y014759D01*
X010041Y014753D01*
X010023Y014751D01*
X010005Y014753D01*
X009989Y014759D01*
X009974Y014768D01*
X009961Y014781D01*
X009952Y014796D01*
X009946Y014812D01*
X009944Y014830D01*
X009944Y014752D02*
X009668Y014752D01*
X009944Y014752D02*
X009944Y014476D01*
X009944Y012822D02*
X009944Y012547D01*
X009668Y012547D01*
X008015Y012547D02*
X007739Y012547D01*
X007739Y012822D01*
X007739Y014476D02*
X007739Y014752D01*
X008015Y014752D01*
D16*
X007818Y011720D02*
X007739Y011720D01*
X007739Y011641D02*
X007818Y011641D01*
X008172Y011208D02*
X008172Y010972D01*
X008251Y010972D02*
X008251Y011208D01*
X007818Y010539D02*
X007739Y010539D01*
X007739Y010460D02*
X007818Y010460D01*
X007385Y010972D02*
X007385Y011208D01*
X007306Y011208D02*
X007306Y010972D01*
X015574Y010972D02*
X015574Y011208D01*
X015653Y011208D02*
X015653Y010972D01*
X016007Y010539D02*
X016086Y010539D01*
X016086Y010460D02*
X016007Y010460D01*
X016440Y010972D02*
X016440Y011208D01*
X016519Y011208D02*
X016519Y010972D01*
X016086Y011641D02*
X016007Y011641D01*
X016007Y011720D02*
X016086Y011720D01*
X023841Y011208D02*
X023841Y010972D01*
X023920Y010972D02*
X023920Y011208D01*
X024275Y011641D02*
X024353Y011641D01*
X024353Y011720D02*
X024275Y011720D01*
X024708Y011208D02*
X024708Y010972D01*
X024786Y010972D02*
X024786Y011208D01*
X024353Y010539D02*
X024275Y010539D01*
X024275Y010460D02*
X024353Y010460D01*
X032109Y010972D02*
X032109Y011208D01*
X032188Y011208D02*
X032188Y010972D01*
X032542Y010539D02*
X032621Y010539D01*
X032621Y010460D02*
X032542Y010460D01*
X032975Y010972D02*
X032975Y011208D01*
X033054Y011208D02*
X033054Y010972D01*
X032621Y011641D02*
X032542Y011641D01*
X032542Y011720D02*
X032621Y011720D01*
X032542Y022744D02*
X032621Y022744D01*
X032621Y022822D02*
X032542Y022822D01*
X032188Y023256D02*
X032188Y023492D01*
X032109Y023492D02*
X032109Y023256D01*
X032542Y023925D02*
X032621Y023925D01*
X032621Y024004D02*
X032542Y024004D01*
X032975Y023492D02*
X032975Y023256D01*
X033054Y023256D02*
X033054Y023492D01*
X024786Y023492D02*
X024786Y023256D01*
X024708Y023256D02*
X024708Y023492D01*
X024353Y022822D02*
X024275Y022822D01*
X024275Y022744D02*
X024353Y022744D01*
X023920Y023256D02*
X023920Y023492D01*
X023841Y023492D02*
X023841Y023256D01*
X024275Y023925D02*
X024353Y023925D01*
X024353Y024004D02*
X024275Y024004D01*
X016519Y023492D02*
X016519Y023256D01*
X016440Y023256D02*
X016440Y023492D01*
X016086Y022822D02*
X016007Y022822D01*
X016007Y022744D02*
X016086Y022744D01*
X015653Y023256D02*
X015653Y023492D01*
X015574Y023492D02*
X015574Y023256D01*
X016007Y023925D02*
X016086Y023925D01*
X016086Y024004D02*
X016007Y024004D01*
X008251Y023492D02*
X008251Y023256D01*
X008172Y023256D02*
X008172Y023492D01*
X007818Y022822D02*
X007739Y022822D01*
X007739Y022744D02*
X007818Y022744D01*
X007385Y023256D02*
X007385Y023492D01*
X007306Y023492D02*
X007306Y023256D01*
X007739Y023925D02*
X007818Y023925D01*
X007818Y024004D02*
X007739Y024004D01*
M02*
