G75*
%MOIN*%
%OFA0B0*%
%FSLAX24Y24*%
%IPPOS*%
%LPD*%
%AMOC8*
5,1,8,0,0,1.08239X$1,22.5*
%
%ADD10C,0.1655*%
%ADD11R,0.0787X0.0787*%
%ADD12OC8,0.0671*%
%ADD13R,0.1378X0.1378*%
%ADD14R,0.0138X0.0492*%
%ADD15R,0.0492X0.0138*%
%ADD16R,0.0315X0.0315*%
%ADD17C,0.0050*%
%ADD18C,0.0474*%
%ADD19R,0.0197X0.0315*%
%ADD20R,0.0709X0.0709*%
%ADD21R,0.0512X0.0591*%
D10*
X006685Y006405D03*
X035503Y006405D03*
X035503Y035224D03*
X006685Y035224D03*
D11*
X010622Y035224D03*
X033535Y006405D03*
D12*
X036996Y009173D03*
X036996Y010173D03*
X036996Y011173D03*
X035996Y011673D03*
X036996Y012173D03*
X036996Y013173D03*
X036996Y014173D03*
X036996Y015173D03*
X036996Y016173D03*
X036996Y017173D03*
X036996Y018173D03*
X036996Y019173D03*
X035996Y019173D03*
X034996Y019173D03*
X033996Y019173D03*
X032996Y019173D03*
X031996Y019173D03*
X030996Y019173D03*
X029996Y019173D03*
X029996Y020173D03*
X028728Y020173D03*
X028728Y019173D03*
X027728Y019173D03*
X026728Y019173D03*
X025728Y019173D03*
X024728Y019173D03*
X023728Y019173D03*
X022728Y019173D03*
X021728Y019173D03*
X021728Y020173D03*
X020460Y020173D03*
X020460Y019173D03*
X019460Y019173D03*
X018460Y019173D03*
X017460Y019173D03*
X016460Y019173D03*
X015460Y019173D03*
X014460Y019173D03*
X013460Y019173D03*
X013460Y020173D03*
X013460Y021456D03*
X013460Y022456D03*
X013460Y023456D03*
X013460Y024456D03*
X013460Y025456D03*
X013460Y026456D03*
X013460Y027456D03*
X013460Y028456D03*
X013460Y029456D03*
X013460Y030456D03*
X013460Y031456D03*
X014460Y031456D03*
X013460Y032456D03*
X012192Y032456D03*
X012192Y031456D03*
X011192Y031456D03*
X010192Y031456D03*
X009192Y031456D03*
X008192Y031456D03*
X007192Y031456D03*
X006192Y031456D03*
X005192Y031456D03*
X005192Y032456D03*
X005192Y030456D03*
X005192Y029456D03*
X005192Y028456D03*
X005192Y027456D03*
X005192Y026456D03*
X005192Y025456D03*
X005192Y024456D03*
X005192Y023456D03*
X005192Y022456D03*
X005192Y021456D03*
X005192Y020173D03*
X005192Y019173D03*
X006192Y019173D03*
X007192Y019173D03*
X008192Y019173D03*
X009192Y019173D03*
X010192Y019173D03*
X011192Y019173D03*
X012192Y019173D03*
X012192Y020173D03*
X012192Y021456D03*
X012192Y022456D03*
X012192Y023456D03*
X011192Y022956D03*
X010192Y022956D03*
X010192Y023956D03*
X011192Y023956D03*
X012192Y024456D03*
X012192Y025456D03*
X012192Y026456D03*
X012192Y027456D03*
X012192Y028456D03*
X012192Y029456D03*
X012192Y030456D03*
X015460Y031456D03*
X016460Y031456D03*
X017460Y031456D03*
X018460Y031456D03*
X019460Y031456D03*
X020460Y031456D03*
X020460Y032456D03*
X021728Y032456D03*
X021728Y031456D03*
X021728Y030456D03*
X021728Y029456D03*
X021728Y028456D03*
X021728Y027456D03*
X021728Y026456D03*
X021728Y025456D03*
X021728Y024456D03*
X021728Y023456D03*
X021728Y022456D03*
X021728Y021456D03*
X020460Y021456D03*
X020460Y022456D03*
X020460Y023456D03*
X019460Y022956D03*
X018460Y022956D03*
X018460Y023956D03*
X019460Y023956D03*
X020460Y024456D03*
X020460Y025456D03*
X020460Y026456D03*
X020460Y027456D03*
X020460Y028456D03*
X020460Y029456D03*
X020460Y030456D03*
X022728Y031456D03*
X023728Y031456D03*
X024728Y031456D03*
X025728Y031456D03*
X026728Y031456D03*
X027728Y031456D03*
X028728Y031456D03*
X028728Y032456D03*
X029996Y032456D03*
X029996Y031456D03*
X030996Y031456D03*
X031996Y031456D03*
X032996Y031456D03*
X033996Y031456D03*
X034996Y031456D03*
X035996Y031456D03*
X036996Y031456D03*
X036996Y032456D03*
X036996Y030456D03*
X036996Y029456D03*
X036996Y028456D03*
X036996Y027456D03*
X036996Y026456D03*
X036996Y025456D03*
X036996Y024456D03*
X035996Y023956D03*
X036996Y023456D03*
X036996Y022456D03*
X035996Y022956D03*
X034996Y022956D03*
X034996Y023956D03*
X036996Y021456D03*
X036996Y020173D03*
X032996Y015673D03*
X031996Y015673D03*
X029996Y016173D03*
X029996Y017173D03*
X029996Y018173D03*
X028728Y018173D03*
X028728Y017173D03*
X028728Y016173D03*
X028728Y015173D03*
X028728Y014173D03*
X028728Y013173D03*
X028728Y012173D03*
X027728Y011673D03*
X028728Y011173D03*
X028728Y010173D03*
X027728Y010673D03*
X026728Y010673D03*
X026728Y011673D03*
X028728Y009173D03*
X029996Y009173D03*
X029996Y010173D03*
X029996Y011173D03*
X029996Y012173D03*
X029996Y013173D03*
X029996Y014173D03*
X029996Y015173D03*
X024728Y015673D03*
X023728Y015673D03*
X021728Y016173D03*
X021728Y017173D03*
X021728Y018173D03*
X020460Y018173D03*
X020460Y017173D03*
X020460Y016173D03*
X020460Y015173D03*
X020460Y014173D03*
X020460Y013173D03*
X020460Y012173D03*
X019460Y011673D03*
X020460Y011173D03*
X020460Y010173D03*
X019460Y010673D03*
X018460Y010673D03*
X018460Y011673D03*
X020460Y009173D03*
X021728Y009173D03*
X021728Y010173D03*
X021728Y011173D03*
X021728Y012173D03*
X021728Y013173D03*
X021728Y014173D03*
X021728Y015173D03*
X016460Y015673D03*
X015460Y015673D03*
X013460Y016173D03*
X013460Y017173D03*
X013460Y018173D03*
X012192Y018173D03*
X012192Y017173D03*
X012192Y016173D03*
X012192Y015173D03*
X012192Y014173D03*
X012192Y013173D03*
X012192Y012173D03*
X011192Y011673D03*
X012192Y011173D03*
X012192Y010173D03*
X011192Y010673D03*
X010192Y010673D03*
X010192Y011673D03*
X012192Y009173D03*
X013460Y009173D03*
X013460Y010173D03*
X013460Y011173D03*
X013460Y012173D03*
X013460Y013173D03*
X013460Y014173D03*
X013460Y015173D03*
X008192Y015673D03*
X007192Y015673D03*
X005192Y016173D03*
X005192Y017173D03*
X005192Y018173D03*
X005192Y015173D03*
X005192Y014173D03*
X005192Y013173D03*
X005192Y012173D03*
X005192Y011173D03*
X005192Y010173D03*
X005192Y009173D03*
X007192Y027956D03*
X008192Y027956D03*
X015460Y027956D03*
X016460Y027956D03*
X023728Y027956D03*
X024728Y027956D03*
X028728Y027456D03*
X028728Y026456D03*
X028728Y025456D03*
X028728Y024456D03*
X027728Y023956D03*
X028728Y023456D03*
X028728Y022456D03*
X027728Y022956D03*
X026728Y022956D03*
X026728Y023956D03*
X028728Y021456D03*
X029996Y021456D03*
X029996Y022456D03*
X029996Y023456D03*
X029996Y024456D03*
X029996Y025456D03*
X029996Y026456D03*
X029996Y027456D03*
X029996Y028456D03*
X029996Y029456D03*
X029996Y030456D03*
X028728Y030456D03*
X028728Y029456D03*
X028728Y028456D03*
X031996Y027956D03*
X032996Y027956D03*
X034996Y011673D03*
X034996Y010673D03*
X035996Y010673D03*
D13*
X033574Y013649D03*
X025307Y013649D03*
X017039Y013649D03*
X008771Y013649D03*
X008771Y025933D03*
X017039Y025933D03*
X025307Y025933D03*
X033574Y025933D03*
D14*
X033476Y026976D03*
X033673Y026976D03*
X033870Y026976D03*
X034066Y026976D03*
X034263Y026976D03*
X033279Y026976D03*
X033082Y026976D03*
X032885Y026976D03*
X032885Y024889D03*
X033082Y024889D03*
X033279Y024889D03*
X033476Y024889D03*
X033673Y024889D03*
X033870Y024889D03*
X034066Y024889D03*
X034263Y024889D03*
X025996Y024889D03*
X025799Y024889D03*
X025602Y024889D03*
X025405Y024889D03*
X025208Y024889D03*
X025011Y024889D03*
X024815Y024889D03*
X024618Y024889D03*
X024618Y026976D03*
X024815Y026976D03*
X025011Y026976D03*
X025208Y026976D03*
X025405Y026976D03*
X025602Y026976D03*
X025799Y026976D03*
X025996Y026976D03*
X017728Y026976D03*
X017531Y026976D03*
X017334Y026976D03*
X017137Y026976D03*
X016941Y026976D03*
X016744Y026976D03*
X016547Y026976D03*
X016350Y026976D03*
X016350Y024889D03*
X016547Y024889D03*
X016744Y024889D03*
X016941Y024889D03*
X017137Y024889D03*
X017334Y024889D03*
X017531Y024889D03*
X017728Y024889D03*
X009460Y024889D03*
X009263Y024889D03*
X009066Y024889D03*
X008870Y024889D03*
X008673Y024889D03*
X008476Y024889D03*
X008279Y024889D03*
X008082Y024889D03*
X008082Y026976D03*
X008279Y026976D03*
X008476Y026976D03*
X008673Y026976D03*
X008870Y026976D03*
X009066Y026976D03*
X009263Y026976D03*
X009460Y026976D03*
X009460Y014693D03*
X009263Y014693D03*
X009066Y014693D03*
X008870Y014693D03*
X008673Y014693D03*
X008476Y014693D03*
X008279Y014693D03*
X008082Y014693D03*
X008082Y012606D03*
X008279Y012606D03*
X008476Y012606D03*
X008673Y012606D03*
X008870Y012606D03*
X009066Y012606D03*
X009263Y012606D03*
X009460Y012606D03*
X016350Y012606D03*
X016547Y012606D03*
X016744Y012606D03*
X016941Y012606D03*
X017137Y012606D03*
X017334Y012606D03*
X017531Y012606D03*
X017728Y012606D03*
X017728Y014693D03*
X017531Y014693D03*
X017334Y014693D03*
X017137Y014693D03*
X016941Y014693D03*
X016744Y014693D03*
X016547Y014693D03*
X016350Y014693D03*
X024618Y014693D03*
X024815Y014693D03*
X025011Y014693D03*
X025208Y014693D03*
X025405Y014693D03*
X025602Y014693D03*
X025799Y014693D03*
X025996Y014693D03*
X025996Y012606D03*
X025799Y012606D03*
X025602Y012606D03*
X025405Y012606D03*
X025208Y012606D03*
X025011Y012606D03*
X024815Y012606D03*
X024618Y012606D03*
X032885Y012606D03*
X033082Y012606D03*
X033279Y012606D03*
X033476Y012606D03*
X033673Y012606D03*
X033870Y012606D03*
X034066Y012606D03*
X034263Y012606D03*
X034263Y014693D03*
X034066Y014693D03*
X033870Y014693D03*
X033673Y014693D03*
X033476Y014693D03*
X033279Y014693D03*
X033082Y014693D03*
X032885Y014693D03*
D15*
X032531Y014338D03*
X032531Y014141D03*
X032531Y013944D03*
X032531Y013748D03*
X032531Y013551D03*
X032531Y013354D03*
X032531Y013157D03*
X032531Y012960D03*
X034618Y012960D03*
X034618Y013157D03*
X034618Y013354D03*
X034618Y013551D03*
X034618Y013748D03*
X034618Y013944D03*
X034618Y014141D03*
X034618Y014338D03*
X032561Y016887D03*
X032561Y017143D03*
X032561Y017399D03*
X032561Y017655D03*
X030809Y017655D03*
X030809Y017399D03*
X030809Y017143D03*
X030809Y016887D03*
X026350Y014338D03*
X026350Y014141D03*
X026350Y013944D03*
X026350Y013748D03*
X026350Y013551D03*
X026350Y013354D03*
X026350Y013157D03*
X026350Y012960D03*
X024263Y012960D03*
X024263Y013157D03*
X024263Y013354D03*
X024263Y013551D03*
X024263Y013748D03*
X024263Y013944D03*
X024263Y014141D03*
X024263Y014338D03*
X024293Y016887D03*
X024293Y017143D03*
X024293Y017399D03*
X024293Y017655D03*
X022541Y017655D03*
X022541Y017399D03*
X022541Y017143D03*
X022541Y016887D03*
X018082Y014338D03*
X018082Y014141D03*
X018082Y013944D03*
X018082Y013748D03*
X018082Y013551D03*
X018082Y013354D03*
X018082Y013157D03*
X018082Y012960D03*
X015996Y012960D03*
X015996Y013157D03*
X015996Y013354D03*
X015996Y013551D03*
X015996Y013748D03*
X015996Y013944D03*
X015996Y014141D03*
X015996Y014338D03*
X016025Y016887D03*
X016025Y017143D03*
X016025Y017399D03*
X016025Y017655D03*
X014273Y017655D03*
X014273Y017399D03*
X014273Y017143D03*
X014273Y016887D03*
X009815Y014338D03*
X009815Y014141D03*
X009815Y013944D03*
X009815Y013748D03*
X009815Y013551D03*
X009815Y013354D03*
X009815Y013157D03*
X009815Y012960D03*
X007728Y012960D03*
X007728Y013157D03*
X007728Y013354D03*
X007728Y013551D03*
X007728Y013748D03*
X007728Y013944D03*
X007728Y014141D03*
X007728Y014338D03*
X007757Y016887D03*
X007757Y017143D03*
X007757Y017399D03*
X007757Y017655D03*
X006005Y017655D03*
X006005Y017399D03*
X006005Y017143D03*
X006005Y016887D03*
X007728Y025244D03*
X007728Y025441D03*
X007728Y025637D03*
X007728Y025834D03*
X007728Y026031D03*
X007728Y026228D03*
X007728Y026425D03*
X007728Y026622D03*
X009815Y026622D03*
X009815Y026425D03*
X009815Y026228D03*
X009815Y026031D03*
X009815Y025834D03*
X009815Y025637D03*
X009815Y025441D03*
X009815Y025244D03*
X007757Y029171D03*
X007757Y029427D03*
X007757Y029683D03*
X007757Y029939D03*
X006005Y029939D03*
X006005Y029683D03*
X006005Y029427D03*
X006005Y029171D03*
X014273Y029171D03*
X014273Y029427D03*
X014273Y029683D03*
X014273Y029939D03*
X016025Y029939D03*
X016025Y029683D03*
X016025Y029427D03*
X016025Y029171D03*
X015996Y026622D03*
X015996Y026425D03*
X015996Y026228D03*
X015996Y026031D03*
X015996Y025834D03*
X015996Y025637D03*
X015996Y025441D03*
X015996Y025244D03*
X018082Y025244D03*
X018082Y025441D03*
X018082Y025637D03*
X018082Y025834D03*
X018082Y026031D03*
X018082Y026228D03*
X018082Y026425D03*
X018082Y026622D03*
X022541Y029171D03*
X022541Y029427D03*
X022541Y029683D03*
X022541Y029939D03*
X024293Y029939D03*
X024293Y029683D03*
X024293Y029427D03*
X024293Y029171D03*
X024263Y026622D03*
X024263Y026425D03*
X024263Y026228D03*
X024263Y026031D03*
X024263Y025834D03*
X024263Y025637D03*
X024263Y025441D03*
X024263Y025244D03*
X026350Y025244D03*
X026350Y025441D03*
X026350Y025637D03*
X026350Y025834D03*
X026350Y026031D03*
X026350Y026228D03*
X026350Y026425D03*
X026350Y026622D03*
X030809Y029171D03*
X030809Y029427D03*
X030809Y029683D03*
X030809Y029939D03*
X032561Y029939D03*
X032561Y029683D03*
X032561Y029427D03*
X032561Y029171D03*
X032531Y026622D03*
X032531Y026425D03*
X032531Y026228D03*
X032531Y026031D03*
X032531Y025834D03*
X032531Y025637D03*
X032531Y025441D03*
X032531Y025244D03*
X034618Y025244D03*
X034618Y025441D03*
X034618Y025637D03*
X034618Y025834D03*
X034618Y026031D03*
X034618Y026228D03*
X034618Y026425D03*
X034618Y026622D03*
D16*
X034795Y027586D03*
X034322Y027586D03*
X034322Y028059D03*
X034795Y028059D03*
X036015Y029437D03*
X036015Y029909D03*
X033889Y030145D03*
X033889Y030618D03*
X033141Y030618D03*
X033141Y030145D03*
X033181Y028728D03*
X032708Y028728D03*
X030897Y028413D03*
X030897Y027941D03*
X030897Y027547D03*
X030897Y027074D03*
X030897Y026641D03*
X030897Y026169D03*
X030897Y025696D03*
X030897Y025224D03*
X030897Y024673D03*
X030897Y024200D03*
X030897Y023689D03*
X030897Y023216D03*
X030897Y022704D03*
X030897Y022232D03*
X030897Y021838D03*
X030897Y021366D03*
X032315Y022350D03*
X032787Y022350D03*
X033535Y023452D03*
X034007Y023452D03*
X034007Y023925D03*
X033535Y023925D03*
X032669Y024397D03*
X032196Y024397D03*
X027748Y029437D03*
X027748Y029909D03*
X026527Y028059D03*
X026055Y028059D03*
X026055Y027586D03*
X026527Y027586D03*
X024913Y028728D03*
X024441Y028728D03*
X024874Y030145D03*
X024874Y030618D03*
X025622Y030618D03*
X025622Y030145D03*
X022944Y030381D03*
X022472Y030381D03*
X022629Y028413D03*
X022629Y027941D03*
X022629Y027547D03*
X022629Y027074D03*
X022629Y026641D03*
X022629Y026169D03*
X022629Y025696D03*
X022629Y025224D03*
X022629Y024673D03*
X022629Y024200D03*
X022629Y023689D03*
X022629Y023216D03*
X022629Y022704D03*
X022629Y022232D03*
X022629Y021838D03*
X022629Y021366D03*
X024047Y022350D03*
X024519Y022350D03*
X025267Y023452D03*
X025740Y023452D03*
X025740Y023925D03*
X025267Y023925D03*
X024401Y024397D03*
X023929Y024397D03*
X019480Y029437D03*
X019480Y029909D03*
X018259Y028059D03*
X017787Y028059D03*
X017787Y027586D03*
X018259Y027586D03*
X016645Y028728D03*
X016173Y028728D03*
X016606Y030145D03*
X017354Y030145D03*
X017354Y030618D03*
X016606Y030618D03*
X014677Y030381D03*
X014204Y030381D03*
X014362Y028413D03*
X014362Y027941D03*
X014362Y027547D03*
X014362Y027074D03*
X014362Y026641D03*
X014362Y026169D03*
X014362Y025696D03*
X014362Y025224D03*
X014362Y024673D03*
X014362Y024200D03*
X014362Y023689D03*
X014362Y023216D03*
X014362Y022704D03*
X014362Y022232D03*
X014362Y021838D03*
X014362Y021366D03*
X015779Y022350D03*
X016252Y022350D03*
X017000Y023452D03*
X017472Y023452D03*
X017472Y023925D03*
X017000Y023925D03*
X016133Y024397D03*
X015661Y024397D03*
X011212Y029437D03*
X011212Y029909D03*
X009992Y028059D03*
X009519Y028059D03*
X009519Y027586D03*
X009992Y027586D03*
X008378Y028728D03*
X007905Y028728D03*
X008338Y030145D03*
X009086Y030145D03*
X009086Y030618D03*
X008338Y030618D03*
X006409Y030381D03*
X005937Y030381D03*
X006094Y028413D03*
X006094Y027941D03*
X006094Y027547D03*
X006094Y027074D03*
X006094Y026641D03*
X006094Y026169D03*
X006094Y025696D03*
X006094Y025224D03*
X006094Y024673D03*
X006094Y024200D03*
X006094Y023689D03*
X006094Y023216D03*
X006094Y022704D03*
X006094Y022232D03*
X006094Y021838D03*
X006094Y021366D03*
X007511Y022350D03*
X007984Y022350D03*
X008732Y023452D03*
X009204Y023452D03*
X009204Y023925D03*
X008732Y023925D03*
X007866Y024397D03*
X007393Y024397D03*
X008338Y018334D03*
X009086Y018334D03*
X009086Y017862D03*
X008338Y017862D03*
X008378Y016444D03*
X007905Y016444D03*
X006094Y016130D03*
X006094Y015657D03*
X006094Y015263D03*
X006094Y014791D03*
X006094Y014358D03*
X006094Y013885D03*
X006094Y013413D03*
X006094Y012941D03*
X006094Y012389D03*
X006094Y011917D03*
X006094Y011405D03*
X006094Y010933D03*
X006094Y010421D03*
X006094Y009948D03*
X006094Y009555D03*
X006094Y009082D03*
X007511Y010067D03*
X007984Y010067D03*
X008732Y011169D03*
X009204Y011169D03*
X009204Y011641D03*
X008732Y011641D03*
X007866Y012114D03*
X007393Y012114D03*
X009519Y015303D03*
X009519Y015775D03*
X009992Y015775D03*
X009992Y015303D03*
X011212Y017153D03*
X011212Y017626D03*
X014204Y018098D03*
X014677Y018098D03*
X016606Y017862D03*
X017354Y017862D03*
X017354Y018334D03*
X016606Y018334D03*
X016645Y016444D03*
X016173Y016444D03*
X017787Y015775D03*
X017787Y015303D03*
X018259Y015303D03*
X018259Y015775D03*
X019480Y017153D03*
X019480Y017626D03*
X022472Y018098D03*
X022944Y018098D03*
X024874Y017862D03*
X024874Y018334D03*
X025622Y018334D03*
X025622Y017862D03*
X024913Y016444D03*
X024441Y016444D03*
X026055Y015775D03*
X026055Y015303D03*
X026527Y015303D03*
X026527Y015775D03*
X027748Y017153D03*
X027748Y017626D03*
X030740Y018098D03*
X031212Y018098D03*
X032708Y016444D03*
X033181Y016444D03*
X034322Y015775D03*
X034322Y015303D03*
X034795Y015303D03*
X034795Y015775D03*
X036015Y017153D03*
X036015Y017626D03*
X033889Y017862D03*
X033889Y018334D03*
X033141Y018334D03*
X033141Y017862D03*
X030897Y016130D03*
X030897Y015657D03*
X030897Y015263D03*
X030897Y014791D03*
X030897Y014358D03*
X030897Y013885D03*
X030897Y013413D03*
X030897Y012941D03*
X030897Y012389D03*
X030897Y011917D03*
X030897Y011405D03*
X030897Y010933D03*
X030897Y010421D03*
X030897Y009948D03*
X030897Y009555D03*
X030897Y009082D03*
X032315Y010067D03*
X032787Y010067D03*
X033535Y011169D03*
X033535Y011641D03*
X034007Y011641D03*
X034007Y011169D03*
X032669Y012114D03*
X032196Y012114D03*
X025740Y011641D03*
X025740Y011169D03*
X025267Y011169D03*
X025267Y011641D03*
X024401Y012114D03*
X023929Y012114D03*
X022629Y011917D03*
X022629Y011405D03*
X022629Y010933D03*
X022629Y010421D03*
X022629Y009948D03*
X022629Y009555D03*
X022629Y009082D03*
X024047Y010067D03*
X024519Y010067D03*
X022629Y012389D03*
X022629Y012941D03*
X022629Y013413D03*
X022629Y013885D03*
X022629Y014358D03*
X022629Y014791D03*
X022629Y015263D03*
X022629Y015657D03*
X022629Y016130D03*
X017472Y011641D03*
X017472Y011169D03*
X017000Y011169D03*
X017000Y011641D03*
X016133Y012114D03*
X015661Y012114D03*
X014362Y011917D03*
X014362Y011405D03*
X014362Y010933D03*
X014362Y010421D03*
X014362Y009948D03*
X014362Y009555D03*
X014362Y009082D03*
X015779Y010067D03*
X016252Y010067D03*
X014362Y012389D03*
X014362Y012941D03*
X014362Y013413D03*
X014362Y013885D03*
X014362Y014358D03*
X014362Y014791D03*
X014362Y015263D03*
X014362Y015657D03*
X014362Y016130D03*
X006409Y018098D03*
X005937Y018098D03*
X030740Y030381D03*
X031212Y030381D03*
D17*
X030847Y030689D02*
X030826Y030667D01*
X030800Y030651D01*
X030770Y030641D01*
X030740Y030637D01*
X030709Y030641D01*
X030680Y030651D01*
X030654Y030667D01*
X030632Y030689D01*
X030616Y030715D01*
X030605Y030745D01*
X030602Y030775D01*
X030605Y030806D01*
X030616Y030835D01*
X030632Y030861D01*
X030654Y030883D01*
X030680Y030899D01*
X030709Y030910D01*
X030740Y030913D01*
X030770Y030910D01*
X030800Y030899D01*
X030826Y030883D01*
X030847Y030861D01*
X030864Y030835D01*
X030874Y030806D01*
X030878Y030775D01*
X030874Y030745D01*
X030864Y030715D01*
X030847Y030689D01*
X030833Y030675D02*
X030646Y030675D01*
X030613Y030724D02*
X030867Y030724D01*
X030877Y030772D02*
X030602Y030772D01*
X030611Y030821D02*
X030869Y030821D01*
X030839Y030869D02*
X030640Y030869D01*
X033358Y030618D02*
X033361Y030587D01*
X033371Y030558D01*
X033388Y030532D01*
X033410Y030510D01*
X033436Y030494D01*
X033465Y030483D01*
X033496Y030480D01*
X033526Y030483D01*
X033555Y030494D01*
X033582Y030510D01*
X033603Y030532D01*
X033620Y030558D01*
X033630Y030587D01*
X033633Y030618D01*
X033630Y030648D01*
X033620Y030678D01*
X033603Y030704D01*
X033582Y030725D01*
X033555Y030742D01*
X033526Y030752D01*
X033496Y030756D01*
X033465Y030752D01*
X033436Y030742D01*
X033410Y030725D01*
X033388Y030704D01*
X033371Y030678D01*
X033361Y030648D01*
X033358Y030618D01*
X033359Y030627D02*
X033632Y030627D01*
X033627Y030578D02*
X033364Y030578D01*
X033390Y030530D02*
X033601Y030530D01*
X033507Y030481D02*
X033484Y030481D01*
X033371Y030675D02*
X033621Y030675D01*
X033583Y030724D02*
X033408Y030724D01*
X033465Y030240D02*
X033496Y030244D01*
X033526Y030240D01*
X033555Y030230D01*
X033582Y030214D01*
X033603Y030192D01*
X033620Y030166D01*
X033630Y030137D01*
X033633Y030106D01*
X033630Y030075D01*
X033620Y030046D01*
X033603Y030020D01*
X033582Y029998D01*
X033555Y029982D01*
X033526Y029972D01*
X033496Y029968D01*
X033465Y029972D01*
X033436Y029982D01*
X033410Y029998D01*
X033388Y030020D01*
X033371Y030046D01*
X033361Y030075D01*
X033358Y030106D01*
X033361Y030137D01*
X033371Y030166D01*
X033388Y030192D01*
X033410Y030214D01*
X033436Y030230D01*
X033465Y030240D01*
X033461Y030239D02*
X033531Y030239D01*
X033604Y030190D02*
X033387Y030190D01*
X033363Y030142D02*
X033628Y030142D01*
X033632Y030093D02*
X033359Y030093D01*
X033372Y030045D02*
X033619Y030045D01*
X033578Y029996D02*
X033413Y029996D01*
X033535Y028866D02*
X033566Y028862D01*
X033595Y028852D01*
X033621Y028836D01*
X033643Y028814D01*
X033659Y028788D01*
X033669Y028759D01*
X033673Y028728D01*
X033669Y028697D01*
X033659Y028668D01*
X033643Y028642D01*
X033621Y028620D01*
X033595Y028604D01*
X033566Y028594D01*
X033535Y028590D01*
X033504Y028594D01*
X033475Y028604D01*
X033449Y028620D01*
X033427Y028642D01*
X033411Y028668D01*
X033401Y028697D01*
X033397Y028728D01*
X033401Y028759D01*
X033411Y028788D01*
X033427Y028814D01*
X033449Y028836D01*
X033475Y028852D01*
X033504Y028862D01*
X033535Y028866D01*
X033446Y028832D02*
X033624Y028832D01*
X033661Y028784D02*
X033409Y028784D01*
X033398Y028735D02*
X033672Y028735D01*
X033666Y028687D02*
X033404Y028687D01*
X033431Y028638D02*
X033639Y028638D01*
X025405Y028728D02*
X025402Y028697D01*
X025391Y028668D01*
X025375Y028642D01*
X025353Y028620D01*
X025327Y028604D01*
X025298Y028594D01*
X025267Y028590D01*
X025237Y028594D01*
X025207Y028604D01*
X025181Y028620D01*
X025160Y028642D01*
X025143Y028668D01*
X025133Y028697D01*
X025129Y028728D01*
X025133Y028759D01*
X025143Y028788D01*
X025160Y028814D01*
X025181Y028836D01*
X025207Y028852D01*
X025237Y028862D01*
X025267Y028866D01*
X025298Y028862D01*
X025327Y028852D01*
X025353Y028836D01*
X025375Y028814D01*
X025391Y028788D01*
X025402Y028759D01*
X025405Y028728D01*
X025404Y028735D02*
X025130Y028735D01*
X025137Y028687D02*
X025398Y028687D01*
X025371Y028638D02*
X025163Y028638D01*
X025142Y028784D02*
X025393Y028784D01*
X025357Y028832D02*
X025178Y028832D01*
X025228Y029968D02*
X025197Y029972D01*
X025168Y029982D01*
X025142Y029998D01*
X025120Y030020D01*
X025104Y030046D01*
X025094Y030075D01*
X025090Y030106D01*
X025094Y030137D01*
X025104Y030166D01*
X025120Y030192D01*
X025142Y030214D01*
X025168Y030230D01*
X025197Y030240D01*
X025228Y030244D01*
X025259Y030240D01*
X025288Y030230D01*
X025314Y030214D01*
X025336Y030192D01*
X025352Y030166D01*
X025362Y030137D01*
X025366Y030106D01*
X025362Y030075D01*
X025352Y030046D01*
X025336Y030020D01*
X025314Y029998D01*
X025288Y029982D01*
X025259Y029972D01*
X025228Y029968D01*
X025145Y029996D02*
X025311Y029996D01*
X025351Y030045D02*
X025105Y030045D01*
X025092Y030093D02*
X025364Y030093D01*
X025360Y030142D02*
X025095Y030142D01*
X025119Y030190D02*
X025337Y030190D01*
X025263Y030239D02*
X025193Y030239D01*
X025216Y030481D02*
X025240Y030481D01*
X025228Y030480D02*
X025197Y030483D01*
X025168Y030494D01*
X025142Y030510D01*
X025120Y030532D01*
X025104Y030558D01*
X025094Y030587D01*
X025090Y030618D01*
X025094Y030648D01*
X025104Y030678D01*
X025120Y030704D01*
X025142Y030725D01*
X025168Y030742D01*
X025197Y030752D01*
X025228Y030756D01*
X025259Y030752D01*
X025288Y030742D01*
X025314Y030725D01*
X025336Y030704D01*
X025352Y030678D01*
X025362Y030648D01*
X025366Y030618D01*
X025362Y030587D01*
X025352Y030558D01*
X025336Y030532D01*
X025314Y030510D01*
X025288Y030494D01*
X025259Y030483D01*
X025228Y030480D01*
X025122Y030530D02*
X025334Y030530D01*
X025359Y030578D02*
X025097Y030578D01*
X025091Y030627D02*
X025365Y030627D01*
X025353Y030675D02*
X025103Y030675D01*
X025140Y030724D02*
X025316Y030724D01*
X022610Y030775D02*
X022606Y030745D01*
X022596Y030715D01*
X022580Y030689D01*
X022558Y030667D01*
X022532Y030651D01*
X022503Y030641D01*
X022472Y030637D01*
X022441Y030641D01*
X022412Y030651D01*
X022386Y030667D01*
X022364Y030689D01*
X022348Y030715D01*
X022338Y030745D01*
X022334Y030775D01*
X022338Y030806D01*
X022348Y030835D01*
X022364Y030861D01*
X022386Y030883D01*
X022412Y030899D01*
X022441Y030910D01*
X022472Y030913D01*
X022503Y030910D01*
X022532Y030899D01*
X022558Y030883D01*
X022580Y030861D01*
X022596Y030835D01*
X022606Y030806D01*
X022610Y030775D01*
X022609Y030772D02*
X022335Y030772D01*
X022345Y030724D02*
X022599Y030724D01*
X022566Y030675D02*
X022378Y030675D01*
X022343Y030821D02*
X022601Y030821D01*
X022572Y030869D02*
X022372Y030869D01*
X017098Y030618D02*
X017095Y030587D01*
X017084Y030558D01*
X017068Y030532D01*
X017046Y030510D01*
X017020Y030494D01*
X016991Y030483D01*
X016960Y030480D01*
X016930Y030483D01*
X016900Y030494D01*
X016874Y030510D01*
X016852Y030532D01*
X016836Y030558D01*
X016826Y030587D01*
X016822Y030618D01*
X016826Y030648D01*
X016836Y030678D01*
X016852Y030704D01*
X016874Y030725D01*
X016900Y030742D01*
X016930Y030752D01*
X016960Y030756D01*
X016991Y030752D01*
X017020Y030742D01*
X017046Y030725D01*
X017068Y030704D01*
X017084Y030678D01*
X017095Y030648D01*
X017098Y030618D01*
X017097Y030627D02*
X016823Y030627D01*
X016829Y030578D02*
X017091Y030578D01*
X017066Y030530D02*
X016855Y030530D01*
X016948Y030481D02*
X016972Y030481D01*
X017085Y030675D02*
X016835Y030675D01*
X016873Y030724D02*
X017048Y030724D01*
X016991Y030240D02*
X017020Y030230D01*
X017046Y030214D01*
X017068Y030192D01*
X017084Y030166D01*
X017095Y030137D01*
X017098Y030106D01*
X017095Y030075D01*
X017084Y030046D01*
X017068Y030020D01*
X017046Y029998D01*
X017020Y029982D01*
X016991Y029972D01*
X016960Y029968D01*
X016930Y029972D01*
X016900Y029982D01*
X016874Y029998D01*
X016852Y030020D01*
X016836Y030046D01*
X016826Y030075D01*
X016822Y030106D01*
X016826Y030137D01*
X016836Y030166D01*
X016852Y030192D01*
X016874Y030214D01*
X016900Y030230D01*
X016930Y030240D01*
X016960Y030244D01*
X016991Y030240D01*
X016995Y030239D02*
X016925Y030239D01*
X016851Y030190D02*
X017069Y030190D01*
X017093Y030142D02*
X016828Y030142D01*
X016824Y030093D02*
X017097Y030093D01*
X017083Y030045D02*
X016837Y030045D01*
X016877Y029996D02*
X017043Y029996D01*
X017000Y028866D02*
X017030Y028862D01*
X017059Y028852D01*
X017085Y028836D01*
X017107Y028814D01*
X017124Y028788D01*
X017134Y028759D01*
X017137Y028728D01*
X017134Y028697D01*
X017124Y028668D01*
X017107Y028642D01*
X017085Y028620D01*
X017059Y028604D01*
X017030Y028594D01*
X017000Y028590D01*
X016969Y028594D01*
X016940Y028604D01*
X016914Y028620D01*
X016892Y028642D01*
X016875Y028668D01*
X016865Y028697D01*
X016862Y028728D01*
X016865Y028759D01*
X016875Y028788D01*
X016892Y028814D01*
X016914Y028836D01*
X016940Y028852D01*
X016969Y028862D01*
X017000Y028866D01*
X017089Y028832D02*
X016910Y028832D01*
X016874Y028784D02*
X017125Y028784D01*
X017137Y028735D02*
X016863Y028735D01*
X016869Y028687D02*
X017130Y028687D01*
X017103Y028638D02*
X016896Y028638D01*
X014312Y030689D02*
X014290Y030667D01*
X014264Y030651D01*
X014235Y030641D01*
X014204Y030637D01*
X014174Y030641D01*
X014144Y030651D01*
X014118Y030667D01*
X014097Y030689D01*
X014080Y030715D01*
X014070Y030745D01*
X014066Y030775D01*
X014070Y030806D01*
X014080Y030835D01*
X014097Y030861D01*
X014118Y030883D01*
X014144Y030899D01*
X014174Y030910D01*
X014204Y030913D01*
X014235Y030910D01*
X014264Y030899D01*
X014290Y030883D01*
X014312Y030861D01*
X014328Y030835D01*
X014339Y030806D01*
X014342Y030775D01*
X014339Y030745D01*
X014328Y030715D01*
X014312Y030689D01*
X014298Y030675D02*
X014111Y030675D01*
X014077Y030724D02*
X014331Y030724D01*
X014342Y030772D02*
X014067Y030772D01*
X014075Y030821D02*
X014333Y030821D01*
X014304Y030869D02*
X014105Y030869D01*
X008830Y030618D02*
X008827Y030587D01*
X008817Y030558D01*
X008800Y030532D01*
X008778Y030510D01*
X008752Y030494D01*
X008723Y030483D01*
X008692Y030480D01*
X008662Y030483D01*
X008633Y030494D01*
X008607Y030510D01*
X008585Y030532D01*
X008568Y030558D01*
X008558Y030587D01*
X008555Y030618D01*
X008558Y030648D01*
X008568Y030678D01*
X008585Y030704D01*
X008607Y030725D01*
X008633Y030742D01*
X008662Y030752D01*
X008692Y030756D01*
X008723Y030752D01*
X008752Y030742D01*
X008778Y030725D01*
X008800Y030704D01*
X008817Y030678D01*
X008827Y030648D01*
X008830Y030618D01*
X008829Y030627D02*
X008556Y030627D01*
X008561Y030578D02*
X008824Y030578D01*
X008798Y030530D02*
X008587Y030530D01*
X008681Y030481D02*
X008704Y030481D01*
X008817Y030675D02*
X008568Y030675D01*
X008605Y030724D02*
X008780Y030724D01*
X008723Y030240D02*
X008692Y030244D01*
X008662Y030240D01*
X008633Y030230D01*
X008607Y030214D01*
X008585Y030192D01*
X008568Y030166D01*
X008558Y030137D01*
X008555Y030106D01*
X008558Y030075D01*
X008568Y030046D01*
X008585Y030020D01*
X008607Y029998D01*
X008633Y029982D01*
X008662Y029972D01*
X008692Y029968D01*
X008723Y029972D01*
X008752Y029982D01*
X008778Y029998D01*
X008800Y030020D01*
X008817Y030046D01*
X008827Y030075D01*
X008830Y030106D01*
X008827Y030137D01*
X008817Y030166D01*
X008800Y030192D01*
X008778Y030214D01*
X008752Y030230D01*
X008723Y030240D01*
X008727Y030239D02*
X008658Y030239D01*
X008584Y030190D02*
X008801Y030190D01*
X008825Y030142D02*
X008560Y030142D01*
X008556Y030093D02*
X008829Y030093D01*
X008816Y030045D02*
X008569Y030045D01*
X008610Y029996D02*
X008775Y029996D01*
X008732Y028866D02*
X008763Y028862D01*
X008792Y028852D01*
X008818Y028836D01*
X008840Y028814D01*
X008856Y028788D01*
X008866Y028759D01*
X008870Y028728D01*
X008866Y028697D01*
X008856Y028668D01*
X008840Y028642D01*
X008818Y028620D01*
X008792Y028604D01*
X008763Y028594D01*
X008732Y028590D01*
X008701Y028594D01*
X008672Y028604D01*
X008646Y028620D01*
X008624Y028642D01*
X008608Y028668D01*
X008598Y028697D01*
X008594Y028728D01*
X008598Y028759D01*
X008608Y028788D01*
X008624Y028814D01*
X008646Y028836D01*
X008672Y028852D01*
X008701Y028862D01*
X008732Y028866D01*
X008821Y028832D02*
X008642Y028832D01*
X008606Y028784D02*
X008857Y028784D01*
X008869Y028735D02*
X008595Y028735D01*
X008601Y028687D02*
X008862Y028687D01*
X008836Y028638D02*
X008628Y028638D01*
X006044Y030689D02*
X006022Y030667D01*
X005996Y030651D01*
X005967Y030641D01*
X005937Y030637D01*
X005906Y030641D01*
X005877Y030651D01*
X005851Y030667D01*
X005829Y030689D01*
X005812Y030715D01*
X005802Y030745D01*
X005799Y030775D01*
X005802Y030806D01*
X005812Y030835D01*
X005829Y030861D01*
X005851Y030883D01*
X005877Y030899D01*
X005906Y030910D01*
X005937Y030913D01*
X005967Y030910D01*
X005996Y030899D01*
X006022Y030883D01*
X006044Y030861D01*
X006061Y030835D01*
X006071Y030806D01*
X006074Y030775D01*
X006071Y030745D01*
X006061Y030715D01*
X006044Y030689D01*
X006030Y030675D02*
X005843Y030675D01*
X005810Y030724D02*
X006064Y030724D01*
X006074Y030772D02*
X005799Y030772D01*
X005807Y030821D02*
X006066Y030821D01*
X006036Y030869D02*
X005837Y030869D01*
X005937Y018630D02*
X005906Y018626D01*
X005877Y018616D01*
X005851Y018599D01*
X005829Y018578D01*
X005812Y018552D01*
X005802Y018522D01*
X005799Y018492D01*
X005802Y018461D01*
X005812Y018432D01*
X005829Y018406D01*
X005851Y018384D01*
X005877Y018368D01*
X005906Y018357D01*
X005937Y018354D01*
X005967Y018357D01*
X005996Y018368D01*
X006022Y018384D01*
X006044Y018406D01*
X006061Y018432D01*
X006071Y018461D01*
X006074Y018492D01*
X006071Y018522D01*
X006061Y018552D01*
X006044Y018578D01*
X006022Y018599D01*
X005996Y018616D01*
X005967Y018626D01*
X005937Y018630D01*
X006023Y018599D02*
X005850Y018599D01*
X005812Y018550D02*
X006061Y018550D01*
X006073Y018502D02*
X005800Y018502D01*
X005805Y018453D02*
X006068Y018453D01*
X006043Y018405D02*
X005830Y018405D01*
X005917Y018356D02*
X005957Y018356D01*
X008555Y018334D02*
X008558Y018304D01*
X008568Y018274D01*
X008585Y018248D01*
X008607Y018227D01*
X008633Y018210D01*
X008662Y018200D01*
X008692Y018196D01*
X008723Y018200D01*
X008752Y018210D01*
X008778Y018227D01*
X008800Y018248D01*
X008817Y018274D01*
X008827Y018304D01*
X008830Y018334D01*
X008827Y018365D01*
X008817Y018394D01*
X008800Y018420D01*
X008778Y018442D01*
X008752Y018458D01*
X008723Y018469D01*
X008692Y018472D01*
X008662Y018469D01*
X008633Y018458D01*
X008607Y018442D01*
X008585Y018420D01*
X008568Y018394D01*
X008558Y018365D01*
X008555Y018334D01*
X008557Y018356D02*
X008828Y018356D01*
X008827Y018308D02*
X008558Y018308D01*
X008578Y018259D02*
X008807Y018259D01*
X008753Y018211D02*
X008632Y018211D01*
X008575Y018405D02*
X008810Y018405D01*
X008761Y018453D02*
X008624Y018453D01*
X008692Y017960D02*
X008723Y017957D01*
X008752Y017947D01*
X008778Y017930D01*
X008800Y017908D01*
X008817Y017882D01*
X008827Y017853D01*
X008830Y017822D01*
X008827Y017792D01*
X008817Y017763D01*
X008800Y017737D01*
X008778Y017715D01*
X008752Y017698D01*
X008723Y017688D01*
X008692Y017685D01*
X008662Y017688D01*
X008633Y017698D01*
X008607Y017715D01*
X008585Y017737D01*
X008568Y017763D01*
X008558Y017792D01*
X008555Y017822D01*
X008558Y017853D01*
X008568Y017882D01*
X008585Y017908D01*
X008607Y017930D01*
X008633Y017947D01*
X008662Y017957D01*
X008692Y017960D01*
X008596Y017920D02*
X008789Y017920D01*
X008820Y017871D02*
X008564Y017871D01*
X008555Y017823D02*
X008830Y017823D01*
X008821Y017774D02*
X008564Y017774D01*
X008596Y017726D02*
X008789Y017726D01*
X008732Y016582D02*
X008763Y016579D01*
X008792Y016569D01*
X008818Y016552D01*
X008840Y016530D01*
X008856Y016504D01*
X008866Y016475D01*
X008870Y016444D01*
X008866Y016414D01*
X008856Y016385D01*
X008840Y016359D01*
X008818Y016337D01*
X008792Y016320D01*
X008763Y016310D01*
X008732Y016307D01*
X008701Y016310D01*
X008672Y016320D01*
X008646Y016337D01*
X008624Y016359D01*
X008608Y016385D01*
X008598Y016414D01*
X008594Y016444D01*
X008598Y016475D01*
X008608Y016504D01*
X008624Y016530D01*
X008646Y016552D01*
X008672Y016569D01*
X008701Y016579D01*
X008732Y016582D01*
X008661Y016562D02*
X008803Y016562D01*
X008850Y016513D02*
X008613Y016513D01*
X008596Y016465D02*
X008867Y016465D01*
X008866Y016416D02*
X008597Y016416D01*
X008618Y016368D02*
X008845Y016368D01*
X008788Y016319D02*
X008675Y016319D01*
X014080Y018432D02*
X014070Y018461D01*
X014066Y018492D01*
X014070Y018522D01*
X014080Y018552D01*
X014097Y018578D01*
X014118Y018599D01*
X014291Y018599D01*
X014290Y018599D02*
X014312Y018578D01*
X014328Y018552D01*
X014339Y018522D01*
X014342Y018492D01*
X014339Y018461D01*
X014328Y018432D01*
X014312Y018406D01*
X014290Y018384D01*
X014264Y018368D01*
X014235Y018357D01*
X014204Y018354D01*
X014174Y018357D01*
X014144Y018368D01*
X014118Y018384D01*
X014097Y018406D01*
X014080Y018432D01*
X014073Y018453D02*
X014336Y018453D01*
X014341Y018502D02*
X014068Y018502D01*
X014080Y018550D02*
X014329Y018550D01*
X014290Y018599D02*
X014264Y018616D01*
X014235Y018626D01*
X014204Y018630D01*
X014174Y018626D01*
X014144Y018616D01*
X014118Y018599D01*
X014098Y018405D02*
X014311Y018405D01*
X014224Y018356D02*
X014184Y018356D01*
X016822Y018334D02*
X016826Y018304D01*
X016836Y018274D01*
X016852Y018248D01*
X016874Y018227D01*
X016900Y018210D01*
X016930Y018200D01*
X016960Y018196D01*
X016991Y018200D01*
X017020Y018210D01*
X017046Y018227D01*
X017068Y018248D01*
X017084Y018274D01*
X017095Y018304D01*
X017098Y018334D01*
X017095Y018365D01*
X017084Y018394D01*
X017068Y018420D01*
X017046Y018442D01*
X017020Y018458D01*
X016991Y018469D01*
X016960Y018472D01*
X016930Y018469D01*
X016900Y018458D01*
X016874Y018442D01*
X016852Y018420D01*
X016836Y018394D01*
X016826Y018365D01*
X016822Y018334D01*
X016825Y018356D02*
X017096Y018356D01*
X017095Y018308D02*
X016825Y018308D01*
X016846Y018259D02*
X017075Y018259D01*
X017021Y018211D02*
X016899Y018211D01*
X016843Y018405D02*
X017078Y018405D01*
X017028Y018453D02*
X016892Y018453D01*
X016960Y017960D02*
X016991Y017957D01*
X017020Y017947D01*
X017046Y017930D01*
X017068Y017908D01*
X017084Y017882D01*
X017095Y017853D01*
X017098Y017822D01*
X017095Y017792D01*
X017084Y017763D01*
X017068Y017737D01*
X017046Y017715D01*
X017020Y017698D01*
X016991Y017688D01*
X016960Y017685D01*
X016930Y017688D01*
X016900Y017698D01*
X016874Y017715D01*
X016852Y017737D01*
X016836Y017763D01*
X016826Y017792D01*
X016822Y017822D01*
X016826Y017853D01*
X016836Y017882D01*
X016852Y017908D01*
X016874Y017930D01*
X016900Y017947D01*
X016930Y017957D01*
X016960Y017960D01*
X016864Y017920D02*
X017057Y017920D01*
X017088Y017871D02*
X016832Y017871D01*
X016822Y017823D02*
X017098Y017823D01*
X017088Y017774D02*
X016832Y017774D01*
X016863Y017726D02*
X017057Y017726D01*
X017000Y016582D02*
X017030Y016579D01*
X017059Y016569D01*
X017085Y016552D01*
X017107Y016530D01*
X017124Y016504D01*
X017134Y016475D01*
X017137Y016444D01*
X017134Y016414D01*
X017124Y016385D01*
X017107Y016359D01*
X017085Y016337D01*
X017059Y016320D01*
X017030Y016310D01*
X017000Y016307D01*
X016969Y016310D01*
X016940Y016320D01*
X016914Y016337D01*
X016892Y016359D01*
X016875Y016385D01*
X016865Y016414D01*
X016862Y016444D01*
X016865Y016475D01*
X016875Y016504D01*
X016892Y016530D01*
X016914Y016552D01*
X016940Y016569D01*
X016969Y016579D01*
X017000Y016582D01*
X017070Y016562D02*
X016929Y016562D01*
X016881Y016513D02*
X017118Y016513D01*
X017135Y016465D02*
X016864Y016465D01*
X016865Y016416D02*
X017134Y016416D01*
X017113Y016368D02*
X016886Y016368D01*
X016943Y016319D02*
X017056Y016319D01*
X022348Y018432D02*
X022338Y018461D01*
X022334Y018492D01*
X022338Y018522D01*
X022348Y018552D01*
X022364Y018578D01*
X022386Y018599D01*
X022412Y018616D01*
X022441Y018626D01*
X022472Y018630D01*
X022503Y018626D01*
X022532Y018616D01*
X022558Y018599D01*
X022580Y018578D01*
X022596Y018552D01*
X022606Y018522D01*
X022610Y018492D01*
X022606Y018461D01*
X022596Y018432D01*
X022580Y018406D01*
X022558Y018384D01*
X022532Y018368D01*
X022503Y018357D01*
X022472Y018354D01*
X022441Y018357D01*
X022412Y018368D01*
X022386Y018384D01*
X022364Y018406D01*
X022348Y018432D01*
X022340Y018453D02*
X022604Y018453D01*
X022609Y018502D02*
X022335Y018502D01*
X022347Y018550D02*
X022597Y018550D01*
X022559Y018599D02*
X022385Y018599D01*
X022365Y018405D02*
X022579Y018405D01*
X022492Y018356D02*
X022452Y018356D01*
X025090Y018334D02*
X025094Y018304D01*
X025104Y018274D01*
X025120Y018248D01*
X025142Y018227D01*
X025168Y018210D01*
X025197Y018200D01*
X025228Y018196D01*
X025259Y018200D01*
X025288Y018210D01*
X025314Y018227D01*
X025336Y018248D01*
X025352Y018274D01*
X025362Y018304D01*
X025366Y018334D01*
X025362Y018365D01*
X025352Y018394D01*
X025336Y018420D01*
X025314Y018442D01*
X025288Y018458D01*
X025259Y018469D01*
X025228Y018472D01*
X025197Y018469D01*
X025168Y018458D01*
X025142Y018442D01*
X025120Y018420D01*
X025104Y018394D01*
X025094Y018365D01*
X025090Y018334D01*
X025093Y018356D02*
X025363Y018356D01*
X025363Y018308D02*
X025093Y018308D01*
X025113Y018259D02*
X025342Y018259D01*
X025289Y018211D02*
X025167Y018211D01*
X025110Y018405D02*
X025345Y018405D01*
X025296Y018453D02*
X025160Y018453D01*
X025228Y017960D02*
X025259Y017957D01*
X025288Y017947D01*
X025314Y017930D01*
X025336Y017908D01*
X025352Y017882D01*
X025362Y017853D01*
X025366Y017822D01*
X025362Y017792D01*
X025352Y017763D01*
X025336Y017737D01*
X025314Y017715D01*
X025288Y017698D01*
X025259Y017688D01*
X025228Y017685D01*
X025197Y017688D01*
X025168Y017698D01*
X025142Y017715D01*
X025120Y017737D01*
X025104Y017763D01*
X025094Y017792D01*
X025090Y017822D01*
X025094Y017853D01*
X025104Y017882D01*
X025120Y017908D01*
X025142Y017930D01*
X025168Y017947D01*
X025197Y017957D01*
X025228Y017960D01*
X025132Y017920D02*
X025324Y017920D01*
X025356Y017871D02*
X025100Y017871D01*
X025090Y017823D02*
X025366Y017823D01*
X025356Y017774D02*
X025100Y017774D01*
X025131Y017726D02*
X025325Y017726D01*
X025267Y016582D02*
X025298Y016579D01*
X025327Y016569D01*
X025353Y016552D01*
X025375Y016530D01*
X025391Y016504D01*
X025402Y016475D01*
X025405Y016444D01*
X025402Y016414D01*
X025391Y016385D01*
X025375Y016359D01*
X025353Y016337D01*
X025327Y016320D01*
X025298Y016310D01*
X025267Y016307D01*
X025237Y016310D01*
X025207Y016320D01*
X025181Y016337D01*
X025160Y016359D01*
X025143Y016385D01*
X025133Y016414D01*
X025129Y016444D01*
X025133Y016475D01*
X025143Y016504D01*
X025160Y016530D01*
X025181Y016552D01*
X025207Y016569D01*
X025237Y016579D01*
X025267Y016582D01*
X025196Y016562D02*
X025338Y016562D01*
X025386Y016513D02*
X025149Y016513D01*
X025132Y016465D02*
X025403Y016465D01*
X025402Y016416D02*
X025133Y016416D01*
X025154Y016368D02*
X025381Y016368D01*
X025324Y016319D02*
X025211Y016319D01*
X030616Y018432D02*
X030605Y018461D01*
X030602Y018492D01*
X030605Y018522D01*
X030616Y018552D01*
X030632Y018578D01*
X030654Y018599D01*
X030680Y018616D01*
X030709Y018626D01*
X030740Y018630D01*
X030770Y018626D01*
X030800Y018616D01*
X030826Y018599D01*
X030653Y018599D01*
X030615Y018550D02*
X030864Y018550D01*
X030864Y018552D02*
X030874Y018522D01*
X030878Y018492D01*
X030874Y018461D01*
X030864Y018432D01*
X030847Y018406D01*
X030826Y018384D01*
X030800Y018368D01*
X030770Y018357D01*
X030740Y018354D01*
X030709Y018357D01*
X030680Y018368D01*
X030654Y018384D01*
X030632Y018406D01*
X030616Y018432D01*
X030608Y018453D02*
X030871Y018453D01*
X030876Y018502D02*
X030603Y018502D01*
X030633Y018405D02*
X030846Y018405D01*
X030760Y018356D02*
X030720Y018356D01*
X030864Y018552D02*
X030847Y018578D01*
X030826Y018599D01*
X033358Y018334D02*
X033361Y018304D01*
X033371Y018274D01*
X033388Y018248D01*
X033410Y018227D01*
X033436Y018210D01*
X033465Y018200D01*
X033496Y018196D01*
X033526Y018200D01*
X033555Y018210D01*
X033582Y018227D01*
X033603Y018248D01*
X033620Y018274D01*
X033630Y018304D01*
X033633Y018334D01*
X033630Y018365D01*
X033620Y018394D01*
X033603Y018420D01*
X033582Y018442D01*
X033555Y018458D01*
X033526Y018469D01*
X033496Y018472D01*
X033465Y018469D01*
X033436Y018458D01*
X033410Y018442D01*
X033388Y018420D01*
X033371Y018394D01*
X033361Y018365D01*
X033358Y018334D01*
X033360Y018356D02*
X033631Y018356D01*
X033630Y018308D02*
X033361Y018308D01*
X033381Y018259D02*
X033610Y018259D01*
X033556Y018211D02*
X033435Y018211D01*
X033378Y018405D02*
X033613Y018405D01*
X033564Y018453D02*
X033428Y018453D01*
X033496Y017960D02*
X033526Y017957D01*
X033555Y017947D01*
X033582Y017930D01*
X033603Y017908D01*
X033620Y017882D01*
X033630Y017853D01*
X033633Y017822D01*
X033630Y017792D01*
X033620Y017763D01*
X033603Y017737D01*
X033582Y017715D01*
X033555Y017698D01*
X033526Y017688D01*
X033496Y017685D01*
X033465Y017688D01*
X033436Y017698D01*
X033410Y017715D01*
X033388Y017737D01*
X033371Y017763D01*
X033361Y017792D01*
X033358Y017822D01*
X033361Y017853D01*
X033371Y017882D01*
X033388Y017908D01*
X033410Y017930D01*
X033436Y017947D01*
X033465Y017957D01*
X033496Y017960D01*
X033399Y017920D02*
X033592Y017920D01*
X033624Y017871D02*
X033368Y017871D01*
X033358Y017823D02*
X033633Y017823D01*
X033624Y017774D02*
X033367Y017774D01*
X033399Y017726D02*
X033593Y017726D01*
X033535Y016582D02*
X033566Y016579D01*
X033595Y016569D01*
X033621Y016552D01*
X033643Y016530D01*
X033659Y016504D01*
X033669Y016475D01*
X033673Y016444D01*
X033669Y016414D01*
X033659Y016385D01*
X033643Y016359D01*
X033621Y016337D01*
X033595Y016320D01*
X033566Y016310D01*
X033535Y016307D01*
X033504Y016310D01*
X033475Y016320D01*
X033449Y016337D01*
X033427Y016359D01*
X033411Y016385D01*
X033401Y016414D01*
X033397Y016444D01*
X033401Y016475D01*
X033411Y016504D01*
X033427Y016530D01*
X033449Y016552D01*
X033475Y016569D01*
X033504Y016579D01*
X033535Y016582D01*
X033464Y016562D02*
X033606Y016562D01*
X033654Y016513D02*
X033416Y016513D01*
X033399Y016465D02*
X033671Y016465D01*
X033670Y016416D02*
X033400Y016416D01*
X033422Y016368D02*
X033648Y016368D01*
X033591Y016319D02*
X033479Y016319D01*
D18*
X033535Y006405D03*
X010622Y035224D03*
D19*
X010543Y030086D03*
X010799Y030086D03*
X010287Y030086D03*
X009933Y030086D03*
X009421Y030086D03*
X009421Y029417D03*
X009677Y029417D03*
X009933Y029417D03*
X010287Y029417D03*
X010799Y029417D03*
X017689Y029417D03*
X017944Y029417D03*
X018200Y029417D03*
X018555Y029417D03*
X019066Y029417D03*
X019066Y030086D03*
X018811Y030086D03*
X018555Y030086D03*
X018200Y030086D03*
X017689Y030086D03*
X025956Y030086D03*
X026468Y030086D03*
X026822Y030086D03*
X027078Y030086D03*
X027334Y030086D03*
X027334Y029417D03*
X026822Y029417D03*
X026468Y029417D03*
X026212Y029417D03*
X025956Y029417D03*
X034224Y029417D03*
X034480Y029417D03*
X034736Y029417D03*
X035090Y029417D03*
X035602Y029417D03*
X035602Y030086D03*
X035346Y030086D03*
X035090Y030086D03*
X034736Y030086D03*
X034224Y030086D03*
X034224Y017803D03*
X034736Y017803D03*
X035090Y017803D03*
X035346Y017803D03*
X035602Y017803D03*
X035602Y017133D03*
X035090Y017133D03*
X034736Y017133D03*
X034480Y017133D03*
X034224Y017133D03*
X027334Y017133D03*
X026822Y017133D03*
X026468Y017133D03*
X026212Y017133D03*
X025956Y017133D03*
X025956Y017803D03*
X026468Y017803D03*
X026822Y017803D03*
X027078Y017803D03*
X027334Y017803D03*
X019066Y017803D03*
X018811Y017803D03*
X018555Y017803D03*
X018200Y017803D03*
X017689Y017803D03*
X017689Y017133D03*
X017944Y017133D03*
X018200Y017133D03*
X018555Y017133D03*
X019066Y017133D03*
X010799Y017133D03*
X010287Y017133D03*
X009933Y017133D03*
X009677Y017133D03*
X009421Y017133D03*
X009421Y017803D03*
X009933Y017803D03*
X010287Y017803D03*
X010543Y017803D03*
X010799Y017803D03*
D20*
X006881Y017271D03*
X015149Y017271D03*
X023417Y017271D03*
X031685Y017271D03*
X031685Y029555D03*
X023417Y029555D03*
X015149Y029555D03*
X006881Y029555D03*
D21*
X007374Y023826D03*
X008043Y023826D03*
X008043Y022921D03*
X007374Y022921D03*
X015641Y022921D03*
X016311Y022921D03*
X016311Y023826D03*
X015641Y023826D03*
X023909Y023826D03*
X024578Y023826D03*
X024578Y022921D03*
X023909Y022921D03*
X032177Y022921D03*
X032846Y022921D03*
X032846Y023826D03*
X032177Y023826D03*
X032177Y011543D03*
X032846Y011543D03*
X032846Y010637D03*
X032177Y010637D03*
X024578Y010637D03*
X023909Y010637D03*
X023909Y011543D03*
X024578Y011543D03*
X016311Y011543D03*
X015641Y011543D03*
X015641Y010637D03*
X016311Y010637D03*
X008043Y010637D03*
X007374Y010637D03*
X007374Y011543D03*
X008043Y011543D03*
M02*
