G75*
%MOIN*%
%OFA0B0*%
%FSLAX24Y24*%
%IPPOS*%
%LPD*%
%AMOC8*
5,1,8,0,0,1.08239X$1,22.5*
%
%ADD10C,0.1655*%
%ADD11R,0.0787X0.0787*%
%ADD12OC8,0.0671*%
%ADD13R,0.1378X0.1378*%
%ADD14R,0.0413X0.0138*%
%ADD15R,0.0138X0.0413*%
%ADD16R,0.0138X0.0492*%
%ADD17R,0.0492X0.0138*%
%ADD18R,0.0300X0.0580*%
%ADD19R,0.0434X0.0356*%
%ADD20R,0.0356X0.0434*%
%ADD21C,0.0356*%
%ADD22R,0.0472X0.0157*%
%ADD23R,0.0472X0.0669*%
%ADD24R,0.0157X0.0472*%
%ADD25C,0.0474*%
D10*
X006755Y006405D03*
X035574Y006405D03*
X035574Y035224D03*
X006755Y035224D03*
D11*
X010692Y035224D03*
X033605Y006405D03*
D12*
X037066Y009173D03*
X037066Y010173D03*
X037066Y011173D03*
X037066Y012173D03*
X037066Y013173D03*
X037066Y014173D03*
X037066Y015173D03*
X037066Y016173D03*
X037066Y017173D03*
X037066Y018173D03*
X037066Y019173D03*
X037066Y020173D03*
X037066Y021456D03*
X037066Y022456D03*
X037066Y023456D03*
X037066Y024456D03*
X037066Y025456D03*
X037066Y026456D03*
X037066Y027456D03*
X037066Y028456D03*
X037066Y029456D03*
X037066Y030456D03*
X037066Y031456D03*
X037066Y032456D03*
X036066Y031456D03*
X035066Y031456D03*
X034066Y031456D03*
X033066Y031456D03*
X032066Y031456D03*
X031066Y031456D03*
X030066Y031456D03*
X030066Y032456D03*
X028798Y032456D03*
X028798Y031456D03*
X028798Y030456D03*
X028798Y029456D03*
X028798Y028456D03*
X028798Y027456D03*
X028798Y026456D03*
X028798Y025456D03*
X028798Y024456D03*
X028798Y023456D03*
X028798Y022456D03*
X028798Y021456D03*
X030066Y021456D03*
X030066Y022456D03*
X030066Y023456D03*
X030066Y024456D03*
X030066Y025456D03*
X030066Y026456D03*
X030066Y027456D03*
X030066Y028456D03*
X030066Y029456D03*
X030066Y030456D03*
X027798Y031456D03*
X026798Y031456D03*
X025798Y031456D03*
X024798Y031456D03*
X023798Y031456D03*
X022798Y031456D03*
X021798Y031456D03*
X021798Y032456D03*
X020530Y032456D03*
X020530Y031456D03*
X019530Y031456D03*
X018530Y031456D03*
X017530Y031456D03*
X016530Y031456D03*
X015530Y031456D03*
X014530Y031456D03*
X013530Y031456D03*
X013530Y032456D03*
X012263Y032456D03*
X012263Y031456D03*
X011263Y031456D03*
X010263Y031456D03*
X009263Y031456D03*
X008263Y031456D03*
X007263Y031456D03*
X006263Y031456D03*
X005263Y031456D03*
X005263Y032456D03*
X005263Y030456D03*
X005263Y029456D03*
X005263Y028456D03*
X005263Y027456D03*
X005263Y026456D03*
X005263Y025456D03*
X005263Y024456D03*
X005263Y023456D03*
X005263Y022456D03*
X005263Y021456D03*
X005263Y020173D03*
X005263Y019173D03*
X006263Y019173D03*
X007263Y019173D03*
X008263Y019173D03*
X009263Y019173D03*
X010263Y019173D03*
X011263Y019173D03*
X012263Y019173D03*
X012263Y020173D03*
X012263Y021456D03*
X012263Y022456D03*
X012263Y023456D03*
X011263Y022956D03*
X011263Y023956D03*
X012263Y024456D03*
X012263Y025456D03*
X012263Y026456D03*
X012263Y027456D03*
X012263Y028456D03*
X012263Y029456D03*
X012263Y030456D03*
X013530Y030456D03*
X013530Y029456D03*
X013530Y028456D03*
X013530Y027456D03*
X013530Y026456D03*
X013530Y025456D03*
X013530Y024456D03*
X013530Y023456D03*
X013530Y022456D03*
X013530Y021456D03*
X013530Y020173D03*
X013530Y019173D03*
X014530Y019173D03*
X015530Y019173D03*
X016530Y019173D03*
X017530Y019173D03*
X018530Y019173D03*
X019530Y019173D03*
X020530Y019173D03*
X020530Y020173D03*
X021798Y020173D03*
X021798Y019173D03*
X021798Y018173D03*
X021798Y017173D03*
X021798Y016173D03*
X021798Y015173D03*
X021798Y014173D03*
X021798Y013173D03*
X021798Y012173D03*
X021798Y011173D03*
X021798Y010173D03*
X021798Y009173D03*
X020530Y009173D03*
X020530Y010173D03*
X020530Y011173D03*
X019530Y011673D03*
X020530Y012173D03*
X020530Y013173D03*
X020530Y014173D03*
X020530Y015173D03*
X020530Y016173D03*
X020530Y017173D03*
X020530Y018173D03*
X022798Y019173D03*
X023798Y019173D03*
X024798Y019173D03*
X025798Y019173D03*
X026798Y019173D03*
X027798Y019173D03*
X028798Y019173D03*
X028798Y020173D03*
X030066Y020173D03*
X030066Y019173D03*
X031066Y019173D03*
X032066Y019173D03*
X033066Y019173D03*
X034066Y019173D03*
X035066Y019173D03*
X036066Y019173D03*
X036066Y022956D03*
X036066Y023956D03*
X033066Y027956D03*
X032066Y027956D03*
X027798Y023956D03*
X027798Y022956D03*
X028798Y018173D03*
X028798Y017173D03*
X028798Y016173D03*
X028798Y015173D03*
X028798Y014173D03*
X028798Y013173D03*
X028798Y012173D03*
X028798Y011173D03*
X028798Y010173D03*
X028798Y009173D03*
X030066Y009173D03*
X030066Y010173D03*
X030066Y011173D03*
X030066Y012173D03*
X030066Y013173D03*
X030066Y014173D03*
X030066Y015173D03*
X030066Y016173D03*
X030066Y017173D03*
X030066Y018173D03*
X032066Y015673D03*
X033066Y015673D03*
X036066Y011673D03*
X036066Y010673D03*
X027798Y010673D03*
X027798Y011673D03*
X024798Y015673D03*
X023798Y015673D03*
X019530Y010673D03*
X016530Y015673D03*
X015530Y015673D03*
X013530Y016173D03*
X013530Y017173D03*
X013530Y018173D03*
X012263Y018173D03*
X012263Y017173D03*
X012263Y016173D03*
X012263Y015173D03*
X012263Y014173D03*
X012263Y013173D03*
X012263Y012173D03*
X011263Y011673D03*
X012263Y011173D03*
X012263Y010173D03*
X011263Y010673D03*
X012263Y009173D03*
X013530Y009173D03*
X013530Y010173D03*
X013530Y011173D03*
X013530Y012173D03*
X013530Y013173D03*
X013530Y014173D03*
X013530Y015173D03*
X008263Y015673D03*
X007263Y015673D03*
X005263Y016173D03*
X005263Y017173D03*
X005263Y018173D03*
X005263Y015173D03*
X005263Y014173D03*
X005263Y013173D03*
X005263Y012173D03*
X005263Y011173D03*
X005263Y010173D03*
X005263Y009173D03*
X019530Y022956D03*
X020530Y022456D03*
X020530Y023456D03*
X019530Y023956D03*
X020530Y024456D03*
X020530Y025456D03*
X020530Y026456D03*
X020530Y027456D03*
X020530Y028456D03*
X020530Y029456D03*
X020530Y030456D03*
X021798Y030456D03*
X021798Y029456D03*
X021798Y028456D03*
X021798Y027456D03*
X021798Y026456D03*
X021798Y025456D03*
X021798Y024456D03*
X021798Y023456D03*
X021798Y022456D03*
X021798Y021456D03*
X020530Y021456D03*
X023798Y027956D03*
X024798Y027956D03*
X016530Y027956D03*
X015530Y027956D03*
X008263Y027956D03*
X007263Y027956D03*
D13*
X008841Y025933D03*
X017109Y025933D03*
X025377Y025933D03*
X033645Y025933D03*
X033645Y013649D03*
X025377Y013649D03*
X017109Y013649D03*
X008841Y013649D03*
D14*
X009845Y012960D03*
X009845Y014338D03*
X007838Y014338D03*
X007838Y012960D03*
X016105Y012960D03*
X016105Y014338D03*
X018113Y014338D03*
X018113Y012960D03*
X024373Y012960D03*
X024373Y014338D03*
X026381Y014338D03*
X026381Y012960D03*
X032641Y012960D03*
X032641Y014338D03*
X034649Y014338D03*
X034649Y012960D03*
X034649Y025244D03*
X034649Y026622D03*
X032641Y026622D03*
X032641Y025244D03*
X026381Y025244D03*
X026381Y026622D03*
X024373Y026622D03*
X024373Y025244D03*
X018113Y025244D03*
X018113Y026622D03*
X016105Y026622D03*
X016105Y025244D03*
X009845Y025244D03*
X009845Y026622D03*
X007838Y026622D03*
X007838Y025244D03*
D15*
X008153Y024929D03*
X009530Y024929D03*
X009530Y026937D03*
X008153Y026937D03*
X016420Y026937D03*
X017798Y026937D03*
X017798Y024929D03*
X016420Y024929D03*
X024688Y024929D03*
X026066Y024929D03*
X026066Y026937D03*
X024688Y026937D03*
X032956Y026937D03*
X034334Y026937D03*
X034334Y024929D03*
X032956Y024929D03*
X032956Y014653D03*
X034334Y014653D03*
X034334Y012645D03*
X032956Y012645D03*
X026066Y012645D03*
X024688Y012645D03*
X024688Y014653D03*
X026066Y014653D03*
X017798Y014653D03*
X016420Y014653D03*
X016420Y012645D03*
X017798Y012645D03*
X009530Y012645D03*
X008153Y012645D03*
X008153Y014653D03*
X009530Y014653D03*
D16*
X009334Y014693D03*
X009137Y014693D03*
X008940Y014693D03*
X008743Y014693D03*
X008546Y014693D03*
X008349Y014693D03*
X008349Y012606D03*
X008546Y012606D03*
X008743Y012606D03*
X008940Y012606D03*
X009137Y012606D03*
X009334Y012606D03*
X016617Y012606D03*
X016814Y012606D03*
X017011Y012606D03*
X017208Y012606D03*
X017404Y012606D03*
X017601Y012606D03*
X017601Y014693D03*
X017404Y014693D03*
X017208Y014693D03*
X017011Y014693D03*
X016814Y014693D03*
X016617Y014693D03*
X024885Y014693D03*
X025082Y014693D03*
X025279Y014693D03*
X025475Y014693D03*
X025672Y014693D03*
X025869Y014693D03*
X025869Y012606D03*
X025672Y012606D03*
X025475Y012606D03*
X025279Y012606D03*
X025082Y012606D03*
X024885Y012606D03*
X033153Y012606D03*
X033349Y012606D03*
X033546Y012606D03*
X033743Y012606D03*
X033940Y012606D03*
X034137Y012606D03*
X034137Y014693D03*
X033940Y014693D03*
X033743Y014693D03*
X033546Y014693D03*
X033349Y014693D03*
X033153Y014693D03*
X033153Y024889D03*
X033349Y024889D03*
X033546Y024889D03*
X033743Y024889D03*
X033940Y024889D03*
X034137Y024889D03*
X034137Y026976D03*
X033940Y026976D03*
X033743Y026976D03*
X033546Y026976D03*
X033349Y026976D03*
X033153Y026976D03*
X025869Y026976D03*
X025672Y026976D03*
X025475Y026976D03*
X025279Y026976D03*
X025082Y026976D03*
X024885Y026976D03*
X024885Y024889D03*
X025082Y024889D03*
X025279Y024889D03*
X025475Y024889D03*
X025672Y024889D03*
X025869Y024889D03*
X017601Y024889D03*
X017404Y024889D03*
X017208Y024889D03*
X017011Y024889D03*
X016814Y024889D03*
X016617Y024889D03*
X016617Y026976D03*
X016814Y026976D03*
X017011Y026976D03*
X017208Y026976D03*
X017404Y026976D03*
X017601Y026976D03*
X009334Y026976D03*
X009137Y026976D03*
X008940Y026976D03*
X008743Y026976D03*
X008546Y026976D03*
X008349Y026976D03*
X008349Y024889D03*
X008546Y024889D03*
X008743Y024889D03*
X008940Y024889D03*
X009137Y024889D03*
X009334Y024889D03*
D17*
X009885Y025441D03*
X009885Y025637D03*
X009885Y025834D03*
X009885Y026031D03*
X009885Y026228D03*
X009885Y026425D03*
X007798Y026425D03*
X007798Y026228D03*
X007798Y026031D03*
X007798Y025834D03*
X007798Y025637D03*
X007798Y025441D03*
X016066Y025441D03*
X016066Y025637D03*
X016066Y025834D03*
X016066Y026031D03*
X016066Y026228D03*
X016066Y026425D03*
X018153Y026425D03*
X018153Y026228D03*
X018153Y026031D03*
X018153Y025834D03*
X018153Y025637D03*
X018153Y025441D03*
X024334Y025441D03*
X024334Y025637D03*
X024334Y025834D03*
X024334Y026031D03*
X024334Y026228D03*
X024334Y026425D03*
X026420Y026425D03*
X026420Y026228D03*
X026420Y026031D03*
X026420Y025834D03*
X026420Y025637D03*
X026420Y025441D03*
X032601Y025441D03*
X032601Y025637D03*
X032601Y025834D03*
X032601Y026031D03*
X032601Y026228D03*
X032601Y026425D03*
X034688Y026425D03*
X034688Y026228D03*
X034688Y026031D03*
X034688Y025834D03*
X034688Y025637D03*
X034688Y025441D03*
X034688Y014141D03*
X034688Y013944D03*
X034688Y013748D03*
X034688Y013551D03*
X034688Y013354D03*
X034688Y013157D03*
X032601Y013157D03*
X032601Y013354D03*
X032601Y013551D03*
X032601Y013748D03*
X032601Y013944D03*
X032601Y014141D03*
X026420Y014141D03*
X026420Y013944D03*
X026420Y013748D03*
X026420Y013551D03*
X026420Y013354D03*
X026420Y013157D03*
X024334Y013157D03*
X024334Y013354D03*
X024334Y013551D03*
X024334Y013748D03*
X024334Y013944D03*
X024334Y014141D03*
X018153Y014141D03*
X018153Y013944D03*
X018153Y013748D03*
X018153Y013551D03*
X018153Y013354D03*
X018153Y013157D03*
X016066Y013157D03*
X016066Y013354D03*
X016066Y013551D03*
X016066Y013748D03*
X016066Y013944D03*
X016066Y014141D03*
X009885Y014141D03*
X009885Y013944D03*
X009885Y013748D03*
X009885Y013551D03*
X009885Y013354D03*
X009885Y013157D03*
X007798Y013157D03*
X007798Y013354D03*
X007798Y013551D03*
X007798Y013748D03*
X007798Y013944D03*
X007798Y014141D03*
D18*
X007637Y017234D03*
X006897Y017234D03*
X006897Y018254D03*
X007267Y018254D03*
X007637Y018254D03*
X015164Y018254D03*
X015534Y018254D03*
X015904Y018254D03*
X015904Y017234D03*
X015164Y017234D03*
X023432Y017234D03*
X024172Y017234D03*
X024172Y018254D03*
X023802Y018254D03*
X023432Y018254D03*
X031700Y018254D03*
X032070Y018254D03*
X032440Y018254D03*
X032440Y017234D03*
X031700Y017234D03*
X031700Y029517D03*
X032440Y029517D03*
X032440Y030537D03*
X032070Y030537D03*
X031700Y030537D03*
X024172Y030537D03*
X023802Y030537D03*
X023432Y030537D03*
X023432Y029517D03*
X024172Y029517D03*
X015904Y029517D03*
X015164Y029517D03*
X015164Y030537D03*
X015534Y030537D03*
X015904Y030537D03*
X007637Y030537D03*
X007267Y030537D03*
X006897Y030537D03*
X006897Y029517D03*
X007637Y029517D03*
D19*
X008251Y029968D03*
X008251Y030480D03*
X006401Y030204D03*
X006401Y029693D03*
X005928Y029693D03*
X005928Y030204D03*
X006282Y028354D03*
X006282Y027842D03*
X008605Y024023D03*
X008605Y023511D03*
X009235Y023511D03*
X009235Y024023D03*
X014550Y027842D03*
X014550Y028354D03*
X014668Y029693D03*
X014196Y029693D03*
X014196Y030204D03*
X014668Y030204D03*
X016519Y029968D03*
X016519Y030480D03*
X018448Y030322D03*
X018448Y030834D03*
X022464Y030204D03*
X022936Y030204D03*
X022936Y029693D03*
X022464Y029693D03*
X022818Y028354D03*
X022818Y027842D03*
X024786Y029968D03*
X024786Y030480D03*
X026716Y030322D03*
X026716Y030834D03*
X030731Y030204D03*
X031204Y030204D03*
X031204Y029693D03*
X030731Y029693D03*
X031086Y028354D03*
X031086Y027842D03*
X033054Y029968D03*
X033054Y030480D03*
X034983Y030322D03*
X034983Y030834D03*
X034038Y024023D03*
X034038Y023511D03*
X033408Y023511D03*
X033408Y024023D03*
X034983Y018551D03*
X034983Y018039D03*
X033054Y018196D03*
X033054Y017685D03*
X031204Y017921D03*
X030731Y017921D03*
X030731Y017409D03*
X031204Y017409D03*
X031086Y016070D03*
X031086Y015559D03*
X033408Y011740D03*
X033408Y011228D03*
X034038Y011228D03*
X034038Y011740D03*
X026716Y018039D03*
X026716Y018551D03*
X024786Y018196D03*
X024786Y017685D03*
X022936Y017921D03*
X022464Y017921D03*
X022464Y017409D03*
X022936Y017409D03*
X022818Y016070D03*
X022818Y015559D03*
X025141Y011740D03*
X025141Y011228D03*
X025771Y011228D03*
X025771Y011740D03*
X018448Y018039D03*
X018448Y018551D03*
X016519Y018196D03*
X016519Y017685D03*
X014668Y017921D03*
X014196Y017921D03*
X014196Y017409D03*
X014668Y017409D03*
X014550Y016070D03*
X014550Y015559D03*
X016873Y011740D03*
X016873Y011228D03*
X017503Y011228D03*
X017503Y011740D03*
X010180Y018039D03*
X010180Y018551D03*
X008251Y018196D03*
X008251Y017685D03*
X006401Y017921D03*
X005928Y017921D03*
X005928Y017409D03*
X006401Y017409D03*
X006282Y016070D03*
X006282Y015559D03*
X008605Y011740D03*
X008605Y011228D03*
X009235Y011228D03*
X009235Y011740D03*
X016873Y023511D03*
X016873Y024023D03*
X017503Y024023D03*
X017503Y023511D03*
X010180Y030322D03*
X010180Y030834D03*
X025141Y024023D03*
X025141Y023511D03*
X025771Y023511D03*
X025771Y024023D03*
D20*
X023192Y021838D03*
X022680Y021838D03*
X022483Y022468D03*
X022995Y022468D03*
X022995Y023452D03*
X022483Y023452D03*
X022483Y024476D03*
X022995Y024476D03*
X022995Y025500D03*
X022483Y025500D03*
X022483Y026326D03*
X022995Y026326D03*
X023153Y026878D03*
X022641Y026878D03*
X024255Y029004D03*
X024767Y029004D03*
X025948Y027744D03*
X026460Y027744D03*
X030751Y026326D03*
X031263Y026326D03*
X031420Y026878D03*
X030908Y026878D03*
X030751Y025500D03*
X031263Y025500D03*
X031263Y024476D03*
X030751Y024476D03*
X030751Y023452D03*
X031263Y023452D03*
X031263Y022468D03*
X030751Y022468D03*
X030948Y021838D03*
X031460Y021838D03*
X032523Y016720D03*
X033034Y016720D03*
X034216Y015460D03*
X034727Y015460D03*
X031420Y014594D03*
X030908Y014594D03*
X030751Y014043D03*
X031263Y014043D03*
X031263Y013216D03*
X030751Y013216D03*
X030751Y012193D03*
X031263Y012193D03*
X031263Y011169D03*
X030751Y011169D03*
X030751Y010185D03*
X031263Y010185D03*
X031460Y009555D03*
X030948Y009555D03*
X026460Y015460D03*
X025948Y015460D03*
X024767Y016720D03*
X024255Y016720D03*
X023153Y014594D03*
X022641Y014594D03*
X022483Y014043D03*
X022995Y014043D03*
X022995Y013216D03*
X022483Y013216D03*
X022483Y012193D03*
X022995Y012193D03*
X022995Y011169D03*
X022483Y011169D03*
X022483Y010185D03*
X022995Y010185D03*
X023192Y009555D03*
X022680Y009555D03*
X018192Y015460D03*
X017680Y015460D03*
X016499Y016720D03*
X015987Y016720D03*
X014885Y014594D03*
X014373Y014594D03*
X014216Y014043D03*
X014727Y014043D03*
X014727Y013216D03*
X014216Y013216D03*
X014216Y012193D03*
X014727Y012193D03*
X014727Y011169D03*
X014216Y011169D03*
X014216Y010185D03*
X014727Y010185D03*
X014924Y009555D03*
X014412Y009555D03*
X009924Y015460D03*
X009412Y015460D03*
X008231Y016720D03*
X007719Y016720D03*
X006617Y014594D03*
X006105Y014594D03*
X005948Y014043D03*
X006460Y014043D03*
X006460Y013216D03*
X005948Y013216D03*
X005948Y012193D03*
X006460Y012193D03*
X006460Y011169D03*
X005948Y011169D03*
X005948Y010185D03*
X006460Y010185D03*
X006656Y009555D03*
X006145Y009555D03*
X006145Y021838D03*
X006656Y021838D03*
X006460Y022468D03*
X005948Y022468D03*
X005948Y023452D03*
X006460Y023452D03*
X006460Y024476D03*
X005948Y024476D03*
X005948Y025500D03*
X006460Y025500D03*
X006460Y026326D03*
X005948Y026326D03*
X006105Y026878D03*
X006617Y026878D03*
X007719Y029004D03*
X008231Y029004D03*
X009412Y027744D03*
X009924Y027744D03*
X014216Y026326D03*
X014727Y026326D03*
X014885Y026878D03*
X014373Y026878D03*
X014216Y025500D03*
X014727Y025500D03*
X014727Y024476D03*
X014216Y024476D03*
X014216Y023452D03*
X014727Y023452D03*
X014727Y022468D03*
X014216Y022468D03*
X014412Y021838D03*
X014924Y021838D03*
X017680Y027744D03*
X018192Y027744D03*
X016499Y029004D03*
X015987Y029004D03*
X032523Y029004D03*
X033034Y029004D03*
X034216Y027744D03*
X034727Y027744D03*
D21*
X032936Y029437D03*
X032188Y029004D03*
X033054Y030854D03*
X024786Y030854D03*
X024668Y029437D03*
X023920Y029004D03*
X016401Y029437D03*
X015653Y029004D03*
X016519Y030854D03*
X008251Y030854D03*
X008133Y029437D03*
X007385Y029004D03*
X008251Y018570D03*
X008133Y017153D03*
X007385Y016720D03*
X015653Y016720D03*
X016401Y017153D03*
X016519Y018570D03*
X023920Y016720D03*
X024668Y017153D03*
X024786Y018570D03*
X032188Y016720D03*
X032936Y017153D03*
X033054Y018570D03*
D22*
X034452Y017271D03*
X034452Y017074D03*
X034452Y016878D03*
X034452Y016681D03*
X034452Y016484D03*
X035593Y016484D03*
X035593Y016681D03*
X035593Y016878D03*
X035593Y017074D03*
X035593Y017271D03*
X027326Y017271D03*
X027326Y017074D03*
X027326Y016878D03*
X027326Y016681D03*
X027326Y016484D03*
X026184Y016484D03*
X026184Y016681D03*
X026184Y016878D03*
X026184Y017074D03*
X026184Y017271D03*
X019058Y017271D03*
X019058Y017074D03*
X019058Y016878D03*
X019058Y016681D03*
X019058Y016484D03*
X017916Y016484D03*
X017916Y016681D03*
X017916Y016878D03*
X017916Y017074D03*
X017916Y017271D03*
X010790Y017271D03*
X010790Y017074D03*
X010790Y016878D03*
X010790Y016681D03*
X010790Y016484D03*
X009649Y016484D03*
X009649Y016681D03*
X009649Y016878D03*
X009649Y017074D03*
X009649Y017271D03*
X009649Y028767D03*
X009649Y028964D03*
X009649Y029161D03*
X009649Y029358D03*
X009649Y029555D03*
X010790Y029555D03*
X010790Y029358D03*
X010790Y029161D03*
X010790Y028964D03*
X010790Y028767D03*
X017916Y028767D03*
X017916Y028964D03*
X017916Y029161D03*
X017916Y029358D03*
X017916Y029555D03*
X019058Y029555D03*
X019058Y029358D03*
X019058Y029161D03*
X019058Y028964D03*
X019058Y028767D03*
X026184Y028767D03*
X026184Y028964D03*
X026184Y029161D03*
X026184Y029358D03*
X026184Y029555D03*
X027326Y029555D03*
X027326Y029358D03*
X027326Y029161D03*
X027326Y028964D03*
X027326Y028767D03*
X034452Y028767D03*
X034452Y028964D03*
X034452Y029161D03*
X034452Y029358D03*
X034452Y029555D03*
X035593Y029555D03*
X035593Y029358D03*
X035593Y029161D03*
X035593Y028964D03*
X035593Y028767D03*
D23*
X035023Y029161D03*
X026755Y029161D03*
X018487Y029161D03*
X010219Y029161D03*
X010219Y016878D03*
X018487Y016878D03*
X026755Y016878D03*
X035023Y016878D03*
D24*
X035121Y017567D03*
X034924Y017567D03*
X034924Y016189D03*
X035121Y016189D03*
X026853Y016189D03*
X026656Y016189D03*
X026656Y017567D03*
X026853Y017567D03*
X018586Y017567D03*
X018389Y017567D03*
X018389Y016189D03*
X018586Y016189D03*
X010318Y016189D03*
X010121Y016189D03*
X010121Y017567D03*
X010318Y017567D03*
X010318Y028472D03*
X010121Y028472D03*
X010121Y029850D03*
X010318Y029850D03*
X018389Y029850D03*
X018586Y029850D03*
X018586Y028472D03*
X018389Y028472D03*
X026656Y028472D03*
X026853Y028472D03*
X026853Y029850D03*
X026656Y029850D03*
X034924Y029850D03*
X035121Y029850D03*
X035121Y028472D03*
X034924Y028472D03*
D25*
X033605Y006405D03*
X010692Y035224D03*
M02*
