G75*
%MOIN*%
%OFA0B0*%
%FSLAX24Y24*%
%IPPOS*%
%LPD*%
%AMOC8*
5,1,8,0,0,1.08239X$1,22.5*
%
%ADD10C,0.0079*%
%ADD11C,0.0080*%
%ADD12C,0.0157*%
D10*
X009350Y008740D02*
X010260Y008740D01*
X010260Y020842D01*
X009350Y020842D01*
X009350Y008740D01*
X009919Y008767D02*
X010234Y008767D01*
X010234Y009082D01*
X009919Y008767D01*
X009991Y008839D02*
X010234Y008839D01*
X010234Y008917D02*
X010068Y008917D01*
X010146Y008994D02*
X010234Y008994D01*
X010223Y009071D02*
X010234Y009071D01*
X010510Y009358D02*
X010510Y009397D01*
X010903Y009397D01*
X010903Y009437D01*
X010903Y009397D02*
X010903Y009358D01*
X010510Y009397D02*
X010510Y009437D01*
X010510Y010303D02*
X010510Y010342D01*
X010903Y010342D01*
X010903Y010303D01*
X010903Y010342D02*
X010903Y010381D01*
X010510Y010381D02*
X010510Y010342D01*
X010234Y010775D02*
X009959Y010775D01*
X010234Y011051D01*
X010234Y010775D01*
X009368Y010775D01*
X010031Y010848D02*
X010234Y010848D01*
X010234Y010925D02*
X010108Y010925D01*
X010185Y011002D02*
X010234Y011002D01*
X010510Y011248D02*
X010510Y011287D01*
X010903Y011287D01*
X010903Y011248D01*
X010903Y011287D02*
X010903Y011326D01*
X010510Y011326D02*
X010510Y011287D01*
X011652Y011759D02*
X011652Y011956D01*
X011848Y011956D01*
X011485Y012035D02*
X011487Y012053D01*
X011493Y012071D01*
X011502Y012087D01*
X011514Y012100D01*
X011529Y012111D01*
X011546Y012119D01*
X011564Y012123D01*
X011582Y012123D01*
X011600Y012119D01*
X011617Y012111D01*
X011632Y012100D01*
X011644Y012087D01*
X011653Y012071D01*
X011659Y012053D01*
X011661Y012035D01*
X011659Y012017D01*
X011653Y011999D01*
X011644Y011983D01*
X011632Y011970D01*
X011617Y011959D01*
X011600Y011951D01*
X011582Y011947D01*
X011564Y011947D01*
X011546Y011951D01*
X011529Y011959D01*
X011514Y011970D01*
X011502Y011983D01*
X011493Y011999D01*
X011487Y012017D01*
X011485Y012035D01*
X010903Y012193D02*
X010903Y012232D01*
X010510Y012232D01*
X010510Y012193D01*
X010510Y012232D02*
X010510Y012271D01*
X010903Y012271D02*
X010903Y012232D01*
X010234Y012783D02*
X010234Y013059D01*
X009959Y012783D01*
X010234Y012783D01*
X009368Y012783D01*
X010031Y012856D02*
X010234Y012856D01*
X010234Y012933D02*
X010109Y012933D01*
X010186Y013010D02*
X010234Y013010D01*
X010510Y013137D02*
X010510Y013177D01*
X010903Y013177D01*
X010903Y013137D01*
X010903Y013177D02*
X010903Y013216D01*
X010510Y013216D02*
X010510Y013177D01*
X010510Y014082D02*
X010510Y014122D01*
X010903Y014122D01*
X010903Y014082D01*
X010903Y014122D02*
X010903Y014161D01*
X010510Y014161D02*
X010510Y014122D01*
X010234Y014791D02*
X009959Y014791D01*
X010234Y015067D01*
X010234Y014791D01*
X009368Y014791D01*
X010032Y014864D02*
X010234Y014864D01*
X010234Y014941D02*
X010109Y014941D01*
X010186Y015019D02*
X010234Y015019D01*
X010510Y015027D02*
X010510Y015067D01*
X010903Y015067D01*
X010903Y015027D01*
X010903Y015067D02*
X010903Y015106D01*
X010903Y015067D02*
X010982Y015067D01*
X011022Y014673D01*
X011218Y014673D01*
X011218Y015106D02*
X011140Y015106D01*
X010982Y016011D01*
X010903Y016011D01*
X010510Y016011D01*
X010510Y015972D01*
X010510Y016011D02*
X010510Y016051D01*
X010903Y016051D02*
X010903Y016011D01*
X010903Y015972D01*
X011254Y016246D02*
X011254Y015336D01*
X013356Y015336D01*
X013356Y016246D01*
X011254Y016246D01*
X011073Y016789D02*
X011073Y017989D01*
X011373Y017989D01*
X011375Y017962D01*
X011380Y017935D01*
X011390Y017909D01*
X011402Y017885D01*
X011418Y017863D01*
X011436Y017843D01*
X011458Y017826D01*
X011481Y017811D01*
X011506Y017801D01*
X011532Y017793D01*
X011559Y017789D01*
X011587Y017789D01*
X011614Y017793D01*
X011640Y017801D01*
X011665Y017811D01*
X011688Y017826D01*
X011710Y017843D01*
X011728Y017863D01*
X011744Y017885D01*
X011756Y017909D01*
X011766Y017935D01*
X011771Y017962D01*
X011773Y017989D01*
X012073Y017989D01*
X012073Y016789D01*
X011073Y016789D01*
X010234Y016799D02*
X009368Y016799D01*
X009368Y017783D02*
X010234Y017783D01*
X010561Y017950D02*
X010861Y017950D01*
X010825Y018059D02*
X010785Y018059D01*
X010785Y018452D01*
X010825Y018452D01*
X010785Y018452D02*
X010746Y018452D01*
X010746Y018059D02*
X010785Y018059D01*
X010234Y018807D02*
X009368Y018807D01*
X010254Y019933D02*
X016356Y019933D01*
X016356Y020696D01*
X010254Y020696D01*
X010254Y019933D01*
X010274Y019930D02*
X010274Y020167D01*
X010510Y019930D01*
X010274Y019930D01*
X010274Y019962D02*
X010478Y019962D01*
X010401Y020039D02*
X010274Y020039D01*
X010274Y020116D02*
X010324Y020116D01*
X009608Y020815D02*
X009372Y020815D01*
X009372Y020578D01*
X009608Y020815D01*
X009605Y020812D02*
X009372Y020812D01*
X009372Y020734D02*
X009528Y020734D01*
X009451Y020657D02*
X009372Y020657D01*
X009372Y020580D02*
X009373Y020580D01*
X009350Y021260D02*
X010260Y021260D01*
X010260Y033361D01*
X009350Y033361D01*
X009350Y021260D01*
X009919Y021287D02*
X010234Y021287D01*
X010234Y021602D01*
X009919Y021287D01*
X009984Y021352D02*
X010234Y021352D01*
X010234Y021430D02*
X010062Y021430D01*
X010139Y021507D02*
X010234Y021507D01*
X010234Y021584D02*
X010216Y021584D01*
X010510Y021878D02*
X010510Y021917D01*
X010903Y021917D01*
X010903Y021956D01*
X010903Y021917D02*
X010903Y021878D01*
X010510Y021917D02*
X010510Y021956D01*
X010510Y022822D02*
X010510Y022862D01*
X010903Y022862D01*
X010903Y022822D01*
X010903Y022862D02*
X010903Y022901D01*
X010510Y022901D02*
X010510Y022862D01*
X010234Y023295D02*
X009959Y023295D01*
X010234Y023570D01*
X010234Y023295D01*
X009368Y023295D01*
X010024Y023361D02*
X010234Y023361D01*
X010234Y023438D02*
X010101Y023438D01*
X010179Y023515D02*
X010234Y023515D01*
X010510Y023767D02*
X010510Y023807D01*
X010903Y023807D01*
X010903Y023767D01*
X010903Y023807D02*
X010903Y023846D01*
X010510Y023846D02*
X010510Y023807D01*
X011652Y024279D02*
X011652Y024476D01*
X011848Y024476D01*
X011485Y024555D02*
X011487Y024573D01*
X011493Y024591D01*
X011502Y024607D01*
X011514Y024620D01*
X011529Y024631D01*
X011546Y024639D01*
X011564Y024643D01*
X011582Y024643D01*
X011600Y024639D01*
X011617Y024631D01*
X011632Y024620D01*
X011644Y024607D01*
X011653Y024591D01*
X011659Y024573D01*
X011661Y024555D01*
X011659Y024537D01*
X011653Y024519D01*
X011644Y024503D01*
X011632Y024490D01*
X011617Y024479D01*
X011600Y024471D01*
X011582Y024467D01*
X011564Y024467D01*
X011546Y024471D01*
X011529Y024479D01*
X011514Y024490D01*
X011502Y024503D01*
X011493Y024519D01*
X011487Y024537D01*
X011485Y024555D01*
X010903Y024712D02*
X010903Y024752D01*
X010510Y024752D01*
X010510Y024712D01*
X010510Y024752D02*
X010510Y024791D01*
X010903Y024791D02*
X010903Y024752D01*
X010234Y025303D02*
X010234Y025578D01*
X009959Y025303D01*
X010234Y025303D01*
X009368Y025303D01*
X010025Y025369D02*
X010234Y025369D01*
X010234Y025446D02*
X010102Y025446D01*
X010179Y025523D02*
X010234Y025523D01*
X010510Y025657D02*
X010510Y025696D01*
X010903Y025696D01*
X010903Y025657D01*
X010903Y025696D02*
X010903Y025736D01*
X010510Y025736D02*
X010510Y025696D01*
X010510Y026602D02*
X010510Y026641D01*
X010903Y026641D01*
X010903Y026602D01*
X010903Y026641D02*
X010903Y026681D01*
X010510Y026681D02*
X010510Y026641D01*
X010234Y027311D02*
X009959Y027311D01*
X010234Y027586D01*
X010234Y027311D01*
X009368Y027311D01*
X010025Y027377D02*
X010234Y027377D01*
X010234Y027454D02*
X010102Y027454D01*
X010179Y027531D02*
X010234Y027531D01*
X010510Y027547D02*
X010510Y027586D01*
X010903Y027586D01*
X010903Y027547D01*
X010903Y027586D02*
X010903Y027626D01*
X010903Y027586D02*
X010982Y027586D01*
X011022Y027193D01*
X011218Y027193D01*
X011218Y027626D02*
X011140Y027626D01*
X010982Y028531D01*
X010903Y028531D01*
X010510Y028531D01*
X010510Y028492D01*
X010510Y028531D02*
X010510Y028570D01*
X010903Y028570D02*
X010903Y028531D01*
X010903Y028492D01*
X011254Y028765D02*
X011254Y027856D01*
X013356Y027856D01*
X013356Y028765D01*
X011254Y028765D01*
X011073Y029309D02*
X011073Y030509D01*
X011373Y030509D01*
X011375Y030482D01*
X011380Y030455D01*
X011390Y030429D01*
X011402Y030405D01*
X011418Y030383D01*
X011436Y030363D01*
X011458Y030346D01*
X011481Y030331D01*
X011506Y030321D01*
X011532Y030313D01*
X011559Y030309D01*
X011587Y030309D01*
X011614Y030313D01*
X011640Y030321D01*
X011665Y030331D01*
X011688Y030346D01*
X011710Y030363D01*
X011728Y030383D01*
X011744Y030405D01*
X011756Y030429D01*
X011766Y030455D01*
X011771Y030482D01*
X011773Y030509D01*
X012073Y030509D01*
X012073Y029309D01*
X011073Y029309D01*
X010234Y029319D02*
X009368Y029319D01*
X009368Y030303D02*
X010234Y030303D01*
X010561Y030470D02*
X010861Y030470D01*
X010825Y030578D02*
X010785Y030578D01*
X010785Y030972D01*
X010825Y030972D01*
X010785Y030972D02*
X010746Y030972D01*
X010746Y030578D02*
X010785Y030578D01*
X010234Y031326D02*
X009368Y031326D01*
X010254Y032452D02*
X016356Y032452D01*
X016356Y033216D01*
X010254Y033216D01*
X010254Y032452D01*
X010274Y032450D02*
X010274Y032686D01*
X010510Y032450D01*
X010274Y032450D01*
X010274Y032475D02*
X010485Y032475D01*
X010408Y032552D02*
X010274Y032552D01*
X010274Y032629D02*
X010330Y032629D01*
X009608Y033334D02*
X009372Y033334D01*
X009372Y033098D01*
X009608Y033334D01*
X009598Y033325D02*
X009372Y033325D01*
X009372Y033247D02*
X009521Y033247D01*
X009444Y033170D02*
X009372Y033170D01*
X012715Y030775D02*
X012715Y030736D01*
X013108Y030736D01*
X013108Y030775D01*
X013108Y030736D02*
X013108Y030696D01*
X012715Y030696D02*
X012715Y030736D01*
X013502Y030736D02*
X013502Y030775D01*
X013502Y030736D02*
X013896Y030736D01*
X013896Y030775D01*
X013896Y030736D02*
X013896Y030696D01*
X013502Y030696D02*
X013502Y030736D01*
X013856Y030303D02*
X013856Y030185D01*
X013872Y030183D01*
X013888Y030178D01*
X013902Y030170D01*
X013915Y030159D01*
X013924Y030146D01*
X013931Y030130D01*
X013935Y030114D01*
X013935Y030098D01*
X013931Y030082D01*
X013924Y030067D01*
X013915Y030053D01*
X013902Y030042D01*
X013888Y030034D01*
X013872Y030029D01*
X013856Y030027D01*
X013856Y029909D01*
X014211Y030342D02*
X014368Y030342D01*
X014722Y030303D02*
X014722Y029909D01*
X015155Y029555D02*
X015549Y029555D01*
X015589Y029909D02*
X015589Y030067D01*
X015549Y030421D02*
X015431Y030421D01*
X015429Y030405D01*
X015424Y030389D01*
X015416Y030375D01*
X015405Y030362D01*
X015392Y030353D01*
X015376Y030346D01*
X015360Y030342D01*
X015344Y030342D01*
X015328Y030346D01*
X015313Y030353D01*
X015299Y030362D01*
X015288Y030375D01*
X015280Y030389D01*
X015275Y030405D01*
X015273Y030421D01*
X015274Y030421D02*
X015155Y030421D01*
X015392Y030539D02*
X015431Y030539D01*
X015431Y030933D01*
X015392Y030933D01*
X015431Y030933D02*
X015470Y030933D01*
X015470Y030539D02*
X015431Y030539D01*
X017715Y030303D02*
X018581Y030303D01*
X018907Y030470D02*
X019207Y030470D01*
X019171Y030578D02*
X019132Y030578D01*
X019132Y030972D01*
X019171Y030972D01*
X019132Y030972D02*
X019092Y030972D01*
X019092Y030578D02*
X019132Y030578D01*
X019419Y030509D02*
X019719Y030509D01*
X019721Y030482D01*
X019726Y030455D01*
X019736Y030429D01*
X019748Y030405D01*
X019764Y030383D01*
X019782Y030363D01*
X019804Y030346D01*
X019827Y030331D01*
X019852Y030321D01*
X019878Y030313D01*
X019905Y030309D01*
X019933Y030309D01*
X019960Y030313D01*
X019986Y030321D01*
X020011Y030331D01*
X020034Y030346D01*
X020056Y030363D01*
X020074Y030383D01*
X020090Y030405D01*
X020102Y030429D01*
X020112Y030455D01*
X020117Y030482D01*
X020119Y030509D01*
X020419Y030509D01*
X020419Y029309D01*
X019419Y029309D01*
X019419Y030509D01*
X018581Y031326D02*
X017715Y031326D01*
X018601Y032452D02*
X024702Y032452D01*
X024702Y033216D01*
X018601Y033216D01*
X018601Y032452D01*
X018620Y032450D02*
X018620Y032686D01*
X018856Y032450D01*
X018620Y032450D01*
X018620Y032475D02*
X018831Y032475D01*
X018754Y032552D02*
X018620Y032552D01*
X018620Y032629D02*
X018677Y032629D01*
X018606Y033361D02*
X017697Y033361D01*
X017697Y021260D01*
X018606Y021260D01*
X018606Y033361D01*
X017955Y033334D02*
X017718Y033334D01*
X017718Y033098D01*
X017955Y033334D01*
X017945Y033325D02*
X017718Y033325D01*
X017718Y033247D02*
X017868Y033247D01*
X017790Y033170D02*
X017718Y033170D01*
X017260Y033361D02*
X017260Y021260D01*
X016350Y021260D01*
X016350Y033361D01*
X017260Y033361D01*
X016608Y033334D02*
X016372Y033334D01*
X016372Y033098D01*
X016608Y033334D01*
X016598Y033325D02*
X016372Y033325D01*
X016372Y033247D02*
X016521Y033247D01*
X016444Y033170D02*
X016372Y033170D01*
X017715Y029319D02*
X018581Y029319D01*
X018856Y028570D02*
X018856Y028531D01*
X019250Y028531D01*
X019250Y028492D01*
X019250Y028531D02*
X019250Y028570D01*
X019250Y028531D02*
X019329Y028531D01*
X019486Y027626D01*
X019565Y027626D01*
X019601Y027856D02*
X019601Y028765D01*
X021702Y028765D01*
X021702Y027856D01*
X019601Y027856D01*
X019329Y027586D02*
X019250Y027586D01*
X018856Y027586D01*
X018856Y027547D01*
X018856Y027586D02*
X018856Y027626D01*
X018581Y027586D02*
X018581Y027311D01*
X018305Y027311D01*
X018581Y027586D01*
X018581Y027531D02*
X018526Y027531D01*
X018581Y027454D02*
X018449Y027454D01*
X018371Y027377D02*
X018581Y027377D01*
X018581Y027311D02*
X017715Y027311D01*
X018856Y026681D02*
X018856Y026641D01*
X019250Y026641D01*
X019250Y026602D01*
X019250Y026641D02*
X019250Y026681D01*
X018856Y026641D02*
X018856Y026602D01*
X019368Y027193D02*
X019565Y027193D01*
X019368Y027193D02*
X019329Y027586D01*
X019250Y027586D02*
X019250Y027547D01*
X019250Y027586D02*
X019250Y027626D01*
X018856Y028492D02*
X018856Y028531D01*
X020903Y027389D02*
X020903Y027114D01*
X021041Y027114D02*
X021041Y027252D01*
X021179Y027252D01*
X021179Y027389D02*
X020903Y027389D01*
X021809Y028334D02*
X021811Y028355D01*
X021817Y028375D01*
X021826Y028395D01*
X021838Y028412D01*
X021853Y028426D01*
X021871Y028438D01*
X021891Y028446D01*
X021911Y028451D01*
X021932Y028452D01*
X021953Y028449D01*
X021973Y028443D01*
X021992Y028432D01*
X022009Y028419D01*
X022022Y028403D01*
X022033Y028385D01*
X022041Y028365D01*
X022045Y028345D01*
X022045Y028323D01*
X022041Y028303D01*
X022033Y028283D01*
X022022Y028265D01*
X022009Y028249D01*
X021992Y028236D01*
X021973Y028225D01*
X021953Y028219D01*
X021932Y028216D01*
X021911Y028217D01*
X021891Y028222D01*
X021871Y028230D01*
X021853Y028242D01*
X021838Y028256D01*
X021826Y028273D01*
X021817Y028293D01*
X021811Y028313D01*
X021809Y028334D01*
X021675Y028507D02*
X021439Y028744D01*
X021675Y028744D01*
X021675Y028507D01*
X021675Y028536D02*
X021647Y028536D01*
X021675Y028613D02*
X021570Y028613D01*
X021493Y028690D02*
X021675Y028690D01*
X021140Y028885D02*
X021100Y028885D01*
X021100Y029279D01*
X021061Y029279D01*
X021100Y029279D02*
X021140Y029279D01*
X021100Y028885D02*
X021061Y028885D01*
X022203Y029909D02*
X022203Y030027D01*
X022219Y030029D01*
X022235Y030034D01*
X022249Y030042D01*
X022262Y030053D01*
X022271Y030067D01*
X022278Y030082D01*
X022282Y030098D01*
X022282Y030114D01*
X022278Y030130D01*
X022271Y030146D01*
X022262Y030159D01*
X022249Y030170D01*
X022235Y030178D01*
X022219Y030183D01*
X022203Y030185D01*
X022203Y030303D01*
X022557Y030342D02*
X022715Y030342D01*
X023069Y030303D02*
X023069Y029909D01*
X023502Y029555D02*
X023896Y029555D01*
X023935Y029909D02*
X023935Y030067D01*
X023896Y030421D02*
X023777Y030421D01*
X023778Y030421D02*
X023776Y030405D01*
X023771Y030389D01*
X023763Y030375D01*
X023752Y030362D01*
X023739Y030353D01*
X023723Y030346D01*
X023707Y030342D01*
X023691Y030342D01*
X023675Y030346D01*
X023660Y030353D01*
X023646Y030362D01*
X023635Y030375D01*
X023627Y030389D01*
X023622Y030405D01*
X023620Y030421D01*
X023502Y030421D01*
X023738Y030539D02*
X023777Y030539D01*
X023777Y030933D01*
X023738Y030933D01*
X023777Y030933D02*
X023817Y030933D01*
X023817Y030539D02*
X023777Y030539D01*
X022242Y030696D02*
X022242Y030736D01*
X021848Y030736D01*
X021848Y030775D01*
X021848Y030736D02*
X021848Y030696D01*
X021455Y030696D02*
X021455Y030736D01*
X021061Y030736D01*
X021061Y030775D01*
X021061Y030736D02*
X021061Y030696D01*
X021455Y030736D02*
X021455Y030775D01*
X022242Y030736D02*
X022242Y030775D01*
X022793Y028728D02*
X022833Y028728D01*
X022833Y028334D01*
X022872Y028334D01*
X022833Y028334D02*
X022793Y028334D01*
X022793Y028177D02*
X022833Y028177D01*
X022833Y027783D01*
X022872Y027783D01*
X022833Y027783D02*
X022793Y027783D01*
X022833Y027389D02*
X023108Y027389D01*
X023108Y027114D01*
X022970Y027114D02*
X022970Y027252D01*
X022833Y027252D01*
X023108Y027468D02*
X023110Y027486D01*
X023116Y027502D01*
X023125Y027517D01*
X023138Y027530D01*
X023153Y027539D01*
X023169Y027545D01*
X023187Y027547D01*
X023205Y027545D01*
X023221Y027539D01*
X023236Y027530D01*
X023249Y027517D01*
X023258Y027502D01*
X023264Y027486D01*
X023266Y027468D01*
X023264Y027450D01*
X023258Y027434D01*
X023249Y027419D01*
X023236Y027406D01*
X023221Y027397D01*
X023205Y027391D01*
X023187Y027389D01*
X023169Y027391D01*
X023153Y027397D01*
X023138Y027406D01*
X023125Y027419D01*
X023116Y027434D01*
X023110Y027450D01*
X023108Y027468D01*
X022872Y028177D02*
X022833Y028177D01*
X022833Y028728D02*
X022872Y028728D01*
X026061Y029319D02*
X026927Y029319D01*
X027203Y028570D02*
X027203Y028531D01*
X027596Y028531D01*
X027596Y028492D01*
X027596Y028531D02*
X027596Y028570D01*
X027596Y028531D02*
X027675Y028531D01*
X027833Y027626D01*
X027911Y027626D01*
X027947Y027856D02*
X027947Y028765D01*
X030049Y028765D01*
X030049Y027856D01*
X027947Y027856D01*
X027675Y027586D02*
X027596Y027586D01*
X027203Y027586D01*
X027203Y027547D01*
X027203Y027586D02*
X027203Y027626D01*
X026927Y027586D02*
X026927Y027311D01*
X026652Y027311D01*
X026927Y027586D01*
X026927Y027531D02*
X026872Y027531D01*
X026927Y027454D02*
X026795Y027454D01*
X026718Y027377D02*
X026927Y027377D01*
X026927Y027311D02*
X026061Y027311D01*
X027203Y026681D02*
X027203Y026641D01*
X027596Y026641D01*
X027596Y026602D01*
X027596Y026641D02*
X027596Y026681D01*
X027203Y026641D02*
X027203Y026602D01*
X027715Y027193D02*
X027911Y027193D01*
X027715Y027193D02*
X027675Y027586D01*
X027596Y027586D02*
X027596Y027547D01*
X027596Y027586D02*
X027596Y027626D01*
X027203Y028492D02*
X027203Y028531D01*
X027766Y029309D02*
X027766Y030509D01*
X028066Y030509D01*
X028068Y030482D01*
X028073Y030455D01*
X028083Y030429D01*
X028095Y030405D01*
X028111Y030383D01*
X028129Y030363D01*
X028151Y030346D01*
X028174Y030331D01*
X028199Y030321D01*
X028225Y030313D01*
X028252Y030309D01*
X028280Y030309D01*
X028307Y030313D01*
X028333Y030321D01*
X028358Y030331D01*
X028381Y030346D01*
X028403Y030363D01*
X028421Y030383D01*
X028437Y030405D01*
X028449Y030429D01*
X028459Y030455D01*
X028464Y030482D01*
X028466Y030509D01*
X028766Y030509D01*
X028766Y029309D01*
X027766Y029309D01*
X026927Y030303D02*
X026061Y030303D01*
X026061Y031326D02*
X026927Y031326D01*
X027439Y030972D02*
X027478Y030972D01*
X027478Y030578D01*
X027518Y030578D01*
X027478Y030578D02*
X027439Y030578D01*
X027554Y030470D02*
X027254Y030470D01*
X027478Y030972D02*
X027518Y030972D01*
X027203Y032450D02*
X026966Y032450D01*
X026966Y032686D01*
X027203Y032450D01*
X027178Y032475D02*
X026966Y032475D01*
X026947Y032452D02*
X033049Y032452D01*
X033049Y033216D01*
X026947Y033216D01*
X026947Y032452D01*
X026966Y032552D02*
X027101Y032552D01*
X027023Y032629D02*
X026966Y032629D01*
X026953Y033361D02*
X026043Y033361D01*
X026043Y021260D01*
X026953Y021260D01*
X026953Y033361D01*
X026301Y033334D02*
X026065Y033334D01*
X026065Y033098D01*
X026301Y033334D01*
X026291Y033325D02*
X026065Y033325D01*
X026065Y033247D02*
X026214Y033247D01*
X026137Y033170D02*
X026065Y033170D01*
X025606Y033361D02*
X025606Y021260D01*
X024697Y021260D01*
X024697Y033361D01*
X025606Y033361D01*
X024955Y033334D02*
X024718Y033334D01*
X024718Y033098D01*
X024955Y033334D01*
X024945Y033325D02*
X024718Y033325D01*
X024718Y033247D02*
X024868Y033247D01*
X024790Y033170D02*
X024718Y033170D01*
X029407Y030775D02*
X029407Y030736D01*
X029801Y030736D01*
X029801Y030775D01*
X029801Y030736D02*
X029801Y030696D01*
X029407Y030696D02*
X029407Y030736D01*
X030195Y030736D02*
X030589Y030736D01*
X030589Y030775D01*
X030589Y030736D02*
X030589Y030696D01*
X030195Y030696D02*
X030195Y030736D01*
X030195Y030775D01*
X030549Y030303D02*
X030549Y030185D01*
X030565Y030183D01*
X030581Y030178D01*
X030595Y030170D01*
X030608Y030159D01*
X030617Y030146D01*
X030624Y030130D01*
X030628Y030114D01*
X030628Y030098D01*
X030624Y030082D01*
X030617Y030067D01*
X030608Y030053D01*
X030595Y030042D01*
X030581Y030034D01*
X030565Y030029D01*
X030549Y030027D01*
X030549Y029909D01*
X030903Y030342D02*
X031061Y030342D01*
X031415Y030303D02*
X031415Y029909D01*
X031848Y029555D02*
X032242Y029555D01*
X032281Y029909D02*
X032281Y030067D01*
X032242Y030421D02*
X032124Y030421D01*
X032122Y030405D01*
X032117Y030389D01*
X032109Y030375D01*
X032098Y030362D01*
X032085Y030353D01*
X032069Y030346D01*
X032053Y030342D01*
X032037Y030342D01*
X032021Y030346D01*
X032006Y030353D01*
X031992Y030362D01*
X031981Y030375D01*
X031973Y030389D01*
X031968Y030405D01*
X031966Y030421D01*
X031848Y030421D01*
X032085Y030539D02*
X032124Y030539D01*
X032124Y030933D01*
X032085Y030933D01*
X032124Y030933D02*
X032163Y030933D01*
X032163Y030539D02*
X032124Y030539D01*
X031218Y028728D02*
X031179Y028728D01*
X031179Y028334D01*
X031218Y028334D01*
X031179Y028334D02*
X031140Y028334D01*
X031140Y028177D02*
X031179Y028177D01*
X031179Y027783D01*
X031218Y027783D01*
X031179Y027783D02*
X031140Y027783D01*
X031179Y027389D02*
X031455Y027389D01*
X031455Y027114D01*
X031317Y027114D02*
X031317Y027252D01*
X031179Y027252D01*
X031454Y027468D02*
X031456Y027486D01*
X031462Y027502D01*
X031471Y027517D01*
X031484Y027530D01*
X031499Y027539D01*
X031515Y027545D01*
X031533Y027547D01*
X031551Y027545D01*
X031567Y027539D01*
X031582Y027530D01*
X031595Y027517D01*
X031604Y027502D01*
X031610Y027486D01*
X031612Y027468D01*
X031610Y027450D01*
X031604Y027434D01*
X031595Y027419D01*
X031582Y027406D01*
X031567Y027397D01*
X031551Y027391D01*
X031533Y027389D01*
X031515Y027391D01*
X031499Y027397D01*
X031484Y027406D01*
X031471Y027419D01*
X031462Y027434D01*
X031456Y027450D01*
X031454Y027468D01*
X031218Y028177D02*
X031179Y028177D01*
X031179Y028728D02*
X031140Y028728D01*
X030156Y028334D02*
X030158Y028355D01*
X030164Y028375D01*
X030173Y028395D01*
X030185Y028412D01*
X030200Y028426D01*
X030218Y028438D01*
X030238Y028446D01*
X030258Y028451D01*
X030279Y028452D01*
X030300Y028449D01*
X030320Y028443D01*
X030339Y028432D01*
X030356Y028419D01*
X030369Y028403D01*
X030380Y028385D01*
X030388Y028365D01*
X030392Y028345D01*
X030392Y028323D01*
X030388Y028303D01*
X030380Y028283D01*
X030369Y028265D01*
X030356Y028249D01*
X030339Y028236D01*
X030320Y028225D01*
X030300Y028219D01*
X030279Y028216D01*
X030258Y028217D01*
X030238Y028222D01*
X030218Y028230D01*
X030200Y028242D01*
X030185Y028256D01*
X030173Y028273D01*
X030164Y028293D01*
X030158Y028313D01*
X030156Y028334D01*
X030022Y028507D02*
X029785Y028744D01*
X030022Y028744D01*
X030022Y028507D01*
X030022Y028536D02*
X029993Y028536D01*
X030022Y028613D02*
X029916Y028613D01*
X029839Y028690D02*
X030022Y028690D01*
X029486Y028885D02*
X029447Y028885D01*
X029447Y029279D01*
X029407Y029279D01*
X029447Y029279D02*
X029486Y029279D01*
X029447Y028885D02*
X029407Y028885D01*
X029526Y027389D02*
X029250Y027389D01*
X029250Y027114D01*
X029388Y027114D02*
X029388Y027252D01*
X029526Y027252D01*
X029388Y025460D02*
X029388Y025322D01*
X029526Y025322D01*
X029526Y025185D02*
X029250Y025185D01*
X029250Y025460D01*
X029211Y024909D02*
X029171Y024909D01*
X029171Y024515D01*
X029211Y024515D01*
X029171Y024515D02*
X029132Y024515D01*
X029033Y024279D02*
X028994Y024279D01*
X028541Y024476D02*
X028344Y024476D01*
X028344Y024279D01*
X028178Y024555D02*
X028180Y024573D01*
X028186Y024591D01*
X028195Y024607D01*
X028207Y024620D01*
X028222Y024631D01*
X028239Y024639D01*
X028257Y024643D01*
X028275Y024643D01*
X028293Y024639D01*
X028310Y024631D01*
X028325Y024620D01*
X028337Y024607D01*
X028346Y024591D01*
X028352Y024573D01*
X028354Y024555D01*
X028352Y024537D01*
X028346Y024519D01*
X028337Y024503D01*
X028325Y024490D01*
X028310Y024479D01*
X028293Y024471D01*
X028275Y024467D01*
X028257Y024467D01*
X028239Y024471D01*
X028222Y024479D01*
X028207Y024490D01*
X028195Y024503D01*
X028186Y024519D01*
X028180Y024537D01*
X028178Y024555D01*
X027596Y024712D02*
X027596Y024752D01*
X027203Y024752D01*
X027203Y024712D01*
X027203Y024752D02*
X027203Y024791D01*
X027596Y024791D02*
X027596Y024752D01*
X026927Y025303D02*
X026927Y025578D01*
X026652Y025303D01*
X026927Y025303D01*
X026061Y025303D01*
X025589Y025303D02*
X024722Y025303D01*
X024368Y025303D02*
X024368Y024870D01*
X024606Y024861D02*
X024606Y022760D01*
X023697Y022760D01*
X023697Y024861D01*
X024606Y024861D01*
X024722Y024594D02*
X024998Y024319D01*
X024722Y024319D01*
X023955Y024834D02*
X023718Y024834D01*
X023718Y024598D01*
X023955Y024834D01*
X023948Y024828D02*
X023718Y024828D01*
X023718Y024751D02*
X023871Y024751D01*
X023794Y024674D02*
X023718Y024674D01*
X023606Y024861D02*
X023606Y022760D01*
X022697Y022760D01*
X022697Y024861D01*
X023606Y024861D01*
X023463Y024870D02*
X023659Y025067D01*
X023659Y025342D01*
X023187Y025106D02*
X023189Y025127D01*
X023195Y025147D01*
X023204Y025167D01*
X023216Y025184D01*
X023231Y025198D01*
X023249Y025210D01*
X023269Y025218D01*
X023289Y025223D01*
X023310Y025224D01*
X023331Y025221D01*
X023351Y025215D01*
X023370Y025204D01*
X023387Y025191D01*
X023400Y025175D01*
X023411Y025157D01*
X023419Y025137D01*
X023423Y025117D01*
X023423Y025095D01*
X023419Y025075D01*
X023411Y025055D01*
X023400Y025037D01*
X023387Y025021D01*
X023370Y025008D01*
X023351Y024997D01*
X023331Y024991D01*
X023310Y024988D01*
X023289Y024989D01*
X023269Y024994D01*
X023249Y025002D01*
X023231Y025014D01*
X023216Y025028D01*
X023204Y025045D01*
X023195Y025065D01*
X023189Y025085D01*
X023187Y025106D01*
X023108Y025185D02*
X023108Y025460D01*
X022970Y025460D02*
X022970Y025322D01*
X022833Y025322D01*
X022833Y025185D02*
X023108Y025185D01*
X022955Y024834D02*
X022718Y024834D01*
X022718Y024598D01*
X022955Y024834D01*
X022948Y024828D02*
X022718Y024828D01*
X022718Y024751D02*
X022871Y024751D01*
X022794Y024674D02*
X022718Y024674D01*
X022321Y024279D02*
X022321Y024240D01*
X021927Y024240D01*
X021927Y024200D01*
X021888Y024200D02*
X021888Y024240D01*
X021494Y024240D01*
X021494Y024200D01*
X021494Y024240D02*
X021494Y024279D01*
X021337Y024279D02*
X021337Y024476D01*
X021140Y024476D01*
X020864Y024515D02*
X020825Y024515D01*
X020825Y024909D01*
X020864Y024909D01*
X020825Y024909D02*
X020785Y024909D01*
X020903Y025185D02*
X021179Y025185D01*
X021179Y025322D02*
X021041Y025322D01*
X021041Y025460D01*
X020903Y025460D02*
X020903Y025185D01*
X020825Y024515D02*
X020785Y024515D01*
X020687Y024279D02*
X020648Y024279D01*
X020195Y024476D02*
X019998Y024476D01*
X019998Y024279D01*
X019831Y024555D02*
X019833Y024573D01*
X019839Y024591D01*
X019848Y024607D01*
X019860Y024620D01*
X019875Y024631D01*
X019892Y024639D01*
X019910Y024643D01*
X019928Y024643D01*
X019946Y024639D01*
X019963Y024631D01*
X019978Y024620D01*
X019990Y024607D01*
X019999Y024591D01*
X020005Y024573D01*
X020007Y024555D01*
X020005Y024537D01*
X019999Y024519D01*
X019990Y024503D01*
X019978Y024490D01*
X019963Y024479D01*
X019946Y024471D01*
X019928Y024467D01*
X019910Y024467D01*
X019892Y024471D01*
X019875Y024479D01*
X019860Y024490D01*
X019848Y024503D01*
X019839Y024519D01*
X019833Y024537D01*
X019831Y024555D01*
X019250Y024712D02*
X019250Y024752D01*
X018856Y024752D01*
X018856Y024712D01*
X018856Y024752D02*
X018856Y024791D01*
X019250Y024791D02*
X019250Y024752D01*
X018581Y025303D02*
X018581Y025578D01*
X018305Y025303D01*
X018581Y025303D01*
X017715Y025303D01*
X017242Y025303D02*
X016376Y025303D01*
X016022Y025303D02*
X016022Y024870D01*
X016260Y024861D02*
X016260Y022760D01*
X015350Y022760D01*
X015350Y024861D01*
X016260Y024861D01*
X016376Y024594D02*
X016652Y024319D01*
X016376Y024319D01*
X015608Y024834D02*
X015372Y024834D01*
X015372Y024598D01*
X015608Y024834D01*
X015602Y024828D02*
X015372Y024828D01*
X015372Y024751D02*
X015525Y024751D01*
X015448Y024674D02*
X015372Y024674D01*
X015260Y024861D02*
X015260Y022760D01*
X014350Y022760D01*
X014350Y024861D01*
X015260Y024861D01*
X015116Y024870D02*
X015313Y025067D01*
X015313Y025342D01*
X014841Y025106D02*
X014843Y025127D01*
X014849Y025147D01*
X014858Y025167D01*
X014870Y025184D01*
X014885Y025198D01*
X014903Y025210D01*
X014923Y025218D01*
X014943Y025223D01*
X014964Y025224D01*
X014985Y025221D01*
X015005Y025215D01*
X015024Y025204D01*
X015041Y025191D01*
X015054Y025175D01*
X015065Y025157D01*
X015073Y025137D01*
X015077Y025117D01*
X015077Y025095D01*
X015073Y025075D01*
X015065Y025055D01*
X015054Y025037D01*
X015041Y025021D01*
X015024Y025008D01*
X015005Y024997D01*
X014985Y024991D01*
X014964Y024988D01*
X014943Y024989D01*
X014923Y024994D01*
X014903Y025002D01*
X014885Y025014D01*
X014870Y025028D01*
X014858Y025045D01*
X014849Y025065D01*
X014843Y025085D01*
X014841Y025106D01*
X014762Y025185D02*
X014762Y025460D01*
X014624Y025460D02*
X014624Y025322D01*
X014486Y025322D01*
X014486Y025185D02*
X014762Y025185D01*
X014608Y024834D02*
X014372Y024834D01*
X014372Y024598D01*
X014608Y024834D01*
X014602Y024828D02*
X014372Y024828D01*
X014372Y024751D02*
X014525Y024751D01*
X014448Y024674D02*
X014372Y024674D01*
X013974Y024279D02*
X013974Y024240D01*
X013581Y024240D01*
X013581Y024200D01*
X013541Y024200D02*
X013541Y024240D01*
X013148Y024240D01*
X013148Y024200D01*
X013148Y024240D02*
X013148Y024279D01*
X012990Y024279D02*
X012990Y024476D01*
X012793Y024476D01*
X012518Y024515D02*
X012478Y024515D01*
X012478Y024909D01*
X012518Y024909D01*
X012478Y024909D02*
X012439Y024909D01*
X012557Y025185D02*
X012833Y025185D01*
X012833Y025322D02*
X012695Y025322D01*
X012695Y025460D01*
X012557Y025460D02*
X012557Y025185D01*
X012478Y024515D02*
X012439Y024515D01*
X012340Y024279D02*
X012301Y024279D01*
X011848Y023748D02*
X011848Y023551D01*
X011652Y023019D02*
X011652Y022822D01*
X011848Y022822D01*
X012301Y023019D02*
X012340Y023019D01*
X012636Y022783D02*
X012675Y022783D01*
X012675Y022389D01*
X012636Y022389D01*
X012675Y022389D02*
X012715Y022389D01*
X012715Y022783D02*
X012675Y022783D01*
X012793Y022822D02*
X012990Y022822D01*
X012990Y023019D01*
X012793Y023551D02*
X012793Y023748D01*
X013541Y024240D02*
X013541Y024279D01*
X013581Y024279D02*
X013581Y024240D01*
X013974Y024240D02*
X013974Y024200D01*
X015667Y025106D02*
X015669Y025127D01*
X015675Y025147D01*
X015684Y025167D01*
X015696Y025184D01*
X015711Y025198D01*
X015729Y025210D01*
X015749Y025218D01*
X015769Y025223D01*
X015790Y025224D01*
X015811Y025221D01*
X015831Y025215D01*
X015850Y025204D01*
X015867Y025191D01*
X015880Y025175D01*
X015891Y025157D01*
X015899Y025137D01*
X015903Y025117D01*
X015903Y025095D01*
X015899Y025075D01*
X015891Y025055D01*
X015880Y025037D01*
X015867Y025021D01*
X015850Y025008D01*
X015831Y024997D01*
X015811Y024991D01*
X015790Y024988D01*
X015769Y024989D01*
X015749Y024994D01*
X015729Y025002D01*
X015711Y025014D01*
X015696Y025028D01*
X015684Y025045D01*
X015675Y025065D01*
X015669Y025085D01*
X015667Y025106D01*
X017242Y023610D02*
X016927Y023295D01*
X017242Y023295D01*
X017242Y023610D01*
X017715Y023295D02*
X018581Y023295D01*
X018305Y023295D01*
X018581Y023570D01*
X018581Y023295D01*
X018581Y023361D02*
X018371Y023361D01*
X018448Y023438D02*
X018581Y023438D01*
X018581Y023515D02*
X018525Y023515D01*
X018856Y023767D02*
X018856Y023807D01*
X019250Y023807D01*
X019250Y023767D01*
X019250Y023807D02*
X019250Y023846D01*
X018856Y023846D02*
X018856Y023807D01*
X018856Y022901D02*
X018856Y022862D01*
X019250Y022862D01*
X019250Y022822D01*
X019250Y022862D02*
X019250Y022901D01*
X018856Y022862D02*
X018856Y022822D01*
X019998Y022822D02*
X019998Y023019D01*
X019998Y022822D02*
X020195Y022822D01*
X020648Y023019D02*
X020687Y023019D01*
X020982Y022783D02*
X021022Y022783D01*
X021022Y022389D01*
X020982Y022389D01*
X021022Y022389D02*
X021061Y022389D01*
X021061Y022783D02*
X021022Y022783D01*
X021140Y022822D02*
X021337Y022822D01*
X021337Y023019D01*
X021140Y023551D02*
X021140Y023748D01*
X021888Y024240D02*
X021888Y024279D01*
X021927Y024279D02*
X021927Y024240D01*
X022321Y024240D02*
X022321Y024200D01*
X024014Y025106D02*
X024016Y025127D01*
X024022Y025147D01*
X024031Y025167D01*
X024043Y025184D01*
X024058Y025198D01*
X024076Y025210D01*
X024096Y025218D01*
X024116Y025223D01*
X024137Y025224D01*
X024158Y025221D01*
X024178Y025215D01*
X024197Y025204D01*
X024214Y025191D01*
X024227Y025175D01*
X024238Y025157D01*
X024246Y025137D01*
X024250Y025117D01*
X024250Y025095D01*
X024246Y025075D01*
X024238Y025055D01*
X024227Y025037D01*
X024214Y025021D01*
X024197Y025008D01*
X024178Y024997D01*
X024158Y024991D01*
X024137Y024988D01*
X024116Y024989D01*
X024096Y024994D01*
X024076Y025002D01*
X024058Y025014D01*
X024043Y025028D01*
X024031Y025045D01*
X024022Y025065D01*
X024016Y025085D01*
X024014Y025106D01*
X025589Y023610D02*
X025274Y023295D01*
X025589Y023295D01*
X025589Y023610D01*
X026061Y023295D02*
X026927Y023295D01*
X026652Y023295D01*
X026927Y023570D01*
X026927Y023295D01*
X026927Y023361D02*
X026717Y023361D01*
X026794Y023438D02*
X026927Y023438D01*
X026927Y023515D02*
X026872Y023515D01*
X027203Y023767D02*
X027203Y023807D01*
X027596Y023807D01*
X027596Y023767D01*
X027596Y023807D02*
X027596Y023846D01*
X027203Y023846D02*
X027203Y023807D01*
X027203Y022901D02*
X027203Y022862D01*
X027596Y022862D01*
X027596Y022822D01*
X027596Y022862D02*
X027596Y022901D01*
X027203Y022862D02*
X027203Y022822D01*
X028344Y022822D02*
X028344Y023019D01*
X028344Y022822D02*
X028541Y022822D01*
X028994Y023019D02*
X029033Y023019D01*
X029329Y022783D02*
X029368Y022783D01*
X029368Y022389D01*
X029329Y022389D01*
X029368Y022389D02*
X029407Y022389D01*
X029407Y022783D02*
X029368Y022783D01*
X029486Y022822D02*
X029683Y022822D01*
X029683Y023019D01*
X029486Y023551D02*
X029486Y023748D01*
X029683Y024279D02*
X029683Y024476D01*
X029486Y024476D01*
X029840Y024279D02*
X029840Y024240D01*
X030234Y024240D01*
X030234Y024200D01*
X030274Y024200D02*
X030274Y024240D01*
X030667Y024240D01*
X030667Y024200D01*
X030667Y024240D02*
X030667Y024279D01*
X030274Y024279D02*
X030274Y024240D01*
X030234Y024240D02*
X030234Y024279D01*
X029840Y024240D02*
X029840Y024200D01*
X029171Y024909D02*
X029132Y024909D01*
X028541Y023748D02*
X028541Y023551D01*
X026927Y025369D02*
X026718Y025369D01*
X026795Y025446D02*
X026927Y025446D01*
X026927Y025523D02*
X026872Y025523D01*
X027203Y025657D02*
X027203Y025696D01*
X027596Y025696D01*
X027596Y025657D01*
X027596Y025696D02*
X027596Y025736D01*
X027203Y025736D02*
X027203Y025696D01*
X031043Y024861D02*
X031043Y022760D01*
X031953Y022760D01*
X031953Y024861D01*
X031043Y024861D01*
X031065Y024834D02*
X031301Y024834D01*
X031065Y024598D01*
X031065Y024834D01*
X031065Y024828D02*
X031295Y024828D01*
X031218Y024751D02*
X031065Y024751D01*
X031065Y024674D02*
X031140Y024674D01*
X031179Y025185D02*
X031455Y025185D01*
X031455Y025460D01*
X031317Y025460D02*
X031317Y025322D01*
X031179Y025322D01*
X031534Y025106D02*
X031536Y025127D01*
X031542Y025147D01*
X031551Y025167D01*
X031563Y025184D01*
X031578Y025198D01*
X031596Y025210D01*
X031616Y025218D01*
X031636Y025223D01*
X031657Y025224D01*
X031678Y025221D01*
X031698Y025215D01*
X031717Y025204D01*
X031734Y025191D01*
X031747Y025175D01*
X031758Y025157D01*
X031766Y025137D01*
X031770Y025117D01*
X031770Y025095D01*
X031766Y025075D01*
X031758Y025055D01*
X031747Y025037D01*
X031734Y025021D01*
X031717Y025008D01*
X031698Y024997D01*
X031678Y024991D01*
X031657Y024988D01*
X031636Y024989D01*
X031616Y024994D01*
X031596Y025002D01*
X031578Y025014D01*
X031563Y025028D01*
X031551Y025045D01*
X031542Y025065D01*
X031536Y025085D01*
X031534Y025106D01*
X031809Y024870D02*
X032006Y025067D01*
X032006Y025342D01*
X032043Y024861D02*
X032953Y024861D01*
X032953Y022760D01*
X032043Y022760D01*
X032043Y024861D01*
X032065Y024834D02*
X032301Y024834D01*
X032065Y024598D01*
X032065Y024834D01*
X032065Y024828D02*
X032295Y024828D01*
X032218Y024751D02*
X032065Y024751D01*
X032065Y024674D02*
X032140Y024674D01*
X032715Y024870D02*
X032715Y025303D01*
X032360Y025106D02*
X032362Y025127D01*
X032368Y025147D01*
X032377Y025167D01*
X032389Y025184D01*
X032404Y025198D01*
X032422Y025210D01*
X032442Y025218D01*
X032462Y025223D01*
X032483Y025224D01*
X032504Y025221D01*
X032524Y025215D01*
X032543Y025204D01*
X032560Y025191D01*
X032573Y025175D01*
X032584Y025157D01*
X032592Y025137D01*
X032596Y025117D01*
X032596Y025095D01*
X032592Y025075D01*
X032584Y025055D01*
X032573Y025037D01*
X032560Y025021D01*
X032543Y025008D01*
X032524Y024997D01*
X032504Y024991D01*
X032483Y024988D01*
X032462Y024989D01*
X032442Y024994D01*
X032422Y025002D01*
X032404Y025014D01*
X032389Y025028D01*
X032377Y025045D01*
X032368Y025065D01*
X032362Y025085D01*
X032360Y025106D01*
X033069Y025303D02*
X033935Y025303D01*
X034407Y025303D02*
X035274Y025303D01*
X034998Y025303D01*
X035274Y025578D01*
X035274Y025303D01*
X035274Y025369D02*
X035064Y025369D01*
X035141Y025446D02*
X035274Y025446D01*
X035274Y025523D02*
X035218Y025523D01*
X035549Y025657D02*
X035549Y025696D01*
X035943Y025696D01*
X035943Y025657D01*
X035943Y025696D02*
X035943Y025736D01*
X035549Y025736D02*
X035549Y025696D01*
X035549Y024791D02*
X035549Y024752D01*
X035943Y024752D01*
X035943Y024712D01*
X035943Y024752D02*
X035943Y024791D01*
X035549Y024752D02*
X035549Y024712D01*
X036524Y024555D02*
X036526Y024573D01*
X036532Y024591D01*
X036541Y024607D01*
X036553Y024620D01*
X036568Y024631D01*
X036585Y024639D01*
X036603Y024643D01*
X036621Y024643D01*
X036639Y024639D01*
X036656Y024631D01*
X036671Y024620D01*
X036683Y024607D01*
X036692Y024591D01*
X036698Y024573D01*
X036700Y024555D01*
X036698Y024537D01*
X036692Y024519D01*
X036683Y024503D01*
X036671Y024490D01*
X036656Y024479D01*
X036639Y024471D01*
X036621Y024467D01*
X036603Y024467D01*
X036585Y024471D01*
X036568Y024479D01*
X036553Y024490D01*
X036541Y024503D01*
X036532Y024519D01*
X036526Y024537D01*
X036524Y024555D01*
X036691Y024476D02*
X036888Y024476D01*
X036691Y024476D02*
X036691Y024279D01*
X036888Y023748D02*
X036888Y023551D01*
X037340Y024279D02*
X037380Y024279D01*
X037478Y024515D02*
X037518Y024515D01*
X037518Y024909D01*
X037557Y024909D01*
X037518Y024909D02*
X037478Y024909D01*
X037596Y025185D02*
X037872Y025185D01*
X037872Y025322D02*
X037734Y025322D01*
X037734Y025460D01*
X037596Y025460D02*
X037596Y025185D01*
X037557Y024515D02*
X037518Y024515D01*
X037833Y024476D02*
X038029Y024476D01*
X038029Y024279D01*
X038187Y024279D02*
X038187Y024240D01*
X038581Y024240D01*
X038581Y024200D01*
X038620Y024200D02*
X038620Y024240D01*
X039014Y024240D01*
X039014Y024200D01*
X039014Y024240D02*
X039014Y024279D01*
X038620Y024279D02*
X038620Y024240D01*
X038581Y024240D02*
X038581Y024279D01*
X038187Y024240D02*
X038187Y024200D01*
X037833Y023748D02*
X037833Y023551D01*
X038029Y023019D02*
X038029Y022822D01*
X037833Y022822D01*
X037754Y022783D02*
X037715Y022783D01*
X037715Y022389D01*
X037675Y022389D01*
X037715Y022389D02*
X037754Y022389D01*
X037715Y022783D02*
X037675Y022783D01*
X037380Y023019D02*
X037340Y023019D01*
X036888Y022822D02*
X036691Y022822D01*
X036691Y023019D01*
X035943Y022901D02*
X035943Y022862D01*
X035549Y022862D01*
X035549Y022822D01*
X035549Y022862D02*
X035549Y022901D01*
X035943Y022862D02*
X035943Y022822D01*
X035274Y023295D02*
X034998Y023295D01*
X035274Y023570D01*
X035274Y023295D01*
X034407Y023295D01*
X033935Y023295D02*
X033935Y023610D01*
X033620Y023295D01*
X033935Y023295D01*
X033144Y022511D02*
X033069Y022511D01*
X033069Y022586D02*
X033069Y022311D01*
X033344Y022311D01*
X033069Y022586D01*
X033069Y022434D02*
X033221Y022434D01*
X033299Y022356D02*
X033069Y022356D01*
X033043Y021260D02*
X033953Y021260D01*
X033953Y033361D01*
X033043Y033361D01*
X033043Y021260D01*
X033043Y020842D02*
X033953Y020842D01*
X033953Y008740D01*
X033043Y008740D01*
X033043Y020842D01*
X033065Y020815D02*
X033301Y020815D01*
X033065Y020578D01*
X033065Y020815D01*
X033065Y020812D02*
X033298Y020812D01*
X033221Y020734D02*
X033065Y020734D01*
X033049Y020696D02*
X033049Y019933D01*
X026947Y019933D01*
X026947Y020696D01*
X033049Y020696D01*
X033065Y020657D02*
X033144Y020657D01*
X033066Y020580D02*
X033065Y020580D01*
X034411Y020580D02*
X034413Y020580D01*
X034411Y020578D02*
X034411Y020815D01*
X034648Y020815D01*
X034411Y020578D01*
X034411Y020657D02*
X034490Y020657D01*
X034567Y020734D02*
X034411Y020734D01*
X034411Y020812D02*
X034645Y020812D01*
X034390Y020842D02*
X035299Y020842D01*
X035299Y008740D01*
X034390Y008740D01*
X034390Y020842D01*
X034390Y021260D02*
X035299Y021260D01*
X035299Y033361D01*
X034390Y033361D01*
X034390Y021260D01*
X034959Y021287D02*
X035274Y021287D01*
X035274Y021602D01*
X034959Y021287D01*
X035024Y021352D02*
X035274Y021352D01*
X035274Y021430D02*
X035101Y021430D01*
X035178Y021507D02*
X035274Y021507D01*
X035274Y021584D02*
X035256Y021584D01*
X035549Y021878D02*
X035549Y021917D01*
X035943Y021917D01*
X035943Y021956D01*
X035943Y021917D02*
X035943Y021878D01*
X035549Y021917D02*
X035549Y021956D01*
X035294Y020696D02*
X035294Y019933D01*
X041395Y019933D01*
X041395Y020696D01*
X035294Y020696D01*
X035313Y020167D02*
X035313Y019930D01*
X035549Y019930D01*
X035313Y020167D01*
X035313Y020116D02*
X035363Y020116D01*
X035313Y020039D02*
X035440Y020039D01*
X035518Y019962D02*
X035313Y019962D01*
X035274Y018807D02*
X034407Y018807D01*
X034407Y017783D02*
X035274Y017783D01*
X035600Y017950D02*
X035900Y017950D01*
X035864Y018059D02*
X035825Y018059D01*
X035825Y018452D01*
X035864Y018452D01*
X035825Y018452D02*
X035785Y018452D01*
X035785Y018059D02*
X035825Y018059D01*
X036112Y017989D02*
X036412Y017989D01*
X036414Y017962D01*
X036419Y017935D01*
X036429Y017909D01*
X036441Y017885D01*
X036457Y017863D01*
X036475Y017843D01*
X036497Y017826D01*
X036520Y017811D01*
X036545Y017801D01*
X036571Y017793D01*
X036598Y017789D01*
X036626Y017789D01*
X036653Y017793D01*
X036679Y017801D01*
X036704Y017811D01*
X036727Y017826D01*
X036749Y017843D01*
X036767Y017863D01*
X036783Y017885D01*
X036795Y017909D01*
X036805Y017935D01*
X036810Y017962D01*
X036812Y017989D01*
X037112Y017989D01*
X037112Y016789D01*
X036112Y016789D01*
X036112Y017989D01*
X035274Y016799D02*
X034407Y016799D01*
X035549Y016051D02*
X035549Y016011D01*
X035943Y016011D01*
X035943Y015972D01*
X035943Y016011D02*
X035943Y016051D01*
X035943Y016011D02*
X036022Y016011D01*
X036179Y015106D01*
X036258Y015106D01*
X036294Y015336D02*
X036294Y016246D01*
X038395Y016246D01*
X038395Y015336D01*
X036294Y015336D01*
X036022Y015067D02*
X035943Y015067D01*
X035549Y015067D01*
X035549Y015027D01*
X035549Y015067D02*
X035549Y015106D01*
X035274Y015067D02*
X035274Y014791D01*
X034998Y014791D01*
X035274Y015067D01*
X035274Y015019D02*
X035226Y015019D01*
X035274Y014941D02*
X035148Y014941D01*
X035071Y014864D02*
X035274Y014864D01*
X035274Y014791D02*
X034407Y014791D01*
X035549Y014161D02*
X035549Y014122D01*
X035943Y014122D01*
X035943Y014082D01*
X035943Y014122D02*
X035943Y014161D01*
X035549Y014122D02*
X035549Y014082D01*
X036061Y014673D02*
X036258Y014673D01*
X036061Y014673D02*
X036022Y015067D01*
X035943Y015067D02*
X035943Y015027D01*
X035943Y015067D02*
X035943Y015106D01*
X035549Y015972D02*
X035549Y016011D01*
X037754Y016366D02*
X037793Y016366D01*
X037793Y016759D01*
X037754Y016759D01*
X037793Y016759D02*
X037833Y016759D01*
X037833Y016366D02*
X037793Y016366D01*
X038132Y016224D02*
X038368Y016224D01*
X038368Y015988D01*
X038132Y016224D01*
X038179Y016177D02*
X038368Y016177D01*
X038368Y016100D02*
X038256Y016100D01*
X038333Y016023D02*
X038368Y016023D01*
X038502Y015815D02*
X038504Y015836D01*
X038510Y015856D01*
X038519Y015876D01*
X038531Y015893D01*
X038546Y015907D01*
X038564Y015919D01*
X038584Y015927D01*
X038604Y015932D01*
X038625Y015933D01*
X038646Y015930D01*
X038666Y015924D01*
X038685Y015913D01*
X038702Y015900D01*
X038715Y015884D01*
X038726Y015866D01*
X038734Y015846D01*
X038738Y015826D01*
X038738Y015804D01*
X038734Y015784D01*
X038726Y015764D01*
X038715Y015746D01*
X038702Y015730D01*
X038685Y015717D01*
X038666Y015706D01*
X038646Y015700D01*
X038625Y015697D01*
X038604Y015698D01*
X038584Y015703D01*
X038564Y015711D01*
X038546Y015723D01*
X038531Y015737D01*
X038519Y015754D01*
X038510Y015774D01*
X038504Y015794D01*
X038502Y015815D01*
X039486Y015815D02*
X039526Y015815D01*
X039526Y016208D01*
X039565Y016208D01*
X039526Y016208D02*
X039486Y016208D01*
X039526Y015815D02*
X039565Y015815D01*
X039565Y015657D02*
X039526Y015657D01*
X039526Y015263D01*
X039565Y015263D01*
X039526Y015263D02*
X039486Y015263D01*
X039486Y015657D02*
X039526Y015657D01*
X039526Y014870D02*
X039801Y014870D01*
X039801Y014594D01*
X039663Y014594D02*
X039663Y014732D01*
X039526Y014732D01*
X039801Y014948D02*
X039803Y014966D01*
X039809Y014982D01*
X039818Y014997D01*
X039831Y015010D01*
X039846Y015019D01*
X039862Y015025D01*
X039880Y015027D01*
X039898Y015025D01*
X039914Y015019D01*
X039929Y015010D01*
X039942Y014997D01*
X039951Y014982D01*
X039957Y014966D01*
X039959Y014948D01*
X039957Y014930D01*
X039951Y014914D01*
X039942Y014899D01*
X039929Y014886D01*
X039914Y014877D01*
X039898Y014871D01*
X039880Y014869D01*
X039862Y014871D01*
X039846Y014877D01*
X039831Y014886D01*
X039818Y014899D01*
X039809Y014914D01*
X039803Y014930D01*
X039801Y014948D01*
X037872Y014870D02*
X037596Y014870D01*
X037596Y014594D01*
X037734Y014594D02*
X037734Y014732D01*
X037872Y014732D01*
X037734Y012941D02*
X037734Y012803D01*
X037872Y012803D01*
X037872Y012665D02*
X037596Y012665D01*
X037596Y012941D01*
X037557Y012389D02*
X037518Y012389D01*
X037518Y011996D01*
X037557Y011996D01*
X037518Y011996D02*
X037478Y011996D01*
X037380Y011759D02*
X037340Y011759D01*
X036888Y011956D02*
X036691Y011956D01*
X036691Y011759D01*
X036524Y012035D02*
X036526Y012053D01*
X036532Y012071D01*
X036541Y012087D01*
X036553Y012100D01*
X036568Y012111D01*
X036585Y012119D01*
X036603Y012123D01*
X036621Y012123D01*
X036639Y012119D01*
X036656Y012111D01*
X036671Y012100D01*
X036683Y012087D01*
X036692Y012071D01*
X036698Y012053D01*
X036700Y012035D01*
X036698Y012017D01*
X036692Y011999D01*
X036683Y011983D01*
X036671Y011970D01*
X036656Y011959D01*
X036639Y011951D01*
X036621Y011947D01*
X036603Y011947D01*
X036585Y011951D01*
X036568Y011959D01*
X036553Y011970D01*
X036541Y011983D01*
X036532Y011999D01*
X036526Y012017D01*
X036524Y012035D01*
X035943Y012193D02*
X035943Y012232D01*
X035549Y012232D01*
X035549Y012193D01*
X035549Y012232D02*
X035549Y012271D01*
X035943Y012271D02*
X035943Y012232D01*
X035274Y012783D02*
X034998Y012783D01*
X035274Y013059D01*
X035274Y012783D01*
X034407Y012783D01*
X033935Y012783D02*
X033069Y012783D01*
X032715Y012783D02*
X032715Y012350D01*
X032953Y012342D02*
X032043Y012342D01*
X032043Y010240D01*
X032953Y010240D01*
X032953Y012342D01*
X033069Y012074D02*
X033344Y011799D01*
X033069Y011799D01*
X032301Y012315D02*
X032065Y012315D01*
X032065Y012078D01*
X032301Y012315D01*
X032224Y012238D02*
X032065Y012238D01*
X032065Y012161D02*
X032147Y012161D01*
X032070Y012083D02*
X032065Y012083D01*
X031953Y012342D02*
X031953Y010240D01*
X031043Y010240D01*
X031043Y012342D01*
X031953Y012342D01*
X031809Y012350D02*
X032006Y012547D01*
X032006Y012822D01*
X031534Y012586D02*
X031536Y012607D01*
X031542Y012627D01*
X031551Y012647D01*
X031563Y012664D01*
X031578Y012678D01*
X031596Y012690D01*
X031616Y012698D01*
X031636Y012703D01*
X031657Y012704D01*
X031678Y012701D01*
X031698Y012695D01*
X031717Y012684D01*
X031734Y012671D01*
X031747Y012655D01*
X031758Y012637D01*
X031766Y012617D01*
X031770Y012597D01*
X031770Y012575D01*
X031766Y012555D01*
X031758Y012535D01*
X031747Y012517D01*
X031734Y012501D01*
X031717Y012488D01*
X031698Y012477D01*
X031678Y012471D01*
X031657Y012468D01*
X031636Y012469D01*
X031616Y012474D01*
X031596Y012482D01*
X031578Y012494D01*
X031563Y012508D01*
X031551Y012525D01*
X031542Y012545D01*
X031536Y012565D01*
X031534Y012586D01*
X031455Y012665D02*
X031455Y012941D01*
X031317Y012941D02*
X031317Y012803D01*
X031179Y012803D01*
X031179Y012665D02*
X031455Y012665D01*
X031301Y012315D02*
X031065Y012315D01*
X031065Y012078D01*
X031301Y012315D01*
X031224Y012238D02*
X031065Y012238D01*
X031065Y012161D02*
X031147Y012161D01*
X031070Y012083D02*
X031065Y012083D01*
X030667Y011759D02*
X030667Y011720D01*
X030274Y011720D01*
X030274Y011681D01*
X030274Y011720D02*
X030274Y011759D01*
X030234Y011759D02*
X030234Y011720D01*
X029840Y011720D01*
X029840Y011681D01*
X029840Y011720D02*
X029840Y011759D01*
X029683Y011759D02*
X029683Y011956D01*
X029486Y011956D01*
X029211Y011996D02*
X029171Y011996D01*
X029171Y012389D01*
X029211Y012389D01*
X029171Y012389D02*
X029132Y012389D01*
X029250Y012665D02*
X029526Y012665D01*
X029526Y012803D02*
X029388Y012803D01*
X029388Y012941D01*
X029250Y012941D02*
X029250Y012665D01*
X029171Y011996D02*
X029132Y011996D01*
X029033Y011759D02*
X028994Y011759D01*
X028541Y011956D02*
X028344Y011956D01*
X028344Y011759D01*
X028178Y012035D02*
X028180Y012053D01*
X028186Y012071D01*
X028195Y012087D01*
X028207Y012100D01*
X028222Y012111D01*
X028239Y012119D01*
X028257Y012123D01*
X028275Y012123D01*
X028293Y012119D01*
X028310Y012111D01*
X028325Y012100D01*
X028337Y012087D01*
X028346Y012071D01*
X028352Y012053D01*
X028354Y012035D01*
X028352Y012017D01*
X028346Y011999D01*
X028337Y011983D01*
X028325Y011970D01*
X028310Y011959D01*
X028293Y011951D01*
X028275Y011947D01*
X028257Y011947D01*
X028239Y011951D01*
X028222Y011959D01*
X028207Y011970D01*
X028195Y011983D01*
X028186Y011999D01*
X028180Y012017D01*
X028178Y012035D01*
X027596Y012193D02*
X027596Y012232D01*
X027203Y012232D01*
X027203Y012193D01*
X027203Y012232D02*
X027203Y012271D01*
X027596Y012271D02*
X027596Y012232D01*
X026927Y012783D02*
X026927Y013059D01*
X026652Y012783D01*
X026927Y012783D01*
X026061Y012783D01*
X025589Y012783D02*
X024722Y012783D01*
X024368Y012783D02*
X024368Y012350D01*
X024606Y012342D02*
X024606Y010240D01*
X023697Y010240D01*
X023697Y012342D01*
X024606Y012342D01*
X024722Y012074D02*
X024998Y011799D01*
X024722Y011799D01*
X023955Y012315D02*
X023718Y012315D01*
X023718Y012078D01*
X023955Y012315D01*
X023878Y012238D02*
X023718Y012238D01*
X023718Y012161D02*
X023801Y012161D01*
X023724Y012083D02*
X023718Y012083D01*
X023606Y012342D02*
X023606Y010240D01*
X022697Y010240D01*
X022697Y012342D01*
X023606Y012342D01*
X023463Y012350D02*
X023659Y012547D01*
X023659Y012822D01*
X023187Y012586D02*
X023189Y012607D01*
X023195Y012627D01*
X023204Y012647D01*
X023216Y012664D01*
X023231Y012678D01*
X023249Y012690D01*
X023269Y012698D01*
X023289Y012703D01*
X023310Y012704D01*
X023331Y012701D01*
X023351Y012695D01*
X023370Y012684D01*
X023387Y012671D01*
X023400Y012655D01*
X023411Y012637D01*
X023419Y012617D01*
X023423Y012597D01*
X023423Y012575D01*
X023419Y012555D01*
X023411Y012535D01*
X023400Y012517D01*
X023387Y012501D01*
X023370Y012488D01*
X023351Y012477D01*
X023331Y012471D01*
X023310Y012468D01*
X023289Y012469D01*
X023269Y012474D01*
X023249Y012482D01*
X023231Y012494D01*
X023216Y012508D01*
X023204Y012525D01*
X023195Y012545D01*
X023189Y012565D01*
X023187Y012586D01*
X023108Y012665D02*
X023108Y012941D01*
X022970Y012941D02*
X022970Y012803D01*
X022833Y012803D01*
X022833Y012665D02*
X023108Y012665D01*
X022955Y012315D02*
X022718Y012315D01*
X022718Y012078D01*
X022955Y012315D01*
X022878Y012238D02*
X022718Y012238D01*
X022718Y012161D02*
X022801Y012161D01*
X022724Y012083D02*
X022718Y012083D01*
X022321Y011759D02*
X022321Y011720D01*
X021927Y011720D01*
X021927Y011681D01*
X021927Y011720D02*
X021927Y011759D01*
X021888Y011759D02*
X021888Y011720D01*
X021494Y011720D01*
X021494Y011681D01*
X021494Y011720D02*
X021494Y011759D01*
X021337Y011759D02*
X021337Y011956D01*
X021140Y011956D01*
X020864Y011996D02*
X020825Y011996D01*
X020825Y012389D01*
X020864Y012389D01*
X020825Y012389D02*
X020785Y012389D01*
X020903Y012665D02*
X021179Y012665D01*
X021179Y012803D02*
X021041Y012803D01*
X021041Y012941D01*
X020903Y012941D02*
X020903Y012665D01*
X020825Y011996D02*
X020785Y011996D01*
X020687Y011759D02*
X020648Y011759D01*
X020195Y011956D02*
X019998Y011956D01*
X019998Y011759D01*
X019831Y012035D02*
X019833Y012053D01*
X019839Y012071D01*
X019848Y012087D01*
X019860Y012100D01*
X019875Y012111D01*
X019892Y012119D01*
X019910Y012123D01*
X019928Y012123D01*
X019946Y012119D01*
X019963Y012111D01*
X019978Y012100D01*
X019990Y012087D01*
X019999Y012071D01*
X020005Y012053D01*
X020007Y012035D01*
X020005Y012017D01*
X019999Y011999D01*
X019990Y011983D01*
X019978Y011970D01*
X019963Y011959D01*
X019946Y011951D01*
X019928Y011947D01*
X019910Y011947D01*
X019892Y011951D01*
X019875Y011959D01*
X019860Y011970D01*
X019848Y011983D01*
X019839Y011999D01*
X019833Y012017D01*
X019831Y012035D01*
X019250Y012193D02*
X019250Y012232D01*
X018856Y012232D01*
X018856Y012193D01*
X018856Y012232D02*
X018856Y012271D01*
X019250Y012271D02*
X019250Y012232D01*
X018581Y012783D02*
X018581Y013059D01*
X018305Y012783D01*
X018581Y012783D01*
X017715Y012783D01*
X017242Y012783D02*
X016376Y012783D01*
X016022Y012783D02*
X016022Y012350D01*
X016260Y012342D02*
X016260Y010240D01*
X015350Y010240D01*
X015350Y012342D01*
X016260Y012342D01*
X016376Y012074D02*
X016652Y011799D01*
X016376Y011799D01*
X015608Y012315D02*
X015372Y012315D01*
X015372Y012078D01*
X015608Y012315D01*
X015532Y012238D02*
X015372Y012238D01*
X015372Y012161D02*
X015454Y012161D01*
X015377Y012083D02*
X015372Y012083D01*
X015260Y012342D02*
X015260Y010240D01*
X014350Y010240D01*
X014350Y012342D01*
X015260Y012342D01*
X015116Y012350D02*
X015313Y012547D01*
X015313Y012822D01*
X014841Y012586D02*
X014843Y012607D01*
X014849Y012627D01*
X014858Y012647D01*
X014870Y012664D01*
X014885Y012678D01*
X014903Y012690D01*
X014923Y012698D01*
X014943Y012703D01*
X014964Y012704D01*
X014985Y012701D01*
X015005Y012695D01*
X015024Y012684D01*
X015041Y012671D01*
X015054Y012655D01*
X015065Y012637D01*
X015073Y012617D01*
X015077Y012597D01*
X015077Y012575D01*
X015073Y012555D01*
X015065Y012535D01*
X015054Y012517D01*
X015041Y012501D01*
X015024Y012488D01*
X015005Y012477D01*
X014985Y012471D01*
X014964Y012468D01*
X014943Y012469D01*
X014923Y012474D01*
X014903Y012482D01*
X014885Y012494D01*
X014870Y012508D01*
X014858Y012525D01*
X014849Y012545D01*
X014843Y012565D01*
X014841Y012586D01*
X014762Y012665D02*
X014762Y012941D01*
X014624Y012941D02*
X014624Y012803D01*
X014486Y012803D01*
X014486Y012665D02*
X014762Y012665D01*
X014608Y012315D02*
X014372Y012315D01*
X014372Y012078D01*
X014608Y012315D01*
X014532Y012238D02*
X014372Y012238D01*
X014372Y012161D02*
X014454Y012161D01*
X014377Y012083D02*
X014372Y012083D01*
X013974Y011759D02*
X013974Y011720D01*
X013581Y011720D01*
X013581Y011681D01*
X013581Y011720D02*
X013581Y011759D01*
X013541Y011759D02*
X013541Y011720D01*
X013148Y011720D01*
X013148Y011681D01*
X013148Y011720D02*
X013148Y011759D01*
X012990Y011759D02*
X012990Y011956D01*
X012793Y011956D01*
X012518Y011996D02*
X012478Y011996D01*
X012478Y012389D01*
X012518Y012389D01*
X012478Y012389D02*
X012439Y012389D01*
X012557Y012665D02*
X012833Y012665D01*
X012833Y012803D02*
X012695Y012803D01*
X012695Y012941D01*
X012557Y012941D02*
X012557Y012665D01*
X012478Y011996D02*
X012439Y011996D01*
X012340Y011759D02*
X012301Y011759D01*
X011848Y011228D02*
X011848Y011031D01*
X011652Y010500D02*
X011652Y010303D01*
X011848Y010303D01*
X012301Y010500D02*
X012340Y010500D01*
X012636Y010263D02*
X012675Y010263D01*
X012675Y009870D01*
X012636Y009870D01*
X012675Y009870D02*
X012715Y009870D01*
X012715Y010263D02*
X012675Y010263D01*
X012793Y010303D02*
X012990Y010303D01*
X012990Y010500D01*
X012793Y011031D02*
X012793Y011228D01*
X013541Y011681D02*
X013541Y011720D01*
X013974Y011720D02*
X013974Y011681D01*
X015667Y012586D02*
X015669Y012607D01*
X015675Y012627D01*
X015684Y012647D01*
X015696Y012664D01*
X015711Y012678D01*
X015729Y012690D01*
X015749Y012698D01*
X015769Y012703D01*
X015790Y012704D01*
X015811Y012701D01*
X015831Y012695D01*
X015850Y012684D01*
X015867Y012671D01*
X015880Y012655D01*
X015891Y012637D01*
X015899Y012617D01*
X015903Y012597D01*
X015903Y012575D01*
X015899Y012555D01*
X015891Y012535D01*
X015880Y012517D01*
X015867Y012501D01*
X015850Y012488D01*
X015831Y012477D01*
X015811Y012471D01*
X015790Y012468D01*
X015769Y012469D01*
X015749Y012474D01*
X015729Y012482D01*
X015711Y012494D01*
X015696Y012508D01*
X015684Y012525D01*
X015675Y012545D01*
X015669Y012565D01*
X015667Y012586D01*
X017242Y011090D02*
X016927Y010775D01*
X017242Y010775D01*
X017242Y011090D01*
X017715Y010775D02*
X018581Y010775D01*
X018305Y010775D01*
X018581Y011051D01*
X018581Y010775D01*
X018581Y010848D02*
X018377Y010848D01*
X018455Y010925D02*
X018581Y010925D01*
X018581Y011002D02*
X018532Y011002D01*
X018856Y011248D02*
X018856Y011287D01*
X019250Y011287D01*
X019250Y011248D01*
X019250Y011287D02*
X019250Y011326D01*
X018856Y011326D02*
X018856Y011287D01*
X018856Y010381D02*
X018856Y010342D01*
X019250Y010342D01*
X019250Y010303D01*
X019250Y010342D02*
X019250Y010381D01*
X018856Y010342D02*
X018856Y010303D01*
X019998Y010303D02*
X019998Y010500D01*
X019998Y010303D02*
X020195Y010303D01*
X020648Y010500D02*
X020687Y010500D01*
X020982Y010263D02*
X021022Y010263D01*
X021022Y009870D01*
X020982Y009870D01*
X021022Y009870D02*
X021061Y009870D01*
X021061Y010263D02*
X021022Y010263D01*
X021140Y010303D02*
X021337Y010303D01*
X021337Y010500D01*
X021140Y011031D02*
X021140Y011228D01*
X021888Y011681D02*
X021888Y011720D01*
X022321Y011720D02*
X022321Y011681D01*
X024014Y012586D02*
X024016Y012607D01*
X024022Y012627D01*
X024031Y012647D01*
X024043Y012664D01*
X024058Y012678D01*
X024076Y012690D01*
X024096Y012698D01*
X024116Y012703D01*
X024137Y012704D01*
X024158Y012701D01*
X024178Y012695D01*
X024197Y012684D01*
X024214Y012671D01*
X024227Y012655D01*
X024238Y012637D01*
X024246Y012617D01*
X024250Y012597D01*
X024250Y012575D01*
X024246Y012555D01*
X024238Y012535D01*
X024227Y012517D01*
X024214Y012501D01*
X024197Y012488D01*
X024178Y012477D01*
X024158Y012471D01*
X024137Y012468D01*
X024116Y012469D01*
X024096Y012474D01*
X024076Y012482D01*
X024058Y012494D01*
X024043Y012508D01*
X024031Y012525D01*
X024022Y012545D01*
X024016Y012565D01*
X024014Y012586D01*
X025589Y011090D02*
X025274Y010775D01*
X025589Y010775D01*
X025589Y011090D01*
X026061Y010775D02*
X026927Y010775D01*
X026652Y010775D01*
X026927Y011051D01*
X026927Y010775D01*
X026927Y010848D02*
X026724Y010848D01*
X026801Y010925D02*
X026927Y010925D01*
X026927Y011002D02*
X026878Y011002D01*
X027203Y011248D02*
X027203Y011287D01*
X027596Y011287D01*
X027596Y011248D01*
X027596Y011287D02*
X027596Y011326D01*
X027203Y011326D02*
X027203Y011287D01*
X027203Y010381D02*
X027203Y010342D01*
X027596Y010342D01*
X027596Y010303D01*
X027596Y010342D02*
X027596Y010381D01*
X027203Y010342D02*
X027203Y010303D01*
X028344Y010303D02*
X028344Y010500D01*
X028344Y010303D02*
X028541Y010303D01*
X028994Y010500D02*
X029033Y010500D01*
X029329Y010263D02*
X029368Y010263D01*
X029368Y009870D01*
X029329Y009870D01*
X029368Y009870D02*
X029407Y009870D01*
X029407Y010263D02*
X029368Y010263D01*
X029486Y010303D02*
X029683Y010303D01*
X029683Y010500D01*
X029486Y011031D02*
X029486Y011228D01*
X030234Y011681D02*
X030234Y011720D01*
X030667Y011720D02*
X030667Y011681D01*
X032360Y012586D02*
X032362Y012607D01*
X032368Y012627D01*
X032377Y012647D01*
X032389Y012664D01*
X032404Y012678D01*
X032422Y012690D01*
X032442Y012698D01*
X032462Y012703D01*
X032483Y012704D01*
X032504Y012701D01*
X032524Y012695D01*
X032543Y012684D01*
X032560Y012671D01*
X032573Y012655D01*
X032584Y012637D01*
X032592Y012617D01*
X032596Y012597D01*
X032596Y012575D01*
X032592Y012555D01*
X032584Y012535D01*
X032573Y012517D01*
X032560Y012501D01*
X032543Y012488D01*
X032524Y012477D01*
X032504Y012471D01*
X032483Y012468D01*
X032462Y012469D01*
X032442Y012474D01*
X032422Y012482D01*
X032404Y012494D01*
X032389Y012508D01*
X032377Y012525D01*
X032368Y012545D01*
X032362Y012565D01*
X032360Y012586D01*
X033935Y011090D02*
X033620Y010775D01*
X033935Y010775D01*
X033935Y011090D01*
X034407Y010775D02*
X035274Y010775D01*
X034998Y010775D01*
X035274Y011051D01*
X035274Y010775D01*
X035274Y010848D02*
X035070Y010848D01*
X035148Y010925D02*
X035274Y010925D01*
X035274Y011002D02*
X035225Y011002D01*
X035549Y011248D02*
X035549Y011287D01*
X035943Y011287D01*
X035943Y011248D01*
X035943Y011287D02*
X035943Y011326D01*
X035549Y011326D02*
X035549Y011287D01*
X035549Y010381D02*
X035549Y010342D01*
X035943Y010342D01*
X035943Y010303D01*
X035943Y010342D02*
X035943Y010381D01*
X035549Y010342D02*
X035549Y010303D01*
X036691Y010303D02*
X036691Y010500D01*
X036691Y010303D02*
X036888Y010303D01*
X037340Y010500D02*
X037380Y010500D01*
X037675Y010263D02*
X037715Y010263D01*
X037715Y009870D01*
X037675Y009870D01*
X037715Y009870D02*
X037754Y009870D01*
X037754Y010263D02*
X037715Y010263D01*
X037833Y010303D02*
X038029Y010303D01*
X038029Y010500D01*
X037833Y011031D02*
X037833Y011228D01*
X038029Y011759D02*
X038029Y011956D01*
X037833Y011956D01*
X038187Y011759D02*
X038187Y011720D01*
X038581Y011720D01*
X038581Y011681D01*
X038620Y011681D02*
X038620Y011720D01*
X039014Y011720D01*
X039014Y011681D01*
X039014Y011720D02*
X039014Y011759D01*
X038620Y011759D02*
X038620Y011720D01*
X038581Y011720D02*
X038581Y011759D01*
X038187Y011720D02*
X038187Y011681D01*
X037518Y012389D02*
X037478Y012389D01*
X036888Y011228D02*
X036888Y011031D01*
X035274Y012856D02*
X035071Y012856D01*
X035148Y012933D02*
X035274Y012933D01*
X035274Y013010D02*
X035225Y013010D01*
X035549Y013137D02*
X035549Y013177D01*
X035943Y013177D01*
X035943Y013137D01*
X035943Y013177D02*
X035943Y013216D01*
X035549Y013216D02*
X035549Y013177D01*
X039390Y012342D02*
X039390Y010240D01*
X040299Y010240D01*
X040299Y012342D01*
X039390Y012342D01*
X039411Y012315D02*
X039648Y012315D01*
X039411Y012078D01*
X039411Y012315D01*
X039411Y012238D02*
X039571Y012238D01*
X039494Y012161D02*
X039411Y012161D01*
X039411Y012083D02*
X039416Y012083D01*
X040155Y012350D02*
X040352Y012547D01*
X040352Y012822D01*
X039880Y012586D02*
X039882Y012607D01*
X039888Y012627D01*
X039897Y012647D01*
X039909Y012664D01*
X039924Y012678D01*
X039942Y012690D01*
X039962Y012698D01*
X039982Y012703D01*
X040003Y012704D01*
X040024Y012701D01*
X040044Y012695D01*
X040063Y012684D01*
X040080Y012671D01*
X040093Y012655D01*
X040104Y012637D01*
X040112Y012617D01*
X040116Y012597D01*
X040116Y012575D01*
X040112Y012555D01*
X040104Y012535D01*
X040093Y012517D01*
X040080Y012501D01*
X040063Y012488D01*
X040044Y012477D01*
X040024Y012471D01*
X040003Y012468D01*
X039982Y012469D01*
X039962Y012474D01*
X039942Y012482D01*
X039924Y012494D01*
X039909Y012508D01*
X039897Y012525D01*
X039888Y012545D01*
X039882Y012565D01*
X039880Y012586D01*
X039801Y012665D02*
X039801Y012941D01*
X039663Y012941D02*
X039663Y012803D01*
X039526Y012803D01*
X039526Y012665D02*
X039801Y012665D01*
X040390Y012342D02*
X041299Y012342D01*
X041299Y010240D01*
X040390Y010240D01*
X040390Y012342D01*
X040411Y012315D02*
X040648Y012315D01*
X040411Y012078D01*
X040411Y012315D01*
X040411Y012238D02*
X040571Y012238D01*
X040494Y012161D02*
X040411Y012161D01*
X040411Y012083D02*
X040416Y012083D01*
X041061Y012350D02*
X041061Y012783D01*
X040707Y012586D02*
X040709Y012607D01*
X040715Y012627D01*
X040724Y012647D01*
X040736Y012664D01*
X040751Y012678D01*
X040769Y012690D01*
X040789Y012698D01*
X040809Y012703D01*
X040830Y012704D01*
X040851Y012701D01*
X040871Y012695D01*
X040890Y012684D01*
X040907Y012671D01*
X040920Y012655D01*
X040931Y012637D01*
X040939Y012617D01*
X040943Y012597D01*
X040943Y012575D01*
X040939Y012555D01*
X040931Y012535D01*
X040920Y012517D01*
X040907Y012501D01*
X040890Y012488D01*
X040871Y012477D01*
X040851Y012471D01*
X040830Y012468D01*
X040809Y012469D01*
X040789Y012474D01*
X040769Y012482D01*
X040751Y012494D01*
X040736Y012508D01*
X040724Y012525D01*
X040715Y012545D01*
X040709Y012565D01*
X040707Y012586D01*
X041415Y012783D02*
X042281Y012783D01*
X041415Y012074D02*
X041691Y011799D01*
X041415Y011799D01*
X042281Y011090D02*
X041966Y010775D01*
X042281Y010775D01*
X042281Y011090D01*
X041415Y010067D02*
X041415Y009791D01*
X041691Y009791D01*
X041415Y010067D01*
X041415Y009998D02*
X041484Y009998D01*
X041415Y009921D02*
X041561Y009921D01*
X041638Y009843D02*
X041415Y009843D01*
X041390Y008740D02*
X042299Y008740D01*
X042299Y020842D01*
X041390Y020842D01*
X041390Y008740D01*
X035943Y009358D02*
X035943Y009397D01*
X035549Y009397D01*
X035549Y009437D01*
X035549Y009397D02*
X035549Y009358D01*
X035274Y009082D02*
X035274Y008767D01*
X034959Y008767D01*
X035274Y009082D01*
X035274Y009071D02*
X035262Y009071D01*
X035274Y008994D02*
X035185Y008994D01*
X035108Y008917D02*
X035274Y008917D01*
X035274Y008839D02*
X035031Y008839D01*
X035943Y009397D02*
X035943Y009437D01*
X033344Y009791D02*
X033069Y009791D01*
X033069Y010067D01*
X033344Y009791D01*
X033292Y009843D02*
X033069Y009843D01*
X033069Y009921D02*
X033215Y009921D01*
X033137Y009998D02*
X033069Y009998D01*
X028541Y011031D02*
X028541Y011228D01*
X026927Y012856D02*
X026724Y012856D01*
X026801Y012933D02*
X026927Y012933D01*
X026927Y013010D02*
X026879Y013010D01*
X027203Y013137D02*
X027203Y013177D01*
X027596Y013177D01*
X027596Y013137D01*
X027596Y013177D02*
X027596Y013216D01*
X027203Y013216D02*
X027203Y013177D01*
X027203Y014082D02*
X027203Y014122D01*
X027596Y014122D01*
X027596Y014082D01*
X027596Y014122D02*
X027596Y014161D01*
X027203Y014161D02*
X027203Y014122D01*
X026927Y014791D02*
X026652Y014791D01*
X026927Y015067D01*
X026927Y014791D01*
X026061Y014791D01*
X026725Y014864D02*
X026927Y014864D01*
X026927Y014941D02*
X026802Y014941D01*
X026879Y015019D02*
X026927Y015019D01*
X027203Y015027D02*
X027203Y015067D01*
X027596Y015067D01*
X027596Y015027D01*
X027596Y015067D02*
X027596Y015106D01*
X027596Y015067D02*
X027675Y015067D01*
X027715Y014673D01*
X027911Y014673D01*
X027911Y015106D02*
X027833Y015106D01*
X027675Y016011D01*
X027596Y016011D01*
X027203Y016011D01*
X027203Y015972D01*
X027203Y016011D02*
X027203Y016051D01*
X027596Y016051D02*
X027596Y016011D01*
X027596Y015972D01*
X027947Y016246D02*
X027947Y015336D01*
X030049Y015336D01*
X030049Y016246D01*
X027947Y016246D01*
X027766Y016789D02*
X027766Y017989D01*
X028066Y017989D01*
X028068Y017962D01*
X028073Y017935D01*
X028083Y017909D01*
X028095Y017885D01*
X028111Y017863D01*
X028129Y017843D01*
X028151Y017826D01*
X028174Y017811D01*
X028199Y017801D01*
X028225Y017793D01*
X028252Y017789D01*
X028280Y017789D01*
X028307Y017793D01*
X028333Y017801D01*
X028358Y017811D01*
X028381Y017826D01*
X028403Y017843D01*
X028421Y017863D01*
X028437Y017885D01*
X028449Y017909D01*
X028459Y017935D01*
X028464Y017962D01*
X028466Y017989D01*
X028766Y017989D01*
X028766Y016789D01*
X027766Y016789D01*
X026927Y016799D02*
X026061Y016799D01*
X026061Y017783D02*
X026927Y017783D01*
X027254Y017950D02*
X027554Y017950D01*
X027518Y018059D02*
X027478Y018059D01*
X027478Y018452D01*
X027518Y018452D01*
X027478Y018452D02*
X027439Y018452D01*
X027439Y018059D02*
X027478Y018059D01*
X026927Y018807D02*
X026061Y018807D01*
X026966Y019930D02*
X026966Y020167D01*
X027203Y019930D01*
X026966Y019930D01*
X026966Y019962D02*
X027171Y019962D01*
X027094Y020039D02*
X026966Y020039D01*
X026966Y020116D02*
X027017Y020116D01*
X026953Y020842D02*
X026043Y020842D01*
X026043Y008740D01*
X026953Y008740D01*
X026953Y020842D01*
X026301Y020815D02*
X026065Y020815D01*
X026065Y020578D01*
X026301Y020815D01*
X026298Y020812D02*
X026065Y020812D01*
X026065Y020734D02*
X026221Y020734D01*
X026144Y020657D02*
X026065Y020657D01*
X026065Y020580D02*
X026066Y020580D01*
X025606Y020842D02*
X025606Y008740D01*
X024697Y008740D01*
X024697Y020842D01*
X025606Y020842D01*
X024955Y020815D02*
X024718Y020815D01*
X024718Y020578D01*
X024955Y020815D01*
X024952Y020812D02*
X024718Y020812D01*
X024718Y020734D02*
X024874Y020734D01*
X024797Y020657D02*
X024718Y020657D01*
X024702Y020696D02*
X024702Y019933D01*
X018601Y019933D01*
X018601Y020696D01*
X024702Y020696D01*
X024718Y020580D02*
X024720Y020580D01*
X024722Y022311D02*
X024722Y022586D01*
X024998Y022311D01*
X024722Y022311D01*
X024722Y022356D02*
X024952Y022356D01*
X024875Y022434D02*
X024722Y022434D01*
X024722Y022511D02*
X024798Y022511D01*
X026612Y021287D02*
X026927Y021287D01*
X026927Y021602D01*
X026612Y021287D01*
X026677Y021352D02*
X026927Y021352D01*
X026927Y021430D02*
X026755Y021430D01*
X026832Y021507D02*
X026927Y021507D01*
X026927Y021584D02*
X026909Y021584D01*
X027203Y021878D02*
X027203Y021917D01*
X027596Y021917D01*
X027596Y021956D01*
X027596Y021917D02*
X027596Y021878D01*
X027203Y021917D02*
X027203Y021956D01*
X029407Y018256D02*
X029407Y018216D01*
X029801Y018216D01*
X029801Y018256D01*
X029801Y018216D02*
X029801Y018177D01*
X029407Y018177D02*
X029407Y018216D01*
X030195Y018216D02*
X030589Y018216D01*
X030589Y018256D01*
X030589Y018216D02*
X030589Y018177D01*
X030195Y018177D02*
X030195Y018216D01*
X030195Y018256D01*
X030549Y017783D02*
X030549Y017665D01*
X030565Y017663D01*
X030581Y017658D01*
X030595Y017650D01*
X030608Y017639D01*
X030617Y017626D01*
X030624Y017610D01*
X030628Y017594D01*
X030628Y017578D01*
X030624Y017562D01*
X030617Y017547D01*
X030608Y017533D01*
X030595Y017522D01*
X030581Y017514D01*
X030565Y017509D01*
X030549Y017507D01*
X030549Y017389D01*
X030903Y017822D02*
X031061Y017822D01*
X031415Y017783D02*
X031415Y017389D01*
X031848Y017035D02*
X032242Y017035D01*
X032281Y017389D02*
X032281Y017547D01*
X032242Y017901D02*
X032124Y017901D01*
X032122Y017885D01*
X032117Y017869D01*
X032109Y017855D01*
X032098Y017842D01*
X032085Y017833D01*
X032069Y017826D01*
X032053Y017822D01*
X032037Y017822D01*
X032021Y017826D01*
X032006Y017833D01*
X031992Y017842D01*
X031981Y017855D01*
X031973Y017869D01*
X031968Y017885D01*
X031966Y017901D01*
X031848Y017901D01*
X032085Y018019D02*
X032124Y018019D01*
X032124Y018413D01*
X032085Y018413D01*
X032124Y018413D02*
X032163Y018413D01*
X032163Y018019D02*
X032124Y018019D01*
X031218Y016208D02*
X031179Y016208D01*
X031179Y015815D01*
X031218Y015815D01*
X031179Y015815D02*
X031140Y015815D01*
X031140Y015657D02*
X031179Y015657D01*
X031179Y015263D01*
X031218Y015263D01*
X031179Y015263D02*
X031140Y015263D01*
X031179Y014870D02*
X031455Y014870D01*
X031455Y014594D01*
X031317Y014594D02*
X031317Y014732D01*
X031179Y014732D01*
X031454Y014948D02*
X031456Y014966D01*
X031462Y014982D01*
X031471Y014997D01*
X031484Y015010D01*
X031499Y015019D01*
X031515Y015025D01*
X031533Y015027D01*
X031551Y015025D01*
X031567Y015019D01*
X031582Y015010D01*
X031595Y014997D01*
X031604Y014982D01*
X031610Y014966D01*
X031612Y014948D01*
X031610Y014930D01*
X031604Y014914D01*
X031595Y014899D01*
X031582Y014886D01*
X031567Y014877D01*
X031551Y014871D01*
X031533Y014869D01*
X031515Y014871D01*
X031499Y014877D01*
X031484Y014886D01*
X031471Y014899D01*
X031462Y014914D01*
X031456Y014930D01*
X031454Y014948D01*
X031218Y015657D02*
X031179Y015657D01*
X031179Y016208D02*
X031140Y016208D01*
X030156Y015815D02*
X030158Y015836D01*
X030164Y015856D01*
X030173Y015876D01*
X030185Y015893D01*
X030200Y015907D01*
X030218Y015919D01*
X030238Y015927D01*
X030258Y015932D01*
X030279Y015933D01*
X030300Y015930D01*
X030320Y015924D01*
X030339Y015913D01*
X030356Y015900D01*
X030369Y015884D01*
X030380Y015866D01*
X030388Y015846D01*
X030392Y015826D01*
X030392Y015804D01*
X030388Y015784D01*
X030380Y015764D01*
X030369Y015746D01*
X030356Y015730D01*
X030339Y015717D01*
X030320Y015706D01*
X030300Y015700D01*
X030279Y015697D01*
X030258Y015698D01*
X030238Y015703D01*
X030218Y015711D01*
X030200Y015723D01*
X030185Y015737D01*
X030173Y015754D01*
X030164Y015774D01*
X030158Y015794D01*
X030156Y015815D01*
X030022Y015988D02*
X029785Y016224D01*
X030022Y016224D01*
X030022Y015988D01*
X030022Y016023D02*
X029987Y016023D01*
X030022Y016100D02*
X029909Y016100D01*
X029832Y016177D02*
X030022Y016177D01*
X029486Y016366D02*
X029447Y016366D01*
X029447Y016759D01*
X029407Y016759D01*
X029447Y016759D02*
X029486Y016759D01*
X029447Y016366D02*
X029407Y016366D01*
X029526Y014870D02*
X029250Y014870D01*
X029250Y014594D01*
X029388Y014594D02*
X029388Y014732D01*
X029526Y014732D01*
X027203Y015067D02*
X027203Y015106D01*
X023896Y017035D02*
X023502Y017035D01*
X023935Y017389D02*
X023935Y017547D01*
X023896Y017901D02*
X023777Y017901D01*
X023778Y017901D02*
X023776Y017885D01*
X023771Y017869D01*
X023763Y017855D01*
X023752Y017842D01*
X023739Y017833D01*
X023723Y017826D01*
X023707Y017822D01*
X023691Y017822D01*
X023675Y017826D01*
X023660Y017833D01*
X023646Y017842D01*
X023635Y017855D01*
X023627Y017869D01*
X023622Y017885D01*
X023620Y017901D01*
X023502Y017901D01*
X023738Y018019D02*
X023777Y018019D01*
X023777Y018413D01*
X023738Y018413D01*
X023777Y018413D02*
X023817Y018413D01*
X023817Y018019D02*
X023777Y018019D01*
X023069Y017783D02*
X023069Y017389D01*
X022715Y017822D02*
X022557Y017822D01*
X022203Y017783D02*
X022203Y017665D01*
X022219Y017663D01*
X022235Y017658D01*
X022249Y017650D01*
X022262Y017639D01*
X022271Y017626D01*
X022278Y017610D01*
X022282Y017594D01*
X022282Y017578D01*
X022278Y017562D01*
X022271Y017547D01*
X022262Y017533D01*
X022249Y017522D01*
X022235Y017514D01*
X022219Y017509D01*
X022203Y017507D01*
X022203Y017389D01*
X022242Y018177D02*
X022242Y018216D01*
X021848Y018216D01*
X021848Y018256D01*
X021848Y018216D02*
X021848Y018177D01*
X021455Y018177D02*
X021455Y018216D01*
X021061Y018216D01*
X021061Y018256D01*
X021061Y018216D02*
X021061Y018177D01*
X021455Y018216D02*
X021455Y018256D01*
X022242Y018256D02*
X022242Y018216D01*
X021140Y016759D02*
X021100Y016759D01*
X021100Y016366D01*
X021061Y016366D01*
X021100Y016366D02*
X021140Y016366D01*
X021439Y016224D02*
X021675Y016224D01*
X021675Y015988D01*
X021439Y016224D01*
X021486Y016177D02*
X021675Y016177D01*
X021702Y016246D02*
X021702Y015336D01*
X019601Y015336D01*
X019601Y016246D01*
X021702Y016246D01*
X021675Y016100D02*
X021563Y016100D01*
X021640Y016023D02*
X021675Y016023D01*
X021809Y015815D02*
X021811Y015836D01*
X021817Y015856D01*
X021826Y015876D01*
X021838Y015893D01*
X021853Y015907D01*
X021871Y015919D01*
X021891Y015927D01*
X021911Y015932D01*
X021932Y015933D01*
X021953Y015930D01*
X021973Y015924D01*
X021992Y015913D01*
X022009Y015900D01*
X022022Y015884D01*
X022033Y015866D01*
X022041Y015846D01*
X022045Y015826D01*
X022045Y015804D01*
X022041Y015784D01*
X022033Y015764D01*
X022022Y015746D01*
X022009Y015730D01*
X021992Y015717D01*
X021973Y015706D01*
X021953Y015700D01*
X021932Y015697D01*
X021911Y015698D01*
X021891Y015703D01*
X021871Y015711D01*
X021853Y015723D01*
X021838Y015737D01*
X021826Y015754D01*
X021817Y015774D01*
X021811Y015794D01*
X021809Y015815D01*
X022793Y015815D02*
X022833Y015815D01*
X022833Y016208D01*
X022872Y016208D01*
X022833Y016208D02*
X022793Y016208D01*
X022833Y015815D02*
X022872Y015815D01*
X022872Y015657D02*
X022833Y015657D01*
X022833Y015263D01*
X022872Y015263D01*
X022833Y015263D02*
X022793Y015263D01*
X022793Y015657D02*
X022833Y015657D01*
X022833Y014870D02*
X023108Y014870D01*
X023108Y014594D01*
X022970Y014594D02*
X022970Y014732D01*
X022833Y014732D01*
X023108Y014948D02*
X023110Y014966D01*
X023116Y014982D01*
X023125Y014997D01*
X023138Y015010D01*
X023153Y015019D01*
X023169Y015025D01*
X023187Y015027D01*
X023205Y015025D01*
X023221Y015019D01*
X023236Y015010D01*
X023249Y014997D01*
X023258Y014982D01*
X023264Y014966D01*
X023266Y014948D01*
X023264Y014930D01*
X023258Y014914D01*
X023249Y014899D01*
X023236Y014886D01*
X023221Y014877D01*
X023205Y014871D01*
X023187Y014869D01*
X023169Y014871D01*
X023153Y014877D01*
X023138Y014886D01*
X023125Y014899D01*
X023116Y014914D01*
X023110Y014930D01*
X023108Y014948D01*
X021179Y014870D02*
X020903Y014870D01*
X020903Y014594D01*
X021041Y014594D02*
X021041Y014732D01*
X021179Y014732D01*
X019565Y014673D02*
X019368Y014673D01*
X019329Y015067D01*
X019250Y015067D01*
X018856Y015067D01*
X018856Y015027D01*
X018856Y015067D02*
X018856Y015106D01*
X018581Y015067D02*
X018581Y014791D01*
X018305Y014791D01*
X018581Y015067D01*
X018581Y015019D02*
X018533Y015019D01*
X018581Y014941D02*
X018455Y014941D01*
X018378Y014864D02*
X018581Y014864D01*
X018581Y014791D02*
X017715Y014791D01*
X018856Y014161D02*
X018856Y014122D01*
X019250Y014122D01*
X019250Y014082D01*
X019250Y014122D02*
X019250Y014161D01*
X018856Y014122D02*
X018856Y014082D01*
X019250Y015027D02*
X019250Y015067D01*
X019250Y015106D01*
X019486Y015106D02*
X019565Y015106D01*
X019486Y015106D02*
X019329Y016011D01*
X019250Y016011D01*
X018856Y016011D01*
X018856Y015972D01*
X018856Y016011D02*
X018856Y016051D01*
X019250Y016051D02*
X019250Y016011D01*
X019250Y015972D01*
X019419Y016789D02*
X019419Y017989D01*
X019719Y017989D01*
X019721Y017962D01*
X019726Y017935D01*
X019736Y017909D01*
X019748Y017885D01*
X019764Y017863D01*
X019782Y017843D01*
X019804Y017826D01*
X019827Y017811D01*
X019852Y017801D01*
X019878Y017793D01*
X019905Y017789D01*
X019933Y017789D01*
X019960Y017793D01*
X019986Y017801D01*
X020011Y017811D01*
X020034Y017826D01*
X020056Y017843D01*
X020074Y017863D01*
X020090Y017885D01*
X020102Y017909D01*
X020112Y017935D01*
X020117Y017962D01*
X020119Y017989D01*
X020419Y017989D01*
X020419Y016789D01*
X019419Y016789D01*
X018581Y016799D02*
X017715Y016799D01*
X017715Y017783D02*
X018581Y017783D01*
X018907Y017950D02*
X019207Y017950D01*
X019171Y018059D02*
X019132Y018059D01*
X019132Y018452D01*
X019171Y018452D01*
X019132Y018452D02*
X019092Y018452D01*
X019092Y018059D02*
X019132Y018059D01*
X018581Y018807D02*
X017715Y018807D01*
X018620Y019930D02*
X018620Y020167D01*
X018856Y019930D01*
X018620Y019930D01*
X018620Y019962D02*
X018825Y019962D01*
X018747Y020039D02*
X018620Y020039D01*
X018620Y020116D02*
X018670Y020116D01*
X018606Y020842D02*
X017697Y020842D01*
X017697Y008740D01*
X018606Y008740D01*
X018606Y020842D01*
X017955Y020815D02*
X017718Y020815D01*
X017718Y020578D01*
X017955Y020815D01*
X017952Y020812D02*
X017718Y020812D01*
X017718Y020734D02*
X017874Y020734D01*
X017797Y020657D02*
X017718Y020657D01*
X017718Y020580D02*
X017720Y020580D01*
X017260Y020842D02*
X017260Y008740D01*
X016350Y008740D01*
X016350Y020842D01*
X017260Y020842D01*
X016608Y020815D02*
X016372Y020815D01*
X016372Y020578D01*
X016608Y020815D01*
X016605Y020812D02*
X016372Y020812D01*
X016372Y020734D02*
X016528Y020734D01*
X016451Y020657D02*
X016372Y020657D01*
X016372Y020580D02*
X016373Y020580D01*
X016376Y022311D02*
X016376Y022586D01*
X016652Y022311D01*
X016376Y022311D01*
X016376Y022356D02*
X016606Y022356D01*
X016529Y022434D02*
X016376Y022434D01*
X016376Y022511D02*
X016451Y022511D01*
X018266Y021287D02*
X018581Y021287D01*
X018581Y021602D01*
X018266Y021287D01*
X018331Y021352D02*
X018581Y021352D01*
X018581Y021430D02*
X018408Y021430D01*
X018485Y021507D02*
X018581Y021507D01*
X018581Y021584D02*
X018563Y021584D01*
X018856Y021878D02*
X018856Y021917D01*
X019250Y021917D01*
X019250Y021956D01*
X019250Y021917D02*
X019250Y021878D01*
X018856Y021917D02*
X018856Y021956D01*
X020195Y023551D02*
X020195Y023748D01*
X018581Y025369D02*
X018371Y025369D01*
X018448Y025446D02*
X018581Y025446D01*
X018581Y025523D02*
X018526Y025523D01*
X018856Y025657D02*
X018856Y025696D01*
X019250Y025696D01*
X019250Y025657D01*
X019250Y025696D02*
X019250Y025736D01*
X018856Y025736D02*
X018856Y025696D01*
X014762Y027114D02*
X014762Y027389D01*
X014486Y027389D01*
X014486Y027252D02*
X014624Y027252D01*
X014624Y027114D01*
X014761Y027468D02*
X014763Y027486D01*
X014769Y027502D01*
X014778Y027517D01*
X014791Y027530D01*
X014806Y027539D01*
X014822Y027545D01*
X014840Y027547D01*
X014858Y027545D01*
X014874Y027539D01*
X014889Y027530D01*
X014902Y027517D01*
X014911Y027502D01*
X014917Y027486D01*
X014919Y027468D01*
X014917Y027450D01*
X014911Y027434D01*
X014902Y027419D01*
X014889Y027406D01*
X014874Y027397D01*
X014858Y027391D01*
X014840Y027389D01*
X014822Y027391D01*
X014806Y027397D01*
X014791Y027406D01*
X014778Y027419D01*
X014769Y027434D01*
X014763Y027450D01*
X014761Y027468D01*
X014526Y027783D02*
X014486Y027783D01*
X014486Y028177D01*
X014526Y028177D01*
X014486Y028177D02*
X014447Y028177D01*
X014447Y028334D02*
X014486Y028334D01*
X014486Y028728D01*
X014526Y028728D01*
X014486Y028728D02*
X014447Y028728D01*
X014486Y028334D02*
X014526Y028334D01*
X014486Y027783D02*
X014447Y027783D01*
X013463Y028334D02*
X013465Y028355D01*
X013471Y028375D01*
X013480Y028395D01*
X013492Y028412D01*
X013507Y028426D01*
X013525Y028438D01*
X013545Y028446D01*
X013565Y028451D01*
X013586Y028452D01*
X013607Y028449D01*
X013627Y028443D01*
X013646Y028432D01*
X013663Y028419D01*
X013676Y028403D01*
X013687Y028385D01*
X013695Y028365D01*
X013699Y028345D01*
X013699Y028323D01*
X013695Y028303D01*
X013687Y028283D01*
X013676Y028265D01*
X013663Y028249D01*
X013646Y028236D01*
X013627Y028225D01*
X013607Y028219D01*
X013586Y028216D01*
X013565Y028217D01*
X013545Y028222D01*
X013525Y028230D01*
X013507Y028242D01*
X013492Y028256D01*
X013480Y028273D01*
X013471Y028293D01*
X013465Y028313D01*
X013463Y028334D01*
X013329Y028507D02*
X013329Y028744D01*
X013092Y028744D01*
X013329Y028507D01*
X013329Y028536D02*
X013301Y028536D01*
X013329Y028613D02*
X013223Y028613D01*
X013146Y028690D02*
X013329Y028690D01*
X012793Y028885D02*
X012754Y028885D01*
X012754Y029279D01*
X012715Y029279D01*
X012754Y029279D02*
X012793Y029279D01*
X012754Y028885D02*
X012715Y028885D01*
X012833Y027389D02*
X012557Y027389D01*
X012557Y027114D01*
X012695Y027114D02*
X012695Y027252D01*
X012833Y027252D01*
X010510Y027586D02*
X010510Y027626D01*
X012715Y018256D02*
X012715Y018216D01*
X013108Y018216D01*
X013108Y018256D01*
X013108Y018216D02*
X013108Y018177D01*
X012715Y018177D02*
X012715Y018216D01*
X013502Y018216D02*
X013502Y018256D01*
X013502Y018216D02*
X013896Y018216D01*
X013896Y018256D01*
X013896Y018216D02*
X013896Y018177D01*
X013502Y018177D02*
X013502Y018216D01*
X013856Y017783D02*
X013856Y017665D01*
X013872Y017663D01*
X013888Y017658D01*
X013902Y017650D01*
X013915Y017639D01*
X013924Y017626D01*
X013931Y017610D01*
X013935Y017594D01*
X013935Y017578D01*
X013931Y017562D01*
X013924Y017547D01*
X013915Y017533D01*
X013902Y017522D01*
X013888Y017514D01*
X013872Y017509D01*
X013856Y017507D01*
X013856Y017389D01*
X014211Y017822D02*
X014368Y017822D01*
X014722Y017783D02*
X014722Y017389D01*
X015155Y017035D02*
X015549Y017035D01*
X015589Y017389D02*
X015589Y017547D01*
X015549Y017901D02*
X015431Y017901D01*
X015429Y017885D01*
X015424Y017869D01*
X015416Y017855D01*
X015405Y017842D01*
X015392Y017833D01*
X015376Y017826D01*
X015360Y017822D01*
X015344Y017822D01*
X015328Y017826D01*
X015313Y017833D01*
X015299Y017842D01*
X015288Y017855D01*
X015280Y017869D01*
X015275Y017885D01*
X015273Y017901D01*
X015274Y017901D02*
X015155Y017901D01*
X015392Y018019D02*
X015431Y018019D01*
X015431Y018413D01*
X015392Y018413D01*
X015431Y018413D02*
X015470Y018413D01*
X015470Y018019D02*
X015431Y018019D01*
X014526Y016208D02*
X014486Y016208D01*
X014486Y015815D01*
X014526Y015815D01*
X014486Y015815D02*
X014447Y015815D01*
X014447Y015657D02*
X014486Y015657D01*
X014486Y015263D01*
X014526Y015263D01*
X014486Y015263D02*
X014447Y015263D01*
X014486Y014870D02*
X014762Y014870D01*
X014762Y014594D01*
X014624Y014594D02*
X014624Y014732D01*
X014486Y014732D01*
X014761Y014948D02*
X014763Y014966D01*
X014769Y014982D01*
X014778Y014997D01*
X014791Y015010D01*
X014806Y015019D01*
X014822Y015025D01*
X014840Y015027D01*
X014858Y015025D01*
X014874Y015019D01*
X014889Y015010D01*
X014902Y014997D01*
X014911Y014982D01*
X014917Y014966D01*
X014919Y014948D01*
X014917Y014930D01*
X014911Y014914D01*
X014902Y014899D01*
X014889Y014886D01*
X014874Y014877D01*
X014858Y014871D01*
X014840Y014869D01*
X014822Y014871D01*
X014806Y014877D01*
X014791Y014886D01*
X014778Y014899D01*
X014769Y014914D01*
X014763Y014930D01*
X014761Y014948D01*
X014526Y015657D02*
X014486Y015657D01*
X014486Y016208D02*
X014447Y016208D01*
X013463Y015815D02*
X013465Y015836D01*
X013471Y015856D01*
X013480Y015876D01*
X013492Y015893D01*
X013507Y015907D01*
X013525Y015919D01*
X013545Y015927D01*
X013565Y015932D01*
X013586Y015933D01*
X013607Y015930D01*
X013627Y015924D01*
X013646Y015913D01*
X013663Y015900D01*
X013676Y015884D01*
X013687Y015866D01*
X013695Y015846D01*
X013699Y015826D01*
X013699Y015804D01*
X013695Y015784D01*
X013687Y015764D01*
X013676Y015746D01*
X013663Y015730D01*
X013646Y015717D01*
X013627Y015706D01*
X013607Y015700D01*
X013586Y015697D01*
X013565Y015698D01*
X013545Y015703D01*
X013525Y015711D01*
X013507Y015723D01*
X013492Y015737D01*
X013480Y015754D01*
X013471Y015774D01*
X013465Y015794D01*
X013463Y015815D01*
X013329Y015988D02*
X013329Y016224D01*
X013092Y016224D01*
X013329Y015988D01*
X013329Y016023D02*
X013294Y016023D01*
X013329Y016100D02*
X013217Y016100D01*
X013139Y016177D02*
X013329Y016177D01*
X012793Y016366D02*
X012754Y016366D01*
X012754Y016759D01*
X012715Y016759D01*
X012754Y016759D02*
X012793Y016759D01*
X012754Y016366D02*
X012715Y016366D01*
X012833Y014870D02*
X012557Y014870D01*
X012557Y014594D01*
X012695Y014594D02*
X012695Y014732D01*
X012833Y014732D01*
X010510Y015067D02*
X010510Y015106D01*
X016376Y010067D02*
X016376Y009791D01*
X016652Y009791D01*
X016376Y010067D01*
X016376Y009998D02*
X016445Y009998D01*
X016376Y009921D02*
X016522Y009921D01*
X016599Y009843D02*
X016376Y009843D01*
X018266Y008767D02*
X018581Y008767D01*
X018581Y009082D01*
X018266Y008767D01*
X018338Y008839D02*
X018581Y008839D01*
X018581Y008917D02*
X018415Y008917D01*
X018492Y008994D02*
X018581Y008994D01*
X018569Y009071D02*
X018581Y009071D01*
X018856Y009358D02*
X018856Y009397D01*
X019250Y009397D01*
X019250Y009437D01*
X019250Y009397D02*
X019250Y009358D01*
X018856Y009397D02*
X018856Y009437D01*
X020195Y011031D02*
X020195Y011228D01*
X018581Y012856D02*
X018378Y012856D01*
X018455Y012933D02*
X018581Y012933D01*
X018581Y013010D02*
X018532Y013010D01*
X018856Y013137D02*
X018856Y013177D01*
X019250Y013177D01*
X019250Y013137D01*
X019250Y013177D02*
X019250Y013216D01*
X018856Y013216D02*
X018856Y013177D01*
X021061Y016759D02*
X021100Y016759D01*
X024722Y010067D02*
X024722Y009791D01*
X024998Y009791D01*
X024722Y010067D01*
X024722Y009998D02*
X024791Y009998D01*
X024722Y009921D02*
X024868Y009921D01*
X024945Y009843D02*
X024722Y009843D01*
X026612Y008767D02*
X026927Y008767D01*
X026927Y009082D01*
X026612Y008767D01*
X026684Y008839D02*
X026927Y008839D01*
X026927Y008917D02*
X026761Y008917D01*
X026839Y008994D02*
X026927Y008994D01*
X026916Y009071D02*
X026927Y009071D01*
X027203Y009358D02*
X027203Y009397D01*
X027596Y009397D01*
X027596Y009437D01*
X027596Y009397D02*
X027596Y009358D01*
X027203Y009397D02*
X027203Y009437D01*
X037754Y018177D02*
X037754Y018216D01*
X038148Y018216D01*
X038148Y018256D01*
X038148Y018216D02*
X038148Y018177D01*
X038541Y018177D02*
X038541Y018216D01*
X038935Y018216D01*
X038935Y018256D01*
X038935Y018216D02*
X038935Y018177D01*
X038541Y018216D02*
X038541Y018256D01*
X038896Y017783D02*
X038896Y017665D01*
X038912Y017663D01*
X038928Y017658D01*
X038942Y017650D01*
X038955Y017639D01*
X038964Y017626D01*
X038971Y017610D01*
X038975Y017594D01*
X038975Y017578D01*
X038971Y017562D01*
X038964Y017547D01*
X038955Y017533D01*
X038942Y017522D01*
X038928Y017514D01*
X038912Y017509D01*
X038896Y017507D01*
X038896Y017389D01*
X039250Y017822D02*
X039407Y017822D01*
X039762Y017783D02*
X039762Y017389D01*
X040195Y017035D02*
X040589Y017035D01*
X040628Y017389D02*
X040628Y017547D01*
X040589Y017901D02*
X040470Y017901D01*
X040471Y017901D02*
X040469Y017885D01*
X040464Y017869D01*
X040456Y017855D01*
X040445Y017842D01*
X040432Y017833D01*
X040416Y017826D01*
X040400Y017822D01*
X040384Y017822D01*
X040368Y017826D01*
X040353Y017833D01*
X040339Y017842D01*
X040328Y017855D01*
X040320Y017869D01*
X040315Y017885D01*
X040313Y017901D01*
X040195Y017901D01*
X040431Y018019D02*
X040470Y018019D01*
X040470Y018413D01*
X040431Y018413D01*
X040470Y018413D02*
X040510Y018413D01*
X040510Y018019D02*
X040470Y018019D01*
X037754Y018216D02*
X037754Y018256D01*
X041411Y020578D02*
X041411Y020815D01*
X041648Y020815D01*
X041411Y020578D01*
X041411Y020580D02*
X041413Y020580D01*
X041411Y020657D02*
X041490Y020657D01*
X041567Y020734D02*
X041411Y020734D01*
X041411Y020812D02*
X041645Y020812D01*
X041390Y021260D02*
X042299Y021260D01*
X042299Y033361D01*
X041390Y033361D01*
X041390Y021260D01*
X041415Y022311D02*
X041415Y022586D01*
X041691Y022311D01*
X041415Y022311D01*
X041415Y022356D02*
X041645Y022356D01*
X041568Y022434D02*
X041415Y022434D01*
X041415Y022511D02*
X041491Y022511D01*
X041299Y022760D02*
X040390Y022760D01*
X040390Y024861D01*
X041299Y024861D01*
X041299Y022760D01*
X041966Y023295D02*
X042281Y023610D01*
X042281Y023295D01*
X041966Y023295D01*
X041691Y024319D02*
X041415Y024319D01*
X041415Y024594D02*
X041691Y024319D01*
X041061Y024870D02*
X041061Y025303D01*
X040707Y025106D02*
X040709Y025127D01*
X040715Y025147D01*
X040724Y025167D01*
X040736Y025184D01*
X040751Y025198D01*
X040769Y025210D01*
X040789Y025218D01*
X040809Y025223D01*
X040830Y025224D01*
X040851Y025221D01*
X040871Y025215D01*
X040890Y025204D01*
X040907Y025191D01*
X040920Y025175D01*
X040931Y025157D01*
X040939Y025137D01*
X040943Y025117D01*
X040943Y025095D01*
X040939Y025075D01*
X040931Y025055D01*
X040920Y025037D01*
X040907Y025021D01*
X040890Y025008D01*
X040871Y024997D01*
X040851Y024991D01*
X040830Y024988D01*
X040809Y024989D01*
X040789Y024994D01*
X040769Y025002D01*
X040751Y025014D01*
X040736Y025028D01*
X040724Y025045D01*
X040715Y025065D01*
X040709Y025085D01*
X040707Y025106D01*
X040648Y024834D02*
X040411Y024834D01*
X040411Y024598D01*
X040648Y024834D01*
X040641Y024828D02*
X040411Y024828D01*
X040411Y024751D02*
X040564Y024751D01*
X040487Y024674D02*
X040411Y024674D01*
X040299Y024861D02*
X040299Y022760D01*
X039390Y022760D01*
X039390Y024861D01*
X040299Y024861D01*
X040155Y024870D02*
X040352Y025067D01*
X040352Y025342D01*
X039880Y025106D02*
X039882Y025127D01*
X039888Y025147D01*
X039897Y025167D01*
X039909Y025184D01*
X039924Y025198D01*
X039942Y025210D01*
X039962Y025218D01*
X039982Y025223D01*
X040003Y025224D01*
X040024Y025221D01*
X040044Y025215D01*
X040063Y025204D01*
X040080Y025191D01*
X040093Y025175D01*
X040104Y025157D01*
X040112Y025137D01*
X040116Y025117D01*
X040116Y025095D01*
X040112Y025075D01*
X040104Y025055D01*
X040093Y025037D01*
X040080Y025021D01*
X040063Y025008D01*
X040044Y024997D01*
X040024Y024991D01*
X040003Y024988D01*
X039982Y024989D01*
X039962Y024994D01*
X039942Y025002D01*
X039924Y025014D01*
X039909Y025028D01*
X039897Y025045D01*
X039888Y025065D01*
X039882Y025085D01*
X039880Y025106D01*
X039801Y025185D02*
X039801Y025460D01*
X039663Y025460D02*
X039663Y025322D01*
X039526Y025322D01*
X039526Y025185D02*
X039801Y025185D01*
X039648Y024834D02*
X039411Y024834D01*
X039411Y024598D01*
X039648Y024834D01*
X039641Y024828D02*
X039411Y024828D01*
X039411Y024751D02*
X039564Y024751D01*
X039487Y024674D02*
X039411Y024674D01*
X041415Y025303D02*
X042281Y025303D01*
X039801Y027114D02*
X039801Y027389D01*
X039526Y027389D01*
X039526Y027252D02*
X039663Y027252D01*
X039663Y027114D01*
X039801Y027468D02*
X039803Y027486D01*
X039809Y027502D01*
X039818Y027517D01*
X039831Y027530D01*
X039846Y027539D01*
X039862Y027545D01*
X039880Y027547D01*
X039898Y027545D01*
X039914Y027539D01*
X039929Y027530D01*
X039942Y027517D01*
X039951Y027502D01*
X039957Y027486D01*
X039959Y027468D01*
X039957Y027450D01*
X039951Y027434D01*
X039942Y027419D01*
X039929Y027406D01*
X039914Y027397D01*
X039898Y027391D01*
X039880Y027389D01*
X039862Y027391D01*
X039846Y027397D01*
X039831Y027406D01*
X039818Y027419D01*
X039809Y027434D01*
X039803Y027450D01*
X039801Y027468D01*
X039565Y027783D02*
X039526Y027783D01*
X039526Y028177D01*
X039565Y028177D01*
X039526Y028177D02*
X039486Y028177D01*
X039486Y028334D02*
X039526Y028334D01*
X039526Y028728D01*
X039565Y028728D01*
X039526Y028728D02*
X039486Y028728D01*
X039526Y028334D02*
X039565Y028334D01*
X039526Y027783D02*
X039486Y027783D01*
X038502Y028334D02*
X038504Y028355D01*
X038510Y028375D01*
X038519Y028395D01*
X038531Y028412D01*
X038546Y028426D01*
X038564Y028438D01*
X038584Y028446D01*
X038604Y028451D01*
X038625Y028452D01*
X038646Y028449D01*
X038666Y028443D01*
X038685Y028432D01*
X038702Y028419D01*
X038715Y028403D01*
X038726Y028385D01*
X038734Y028365D01*
X038738Y028345D01*
X038738Y028323D01*
X038734Y028303D01*
X038726Y028283D01*
X038715Y028265D01*
X038702Y028249D01*
X038685Y028236D01*
X038666Y028225D01*
X038646Y028219D01*
X038625Y028216D01*
X038604Y028217D01*
X038584Y028222D01*
X038564Y028230D01*
X038546Y028242D01*
X038531Y028256D01*
X038519Y028273D01*
X038510Y028293D01*
X038504Y028313D01*
X038502Y028334D01*
X038368Y028507D02*
X038132Y028744D01*
X038368Y028744D01*
X038368Y028507D01*
X038368Y028536D02*
X038340Y028536D01*
X038368Y028613D02*
X038263Y028613D01*
X038185Y028690D02*
X038368Y028690D01*
X038395Y028765D02*
X038395Y027856D01*
X036294Y027856D01*
X036294Y028765D01*
X038395Y028765D01*
X037833Y028885D02*
X037793Y028885D01*
X037793Y029279D01*
X037754Y029279D01*
X037793Y029279D02*
X037833Y029279D01*
X037793Y028885D02*
X037754Y028885D01*
X037112Y029309D02*
X036112Y029309D01*
X036112Y030509D01*
X036412Y030509D01*
X036414Y030482D01*
X036419Y030455D01*
X036429Y030429D01*
X036441Y030405D01*
X036457Y030383D01*
X036475Y030363D01*
X036497Y030346D01*
X036520Y030331D01*
X036545Y030321D01*
X036571Y030313D01*
X036598Y030309D01*
X036626Y030309D01*
X036653Y030313D01*
X036679Y030321D01*
X036704Y030331D01*
X036727Y030346D01*
X036749Y030363D01*
X036767Y030383D01*
X036783Y030405D01*
X036795Y030429D01*
X036805Y030455D01*
X036810Y030482D01*
X036812Y030509D01*
X037112Y030509D01*
X037112Y029309D01*
X036022Y028531D02*
X035943Y028531D01*
X035549Y028531D01*
X035549Y028492D01*
X035549Y028531D02*
X035549Y028570D01*
X035943Y028570D02*
X035943Y028531D01*
X035943Y028492D01*
X036022Y028531D02*
X036179Y027626D01*
X036258Y027626D01*
X036022Y027586D02*
X035943Y027586D01*
X035549Y027586D01*
X035549Y027547D01*
X035549Y027586D02*
X035549Y027626D01*
X035274Y027586D02*
X035274Y027311D01*
X034998Y027311D01*
X035274Y027586D01*
X035274Y027531D02*
X035219Y027531D01*
X035274Y027454D02*
X035142Y027454D01*
X035064Y027377D02*
X035274Y027377D01*
X035274Y027311D02*
X034407Y027311D01*
X035549Y026681D02*
X035549Y026641D01*
X035943Y026641D01*
X035943Y026602D01*
X035943Y026641D02*
X035943Y026681D01*
X035549Y026641D02*
X035549Y026602D01*
X036061Y027193D02*
X036258Y027193D01*
X036061Y027193D02*
X036022Y027586D01*
X035943Y027586D02*
X035943Y027547D01*
X035943Y027586D02*
X035943Y027626D01*
X037596Y027389D02*
X037596Y027114D01*
X037734Y027114D02*
X037734Y027252D01*
X037872Y027252D01*
X037872Y027389D02*
X037596Y027389D01*
X035274Y029319D02*
X034407Y029319D01*
X034407Y030303D02*
X035274Y030303D01*
X035600Y030470D02*
X035900Y030470D01*
X035864Y030578D02*
X035825Y030578D01*
X035825Y030972D01*
X035864Y030972D01*
X035825Y030972D02*
X035785Y030972D01*
X035785Y030578D02*
X035825Y030578D01*
X035274Y031326D02*
X034407Y031326D01*
X035294Y032452D02*
X041395Y032452D01*
X041395Y033216D01*
X035294Y033216D01*
X035294Y032452D01*
X035313Y032450D02*
X035313Y032686D01*
X035549Y032450D01*
X035313Y032450D01*
X035313Y032475D02*
X035524Y032475D01*
X035447Y032552D02*
X035313Y032552D01*
X035313Y032629D02*
X035370Y032629D01*
X034648Y033334D02*
X034411Y033334D01*
X034411Y033098D01*
X034648Y033334D01*
X034638Y033325D02*
X034411Y033325D01*
X034411Y033247D02*
X034561Y033247D01*
X034483Y033170D02*
X034411Y033170D01*
X033301Y033334D02*
X033065Y033334D01*
X033065Y033098D01*
X033301Y033334D01*
X033291Y033325D02*
X033065Y033325D01*
X033065Y033247D02*
X033214Y033247D01*
X033137Y033170D02*
X033065Y033170D01*
X037754Y030775D02*
X037754Y030736D01*
X038148Y030736D01*
X038148Y030775D01*
X038148Y030736D02*
X038148Y030696D01*
X038541Y030696D02*
X038541Y030736D01*
X038935Y030736D01*
X038935Y030775D01*
X038935Y030736D02*
X038935Y030696D01*
X038896Y030303D02*
X038896Y030185D01*
X038912Y030183D01*
X038928Y030178D01*
X038942Y030170D01*
X038955Y030159D01*
X038964Y030146D01*
X038971Y030130D01*
X038975Y030114D01*
X038975Y030098D01*
X038971Y030082D01*
X038964Y030067D01*
X038955Y030053D01*
X038942Y030042D01*
X038928Y030034D01*
X038912Y030029D01*
X038896Y030027D01*
X038896Y029909D01*
X039250Y030342D02*
X039407Y030342D01*
X039762Y030303D02*
X039762Y029909D01*
X040195Y029555D02*
X040589Y029555D01*
X040628Y029909D02*
X040628Y030067D01*
X040589Y030421D02*
X040470Y030421D01*
X040471Y030421D02*
X040469Y030405D01*
X040464Y030389D01*
X040456Y030375D01*
X040445Y030362D01*
X040432Y030353D01*
X040416Y030346D01*
X040400Y030342D01*
X040384Y030342D01*
X040368Y030346D01*
X040353Y030353D01*
X040339Y030362D01*
X040328Y030375D01*
X040320Y030389D01*
X040315Y030405D01*
X040313Y030421D01*
X040195Y030421D01*
X040431Y030539D02*
X040470Y030539D01*
X040470Y030933D01*
X040431Y030933D01*
X040470Y030933D02*
X040510Y030933D01*
X040510Y030539D02*
X040470Y030539D01*
X038541Y030736D02*
X038541Y030775D01*
X037754Y030736D02*
X037754Y030696D01*
X041411Y033098D02*
X041411Y033334D01*
X041648Y033334D01*
X041411Y033098D01*
X041411Y033170D02*
X041483Y033170D01*
X041411Y033247D02*
X041561Y033247D01*
X041638Y033325D02*
X041411Y033325D01*
X033069Y024594D02*
X033344Y024319D01*
X033069Y024319D01*
X035064Y023361D02*
X035274Y023361D01*
X035274Y023438D02*
X035141Y023438D01*
X035218Y023515D02*
X035274Y023515D01*
X035549Y023767D02*
X035549Y023807D01*
X035943Y023807D01*
X035943Y023767D01*
X035943Y023807D02*
X035943Y023846D01*
X035549Y023846D02*
X035549Y023807D01*
D11*
X036062Y023715D02*
X036219Y023715D01*
X036271Y023767D01*
X036271Y023872D01*
X036219Y023924D01*
X036062Y023924D01*
X036062Y023610D01*
X036166Y023715D02*
X036271Y023610D01*
X036424Y023663D02*
X036424Y023715D01*
X036476Y023767D01*
X036581Y023767D01*
X036633Y023715D01*
X036633Y023663D01*
X036581Y023610D01*
X036476Y023610D01*
X036424Y023663D01*
X036476Y023767D02*
X036424Y023820D01*
X036424Y023872D01*
X036476Y023924D01*
X036581Y023924D01*
X036633Y023872D01*
X036633Y023820D01*
X036581Y023767D01*
X036529Y023413D02*
X036424Y023308D01*
X036529Y023413D02*
X036529Y023099D01*
X036633Y023099D02*
X036424Y023099D01*
X036271Y023099D02*
X036166Y023203D01*
X036114Y023099D02*
X036062Y023151D01*
X036062Y023360D01*
X036114Y023413D01*
X036219Y023413D01*
X036271Y023360D01*
X036271Y023151D01*
X036219Y023099D01*
X036114Y023099D01*
X036062Y022743D02*
X036219Y022743D01*
X036271Y022691D01*
X036271Y022586D01*
X036219Y022534D01*
X036062Y022534D01*
X036166Y022534D02*
X036271Y022429D01*
X036424Y022482D02*
X036476Y022429D01*
X036581Y022429D01*
X036633Y022482D01*
X036633Y022691D01*
X036581Y022743D01*
X036476Y022743D01*
X036424Y022691D01*
X036424Y022639D01*
X036476Y022586D01*
X036633Y022586D01*
X036529Y022035D02*
X036529Y021721D01*
X036633Y021721D02*
X036424Y021721D01*
X036271Y021721D02*
X036166Y021825D01*
X036219Y021825D02*
X036062Y021825D01*
X036062Y021721D02*
X036062Y022035D01*
X036219Y022035D01*
X036271Y021982D01*
X036271Y021878D01*
X036219Y021825D01*
X036424Y021930D02*
X036529Y022035D01*
X036787Y021982D02*
X036839Y022035D01*
X036944Y022035D01*
X036996Y021982D01*
X036787Y021773D01*
X036839Y021721D01*
X036944Y021721D01*
X036996Y021773D01*
X036996Y021982D01*
X036787Y021982D02*
X036787Y021773D01*
X037282Y022009D02*
X037282Y022219D01*
X037334Y022271D01*
X037439Y022271D01*
X037491Y022219D01*
X037645Y022219D02*
X037645Y022166D01*
X037697Y022114D01*
X037854Y022114D01*
X037854Y022219D02*
X037802Y022271D01*
X037697Y022271D01*
X037645Y022219D01*
X037854Y022219D02*
X037854Y022009D01*
X037802Y021957D01*
X037697Y021957D01*
X037645Y022009D01*
X037491Y022009D02*
X037439Y021957D01*
X037334Y021957D01*
X037282Y022009D01*
X036062Y022429D02*
X036062Y022743D01*
X038109Y023072D02*
X038161Y023020D01*
X038370Y023020D01*
X038423Y023072D01*
X038423Y023177D01*
X038370Y023229D01*
X038423Y023382D02*
X038213Y023592D01*
X038161Y023592D01*
X038109Y023539D01*
X038109Y023435D01*
X038161Y023382D01*
X038161Y023229D02*
X038109Y023177D01*
X038109Y023072D01*
X038423Y023382D02*
X038423Y023592D01*
X038975Y023592D02*
X039027Y023487D01*
X039132Y023382D01*
X039132Y023539D01*
X039184Y023592D01*
X039236Y023592D01*
X039289Y023539D01*
X039289Y023435D01*
X039236Y023382D01*
X039132Y023382D01*
X039236Y023229D02*
X039289Y023177D01*
X039289Y023072D01*
X039236Y023020D01*
X039027Y023020D01*
X038975Y023072D01*
X038975Y023177D01*
X039027Y023229D01*
X039067Y022665D02*
X039014Y022612D01*
X039014Y022403D01*
X039067Y022351D01*
X039171Y022351D01*
X039224Y022403D01*
X039224Y022508D01*
X039119Y022508D01*
X039224Y022612D02*
X039171Y022665D01*
X039067Y022665D01*
X039377Y022665D02*
X039586Y022351D01*
X039586Y022665D01*
X039739Y022665D02*
X039739Y022351D01*
X039896Y022351D01*
X039949Y022403D01*
X039949Y022612D01*
X039896Y022665D01*
X039739Y022665D01*
X039377Y022665D02*
X039377Y022351D01*
X037172Y024949D02*
X037067Y024949D01*
X037015Y025001D01*
X037015Y025054D01*
X037067Y025106D01*
X037172Y025106D01*
X037224Y025054D01*
X037224Y025001D01*
X037172Y024949D01*
X037172Y025106D02*
X037224Y025158D01*
X037224Y025211D01*
X037172Y025263D01*
X037067Y025263D01*
X037015Y025211D01*
X037015Y025158D01*
X037067Y025106D01*
X036861Y025001D02*
X036809Y024949D01*
X036704Y024949D01*
X036652Y025001D01*
X036652Y025211D01*
X036704Y025263D01*
X036809Y025263D01*
X036861Y025211D01*
X036581Y025500D02*
X036633Y025553D01*
X036633Y025605D01*
X036581Y025657D01*
X036424Y025657D01*
X036424Y025553D01*
X036476Y025500D01*
X036581Y025500D01*
X036424Y025657D02*
X036529Y025762D01*
X036633Y025814D01*
X036271Y025762D02*
X036271Y025657D01*
X036219Y025605D01*
X036062Y025605D01*
X036166Y025605D02*
X036271Y025500D01*
X036062Y025500D02*
X036062Y025814D01*
X036219Y025814D01*
X036271Y025762D01*
X036271Y026445D02*
X036166Y026550D01*
X036219Y026550D02*
X036062Y026550D01*
X036062Y026445D02*
X036062Y026759D01*
X036219Y026759D01*
X036271Y026707D01*
X036271Y026602D01*
X036219Y026550D01*
X036424Y026602D02*
X036529Y026654D01*
X036581Y026654D01*
X036633Y026602D01*
X036633Y026497D01*
X036581Y026445D01*
X036476Y026445D01*
X036424Y026497D01*
X036424Y026602D02*
X036424Y026759D01*
X036633Y026759D01*
X036625Y026957D02*
X036521Y027062D01*
X036573Y027062D02*
X036416Y027062D01*
X036416Y026957D02*
X036416Y027271D01*
X036573Y027271D01*
X036625Y027219D01*
X036625Y027114D01*
X036573Y027062D01*
X036778Y026957D02*
X036988Y027166D01*
X036988Y027219D01*
X036935Y027271D01*
X036831Y027271D01*
X036778Y027219D01*
X036778Y027429D02*
X036988Y027429D01*
X036883Y027429D02*
X036883Y027743D01*
X036778Y027639D01*
X036625Y027691D02*
X036625Y027586D01*
X036573Y027534D01*
X036416Y027534D01*
X036521Y027534D02*
X036625Y027429D01*
X036416Y027429D02*
X036416Y027743D01*
X036573Y027743D01*
X036625Y027691D01*
X036778Y026957D02*
X036988Y026957D01*
X036888Y028886D02*
X036940Y028938D01*
X036888Y028886D02*
X036783Y028886D01*
X036731Y028938D01*
X036731Y029148D01*
X036783Y029200D01*
X036888Y029200D01*
X036940Y029148D01*
X037093Y029043D02*
X037303Y029043D01*
X037250Y028886D02*
X037250Y029200D01*
X037093Y029043D01*
X037872Y029726D02*
X037925Y029673D01*
X038134Y029673D01*
X038186Y029726D01*
X038186Y029830D01*
X038134Y029883D01*
X038134Y030036D02*
X038186Y030088D01*
X038186Y030193D01*
X038134Y030245D01*
X038082Y030245D01*
X038029Y030193D01*
X038029Y030141D01*
X038029Y030193D02*
X037977Y030245D01*
X037925Y030245D01*
X037872Y030193D01*
X037872Y030088D01*
X037925Y030036D01*
X037925Y029883D02*
X037872Y029830D01*
X037872Y029726D01*
X038384Y029726D02*
X038436Y029673D01*
X038646Y029673D01*
X038698Y029726D01*
X038698Y029830D01*
X038646Y029883D01*
X038646Y030036D02*
X038698Y030036D01*
X038646Y030036D02*
X038436Y030245D01*
X038384Y030245D01*
X038384Y030036D01*
X038436Y029883D02*
X038384Y029830D01*
X038384Y029726D01*
X038975Y029476D02*
X039080Y029476D01*
X039027Y029476D02*
X039027Y029162D01*
X038975Y029162D02*
X039080Y029162D01*
X039217Y029214D02*
X039269Y029162D01*
X039374Y029162D01*
X039426Y029214D01*
X039579Y029162D02*
X039788Y029162D01*
X039684Y029162D02*
X039684Y029476D01*
X039579Y029371D01*
X039426Y029423D02*
X039374Y029476D01*
X039269Y029476D01*
X039217Y029423D01*
X039217Y029214D01*
X039920Y029122D02*
X040025Y029122D01*
X039972Y029122D02*
X039972Y029436D01*
X039920Y029436D02*
X040025Y029436D01*
X040162Y029384D02*
X040162Y029175D01*
X040214Y029122D01*
X040319Y029122D01*
X040371Y029175D01*
X040524Y029122D02*
X040733Y029332D01*
X040733Y029384D01*
X040681Y029436D01*
X040576Y029436D01*
X040524Y029384D01*
X040371Y029384D02*
X040319Y029436D01*
X040214Y029436D01*
X040162Y029384D01*
X040524Y029122D02*
X040733Y029122D01*
X040518Y028728D02*
X040361Y028571D01*
X040570Y028571D01*
X040518Y028414D02*
X040518Y028728D01*
X040208Y028675D02*
X040208Y028571D01*
X040156Y028518D01*
X039999Y028518D01*
X040103Y028518D02*
X040208Y028414D01*
X039999Y028414D02*
X039999Y028728D01*
X040156Y028728D01*
X040208Y028675D01*
X040274Y028098D02*
X040431Y028098D01*
X040483Y028045D01*
X040483Y027941D01*
X040431Y027888D01*
X040274Y027888D01*
X040274Y027784D02*
X040274Y028098D01*
X040379Y027888D02*
X040483Y027784D01*
X040637Y027836D02*
X040689Y027784D01*
X040794Y027784D01*
X040846Y027836D01*
X040846Y027888D01*
X040794Y027941D01*
X040741Y027941D01*
X040794Y027941D02*
X040846Y027993D01*
X040846Y028045D01*
X040794Y028098D01*
X040689Y028098D01*
X040637Y028045D01*
X040584Y027507D02*
X040584Y027193D01*
X040479Y027193D02*
X040689Y027193D01*
X040479Y027402D02*
X040584Y027507D01*
X040326Y027507D02*
X040326Y027245D01*
X040274Y027193D01*
X040169Y027193D01*
X040117Y027245D01*
X040117Y027507D01*
X040075Y026348D02*
X040075Y025381D01*
X040235Y025421D02*
X040235Y025526D01*
X040235Y025474D02*
X040549Y025474D01*
X040549Y025526D02*
X040549Y025421D01*
X040705Y025381D02*
X040705Y026469D01*
X040864Y026356D02*
X040864Y026147D01*
X040864Y026251D02*
X041178Y026251D01*
X041126Y025993D02*
X041178Y025941D01*
X041178Y025836D01*
X041126Y025784D01*
X041021Y025836D02*
X040969Y025784D01*
X040917Y025784D01*
X040864Y025836D01*
X040864Y025941D01*
X040917Y025993D01*
X041021Y025941D02*
X041074Y025993D01*
X041126Y025993D01*
X041021Y025941D02*
X041021Y025836D01*
X041021Y025631D02*
X041074Y025578D01*
X041074Y025421D01*
X041178Y025421D02*
X040864Y025421D01*
X040864Y025578D01*
X040917Y025631D01*
X041021Y025631D01*
X041074Y025526D02*
X041178Y025631D01*
X040549Y025715D02*
X040496Y025663D01*
X040549Y025715D02*
X040549Y025820D01*
X040496Y025872D01*
X040444Y025872D01*
X040392Y025820D01*
X040392Y025715D01*
X040339Y025663D01*
X040287Y025663D01*
X040235Y025715D01*
X040235Y025820D01*
X040287Y025872D01*
X040235Y026026D02*
X040235Y026183D01*
X040287Y026235D01*
X040392Y026235D01*
X040444Y026183D01*
X040444Y026026D01*
X040549Y026026D02*
X040235Y026026D01*
X036336Y024839D02*
X036284Y024839D01*
X036074Y025048D01*
X036022Y025048D01*
X036022Y024839D01*
X036074Y024686D02*
X036179Y024686D01*
X036231Y024634D01*
X036231Y024477D01*
X036231Y024581D02*
X036336Y024686D01*
X036336Y024477D02*
X036022Y024477D01*
X036022Y024634D01*
X036074Y024686D01*
X032832Y025421D02*
X032518Y025421D01*
X032518Y025578D01*
X032570Y025631D01*
X032675Y025631D01*
X032727Y025578D01*
X032727Y025421D01*
X032727Y025526D02*
X032832Y025631D01*
X032780Y025784D02*
X032832Y025836D01*
X032832Y025941D01*
X032780Y025993D01*
X032727Y025993D01*
X032675Y025941D01*
X032675Y025836D01*
X032623Y025784D01*
X032570Y025784D01*
X032518Y025836D01*
X032518Y025941D01*
X032570Y025993D01*
X032518Y026147D02*
X032518Y026356D01*
X032518Y026251D02*
X032832Y026251D01*
X032358Y026469D02*
X032358Y025381D01*
X032202Y025421D02*
X032202Y025526D01*
X032202Y025474D02*
X031888Y025474D01*
X031888Y025526D02*
X031888Y025421D01*
X031728Y025381D02*
X031728Y026348D01*
X031888Y026183D02*
X031940Y026235D01*
X032045Y026235D01*
X032097Y026183D01*
X032097Y026026D01*
X032202Y026026D02*
X031888Y026026D01*
X031888Y026183D01*
X031940Y025872D02*
X031888Y025820D01*
X031888Y025715D01*
X031940Y025663D01*
X031993Y025663D01*
X032045Y025715D01*
X032045Y025820D01*
X032097Y025872D01*
X032150Y025872D01*
X032202Y025820D01*
X032202Y025715D01*
X032150Y025663D01*
X032133Y027193D02*
X032342Y027193D01*
X032237Y027193D02*
X032237Y027507D01*
X032133Y027402D01*
X031980Y027507D02*
X031980Y027245D01*
X031927Y027193D01*
X031823Y027193D01*
X031770Y027245D01*
X031770Y027507D01*
X031928Y027784D02*
X031928Y028098D01*
X032085Y028098D01*
X032137Y028045D01*
X032137Y027941D01*
X032085Y027888D01*
X031928Y027888D01*
X032032Y027888D02*
X032137Y027784D01*
X032290Y027836D02*
X032343Y027784D01*
X032447Y027784D01*
X032500Y027836D01*
X032500Y027888D01*
X032447Y027941D01*
X032395Y027941D01*
X032447Y027941D02*
X032500Y027993D01*
X032500Y028045D01*
X032447Y028098D01*
X032343Y028098D01*
X032290Y028045D01*
X032172Y028414D02*
X032172Y028728D01*
X032015Y028571D01*
X032224Y028571D01*
X031861Y028571D02*
X031809Y028518D01*
X031652Y028518D01*
X031652Y028414D02*
X031652Y028728D01*
X031809Y028728D01*
X031861Y028675D01*
X031861Y028571D01*
X031757Y028518D02*
X031861Y028414D01*
X031867Y029122D02*
X031972Y029122D01*
X032024Y029175D01*
X032178Y029122D02*
X032387Y029332D01*
X032387Y029384D01*
X032335Y029436D01*
X032230Y029436D01*
X032178Y029384D01*
X032024Y029384D02*
X031972Y029436D01*
X031867Y029436D01*
X031815Y029384D01*
X031815Y029175D01*
X031867Y029122D01*
X031678Y029122D02*
X031573Y029122D01*
X031626Y029122D02*
X031626Y029436D01*
X031678Y029436D02*
X031573Y029436D01*
X031337Y029476D02*
X031337Y029162D01*
X031233Y029162D02*
X031442Y029162D01*
X031233Y029371D02*
X031337Y029476D01*
X031080Y029423D02*
X031027Y029476D01*
X030923Y029476D01*
X030870Y029423D01*
X030870Y029214D01*
X030923Y029162D01*
X031027Y029162D01*
X031080Y029214D01*
X030733Y029162D02*
X030629Y029162D01*
X030681Y029162D02*
X030681Y029476D01*
X030629Y029476D02*
X030733Y029476D01*
X030352Y029726D02*
X030352Y029830D01*
X030299Y029883D01*
X030299Y030036D02*
X030352Y030036D01*
X030299Y030036D02*
X030090Y030245D01*
X030038Y030245D01*
X030038Y030036D01*
X030090Y029883D02*
X030038Y029830D01*
X030038Y029726D01*
X030090Y029673D01*
X030299Y029673D01*
X030352Y029726D01*
X029840Y029726D02*
X029840Y029830D01*
X029788Y029883D01*
X029788Y030036D02*
X029840Y030088D01*
X029840Y030193D01*
X029788Y030245D01*
X029735Y030245D01*
X029683Y030193D01*
X029683Y030141D01*
X029683Y030193D02*
X029631Y030245D01*
X029578Y030245D01*
X029526Y030193D01*
X029526Y030088D01*
X029578Y030036D01*
X029578Y029883D02*
X029526Y029830D01*
X029526Y029726D01*
X029578Y029673D01*
X029788Y029673D01*
X029840Y029726D01*
X028904Y029200D02*
X028747Y029043D01*
X028956Y029043D01*
X028904Y028886D02*
X028904Y029200D01*
X028594Y029148D02*
X028541Y029200D01*
X028437Y029200D01*
X028384Y029148D01*
X028384Y028938D01*
X028437Y028886D01*
X028541Y028886D01*
X028594Y028938D01*
X028537Y027743D02*
X028537Y027429D01*
X028641Y027429D02*
X028432Y027429D01*
X028279Y027429D02*
X028174Y027534D01*
X028226Y027534D02*
X028069Y027534D01*
X028069Y027429D02*
X028069Y027743D01*
X028226Y027743D01*
X028279Y027691D01*
X028279Y027586D01*
X028226Y027534D01*
X028432Y027639D02*
X028537Y027743D01*
X028589Y027271D02*
X028484Y027271D01*
X028432Y027219D01*
X028279Y027219D02*
X028279Y027114D01*
X028226Y027062D01*
X028069Y027062D01*
X028069Y026957D02*
X028069Y027271D01*
X028226Y027271D01*
X028279Y027219D01*
X028174Y027062D02*
X028279Y026957D01*
X028432Y026957D02*
X028641Y027166D01*
X028641Y027219D01*
X028589Y027271D01*
X028641Y026957D02*
X028432Y026957D01*
X028287Y026759D02*
X028078Y026759D01*
X028078Y026602D01*
X028182Y026654D01*
X028235Y026654D01*
X028287Y026602D01*
X028287Y026497D01*
X028235Y026445D01*
X028130Y026445D01*
X028078Y026497D01*
X027924Y026445D02*
X027820Y026550D01*
X027872Y026550D02*
X027715Y026550D01*
X027715Y026445D02*
X027715Y026759D01*
X027872Y026759D01*
X027924Y026707D01*
X027924Y026602D01*
X027872Y026550D01*
X027872Y025814D02*
X027924Y025762D01*
X027924Y025657D01*
X027872Y025605D01*
X027715Y025605D01*
X027715Y025500D02*
X027715Y025814D01*
X027872Y025814D01*
X027820Y025605D02*
X027924Y025500D01*
X028078Y025553D02*
X028130Y025500D01*
X028235Y025500D01*
X028287Y025553D01*
X028287Y025605D01*
X028235Y025657D01*
X028078Y025657D01*
X028078Y025553D01*
X028078Y025657D02*
X028182Y025762D01*
X028287Y025814D01*
X028358Y025263D02*
X028306Y025211D01*
X028306Y025001D01*
X028358Y024949D01*
X028463Y024949D01*
X028515Y025001D01*
X028668Y025001D02*
X028668Y025054D01*
X028721Y025106D01*
X028825Y025106D01*
X028878Y025054D01*
X028878Y025001D01*
X028825Y024949D01*
X028721Y024949D01*
X028668Y025001D01*
X028721Y025106D02*
X028668Y025158D01*
X028668Y025211D01*
X028721Y025263D01*
X028825Y025263D01*
X028878Y025211D01*
X028878Y025158D01*
X028825Y025106D01*
X028515Y025211D02*
X028463Y025263D01*
X028358Y025263D01*
X027989Y024839D02*
X027937Y024839D01*
X027728Y025048D01*
X027675Y025048D01*
X027675Y024839D01*
X027728Y024686D02*
X027832Y024686D01*
X027885Y024634D01*
X027885Y024477D01*
X027885Y024581D02*
X027989Y024686D01*
X027989Y024477D02*
X027675Y024477D01*
X027675Y024634D01*
X027728Y024686D01*
X027715Y023924D02*
X027872Y023924D01*
X027924Y023872D01*
X027924Y023767D01*
X027872Y023715D01*
X027715Y023715D01*
X027715Y023610D02*
X027715Y023924D01*
X027820Y023715D02*
X027924Y023610D01*
X028078Y023663D02*
X028078Y023715D01*
X028130Y023767D01*
X028235Y023767D01*
X028287Y023715D01*
X028287Y023663D01*
X028235Y023610D01*
X028130Y023610D01*
X028078Y023663D01*
X028130Y023767D02*
X028078Y023820D01*
X028078Y023872D01*
X028130Y023924D01*
X028235Y023924D01*
X028287Y023872D01*
X028287Y023820D01*
X028235Y023767D01*
X028182Y023413D02*
X028182Y023099D01*
X028078Y023099D02*
X028287Y023099D01*
X028078Y023308D02*
X028182Y023413D01*
X027924Y023360D02*
X027924Y023151D01*
X027872Y023099D01*
X027767Y023099D01*
X027715Y023151D01*
X027715Y023360D01*
X027767Y023413D01*
X027872Y023413D01*
X027924Y023360D01*
X027820Y023203D02*
X027924Y023099D01*
X027872Y022743D02*
X027924Y022691D01*
X027924Y022586D01*
X027872Y022534D01*
X027715Y022534D01*
X027715Y022429D02*
X027715Y022743D01*
X027872Y022743D01*
X028078Y022691D02*
X028078Y022639D01*
X028130Y022586D01*
X028287Y022586D01*
X028287Y022482D02*
X028287Y022691D01*
X028235Y022743D01*
X028130Y022743D01*
X028078Y022691D01*
X028078Y022482D02*
X028130Y022429D01*
X028235Y022429D01*
X028287Y022482D01*
X027924Y022429D02*
X027820Y022534D01*
X027872Y022035D02*
X027924Y021982D01*
X027924Y021878D01*
X027872Y021825D01*
X027715Y021825D01*
X027715Y021721D02*
X027715Y022035D01*
X027872Y022035D01*
X027820Y021825D02*
X027924Y021721D01*
X028078Y021721D02*
X028287Y021721D01*
X028182Y021721D02*
X028182Y022035D01*
X028078Y021930D01*
X028440Y021982D02*
X028492Y022035D01*
X028597Y022035D01*
X028649Y021982D01*
X028440Y021773D01*
X028492Y021721D01*
X028597Y021721D01*
X028649Y021773D01*
X028649Y021982D01*
X028440Y021982D02*
X028440Y021773D01*
X028936Y022009D02*
X028936Y022219D01*
X028988Y022271D01*
X029093Y022271D01*
X029145Y022219D01*
X029298Y022219D02*
X029298Y022166D01*
X029350Y022114D01*
X029507Y022114D01*
X029507Y022219D02*
X029455Y022271D01*
X029350Y022271D01*
X029298Y022219D01*
X029507Y022219D02*
X029507Y022009D01*
X029455Y021957D01*
X029350Y021957D01*
X029298Y022009D01*
X029145Y022009D02*
X029093Y021957D01*
X028988Y021957D01*
X028936Y022009D01*
X029814Y023020D02*
X030024Y023020D01*
X030076Y023072D01*
X030076Y023177D01*
X030024Y023229D01*
X030076Y023382D02*
X029867Y023592D01*
X029814Y023592D01*
X029762Y023539D01*
X029762Y023435D01*
X029814Y023382D01*
X029814Y023229D02*
X029762Y023177D01*
X029762Y023072D01*
X029814Y023020D01*
X030076Y023382D02*
X030076Y023592D01*
X030628Y023592D02*
X030681Y023487D01*
X030785Y023382D01*
X030785Y023539D01*
X030838Y023592D01*
X030890Y023592D01*
X030942Y023539D01*
X030942Y023435D01*
X030890Y023382D01*
X030785Y023382D01*
X030681Y023229D02*
X030628Y023177D01*
X030628Y023072D01*
X030681Y023020D01*
X030890Y023020D01*
X030942Y023072D01*
X030942Y023177D01*
X030890Y023229D01*
X030825Y022665D02*
X030720Y022665D01*
X030668Y022612D01*
X030668Y022403D01*
X030720Y022351D01*
X030825Y022351D01*
X030877Y022403D01*
X030877Y022508D01*
X030773Y022508D01*
X030877Y022612D02*
X030825Y022665D01*
X031030Y022665D02*
X031240Y022351D01*
X031240Y022665D01*
X031393Y022665D02*
X031393Y022351D01*
X031550Y022351D01*
X031602Y022403D01*
X031602Y022612D01*
X031550Y022665D01*
X031393Y022665D01*
X031030Y022665D02*
X031030Y022351D01*
X031468Y018806D02*
X031416Y018754D01*
X031416Y018545D01*
X031468Y018492D01*
X031573Y018492D01*
X031625Y018545D01*
X031778Y018492D02*
X031988Y018492D01*
X031883Y018492D02*
X031883Y018806D01*
X031778Y018702D01*
X031625Y018754D02*
X031573Y018806D01*
X031468Y018806D01*
X030352Y017516D02*
X030299Y017516D01*
X030090Y017726D01*
X030038Y017726D01*
X030038Y017516D01*
X030090Y017363D02*
X030038Y017311D01*
X030038Y017206D01*
X030090Y017154D01*
X030299Y017154D01*
X030352Y017206D01*
X030352Y017311D01*
X030299Y017363D01*
X029840Y017311D02*
X029788Y017363D01*
X029840Y017311D02*
X029840Y017206D01*
X029788Y017154D01*
X029578Y017154D01*
X029526Y017206D01*
X029526Y017311D01*
X029578Y017363D01*
X029578Y017516D02*
X029526Y017569D01*
X029526Y017673D01*
X029578Y017726D01*
X029631Y017726D01*
X029683Y017673D01*
X029735Y017726D01*
X029788Y017726D01*
X029840Y017673D01*
X029840Y017569D01*
X029788Y017516D01*
X029683Y017621D02*
X029683Y017673D01*
X029185Y018138D02*
X029080Y018138D01*
X029028Y018190D01*
X029133Y018295D02*
X029185Y018295D01*
X029237Y018243D01*
X029237Y018190D01*
X029185Y018138D01*
X029185Y018295D02*
X029237Y018347D01*
X029237Y018400D01*
X029185Y018452D01*
X029080Y018452D01*
X029028Y018400D01*
X028875Y018400D02*
X028822Y018452D01*
X028718Y018452D01*
X028665Y018400D01*
X028665Y018190D01*
X028718Y018138D01*
X028822Y018138D01*
X028875Y018190D01*
X028528Y018138D02*
X028424Y018138D01*
X028476Y018138D02*
X028476Y018452D01*
X028424Y018452D02*
X028528Y018452D01*
X028248Y018584D02*
X028248Y018689D01*
X028195Y018741D01*
X028143Y018741D01*
X028038Y018689D01*
X028038Y018846D01*
X028248Y018846D01*
X028248Y018584D02*
X028195Y018532D01*
X028091Y018532D01*
X028038Y018584D01*
X027885Y018584D02*
X027833Y018532D01*
X027728Y018532D01*
X027676Y018584D01*
X027676Y018793D01*
X027728Y018846D01*
X027833Y018846D01*
X027885Y018793D01*
X028437Y016680D02*
X028384Y016628D01*
X028384Y016419D01*
X028437Y016366D01*
X028541Y016366D01*
X028594Y016419D01*
X028747Y016523D02*
X028956Y016523D01*
X028904Y016366D02*
X028904Y016680D01*
X028747Y016523D01*
X028594Y016628D02*
X028541Y016680D01*
X028437Y016680D01*
X028537Y015224D02*
X028537Y014910D01*
X028641Y014910D02*
X028432Y014910D01*
X028279Y014910D02*
X028174Y015014D01*
X028226Y015014D02*
X028069Y015014D01*
X028069Y014910D02*
X028069Y015224D01*
X028226Y015224D01*
X028279Y015171D01*
X028279Y015067D01*
X028226Y015014D01*
X028432Y015119D02*
X028537Y015224D01*
X028589Y014751D02*
X028484Y014751D01*
X028432Y014699D01*
X028279Y014699D02*
X028279Y014594D01*
X028226Y014542D01*
X028069Y014542D01*
X028069Y014437D02*
X028069Y014751D01*
X028226Y014751D01*
X028279Y014699D01*
X028174Y014542D02*
X028279Y014437D01*
X028432Y014437D02*
X028641Y014647D01*
X028641Y014699D01*
X028589Y014751D01*
X028641Y014437D02*
X028432Y014437D01*
X028287Y014239D02*
X028078Y014239D01*
X028078Y014082D01*
X028182Y014135D01*
X028235Y014135D01*
X028287Y014082D01*
X028287Y013978D01*
X028235Y013925D01*
X028130Y013925D01*
X028078Y013978D01*
X027924Y013925D02*
X027820Y014030D01*
X027872Y014030D02*
X027715Y014030D01*
X027715Y013925D02*
X027715Y014239D01*
X027872Y014239D01*
X027924Y014187D01*
X027924Y014082D01*
X027872Y014030D01*
X027872Y013295D02*
X027924Y013242D01*
X027924Y013138D01*
X027872Y013085D01*
X027715Y013085D01*
X027715Y012981D02*
X027715Y013295D01*
X027872Y013295D01*
X027820Y013085D02*
X027924Y012981D01*
X028078Y013033D02*
X028130Y012981D01*
X028235Y012981D01*
X028287Y013033D01*
X028287Y013085D01*
X028235Y013138D01*
X028078Y013138D01*
X028078Y013033D01*
X028078Y013138D02*
X028182Y013242D01*
X028287Y013295D01*
X028358Y012743D02*
X028306Y012691D01*
X028306Y012482D01*
X028358Y012429D01*
X028463Y012429D01*
X028515Y012482D01*
X028668Y012482D02*
X028668Y012534D01*
X028721Y012586D01*
X028825Y012586D01*
X028878Y012534D01*
X028878Y012482D01*
X028825Y012429D01*
X028721Y012429D01*
X028668Y012482D01*
X028721Y012586D02*
X028668Y012639D01*
X028668Y012691D01*
X028721Y012743D01*
X028825Y012743D01*
X028878Y012691D01*
X028878Y012639D01*
X028825Y012586D01*
X028515Y012691D02*
X028463Y012743D01*
X028358Y012743D01*
X027989Y012319D02*
X027937Y012319D01*
X027728Y012529D01*
X027675Y012529D01*
X027675Y012319D01*
X027728Y012166D02*
X027832Y012166D01*
X027885Y012114D01*
X027885Y011957D01*
X027989Y011957D02*
X027675Y011957D01*
X027675Y012114D01*
X027728Y012166D01*
X027885Y012062D02*
X027989Y012166D01*
X027872Y011405D02*
X027924Y011352D01*
X027924Y011248D01*
X027872Y011195D01*
X027715Y011195D01*
X027715Y011091D02*
X027715Y011405D01*
X027872Y011405D01*
X028078Y011352D02*
X028078Y011300D01*
X028130Y011248D01*
X028235Y011248D01*
X028287Y011195D01*
X028287Y011143D01*
X028235Y011091D01*
X028130Y011091D01*
X028078Y011143D01*
X028078Y011195D01*
X028130Y011248D01*
X028235Y011248D02*
X028287Y011300D01*
X028287Y011352D01*
X028235Y011405D01*
X028130Y011405D01*
X028078Y011352D01*
X027820Y011195D02*
X027924Y011091D01*
X027872Y010893D02*
X027924Y010841D01*
X027924Y010631D01*
X027872Y010579D01*
X027767Y010579D01*
X027715Y010631D01*
X027715Y010841D01*
X027767Y010893D01*
X027872Y010893D01*
X027820Y010684D02*
X027924Y010579D01*
X028078Y010579D02*
X028287Y010579D01*
X028182Y010579D02*
X028182Y010893D01*
X028078Y010788D01*
X028130Y010224D02*
X028078Y010171D01*
X028078Y010119D01*
X028130Y010067D01*
X028287Y010067D01*
X028287Y010171D02*
X028235Y010224D01*
X028130Y010224D01*
X028287Y010171D02*
X028287Y009962D01*
X028235Y009910D01*
X028130Y009910D01*
X028078Y009962D01*
X027924Y009910D02*
X027820Y010014D01*
X027872Y010014D02*
X027715Y010014D01*
X027715Y009910D02*
X027715Y010224D01*
X027872Y010224D01*
X027924Y010171D01*
X027924Y010067D01*
X027872Y010014D01*
X027872Y009515D02*
X027924Y009463D01*
X027924Y009358D01*
X027872Y009306D01*
X027715Y009306D01*
X027820Y009306D02*
X027924Y009201D01*
X028078Y009201D02*
X028287Y009201D01*
X028182Y009201D02*
X028182Y009515D01*
X028078Y009410D01*
X027872Y009515D02*
X027715Y009515D01*
X027715Y009201D01*
X028440Y009253D02*
X028649Y009463D01*
X028649Y009253D01*
X028597Y009201D01*
X028492Y009201D01*
X028440Y009253D01*
X028440Y009463D01*
X028492Y009515D01*
X028597Y009515D01*
X028649Y009463D01*
X028936Y009490D02*
X028988Y009437D01*
X029093Y009437D01*
X029145Y009490D01*
X029298Y009490D02*
X029350Y009437D01*
X029455Y009437D01*
X029507Y009490D01*
X029507Y009699D01*
X029455Y009751D01*
X029350Y009751D01*
X029298Y009699D01*
X029298Y009647D01*
X029350Y009594D01*
X029507Y009594D01*
X029145Y009699D02*
X029093Y009751D01*
X028988Y009751D01*
X028936Y009699D01*
X028936Y009490D01*
X029814Y010500D02*
X030024Y010500D01*
X030076Y010553D01*
X030076Y010657D01*
X030024Y010710D01*
X030076Y010863D02*
X029867Y011072D01*
X029814Y011072D01*
X029762Y011020D01*
X029762Y010915D01*
X029814Y010863D01*
X029814Y010710D02*
X029762Y010657D01*
X029762Y010553D01*
X029814Y010500D01*
X030076Y010863D02*
X030076Y011072D01*
X030628Y011072D02*
X030681Y010967D01*
X030785Y010863D01*
X030785Y011020D01*
X030838Y011072D01*
X030890Y011072D01*
X030942Y011020D01*
X030942Y010915D01*
X030890Y010863D01*
X030785Y010863D01*
X030681Y010710D02*
X030628Y010657D01*
X030628Y010553D01*
X030681Y010500D01*
X030890Y010500D01*
X030942Y010553D01*
X030942Y010657D01*
X030890Y010710D01*
X030825Y010145D02*
X030720Y010145D01*
X030668Y010093D01*
X030668Y009883D01*
X030720Y009831D01*
X030825Y009831D01*
X030877Y009883D01*
X030877Y009988D01*
X030773Y009988D01*
X030877Y010093D02*
X030825Y010145D01*
X031030Y010145D02*
X031240Y009831D01*
X031240Y010145D01*
X031393Y010145D02*
X031393Y009831D01*
X031550Y009831D01*
X031602Y009883D01*
X031602Y010093D01*
X031550Y010145D01*
X031393Y010145D01*
X031030Y010145D02*
X031030Y009831D01*
X031728Y012862D02*
X031728Y013829D01*
X031888Y013663D02*
X031940Y013715D01*
X032045Y013715D01*
X032097Y013663D01*
X032097Y013506D01*
X032202Y013506D02*
X031888Y013506D01*
X031888Y013663D01*
X031940Y013353D02*
X031888Y013300D01*
X031888Y013196D01*
X031940Y013143D01*
X031993Y013143D01*
X032045Y013196D01*
X032045Y013300D01*
X032097Y013353D01*
X032150Y013353D01*
X032202Y013300D01*
X032202Y013196D01*
X032150Y013143D01*
X032202Y013006D02*
X032202Y012902D01*
X032202Y012954D02*
X031888Y012954D01*
X031888Y012902D02*
X031888Y013006D01*
X032358Y012862D02*
X032358Y013949D01*
X032518Y013836D02*
X032518Y013627D01*
X032518Y013731D02*
X032832Y013731D01*
X032780Y013474D02*
X032832Y013421D01*
X032832Y013317D01*
X032780Y013264D01*
X032675Y013317D02*
X032675Y013421D01*
X032727Y013474D01*
X032780Y013474D01*
X032675Y013317D02*
X032623Y013264D01*
X032570Y013264D01*
X032518Y013317D01*
X032518Y013421D01*
X032570Y013474D01*
X032570Y013111D02*
X032675Y013111D01*
X032727Y013059D01*
X032727Y012902D01*
X032727Y013006D02*
X032832Y013111D01*
X032832Y012902D02*
X032518Y012902D01*
X032518Y013059D01*
X032570Y013111D01*
X032342Y014673D02*
X032133Y014673D01*
X032237Y014673D02*
X032237Y014987D01*
X032133Y014883D01*
X031980Y014987D02*
X031980Y014726D01*
X031927Y014673D01*
X031823Y014673D01*
X031770Y014726D01*
X031770Y014987D01*
X031928Y015264D02*
X031928Y015578D01*
X032085Y015578D01*
X032137Y015526D01*
X032137Y015421D01*
X032085Y015369D01*
X031928Y015369D01*
X032032Y015369D02*
X032137Y015264D01*
X032290Y015316D02*
X032343Y015264D01*
X032447Y015264D01*
X032500Y015316D01*
X032500Y015369D01*
X032447Y015421D01*
X032395Y015421D01*
X032447Y015421D02*
X032500Y015473D01*
X032500Y015526D01*
X032447Y015578D01*
X032343Y015578D01*
X032290Y015526D01*
X032172Y015894D02*
X032172Y016208D01*
X032015Y016051D01*
X032224Y016051D01*
X031861Y016051D02*
X031809Y015999D01*
X031652Y015999D01*
X031757Y015999D02*
X031861Y015894D01*
X031861Y016051D02*
X031861Y016156D01*
X031809Y016208D01*
X031652Y016208D01*
X031652Y015894D01*
X031678Y016603D02*
X031573Y016603D01*
X031626Y016603D02*
X031626Y016917D01*
X031678Y016917D02*
X031573Y016917D01*
X031337Y016956D02*
X031337Y016642D01*
X031233Y016642D02*
X031442Y016642D01*
X031233Y016851D02*
X031337Y016956D01*
X031080Y016904D02*
X031027Y016956D01*
X030923Y016956D01*
X030870Y016904D01*
X030870Y016694D01*
X030923Y016642D01*
X031027Y016642D01*
X031080Y016694D01*
X030733Y016642D02*
X030629Y016642D01*
X030681Y016642D02*
X030681Y016956D01*
X030629Y016956D02*
X030733Y016956D01*
X031815Y016864D02*
X031815Y016655D01*
X031867Y016603D01*
X031972Y016603D01*
X032024Y016655D01*
X032178Y016603D02*
X032387Y016812D01*
X032387Y016864D01*
X032335Y016917D01*
X032230Y016917D01*
X032178Y016864D01*
X032024Y016864D02*
X031972Y016917D01*
X031867Y016917D01*
X031815Y016864D01*
X032178Y016603D02*
X032387Y016603D01*
X036022Y018584D02*
X036075Y018532D01*
X036179Y018532D01*
X036232Y018584D01*
X036385Y018584D02*
X036437Y018532D01*
X036542Y018532D01*
X036594Y018584D01*
X036594Y018689D01*
X036542Y018741D01*
X036489Y018741D01*
X036385Y018689D01*
X036385Y018846D01*
X036594Y018846D01*
X036232Y018793D02*
X036179Y018846D01*
X036075Y018846D01*
X036022Y018793D01*
X036022Y018584D01*
X036770Y018452D02*
X036875Y018452D01*
X036823Y018452D02*
X036823Y018138D01*
X036875Y018138D02*
X036770Y018138D01*
X037012Y018190D02*
X037012Y018400D01*
X037064Y018452D01*
X037169Y018452D01*
X037221Y018400D01*
X037374Y018400D02*
X037427Y018452D01*
X037531Y018452D01*
X037584Y018400D01*
X037584Y018347D01*
X037531Y018295D01*
X037584Y018243D01*
X037584Y018190D01*
X037531Y018138D01*
X037427Y018138D01*
X037374Y018190D01*
X037479Y018295D02*
X037531Y018295D01*
X037221Y018190D02*
X037169Y018138D01*
X037064Y018138D01*
X037012Y018190D01*
X037872Y017673D02*
X037925Y017726D01*
X037977Y017726D01*
X038029Y017673D01*
X038082Y017726D01*
X038134Y017726D01*
X038186Y017673D01*
X038186Y017569D01*
X038134Y017516D01*
X038029Y017621D02*
X038029Y017673D01*
X037872Y017673D02*
X037872Y017569D01*
X037925Y017516D01*
X037925Y017363D02*
X037872Y017311D01*
X037872Y017206D01*
X037925Y017154D01*
X038134Y017154D01*
X038186Y017206D01*
X038186Y017311D01*
X038134Y017363D01*
X038384Y017311D02*
X038384Y017206D01*
X038436Y017154D01*
X038646Y017154D01*
X038698Y017206D01*
X038698Y017311D01*
X038646Y017363D01*
X038646Y017516D02*
X038698Y017516D01*
X038646Y017516D02*
X038436Y017726D01*
X038384Y017726D01*
X038384Y017516D01*
X038436Y017363D02*
X038384Y017311D01*
X038975Y016956D02*
X039080Y016956D01*
X039027Y016956D02*
X039027Y016642D01*
X038975Y016642D02*
X039080Y016642D01*
X039217Y016694D02*
X039269Y016642D01*
X039374Y016642D01*
X039426Y016694D01*
X039579Y016642D02*
X039788Y016642D01*
X039684Y016642D02*
X039684Y016956D01*
X039579Y016851D01*
X039426Y016904D02*
X039374Y016956D01*
X039269Y016956D01*
X039217Y016904D01*
X039217Y016694D01*
X039920Y016603D02*
X040025Y016603D01*
X039972Y016603D02*
X039972Y016917D01*
X039920Y016917D02*
X040025Y016917D01*
X040162Y016864D02*
X040162Y016655D01*
X040214Y016603D01*
X040319Y016603D01*
X040371Y016655D01*
X040524Y016603D02*
X040733Y016812D01*
X040733Y016864D01*
X040681Y016917D01*
X040576Y016917D01*
X040524Y016864D01*
X040371Y016864D02*
X040319Y016917D01*
X040214Y016917D01*
X040162Y016864D01*
X040524Y016603D02*
X040733Y016603D01*
X040518Y016208D02*
X040361Y016051D01*
X040570Y016051D01*
X040518Y015894D02*
X040518Y016208D01*
X040208Y016156D02*
X040208Y016051D01*
X040156Y015999D01*
X039999Y015999D01*
X040103Y015999D02*
X040208Y015894D01*
X039999Y015894D02*
X039999Y016208D01*
X040156Y016208D01*
X040208Y016156D01*
X040274Y015578D02*
X040431Y015578D01*
X040483Y015526D01*
X040483Y015421D01*
X040431Y015369D01*
X040274Y015369D01*
X040379Y015369D02*
X040483Y015264D01*
X040637Y015316D02*
X040689Y015264D01*
X040794Y015264D01*
X040846Y015316D01*
X040846Y015369D01*
X040794Y015421D01*
X040741Y015421D01*
X040794Y015421D02*
X040846Y015473D01*
X040846Y015526D01*
X040794Y015578D01*
X040689Y015578D01*
X040637Y015526D01*
X040274Y015578D02*
X040274Y015264D01*
X040326Y014987D02*
X040326Y014726D01*
X040274Y014673D01*
X040169Y014673D01*
X040117Y014726D01*
X040117Y014987D01*
X040479Y014883D02*
X040584Y014987D01*
X040584Y014673D01*
X040479Y014673D02*
X040689Y014673D01*
X040705Y013949D02*
X040705Y012862D01*
X040549Y012902D02*
X040549Y013006D01*
X040549Y012954D02*
X040235Y012954D01*
X040235Y012902D02*
X040235Y013006D01*
X040287Y013143D02*
X040339Y013143D01*
X040392Y013196D01*
X040392Y013300D01*
X040444Y013353D01*
X040496Y013353D01*
X040549Y013300D01*
X040549Y013196D01*
X040496Y013143D01*
X040287Y013143D02*
X040235Y013196D01*
X040235Y013300D01*
X040287Y013353D01*
X040235Y013506D02*
X040235Y013663D01*
X040287Y013715D01*
X040392Y013715D01*
X040444Y013663D01*
X040444Y013506D01*
X040549Y013506D02*
X040235Y013506D01*
X040075Y013829D02*
X040075Y012862D01*
X040864Y012902D02*
X040864Y013059D01*
X040917Y013111D01*
X041021Y013111D01*
X041074Y013059D01*
X041074Y012902D01*
X041178Y012902D02*
X040864Y012902D01*
X041074Y013006D02*
X041178Y013111D01*
X041126Y013264D02*
X041178Y013317D01*
X041178Y013421D01*
X041126Y013474D01*
X041074Y013474D01*
X041021Y013421D01*
X041021Y013317D01*
X040969Y013264D01*
X040917Y013264D01*
X040864Y013317D01*
X040864Y013421D01*
X040917Y013474D01*
X040864Y013627D02*
X040864Y013836D01*
X040864Y013731D02*
X041178Y013731D01*
X039236Y011072D02*
X039184Y011072D01*
X039132Y011020D01*
X039132Y010863D01*
X039236Y010863D01*
X039289Y010915D01*
X039289Y011020D01*
X039236Y011072D01*
X039027Y010967D02*
X038975Y011072D01*
X039027Y010967D02*
X039132Y010863D01*
X039236Y010710D02*
X039289Y010657D01*
X039289Y010553D01*
X039236Y010500D01*
X039027Y010500D01*
X038975Y010553D01*
X038975Y010657D01*
X039027Y010710D01*
X038423Y010657D02*
X038423Y010553D01*
X038370Y010500D01*
X038161Y010500D01*
X038109Y010553D01*
X038109Y010657D01*
X038161Y010710D01*
X038161Y010863D02*
X038109Y010915D01*
X038109Y011020D01*
X038161Y011072D01*
X038213Y011072D01*
X038423Y010863D01*
X038423Y011072D01*
X038370Y010710D02*
X038423Y010657D01*
X039014Y010093D02*
X039014Y009883D01*
X039067Y009831D01*
X039171Y009831D01*
X039224Y009883D01*
X039224Y009988D01*
X039119Y009988D01*
X039224Y010093D02*
X039171Y010145D01*
X039067Y010145D01*
X039014Y010093D01*
X039377Y010145D02*
X039586Y009831D01*
X039586Y010145D01*
X039739Y010145D02*
X039739Y009831D01*
X039896Y009831D01*
X039949Y009883D01*
X039949Y010093D01*
X039896Y010145D01*
X039739Y010145D01*
X039377Y010145D02*
X039377Y009831D01*
X037854Y009699D02*
X037854Y009490D01*
X037802Y009437D01*
X037697Y009437D01*
X037645Y009490D01*
X037697Y009594D02*
X037854Y009594D01*
X037854Y009699D02*
X037802Y009751D01*
X037697Y009751D01*
X037645Y009699D01*
X037645Y009647D01*
X037697Y009594D01*
X037491Y009490D02*
X037439Y009437D01*
X037334Y009437D01*
X037282Y009490D01*
X037282Y009699D01*
X037334Y009751D01*
X037439Y009751D01*
X037491Y009699D01*
X036996Y009463D02*
X036787Y009253D01*
X036839Y009201D01*
X036944Y009201D01*
X036996Y009253D01*
X036996Y009463D01*
X036944Y009515D01*
X036839Y009515D01*
X036787Y009463D01*
X036787Y009253D01*
X036633Y009201D02*
X036424Y009201D01*
X036529Y009201D02*
X036529Y009515D01*
X036424Y009410D01*
X036271Y009358D02*
X036219Y009306D01*
X036062Y009306D01*
X036166Y009306D02*
X036271Y009201D01*
X036271Y009358D02*
X036271Y009463D01*
X036219Y009515D01*
X036062Y009515D01*
X036062Y009201D01*
X036062Y009910D02*
X036062Y010224D01*
X036219Y010224D01*
X036271Y010171D01*
X036271Y010067D01*
X036219Y010014D01*
X036062Y010014D01*
X036166Y010014D02*
X036271Y009910D01*
X036424Y009962D02*
X036476Y009910D01*
X036581Y009910D01*
X036633Y009962D01*
X036633Y010171D01*
X036581Y010224D01*
X036476Y010224D01*
X036424Y010171D01*
X036424Y010119D01*
X036476Y010067D01*
X036633Y010067D01*
X036633Y010579D02*
X036424Y010579D01*
X036529Y010579D02*
X036529Y010893D01*
X036424Y010788D01*
X036271Y010841D02*
X036271Y010631D01*
X036219Y010579D01*
X036114Y010579D01*
X036062Y010631D01*
X036062Y010841D01*
X036114Y010893D01*
X036219Y010893D01*
X036271Y010841D01*
X036166Y010684D02*
X036271Y010579D01*
X036271Y011091D02*
X036166Y011195D01*
X036219Y011195D02*
X036062Y011195D01*
X036062Y011091D02*
X036062Y011405D01*
X036219Y011405D01*
X036271Y011352D01*
X036271Y011248D01*
X036219Y011195D01*
X036424Y011195D02*
X036476Y011248D01*
X036581Y011248D01*
X036633Y011195D01*
X036633Y011143D01*
X036581Y011091D01*
X036476Y011091D01*
X036424Y011143D01*
X036424Y011195D01*
X036476Y011248D02*
X036424Y011300D01*
X036424Y011352D01*
X036476Y011405D01*
X036581Y011405D01*
X036633Y011352D01*
X036633Y011300D01*
X036581Y011248D01*
X036336Y011957D02*
X036022Y011957D01*
X036022Y012114D01*
X036074Y012166D01*
X036179Y012166D01*
X036231Y012114D01*
X036231Y011957D01*
X036231Y012062D02*
X036336Y012166D01*
X036336Y012319D02*
X036284Y012319D01*
X036074Y012529D01*
X036022Y012529D01*
X036022Y012319D01*
X036652Y012482D02*
X036652Y012691D01*
X036704Y012743D01*
X036809Y012743D01*
X036861Y012691D01*
X037015Y012691D02*
X037015Y012639D01*
X037067Y012586D01*
X037172Y012586D01*
X037224Y012534D01*
X037224Y012482D01*
X037172Y012429D01*
X037067Y012429D01*
X037015Y012482D01*
X037015Y012534D01*
X037067Y012586D01*
X037172Y012586D02*
X037224Y012639D01*
X037224Y012691D01*
X037172Y012743D01*
X037067Y012743D01*
X037015Y012691D01*
X036861Y012482D02*
X036809Y012429D01*
X036704Y012429D01*
X036652Y012482D01*
X036581Y012981D02*
X036633Y013033D01*
X036633Y013085D01*
X036581Y013138D01*
X036424Y013138D01*
X036424Y013033D01*
X036476Y012981D01*
X036581Y012981D01*
X036424Y013138D02*
X036529Y013242D01*
X036633Y013295D01*
X036271Y013242D02*
X036271Y013138D01*
X036219Y013085D01*
X036062Y013085D01*
X036166Y013085D02*
X036271Y012981D01*
X036062Y012981D02*
X036062Y013295D01*
X036219Y013295D01*
X036271Y013242D01*
X036271Y013925D02*
X036166Y014030D01*
X036219Y014030D02*
X036062Y014030D01*
X036062Y013925D02*
X036062Y014239D01*
X036219Y014239D01*
X036271Y014187D01*
X036271Y014082D01*
X036219Y014030D01*
X036424Y013978D02*
X036476Y013925D01*
X036581Y013925D01*
X036633Y013978D01*
X036633Y014082D01*
X036581Y014135D01*
X036529Y014135D01*
X036424Y014082D01*
X036424Y014239D01*
X036633Y014239D01*
X036625Y014437D02*
X036521Y014542D01*
X036573Y014542D02*
X036416Y014542D01*
X036416Y014437D02*
X036416Y014751D01*
X036573Y014751D01*
X036625Y014699D01*
X036625Y014594D01*
X036573Y014542D01*
X036778Y014437D02*
X036988Y014647D01*
X036988Y014699D01*
X036935Y014751D01*
X036831Y014751D01*
X036778Y014699D01*
X036778Y014910D02*
X036988Y014910D01*
X036883Y014910D02*
X036883Y015224D01*
X036778Y015119D01*
X036625Y015171D02*
X036625Y015067D01*
X036573Y015014D01*
X036416Y015014D01*
X036416Y014910D02*
X036416Y015224D01*
X036573Y015224D01*
X036625Y015171D01*
X036521Y015014D02*
X036625Y014910D01*
X036778Y014437D02*
X036988Y014437D01*
X036888Y016366D02*
X036940Y016419D01*
X036888Y016366D02*
X036783Y016366D01*
X036731Y016419D01*
X036731Y016628D01*
X036783Y016680D01*
X036888Y016680D01*
X036940Y016628D01*
X037093Y016523D02*
X037303Y016523D01*
X037250Y016366D02*
X037250Y016680D01*
X037093Y016523D01*
X039762Y018545D02*
X039762Y018754D01*
X039815Y018806D01*
X039919Y018806D01*
X039972Y018754D01*
X040125Y018702D02*
X040230Y018806D01*
X040230Y018492D01*
X040334Y018492D02*
X040125Y018492D01*
X039972Y018545D02*
X039919Y018492D01*
X039815Y018492D01*
X039762Y018545D01*
X032387Y029122D02*
X032178Y029122D01*
X031988Y031012D02*
X031778Y031012D01*
X031883Y031012D02*
X031883Y031326D01*
X031778Y031221D01*
X031625Y031274D02*
X031573Y031326D01*
X031468Y031326D01*
X031416Y031274D01*
X031416Y031064D01*
X031468Y031012D01*
X031573Y031012D01*
X031625Y031064D01*
X029237Y030919D02*
X029237Y030867D01*
X029185Y030815D01*
X029237Y030762D01*
X029237Y030710D01*
X029185Y030658D01*
X029080Y030658D01*
X029028Y030710D01*
X029133Y030815D02*
X029185Y030815D01*
X029237Y030919D02*
X029185Y030972D01*
X029080Y030972D01*
X029028Y030919D01*
X028875Y030919D02*
X028822Y030972D01*
X028718Y030972D01*
X028665Y030919D01*
X028665Y030710D01*
X028718Y030658D01*
X028822Y030658D01*
X028875Y030710D01*
X028528Y030658D02*
X028424Y030658D01*
X028476Y030658D02*
X028476Y030972D01*
X028424Y030972D02*
X028528Y030972D01*
X028248Y031104D02*
X028248Y031208D01*
X028195Y031261D01*
X028143Y031261D01*
X028038Y031208D01*
X028038Y031365D01*
X028248Y031365D01*
X028248Y031104D02*
X028195Y031051D01*
X028091Y031051D01*
X028038Y031104D01*
X027885Y031104D02*
X027833Y031051D01*
X027728Y031051D01*
X027676Y031104D01*
X027676Y031313D01*
X027728Y031365D01*
X027833Y031365D01*
X027885Y031313D01*
X024040Y029384D02*
X023988Y029436D01*
X023883Y029436D01*
X023831Y029384D01*
X023678Y029384D02*
X023626Y029436D01*
X023521Y029436D01*
X023469Y029384D01*
X023469Y029175D01*
X023521Y029122D01*
X023626Y029122D01*
X023678Y029175D01*
X023831Y029122D02*
X024040Y029332D01*
X024040Y029384D01*
X024040Y029122D02*
X023831Y029122D01*
X023825Y028728D02*
X023668Y028571D01*
X023878Y028571D01*
X023825Y028414D02*
X023825Y028728D01*
X023515Y028675D02*
X023515Y028571D01*
X023463Y028518D01*
X023306Y028518D01*
X023410Y028518D02*
X023515Y028414D01*
X023306Y028414D02*
X023306Y028728D01*
X023463Y028728D01*
X023515Y028675D01*
X023332Y029122D02*
X023227Y029122D01*
X023279Y029122D02*
X023279Y029436D01*
X023227Y029436D02*
X023332Y029436D01*
X022991Y029476D02*
X022991Y029162D01*
X022886Y029162D02*
X023096Y029162D01*
X022886Y029371D02*
X022991Y029476D01*
X022733Y029423D02*
X022681Y029476D01*
X022576Y029476D01*
X022524Y029423D01*
X022524Y029214D01*
X022576Y029162D01*
X022681Y029162D01*
X022733Y029214D01*
X022387Y029162D02*
X022282Y029162D01*
X022334Y029162D02*
X022334Y029476D01*
X022282Y029476D02*
X022387Y029476D01*
X022005Y029726D02*
X021953Y029673D01*
X021744Y029673D01*
X021691Y029726D01*
X021691Y029830D01*
X021744Y029883D01*
X021691Y030036D02*
X021691Y030245D01*
X021744Y030245D01*
X021953Y030036D01*
X022005Y030036D01*
X021953Y029883D02*
X022005Y029830D01*
X022005Y029726D01*
X021493Y029726D02*
X021493Y029830D01*
X021441Y029883D01*
X021441Y030036D02*
X021493Y030088D01*
X021493Y030193D01*
X021441Y030245D01*
X021389Y030245D01*
X021336Y030193D01*
X021336Y030141D01*
X021336Y030193D02*
X021284Y030245D01*
X021232Y030245D01*
X021179Y030193D01*
X021179Y030088D01*
X021232Y030036D01*
X021232Y029883D02*
X021179Y029830D01*
X021179Y029726D01*
X021232Y029673D01*
X021441Y029673D01*
X021493Y029726D01*
X020557Y029200D02*
X020400Y029043D01*
X020610Y029043D01*
X020557Y028886D02*
X020557Y029200D01*
X020247Y029148D02*
X020195Y029200D01*
X020090Y029200D01*
X020038Y029148D01*
X020038Y028938D01*
X020090Y028886D01*
X020195Y028886D01*
X020247Y028938D01*
X020190Y027743D02*
X020190Y027429D01*
X020086Y027429D02*
X020295Y027429D01*
X020242Y027271D02*
X020138Y027271D01*
X020086Y027219D01*
X019932Y027219D02*
X019932Y027114D01*
X019880Y027062D01*
X019723Y027062D01*
X019828Y027062D02*
X019932Y026957D01*
X020086Y026957D02*
X020295Y027166D01*
X020295Y027219D01*
X020242Y027271D01*
X019932Y027219D02*
X019880Y027271D01*
X019723Y027271D01*
X019723Y026957D01*
X019731Y026759D02*
X019731Y026602D01*
X019836Y026654D01*
X019888Y026654D01*
X019940Y026602D01*
X019940Y026497D01*
X019888Y026445D01*
X019784Y026445D01*
X019731Y026497D01*
X019578Y026445D02*
X019473Y026550D01*
X019526Y026550D02*
X019369Y026550D01*
X019369Y026445D02*
X019369Y026759D01*
X019526Y026759D01*
X019578Y026707D01*
X019578Y026602D01*
X019526Y026550D01*
X019731Y026759D02*
X019940Y026759D01*
X020086Y026957D02*
X020295Y026957D01*
X019932Y027429D02*
X019828Y027534D01*
X019880Y027534D02*
X019723Y027534D01*
X019723Y027429D02*
X019723Y027743D01*
X019880Y027743D01*
X019932Y027691D01*
X019932Y027586D01*
X019880Y027534D01*
X020086Y027639D02*
X020190Y027743D01*
X019940Y025814D02*
X019836Y025762D01*
X019731Y025657D01*
X019888Y025657D01*
X019940Y025605D01*
X019940Y025553D01*
X019888Y025500D01*
X019784Y025500D01*
X019731Y025553D01*
X019731Y025657D01*
X019578Y025657D02*
X019526Y025605D01*
X019369Y025605D01*
X019473Y025605D02*
X019578Y025500D01*
X019578Y025657D02*
X019578Y025762D01*
X019526Y025814D01*
X019369Y025814D01*
X019369Y025500D01*
X019959Y025211D02*
X019959Y025001D01*
X020012Y024949D01*
X020116Y024949D01*
X020169Y025001D01*
X020322Y025001D02*
X020322Y025054D01*
X020374Y025106D01*
X020479Y025106D01*
X020531Y025054D01*
X020531Y025001D01*
X020479Y024949D01*
X020374Y024949D01*
X020322Y025001D01*
X020374Y025106D02*
X020322Y025158D01*
X020322Y025211D01*
X020374Y025263D01*
X020479Y025263D01*
X020531Y025211D01*
X020531Y025158D01*
X020479Y025106D01*
X020169Y025211D02*
X020116Y025263D01*
X020012Y025263D01*
X019959Y025211D01*
X019643Y024839D02*
X019591Y024839D01*
X019381Y025048D01*
X019329Y025048D01*
X019329Y024839D01*
X019381Y024686D02*
X019486Y024686D01*
X019538Y024634D01*
X019538Y024477D01*
X019538Y024581D02*
X019643Y024686D01*
X019643Y024477D02*
X019329Y024477D01*
X019329Y024634D01*
X019381Y024686D01*
X019369Y023924D02*
X019526Y023924D01*
X019578Y023872D01*
X019578Y023767D01*
X019526Y023715D01*
X019369Y023715D01*
X019473Y023715D02*
X019578Y023610D01*
X019731Y023663D02*
X019731Y023715D01*
X019784Y023767D01*
X019888Y023767D01*
X019940Y023715D01*
X019940Y023663D01*
X019888Y023610D01*
X019784Y023610D01*
X019731Y023663D01*
X019784Y023767D02*
X019731Y023820D01*
X019731Y023872D01*
X019784Y023924D01*
X019888Y023924D01*
X019940Y023872D01*
X019940Y023820D01*
X019888Y023767D01*
X019836Y023413D02*
X019836Y023099D01*
X019940Y023099D02*
X019731Y023099D01*
X019578Y023099D02*
X019473Y023203D01*
X019369Y023151D02*
X019369Y023360D01*
X019421Y023413D01*
X019526Y023413D01*
X019578Y023360D01*
X019578Y023151D01*
X019526Y023099D01*
X019421Y023099D01*
X019369Y023151D01*
X019731Y023308D02*
X019836Y023413D01*
X019369Y023610D02*
X019369Y023924D01*
X019369Y022743D02*
X019526Y022743D01*
X019578Y022691D01*
X019578Y022586D01*
X019526Y022534D01*
X019369Y022534D01*
X019473Y022534D02*
X019578Y022429D01*
X019731Y022482D02*
X019784Y022429D01*
X019888Y022429D01*
X019940Y022482D01*
X019940Y022691D01*
X019888Y022743D01*
X019784Y022743D01*
X019731Y022691D01*
X019731Y022639D01*
X019784Y022586D01*
X019940Y022586D01*
X019836Y022035D02*
X019836Y021721D01*
X019940Y021721D02*
X019731Y021721D01*
X019578Y021721D02*
X019473Y021825D01*
X019526Y021825D02*
X019369Y021825D01*
X019369Y021721D02*
X019369Y022035D01*
X019526Y022035D01*
X019578Y021982D01*
X019578Y021878D01*
X019526Y021825D01*
X019731Y021930D02*
X019836Y022035D01*
X020094Y021982D02*
X020146Y022035D01*
X020251Y022035D01*
X020303Y021982D01*
X020094Y021773D01*
X020146Y021721D01*
X020251Y021721D01*
X020303Y021773D01*
X020303Y021982D01*
X020094Y021982D02*
X020094Y021773D01*
X020589Y022009D02*
X020641Y021957D01*
X020746Y021957D01*
X020798Y022009D01*
X020952Y022009D02*
X021004Y021957D01*
X021109Y021957D01*
X021161Y022009D01*
X021161Y022219D01*
X021109Y022271D01*
X021004Y022271D01*
X020952Y022219D01*
X020952Y022166D01*
X021004Y022114D01*
X021161Y022114D01*
X020798Y022219D02*
X020746Y022271D01*
X020641Y022271D01*
X020589Y022219D01*
X020589Y022009D01*
X019369Y022429D02*
X019369Y022743D01*
X021416Y023072D02*
X021468Y023020D01*
X021677Y023020D01*
X021730Y023072D01*
X021730Y023177D01*
X021677Y023229D01*
X021730Y023382D02*
X021520Y023592D01*
X021468Y023592D01*
X021416Y023539D01*
X021416Y023435D01*
X021468Y023382D01*
X021468Y023229D02*
X021416Y023177D01*
X021416Y023072D01*
X021730Y023382D02*
X021730Y023592D01*
X022282Y023592D02*
X022334Y023487D01*
X022439Y023382D01*
X022439Y023539D01*
X022491Y023592D01*
X022543Y023592D01*
X022596Y023539D01*
X022596Y023435D01*
X022543Y023382D01*
X022439Y023382D01*
X022543Y023229D02*
X022596Y023177D01*
X022596Y023072D01*
X022543Y023020D01*
X022334Y023020D01*
X022282Y023072D01*
X022282Y023177D01*
X022334Y023229D01*
X022374Y022665D02*
X022321Y022612D01*
X022321Y022403D01*
X022374Y022351D01*
X022478Y022351D01*
X022531Y022403D01*
X022531Y022508D01*
X022426Y022508D01*
X022531Y022612D02*
X022478Y022665D01*
X022374Y022665D01*
X022684Y022665D02*
X022893Y022351D01*
X022893Y022665D01*
X023046Y022665D02*
X023046Y022351D01*
X023203Y022351D01*
X023256Y022403D01*
X023256Y022612D01*
X023203Y022665D01*
X023046Y022665D01*
X022684Y022665D02*
X022684Y022351D01*
X023382Y025381D02*
X023382Y026348D01*
X023542Y026183D02*
X023594Y026235D01*
X023699Y026235D01*
X023751Y026183D01*
X023751Y026026D01*
X023856Y026026D02*
X023542Y026026D01*
X023542Y026183D01*
X023594Y025872D02*
X023542Y025820D01*
X023542Y025715D01*
X023594Y025663D01*
X023646Y025663D01*
X023699Y025715D01*
X023699Y025820D01*
X023751Y025872D01*
X023803Y025872D01*
X023856Y025820D01*
X023856Y025715D01*
X023803Y025663D01*
X023856Y025526D02*
X023856Y025421D01*
X023856Y025474D02*
X023542Y025474D01*
X023542Y025526D02*
X023542Y025421D01*
X024012Y025381D02*
X024012Y026469D01*
X024172Y026356D02*
X024172Y026147D01*
X024172Y026251D02*
X024486Y026251D01*
X024433Y025993D02*
X024486Y025941D01*
X024486Y025836D01*
X024433Y025784D01*
X024329Y025836D02*
X024329Y025941D01*
X024381Y025993D01*
X024433Y025993D01*
X024329Y025836D02*
X024276Y025784D01*
X024224Y025784D01*
X024172Y025836D01*
X024172Y025941D01*
X024224Y025993D01*
X024224Y025631D02*
X024329Y025631D01*
X024381Y025578D01*
X024381Y025421D01*
X024486Y025421D02*
X024172Y025421D01*
X024172Y025578D01*
X024224Y025631D01*
X024381Y025526D02*
X024486Y025631D01*
X023996Y027193D02*
X023786Y027193D01*
X023891Y027193D02*
X023891Y027507D01*
X023786Y027402D01*
X023633Y027507D02*
X023633Y027245D01*
X023581Y027193D01*
X023476Y027193D01*
X023424Y027245D01*
X023424Y027507D01*
X023581Y027784D02*
X023581Y028098D01*
X023738Y028098D01*
X023791Y028045D01*
X023791Y027941D01*
X023738Y027888D01*
X023581Y027888D01*
X023686Y027888D02*
X023791Y027784D01*
X023944Y027836D02*
X023996Y027784D01*
X024101Y027784D01*
X024153Y027836D01*
X024153Y027888D01*
X024101Y027941D01*
X024048Y027941D01*
X024101Y027941D02*
X024153Y027993D01*
X024153Y028045D01*
X024101Y028098D01*
X023996Y028098D01*
X023944Y028045D01*
X020891Y030710D02*
X020839Y030658D01*
X020734Y030658D01*
X020682Y030710D01*
X020786Y030815D02*
X020839Y030815D01*
X020891Y030762D01*
X020891Y030710D01*
X020839Y030815D02*
X020891Y030867D01*
X020891Y030919D01*
X020839Y030972D01*
X020734Y030972D01*
X020682Y030919D01*
X020528Y030919D02*
X020476Y030972D01*
X020371Y030972D01*
X020319Y030919D01*
X020319Y030710D01*
X020371Y030658D01*
X020476Y030658D01*
X020528Y030710D01*
X020182Y030658D02*
X020077Y030658D01*
X020130Y030658D02*
X020130Y030972D01*
X020182Y030972D02*
X020077Y030972D01*
X019901Y031104D02*
X019849Y031051D01*
X019744Y031051D01*
X019692Y031104D01*
X019692Y031208D02*
X019796Y031261D01*
X019849Y031261D01*
X019901Y031208D01*
X019901Y031104D01*
X019692Y031208D02*
X019692Y031365D01*
X019901Y031365D01*
X019539Y031313D02*
X019486Y031365D01*
X019382Y031365D01*
X019329Y031313D01*
X019329Y031104D01*
X019382Y031051D01*
X019486Y031051D01*
X019539Y031104D01*
X023069Y031064D02*
X023122Y031012D01*
X023226Y031012D01*
X023279Y031064D01*
X023432Y031012D02*
X023641Y031012D01*
X023537Y031012D02*
X023537Y031326D01*
X023432Y031221D01*
X023279Y031274D02*
X023226Y031326D01*
X023122Y031326D01*
X023069Y031274D01*
X023069Y031064D01*
X016139Y026251D02*
X015825Y026251D01*
X015825Y026147D02*
X015825Y026356D01*
X015665Y026469D02*
X015665Y025381D01*
X015509Y025421D02*
X015509Y025526D01*
X015509Y025474D02*
X015195Y025474D01*
X015195Y025526D02*
X015195Y025421D01*
X015035Y025381D02*
X015035Y026348D01*
X015195Y026183D02*
X015248Y026235D01*
X015352Y026235D01*
X015404Y026183D01*
X015404Y026026D01*
X015509Y026026D02*
X015195Y026026D01*
X015195Y026183D01*
X015248Y025872D02*
X015195Y025820D01*
X015195Y025715D01*
X015248Y025663D01*
X015300Y025663D01*
X015352Y025715D01*
X015352Y025820D01*
X015404Y025872D01*
X015457Y025872D01*
X015509Y025820D01*
X015509Y025715D01*
X015457Y025663D01*
X015825Y025578D02*
X015877Y025631D01*
X015982Y025631D01*
X016034Y025578D01*
X016034Y025421D01*
X016139Y025421D02*
X015825Y025421D01*
X015825Y025578D01*
X015877Y025784D02*
X015930Y025784D01*
X015982Y025836D01*
X015982Y025941D01*
X016034Y025993D01*
X016087Y025993D01*
X016139Y025941D01*
X016139Y025836D01*
X016087Y025784D01*
X016139Y025631D02*
X016034Y025526D01*
X015877Y025784D02*
X015825Y025836D01*
X015825Y025941D01*
X015877Y025993D01*
X015649Y027193D02*
X015440Y027193D01*
X015545Y027193D02*
X015545Y027507D01*
X015440Y027402D01*
X015287Y027507D02*
X015287Y027245D01*
X015234Y027193D01*
X015130Y027193D01*
X015077Y027245D01*
X015077Y027507D01*
X015235Y027784D02*
X015235Y028098D01*
X015392Y028098D01*
X015444Y028045D01*
X015444Y027941D01*
X015392Y027888D01*
X015235Y027888D01*
X015339Y027888D02*
X015444Y027784D01*
X015597Y027836D02*
X015650Y027784D01*
X015754Y027784D01*
X015807Y027836D01*
X015807Y027888D01*
X015754Y027941D01*
X015702Y027941D01*
X015754Y027941D02*
X015807Y027993D01*
X015807Y028045D01*
X015754Y028098D01*
X015650Y028098D01*
X015597Y028045D01*
X015479Y028414D02*
X015479Y028728D01*
X015322Y028571D01*
X015531Y028571D01*
X015169Y028571D02*
X015116Y028518D01*
X014959Y028518D01*
X014959Y028414D02*
X014959Y028728D01*
X015116Y028728D01*
X015169Y028675D01*
X015169Y028571D01*
X015064Y028518D02*
X015169Y028414D01*
X015174Y029122D02*
X015279Y029122D01*
X015331Y029175D01*
X015485Y029122D02*
X015694Y029332D01*
X015694Y029384D01*
X015642Y029436D01*
X015537Y029436D01*
X015485Y029384D01*
X015331Y029384D02*
X015279Y029436D01*
X015174Y029436D01*
X015122Y029384D01*
X015122Y029175D01*
X015174Y029122D01*
X014985Y029122D02*
X014880Y029122D01*
X014933Y029122D02*
X014933Y029436D01*
X014985Y029436D02*
X014880Y029436D01*
X014644Y029476D02*
X014644Y029162D01*
X014540Y029162D02*
X014749Y029162D01*
X014540Y029371D02*
X014644Y029476D01*
X014387Y029423D02*
X014334Y029476D01*
X014230Y029476D01*
X014177Y029423D01*
X014177Y029214D01*
X014230Y029162D01*
X014334Y029162D01*
X014387Y029214D01*
X014040Y029162D02*
X013936Y029162D01*
X013988Y029162D02*
X013988Y029476D01*
X013936Y029476D02*
X014040Y029476D01*
X013659Y029726D02*
X013659Y029830D01*
X013606Y029883D01*
X013606Y030036D02*
X013397Y030245D01*
X013345Y030245D01*
X013345Y030036D01*
X013397Y029883D02*
X013345Y029830D01*
X013345Y029726D01*
X013397Y029673D01*
X013606Y029673D01*
X013659Y029726D01*
X013659Y030036D02*
X013606Y030036D01*
X013147Y030088D02*
X013095Y030036D01*
X013147Y030088D02*
X013147Y030193D01*
X013095Y030245D01*
X013042Y030245D01*
X012990Y030193D01*
X012990Y030141D01*
X012990Y030193D02*
X012938Y030245D01*
X012885Y030245D01*
X012833Y030193D01*
X012833Y030088D01*
X012885Y030036D01*
X012885Y029883D02*
X012833Y029830D01*
X012833Y029726D01*
X012885Y029673D01*
X013095Y029673D01*
X013147Y029726D01*
X013147Y029830D01*
X013095Y029883D01*
X012492Y030658D02*
X012387Y030658D01*
X012335Y030710D01*
X012440Y030815D02*
X012492Y030815D01*
X012544Y030762D01*
X012544Y030710D01*
X012492Y030658D01*
X012492Y030815D02*
X012544Y030867D01*
X012544Y030919D01*
X012492Y030972D01*
X012387Y030972D01*
X012335Y030919D01*
X012182Y030919D02*
X012130Y030972D01*
X012025Y030972D01*
X011973Y030919D01*
X011973Y030710D01*
X012025Y030658D01*
X012130Y030658D01*
X012182Y030710D01*
X011836Y030658D02*
X011731Y030658D01*
X011783Y030658D02*
X011783Y030972D01*
X011731Y030972D02*
X011836Y030972D01*
X011555Y031104D02*
X011555Y031208D01*
X011502Y031261D01*
X011450Y031261D01*
X011345Y031208D01*
X011345Y031365D01*
X011555Y031365D01*
X011555Y031104D02*
X011502Y031051D01*
X011398Y031051D01*
X011345Y031104D01*
X011192Y031104D02*
X011140Y031051D01*
X011035Y031051D01*
X010983Y031104D01*
X010983Y031313D01*
X011035Y031365D01*
X011140Y031365D01*
X011192Y031313D01*
X011744Y029200D02*
X011692Y029148D01*
X011692Y028938D01*
X011744Y028886D01*
X011848Y028886D01*
X011901Y028938D01*
X012054Y029043D02*
X012263Y029043D01*
X012211Y028886D02*
X012211Y029200D01*
X012054Y029043D01*
X011901Y029148D02*
X011848Y029200D01*
X011744Y029200D01*
X011844Y027743D02*
X011844Y027429D01*
X011948Y027429D02*
X011739Y027429D01*
X011586Y027429D02*
X011481Y027534D01*
X011534Y027534D02*
X011377Y027534D01*
X011377Y027429D02*
X011377Y027743D01*
X011534Y027743D01*
X011586Y027691D01*
X011586Y027586D01*
X011534Y027534D01*
X011739Y027639D02*
X011844Y027743D01*
X011896Y027271D02*
X011791Y027271D01*
X011739Y027219D01*
X011586Y027219D02*
X011586Y027114D01*
X011534Y027062D01*
X011377Y027062D01*
X011481Y027062D02*
X011586Y026957D01*
X011739Y026957D02*
X011948Y027166D01*
X011948Y027219D01*
X011896Y027271D01*
X011586Y027219D02*
X011534Y027271D01*
X011377Y027271D01*
X011377Y026957D01*
X011385Y026759D02*
X011385Y026602D01*
X011489Y026654D01*
X011542Y026654D01*
X011594Y026602D01*
X011594Y026497D01*
X011542Y026445D01*
X011437Y026445D01*
X011385Y026497D01*
X011232Y026445D02*
X011127Y026550D01*
X011179Y026550D02*
X011022Y026550D01*
X011022Y026445D02*
X011022Y026759D01*
X011179Y026759D01*
X011232Y026707D01*
X011232Y026602D01*
X011179Y026550D01*
X011385Y026759D02*
X011594Y026759D01*
X011739Y026957D02*
X011948Y026957D01*
X011594Y025814D02*
X011489Y025762D01*
X011385Y025657D01*
X011542Y025657D01*
X011594Y025605D01*
X011594Y025553D01*
X011542Y025500D01*
X011437Y025500D01*
X011385Y025553D01*
X011385Y025657D01*
X011232Y025657D02*
X011179Y025605D01*
X011022Y025605D01*
X011022Y025500D02*
X011022Y025814D01*
X011179Y025814D01*
X011232Y025762D01*
X011232Y025657D01*
X011127Y025605D02*
X011232Y025500D01*
X011613Y025211D02*
X011613Y025001D01*
X011665Y024949D01*
X011770Y024949D01*
X011822Y025001D01*
X011975Y025001D02*
X011975Y025054D01*
X012028Y025106D01*
X012132Y025106D01*
X012185Y025054D01*
X012185Y025001D01*
X012132Y024949D01*
X012028Y024949D01*
X011975Y025001D01*
X012028Y025106D02*
X011975Y025158D01*
X011975Y025211D01*
X012028Y025263D01*
X012132Y025263D01*
X012185Y025211D01*
X012185Y025158D01*
X012132Y025106D01*
X011822Y025211D02*
X011770Y025263D01*
X011665Y025263D01*
X011613Y025211D01*
X011297Y024839D02*
X011244Y024839D01*
X011035Y025048D01*
X010983Y025048D01*
X010983Y024839D01*
X011035Y024686D02*
X011140Y024686D01*
X011192Y024634D01*
X011192Y024477D01*
X011192Y024581D02*
X011297Y024686D01*
X011297Y024477D02*
X010983Y024477D01*
X010983Y024634D01*
X011035Y024686D01*
X011022Y023924D02*
X011179Y023924D01*
X011232Y023872D01*
X011232Y023767D01*
X011179Y023715D01*
X011022Y023715D01*
X011022Y023610D02*
X011022Y023924D01*
X011127Y023715D02*
X011232Y023610D01*
X011385Y023663D02*
X011385Y023715D01*
X011437Y023767D01*
X011542Y023767D01*
X011594Y023715D01*
X011594Y023663D01*
X011542Y023610D01*
X011437Y023610D01*
X011385Y023663D01*
X011437Y023767D02*
X011385Y023820D01*
X011385Y023872D01*
X011437Y023924D01*
X011542Y023924D01*
X011594Y023872D01*
X011594Y023820D01*
X011542Y023767D01*
X011489Y023413D02*
X011489Y023099D01*
X011385Y023099D02*
X011594Y023099D01*
X011385Y023308D02*
X011489Y023413D01*
X011232Y023360D02*
X011232Y023151D01*
X011179Y023099D01*
X011075Y023099D01*
X011022Y023151D01*
X011022Y023360D01*
X011075Y023413D01*
X011179Y023413D01*
X011232Y023360D01*
X011127Y023203D02*
X011232Y023099D01*
X011179Y022743D02*
X011232Y022691D01*
X011232Y022586D01*
X011179Y022534D01*
X011022Y022534D01*
X011022Y022429D02*
X011022Y022743D01*
X011179Y022743D01*
X011385Y022691D02*
X011385Y022639D01*
X011437Y022586D01*
X011594Y022586D01*
X011594Y022482D02*
X011594Y022691D01*
X011542Y022743D01*
X011437Y022743D01*
X011385Y022691D01*
X011385Y022482D02*
X011437Y022429D01*
X011542Y022429D01*
X011594Y022482D01*
X011232Y022429D02*
X011127Y022534D01*
X011179Y022035D02*
X011232Y021982D01*
X011232Y021878D01*
X011179Y021825D01*
X011022Y021825D01*
X011022Y021721D02*
X011022Y022035D01*
X011179Y022035D01*
X011127Y021825D02*
X011232Y021721D01*
X011385Y021721D02*
X011594Y021721D01*
X011489Y021721D02*
X011489Y022035D01*
X011385Y021930D01*
X011747Y021982D02*
X011800Y022035D01*
X011904Y022035D01*
X011957Y021982D01*
X011747Y021773D01*
X011800Y021721D01*
X011904Y021721D01*
X011957Y021773D01*
X011957Y021982D01*
X011747Y021982D02*
X011747Y021773D01*
X012243Y022009D02*
X012243Y022219D01*
X012295Y022271D01*
X012400Y022271D01*
X012452Y022219D01*
X012605Y022219D02*
X012605Y022166D01*
X012658Y022114D01*
X012815Y022114D01*
X012815Y022219D02*
X012762Y022271D01*
X012658Y022271D01*
X012605Y022219D01*
X012815Y022219D02*
X012815Y022009D01*
X012762Y021957D01*
X012658Y021957D01*
X012605Y022009D01*
X012452Y022009D02*
X012400Y021957D01*
X012295Y021957D01*
X012243Y022009D01*
X013122Y023020D02*
X013069Y023072D01*
X013069Y023177D01*
X013122Y023229D01*
X013122Y023382D02*
X013069Y023435D01*
X013069Y023539D01*
X013122Y023592D01*
X013174Y023592D01*
X013383Y023382D01*
X013383Y023592D01*
X013331Y023229D02*
X013383Y023177D01*
X013383Y023072D01*
X013331Y023020D01*
X013122Y023020D01*
X013935Y023072D02*
X013935Y023177D01*
X013988Y023229D01*
X013935Y023072D02*
X013988Y023020D01*
X014197Y023020D01*
X014249Y023072D01*
X014249Y023177D01*
X014197Y023229D01*
X014197Y023382D02*
X014249Y023435D01*
X014249Y023539D01*
X014197Y023592D01*
X014145Y023592D01*
X014092Y023539D01*
X014092Y023382D01*
X014197Y023382D01*
X014092Y023382D02*
X013988Y023487D01*
X013935Y023592D01*
X014027Y022665D02*
X013975Y022612D01*
X013975Y022403D01*
X014027Y022351D01*
X014132Y022351D01*
X014184Y022403D01*
X014184Y022508D01*
X014080Y022508D01*
X014184Y022612D02*
X014132Y022665D01*
X014027Y022665D01*
X014337Y022665D02*
X014547Y022351D01*
X014547Y022665D01*
X014700Y022665D02*
X014857Y022665D01*
X014909Y022612D01*
X014909Y022403D01*
X014857Y022351D01*
X014700Y022351D01*
X014700Y022665D01*
X014337Y022665D02*
X014337Y022351D01*
X014775Y018806D02*
X014723Y018754D01*
X014723Y018545D01*
X014775Y018492D01*
X014880Y018492D01*
X014932Y018545D01*
X015086Y018492D02*
X015295Y018492D01*
X015190Y018492D02*
X015190Y018806D01*
X015086Y018702D01*
X014932Y018754D02*
X014880Y018806D01*
X014775Y018806D01*
X013659Y017516D02*
X013606Y017516D01*
X013397Y017726D01*
X013345Y017726D01*
X013345Y017516D01*
X013397Y017363D02*
X013345Y017311D01*
X013345Y017206D01*
X013397Y017154D01*
X013606Y017154D01*
X013659Y017206D01*
X013659Y017311D01*
X013606Y017363D01*
X013147Y017311D02*
X013095Y017363D01*
X013147Y017311D02*
X013147Y017206D01*
X013095Y017154D01*
X012885Y017154D01*
X012833Y017206D01*
X012833Y017311D01*
X012885Y017363D01*
X012885Y017516D02*
X012833Y017569D01*
X012833Y017673D01*
X012885Y017726D01*
X012938Y017726D01*
X012990Y017673D01*
X013042Y017726D01*
X013095Y017726D01*
X013147Y017673D01*
X013147Y017569D01*
X013095Y017516D01*
X012990Y017621D02*
X012990Y017673D01*
X012492Y018138D02*
X012387Y018138D01*
X012335Y018190D01*
X012440Y018295D02*
X012492Y018295D01*
X012544Y018243D01*
X012544Y018190D01*
X012492Y018138D01*
X012492Y018295D02*
X012544Y018347D01*
X012544Y018400D01*
X012492Y018452D01*
X012387Y018452D01*
X012335Y018400D01*
X012182Y018400D02*
X012130Y018452D01*
X012025Y018452D01*
X011973Y018400D01*
X011973Y018190D01*
X012025Y018138D01*
X012130Y018138D01*
X012182Y018190D01*
X011836Y018138D02*
X011731Y018138D01*
X011783Y018138D02*
X011783Y018452D01*
X011731Y018452D02*
X011836Y018452D01*
X011555Y018584D02*
X011555Y018689D01*
X011502Y018741D01*
X011450Y018741D01*
X011345Y018689D01*
X011345Y018846D01*
X011555Y018846D01*
X011555Y018584D02*
X011502Y018532D01*
X011398Y018532D01*
X011345Y018584D01*
X011192Y018584D02*
X011140Y018532D01*
X011035Y018532D01*
X010983Y018584D01*
X010983Y018793D01*
X011035Y018846D01*
X011140Y018846D01*
X011192Y018793D01*
X011744Y016680D02*
X011692Y016628D01*
X011692Y016419D01*
X011744Y016366D01*
X011848Y016366D01*
X011901Y016419D01*
X012054Y016523D02*
X012263Y016523D01*
X012211Y016366D02*
X012211Y016680D01*
X012054Y016523D01*
X011901Y016628D02*
X011848Y016680D01*
X011744Y016680D01*
X011844Y015224D02*
X011844Y014910D01*
X011948Y014910D02*
X011739Y014910D01*
X011586Y014910D02*
X011481Y015014D01*
X011534Y015014D02*
X011377Y015014D01*
X011377Y014910D02*
X011377Y015224D01*
X011534Y015224D01*
X011586Y015171D01*
X011586Y015067D01*
X011534Y015014D01*
X011739Y015119D02*
X011844Y015224D01*
X011896Y014751D02*
X011791Y014751D01*
X011739Y014699D01*
X011586Y014699D02*
X011586Y014594D01*
X011534Y014542D01*
X011377Y014542D01*
X011481Y014542D02*
X011586Y014437D01*
X011739Y014437D02*
X011948Y014647D01*
X011948Y014699D01*
X011896Y014751D01*
X011586Y014699D02*
X011534Y014751D01*
X011377Y014751D01*
X011377Y014437D01*
X011385Y014239D02*
X011385Y014082D01*
X011489Y014135D01*
X011542Y014135D01*
X011594Y014082D01*
X011594Y013978D01*
X011542Y013925D01*
X011437Y013925D01*
X011385Y013978D01*
X011232Y013925D02*
X011127Y014030D01*
X011179Y014030D02*
X011022Y014030D01*
X011022Y013925D02*
X011022Y014239D01*
X011179Y014239D01*
X011232Y014187D01*
X011232Y014082D01*
X011179Y014030D01*
X011385Y014239D02*
X011594Y014239D01*
X011739Y014437D02*
X011948Y014437D01*
X011594Y013295D02*
X011489Y013242D01*
X011385Y013138D01*
X011542Y013138D01*
X011594Y013085D01*
X011594Y013033D01*
X011542Y012981D01*
X011437Y012981D01*
X011385Y013033D01*
X011385Y013138D01*
X011232Y013138D02*
X011179Y013085D01*
X011022Y013085D01*
X011022Y012981D02*
X011022Y013295D01*
X011179Y013295D01*
X011232Y013242D01*
X011232Y013138D01*
X011127Y013085D02*
X011232Y012981D01*
X011613Y012691D02*
X011613Y012482D01*
X011665Y012429D01*
X011770Y012429D01*
X011822Y012482D01*
X011975Y012482D02*
X011975Y012534D01*
X012028Y012586D01*
X012132Y012586D01*
X012185Y012534D01*
X012185Y012482D01*
X012132Y012429D01*
X012028Y012429D01*
X011975Y012482D01*
X012028Y012586D02*
X011975Y012639D01*
X011975Y012691D01*
X012028Y012743D01*
X012132Y012743D01*
X012185Y012691D01*
X012185Y012639D01*
X012132Y012586D01*
X011822Y012691D02*
X011770Y012743D01*
X011665Y012743D01*
X011613Y012691D01*
X011297Y012319D02*
X011244Y012319D01*
X011035Y012529D01*
X010983Y012529D01*
X010983Y012319D01*
X011035Y012166D02*
X011140Y012166D01*
X011192Y012114D01*
X011192Y011957D01*
X011297Y011957D02*
X010983Y011957D01*
X010983Y012114D01*
X011035Y012166D01*
X011192Y012062D02*
X011297Y012166D01*
X011179Y011405D02*
X011232Y011352D01*
X011232Y011248D01*
X011179Y011195D01*
X011022Y011195D01*
X011022Y011091D02*
X011022Y011405D01*
X011179Y011405D01*
X011385Y011352D02*
X011385Y011300D01*
X011437Y011248D01*
X011542Y011248D01*
X011594Y011195D01*
X011594Y011143D01*
X011542Y011091D01*
X011437Y011091D01*
X011385Y011143D01*
X011385Y011195D01*
X011437Y011248D01*
X011542Y011248D02*
X011594Y011300D01*
X011594Y011352D01*
X011542Y011405D01*
X011437Y011405D01*
X011385Y011352D01*
X011127Y011195D02*
X011232Y011091D01*
X011179Y010893D02*
X011232Y010841D01*
X011232Y010631D01*
X011179Y010579D01*
X011075Y010579D01*
X011022Y010631D01*
X011022Y010841D01*
X011075Y010893D01*
X011179Y010893D01*
X011127Y010684D02*
X011232Y010579D01*
X011385Y010579D02*
X011594Y010579D01*
X011489Y010579D02*
X011489Y010893D01*
X011385Y010788D01*
X011437Y010224D02*
X011385Y010171D01*
X011385Y010119D01*
X011437Y010067D01*
X011594Y010067D01*
X011594Y010171D02*
X011542Y010224D01*
X011437Y010224D01*
X011594Y010171D02*
X011594Y009962D01*
X011542Y009910D01*
X011437Y009910D01*
X011385Y009962D01*
X011232Y009910D02*
X011127Y010014D01*
X011179Y010014D02*
X011022Y010014D01*
X011022Y009910D02*
X011022Y010224D01*
X011179Y010224D01*
X011232Y010171D01*
X011232Y010067D01*
X011179Y010014D01*
X011179Y009515D02*
X011232Y009463D01*
X011232Y009358D01*
X011179Y009306D01*
X011022Y009306D01*
X011127Y009306D02*
X011232Y009201D01*
X011385Y009201D02*
X011594Y009201D01*
X011489Y009201D02*
X011489Y009515D01*
X011385Y009410D01*
X011179Y009515D02*
X011022Y009515D01*
X011022Y009201D01*
X011747Y009253D02*
X011957Y009463D01*
X011957Y009253D01*
X011904Y009201D01*
X011800Y009201D01*
X011747Y009253D01*
X011747Y009463D01*
X011800Y009515D01*
X011904Y009515D01*
X011957Y009463D01*
X012243Y009490D02*
X012243Y009699D01*
X012295Y009751D01*
X012400Y009751D01*
X012452Y009699D01*
X012605Y009699D02*
X012605Y009647D01*
X012658Y009594D01*
X012815Y009594D01*
X012815Y009490D02*
X012815Y009699D01*
X012762Y009751D01*
X012658Y009751D01*
X012605Y009699D01*
X012605Y009490D02*
X012658Y009437D01*
X012762Y009437D01*
X012815Y009490D01*
X012452Y009490D02*
X012400Y009437D01*
X012295Y009437D01*
X012243Y009490D01*
X013122Y010500D02*
X013069Y010553D01*
X013069Y010657D01*
X013122Y010710D01*
X013122Y010863D02*
X013069Y010915D01*
X013069Y011020D01*
X013122Y011072D01*
X013174Y011072D01*
X013383Y010863D01*
X013383Y011072D01*
X013331Y010710D02*
X013383Y010657D01*
X013383Y010553D01*
X013331Y010500D01*
X013122Y010500D01*
X013935Y010553D02*
X013935Y010657D01*
X013988Y010710D01*
X013935Y010553D02*
X013988Y010500D01*
X014197Y010500D01*
X014249Y010553D01*
X014249Y010657D01*
X014197Y010710D01*
X014197Y010863D02*
X014249Y010915D01*
X014249Y011020D01*
X014197Y011072D01*
X014145Y011072D01*
X014092Y011020D01*
X014092Y010863D01*
X014197Y010863D01*
X014092Y010863D02*
X013988Y010967D01*
X013935Y011072D01*
X014027Y010145D02*
X013975Y010093D01*
X013975Y009883D01*
X014027Y009831D01*
X014132Y009831D01*
X014184Y009883D01*
X014184Y009988D01*
X014080Y009988D01*
X014184Y010093D02*
X014132Y010145D01*
X014027Y010145D01*
X014337Y010145D02*
X014547Y009831D01*
X014547Y010145D01*
X014700Y010145D02*
X014857Y010145D01*
X014909Y010093D01*
X014909Y009883D01*
X014857Y009831D01*
X014700Y009831D01*
X014700Y010145D01*
X014337Y010145D02*
X014337Y009831D01*
X015035Y012862D02*
X015035Y013829D01*
X015195Y013663D02*
X015248Y013715D01*
X015352Y013715D01*
X015404Y013663D01*
X015404Y013506D01*
X015509Y013506D02*
X015195Y013506D01*
X015195Y013663D01*
X015248Y013353D02*
X015195Y013300D01*
X015195Y013196D01*
X015248Y013143D01*
X015300Y013143D01*
X015352Y013196D01*
X015352Y013300D01*
X015404Y013353D01*
X015457Y013353D01*
X015509Y013300D01*
X015509Y013196D01*
X015457Y013143D01*
X015509Y013006D02*
X015509Y012902D01*
X015509Y012954D02*
X015195Y012954D01*
X015195Y012902D02*
X015195Y013006D01*
X015665Y012862D02*
X015665Y013949D01*
X015825Y013836D02*
X015825Y013627D01*
X015825Y013731D02*
X016139Y013731D01*
X016087Y013474D02*
X016139Y013421D01*
X016139Y013317D01*
X016087Y013264D01*
X015982Y013317D02*
X015930Y013264D01*
X015877Y013264D01*
X015825Y013317D01*
X015825Y013421D01*
X015877Y013474D01*
X015982Y013421D02*
X016034Y013474D01*
X016087Y013474D01*
X015982Y013421D02*
X015982Y013317D01*
X015982Y013111D02*
X015877Y013111D01*
X015825Y013059D01*
X015825Y012902D01*
X016139Y012902D01*
X016034Y012902D02*
X016034Y013059D01*
X015982Y013111D01*
X016034Y013006D02*
X016139Y013111D01*
X015649Y014673D02*
X015440Y014673D01*
X015545Y014673D02*
X015545Y014987D01*
X015440Y014883D01*
X015287Y014987D02*
X015287Y014726D01*
X015234Y014673D01*
X015130Y014673D01*
X015077Y014726D01*
X015077Y014987D01*
X015235Y015264D02*
X015235Y015578D01*
X015392Y015578D01*
X015444Y015526D01*
X015444Y015421D01*
X015392Y015369D01*
X015235Y015369D01*
X015339Y015369D02*
X015444Y015264D01*
X015597Y015316D02*
X015650Y015264D01*
X015754Y015264D01*
X015807Y015316D01*
X015807Y015369D01*
X015754Y015421D01*
X015702Y015421D01*
X015754Y015421D02*
X015807Y015473D01*
X015807Y015526D01*
X015754Y015578D01*
X015650Y015578D01*
X015597Y015526D01*
X015479Y015894D02*
X015479Y016208D01*
X015322Y016051D01*
X015531Y016051D01*
X015169Y016051D02*
X015116Y015999D01*
X014959Y015999D01*
X015064Y015999D02*
X015169Y015894D01*
X015169Y016051D02*
X015169Y016156D01*
X015116Y016208D01*
X014959Y016208D01*
X014959Y015894D01*
X014985Y016603D02*
X014880Y016603D01*
X014933Y016603D02*
X014933Y016917D01*
X014985Y016917D02*
X014880Y016917D01*
X014644Y016956D02*
X014644Y016642D01*
X014540Y016642D02*
X014749Y016642D01*
X014540Y016851D02*
X014644Y016956D01*
X014387Y016904D02*
X014334Y016956D01*
X014230Y016956D01*
X014177Y016904D01*
X014177Y016694D01*
X014230Y016642D01*
X014334Y016642D01*
X014387Y016694D01*
X014040Y016642D02*
X013936Y016642D01*
X013988Y016642D02*
X013988Y016956D01*
X013936Y016956D02*
X014040Y016956D01*
X015122Y016864D02*
X015122Y016655D01*
X015174Y016603D01*
X015279Y016603D01*
X015331Y016655D01*
X015485Y016603D02*
X015694Y016812D01*
X015694Y016864D01*
X015642Y016917D01*
X015537Y016917D01*
X015485Y016864D01*
X015331Y016864D02*
X015279Y016917D01*
X015174Y016917D01*
X015122Y016864D01*
X015485Y016603D02*
X015694Y016603D01*
X019329Y018584D02*
X019382Y018532D01*
X019486Y018532D01*
X019539Y018584D01*
X019692Y018584D02*
X019744Y018532D01*
X019849Y018532D01*
X019901Y018584D01*
X019901Y018689D01*
X019849Y018741D01*
X019796Y018741D01*
X019692Y018689D01*
X019692Y018846D01*
X019901Y018846D01*
X019539Y018793D02*
X019486Y018846D01*
X019382Y018846D01*
X019329Y018793D01*
X019329Y018584D01*
X020077Y018452D02*
X020182Y018452D01*
X020130Y018452D02*
X020130Y018138D01*
X020182Y018138D02*
X020077Y018138D01*
X020319Y018190D02*
X020319Y018400D01*
X020371Y018452D01*
X020476Y018452D01*
X020528Y018400D01*
X020682Y018400D02*
X020734Y018452D01*
X020839Y018452D01*
X020891Y018400D01*
X020891Y018347D01*
X020839Y018295D01*
X020891Y018243D01*
X020891Y018190D01*
X020839Y018138D01*
X020734Y018138D01*
X020682Y018190D01*
X020786Y018295D02*
X020839Y018295D01*
X020528Y018190D02*
X020476Y018138D01*
X020371Y018138D01*
X020319Y018190D01*
X021179Y017673D02*
X021232Y017726D01*
X021284Y017726D01*
X021336Y017673D01*
X021389Y017726D01*
X021441Y017726D01*
X021493Y017673D01*
X021493Y017569D01*
X021441Y017516D01*
X021336Y017621D02*
X021336Y017673D01*
X021179Y017673D02*
X021179Y017569D01*
X021232Y017516D01*
X021232Y017363D02*
X021179Y017311D01*
X021179Y017206D01*
X021232Y017154D01*
X021441Y017154D01*
X021493Y017206D01*
X021493Y017311D01*
X021441Y017363D01*
X021691Y017311D02*
X021691Y017206D01*
X021744Y017154D01*
X021953Y017154D01*
X022005Y017206D01*
X022005Y017311D01*
X021953Y017363D01*
X021953Y017516D02*
X022005Y017516D01*
X021953Y017516D02*
X021744Y017726D01*
X021691Y017726D01*
X021691Y017516D01*
X021744Y017363D02*
X021691Y017311D01*
X022282Y016956D02*
X022387Y016956D01*
X022334Y016956D02*
X022334Y016642D01*
X022282Y016642D02*
X022387Y016642D01*
X022524Y016694D02*
X022524Y016904D01*
X022576Y016956D01*
X022681Y016956D01*
X022733Y016904D01*
X022886Y016851D02*
X022991Y016956D01*
X022991Y016642D01*
X022886Y016642D02*
X023096Y016642D01*
X023227Y016603D02*
X023332Y016603D01*
X023279Y016603D02*
X023279Y016917D01*
X023227Y016917D02*
X023332Y016917D01*
X023469Y016864D02*
X023469Y016655D01*
X023521Y016603D01*
X023626Y016603D01*
X023678Y016655D01*
X023831Y016603D02*
X024040Y016812D01*
X024040Y016864D01*
X023988Y016917D01*
X023883Y016917D01*
X023831Y016864D01*
X023678Y016864D02*
X023626Y016917D01*
X023521Y016917D01*
X023469Y016864D01*
X023831Y016603D02*
X024040Y016603D01*
X023825Y016208D02*
X023668Y016051D01*
X023878Y016051D01*
X023825Y015894D02*
X023825Y016208D01*
X023515Y016156D02*
X023515Y016051D01*
X023463Y015999D01*
X023306Y015999D01*
X023410Y015999D02*
X023515Y015894D01*
X023306Y015894D02*
X023306Y016208D01*
X023463Y016208D01*
X023515Y016156D01*
X023581Y015578D02*
X023738Y015578D01*
X023791Y015526D01*
X023791Y015421D01*
X023738Y015369D01*
X023581Y015369D01*
X023686Y015369D02*
X023791Y015264D01*
X023944Y015316D02*
X023996Y015264D01*
X024101Y015264D01*
X024153Y015316D01*
X024153Y015369D01*
X024101Y015421D01*
X024048Y015421D01*
X024101Y015421D02*
X024153Y015473D01*
X024153Y015526D01*
X024101Y015578D01*
X023996Y015578D01*
X023944Y015526D01*
X023581Y015578D02*
X023581Y015264D01*
X023633Y014987D02*
X023633Y014726D01*
X023581Y014673D01*
X023476Y014673D01*
X023424Y014726D01*
X023424Y014987D01*
X023786Y014883D02*
X023891Y014987D01*
X023891Y014673D01*
X023786Y014673D02*
X023996Y014673D01*
X024012Y013949D02*
X024012Y012862D01*
X023856Y012902D02*
X023856Y013006D01*
X023856Y012954D02*
X023542Y012954D01*
X023542Y012902D02*
X023542Y013006D01*
X023594Y013143D02*
X023646Y013143D01*
X023699Y013196D01*
X023699Y013300D01*
X023751Y013353D01*
X023803Y013353D01*
X023856Y013300D01*
X023856Y013196D01*
X023803Y013143D01*
X023594Y013143D02*
X023542Y013196D01*
X023542Y013300D01*
X023594Y013353D01*
X023542Y013506D02*
X023542Y013663D01*
X023594Y013715D01*
X023699Y013715D01*
X023751Y013663D01*
X023751Y013506D01*
X023856Y013506D02*
X023542Y013506D01*
X023382Y013829D02*
X023382Y012862D01*
X024172Y012902D02*
X024172Y013059D01*
X024224Y013111D01*
X024329Y013111D01*
X024381Y013059D01*
X024381Y012902D01*
X024381Y013006D02*
X024486Y013111D01*
X024433Y013264D02*
X024486Y013317D01*
X024486Y013421D01*
X024433Y013474D01*
X024381Y013474D01*
X024329Y013421D01*
X024329Y013317D01*
X024276Y013264D01*
X024224Y013264D01*
X024172Y013317D01*
X024172Y013421D01*
X024224Y013474D01*
X024172Y013627D02*
X024172Y013836D01*
X024172Y013731D02*
X024486Y013731D01*
X024486Y012902D02*
X024172Y012902D01*
X022543Y011072D02*
X022491Y011072D01*
X022439Y011020D01*
X022439Y010863D01*
X022543Y010863D01*
X022596Y010915D01*
X022596Y011020D01*
X022543Y011072D01*
X022334Y010967D02*
X022439Y010863D01*
X022334Y010967D02*
X022282Y011072D01*
X022334Y010710D02*
X022282Y010657D01*
X022282Y010553D01*
X022334Y010500D01*
X022543Y010500D01*
X022596Y010553D01*
X022596Y010657D01*
X022543Y010710D01*
X022478Y010145D02*
X022374Y010145D01*
X022321Y010093D01*
X022321Y009883D01*
X022374Y009831D01*
X022478Y009831D01*
X022531Y009883D01*
X022531Y009988D01*
X022426Y009988D01*
X022531Y010093D02*
X022478Y010145D01*
X022684Y010145D02*
X022893Y009831D01*
X022893Y010145D01*
X023046Y010145D02*
X023046Y009831D01*
X023203Y009831D01*
X023256Y009883D01*
X023256Y010093D01*
X023203Y010145D01*
X023046Y010145D01*
X022684Y010145D02*
X022684Y009831D01*
X021730Y010553D02*
X021730Y010657D01*
X021677Y010710D01*
X021730Y010863D02*
X021520Y011072D01*
X021468Y011072D01*
X021416Y011020D01*
X021416Y010915D01*
X021468Y010863D01*
X021468Y010710D02*
X021416Y010657D01*
X021416Y010553D01*
X021468Y010500D01*
X021677Y010500D01*
X021730Y010553D01*
X021730Y010863D02*
X021730Y011072D01*
X020479Y012429D02*
X020374Y012429D01*
X020322Y012482D01*
X020322Y012534D01*
X020374Y012586D01*
X020479Y012586D01*
X020531Y012534D01*
X020531Y012482D01*
X020479Y012429D01*
X020479Y012586D02*
X020531Y012639D01*
X020531Y012691D01*
X020479Y012743D01*
X020374Y012743D01*
X020322Y012691D01*
X020322Y012639D01*
X020374Y012586D01*
X020169Y012482D02*
X020116Y012429D01*
X020012Y012429D01*
X019959Y012482D01*
X019959Y012691D01*
X020012Y012743D01*
X020116Y012743D01*
X020169Y012691D01*
X019888Y012981D02*
X019940Y013033D01*
X019940Y013085D01*
X019888Y013138D01*
X019731Y013138D01*
X019731Y013033D01*
X019784Y012981D01*
X019888Y012981D01*
X019731Y013138D02*
X019836Y013242D01*
X019940Y013295D01*
X019578Y013242D02*
X019578Y013138D01*
X019526Y013085D01*
X019369Y013085D01*
X019473Y013085D02*
X019578Y012981D01*
X019369Y012981D02*
X019369Y013295D01*
X019526Y013295D01*
X019578Y013242D01*
X019381Y012529D02*
X019591Y012319D01*
X019643Y012319D01*
X019643Y012166D02*
X019538Y012062D01*
X019538Y012114D02*
X019538Y011957D01*
X019643Y011957D02*
X019329Y011957D01*
X019329Y012114D01*
X019381Y012166D01*
X019486Y012166D01*
X019538Y012114D01*
X019329Y012319D02*
X019329Y012529D01*
X019381Y012529D01*
X019369Y011405D02*
X019526Y011405D01*
X019578Y011352D01*
X019578Y011248D01*
X019526Y011195D01*
X019369Y011195D01*
X019369Y011091D02*
X019369Y011405D01*
X019473Y011195D02*
X019578Y011091D01*
X019731Y011143D02*
X019731Y011195D01*
X019784Y011248D01*
X019888Y011248D01*
X019940Y011195D01*
X019940Y011143D01*
X019888Y011091D01*
X019784Y011091D01*
X019731Y011143D01*
X019784Y011248D02*
X019731Y011300D01*
X019731Y011352D01*
X019784Y011405D01*
X019888Y011405D01*
X019940Y011352D01*
X019940Y011300D01*
X019888Y011248D01*
X019836Y010893D02*
X019836Y010579D01*
X019940Y010579D02*
X019731Y010579D01*
X019578Y010579D02*
X019473Y010684D01*
X019369Y010631D02*
X019421Y010579D01*
X019526Y010579D01*
X019578Y010631D01*
X019578Y010841D01*
X019526Y010893D01*
X019421Y010893D01*
X019369Y010841D01*
X019369Y010631D01*
X019731Y010788D02*
X019836Y010893D01*
X019888Y010224D02*
X019784Y010224D01*
X019731Y010171D01*
X019731Y010119D01*
X019784Y010067D01*
X019940Y010067D01*
X019940Y010171D02*
X019888Y010224D01*
X019940Y010171D02*
X019940Y009962D01*
X019888Y009910D01*
X019784Y009910D01*
X019731Y009962D01*
X019578Y009910D02*
X019473Y010014D01*
X019526Y010014D02*
X019369Y010014D01*
X019369Y009910D02*
X019369Y010224D01*
X019526Y010224D01*
X019578Y010171D01*
X019578Y010067D01*
X019526Y010014D01*
X019526Y009515D02*
X019578Y009463D01*
X019578Y009358D01*
X019526Y009306D01*
X019369Y009306D01*
X019473Y009306D02*
X019578Y009201D01*
X019731Y009201D02*
X019940Y009201D01*
X019836Y009201D02*
X019836Y009515D01*
X019731Y009410D01*
X019526Y009515D02*
X019369Y009515D01*
X019369Y009201D01*
X020094Y009253D02*
X020303Y009463D01*
X020303Y009253D01*
X020251Y009201D01*
X020146Y009201D01*
X020094Y009253D01*
X020094Y009463D01*
X020146Y009515D01*
X020251Y009515D01*
X020303Y009463D01*
X020589Y009490D02*
X020589Y009699D01*
X020641Y009751D01*
X020746Y009751D01*
X020798Y009699D01*
X020952Y009699D02*
X020952Y009647D01*
X021004Y009594D01*
X021161Y009594D01*
X021161Y009490D02*
X021161Y009699D01*
X021109Y009751D01*
X021004Y009751D01*
X020952Y009699D01*
X020952Y009490D02*
X021004Y009437D01*
X021109Y009437D01*
X021161Y009490D01*
X020798Y009490D02*
X020746Y009437D01*
X020641Y009437D01*
X020589Y009490D01*
X019888Y013925D02*
X019784Y013925D01*
X019731Y013978D01*
X019731Y014082D02*
X019836Y014135D01*
X019888Y014135D01*
X019940Y014082D01*
X019940Y013978D01*
X019888Y013925D01*
X019731Y014082D02*
X019731Y014239D01*
X019940Y014239D01*
X019932Y014437D02*
X019828Y014542D01*
X019880Y014542D02*
X019723Y014542D01*
X019723Y014437D02*
X019723Y014751D01*
X019880Y014751D01*
X019932Y014699D01*
X019932Y014594D01*
X019880Y014542D01*
X020086Y014437D02*
X020295Y014647D01*
X020295Y014699D01*
X020242Y014751D01*
X020138Y014751D01*
X020086Y014699D01*
X020086Y014910D02*
X020295Y014910D01*
X020190Y014910D02*
X020190Y015224D01*
X020086Y015119D01*
X019932Y015171D02*
X019932Y015067D01*
X019880Y015014D01*
X019723Y015014D01*
X019723Y014910D02*
X019723Y015224D01*
X019880Y015224D01*
X019932Y015171D01*
X019828Y015014D02*
X019932Y014910D01*
X020086Y014437D02*
X020295Y014437D01*
X019578Y014187D02*
X019578Y014082D01*
X019526Y014030D01*
X019369Y014030D01*
X019473Y014030D02*
X019578Y013925D01*
X019369Y013925D02*
X019369Y014239D01*
X019526Y014239D01*
X019578Y014187D01*
X020090Y016366D02*
X020195Y016366D01*
X020247Y016419D01*
X020090Y016366D02*
X020038Y016419D01*
X020038Y016628D01*
X020090Y016680D01*
X020195Y016680D01*
X020247Y016628D01*
X020400Y016523D02*
X020610Y016523D01*
X020557Y016366D02*
X020557Y016680D01*
X020400Y016523D01*
X022524Y016694D02*
X022576Y016642D01*
X022681Y016642D01*
X022733Y016694D01*
X023122Y018492D02*
X023226Y018492D01*
X023279Y018545D01*
X023432Y018492D02*
X023641Y018492D01*
X023537Y018492D02*
X023537Y018806D01*
X023432Y018702D01*
X023279Y018754D02*
X023226Y018806D01*
X023122Y018806D01*
X023069Y018754D01*
X023069Y018545D01*
X023122Y018492D01*
X015694Y029122D02*
X015485Y029122D01*
X015295Y031012D02*
X015086Y031012D01*
X015190Y031012D02*
X015190Y031326D01*
X015086Y031221D01*
X014932Y031274D02*
X014880Y031326D01*
X014775Y031326D01*
X014723Y031274D01*
X014723Y031064D01*
X014775Y031012D01*
X014880Y031012D01*
X014932Y031064D01*
X036022Y031104D02*
X036075Y031051D01*
X036179Y031051D01*
X036232Y031104D01*
X036385Y031104D02*
X036437Y031051D01*
X036542Y031051D01*
X036594Y031104D01*
X036594Y031208D01*
X036542Y031261D01*
X036489Y031261D01*
X036385Y031208D01*
X036385Y031365D01*
X036594Y031365D01*
X036232Y031313D02*
X036179Y031365D01*
X036075Y031365D01*
X036022Y031313D01*
X036022Y031104D01*
X036770Y030972D02*
X036875Y030972D01*
X036823Y030972D02*
X036823Y030658D01*
X036875Y030658D02*
X036770Y030658D01*
X037012Y030710D02*
X037012Y030919D01*
X037064Y030972D01*
X037169Y030972D01*
X037221Y030919D01*
X037374Y030919D02*
X037427Y030972D01*
X037531Y030972D01*
X037584Y030919D01*
X037584Y030867D01*
X037531Y030815D01*
X037584Y030762D01*
X037584Y030710D01*
X037531Y030658D01*
X037427Y030658D01*
X037374Y030710D01*
X037479Y030815D02*
X037531Y030815D01*
X037221Y030710D02*
X037169Y030658D01*
X037064Y030658D01*
X037012Y030710D01*
X039762Y031064D02*
X039815Y031012D01*
X039919Y031012D01*
X039972Y031064D01*
X040125Y031012D02*
X040334Y031012D01*
X040230Y031012D02*
X040230Y031326D01*
X040125Y031221D01*
X039972Y031274D02*
X039919Y031326D01*
X039815Y031326D01*
X039762Y031274D01*
X039762Y031064D01*
D12*
X039959Y030460D02*
X039998Y030460D01*
X038856Y029712D02*
X038856Y029673D01*
X031652Y030460D02*
X031612Y030460D01*
X030510Y029712D02*
X030510Y029673D01*
X023305Y030460D02*
X023266Y030460D01*
X022163Y029712D02*
X022163Y029673D01*
X014959Y030460D02*
X014919Y030460D01*
X013817Y029712D02*
X013817Y029673D01*
X014919Y017941D02*
X014959Y017941D01*
X013817Y017193D02*
X013817Y017153D01*
X022163Y017193D02*
X022163Y017153D01*
X023266Y017941D02*
X023305Y017941D01*
X030510Y017193D02*
X030510Y017153D01*
X031612Y017941D02*
X031652Y017941D01*
X038856Y017193D02*
X038856Y017153D01*
X039959Y017941D02*
X039998Y017941D01*
M02*
