G75*
%MOIN*%
%OFA0B0*%
%FSLAX24Y24*%
%IPPOS*%
%LPD*%
%AMOC8*
5,1,8,0,0,1.08239X$1,22.5*
%
%ADD10C,0.0120*%
%ADD11OC8,0.0591*%
%ADD12C,0.0059*%
%ADD13R,0.0118X0.0472*%
%ADD14R,0.0472X0.0118*%
%ADD15R,0.1378X0.1378*%
%ADD16R,0.0276X0.0276*%
%ADD17C,0.0276*%
%ADD18C,0.0394*%
%ADD19R,0.0157X0.0276*%
%ADD20R,0.0669X0.0669*%
%ADD21R,0.0472X0.0551*%
%ADD22R,0.0945X0.0945*%
%ADD23C,0.0236*%
%ADD24C,0.0098*%
%ADD25C,0.0157*%
%ADD26C,0.0236*%
D10*
X008437Y009142D02*
X008516Y009064D01*
X008437Y009142D02*
X008437Y009456D01*
X008359Y009378D02*
X008516Y009378D01*
X008721Y009378D02*
X008800Y009378D01*
X008800Y009064D01*
X008878Y009064D02*
X008721Y009064D01*
X009084Y009064D02*
X009084Y009378D01*
X009319Y009378D01*
X009398Y009299D01*
X009398Y009064D01*
X009628Y009142D02*
X009628Y009378D01*
X009628Y009142D02*
X009706Y009064D01*
X009942Y009064D01*
X009942Y008985D02*
X009863Y008907D01*
X009785Y008907D01*
X009942Y008985D02*
X009942Y009378D01*
X010171Y009534D02*
X010328Y009534D01*
X010250Y009534D02*
X010250Y009064D01*
X010328Y009064D02*
X010171Y009064D01*
X010534Y009064D02*
X010848Y009378D01*
X010848Y009456D01*
X010769Y009534D01*
X010612Y009534D01*
X010534Y009456D01*
X010534Y009064D02*
X010848Y009064D01*
X011078Y009142D02*
X011078Y009456D01*
X011156Y009534D01*
X011313Y009534D01*
X011392Y009456D01*
X011392Y009142D02*
X011313Y009064D01*
X011156Y009064D01*
X011078Y009142D01*
X008800Y009534D02*
X008800Y009613D01*
X016626Y009378D02*
X016783Y009378D01*
X016705Y009456D02*
X016705Y009142D01*
X016783Y009064D01*
X016989Y009064D02*
X017146Y009064D01*
X017067Y009064D02*
X017067Y009378D01*
X016989Y009378D01*
X017067Y009534D02*
X017067Y009613D01*
X017352Y009378D02*
X017587Y009378D01*
X017665Y009299D01*
X017665Y009064D01*
X017895Y009142D02*
X017895Y009378D01*
X017895Y009142D02*
X017974Y009064D01*
X018209Y009064D01*
X018209Y008985D02*
X018131Y008907D01*
X018052Y008907D01*
X018209Y008985D02*
X018209Y009378D01*
X018439Y009534D02*
X018596Y009534D01*
X018518Y009534D02*
X018518Y009064D01*
X018596Y009064D02*
X018439Y009064D01*
X018802Y009064D02*
X019116Y009378D01*
X019116Y009456D01*
X019037Y009534D01*
X018880Y009534D01*
X018802Y009456D01*
X018802Y009064D02*
X019116Y009064D01*
X019345Y009142D02*
X019424Y009064D01*
X019581Y009064D01*
X019659Y009142D01*
X019345Y009142D02*
X019345Y009456D01*
X019424Y009534D01*
X019581Y009534D01*
X019659Y009456D01*
X017352Y009378D02*
X017352Y009064D01*
X024894Y009378D02*
X025051Y009378D01*
X024973Y009456D02*
X024973Y009142D01*
X025051Y009064D01*
X025257Y009064D02*
X025414Y009064D01*
X025335Y009064D02*
X025335Y009378D01*
X025257Y009378D01*
X025335Y009534D02*
X025335Y009613D01*
X025619Y009378D02*
X025855Y009378D01*
X025933Y009299D01*
X025933Y009064D01*
X026163Y009142D02*
X026163Y009378D01*
X026163Y009142D02*
X026241Y009064D01*
X026477Y009064D01*
X026477Y008985D02*
X026398Y008907D01*
X026320Y008907D01*
X026477Y008985D02*
X026477Y009378D01*
X026707Y009534D02*
X026864Y009534D01*
X026785Y009534D02*
X026785Y009064D01*
X026707Y009064D02*
X026864Y009064D01*
X027069Y009064D02*
X027383Y009378D01*
X027383Y009456D01*
X027305Y009534D01*
X027148Y009534D01*
X027069Y009456D01*
X027069Y009064D02*
X027383Y009064D01*
X027613Y009142D02*
X027692Y009064D01*
X027849Y009064D01*
X027927Y009142D01*
X027613Y009142D02*
X027613Y009456D01*
X027692Y009534D01*
X027849Y009534D01*
X027927Y009456D01*
X025619Y009378D02*
X025619Y009064D01*
X033162Y009378D02*
X033319Y009378D01*
X033240Y009456D02*
X033240Y009142D01*
X033319Y009064D01*
X033524Y009064D02*
X033681Y009064D01*
X033603Y009064D02*
X033603Y009378D01*
X033524Y009378D01*
X033603Y009534D02*
X033603Y009613D01*
X033887Y009378D02*
X033887Y009064D01*
X033887Y009378D02*
X034122Y009378D01*
X034201Y009299D01*
X034201Y009064D01*
X034431Y009142D02*
X034431Y009378D01*
X034431Y009142D02*
X034509Y009064D01*
X034745Y009064D01*
X034745Y008985D02*
X034666Y008907D01*
X034588Y008907D01*
X034745Y008985D02*
X034745Y009378D01*
X034974Y009534D02*
X035131Y009534D01*
X035053Y009534D02*
X035053Y009064D01*
X035131Y009064D02*
X034974Y009064D01*
X035337Y009064D02*
X035651Y009378D01*
X035651Y009456D01*
X035572Y009534D01*
X035415Y009534D01*
X035337Y009456D01*
X035337Y009064D02*
X035651Y009064D01*
X035881Y009142D02*
X035959Y009064D01*
X036116Y009064D01*
X036195Y009142D01*
X036195Y009456D02*
X036116Y009534D01*
X035959Y009534D01*
X035881Y009456D01*
X035881Y009142D01*
X034666Y021190D02*
X034588Y021190D01*
X034666Y021190D02*
X034745Y021269D01*
X034745Y021661D01*
X034974Y021818D02*
X035131Y021818D01*
X035053Y021818D02*
X035053Y021347D01*
X035131Y021347D02*
X034974Y021347D01*
X034745Y021347D02*
X034509Y021347D01*
X034431Y021425D01*
X034431Y021661D01*
X034201Y021582D02*
X034201Y021347D01*
X034201Y021582D02*
X034122Y021661D01*
X033887Y021661D01*
X033887Y021347D01*
X033681Y021347D02*
X033524Y021347D01*
X033603Y021347D02*
X033603Y021661D01*
X033524Y021661D01*
X033603Y021818D02*
X033603Y021896D01*
X033319Y021661D02*
X033162Y021661D01*
X033240Y021739D02*
X033240Y021425D01*
X033319Y021347D01*
X035337Y021347D02*
X035651Y021661D01*
X035651Y021739D01*
X035572Y021818D01*
X035415Y021818D01*
X035337Y021739D01*
X035337Y021347D02*
X035651Y021347D01*
X035881Y021425D02*
X035959Y021347D01*
X036116Y021347D01*
X036195Y021425D01*
X035881Y021425D02*
X035881Y021739D01*
X035959Y021818D01*
X036116Y021818D01*
X036195Y021739D01*
X027927Y021739D02*
X027849Y021818D01*
X027692Y021818D01*
X027613Y021739D01*
X027613Y021425D01*
X027692Y021347D01*
X027849Y021347D01*
X027927Y021425D01*
X027383Y021347D02*
X027069Y021347D01*
X027383Y021661D01*
X027383Y021739D01*
X027305Y021818D01*
X027148Y021818D01*
X027069Y021739D01*
X026864Y021818D02*
X026707Y021818D01*
X026785Y021818D02*
X026785Y021347D01*
X026707Y021347D02*
X026864Y021347D01*
X026477Y021347D02*
X026241Y021347D01*
X026163Y021425D01*
X026163Y021661D01*
X025933Y021582D02*
X025933Y021347D01*
X025933Y021582D02*
X025855Y021661D01*
X025619Y021661D01*
X025619Y021347D01*
X025414Y021347D02*
X025257Y021347D01*
X025335Y021347D02*
X025335Y021661D01*
X025257Y021661D01*
X025335Y021818D02*
X025335Y021896D01*
X025051Y021661D02*
X024894Y021661D01*
X024973Y021739D02*
X024973Y021425D01*
X025051Y021347D01*
X026320Y021190D02*
X026398Y021190D01*
X026477Y021269D01*
X026477Y021661D01*
X019659Y021739D02*
X019581Y021818D01*
X019424Y021818D01*
X019345Y021739D01*
X019345Y021425D01*
X019424Y021347D01*
X019581Y021347D01*
X019659Y021425D01*
X019116Y021347D02*
X018802Y021347D01*
X019116Y021661D01*
X019116Y021739D01*
X019037Y021818D01*
X018880Y021818D01*
X018802Y021739D01*
X018596Y021818D02*
X018439Y021818D01*
X018518Y021818D02*
X018518Y021347D01*
X018596Y021347D02*
X018439Y021347D01*
X018209Y021347D02*
X017974Y021347D01*
X017895Y021425D01*
X017895Y021661D01*
X017665Y021582D02*
X017665Y021347D01*
X017665Y021582D02*
X017587Y021661D01*
X017352Y021661D01*
X017352Y021347D01*
X017146Y021347D02*
X016989Y021347D01*
X017067Y021347D02*
X017067Y021661D01*
X016989Y021661D01*
X017067Y021818D02*
X017067Y021896D01*
X016783Y021661D02*
X016626Y021661D01*
X016705Y021739D02*
X016705Y021425D01*
X016783Y021347D01*
X018052Y021190D02*
X018131Y021190D01*
X018209Y021269D01*
X018209Y021661D01*
X011392Y021739D02*
X011313Y021818D01*
X011156Y021818D01*
X011078Y021739D01*
X011078Y021425D01*
X011156Y021347D01*
X011313Y021347D01*
X011392Y021425D01*
X010848Y021347D02*
X010534Y021347D01*
X010848Y021661D01*
X010848Y021739D01*
X010769Y021818D01*
X010612Y021818D01*
X010534Y021739D01*
X010328Y021818D02*
X010171Y021818D01*
X010250Y021818D02*
X010250Y021347D01*
X010328Y021347D02*
X010171Y021347D01*
X009942Y021347D02*
X009706Y021347D01*
X009628Y021425D01*
X009628Y021661D01*
X009398Y021582D02*
X009398Y021347D01*
X009398Y021582D02*
X009319Y021661D01*
X009084Y021661D01*
X009084Y021347D01*
X008878Y021347D02*
X008721Y021347D01*
X008800Y021347D02*
X008800Y021661D01*
X008721Y021661D01*
X008800Y021818D02*
X008800Y021896D01*
X008516Y021661D02*
X008359Y021661D01*
X008437Y021739D02*
X008437Y021425D01*
X008516Y021347D01*
X009785Y021190D02*
X009863Y021190D01*
X009942Y021269D01*
X009942Y021661D01*
D11*
X010192Y022956D03*
X010192Y023956D03*
X011192Y023956D03*
X012192Y023456D03*
X012192Y022456D03*
X011192Y022956D03*
X012192Y021456D03*
X012192Y020173D03*
X012192Y019173D03*
X011192Y019173D03*
X010192Y019173D03*
X009192Y019173D03*
X008192Y019173D03*
X007192Y019173D03*
X006192Y019173D03*
X005192Y019173D03*
X005192Y020173D03*
X005192Y021456D03*
X005192Y022456D03*
X005192Y023456D03*
X005192Y024456D03*
X005192Y025456D03*
X005192Y026456D03*
X005192Y027456D03*
X005192Y028456D03*
X005192Y029456D03*
X005192Y030456D03*
X005192Y031456D03*
X005192Y032456D03*
X006192Y031456D03*
X007192Y031456D03*
X008192Y031456D03*
X009192Y031456D03*
X010192Y031456D03*
X011192Y031456D03*
X012192Y031456D03*
X012192Y032456D03*
X013460Y032456D03*
X013460Y031456D03*
X014460Y031456D03*
X015460Y031456D03*
X016460Y031456D03*
X017460Y031456D03*
X018460Y031456D03*
X019460Y031456D03*
X020460Y031456D03*
X020460Y032456D03*
X021728Y032456D03*
X021728Y031456D03*
X021728Y030456D03*
X021728Y029456D03*
X021728Y028456D03*
X021728Y027456D03*
X021728Y026456D03*
X021728Y025456D03*
X021728Y024456D03*
X021728Y023456D03*
X021728Y022456D03*
X021728Y021456D03*
X020460Y021456D03*
X020460Y022456D03*
X020460Y023456D03*
X019460Y022956D03*
X018460Y022956D03*
X018460Y023956D03*
X019460Y023956D03*
X020460Y024456D03*
X020460Y025456D03*
X020460Y026456D03*
X020460Y027456D03*
X020460Y028456D03*
X020460Y029456D03*
X020460Y030456D03*
X022728Y031456D03*
X023728Y031456D03*
X024728Y031456D03*
X025728Y031456D03*
X026728Y031456D03*
X027728Y031456D03*
X028728Y031456D03*
X028728Y032456D03*
X029996Y032456D03*
X029996Y031456D03*
X030996Y031456D03*
X031996Y031456D03*
X032996Y031456D03*
X033996Y031456D03*
X034996Y031456D03*
X035996Y031456D03*
X036996Y031456D03*
X036996Y032456D03*
X036996Y030456D03*
X036996Y029456D03*
X036996Y028456D03*
X036996Y027456D03*
X036996Y026456D03*
X036996Y025456D03*
X036996Y024456D03*
X035996Y023956D03*
X036996Y023456D03*
X036996Y022456D03*
X035996Y022956D03*
X034996Y022956D03*
X034996Y023956D03*
X036996Y021456D03*
X036996Y020173D03*
X036996Y019173D03*
X035996Y019173D03*
X034996Y019173D03*
X033996Y019173D03*
X032996Y019173D03*
X031996Y019173D03*
X030996Y019173D03*
X029996Y019173D03*
X029996Y020173D03*
X028728Y020173D03*
X028728Y019173D03*
X027728Y019173D03*
X026728Y019173D03*
X025728Y019173D03*
X024728Y019173D03*
X023728Y019173D03*
X022728Y019173D03*
X021728Y019173D03*
X021728Y020173D03*
X020460Y020173D03*
X020460Y019173D03*
X019460Y019173D03*
X018460Y019173D03*
X017460Y019173D03*
X016460Y019173D03*
X015460Y019173D03*
X014460Y019173D03*
X013460Y019173D03*
X013460Y020173D03*
X013460Y021456D03*
X013460Y022456D03*
X013460Y023456D03*
X013460Y024456D03*
X013460Y025456D03*
X013460Y026456D03*
X013460Y027456D03*
X013460Y028456D03*
X013460Y029456D03*
X013460Y030456D03*
X012192Y030456D03*
X012192Y029456D03*
X012192Y028456D03*
X012192Y027456D03*
X012192Y026456D03*
X012192Y025456D03*
X012192Y024456D03*
X015460Y027956D03*
X016460Y027956D03*
X023728Y027956D03*
X024728Y027956D03*
X028728Y027456D03*
X028728Y026456D03*
X028728Y025456D03*
X028728Y024456D03*
X027728Y023956D03*
X028728Y023456D03*
X028728Y022456D03*
X027728Y022956D03*
X026728Y022956D03*
X026728Y023956D03*
X028728Y021456D03*
X029996Y021456D03*
X029996Y022456D03*
X029996Y023456D03*
X029996Y024456D03*
X029996Y025456D03*
X029996Y026456D03*
X029996Y027456D03*
X029996Y028456D03*
X029996Y029456D03*
X029996Y030456D03*
X028728Y030456D03*
X028728Y029456D03*
X028728Y028456D03*
X031996Y027956D03*
X032996Y027956D03*
X029996Y018173D03*
X029996Y017173D03*
X029996Y016173D03*
X029996Y015173D03*
X029996Y014173D03*
X029996Y013173D03*
X029996Y012173D03*
X029996Y011173D03*
X029996Y010173D03*
X029996Y009173D03*
X028728Y009173D03*
X028728Y010173D03*
X028728Y011173D03*
X027728Y011673D03*
X028728Y012173D03*
X028728Y013173D03*
X028728Y014173D03*
X028728Y015173D03*
X028728Y016173D03*
X028728Y017173D03*
X028728Y018173D03*
X031996Y015673D03*
X032996Y015673D03*
X036996Y016173D03*
X036996Y017173D03*
X036996Y018173D03*
X036996Y015173D03*
X036996Y014173D03*
X036996Y013173D03*
X036996Y012173D03*
X035996Y011673D03*
X036996Y011173D03*
X036996Y010173D03*
X035996Y010673D03*
X034996Y010673D03*
X034996Y011673D03*
X036996Y009173D03*
X027728Y010673D03*
X026728Y010673D03*
X026728Y011673D03*
X024728Y015673D03*
X023728Y015673D03*
X021728Y016173D03*
X021728Y017173D03*
X021728Y018173D03*
X020460Y018173D03*
X020460Y017173D03*
X020460Y016173D03*
X020460Y015173D03*
X020460Y014173D03*
X020460Y013173D03*
X020460Y012173D03*
X019460Y011673D03*
X020460Y011173D03*
X020460Y010173D03*
X019460Y010673D03*
X018460Y010673D03*
X018460Y011673D03*
X020460Y009173D03*
X021728Y009173D03*
X021728Y010173D03*
X021728Y011173D03*
X021728Y012173D03*
X021728Y013173D03*
X021728Y014173D03*
X021728Y015173D03*
X016460Y015673D03*
X015460Y015673D03*
X013460Y016173D03*
X013460Y017173D03*
X013460Y018173D03*
X012192Y018173D03*
X012192Y017173D03*
X012192Y016173D03*
X012192Y015173D03*
X012192Y014173D03*
X012192Y013173D03*
X012192Y012173D03*
X011192Y011673D03*
X012192Y011173D03*
X012192Y010173D03*
X011192Y010673D03*
X010192Y010673D03*
X010192Y011673D03*
X012192Y009173D03*
X013460Y009173D03*
X013460Y010173D03*
X013460Y011173D03*
X013460Y012173D03*
X013460Y013173D03*
X013460Y014173D03*
X013460Y015173D03*
X008192Y015673D03*
X007192Y015673D03*
X005192Y016173D03*
X005192Y017173D03*
X005192Y018173D03*
X005192Y015173D03*
X005192Y014173D03*
X005192Y013173D03*
X005192Y012173D03*
X005192Y011173D03*
X005192Y010173D03*
X005192Y009173D03*
X007192Y027956D03*
X008192Y027956D03*
D12*
X008052Y027183D02*
X008052Y026769D01*
X008052Y027183D02*
X008112Y027183D01*
X008112Y026769D01*
X008052Y026769D01*
X008052Y026827D02*
X008112Y026827D01*
X008112Y026885D02*
X008052Y026885D01*
X008052Y026943D02*
X008112Y026943D01*
X008112Y027001D02*
X008052Y027001D01*
X008052Y027059D02*
X008112Y027059D01*
X008112Y027117D02*
X008052Y027117D01*
X008052Y027175D02*
X008112Y027175D01*
X007935Y026592D02*
X007521Y026592D01*
X007521Y026652D01*
X007935Y026652D01*
X007935Y026592D01*
X007935Y026650D02*
X007521Y026650D01*
X007521Y025214D02*
X007935Y025214D01*
X007521Y025214D02*
X007521Y025274D01*
X007935Y025274D01*
X007935Y025214D01*
X007935Y025272D02*
X007521Y025272D01*
X008052Y025096D02*
X008052Y024682D01*
X008052Y025096D02*
X008112Y025096D01*
X008112Y024682D01*
X008052Y024682D01*
X008052Y024740D02*
X008112Y024740D01*
X008112Y024798D02*
X008052Y024798D01*
X008052Y024856D02*
X008112Y024856D01*
X008112Y024914D02*
X008052Y024914D01*
X008052Y024972D02*
X008112Y024972D01*
X008112Y025030D02*
X008052Y025030D01*
X008052Y025088D02*
X008112Y025088D01*
X009430Y025096D02*
X009430Y024682D01*
X009430Y025096D02*
X009490Y025096D01*
X009490Y024682D01*
X009430Y024682D01*
X009430Y024740D02*
X009490Y024740D01*
X009490Y024798D02*
X009430Y024798D01*
X009430Y024856D02*
X009490Y024856D01*
X009490Y024914D02*
X009430Y024914D01*
X009430Y024972D02*
X009490Y024972D01*
X009490Y025030D02*
X009430Y025030D01*
X009430Y025088D02*
X009490Y025088D01*
X009608Y025214D02*
X010022Y025214D01*
X009608Y025214D02*
X009608Y025274D01*
X010022Y025274D01*
X010022Y025214D01*
X010022Y025272D02*
X009608Y025272D01*
X009608Y026592D02*
X010022Y026592D01*
X009608Y026592D02*
X009608Y026652D01*
X010022Y026652D01*
X010022Y026592D01*
X010022Y026650D02*
X009608Y026650D01*
X009430Y026769D02*
X009430Y027183D01*
X009490Y027183D01*
X009490Y026769D01*
X009430Y026769D01*
X009430Y026827D02*
X009490Y026827D01*
X009490Y026885D02*
X009430Y026885D01*
X009430Y026943D02*
X009490Y026943D01*
X009490Y027001D02*
X009430Y027001D01*
X009430Y027059D02*
X009490Y027059D01*
X009490Y027117D02*
X009430Y027117D01*
X009430Y027175D02*
X009490Y027175D01*
X015789Y026592D02*
X016203Y026592D01*
X015789Y026592D02*
X015789Y026652D01*
X016203Y026652D01*
X016203Y026592D01*
X016203Y026650D02*
X015789Y026650D01*
X016320Y026769D02*
X016320Y027183D01*
X016380Y027183D01*
X016380Y026769D01*
X016320Y026769D01*
X016320Y026827D02*
X016380Y026827D01*
X016380Y026885D02*
X016320Y026885D01*
X016320Y026943D02*
X016380Y026943D01*
X016380Y027001D02*
X016320Y027001D01*
X016320Y027059D02*
X016380Y027059D01*
X016380Y027117D02*
X016320Y027117D01*
X016320Y027175D02*
X016380Y027175D01*
X017698Y027183D02*
X017698Y026769D01*
X017698Y027183D02*
X017758Y027183D01*
X017758Y026769D01*
X017698Y026769D01*
X017698Y026827D02*
X017758Y026827D01*
X017758Y026885D02*
X017698Y026885D01*
X017698Y026943D02*
X017758Y026943D01*
X017758Y027001D02*
X017698Y027001D01*
X017698Y027059D02*
X017758Y027059D01*
X017758Y027117D02*
X017698Y027117D01*
X017698Y027175D02*
X017758Y027175D01*
X017875Y026592D02*
X018289Y026592D01*
X017875Y026592D02*
X017875Y026652D01*
X018289Y026652D01*
X018289Y026592D01*
X018289Y026650D02*
X017875Y026650D01*
X017875Y025214D02*
X018289Y025214D01*
X017875Y025214D02*
X017875Y025274D01*
X018289Y025274D01*
X018289Y025214D01*
X018289Y025272D02*
X017875Y025272D01*
X017698Y025096D02*
X017698Y024682D01*
X017698Y025096D02*
X017758Y025096D01*
X017758Y024682D01*
X017698Y024682D01*
X017698Y024740D02*
X017758Y024740D01*
X017758Y024798D02*
X017698Y024798D01*
X017698Y024856D02*
X017758Y024856D01*
X017758Y024914D02*
X017698Y024914D01*
X017698Y024972D02*
X017758Y024972D01*
X017758Y025030D02*
X017698Y025030D01*
X017698Y025088D02*
X017758Y025088D01*
X016320Y025096D02*
X016320Y024682D01*
X016320Y025096D02*
X016380Y025096D01*
X016380Y024682D01*
X016320Y024682D01*
X016320Y024740D02*
X016380Y024740D01*
X016380Y024798D02*
X016320Y024798D01*
X016320Y024856D02*
X016380Y024856D01*
X016380Y024914D02*
X016320Y024914D01*
X016320Y024972D02*
X016380Y024972D01*
X016380Y025030D02*
X016320Y025030D01*
X016320Y025088D02*
X016380Y025088D01*
X016203Y025214D02*
X015789Y025214D01*
X015789Y025274D01*
X016203Y025274D01*
X016203Y025214D01*
X016203Y025272D02*
X015789Y025272D01*
X024056Y025214D02*
X024470Y025214D01*
X024056Y025214D02*
X024056Y025274D01*
X024470Y025274D01*
X024470Y025214D01*
X024470Y025272D02*
X024056Y025272D01*
X024588Y025096D02*
X024588Y024682D01*
X024588Y025096D02*
X024648Y025096D01*
X024648Y024682D01*
X024588Y024682D01*
X024588Y024740D02*
X024648Y024740D01*
X024648Y024798D02*
X024588Y024798D01*
X024588Y024856D02*
X024648Y024856D01*
X024648Y024914D02*
X024588Y024914D01*
X024588Y024972D02*
X024648Y024972D01*
X024648Y025030D02*
X024588Y025030D01*
X024588Y025088D02*
X024648Y025088D01*
X025966Y025096D02*
X025966Y024682D01*
X025966Y025096D02*
X026026Y025096D01*
X026026Y024682D01*
X025966Y024682D01*
X025966Y024740D02*
X026026Y024740D01*
X026026Y024798D02*
X025966Y024798D01*
X025966Y024856D02*
X026026Y024856D01*
X026026Y024914D02*
X025966Y024914D01*
X025966Y024972D02*
X026026Y024972D01*
X026026Y025030D02*
X025966Y025030D01*
X025966Y025088D02*
X026026Y025088D01*
X026143Y025214D02*
X026557Y025214D01*
X026143Y025214D02*
X026143Y025274D01*
X026557Y025274D01*
X026557Y025214D01*
X026557Y025272D02*
X026143Y025272D01*
X026143Y026592D02*
X026557Y026592D01*
X026143Y026592D02*
X026143Y026652D01*
X026557Y026652D01*
X026557Y026592D01*
X026557Y026650D02*
X026143Y026650D01*
X025966Y026769D02*
X025966Y027183D01*
X026026Y027183D01*
X026026Y026769D01*
X025966Y026769D01*
X025966Y026827D02*
X026026Y026827D01*
X026026Y026885D02*
X025966Y026885D01*
X025966Y026943D02*
X026026Y026943D01*
X026026Y027001D02*
X025966Y027001D01*
X025966Y027059D02*
X026026Y027059D01*
X026026Y027117D02*
X025966Y027117D01*
X025966Y027175D02*
X026026Y027175D01*
X024588Y027183D02*
X024588Y026769D01*
X024588Y027183D02*
X024648Y027183D01*
X024648Y026769D01*
X024588Y026769D01*
X024588Y026827D02*
X024648Y026827D01*
X024648Y026885D02*
X024588Y026885D01*
X024588Y026943D02*
X024648Y026943D01*
X024648Y027001D02*
X024588Y027001D01*
X024588Y027059D02*
X024648Y027059D01*
X024648Y027117D02*
X024588Y027117D01*
X024588Y027175D02*
X024648Y027175D01*
X024470Y026592D02*
X024056Y026592D01*
X024056Y026652D01*
X024470Y026652D01*
X024470Y026592D01*
X024470Y026650D02*
X024056Y026650D01*
X032324Y026592D02*
X032738Y026592D01*
X032324Y026592D02*
X032324Y026652D01*
X032738Y026652D01*
X032738Y026592D01*
X032738Y026650D02*
X032324Y026650D01*
X032855Y026769D02*
X032855Y027183D01*
X032915Y027183D01*
X032915Y026769D01*
X032855Y026769D01*
X032855Y026827D02*
X032915Y026827D01*
X032915Y026885D02*
X032855Y026885D01*
X032855Y026943D02*
X032915Y026943D01*
X032915Y027001D02*
X032855Y027001D01*
X032855Y027059D02*
X032915Y027059D01*
X032915Y027117D02*
X032855Y027117D01*
X032855Y027175D02*
X032915Y027175D01*
X034233Y027183D02*
X034233Y026769D01*
X034233Y027183D02*
X034293Y027183D01*
X034293Y026769D01*
X034233Y026769D01*
X034233Y026827D02*
X034293Y026827D01*
X034293Y026885D02*
X034233Y026885D01*
X034233Y026943D02*
X034293Y026943D01*
X034293Y027001D02*
X034233Y027001D01*
X034233Y027059D02*
X034293Y027059D01*
X034293Y027117D02*
X034233Y027117D01*
X034233Y027175D02*
X034293Y027175D01*
X034411Y026592D02*
X034825Y026592D01*
X034411Y026592D02*
X034411Y026652D01*
X034825Y026652D01*
X034825Y026592D01*
X034825Y026650D02*
X034411Y026650D01*
X034411Y025214D02*
X034825Y025214D01*
X034411Y025214D02*
X034411Y025274D01*
X034825Y025274D01*
X034825Y025214D01*
X034825Y025272D02*
X034411Y025272D01*
X034233Y025096D02*
X034233Y024682D01*
X034233Y025096D02*
X034293Y025096D01*
X034293Y024682D01*
X034233Y024682D01*
X034233Y024740D02*
X034293Y024740D01*
X034293Y024798D02*
X034233Y024798D01*
X034233Y024856D02*
X034293Y024856D01*
X034293Y024914D02*
X034233Y024914D01*
X034233Y024972D02*
X034293Y024972D01*
X034293Y025030D02*
X034233Y025030D01*
X034233Y025088D02*
X034293Y025088D01*
X032855Y025096D02*
X032855Y024682D01*
X032855Y025096D02*
X032915Y025096D01*
X032915Y024682D01*
X032855Y024682D01*
X032855Y024740D02*
X032915Y024740D01*
X032915Y024798D02*
X032855Y024798D01*
X032855Y024856D02*
X032915Y024856D01*
X032915Y024914D02*
X032855Y024914D01*
X032855Y024972D02*
X032915Y024972D01*
X032915Y025030D02*
X032855Y025030D01*
X032855Y025088D02*
X032915Y025088D01*
X032738Y025214D02*
X032324Y025214D01*
X032324Y025274D01*
X032738Y025274D01*
X032738Y025214D01*
X032738Y025272D02*
X032324Y025272D01*
X032855Y014900D02*
X032855Y014486D01*
X032855Y014900D02*
X032915Y014900D01*
X032915Y014486D01*
X032855Y014486D01*
X032855Y014544D02*
X032915Y014544D01*
X032915Y014602D02*
X032855Y014602D01*
X032855Y014660D02*
X032915Y014660D01*
X032915Y014718D02*
X032855Y014718D01*
X032855Y014776D02*
X032915Y014776D01*
X032915Y014834D02*
X032855Y014834D01*
X032855Y014892D02*
X032915Y014892D01*
X032738Y014308D02*
X032324Y014308D01*
X032324Y014368D01*
X032738Y014368D01*
X032738Y014308D01*
X032738Y014366D02*
X032324Y014366D01*
X032324Y012930D02*
X032738Y012930D01*
X032324Y012930D02*
X032324Y012990D01*
X032738Y012990D01*
X032738Y012930D01*
X032738Y012988D02*
X032324Y012988D01*
X032855Y012813D02*
X032855Y012399D01*
X032855Y012813D02*
X032915Y012813D01*
X032915Y012399D01*
X032855Y012399D01*
X032855Y012457D02*
X032915Y012457D01*
X032915Y012515D02*
X032855Y012515D01*
X032855Y012573D02*
X032915Y012573D01*
X032915Y012631D02*
X032855Y012631D01*
X032855Y012689D02*
X032915Y012689D01*
X032915Y012747D02*
X032855Y012747D01*
X032855Y012805D02*
X032915Y012805D01*
X034233Y012813D02*
X034233Y012399D01*
X034233Y012813D02*
X034293Y012813D01*
X034293Y012399D01*
X034233Y012399D01*
X034233Y012457D02*
X034293Y012457D01*
X034293Y012515D02*
X034233Y012515D01*
X034233Y012573D02*
X034293Y012573D01*
X034293Y012631D02*
X034233Y012631D01*
X034233Y012689D02*
X034293Y012689D01*
X034293Y012747D02*
X034233Y012747D01*
X034233Y012805D02*
X034293Y012805D01*
X034411Y012930D02*
X034825Y012930D01*
X034411Y012930D02*
X034411Y012990D01*
X034825Y012990D01*
X034825Y012930D01*
X034825Y012988D02*
X034411Y012988D01*
X034411Y014308D02*
X034825Y014308D01*
X034411Y014308D02*
X034411Y014368D01*
X034825Y014368D01*
X034825Y014308D01*
X034825Y014366D02*
X034411Y014366D01*
X034233Y014486D02*
X034233Y014900D01*
X034293Y014900D01*
X034293Y014486D01*
X034233Y014486D01*
X034233Y014544D02*
X034293Y014544D01*
X034293Y014602D02*
X034233Y014602D01*
X034233Y014660D02*
X034293Y014660D01*
X034293Y014718D02*
X034233Y014718D01*
X034233Y014776D02*
X034293Y014776D01*
X034293Y014834D02*
X034233Y014834D01*
X034233Y014892D02*
X034293Y014892D01*
X026557Y014308D02*
X026143Y014308D01*
X026143Y014368D01*
X026557Y014368D01*
X026557Y014308D01*
X026557Y014366D02*
X026143Y014366D01*
X025966Y014486D02*
X025966Y014900D01*
X026026Y014900D01*
X026026Y014486D01*
X025966Y014486D01*
X025966Y014544D02*
X026026Y014544D01*
X026026Y014602D02*
X025966Y014602D01*
X025966Y014660D02*
X026026Y014660D01*
X026026Y014718D02*
X025966Y014718D01*
X025966Y014776D02*
X026026Y014776D01*
X026026Y014834D02*
X025966Y014834D01*
X025966Y014892D02*
X026026Y014892D01*
X024588Y014900D02*
X024588Y014486D01*
X024588Y014900D02*
X024648Y014900D01*
X024648Y014486D01*
X024588Y014486D01*
X024588Y014544D02*
X024648Y014544D01*
X024648Y014602D02*
X024588Y014602D01*
X024588Y014660D02*
X024648Y014660D01*
X024648Y014718D02*
X024588Y014718D01*
X024588Y014776D02*
X024648Y014776D01*
X024648Y014834D02*
X024588Y014834D01*
X024588Y014892D02*
X024648Y014892D01*
X024470Y014308D02*
X024056Y014308D01*
X024056Y014368D01*
X024470Y014368D01*
X024470Y014308D01*
X024470Y014366D02*
X024056Y014366D01*
X024056Y012930D02*
X024470Y012930D01*
X024056Y012930D02*
X024056Y012990D01*
X024470Y012990D01*
X024470Y012930D01*
X024470Y012988D02*
X024056Y012988D01*
X024588Y012813D02*
X024588Y012399D01*
X024588Y012813D02*
X024648Y012813D01*
X024648Y012399D01*
X024588Y012399D01*
X024588Y012457D02*
X024648Y012457D01*
X024648Y012515D02*
X024588Y012515D01*
X024588Y012573D02*
X024648Y012573D01*
X024648Y012631D02*
X024588Y012631D01*
X024588Y012689D02*
X024648Y012689D01*
X024648Y012747D02*
X024588Y012747D01*
X024588Y012805D02*
X024648Y012805D01*
X025966Y012813D02*
X025966Y012399D01*
X025966Y012813D02*
X026026Y012813D01*
X026026Y012399D01*
X025966Y012399D01*
X025966Y012457D02*
X026026Y012457D01*
X026026Y012515D02*
X025966Y012515D01*
X025966Y012573D02*
X026026Y012573D01*
X026026Y012631D02*
X025966Y012631D01*
X025966Y012689D02*
X026026Y012689D01*
X026026Y012747D02*
X025966Y012747D01*
X025966Y012805D02*
X026026Y012805D01*
X026143Y012930D02*
X026557Y012930D01*
X026143Y012930D02*
X026143Y012990D01*
X026557Y012990D01*
X026557Y012930D01*
X026557Y012988D02*
X026143Y012988D01*
X018289Y012930D02*
X017875Y012930D01*
X017875Y012990D01*
X018289Y012990D01*
X018289Y012930D01*
X018289Y012988D02*
X017875Y012988D01*
X017698Y012813D02*
X017698Y012399D01*
X017698Y012813D02*
X017758Y012813D01*
X017758Y012399D01*
X017698Y012399D01*
X017698Y012457D02*
X017758Y012457D01*
X017758Y012515D02*
X017698Y012515D01*
X017698Y012573D02*
X017758Y012573D01*
X017758Y012631D02*
X017698Y012631D01*
X017698Y012689D02*
X017758Y012689D01*
X017758Y012747D02*
X017698Y012747D01*
X017698Y012805D02*
X017758Y012805D01*
X016320Y012813D02*
X016320Y012399D01*
X016320Y012813D02*
X016380Y012813D01*
X016380Y012399D01*
X016320Y012399D01*
X016320Y012457D02*
X016380Y012457D01*
X016380Y012515D02*
X016320Y012515D01*
X016320Y012573D02*
X016380Y012573D01*
X016380Y012631D02*
X016320Y012631D01*
X016320Y012689D02*
X016380Y012689D01*
X016380Y012747D02*
X016320Y012747D01*
X016320Y012805D02*
X016380Y012805D01*
X016203Y012930D02*
X015789Y012930D01*
X015789Y012990D01*
X016203Y012990D01*
X016203Y012930D01*
X016203Y012988D02*
X015789Y012988D01*
X015789Y014308D02*
X016203Y014308D01*
X015789Y014308D02*
X015789Y014368D01*
X016203Y014368D01*
X016203Y014308D01*
X016203Y014366D02*
X015789Y014366D01*
X016320Y014486D02*
X016320Y014900D01*
X016380Y014900D01*
X016380Y014486D01*
X016320Y014486D01*
X016320Y014544D02*
X016380Y014544D01*
X016380Y014602D02*
X016320Y014602D01*
X016320Y014660D02*
X016380Y014660D01*
X016380Y014718D02*
X016320Y014718D01*
X016320Y014776D02*
X016380Y014776D01*
X016380Y014834D02*
X016320Y014834D01*
X016320Y014892D02*
X016380Y014892D01*
X017698Y014900D02*
X017698Y014486D01*
X017698Y014900D02*
X017758Y014900D01*
X017758Y014486D01*
X017698Y014486D01*
X017698Y014544D02*
X017758Y014544D01*
X017758Y014602D02*
X017698Y014602D01*
X017698Y014660D02*
X017758Y014660D01*
X017758Y014718D02*
X017698Y014718D01*
X017698Y014776D02*
X017758Y014776D01*
X017758Y014834D02*
X017698Y014834D01*
X017698Y014892D02*
X017758Y014892D01*
X017875Y014308D02*
X018289Y014308D01*
X017875Y014308D02*
X017875Y014368D01*
X018289Y014368D01*
X018289Y014308D01*
X018289Y014366D02*
X017875Y014366D01*
X010022Y014308D02*
X009608Y014308D01*
X009608Y014368D01*
X010022Y014368D01*
X010022Y014308D01*
X010022Y014366D02*
X009608Y014366D01*
X009430Y014486D02*
X009430Y014900D01*
X009490Y014900D01*
X009490Y014486D01*
X009430Y014486D01*
X009430Y014544D02*
X009490Y014544D01*
X009490Y014602D02*
X009430Y014602D01*
X009430Y014660D02*
X009490Y014660D01*
X009490Y014718D02*
X009430Y014718D01*
X009430Y014776D02*
X009490Y014776D01*
X009490Y014834D02*
X009430Y014834D01*
X009430Y014892D02*
X009490Y014892D01*
X008052Y014900D02*
X008052Y014486D01*
X008052Y014900D02*
X008112Y014900D01*
X008112Y014486D01*
X008052Y014486D01*
X008052Y014544D02*
X008112Y014544D01*
X008112Y014602D02*
X008052Y014602D01*
X008052Y014660D02*
X008112Y014660D01*
X008112Y014718D02*
X008052Y014718D01*
X008052Y014776D02*
X008112Y014776D01*
X008112Y014834D02*
X008052Y014834D01*
X008052Y014892D02*
X008112Y014892D01*
X007935Y014308D02*
X007521Y014308D01*
X007521Y014368D01*
X007935Y014368D01*
X007935Y014308D01*
X007935Y014366D02*
X007521Y014366D01*
X007521Y012930D02*
X007935Y012930D01*
X007521Y012930D02*
X007521Y012990D01*
X007935Y012990D01*
X007935Y012930D01*
X007935Y012988D02*
X007521Y012988D01*
X008052Y012813D02*
X008052Y012399D01*
X008052Y012813D02*
X008112Y012813D01*
X008112Y012399D01*
X008052Y012399D01*
X008052Y012457D02*
X008112Y012457D01*
X008112Y012515D02*
X008052Y012515D01*
X008052Y012573D02*
X008112Y012573D01*
X008112Y012631D02*
X008052Y012631D01*
X008052Y012689D02*
X008112Y012689D01*
X008112Y012747D02*
X008052Y012747D01*
X008052Y012805D02*
X008112Y012805D01*
X009430Y012813D02*
X009430Y012399D01*
X009430Y012813D02*
X009490Y012813D01*
X009490Y012399D01*
X009430Y012399D01*
X009430Y012457D02*
X009490Y012457D01*
X009490Y012515D02*
X009430Y012515D01*
X009430Y012573D02*
X009490Y012573D01*
X009490Y012631D02*
X009430Y012631D01*
X009430Y012689D02*
X009490Y012689D01*
X009490Y012747D02*
X009430Y012747D01*
X009430Y012805D02*
X009490Y012805D01*
X009608Y012930D02*
X010022Y012930D01*
X009608Y012930D02*
X009608Y012990D01*
X010022Y012990D01*
X010022Y012930D01*
X010022Y012988D02*
X009608Y012988D01*
D13*
X009263Y012606D03*
X009066Y012606D03*
X008870Y012606D03*
X008673Y012606D03*
X008476Y012606D03*
X008279Y012606D03*
X008279Y014693D03*
X008476Y014693D03*
X008673Y014693D03*
X008870Y014693D03*
X009066Y014693D03*
X009263Y014693D03*
X016547Y014693D03*
X016744Y014693D03*
X016941Y014693D03*
X017137Y014693D03*
X017334Y014693D03*
X017531Y014693D03*
X017531Y012606D03*
X017334Y012606D03*
X017137Y012606D03*
X016941Y012606D03*
X016744Y012606D03*
X016547Y012606D03*
X024815Y012606D03*
X025011Y012606D03*
X025208Y012606D03*
X025405Y012606D03*
X025602Y012606D03*
X025799Y012606D03*
X025799Y014693D03*
X025602Y014693D03*
X025405Y014693D03*
X025208Y014693D03*
X025011Y014693D03*
X024815Y014693D03*
X033082Y014693D03*
X033279Y014693D03*
X033476Y014693D03*
X033673Y014693D03*
X033870Y014693D03*
X034066Y014693D03*
X034066Y012606D03*
X033870Y012606D03*
X033673Y012606D03*
X033476Y012606D03*
X033279Y012606D03*
X033082Y012606D03*
X033082Y024889D03*
X033279Y024889D03*
X033476Y024889D03*
X033673Y024889D03*
X033870Y024889D03*
X034066Y024889D03*
X034066Y026976D03*
X033870Y026976D03*
X033673Y026976D03*
X033476Y026976D03*
X033279Y026976D03*
X033082Y026976D03*
X025799Y026976D03*
X025602Y026976D03*
X025405Y026976D03*
X025208Y026976D03*
X025011Y026976D03*
X024815Y026976D03*
X024815Y024889D03*
X025011Y024889D03*
X025208Y024889D03*
X025405Y024889D03*
X025602Y024889D03*
X025799Y024889D03*
X017531Y024889D03*
X017334Y024889D03*
X017137Y024889D03*
X016941Y024889D03*
X016744Y024889D03*
X016547Y024889D03*
X016547Y026976D03*
X016744Y026976D03*
X016941Y026976D03*
X017137Y026976D03*
X017334Y026976D03*
X017531Y026976D03*
X009263Y026976D03*
X009066Y026976D03*
X008870Y026976D03*
X008673Y026976D03*
X008476Y026976D03*
X008279Y026976D03*
X008279Y024889D03*
X008476Y024889D03*
X008673Y024889D03*
X008870Y024889D03*
X009066Y024889D03*
X009263Y024889D03*
D14*
X009815Y025441D03*
X009815Y025637D03*
X009815Y025834D03*
X009815Y026031D03*
X009815Y026228D03*
X009815Y026425D03*
X007728Y026425D03*
X007728Y026228D03*
X007728Y026031D03*
X007728Y025834D03*
X007728Y025637D03*
X007728Y025441D03*
X007752Y029171D03*
X007752Y029427D03*
X007752Y029683D03*
X007752Y029939D03*
X006010Y029939D03*
X006010Y029683D03*
X006010Y029427D03*
X006010Y029171D03*
X014278Y029171D03*
X014278Y029427D03*
X014278Y029683D03*
X014278Y029939D03*
X016020Y029939D03*
X016020Y029683D03*
X016020Y029427D03*
X016020Y029171D03*
X015996Y026425D03*
X015996Y026228D03*
X015996Y026031D03*
X015996Y025834D03*
X015996Y025637D03*
X015996Y025441D03*
X018082Y025441D03*
X018082Y025637D03*
X018082Y025834D03*
X018082Y026031D03*
X018082Y026228D03*
X018082Y026425D03*
X022546Y029171D03*
X022546Y029427D03*
X022546Y029683D03*
X022546Y029939D03*
X024288Y029939D03*
X024288Y029683D03*
X024288Y029427D03*
X024288Y029171D03*
X024263Y026425D03*
X024263Y026228D03*
X024263Y026031D03*
X024263Y025834D03*
X024263Y025637D03*
X024263Y025441D03*
X026350Y025441D03*
X026350Y025637D03*
X026350Y025834D03*
X026350Y026031D03*
X026350Y026228D03*
X026350Y026425D03*
X030813Y029171D03*
X030813Y029427D03*
X030813Y029683D03*
X030813Y029939D03*
X032555Y029939D03*
X032555Y029683D03*
X032555Y029427D03*
X032555Y029171D03*
X032531Y026425D03*
X032531Y026228D03*
X032531Y026031D03*
X032531Y025834D03*
X032531Y025637D03*
X032531Y025441D03*
X034618Y025441D03*
X034618Y025637D03*
X034618Y025834D03*
X034618Y026031D03*
X034618Y026228D03*
X034618Y026425D03*
X032555Y017656D03*
X032555Y017400D03*
X032555Y017144D03*
X032555Y016888D03*
X030813Y016888D03*
X030813Y017144D03*
X030813Y017400D03*
X030813Y017656D03*
X032531Y014141D03*
X032531Y013944D03*
X032531Y013748D03*
X032531Y013551D03*
X032531Y013354D03*
X032531Y013157D03*
X034618Y013157D03*
X034618Y013354D03*
X034618Y013551D03*
X034618Y013748D03*
X034618Y013944D03*
X034618Y014141D03*
X026350Y014141D03*
X026350Y013944D03*
X026350Y013748D03*
X026350Y013551D03*
X026350Y013354D03*
X026350Y013157D03*
X024263Y013157D03*
X024263Y013354D03*
X024263Y013551D03*
X024263Y013748D03*
X024263Y013944D03*
X024263Y014141D03*
X024288Y016888D03*
X024288Y017144D03*
X024288Y017400D03*
X024288Y017656D03*
X022546Y017656D03*
X022546Y017400D03*
X022546Y017144D03*
X022546Y016888D03*
X018082Y014141D03*
X018082Y013944D03*
X018082Y013748D03*
X018082Y013551D03*
X018082Y013354D03*
X018082Y013157D03*
X015996Y013157D03*
X015996Y013354D03*
X015996Y013551D03*
X015996Y013748D03*
X015996Y013944D03*
X015996Y014141D03*
X016020Y016888D03*
X016020Y017144D03*
X016020Y017400D03*
X016020Y017656D03*
X014278Y017656D03*
X014278Y017400D03*
X014278Y017144D03*
X014278Y016888D03*
X009815Y014141D03*
X009815Y013944D03*
X009815Y013748D03*
X009815Y013551D03*
X009815Y013354D03*
X009815Y013157D03*
X007728Y013157D03*
X007728Y013354D03*
X007728Y013551D03*
X007728Y013748D03*
X007728Y013944D03*
X007728Y014141D03*
X007752Y016888D03*
X007752Y017144D03*
X007752Y017400D03*
X007752Y017656D03*
X006010Y017656D03*
X006010Y017400D03*
X006010Y017144D03*
X006010Y016888D03*
D15*
X008771Y013649D03*
X017039Y013649D03*
X025307Y013649D03*
X033574Y013649D03*
X033574Y025933D03*
X025307Y025933D03*
X017039Y025933D03*
X008771Y025933D03*
D16*
X007866Y024397D03*
X007393Y024397D03*
X006094Y024200D03*
X006094Y023689D03*
X006094Y023216D03*
X006094Y022704D03*
X006094Y022232D03*
X006094Y021838D03*
X006094Y021366D03*
X007511Y022350D03*
X007984Y022350D03*
X008732Y023452D03*
X009204Y023452D03*
X009204Y023925D03*
X008732Y023925D03*
X006094Y024673D03*
X006094Y025224D03*
X006094Y025696D03*
X006094Y026169D03*
X006094Y026641D03*
X006094Y027074D03*
X006094Y027547D03*
X006094Y027941D03*
X006094Y028413D03*
X007905Y028728D03*
X008378Y028728D03*
X009519Y028059D03*
X009992Y028059D03*
X009992Y027586D03*
X009519Y027586D03*
X011212Y029437D03*
X011212Y029909D03*
X009086Y030145D03*
X008338Y030145D03*
X008338Y030618D03*
X009086Y030618D03*
X006409Y030381D03*
X005937Y030381D03*
X014204Y030381D03*
X014677Y030381D03*
X016606Y030145D03*
X017354Y030145D03*
X017354Y030618D03*
X016606Y030618D03*
X016645Y028728D03*
X016173Y028728D03*
X017787Y028059D03*
X018259Y028059D03*
X018259Y027586D03*
X017787Y027586D03*
X019480Y029437D03*
X019480Y029909D03*
X022472Y030381D03*
X022944Y030381D03*
X024874Y030145D03*
X024874Y030618D03*
X025622Y030618D03*
X025622Y030145D03*
X024913Y028728D03*
X024441Y028728D03*
X026055Y028059D03*
X026527Y028059D03*
X026527Y027586D03*
X026055Y027586D03*
X027748Y029437D03*
X027748Y029909D03*
X030740Y030381D03*
X031212Y030381D03*
X033141Y030145D03*
X033141Y030618D03*
X033889Y030618D03*
X033889Y030145D03*
X033181Y028728D03*
X032708Y028728D03*
X034322Y028059D03*
X034322Y027586D03*
X034795Y027586D03*
X034795Y028059D03*
X036015Y029437D03*
X036015Y029909D03*
X030897Y028413D03*
X030897Y027941D03*
X030897Y027547D03*
X030897Y027074D03*
X030897Y026641D03*
X030897Y026169D03*
X030897Y025696D03*
X030897Y025224D03*
X030897Y024673D03*
X030897Y024200D03*
X030897Y023689D03*
X030897Y023216D03*
X030897Y022704D03*
X030897Y022232D03*
X030897Y021838D03*
X030897Y021366D03*
X032315Y022350D03*
X032787Y022350D03*
X033535Y023452D03*
X034007Y023452D03*
X034007Y023925D03*
X033535Y023925D03*
X032669Y024397D03*
X032196Y024397D03*
X033141Y018334D03*
X033141Y017862D03*
X033889Y017862D03*
X033889Y018334D03*
X033181Y016444D03*
X032708Y016444D03*
X034322Y015775D03*
X034322Y015303D03*
X034795Y015303D03*
X034795Y015775D03*
X036015Y017153D03*
X036015Y017626D03*
X031212Y018098D03*
X030740Y018098D03*
X030897Y016130D03*
X030897Y015657D03*
X030897Y015263D03*
X030897Y014791D03*
X030897Y014358D03*
X030897Y013885D03*
X030897Y013413D03*
X030897Y012941D03*
X030897Y012389D03*
X030897Y011917D03*
X030897Y011405D03*
X030897Y010933D03*
X030897Y010421D03*
X030897Y009948D03*
X030897Y009555D03*
X030897Y009082D03*
X032315Y010067D03*
X032787Y010067D03*
X033535Y011169D03*
X033535Y011641D03*
X034007Y011641D03*
X034007Y011169D03*
X032669Y012114D03*
X032196Y012114D03*
X027748Y017153D03*
X027748Y017626D03*
X026527Y015775D03*
X026527Y015303D03*
X026055Y015303D03*
X026055Y015775D03*
X024913Y016444D03*
X024441Y016444D03*
X024874Y017862D03*
X024874Y018334D03*
X025622Y018334D03*
X025622Y017862D03*
X022944Y018098D03*
X022472Y018098D03*
X022629Y016130D03*
X022629Y015657D03*
X022629Y015263D03*
X022629Y014791D03*
X022629Y014358D03*
X022629Y013885D03*
X022629Y013413D03*
X022629Y012941D03*
X022629Y012389D03*
X022629Y011917D03*
X022629Y011405D03*
X022629Y010933D03*
X022629Y010421D03*
X022629Y009948D03*
X022629Y009555D03*
X022629Y009082D03*
X024047Y010067D03*
X024519Y010067D03*
X025267Y011169D03*
X025267Y011641D03*
X025740Y011641D03*
X025740Y011169D03*
X024401Y012114D03*
X023929Y012114D03*
X019480Y017153D03*
X019480Y017626D03*
X018259Y015775D03*
X018259Y015303D03*
X017787Y015303D03*
X017787Y015775D03*
X016645Y016444D03*
X016173Y016444D03*
X016606Y017862D03*
X017354Y017862D03*
X017354Y018334D03*
X016606Y018334D03*
X014677Y018098D03*
X014204Y018098D03*
X014362Y016130D03*
X014362Y015657D03*
X014362Y015263D03*
X014362Y014791D03*
X014362Y014358D03*
X014362Y013885D03*
X014362Y013413D03*
X014362Y012941D03*
X014362Y012389D03*
X014362Y011917D03*
X014362Y011405D03*
X014362Y010933D03*
X014362Y010421D03*
X014362Y009948D03*
X014362Y009555D03*
X014362Y009082D03*
X015779Y010067D03*
X016252Y010067D03*
X017000Y011169D03*
X017472Y011169D03*
X017472Y011641D03*
X017000Y011641D03*
X016133Y012114D03*
X015661Y012114D03*
X011212Y017153D03*
X011212Y017626D03*
X009992Y015775D03*
X009992Y015303D03*
X009519Y015303D03*
X009519Y015775D03*
X008378Y016444D03*
X007905Y016444D03*
X008338Y017862D03*
X009086Y017862D03*
X009086Y018334D03*
X008338Y018334D03*
X006409Y018098D03*
X005937Y018098D03*
X006094Y016130D03*
X006094Y015657D03*
X006094Y015263D03*
X006094Y014791D03*
X006094Y014358D03*
X006094Y013885D03*
X006094Y013413D03*
X006094Y012941D03*
X006094Y012389D03*
X006094Y011917D03*
X006094Y011405D03*
X006094Y010933D03*
X006094Y010421D03*
X006094Y009948D03*
X006094Y009555D03*
X006094Y009082D03*
X007511Y010067D03*
X007984Y010067D03*
X008732Y011169D03*
X009204Y011169D03*
X009204Y011641D03*
X008732Y011641D03*
X007866Y012114D03*
X007393Y012114D03*
X014362Y021366D03*
X014362Y021838D03*
X014362Y022232D03*
X014362Y022704D03*
X014362Y023216D03*
X014362Y023689D03*
X014362Y024200D03*
X014362Y024673D03*
X014362Y025224D03*
X014362Y025696D03*
X014362Y026169D03*
X014362Y026641D03*
X014362Y027074D03*
X014362Y027547D03*
X014362Y027941D03*
X014362Y028413D03*
X015661Y024397D03*
X016133Y024397D03*
X017000Y023925D03*
X017472Y023925D03*
X017472Y023452D03*
X017000Y023452D03*
X016252Y022350D03*
X015779Y022350D03*
X022629Y022232D03*
X022629Y021838D03*
X022629Y021366D03*
X022629Y022704D03*
X022629Y023216D03*
X022629Y023689D03*
X022629Y024200D03*
X022629Y024673D03*
X022629Y025224D03*
X022629Y025696D03*
X022629Y026169D03*
X022629Y026641D03*
X022629Y027074D03*
X022629Y027547D03*
X022629Y027941D03*
X022629Y028413D03*
X023929Y024397D03*
X024401Y024397D03*
X025267Y023925D03*
X025267Y023452D03*
X025740Y023452D03*
X025740Y023925D03*
X024519Y022350D03*
X024047Y022350D03*
D17*
X022472Y018492D03*
X025228Y018334D03*
X025228Y017822D03*
X025267Y016444D03*
X030740Y018492D03*
X033496Y018334D03*
X033496Y017822D03*
X033535Y016444D03*
X033535Y028728D03*
X033496Y030106D03*
X033496Y030618D03*
X030740Y030775D03*
X025228Y030618D03*
X025228Y030106D03*
X025267Y028728D03*
X022472Y030775D03*
X016960Y030618D03*
X016960Y030106D03*
X017000Y028728D03*
X014204Y030775D03*
X008732Y028728D03*
X008692Y030106D03*
X008692Y030618D03*
X005937Y030775D03*
X005937Y018492D03*
X008692Y018334D03*
X008692Y017822D03*
X008732Y016444D03*
X014204Y018492D03*
X016960Y018334D03*
X016960Y017822D03*
X017000Y016444D03*
D18*
X033535Y006405D03*
X010622Y035224D03*
D19*
X010543Y030086D03*
X010799Y030086D03*
X010287Y030086D03*
X009933Y030086D03*
X009421Y030086D03*
X009421Y029417D03*
X009677Y029417D03*
X009933Y029417D03*
X010287Y029417D03*
X010799Y029417D03*
X017689Y029417D03*
X017944Y029417D03*
X018200Y029417D03*
X018555Y029417D03*
X019066Y029417D03*
X019066Y030086D03*
X018811Y030086D03*
X018555Y030086D03*
X018200Y030086D03*
X017689Y030086D03*
X025956Y030086D03*
X026468Y030086D03*
X026822Y030086D03*
X027078Y030086D03*
X027334Y030086D03*
X027334Y029417D03*
X026822Y029417D03*
X026468Y029417D03*
X026212Y029417D03*
X025956Y029417D03*
X034224Y029417D03*
X034480Y029417D03*
X034736Y029417D03*
X035090Y029417D03*
X035602Y029417D03*
X035602Y030086D03*
X035346Y030086D03*
X035090Y030086D03*
X034736Y030086D03*
X034224Y030086D03*
X034224Y017803D03*
X034736Y017803D03*
X035090Y017803D03*
X035346Y017803D03*
X035602Y017803D03*
X035602Y017133D03*
X035090Y017133D03*
X034736Y017133D03*
X034480Y017133D03*
X034224Y017133D03*
X027334Y017133D03*
X026822Y017133D03*
X026468Y017133D03*
X026212Y017133D03*
X025956Y017133D03*
X025956Y017803D03*
X026468Y017803D03*
X026822Y017803D03*
X027078Y017803D03*
X027334Y017803D03*
X019066Y017803D03*
X018811Y017803D03*
X018555Y017803D03*
X018200Y017803D03*
X017689Y017803D03*
X017689Y017133D03*
X017944Y017133D03*
X018200Y017133D03*
X018555Y017133D03*
X019066Y017133D03*
X010799Y017133D03*
X010287Y017133D03*
X009933Y017133D03*
X009677Y017133D03*
X009421Y017133D03*
X009421Y017803D03*
X009933Y017803D03*
X010287Y017803D03*
X010543Y017803D03*
X010799Y017803D03*
D20*
X006881Y017271D03*
X015149Y017271D03*
X023417Y017271D03*
X031685Y017271D03*
X031685Y029555D03*
X023417Y029555D03*
X015149Y029555D03*
X006881Y029555D03*
D21*
X007374Y023826D03*
X008043Y023826D03*
X008043Y022921D03*
X007374Y022921D03*
X015641Y022921D03*
X016311Y022921D03*
X016311Y023826D03*
X015641Y023826D03*
X023909Y023826D03*
X024578Y023826D03*
X024578Y022921D03*
X023909Y022921D03*
X032177Y022921D03*
X032846Y022921D03*
X032846Y023826D03*
X032177Y023826D03*
X032177Y011543D03*
X032846Y011543D03*
X032846Y010637D03*
X032177Y010637D03*
X024578Y010637D03*
X023909Y010637D03*
X023909Y011543D03*
X024578Y011543D03*
X016311Y011543D03*
X015641Y011543D03*
X015641Y010637D03*
X016311Y010637D03*
X008043Y010637D03*
X007374Y010637D03*
X007374Y011543D03*
X008043Y011543D03*
D22*
X008771Y013649D03*
X017039Y013649D03*
X025307Y013649D03*
X033574Y013649D03*
X033574Y025933D03*
X025307Y025933D03*
X017039Y025933D03*
X008771Y025933D03*
D23*
X007787Y024673D03*
X008732Y023177D03*
X009204Y023177D03*
X009519Y023807D03*
X009519Y024043D03*
X011685Y025185D03*
X011803Y027114D03*
X010818Y027941D03*
X010425Y027980D03*
X010464Y027586D03*
X009992Y027822D03*
X011055Y028492D03*
X011291Y028216D03*
X011212Y029161D03*
X010307Y029122D03*
X009952Y030381D03*
X009677Y030657D03*
X009086Y030933D03*
X008338Y030933D03*
X007078Y029752D03*
X006685Y029752D03*
X006685Y029358D03*
X007078Y029358D03*
X006252Y028964D03*
X005818Y027941D03*
X005818Y027074D03*
X005818Y026169D03*
X005818Y025224D03*
X005818Y024200D03*
X005818Y023216D03*
X005818Y022035D03*
X007236Y022350D03*
X008338Y018649D03*
X009086Y018649D03*
X009677Y018374D03*
X009952Y018098D03*
X010307Y016838D03*
X011212Y016878D03*
X011055Y016208D03*
X011291Y015933D03*
X010818Y015657D03*
X010425Y015696D03*
X010464Y015303D03*
X009992Y015539D03*
X008968Y016248D03*
X008968Y016484D03*
X008968Y016720D03*
X008141Y016878D03*
X007078Y017074D03*
X006685Y017074D03*
X006685Y017468D03*
X007078Y017468D03*
X006685Y018098D03*
X006252Y016681D03*
X005818Y015657D03*
X005818Y014791D03*
X005818Y013885D03*
X005818Y012941D03*
X005818Y011917D03*
X005818Y010933D03*
X005818Y009752D03*
X007236Y010067D03*
X008732Y010893D03*
X009204Y010893D03*
X009519Y011523D03*
X009519Y011759D03*
X007787Y012389D03*
X011685Y012901D03*
X011803Y014830D03*
X014086Y014791D03*
X014086Y015657D03*
X014519Y016681D03*
X014952Y017074D03*
X015346Y017074D03*
X015346Y017468D03*
X014952Y017468D03*
X014952Y018098D03*
X016606Y018649D03*
X017354Y018649D03*
X017944Y018374D03*
X018220Y018098D03*
X018574Y016838D03*
X019322Y016208D03*
X019559Y015933D03*
X019086Y015657D03*
X018692Y015696D03*
X018732Y015303D03*
X018259Y015539D03*
X017236Y016248D03*
X017236Y016484D03*
X017236Y016720D03*
X016409Y016878D03*
X019480Y016878D03*
X020070Y014830D03*
X019952Y012901D03*
X022354Y012941D03*
X022354Y013885D03*
X022354Y014791D03*
X022354Y015657D03*
X022787Y016681D03*
X023220Y017074D03*
X023614Y017074D03*
X023614Y017468D03*
X023220Y017468D03*
X023220Y018098D03*
X024874Y018649D03*
X025622Y018649D03*
X026212Y018374D03*
X026488Y018098D03*
X026842Y016838D03*
X027590Y016208D03*
X027826Y015933D03*
X027354Y015657D03*
X026960Y015696D03*
X027000Y015303D03*
X026527Y015539D03*
X025503Y016248D03*
X025503Y016484D03*
X025503Y016720D03*
X024677Y016878D03*
X027748Y016878D03*
X028338Y014830D03*
X028220Y012901D03*
X030622Y012941D03*
X030622Y013885D03*
X030622Y014791D03*
X030622Y015657D03*
X031055Y016681D03*
X031488Y017074D03*
X031881Y017074D03*
X031881Y017468D03*
X031488Y017468D03*
X031488Y018098D03*
X033141Y018649D03*
X033889Y018649D03*
X034480Y018374D03*
X034755Y018098D03*
X035110Y016838D03*
X035858Y016208D03*
X036094Y015933D03*
X035622Y015657D03*
X035228Y015696D03*
X035267Y015303D03*
X034795Y015539D03*
X033771Y016248D03*
X033771Y016484D03*
X033771Y016720D03*
X032944Y016878D03*
X036015Y016878D03*
X036606Y014830D03*
X036488Y012901D03*
X034322Y011759D03*
X034322Y011523D03*
X034007Y010893D03*
X033535Y010893D03*
X032039Y010067D03*
X030622Y009752D03*
X030622Y010933D03*
X030622Y011917D03*
X032590Y012389D03*
X026055Y011759D03*
X026055Y011523D03*
X025740Y010893D03*
X025267Y010893D03*
X023771Y010067D03*
X022354Y009752D03*
X022354Y010933D03*
X022354Y011917D03*
X024322Y012389D03*
X017787Y011759D03*
X017787Y011523D03*
X017472Y010893D03*
X017000Y010893D03*
X015503Y010067D03*
X014086Y009752D03*
X014086Y010933D03*
X014086Y011917D03*
X014086Y012941D03*
X014086Y013885D03*
X016055Y012389D03*
X014086Y022035D03*
X014086Y023216D03*
X014086Y024200D03*
X014086Y025224D03*
X014086Y026169D03*
X014086Y027074D03*
X014086Y027941D03*
X014519Y028964D03*
X014952Y029358D03*
X014952Y029752D03*
X015346Y029752D03*
X015346Y029358D03*
X016409Y029161D03*
X017236Y029004D03*
X017236Y028767D03*
X017236Y028531D03*
X018259Y027822D03*
X018692Y027980D03*
X018732Y027586D03*
X019086Y027941D03*
X019559Y028216D03*
X019322Y028492D03*
X019480Y029161D03*
X018574Y029122D03*
X018220Y030381D03*
X017944Y030657D03*
X017354Y030933D03*
X016606Y030933D03*
X014952Y030381D03*
X020070Y027114D03*
X019952Y025185D03*
X022354Y025224D03*
X022354Y026169D03*
X022354Y027074D03*
X022354Y027941D03*
X022787Y028964D03*
X023220Y029358D03*
X023220Y029752D03*
X023614Y029752D03*
X023614Y029358D03*
X024677Y029161D03*
X025503Y029004D03*
X025503Y028767D03*
X025503Y028531D03*
X026527Y027822D03*
X026960Y027980D03*
X027000Y027586D03*
X027354Y027941D03*
X027826Y028216D03*
X027590Y028492D03*
X027748Y029161D03*
X026842Y029122D03*
X026488Y030381D03*
X026212Y030657D03*
X025622Y030933D03*
X024874Y030933D03*
X023220Y030381D03*
X028338Y027114D03*
X028220Y025185D03*
X030622Y025224D03*
X030622Y026169D03*
X030622Y027074D03*
X030622Y027941D03*
X031055Y028964D03*
X031488Y029358D03*
X031881Y029358D03*
X031881Y029752D03*
X031488Y029752D03*
X031488Y030381D03*
X033141Y030933D03*
X033889Y030933D03*
X034480Y030657D03*
X034755Y030381D03*
X035110Y029122D03*
X035858Y028492D03*
X036094Y028216D03*
X035622Y027941D03*
X035228Y027980D03*
X035267Y027586D03*
X034795Y027822D03*
X033771Y028531D03*
X033771Y028767D03*
X033771Y029004D03*
X032944Y029161D03*
X036015Y029161D03*
X036606Y027114D03*
X036488Y025185D03*
X034322Y024043D03*
X034322Y023807D03*
X034007Y023177D03*
X033535Y023177D03*
X032039Y022350D03*
X030622Y022035D03*
X030622Y023216D03*
X030622Y024200D03*
X032590Y024673D03*
X026055Y024043D03*
X026055Y023807D03*
X025740Y023177D03*
X025267Y023177D03*
X023771Y022350D03*
X022354Y022035D03*
X022354Y023216D03*
X022354Y024200D03*
X024322Y024673D03*
X017787Y024043D03*
X017787Y023807D03*
X017472Y023177D03*
X017000Y023177D03*
X015503Y022350D03*
X016055Y024673D03*
X008968Y028531D03*
X008968Y028767D03*
X008968Y029004D03*
X008141Y029161D03*
X006685Y030381D03*
D24*
X005192Y009173D02*
X005283Y009082D01*
X006094Y009082D01*
X006370Y009358D01*
X006370Y010421D01*
X006606Y010657D01*
X006606Y011366D01*
X006763Y011523D01*
X006763Y012232D01*
X006960Y012429D01*
X006960Y012822D01*
X007295Y013157D01*
X007728Y013157D01*
X007728Y012960D02*
X007452Y012960D01*
X007157Y012665D01*
X007157Y012350D01*
X006960Y012153D01*
X006960Y009988D01*
X007236Y009712D01*
X008220Y009712D01*
X008456Y009948D01*
X011370Y009948D01*
X012145Y009173D01*
X012192Y009173D01*
X011488Y010342D02*
X008574Y010342D01*
X008574Y010918D01*
X008594Y010938D01*
X008594Y011267D01*
X009322Y011267D01*
X009322Y011011D01*
X011488Y011011D01*
X011488Y010342D01*
X011488Y010349D02*
X008574Y010349D01*
X008574Y010446D02*
X011488Y010446D01*
X011488Y010543D02*
X008574Y010543D01*
X008574Y010640D02*
X011488Y010640D01*
X011488Y010737D02*
X008574Y010737D01*
X008574Y010834D02*
X011488Y010834D01*
X011488Y010931D02*
X008587Y010931D01*
X008594Y011028D02*
X009322Y011028D01*
X009322Y011124D02*
X008594Y011124D01*
X008594Y011221D02*
X009322Y011221D01*
X009598Y011444D02*
X009598Y011858D01*
X009210Y011858D01*
X009106Y011962D01*
X008889Y012178D01*
X008889Y012307D01*
X008879Y012317D01*
X008879Y012350D01*
X008860Y012350D01*
X008860Y012317D01*
X008785Y012242D01*
X008561Y012242D01*
X008486Y012317D01*
X008486Y012350D01*
X008466Y012350D01*
X008466Y012317D01*
X008456Y012307D01*
X008456Y012286D01*
X008490Y012252D01*
X008594Y012148D01*
X008594Y011444D01*
X009598Y011444D01*
X009598Y011512D02*
X008594Y011512D01*
X008594Y011609D02*
X009598Y011609D01*
X009598Y011706D02*
X008594Y011706D01*
X008594Y011803D02*
X009598Y011803D01*
X009677Y012035D02*
X009283Y012035D01*
X009066Y012252D01*
X009066Y012606D01*
X008870Y012606D02*
X008870Y012173D01*
X008889Y012191D02*
X008551Y012191D01*
X008515Y012288D02*
X008456Y012288D01*
X008279Y012212D02*
X008417Y012074D01*
X008417Y011011D01*
X008043Y010637D01*
X007984Y010578D01*
X007984Y010067D01*
X007374Y010637D02*
X007374Y010677D01*
X007629Y010933D01*
X007787Y011248D01*
X008043Y011504D01*
X008043Y011543D01*
X008594Y011900D02*
X009168Y011900D01*
X009071Y011997D02*
X008594Y011997D01*
X008594Y012094D02*
X008974Y012094D01*
X008889Y012288D02*
X008831Y012288D01*
X008673Y012606D02*
X008673Y013551D01*
X008771Y013649D01*
X009815Y013551D02*
X010523Y013551D01*
X011803Y014830D01*
X012078Y014712D02*
X012078Y015059D01*
X012192Y015173D01*
X011763Y015145D02*
X011763Y016405D01*
X012157Y016838D01*
X012157Y017137D01*
X012192Y017173D01*
X011763Y016720D02*
X011763Y017822D01*
X012114Y018173D01*
X012192Y018173D01*
X011320Y017734D02*
X011320Y017517D01*
X011018Y017517D01*
X010966Y017465D01*
X010966Y017399D01*
X010667Y017399D01*
X010592Y017324D01*
X010592Y016943D01*
X010667Y016868D01*
X010931Y016868D01*
X010966Y016903D01*
X010966Y016829D01*
X011004Y016738D01*
X011073Y016669D01*
X011163Y016631D01*
X011261Y016631D01*
X011352Y016669D01*
X011421Y016738D01*
X011448Y016805D01*
X011448Y016656D01*
X011389Y016597D01*
X011389Y016208D01*
X011301Y016208D01*
X011301Y016257D01*
X011263Y016348D01*
X011194Y016417D01*
X011104Y016454D01*
X011006Y016454D01*
X010915Y016417D01*
X010846Y016348D01*
X010809Y016257D01*
X010809Y016208D01*
X010282Y016208D01*
X010262Y016228D01*
X009721Y016228D01*
X009702Y016208D01*
X009534Y016208D01*
X009750Y016425D01*
X009854Y016529D01*
X009854Y016907D01*
X010068Y016907D01*
X010070Y016909D01*
X010061Y016887D01*
X010061Y016789D01*
X010098Y016699D01*
X010167Y016630D01*
X010258Y016592D01*
X010356Y016592D01*
X010446Y016630D01*
X010515Y016699D01*
X010553Y016789D01*
X010553Y016887D01*
X010515Y016978D01*
X010494Y016999D01*
X010494Y017324D01*
X010419Y017399D01*
X010155Y017399D01*
X010092Y017336D01*
X010068Y017360D01*
X009994Y017360D01*
X009942Y017308D01*
X009942Y017084D01*
X009923Y017084D01*
X009923Y017308D01*
X009871Y017360D01*
X009848Y017360D01*
X009808Y017399D01*
X009545Y017399D01*
X009506Y017360D01*
X009483Y017360D01*
X009431Y017308D01*
X009431Y017045D01*
X009411Y017045D01*
X009411Y017308D01*
X009359Y017360D01*
X009286Y017360D01*
X009234Y017308D01*
X009234Y016920D01*
X009286Y016868D01*
X009500Y016868D01*
X009500Y016675D01*
X009224Y016400D01*
X009224Y017448D01*
X009553Y017448D01*
X009657Y017552D01*
X009657Y018093D01*
X009553Y018196D01*
X008147Y018196D01*
X007793Y017843D01*
X007463Y017843D01*
X007388Y017768D01*
X007388Y017543D01*
X007404Y017528D01*
X007388Y017512D01*
X007388Y017288D01*
X007404Y017272D01*
X007388Y017256D01*
X007388Y017032D01*
X007404Y017016D01*
X007388Y017000D01*
X007388Y016776D01*
X007463Y016701D01*
X007721Y016701D01*
X007698Y016678D01*
X007698Y016605D01*
X007750Y016553D01*
X008013Y016553D01*
X008013Y016336D01*
X007750Y016336D01*
X007721Y016307D01*
X006994Y016307D01*
X006719Y016582D01*
X006477Y016582D01*
X006498Y016632D01*
X006498Y016730D01*
X006460Y016820D01*
X006391Y016889D01*
X006374Y016896D01*
X006374Y017000D01*
X006358Y017016D01*
X006374Y017032D01*
X006374Y017256D01*
X006299Y017331D01*
X006212Y017331D01*
X006212Y017469D01*
X006299Y017469D01*
X006374Y017543D01*
X006374Y017768D01*
X006299Y017843D01*
X006212Y017843D01*
X006212Y018177D01*
X007748Y018177D01*
X008299Y018728D01*
X009426Y018728D01*
X009539Y018615D01*
X009643Y018511D01*
X010312Y018511D01*
X010366Y018458D01*
X010366Y018069D01*
X010198Y018069D01*
X010198Y018147D01*
X010161Y018237D01*
X010092Y018307D01*
X010001Y018344D01*
X009903Y018344D01*
X009813Y018307D01*
X009744Y018237D01*
X009706Y018147D01*
X009706Y018049D01*
X009728Y017996D01*
X009726Y017994D01*
X009726Y017612D01*
X009801Y017537D01*
X010064Y017537D01*
X010128Y017600D01*
X010152Y017576D01*
X010225Y017576D01*
X010277Y017628D01*
X010277Y017891D01*
X010297Y017891D01*
X010297Y017628D01*
X010349Y017576D01*
X010372Y017576D01*
X010411Y017537D01*
X010675Y017537D01*
X010714Y017576D01*
X010737Y017576D01*
X010789Y017628D01*
X010789Y017891D01*
X010809Y017891D01*
X010809Y017628D01*
X010861Y017576D01*
X010934Y017576D01*
X010986Y017628D01*
X010986Y017766D01*
X011018Y017734D01*
X011320Y017734D01*
X011320Y017715D02*
X010986Y017715D01*
X010976Y017618D02*
X011320Y017618D01*
X011320Y017522D02*
X009626Y017522D01*
X009657Y017618D02*
X009726Y017618D01*
X009726Y017715D02*
X009657Y017715D01*
X009657Y017812D02*
X009726Y017812D01*
X009726Y017909D02*
X009657Y017909D01*
X009657Y018006D02*
X009724Y018006D01*
X009706Y018103D02*
X009647Y018103D01*
X009728Y018200D02*
X007771Y018200D01*
X007868Y018297D02*
X009803Y018297D01*
X009952Y018098D02*
X009952Y017822D01*
X009933Y017803D01*
X010277Y017812D02*
X010297Y017812D01*
X010297Y017715D02*
X010277Y017715D01*
X010267Y017618D02*
X010307Y017618D01*
X010543Y017803D02*
X010543Y018531D01*
X010385Y018689D01*
X009716Y018689D01*
X009232Y019173D01*
X009192Y019173D01*
X009469Y018685D02*
X008255Y018685D01*
X008159Y018588D02*
X009566Y018588D01*
X009480Y018019D02*
X008220Y018019D01*
X007826Y017626D01*
X009480Y017626D01*
X009480Y018019D01*
X009480Y018006D02*
X008207Y018006D01*
X008181Y017901D02*
X007935Y017656D01*
X007752Y017656D01*
X007916Y017715D02*
X009480Y017715D01*
X009480Y017812D02*
X008013Y017812D01*
X008110Y017909D02*
X009480Y017909D01*
X009224Y017425D02*
X010966Y017425D01*
X010818Y017618D02*
X010779Y017618D01*
X010789Y017715D02*
X010809Y017715D01*
X010809Y017812D02*
X010789Y017812D01*
X010366Y018103D02*
X010198Y018103D01*
X010176Y018200D02*
X010366Y018200D01*
X010366Y018297D02*
X010101Y018297D01*
X010366Y018394D02*
X007965Y018394D01*
X008062Y018491D02*
X010333Y018491D01*
X010490Y017328D02*
X010596Y017328D01*
X010592Y017231D02*
X010494Y017231D01*
X010494Y017134D02*
X010592Y017134D01*
X010592Y017037D02*
X010494Y017037D01*
X010531Y016940D02*
X010595Y016940D01*
X010553Y016843D02*
X010966Y016843D01*
X011000Y016746D02*
X010535Y016746D01*
X010466Y016649D02*
X011120Y016649D01*
X011304Y016649D02*
X011442Y016649D01*
X011448Y016746D02*
X011424Y016746D01*
X011389Y016552D02*
X009854Y016552D01*
X009854Y016649D02*
X010148Y016649D01*
X010078Y016746D02*
X009854Y016746D01*
X009854Y016843D02*
X010061Y016843D01*
X010287Y016858D02*
X010307Y016838D01*
X010287Y016858D02*
X010287Y017133D01*
X009942Y017134D02*
X009923Y017134D01*
X009923Y017231D02*
X009942Y017231D01*
X009962Y017328D02*
X009903Y017328D01*
X009677Y017133D02*
X009677Y016602D01*
X008870Y015795D01*
X008870Y014693D01*
X009066Y014693D02*
X009066Y015322D01*
X009519Y015775D01*
X009795Y016051D01*
X010189Y016051D01*
X010425Y015815D01*
X010425Y015696D01*
X010464Y015303D02*
X010189Y015027D01*
X009795Y015027D01*
X009519Y015303D01*
X009263Y015047D01*
X009263Y014693D01*
X009460Y014693D02*
X010208Y014693D01*
X010818Y015303D01*
X010818Y015657D01*
X011015Y015815D02*
X011015Y016169D01*
X011055Y016208D01*
X011252Y016358D02*
X011389Y016358D01*
X011389Y016262D02*
X011299Y016262D01*
X011389Y016455D02*
X009781Y016455D01*
X009750Y016425D02*
X009750Y016425D01*
X009684Y016358D02*
X010857Y016358D01*
X010810Y016262D02*
X009587Y016262D01*
X009377Y016552D02*
X009224Y016552D01*
X009224Y016455D02*
X009280Y016455D01*
X009224Y016649D02*
X009473Y016649D01*
X009500Y016746D02*
X009224Y016746D01*
X009224Y016843D02*
X009500Y016843D01*
X009234Y016940D02*
X009224Y016940D01*
X009224Y017037D02*
X009234Y017037D01*
X009224Y017134D02*
X009234Y017134D01*
X009224Y017231D02*
X009234Y017231D01*
X009224Y017328D02*
X009254Y017328D01*
X009391Y017328D02*
X009450Y017328D01*
X009431Y017231D02*
X009411Y017231D01*
X009411Y017134D02*
X009431Y017134D01*
X009047Y016819D02*
X009047Y016223D01*
X008993Y016169D01*
X008549Y016169D01*
X008515Y016203D01*
X008412Y016307D01*
X008220Y016307D01*
X008220Y016644D01*
X008281Y016669D01*
X008350Y016738D01*
X008387Y016829D01*
X008387Y016927D01*
X008350Y017017D01*
X008281Y017086D01*
X008220Y017111D01*
X008220Y017429D01*
X008633Y017429D01*
X008633Y016640D01*
X008691Y016582D01*
X008773Y016582D01*
X008830Y016640D01*
X008830Y016681D01*
X008835Y016716D01*
X008871Y016778D01*
X008932Y016814D01*
X008968Y016819D01*
X009047Y016819D01*
X009047Y016746D02*
X008852Y016746D01*
X008830Y016649D02*
X009047Y016649D01*
X009047Y016552D02*
X008220Y016552D01*
X008220Y016455D02*
X009047Y016455D01*
X009047Y016358D02*
X008220Y016358D01*
X008013Y016358D02*
X006942Y016358D01*
X006846Y016455D02*
X008013Y016455D01*
X008013Y016552D02*
X006749Y016552D01*
X006645Y016405D02*
X006921Y016130D01*
X008338Y016130D01*
X008673Y015795D01*
X008673Y014693D01*
X008476Y014693D02*
X008476Y015244D01*
X008192Y015527D01*
X008192Y015673D01*
X008141Y015185D02*
X007551Y015185D01*
X007192Y015543D01*
X007192Y015673D01*
X006645Y016405D02*
X005937Y016405D01*
X005169Y017173D01*
X005192Y017173D01*
X005622Y016996D02*
X005622Y017547D01*
X005730Y017656D01*
X006010Y017656D01*
X006035Y017665D02*
X004923Y017665D01*
X004923Y018728D01*
X007393Y018728D01*
X007984Y019319D01*
X008338Y018964D01*
X008279Y018905D01*
X008225Y018905D01*
X008122Y018801D01*
X007694Y018374D01*
X006252Y018374D01*
X006252Y018364D01*
X006218Y018364D01*
X006208Y018354D01*
X006139Y018354D01*
X006035Y018250D01*
X006035Y017665D01*
X006035Y017715D02*
X004923Y017715D01*
X004923Y017812D02*
X006035Y017812D01*
X006035Y017909D02*
X004923Y017909D01*
X004923Y018006D02*
X006035Y018006D01*
X006035Y018103D02*
X004923Y018103D01*
X004923Y018200D02*
X006035Y018200D01*
X006082Y018297D02*
X004923Y018297D01*
X004923Y018394D02*
X007714Y018394D01*
X007811Y018491D02*
X004923Y018491D01*
X004923Y018588D02*
X007908Y018588D01*
X008005Y018685D02*
X004923Y018685D01*
X006212Y018103D02*
X008053Y018103D01*
X007956Y018006D02*
X006212Y018006D01*
X006212Y017909D02*
X007859Y017909D01*
X007433Y017812D02*
X006330Y017812D01*
X006374Y017715D02*
X007388Y017715D01*
X007388Y017618D02*
X006374Y017618D01*
X006352Y017522D02*
X007398Y017522D01*
X007388Y017425D02*
X006212Y017425D01*
X006302Y017328D02*
X007388Y017328D01*
X007388Y017231D02*
X006374Y017231D01*
X006374Y017134D02*
X007388Y017134D01*
X007388Y017037D02*
X006374Y017037D01*
X006374Y016940D02*
X007388Y016940D01*
X007388Y016843D02*
X006437Y016843D01*
X006491Y016746D02*
X007418Y016746D01*
X007698Y016649D02*
X006498Y016649D01*
X006252Y016681D02*
X006044Y016888D01*
X006010Y016888D01*
X005729Y016888D01*
X005622Y016996D01*
X006010Y017400D02*
X006399Y017400D01*
X006409Y017389D01*
X006094Y016130D02*
X005228Y016130D01*
X005192Y016173D01*
X006094Y016130D02*
X007531Y014693D01*
X008082Y014693D01*
X008279Y014693D02*
X008279Y015047D01*
X008141Y015185D01*
X007728Y014338D02*
X007137Y014338D01*
X006094Y015263D01*
X005283Y015263D01*
X005192Y015173D01*
X005378Y014358D02*
X005192Y014173D01*
X005378Y014358D02*
X006094Y014358D01*
X006311Y014141D01*
X007728Y014141D01*
X007728Y013944D02*
X006626Y013944D01*
X006094Y013413D01*
X005433Y013413D01*
X005192Y013173D01*
X005409Y012389D02*
X005192Y012173D01*
X005409Y012389D02*
X006094Y012389D01*
X006370Y012665D01*
X006370Y013413D01*
X006704Y013748D01*
X007728Y013748D01*
X007728Y013551D02*
X006901Y013551D01*
X006566Y013216D01*
X006566Y012586D01*
X006370Y012389D01*
X006370Y011681D01*
X006094Y011405D01*
X005425Y011405D01*
X005192Y011173D01*
X005441Y010421D02*
X005192Y010173D01*
X005441Y010421D02*
X006094Y010421D01*
X006409Y010736D01*
X006409Y011444D01*
X006566Y011602D01*
X006566Y012311D01*
X006763Y012507D01*
X006763Y013019D01*
X007098Y013354D01*
X007728Y013354D01*
X007551Y012665D02*
X007393Y012507D01*
X007393Y012114D01*
X007551Y012665D02*
X008063Y012665D01*
X008082Y012645D01*
X008082Y012606D01*
X008279Y012606D02*
X008279Y012212D01*
X009263Y012330D02*
X009362Y012232D01*
X009598Y012232D01*
X009755Y012389D01*
X011881Y012389D01*
X012078Y012193D01*
X012173Y012193D01*
X012192Y012173D01*
X011842Y011799D02*
X011842Y011523D01*
X012192Y011173D01*
X011842Y011799D02*
X011448Y012193D01*
X009834Y012193D01*
X009677Y012035D01*
X009263Y012330D02*
X009263Y012606D01*
X009460Y012606D02*
X011389Y012606D01*
X011685Y012901D01*
X012192Y013173D02*
X011169Y013173D01*
X010956Y012960D01*
X009815Y012960D01*
X009815Y013157D02*
X010838Y013157D01*
X011854Y014173D01*
X012192Y014173D01*
X012078Y014712D02*
X010720Y013354D01*
X009815Y013354D01*
X009815Y013748D02*
X010366Y013748D01*
X011763Y015145D01*
X011566Y015224D02*
X010287Y013944D01*
X009815Y013944D01*
X009815Y014141D02*
X010208Y014141D01*
X011291Y015224D01*
X011291Y015933D01*
X011094Y015736D02*
X011015Y015815D01*
X011094Y015736D02*
X011094Y015303D01*
X010129Y014338D01*
X009815Y014338D01*
X011566Y015224D02*
X011566Y016523D01*
X011763Y016720D01*
X013191Y017665D02*
X014303Y017665D01*
X014303Y018250D01*
X014406Y018354D01*
X014476Y018354D01*
X014486Y018364D01*
X014519Y018364D01*
X014519Y018374D01*
X015962Y018374D01*
X016389Y018801D01*
X016493Y018905D01*
X016547Y018905D01*
X016606Y018964D01*
X016252Y019319D01*
X015661Y018728D01*
X013191Y018728D01*
X013191Y017665D01*
X013191Y017715D02*
X014303Y017715D01*
X014278Y017656D02*
X013998Y017656D01*
X013889Y017547D01*
X013889Y016996D01*
X013997Y016888D01*
X014278Y016888D01*
X014312Y016888D01*
X014519Y016681D01*
X014745Y016582D02*
X014765Y016632D01*
X014765Y016730D01*
X014728Y016820D01*
X014659Y016889D01*
X014642Y016896D01*
X014642Y017000D01*
X014626Y017016D01*
X014642Y017032D01*
X014642Y017256D01*
X014567Y017331D01*
X014480Y017331D01*
X014480Y017469D01*
X014567Y017469D01*
X014642Y017543D01*
X014642Y017768D01*
X014567Y017843D01*
X014480Y017843D01*
X014480Y018177D01*
X016015Y018177D01*
X016566Y018728D01*
X017694Y018728D01*
X017807Y018615D01*
X017910Y018511D01*
X018580Y018511D01*
X018633Y018458D01*
X018633Y018069D01*
X018466Y018069D01*
X018466Y018147D01*
X018429Y018237D01*
X018359Y018307D01*
X018269Y018344D01*
X018171Y018344D01*
X018081Y018307D01*
X018011Y018237D01*
X017974Y018147D01*
X017974Y018049D01*
X017996Y017996D01*
X017994Y017994D01*
X017994Y017612D01*
X018069Y017537D01*
X018332Y017537D01*
X018396Y017600D01*
X018420Y017576D01*
X018493Y017576D01*
X018545Y017628D01*
X018545Y017891D01*
X018565Y017891D01*
X018565Y017628D01*
X018616Y017576D01*
X018639Y017576D01*
X018679Y017537D01*
X018942Y017537D01*
X018982Y017576D01*
X019005Y017576D01*
X019057Y017628D01*
X019057Y017891D01*
X019076Y017891D01*
X019076Y017628D01*
X019128Y017576D01*
X019202Y017576D01*
X019253Y017628D01*
X019253Y017766D01*
X019286Y017734D01*
X019588Y017734D01*
X019588Y017517D01*
X019286Y017517D01*
X019234Y017465D01*
X019234Y017399D01*
X018935Y017399D01*
X018860Y017324D01*
X018860Y016943D01*
X018935Y016868D01*
X019198Y016868D01*
X019234Y016903D01*
X019234Y016829D01*
X019271Y016738D01*
X019340Y016669D01*
X019431Y016631D01*
X019529Y016631D01*
X019619Y016669D01*
X019688Y016738D01*
X019716Y016805D01*
X019716Y016656D01*
X019657Y016597D01*
X019657Y016208D01*
X019568Y016208D01*
X019568Y016257D01*
X019531Y016348D01*
X019462Y016417D01*
X019371Y016454D01*
X019273Y016454D01*
X019183Y016417D01*
X019114Y016348D01*
X019076Y016257D01*
X019076Y016208D01*
X018549Y016208D01*
X018530Y016228D01*
X017989Y016228D01*
X017969Y016208D01*
X017801Y016208D01*
X018018Y016425D01*
X018122Y016529D01*
X018122Y016907D01*
X018335Y016907D01*
X018337Y016909D01*
X018328Y016887D01*
X018328Y016789D01*
X018366Y016699D01*
X018435Y016630D01*
X018525Y016592D01*
X018623Y016592D01*
X018714Y016630D01*
X018783Y016699D01*
X018820Y016789D01*
X018820Y016887D01*
X018783Y016978D01*
X018761Y016999D01*
X018761Y017324D01*
X018686Y017399D01*
X018423Y017399D01*
X018360Y017336D01*
X018335Y017360D01*
X018262Y017360D01*
X018210Y017308D01*
X018210Y017084D01*
X018191Y017084D01*
X018191Y017308D01*
X018139Y017360D01*
X018116Y017360D01*
X018076Y017399D01*
X017813Y017399D01*
X017773Y017360D01*
X017750Y017360D01*
X017698Y017308D01*
X017698Y017045D01*
X017679Y017045D01*
X017679Y017308D01*
X017627Y017360D01*
X017553Y017360D01*
X017502Y017308D01*
X017502Y016920D01*
X017553Y016868D01*
X017767Y016868D01*
X017767Y016675D01*
X017492Y016400D01*
X017492Y017448D01*
X017821Y017448D01*
X017925Y017552D01*
X017925Y018093D01*
X017821Y018196D01*
X016414Y018196D01*
X016060Y017843D01*
X015731Y017843D01*
X015656Y017768D01*
X015656Y017543D01*
X015672Y017528D01*
X015656Y017512D01*
X015656Y017288D01*
X015672Y017272D01*
X015656Y017256D01*
X015656Y017032D01*
X015672Y017016D01*
X015656Y017000D01*
X015656Y016776D01*
X015731Y016701D01*
X015989Y016701D01*
X015966Y016678D01*
X015966Y016605D01*
X016018Y016553D01*
X016281Y016553D01*
X016281Y016336D01*
X016018Y016336D01*
X015988Y016307D01*
X015262Y016307D01*
X014986Y016582D01*
X014745Y016582D01*
X014765Y016649D02*
X015966Y016649D01*
X016020Y016888D02*
X016399Y016888D01*
X016409Y016878D01*
X016488Y017111D02*
X016488Y017429D01*
X016901Y017429D01*
X016901Y016640D01*
X016959Y016582D01*
X017040Y016582D01*
X017098Y016640D01*
X017098Y016681D01*
X017103Y016716D01*
X017138Y016778D01*
X017200Y016814D01*
X017236Y016819D01*
X017315Y016819D01*
X017315Y016223D01*
X017261Y016169D01*
X016817Y016169D01*
X016783Y016203D01*
X016679Y016307D01*
X016488Y016307D01*
X016488Y016644D01*
X016548Y016669D01*
X016618Y016738D01*
X016655Y016829D01*
X016655Y016927D01*
X016618Y017017D01*
X016548Y017086D01*
X016488Y017111D01*
X016488Y017134D02*
X016901Y017134D01*
X016901Y017231D02*
X016488Y017231D01*
X016488Y017328D02*
X016901Y017328D01*
X016901Y017425D02*
X016488Y017425D01*
X016517Y017400D02*
X016566Y017350D01*
X016517Y017400D02*
X016020Y017400D01*
X016094Y017626D02*
X016488Y018019D01*
X017748Y018019D01*
X017748Y017626D01*
X016094Y017626D01*
X016020Y017656D02*
X016203Y017656D01*
X016448Y017901D01*
X016378Y017909D02*
X017748Y017909D01*
X017748Y017812D02*
X016281Y017812D01*
X016184Y017715D02*
X017748Y017715D01*
X017925Y017715D02*
X017994Y017715D01*
X017994Y017618D02*
X017925Y017618D01*
X017894Y017522D02*
X019588Y017522D01*
X019588Y017618D02*
X019244Y017618D01*
X019253Y017715D02*
X019588Y017715D01*
X020031Y017822D02*
X020031Y016720D01*
X019834Y016523D01*
X019834Y015224D01*
X018555Y013944D01*
X018082Y013944D01*
X018082Y013748D02*
X018633Y013748D01*
X020031Y015145D01*
X020031Y016405D01*
X020425Y016838D01*
X020425Y017137D01*
X020460Y017173D01*
X020031Y017822D02*
X020381Y018173D01*
X020460Y018173D01*
X021458Y018200D02*
X022570Y018200D01*
X022570Y018250D02*
X022570Y017665D01*
X021458Y017665D01*
X021458Y018728D01*
X023929Y018728D01*
X024519Y019319D01*
X024874Y018964D01*
X024815Y018905D01*
X024761Y018905D01*
X024657Y018801D01*
X024229Y018374D01*
X022787Y018374D01*
X022787Y018364D01*
X022754Y018364D01*
X022744Y018354D01*
X022674Y018354D01*
X022570Y018250D01*
X022617Y018297D02*
X021458Y018297D01*
X021458Y018394D02*
X024250Y018394D01*
X024347Y018491D02*
X021458Y018491D01*
X021458Y018588D02*
X024443Y018588D01*
X024540Y018685D02*
X021458Y018685D01*
X021458Y018103D02*
X022570Y018103D01*
X022570Y018006D02*
X021458Y018006D01*
X021458Y017909D02*
X022570Y017909D01*
X022570Y017812D02*
X021458Y017812D01*
X021458Y017715D02*
X022570Y017715D01*
X022546Y017656D02*
X022266Y017656D01*
X022157Y017547D01*
X022157Y016996D01*
X022265Y016888D01*
X022546Y016888D01*
X022580Y016888D01*
X022787Y016681D01*
X023013Y016582D02*
X023033Y016632D01*
X023033Y016730D01*
X022996Y016820D01*
X022926Y016889D01*
X022910Y016896D01*
X022910Y017000D01*
X022894Y017016D01*
X022910Y017032D01*
X022910Y017256D01*
X022835Y017331D01*
X022748Y017331D01*
X022748Y017469D01*
X022835Y017469D01*
X022910Y017543D01*
X022910Y017768D01*
X022835Y017843D01*
X022748Y017843D01*
X022748Y018177D01*
X024283Y018177D01*
X024834Y018728D01*
X025962Y018728D01*
X026074Y018615D01*
X026178Y018511D01*
X026847Y018511D01*
X026901Y018458D01*
X026901Y018069D01*
X026734Y018069D01*
X026734Y018147D01*
X026696Y018237D01*
X026627Y018307D01*
X026537Y018344D01*
X026439Y018344D01*
X026348Y018307D01*
X026279Y018237D01*
X026242Y018147D01*
X026242Y018049D01*
X026264Y017996D01*
X026261Y017994D01*
X026261Y017612D01*
X026336Y017537D01*
X026600Y017537D01*
X026663Y017600D01*
X026687Y017576D01*
X026761Y017576D01*
X026813Y017628D01*
X026813Y017891D01*
X026832Y017891D01*
X026832Y017628D01*
X026884Y017576D01*
X026907Y017576D01*
X026947Y017537D01*
X027210Y017537D01*
X027249Y017576D01*
X027272Y017576D01*
X027324Y017628D01*
X027324Y017891D01*
X027344Y017891D01*
X027344Y017628D01*
X027396Y017576D01*
X027469Y017576D01*
X027521Y017628D01*
X027521Y017766D01*
X027553Y017734D01*
X027856Y017734D01*
X027856Y017517D01*
X027553Y017517D01*
X027502Y017465D01*
X027502Y017399D01*
X027202Y017399D01*
X027128Y017324D01*
X027128Y016943D01*
X027202Y016868D01*
X027466Y016868D01*
X027502Y016903D01*
X027502Y016829D01*
X027539Y016738D01*
X027608Y016669D01*
X027699Y016631D01*
X027797Y016631D01*
X027887Y016669D01*
X027956Y016738D01*
X027984Y016805D01*
X027984Y016656D01*
X027925Y016597D01*
X027925Y016208D01*
X027836Y016208D01*
X027836Y016257D01*
X027799Y016348D01*
X027729Y016417D01*
X027639Y016454D01*
X027541Y016454D01*
X027451Y016417D01*
X027382Y016348D01*
X027344Y016257D01*
X027344Y016208D01*
X026817Y016208D01*
X026797Y016228D01*
X026257Y016228D01*
X026237Y016208D01*
X026069Y016208D01*
X026286Y016425D01*
X026389Y016529D01*
X026389Y016907D01*
X026603Y016907D01*
X026605Y016909D01*
X026596Y016887D01*
X026596Y016789D01*
X026633Y016699D01*
X026703Y016630D01*
X026793Y016592D01*
X026891Y016592D01*
X026981Y016630D01*
X027051Y016699D01*
X027088Y016789D01*
X027088Y016887D01*
X027051Y016978D01*
X027029Y016999D01*
X027029Y017324D01*
X026954Y017399D01*
X026691Y017399D01*
X026627Y017336D01*
X026603Y017360D01*
X026530Y017360D01*
X026478Y017308D01*
X026478Y017084D01*
X026458Y017084D01*
X026458Y017308D01*
X026406Y017360D01*
X026383Y017360D01*
X026344Y017399D01*
X026080Y017399D01*
X026041Y017360D01*
X026018Y017360D01*
X025966Y017308D01*
X025966Y017045D01*
X025946Y017045D01*
X025946Y017308D01*
X025895Y017360D01*
X025821Y017360D01*
X025769Y017308D01*
X025769Y016920D01*
X025821Y016868D01*
X026035Y016868D01*
X026035Y016675D01*
X025759Y016400D01*
X025759Y017448D01*
X026089Y017448D01*
X026192Y017552D01*
X026192Y018093D01*
X026089Y018196D01*
X024682Y018196D01*
X024328Y017843D01*
X023999Y017843D01*
X023924Y017768D01*
X023924Y017543D01*
X023939Y017528D01*
X023924Y017512D01*
X023924Y017288D01*
X023939Y017272D01*
X023924Y017256D01*
X023924Y017032D01*
X023939Y017016D01*
X023924Y017000D01*
X023924Y016776D01*
X023999Y016701D01*
X024257Y016701D01*
X024234Y016678D01*
X024234Y016605D01*
X024286Y016553D01*
X024549Y016553D01*
X024549Y016336D01*
X024286Y016336D01*
X024256Y016307D01*
X023530Y016307D01*
X023254Y016582D01*
X023013Y016582D01*
X023033Y016649D02*
X024234Y016649D01*
X024288Y016888D02*
X024666Y016888D01*
X024677Y016878D01*
X024755Y017111D02*
X024755Y017429D01*
X025169Y017429D01*
X025169Y016640D01*
X025227Y016582D01*
X025308Y016582D01*
X025366Y016640D01*
X025366Y016681D01*
X025370Y016716D01*
X025406Y016778D01*
X025468Y016814D01*
X025503Y016819D01*
X025582Y016819D01*
X025582Y016223D01*
X025529Y016169D01*
X025085Y016169D01*
X025051Y016203D01*
X024947Y016307D01*
X024755Y016307D01*
X024755Y016644D01*
X024816Y016669D01*
X024885Y016738D01*
X024923Y016829D01*
X024923Y016927D01*
X024885Y017017D01*
X024816Y017086D01*
X024755Y017111D01*
X024755Y017134D02*
X025169Y017134D01*
X025169Y017231D02*
X024755Y017231D01*
X024755Y017328D02*
X025169Y017328D01*
X025169Y017425D02*
X024755Y017425D01*
X024785Y017400D02*
X024834Y017350D01*
X024785Y017400D02*
X024288Y017400D01*
X024362Y017626D02*
X024755Y018019D01*
X026015Y018019D01*
X026015Y017626D01*
X024362Y017626D01*
X024288Y017656D02*
X024470Y017656D01*
X024716Y017901D01*
X024645Y017909D02*
X026015Y017909D01*
X026015Y017812D02*
X024548Y017812D01*
X024452Y017715D02*
X026015Y017715D01*
X026192Y017715D02*
X026261Y017715D01*
X026261Y017618D02*
X026192Y017618D01*
X026162Y017522D02*
X027856Y017522D01*
X027856Y017618D02*
X027511Y017618D01*
X027521Y017715D02*
X027856Y017715D01*
X028299Y017822D02*
X028299Y016720D01*
X028102Y016523D01*
X028102Y015224D01*
X026822Y013944D01*
X026350Y013944D01*
X026350Y013748D02*
X026901Y013748D01*
X028299Y015145D01*
X028299Y016405D01*
X028692Y016838D01*
X028692Y017137D01*
X028728Y017173D01*
X028299Y017822D02*
X028649Y018173D01*
X028728Y018173D01*
X029726Y018200D02*
X030838Y018200D01*
X030838Y018250D02*
X030838Y017665D01*
X029726Y017665D01*
X029726Y018728D01*
X032196Y018728D01*
X032787Y019319D01*
X033141Y018964D01*
X033082Y018905D01*
X033029Y018905D01*
X032925Y018801D01*
X032497Y018374D01*
X031055Y018374D01*
X031055Y018364D01*
X031021Y018364D01*
X031012Y018354D01*
X030942Y018354D01*
X030838Y018250D01*
X030885Y018297D02*
X029726Y018297D01*
X029726Y018394D02*
X032517Y018394D01*
X032614Y018491D02*
X029726Y018491D01*
X029726Y018588D02*
X032711Y018588D01*
X032808Y018685D02*
X029726Y018685D01*
X029726Y018103D02*
X030838Y018103D01*
X030838Y018006D02*
X029726Y018006D01*
X029726Y017909D02*
X030838Y017909D01*
X030838Y017812D02*
X029726Y017812D01*
X029726Y017715D02*
X030838Y017715D01*
X030813Y017656D02*
X030533Y017656D01*
X030425Y017547D01*
X030425Y016996D01*
X030533Y016888D01*
X030813Y016888D01*
X030848Y016888D01*
X031055Y016681D01*
X031280Y016582D02*
X031301Y016632D01*
X031301Y016730D01*
X031263Y016820D01*
X031194Y016889D01*
X031178Y016896D01*
X031178Y017000D01*
X031162Y017016D01*
X031178Y017032D01*
X031178Y017256D01*
X031103Y017331D01*
X031015Y017331D01*
X031015Y017469D01*
X031103Y017469D01*
X031178Y017543D01*
X031178Y017768D01*
X031103Y017843D01*
X031015Y017843D01*
X031015Y018177D01*
X032551Y018177D01*
X033102Y018728D01*
X034229Y018728D01*
X034342Y018615D01*
X034446Y018511D01*
X035115Y018511D01*
X035169Y018458D01*
X035169Y018069D01*
X035002Y018069D01*
X035002Y018147D01*
X034964Y018237D01*
X034895Y018307D01*
X034804Y018344D01*
X034707Y018344D01*
X034616Y018307D01*
X034547Y018237D01*
X034509Y018147D01*
X034509Y018049D01*
X034531Y017996D01*
X034529Y017994D01*
X034529Y017612D01*
X034604Y017537D01*
X034868Y017537D01*
X034931Y017600D01*
X034955Y017576D01*
X035028Y017576D01*
X035080Y017628D01*
X035080Y017891D01*
X035100Y017891D01*
X035100Y017628D01*
X035152Y017576D01*
X035175Y017576D01*
X035214Y017537D01*
X035478Y017537D01*
X035517Y017576D01*
X035540Y017576D01*
X035592Y017628D01*
X035592Y017891D01*
X035612Y017891D01*
X035612Y017628D01*
X035664Y017576D01*
X035737Y017576D01*
X035789Y017628D01*
X035789Y017766D01*
X035821Y017734D01*
X036124Y017734D01*
X036124Y017517D01*
X035821Y017517D01*
X035769Y017465D01*
X035769Y017399D01*
X035470Y017399D01*
X035395Y017324D01*
X035395Y016943D01*
X035470Y016868D01*
X035734Y016868D01*
X035769Y016903D01*
X035769Y016829D01*
X035807Y016738D01*
X035876Y016669D01*
X035966Y016631D01*
X036064Y016631D01*
X036155Y016669D01*
X036224Y016738D01*
X036252Y016805D01*
X036252Y016656D01*
X036192Y016597D01*
X036192Y016208D01*
X036104Y016208D01*
X036104Y016257D01*
X036066Y016348D01*
X035997Y016417D01*
X035907Y016454D01*
X035809Y016454D01*
X035718Y016417D01*
X035649Y016348D01*
X035612Y016257D01*
X035612Y016208D01*
X035085Y016208D01*
X035065Y016228D01*
X034525Y016228D01*
X034505Y016208D01*
X034337Y016208D01*
X034553Y016425D01*
X034657Y016529D01*
X034657Y016907D01*
X034871Y016907D01*
X034873Y016909D01*
X034864Y016887D01*
X034864Y016789D01*
X034901Y016699D01*
X034970Y016630D01*
X035061Y016592D01*
X035159Y016592D01*
X035249Y016630D01*
X035318Y016699D01*
X035356Y016789D01*
X035356Y016887D01*
X035318Y016978D01*
X035297Y016999D01*
X035297Y017324D01*
X035222Y017399D01*
X034958Y017399D01*
X034895Y017336D01*
X034871Y017360D01*
X034798Y017360D01*
X034746Y017308D01*
X034746Y017084D01*
X034726Y017084D01*
X034726Y017308D01*
X034674Y017360D01*
X034651Y017360D01*
X034612Y017399D01*
X034348Y017399D01*
X034309Y017360D01*
X034286Y017360D01*
X034234Y017308D01*
X034234Y017045D01*
X034214Y017045D01*
X034214Y017308D01*
X034162Y017360D01*
X034089Y017360D01*
X034037Y017308D01*
X034037Y016920D01*
X034089Y016868D01*
X034303Y016868D01*
X034303Y016675D01*
X034027Y016400D01*
X034027Y017448D01*
X034356Y017448D01*
X034460Y017552D01*
X034460Y018093D01*
X034356Y018196D01*
X032950Y018196D01*
X032596Y017843D01*
X032266Y017843D01*
X032191Y017768D01*
X032191Y017543D01*
X032207Y017528D01*
X032191Y017512D01*
X032191Y017288D01*
X032207Y017272D01*
X032191Y017256D01*
X032191Y017032D01*
X032207Y017016D01*
X032191Y017000D01*
X032191Y016776D01*
X032266Y016701D01*
X032524Y016701D01*
X032502Y016678D01*
X032502Y016605D01*
X032553Y016553D01*
X032816Y016553D01*
X032816Y016336D01*
X032553Y016336D01*
X032524Y016307D01*
X031797Y016307D01*
X031522Y016582D01*
X031280Y016582D01*
X031301Y016649D02*
X032502Y016649D01*
X032555Y016888D02*
X032934Y016888D01*
X032944Y016878D01*
X033023Y017111D02*
X033023Y017429D01*
X033437Y017429D01*
X033437Y016640D01*
X033494Y016582D01*
X033576Y016582D01*
X033633Y016640D01*
X033633Y016681D01*
X033638Y016716D01*
X033674Y016778D01*
X033736Y016814D01*
X033771Y016819D01*
X033850Y016819D01*
X033850Y016223D01*
X033796Y016169D01*
X033352Y016169D01*
X033318Y016203D01*
X033215Y016307D01*
X033023Y016307D01*
X033023Y016644D01*
X033084Y016669D01*
X033153Y016738D01*
X033191Y016829D01*
X033191Y016927D01*
X033153Y017017D01*
X033084Y017086D01*
X033023Y017111D01*
X033023Y017134D02*
X033437Y017134D01*
X033437Y017231D02*
X033023Y017231D01*
X033023Y017328D02*
X033437Y017328D01*
X033437Y017425D02*
X033023Y017425D01*
X033052Y017400D02*
X033102Y017350D01*
X033052Y017400D02*
X032555Y017400D01*
X032629Y017626D02*
X033023Y018019D01*
X034283Y018019D01*
X034283Y017626D01*
X032629Y017626D01*
X032555Y017656D02*
X032738Y017656D01*
X032984Y017901D01*
X032913Y017909D02*
X034283Y017909D01*
X034283Y017812D02*
X032816Y017812D01*
X032719Y017715D02*
X034283Y017715D01*
X034460Y017715D02*
X034529Y017715D01*
X034529Y017618D02*
X034460Y017618D01*
X034430Y017522D02*
X036124Y017522D01*
X036124Y017618D02*
X035779Y017618D01*
X035789Y017715D02*
X036124Y017715D01*
X036566Y017822D02*
X036566Y016720D01*
X036370Y016523D01*
X036370Y015224D01*
X035090Y013944D01*
X034618Y013944D01*
X034618Y013748D02*
X035169Y013748D01*
X036566Y015145D01*
X036566Y016405D01*
X036960Y016838D01*
X036960Y017137D01*
X036996Y017173D01*
X036566Y017822D02*
X036917Y018173D01*
X036996Y018173D01*
X035612Y017812D02*
X035592Y017812D01*
X035592Y017715D02*
X035612Y017715D01*
X035622Y017618D02*
X035582Y017618D01*
X035769Y017425D02*
X034027Y017425D01*
X034027Y017328D02*
X034057Y017328D01*
X034037Y017231D02*
X034027Y017231D01*
X034027Y017134D02*
X034037Y017134D01*
X034027Y017037D02*
X034037Y017037D01*
X034027Y016940D02*
X034037Y016940D01*
X034027Y016843D02*
X034303Y016843D01*
X034303Y016746D02*
X034027Y016746D01*
X034027Y016649D02*
X034277Y016649D01*
X034180Y016552D02*
X034027Y016552D01*
X034027Y016455D02*
X034083Y016455D01*
X033850Y016455D02*
X033023Y016455D01*
X033023Y016358D02*
X033850Y016358D01*
X033850Y016262D02*
X033260Y016262D01*
X033141Y016130D02*
X033476Y015795D01*
X033476Y014693D01*
X033673Y014693D02*
X033673Y015795D01*
X034480Y016602D01*
X034480Y017133D01*
X034726Y017134D02*
X034746Y017134D01*
X034746Y017231D02*
X034726Y017231D01*
X034706Y017328D02*
X034765Y017328D01*
X035090Y017133D02*
X035090Y016858D01*
X035110Y016838D01*
X035338Y016746D02*
X035803Y016746D01*
X035769Y016843D02*
X035356Y016843D01*
X035334Y016940D02*
X035398Y016940D01*
X035395Y017037D02*
X035297Y017037D01*
X035297Y017134D02*
X035395Y017134D01*
X035395Y017231D02*
X035297Y017231D01*
X035293Y017328D02*
X035399Y017328D01*
X035110Y017618D02*
X035070Y017618D01*
X035080Y017715D02*
X035100Y017715D01*
X035100Y017812D02*
X035080Y017812D01*
X035346Y017803D02*
X035346Y018531D01*
X035189Y018689D01*
X034519Y018689D01*
X034035Y019173D01*
X033996Y019173D01*
X034273Y018685D02*
X033059Y018685D01*
X032962Y018588D02*
X034370Y018588D01*
X034606Y018297D02*
X032671Y018297D01*
X032768Y018394D02*
X035169Y018394D01*
X035169Y018297D02*
X034905Y018297D01*
X034980Y018200D02*
X035169Y018200D01*
X035169Y018103D02*
X035002Y018103D01*
X034755Y018098D02*
X034755Y017822D01*
X034736Y017803D01*
X034529Y017812D02*
X034460Y017812D01*
X034460Y017909D02*
X034529Y017909D01*
X034527Y018006D02*
X034460Y018006D01*
X034450Y018103D02*
X034509Y018103D01*
X034531Y018200D02*
X032574Y018200D01*
X032760Y018006D02*
X031015Y018006D01*
X031015Y017909D02*
X032663Y017909D01*
X032856Y018103D02*
X031015Y018103D01*
X031133Y017812D02*
X032236Y017812D01*
X032191Y017715D02*
X031178Y017715D01*
X031178Y017618D02*
X032191Y017618D01*
X032201Y017522D02*
X031156Y017522D01*
X031202Y017400D02*
X031212Y017389D01*
X031202Y017400D02*
X030813Y017400D01*
X031015Y017425D02*
X032191Y017425D01*
X032191Y017328D02*
X031106Y017328D01*
X031178Y017231D02*
X032191Y017231D01*
X032191Y017134D02*
X031178Y017134D01*
X031178Y017037D02*
X032191Y017037D01*
X032191Y016940D02*
X031178Y016940D01*
X031240Y016843D02*
X032191Y016843D01*
X032221Y016746D02*
X031294Y016746D01*
X031552Y016552D02*
X032816Y016552D01*
X032816Y016455D02*
X031649Y016455D01*
X031746Y016358D02*
X032816Y016358D01*
X033023Y016552D02*
X033850Y016552D01*
X033850Y016649D02*
X033633Y016649D01*
X033655Y016746D02*
X033850Y016746D01*
X033437Y016746D02*
X033156Y016746D01*
X033191Y016843D02*
X033437Y016843D01*
X033437Y016940D02*
X033185Y016940D01*
X033133Y017037D02*
X033437Y017037D01*
X033437Y016649D02*
X033036Y016649D01*
X033141Y016130D02*
X031724Y016130D01*
X031448Y016405D01*
X030740Y016405D01*
X029972Y017173D01*
X029996Y017173D01*
X029996Y016173D02*
X030031Y016130D01*
X030897Y016130D01*
X032334Y014693D01*
X032885Y014693D01*
X033082Y014693D02*
X033082Y015047D01*
X032944Y015185D01*
X032354Y015185D01*
X031996Y015543D01*
X031996Y015673D01*
X030897Y015263D02*
X030086Y015263D01*
X029996Y015173D01*
X030181Y014358D02*
X029996Y014173D01*
X030181Y014358D02*
X030897Y014358D01*
X031114Y014141D01*
X032531Y014141D01*
X032531Y013944D02*
X031429Y013944D01*
X030897Y013413D01*
X030236Y013413D01*
X029996Y013173D01*
X030212Y012389D02*
X029996Y012173D01*
X030212Y012389D02*
X030897Y012389D01*
X031173Y012665D01*
X031173Y013413D01*
X031507Y013748D01*
X032531Y013748D01*
X032531Y013551D02*
X031704Y013551D01*
X031370Y013216D01*
X031370Y012586D01*
X031173Y012389D01*
X031173Y011681D01*
X030897Y011405D01*
X030228Y011405D01*
X029996Y011173D01*
X030244Y010421D02*
X029996Y010173D01*
X030244Y010421D02*
X030897Y010421D01*
X031212Y010736D01*
X031212Y011444D01*
X031370Y011602D01*
X031370Y012311D01*
X031566Y012507D01*
X031566Y013019D01*
X031901Y013354D01*
X032531Y013354D01*
X032531Y013157D02*
X032098Y013157D01*
X031763Y012822D01*
X031763Y012429D01*
X031566Y012232D01*
X031566Y011523D01*
X031409Y011366D01*
X031409Y010657D01*
X031173Y010421D01*
X031173Y009358D01*
X030897Y009082D01*
X030086Y009082D01*
X029996Y009173D01*
X028728Y009173D02*
X028681Y009173D01*
X027905Y009948D01*
X024992Y009948D01*
X024755Y009712D01*
X023771Y009712D01*
X023496Y009988D01*
X023496Y012153D01*
X023692Y012350D01*
X023692Y012665D01*
X023988Y012960D01*
X024263Y012960D01*
X024263Y013157D02*
X023830Y013157D01*
X023496Y012822D01*
X023496Y012429D01*
X023299Y012232D01*
X023299Y011523D01*
X023141Y011366D01*
X023141Y010657D01*
X022905Y010421D01*
X022905Y009358D01*
X022629Y009082D01*
X021818Y009082D01*
X021728Y009173D01*
X021728Y010173D02*
X021976Y010421D01*
X022629Y010421D01*
X022944Y010736D01*
X022944Y011444D01*
X023102Y011602D01*
X023102Y012311D01*
X023299Y012507D01*
X023299Y013019D01*
X023633Y013354D01*
X024263Y013354D01*
X024263Y013551D02*
X023437Y013551D01*
X023102Y013216D01*
X023102Y012586D01*
X022905Y012389D01*
X022905Y011681D01*
X022629Y011405D01*
X021960Y011405D01*
X021728Y011173D01*
X021728Y012173D02*
X021944Y012389D01*
X022629Y012389D01*
X022905Y012665D01*
X022905Y013413D01*
X023240Y013748D01*
X024263Y013748D01*
X024263Y013944D02*
X023161Y013944D01*
X022629Y013413D01*
X021968Y013413D01*
X021728Y013173D01*
X021728Y014173D02*
X021913Y014358D01*
X022629Y014358D01*
X022846Y014141D01*
X024263Y014141D01*
X024263Y014338D02*
X023673Y014338D01*
X022629Y015263D01*
X021818Y015263D01*
X021728Y015173D01*
X021763Y016130D02*
X021728Y016173D01*
X021763Y016130D02*
X022629Y016130D01*
X024066Y014693D01*
X024618Y014693D01*
X024815Y014693D02*
X024815Y015047D01*
X024677Y015185D01*
X024086Y015185D01*
X023728Y015543D01*
X023728Y015673D01*
X023456Y016130D02*
X023181Y016405D01*
X022472Y016405D01*
X021704Y017173D01*
X021728Y017173D01*
X022546Y017400D02*
X022934Y017400D01*
X022944Y017389D01*
X022838Y017328D02*
X023924Y017328D01*
X023924Y017425D02*
X022748Y017425D01*
X022888Y017522D02*
X023933Y017522D01*
X023924Y017618D02*
X022910Y017618D01*
X022910Y017715D02*
X023924Y017715D01*
X023968Y017812D02*
X022865Y017812D01*
X022748Y017909D02*
X024395Y017909D01*
X024492Y018006D02*
X022748Y018006D01*
X022748Y018103D02*
X024589Y018103D01*
X024742Y018006D02*
X026015Y018006D01*
X026192Y018006D02*
X026259Y018006D01*
X026261Y017909D02*
X026192Y017909D01*
X026192Y017812D02*
X026261Y017812D01*
X026468Y017803D02*
X026488Y017822D01*
X026488Y018098D01*
X026734Y018103D02*
X026901Y018103D01*
X026901Y018200D02*
X026712Y018200D01*
X026637Y018297D02*
X026901Y018297D01*
X026901Y018394D02*
X024500Y018394D01*
X024403Y018297D02*
X026339Y018297D01*
X026264Y018200D02*
X024306Y018200D01*
X024597Y018491D02*
X026868Y018491D01*
X026921Y018689D02*
X026252Y018689D01*
X025767Y019173D01*
X025728Y019173D01*
X026005Y018685D02*
X024791Y018685D01*
X024694Y018588D02*
X026102Y018588D01*
X026182Y018103D02*
X026242Y018103D01*
X026813Y017812D02*
X026832Y017812D01*
X026832Y017715D02*
X026813Y017715D01*
X026803Y017618D02*
X026842Y017618D01*
X027078Y017803D02*
X027078Y018531D01*
X026921Y018689D01*
X027324Y017812D02*
X027344Y017812D01*
X027344Y017715D02*
X027324Y017715D01*
X027315Y017618D02*
X027354Y017618D01*
X027502Y017425D02*
X025759Y017425D01*
X025759Y017328D02*
X025789Y017328D01*
X025769Y017231D02*
X025759Y017231D01*
X025759Y017134D02*
X025769Y017134D01*
X025759Y017037D02*
X025769Y017037D01*
X025759Y016940D02*
X025769Y016940D01*
X025759Y016843D02*
X026035Y016843D01*
X026035Y016746D02*
X025759Y016746D01*
X025759Y016649D02*
X026009Y016649D01*
X025912Y016552D02*
X025759Y016552D01*
X025759Y016455D02*
X025815Y016455D01*
X025582Y016455D02*
X024755Y016455D01*
X024755Y016358D02*
X025582Y016358D01*
X025582Y016262D02*
X024992Y016262D01*
X024874Y016130D02*
X025208Y015795D01*
X025208Y014693D01*
X025011Y014693D02*
X025011Y015244D01*
X024728Y015527D01*
X024728Y015673D01*
X024874Y016130D02*
X023456Y016130D01*
X023478Y016358D02*
X024549Y016358D01*
X024549Y016455D02*
X023381Y016455D01*
X023284Y016552D02*
X024549Y016552D01*
X024755Y016552D02*
X025582Y016552D01*
X025582Y016649D02*
X025366Y016649D01*
X025370Y016716D02*
X025370Y016716D01*
X025388Y016746D02*
X025582Y016746D01*
X025169Y016746D02*
X024889Y016746D01*
X024923Y016843D02*
X025169Y016843D01*
X025169Y016940D02*
X024917Y016940D01*
X024865Y017037D02*
X025169Y017037D01*
X025169Y016649D02*
X024768Y016649D01*
X023953Y016746D02*
X023026Y016746D01*
X022973Y016843D02*
X023924Y016843D01*
X023924Y016940D02*
X022910Y016940D01*
X022910Y017037D02*
X023924Y017037D01*
X023924Y017134D02*
X022910Y017134D01*
X022910Y017231D02*
X023924Y017231D01*
X023982Y018782D02*
X024637Y018782D01*
X024657Y018801D02*
X024657Y018801D01*
X024734Y018879D02*
X024079Y018879D01*
X024176Y018975D02*
X024862Y018975D01*
X024765Y019072D02*
X024273Y019072D01*
X024370Y019169D02*
X024668Y019169D01*
X024572Y019266D02*
X024467Y019266D01*
X025927Y017328D02*
X025986Y017328D01*
X025966Y017231D02*
X025946Y017231D01*
X025946Y017134D02*
X025966Y017134D01*
X026212Y017133D02*
X026212Y016602D01*
X025405Y015795D01*
X025405Y014693D01*
X025602Y014693D02*
X025602Y015322D01*
X026055Y015775D01*
X026330Y016051D01*
X026724Y016051D01*
X026960Y015815D01*
X026960Y015696D01*
X027000Y015303D02*
X026724Y015027D01*
X026330Y015027D01*
X026055Y015303D01*
X025799Y015047D01*
X025799Y014693D01*
X025996Y014693D02*
X026744Y014693D01*
X027354Y015303D01*
X027354Y015657D01*
X027551Y015815D02*
X027551Y016169D01*
X027590Y016208D01*
X027392Y016358D02*
X026219Y016358D01*
X026122Y016262D02*
X027346Y016262D01*
X027788Y016358D02*
X027925Y016358D01*
X027925Y016262D02*
X027834Y016262D01*
X027925Y016455D02*
X026316Y016455D01*
X026389Y016552D02*
X027925Y016552D01*
X027977Y016649D02*
X027839Y016649D01*
X027959Y016746D02*
X027984Y016746D01*
X027656Y016649D02*
X027001Y016649D01*
X027070Y016746D02*
X027536Y016746D01*
X027502Y016843D02*
X027088Y016843D01*
X027066Y016940D02*
X027130Y016940D01*
X027128Y017037D02*
X027029Y017037D01*
X027029Y017134D02*
X027128Y017134D01*
X027128Y017231D02*
X027029Y017231D01*
X027026Y017328D02*
X027131Y017328D01*
X026822Y017133D02*
X026822Y016858D01*
X026842Y016838D01*
X026614Y016746D02*
X026389Y016746D01*
X026389Y016649D02*
X026683Y016649D01*
X026596Y016843D02*
X026389Y016843D01*
X026458Y017134D02*
X026478Y017134D01*
X026478Y017231D02*
X026458Y017231D01*
X026438Y017328D02*
X026498Y017328D01*
X027551Y015815D02*
X027629Y015736D01*
X027629Y015303D01*
X026665Y014338D01*
X026350Y014338D01*
X026350Y014141D02*
X026744Y014141D01*
X027826Y015224D01*
X027826Y015933D01*
X028614Y015059D02*
X028614Y014712D01*
X027255Y013354D01*
X026350Y013354D01*
X026350Y013551D02*
X027059Y013551D01*
X028338Y014830D01*
X028614Y015059D02*
X028728Y015173D01*
X028728Y014173D02*
X028389Y014173D01*
X027374Y013157D01*
X026350Y013157D01*
X026350Y012960D02*
X027492Y012960D01*
X027704Y013173D01*
X028728Y013173D01*
X028220Y012901D02*
X027925Y012606D01*
X025996Y012606D01*
X025799Y012606D02*
X025799Y012330D01*
X025897Y012232D01*
X026133Y012232D01*
X026291Y012389D01*
X028417Y012389D01*
X028614Y012193D01*
X028708Y012193D01*
X028728Y012173D01*
X028378Y011799D02*
X028378Y011523D01*
X028728Y011173D01*
X028378Y011799D02*
X027984Y012193D01*
X026370Y012193D01*
X026212Y012035D01*
X025818Y012035D01*
X025602Y012252D01*
X025602Y012606D01*
X025405Y012606D02*
X025405Y012173D01*
X025425Y012178D02*
X025641Y011962D01*
X025745Y011858D01*
X026133Y011858D01*
X026133Y011444D01*
X025129Y011444D01*
X025129Y012148D01*
X025026Y012252D01*
X024992Y012286D01*
X024992Y012307D01*
X025002Y012317D01*
X025002Y012350D01*
X025021Y012350D01*
X025021Y012317D01*
X025096Y012242D01*
X025320Y012242D01*
X025395Y012317D01*
X025395Y012350D01*
X025415Y012350D01*
X025415Y012317D01*
X025425Y012307D01*
X025425Y012178D01*
X025425Y012191D02*
X025087Y012191D01*
X025050Y012288D02*
X024992Y012288D01*
X024815Y012212D02*
X024952Y012074D01*
X024952Y011011D01*
X024578Y010637D01*
X024519Y010578D01*
X024519Y010067D01*
X025110Y010342D02*
X028023Y010342D01*
X028023Y011011D01*
X025858Y011011D01*
X025858Y011267D01*
X025129Y011267D01*
X025129Y010938D01*
X025110Y010918D01*
X025110Y010342D01*
X025110Y010349D02*
X028023Y010349D01*
X028023Y010446D02*
X025110Y010446D01*
X025110Y010543D02*
X028023Y010543D01*
X028023Y010640D02*
X025110Y010640D01*
X025110Y010737D02*
X028023Y010737D01*
X028023Y010834D02*
X025110Y010834D01*
X025122Y010931D02*
X028023Y010931D01*
X026133Y011512D02*
X025129Y011512D01*
X025129Y011609D02*
X026133Y011609D01*
X026133Y011706D02*
X025129Y011706D01*
X025129Y011803D02*
X026133Y011803D01*
X025703Y011900D02*
X025129Y011900D01*
X025129Y011997D02*
X025606Y011997D01*
X025509Y012094D02*
X025129Y012094D01*
X025366Y012288D02*
X025425Y012288D01*
X025208Y012606D02*
X025208Y013551D01*
X025307Y013649D01*
X024815Y012606D02*
X024815Y012212D01*
X024618Y012606D02*
X024618Y012645D01*
X024598Y012665D01*
X024086Y012665D01*
X023929Y012507D01*
X023929Y012114D01*
X024578Y011543D02*
X024578Y011504D01*
X024322Y011248D01*
X024165Y010933D01*
X023909Y010677D01*
X023909Y010637D01*
X025129Y011028D02*
X025858Y011028D01*
X025858Y011124D02*
X025129Y011124D01*
X025129Y011221D02*
X025858Y011221D01*
X030897Y015263D02*
X031941Y014338D01*
X032531Y014338D01*
X033279Y014693D02*
X033279Y015244D01*
X032996Y015527D01*
X032996Y015673D01*
X033870Y015322D02*
X033870Y014693D01*
X034066Y014693D02*
X034066Y015047D01*
X034322Y015303D01*
X034598Y015027D01*
X034992Y015027D01*
X035267Y015303D01*
X035622Y015303D02*
X035622Y015657D01*
X035818Y015815D02*
X035818Y016169D01*
X035858Y016208D01*
X036056Y016358D02*
X036192Y016358D01*
X036192Y016262D02*
X036102Y016262D01*
X036192Y016455D02*
X034584Y016455D01*
X034657Y016552D02*
X036192Y016552D01*
X036245Y016649D02*
X036107Y016649D01*
X036227Y016746D02*
X036252Y016746D01*
X035924Y016649D02*
X035269Y016649D01*
X034951Y016649D02*
X034657Y016649D01*
X034657Y016746D02*
X034882Y016746D01*
X034864Y016843D02*
X034657Y016843D01*
X034234Y017134D02*
X034214Y017134D01*
X034214Y017231D02*
X034234Y017231D01*
X034254Y017328D02*
X034194Y017328D01*
X034283Y018006D02*
X033010Y018006D01*
X032865Y018491D02*
X035136Y018491D01*
X033130Y018975D02*
X032444Y018975D01*
X032347Y018879D02*
X033002Y018879D01*
X032905Y018782D02*
X032250Y018782D01*
X032541Y019072D02*
X033033Y019072D01*
X032936Y019169D02*
X032638Y019169D01*
X032735Y019266D02*
X032839Y019266D01*
X030897Y021366D02*
X031173Y021641D01*
X031173Y022704D01*
X031409Y022941D01*
X031409Y023649D01*
X031566Y023807D01*
X031566Y024515D01*
X031763Y024712D01*
X031763Y025106D01*
X032098Y025441D01*
X032531Y025441D01*
X032531Y025637D02*
X031901Y025637D01*
X031566Y025303D01*
X031566Y024791D01*
X031370Y024594D01*
X031370Y023885D01*
X031212Y023728D01*
X031212Y023019D01*
X030897Y022704D01*
X030244Y022704D01*
X029996Y022456D01*
X029996Y023456D02*
X030228Y023689D01*
X030897Y023689D01*
X031173Y023964D01*
X031173Y024673D01*
X031370Y024870D01*
X031370Y025500D01*
X031704Y025834D01*
X032531Y025834D01*
X032531Y026031D02*
X031507Y026031D01*
X031173Y025696D01*
X031173Y024948D01*
X030897Y024673D01*
X030212Y024673D01*
X029996Y024456D01*
X029996Y025456D02*
X030236Y025696D01*
X030897Y025696D01*
X031429Y026228D01*
X032531Y026228D01*
X032531Y026425D02*
X031114Y026425D01*
X030897Y026641D01*
X030181Y026641D01*
X029996Y026456D01*
X029996Y027456D02*
X030086Y027547D01*
X030897Y027547D01*
X031941Y026622D01*
X032531Y026622D01*
X032334Y026976D02*
X030897Y028413D01*
X030031Y028413D01*
X029996Y028456D01*
X030740Y028689D02*
X029972Y029456D01*
X029996Y029456D01*
X030425Y029279D02*
X030425Y029830D01*
X030533Y029939D01*
X030813Y029939D01*
X030838Y029948D02*
X029726Y029948D01*
X029726Y031011D01*
X032196Y031011D01*
X032787Y031602D01*
X033141Y031248D01*
X033082Y031189D01*
X033029Y031189D01*
X032925Y031085D01*
X032497Y030657D01*
X031055Y030657D01*
X031055Y030647D01*
X031021Y030647D01*
X031012Y030637D01*
X030942Y030637D01*
X030838Y030534D01*
X030838Y029948D01*
X030838Y030025D02*
X029726Y030025D01*
X029726Y030122D02*
X030838Y030122D01*
X030838Y030219D02*
X029726Y030219D01*
X029726Y030316D02*
X030838Y030316D01*
X030838Y030413D02*
X029726Y030413D01*
X029726Y030510D02*
X030838Y030510D01*
X030911Y030606D02*
X029726Y030606D01*
X029726Y030703D02*
X032543Y030703D01*
X032640Y030800D02*
X029726Y030800D01*
X029726Y030897D02*
X032737Y030897D01*
X032834Y030994D02*
X029726Y030994D01*
X028728Y030456D02*
X028649Y030456D01*
X028299Y030106D01*
X028299Y029004D01*
X028102Y028807D01*
X028102Y027507D01*
X026822Y026228D01*
X026350Y026228D01*
X026350Y026425D02*
X026744Y026425D01*
X027826Y027507D01*
X027826Y028216D01*
X027836Y028492D02*
X027836Y028541D01*
X027799Y028631D01*
X027729Y028700D01*
X027639Y028738D01*
X027541Y028738D01*
X027451Y028700D01*
X027382Y028631D01*
X027344Y028541D01*
X027344Y028492D01*
X026817Y028492D01*
X026797Y028511D01*
X026257Y028511D01*
X026237Y028492D01*
X026069Y028492D01*
X026286Y028708D01*
X026389Y028812D01*
X026389Y029191D01*
X026603Y029191D01*
X026605Y029192D01*
X026596Y029171D01*
X026596Y029073D01*
X026633Y028982D01*
X026703Y028913D01*
X026793Y028876D01*
X026891Y028876D01*
X026981Y028913D01*
X027051Y028982D01*
X027088Y029073D01*
X027088Y029171D01*
X027051Y029261D01*
X027029Y029283D01*
X027029Y029608D01*
X026954Y029683D01*
X026691Y029683D01*
X026627Y029619D01*
X026603Y029643D01*
X026530Y029643D01*
X026478Y029591D01*
X026478Y029368D01*
X026458Y029368D01*
X026458Y029591D01*
X026406Y029643D01*
X026383Y029643D01*
X026344Y029683D01*
X026080Y029683D01*
X026041Y029643D01*
X026018Y029643D01*
X025966Y029591D01*
X025966Y029328D01*
X025946Y029328D01*
X025946Y029591D01*
X025895Y029643D01*
X025821Y029643D01*
X025769Y029591D01*
X025769Y029203D01*
X025821Y029151D01*
X026035Y029151D01*
X026035Y028959D01*
X025759Y028683D01*
X025759Y029732D01*
X026089Y029732D01*
X026192Y029836D01*
X026192Y030376D01*
X026089Y030480D01*
X024682Y030480D01*
X024328Y030126D01*
X023999Y030126D01*
X023924Y030051D01*
X023924Y029827D01*
X023939Y029811D01*
X023924Y029795D01*
X023924Y029571D01*
X023939Y029555D01*
X023924Y029539D01*
X023924Y029315D01*
X023939Y029299D01*
X023924Y029283D01*
X023924Y029059D01*
X023999Y028984D01*
X024257Y028984D01*
X024234Y028961D01*
X024234Y028888D01*
X024286Y028836D01*
X024549Y028836D01*
X024549Y028620D01*
X024286Y028620D01*
X024256Y028590D01*
X023530Y028590D01*
X023254Y028866D01*
X023013Y028866D01*
X023033Y028915D01*
X023033Y029013D01*
X022996Y029104D01*
X022926Y029173D01*
X022910Y029180D01*
X022910Y029283D01*
X022894Y029299D01*
X022910Y029315D01*
X022910Y029539D01*
X022835Y029614D01*
X022748Y029614D01*
X022748Y029752D01*
X022835Y029752D01*
X022910Y029827D01*
X022910Y030051D01*
X022835Y030126D01*
X022748Y030126D01*
X022748Y030460D01*
X024283Y030460D01*
X024834Y031011D01*
X025962Y031011D01*
X026074Y030899D01*
X026178Y030795D01*
X026847Y030795D01*
X026901Y030741D01*
X026901Y030352D01*
X026734Y030352D01*
X026734Y030430D01*
X026696Y030521D01*
X026627Y030590D01*
X026537Y030628D01*
X026439Y030628D01*
X026348Y030590D01*
X026279Y030521D01*
X026242Y030430D01*
X026242Y030333D01*
X026264Y030279D01*
X026261Y030277D01*
X026261Y029895D01*
X026336Y029820D01*
X026600Y029820D01*
X026663Y029884D01*
X026687Y029860D01*
X026761Y029860D01*
X026813Y029912D01*
X026813Y030175D01*
X026832Y030175D01*
X026832Y029912D01*
X026884Y029860D01*
X026907Y029860D01*
X026947Y029820D01*
X027210Y029820D01*
X027249Y029860D01*
X027272Y029860D01*
X027324Y029912D01*
X027324Y030175D01*
X027344Y030175D01*
X027344Y029912D01*
X027396Y029860D01*
X027469Y029860D01*
X027521Y029912D01*
X027521Y030050D01*
X027553Y030017D01*
X027856Y030017D01*
X027856Y029801D01*
X027553Y029801D01*
X027502Y029749D01*
X027502Y029683D01*
X027202Y029683D01*
X027128Y029608D01*
X027128Y029226D01*
X027202Y029151D01*
X027466Y029151D01*
X027502Y029187D01*
X027502Y029112D01*
X027539Y029022D01*
X027608Y028952D01*
X027699Y028915D01*
X027797Y028915D01*
X027887Y028952D01*
X027956Y029022D01*
X027984Y029088D01*
X027984Y028939D01*
X027925Y028880D01*
X027925Y028492D01*
X027836Y028492D01*
X027824Y028571D02*
X027925Y028571D01*
X027925Y028668D02*
X027762Y028668D01*
X027925Y028765D02*
X026342Y028765D01*
X026389Y028862D02*
X027925Y028862D01*
X027893Y028959D02*
X027984Y028959D01*
X027984Y029056D02*
X027970Y029056D01*
X027602Y028959D02*
X027027Y028959D01*
X027081Y029056D02*
X027525Y029056D01*
X027502Y029153D02*
X027467Y029153D01*
X027201Y029153D02*
X027088Y029153D01*
X027055Y029250D02*
X027128Y029250D01*
X027128Y029346D02*
X027029Y029346D01*
X027029Y029443D02*
X027128Y029443D01*
X027128Y029540D02*
X027029Y029540D01*
X027000Y029637D02*
X027157Y029637D01*
X027221Y029831D02*
X027856Y029831D01*
X027856Y029928D02*
X027521Y029928D01*
X027521Y030025D02*
X027546Y030025D01*
X027344Y030025D02*
X027324Y030025D01*
X027324Y030122D02*
X027344Y030122D01*
X027344Y029928D02*
X027324Y029928D01*
X027502Y029734D02*
X026091Y029734D01*
X026012Y029637D02*
X025901Y029637D01*
X025815Y029637D02*
X025759Y029637D01*
X025759Y029540D02*
X025769Y029540D01*
X025759Y029443D02*
X025769Y029443D01*
X025759Y029346D02*
X025769Y029346D01*
X025759Y029250D02*
X025769Y029250D01*
X025759Y029153D02*
X025820Y029153D01*
X025759Y029056D02*
X026035Y029056D01*
X026035Y028959D02*
X025759Y028959D01*
X025759Y028862D02*
X025938Y028862D01*
X025841Y028765D02*
X025759Y028765D01*
X025582Y028765D02*
X024755Y028765D01*
X024755Y028862D02*
X025582Y028862D01*
X025582Y028959D02*
X025366Y028959D01*
X025366Y028964D02*
X025370Y029000D01*
X025406Y029062D01*
X025468Y029097D01*
X025503Y029102D01*
X025582Y029102D01*
X025582Y028506D01*
X025529Y028452D01*
X025085Y028452D01*
X025051Y028486D01*
X024947Y028590D01*
X024755Y028590D01*
X024755Y028927D01*
X024816Y028952D01*
X024885Y029022D01*
X024923Y029112D01*
X024923Y029210D01*
X024885Y029300D01*
X024816Y029370D01*
X024755Y029395D01*
X024755Y029712D01*
X025169Y029712D01*
X025169Y028923D01*
X025227Y028866D01*
X025308Y028866D01*
X025366Y028923D01*
X025366Y028964D01*
X025403Y029056D02*
X025582Y029056D01*
X025582Y028668D02*
X024755Y028668D01*
X024549Y028668D02*
X023452Y028668D01*
X023355Y028765D02*
X024549Y028765D01*
X024260Y028862D02*
X023258Y028862D01*
X023181Y028689D02*
X023456Y028413D01*
X024874Y028413D01*
X025208Y028078D01*
X025208Y026976D01*
X025011Y026976D02*
X025011Y027527D01*
X024728Y027811D01*
X024728Y027956D01*
X024677Y027468D02*
X024086Y027468D01*
X023728Y027826D01*
X023728Y027956D01*
X023181Y028689D02*
X022472Y028689D01*
X021704Y029456D01*
X021728Y029456D01*
X022157Y029279D02*
X022157Y029830D01*
X022266Y029939D01*
X022546Y029939D01*
X022570Y029948D02*
X021458Y029948D01*
X021458Y031011D01*
X023929Y031011D01*
X024519Y031602D01*
X024874Y031248D01*
X024815Y031189D01*
X024761Y031189D01*
X024657Y031085D01*
X024229Y030657D01*
X022787Y030657D01*
X022787Y030647D01*
X022754Y030647D01*
X022744Y030637D01*
X022674Y030637D01*
X022570Y030534D01*
X022570Y029948D01*
X022570Y030025D02*
X021458Y030025D01*
X021458Y030122D02*
X022570Y030122D01*
X022570Y030219D02*
X021458Y030219D01*
X021458Y030316D02*
X022570Y030316D01*
X022570Y030413D02*
X021458Y030413D01*
X021458Y030510D02*
X022570Y030510D01*
X022643Y030606D02*
X021458Y030606D01*
X021458Y030703D02*
X024276Y030703D01*
X024373Y030800D02*
X021458Y030800D01*
X021458Y030897D02*
X024469Y030897D01*
X024566Y030994D02*
X021458Y030994D01*
X020460Y030456D02*
X020381Y030456D01*
X020031Y030106D01*
X020031Y029004D01*
X019834Y028807D01*
X019834Y027507D01*
X018555Y026228D01*
X018082Y026228D01*
X018082Y026425D02*
X018476Y026425D01*
X019559Y027507D01*
X019559Y028216D01*
X019568Y028492D02*
X019568Y028541D01*
X019531Y028631D01*
X019462Y028700D01*
X019371Y028738D01*
X019273Y028738D01*
X019183Y028700D01*
X019114Y028631D01*
X019076Y028541D01*
X019076Y028492D01*
X018549Y028492D01*
X018530Y028511D01*
X017989Y028511D01*
X017969Y028492D01*
X017801Y028492D01*
X018018Y028708D01*
X018122Y028812D01*
X018122Y029191D01*
X018335Y029191D01*
X018337Y029192D01*
X018328Y029171D01*
X018328Y029073D01*
X018366Y028982D01*
X018435Y028913D01*
X018525Y028876D01*
X018623Y028876D01*
X018714Y028913D01*
X018783Y028982D01*
X018820Y029073D01*
X018820Y029171D01*
X018783Y029261D01*
X018761Y029283D01*
X018761Y029608D01*
X018686Y029683D01*
X018423Y029683D01*
X018360Y029619D01*
X018335Y029643D01*
X018262Y029643D01*
X018210Y029591D01*
X018210Y029368D01*
X018191Y029368D01*
X018191Y029591D01*
X018139Y029643D01*
X018116Y029643D01*
X018076Y029683D01*
X017813Y029683D01*
X017773Y029643D01*
X017750Y029643D01*
X017698Y029591D01*
X017698Y029328D01*
X017679Y029328D01*
X017679Y029591D01*
X017627Y029643D01*
X017553Y029643D01*
X017502Y029591D01*
X017502Y029203D01*
X017553Y029151D01*
X017767Y029151D01*
X017767Y028959D01*
X017492Y028959D01*
X017492Y029056D02*
X017767Y029056D01*
X017767Y028959D02*
X017492Y028683D01*
X017492Y029732D01*
X017821Y029732D01*
X017925Y029836D01*
X017925Y030376D01*
X017821Y030480D01*
X016414Y030480D01*
X016060Y030126D01*
X015731Y030126D01*
X015656Y030051D01*
X015656Y029827D01*
X015672Y029811D01*
X015656Y029795D01*
X015656Y029571D01*
X015672Y029555D01*
X015656Y029539D01*
X015656Y029315D01*
X015672Y029299D01*
X015656Y029283D01*
X015656Y029059D01*
X015731Y028984D01*
X015989Y028984D01*
X015966Y028961D01*
X015966Y028888D01*
X016018Y028836D01*
X016281Y028836D01*
X016281Y028620D01*
X016018Y028620D01*
X015988Y028590D01*
X015262Y028590D01*
X014986Y028866D01*
X014745Y028866D01*
X014765Y028915D01*
X014765Y029013D01*
X014728Y029104D01*
X014659Y029173D01*
X014642Y029180D01*
X014642Y029283D01*
X014626Y029299D01*
X014642Y029315D01*
X014642Y029539D01*
X014567Y029614D01*
X014480Y029614D01*
X014480Y029752D01*
X014567Y029752D01*
X014642Y029827D01*
X014642Y030051D01*
X014567Y030126D01*
X014480Y030126D01*
X014480Y030460D01*
X016015Y030460D01*
X016566Y031011D01*
X017694Y031011D01*
X017807Y030899D01*
X017910Y030795D01*
X018580Y030795D01*
X018633Y030741D01*
X018633Y030352D01*
X018466Y030352D01*
X018466Y030430D01*
X018429Y030521D01*
X018359Y030590D01*
X018269Y030628D01*
X018171Y030628D01*
X018081Y030590D01*
X018011Y030521D01*
X017974Y030430D01*
X017974Y030333D01*
X017996Y030279D01*
X017994Y030277D01*
X017994Y029895D01*
X018069Y029820D01*
X018332Y029820D01*
X018396Y029884D01*
X018420Y029860D01*
X018493Y029860D01*
X018545Y029912D01*
X018545Y030175D01*
X018565Y030175D01*
X018565Y029912D01*
X018616Y029860D01*
X018639Y029860D01*
X018679Y029820D01*
X018942Y029820D01*
X018982Y029860D01*
X019005Y029860D01*
X019057Y029912D01*
X019057Y030175D01*
X019076Y030175D01*
X019076Y029912D01*
X019128Y029860D01*
X019202Y029860D01*
X019253Y029912D01*
X019253Y030050D01*
X019286Y030017D01*
X019588Y030017D01*
X019588Y029801D01*
X019286Y029801D01*
X019234Y029749D01*
X019234Y029683D01*
X018935Y029683D01*
X018860Y029608D01*
X018860Y029226D01*
X018935Y029151D01*
X019198Y029151D01*
X019234Y029187D01*
X019234Y029112D01*
X019271Y029022D01*
X019340Y028952D01*
X019431Y028915D01*
X019529Y028915D01*
X019619Y028952D01*
X019688Y029022D01*
X019716Y029088D01*
X019716Y028939D01*
X019657Y028880D01*
X019657Y028492D01*
X019568Y028492D01*
X019556Y028571D02*
X019657Y028571D01*
X019657Y028668D02*
X019494Y028668D01*
X019657Y028765D02*
X018074Y028765D01*
X018122Y028862D02*
X019657Y028862D01*
X019626Y028959D02*
X019716Y028959D01*
X019703Y029056D02*
X019716Y029056D01*
X019334Y028959D02*
X018759Y028959D01*
X018813Y029056D02*
X019257Y029056D01*
X019234Y029153D02*
X019200Y029153D01*
X018933Y029153D02*
X018820Y029153D01*
X018788Y029250D02*
X018860Y029250D01*
X018860Y029346D02*
X018761Y029346D01*
X018761Y029443D02*
X018860Y029443D01*
X018860Y029540D02*
X018761Y029540D01*
X018732Y029637D02*
X018889Y029637D01*
X018953Y029831D02*
X019588Y029831D01*
X019588Y029928D02*
X019253Y029928D01*
X019253Y030025D02*
X019278Y030025D01*
X019076Y030025D02*
X019057Y030025D01*
X019057Y030122D02*
X019076Y030122D01*
X019057Y029928D02*
X019076Y029928D01*
X019234Y029734D02*
X017823Y029734D01*
X017744Y029637D02*
X017633Y029637D01*
X017547Y029637D02*
X017492Y029637D01*
X017492Y029540D02*
X017502Y029540D01*
X017492Y029443D02*
X017502Y029443D01*
X017492Y029346D02*
X017502Y029346D01*
X017492Y029250D02*
X017502Y029250D01*
X017492Y029153D02*
X017552Y029153D01*
X017679Y029346D02*
X017698Y029346D01*
X017698Y029443D02*
X017679Y029443D01*
X017679Y029540D02*
X017698Y029540D01*
X017944Y029417D02*
X017944Y028885D01*
X017137Y028078D01*
X017137Y026976D01*
X016941Y026976D02*
X016941Y028078D01*
X016606Y028413D01*
X015189Y028413D01*
X014913Y028689D01*
X014204Y028689D01*
X013437Y029456D01*
X013460Y029456D01*
X013889Y029279D02*
X013889Y029830D01*
X013998Y029939D01*
X014278Y029939D01*
X014303Y029948D02*
X013191Y029948D01*
X013191Y031011D01*
X015661Y031011D01*
X016252Y031602D01*
X016606Y031248D01*
X016547Y031189D01*
X016493Y031189D01*
X016389Y031085D01*
X015962Y030657D01*
X014519Y030657D01*
X014519Y030647D01*
X014486Y030647D01*
X014476Y030637D01*
X014406Y030637D01*
X014303Y030534D01*
X014303Y029948D01*
X014303Y030025D02*
X013191Y030025D01*
X013191Y030122D02*
X014303Y030122D01*
X014303Y030219D02*
X013191Y030219D01*
X013191Y030316D02*
X014303Y030316D01*
X014303Y030413D02*
X013191Y030413D01*
X013191Y030510D02*
X014303Y030510D01*
X014376Y030606D02*
X013191Y030606D01*
X013191Y030703D02*
X016008Y030703D01*
X016105Y030800D02*
X013191Y030800D01*
X013191Y030897D02*
X016202Y030897D01*
X016299Y030994D02*
X013191Y030994D01*
X012192Y030456D02*
X012114Y030456D01*
X011763Y030106D01*
X011763Y029004D01*
X011566Y028807D01*
X011566Y027507D01*
X010287Y026228D01*
X009815Y026228D01*
X009815Y026425D02*
X010208Y026425D01*
X011291Y027507D01*
X011291Y028216D01*
X011301Y028492D02*
X011301Y028541D01*
X011263Y028631D01*
X011194Y028700D01*
X011104Y028738D01*
X011006Y028738D01*
X010915Y028700D01*
X010846Y028631D01*
X010809Y028541D01*
X010809Y028492D01*
X010282Y028492D01*
X010262Y028511D01*
X009721Y028511D01*
X009702Y028492D01*
X009534Y028492D01*
X009854Y028812D01*
X009854Y029191D01*
X010068Y029191D01*
X010070Y029192D01*
X010061Y029171D01*
X010061Y029073D01*
X010098Y028982D01*
X010167Y028913D01*
X010258Y028876D01*
X010356Y028876D01*
X010446Y028913D01*
X010515Y028982D01*
X010553Y029073D01*
X010553Y029171D01*
X010515Y029261D01*
X010494Y029283D01*
X010494Y029608D01*
X010419Y029683D01*
X010155Y029683D01*
X010092Y029619D01*
X010068Y029643D01*
X009994Y029643D01*
X009942Y029591D01*
X009942Y029368D01*
X009923Y029368D01*
X009923Y029591D01*
X009871Y029643D01*
X009848Y029643D01*
X009808Y029683D01*
X009545Y029683D01*
X009506Y029643D01*
X009483Y029643D01*
X009431Y029591D01*
X009431Y029328D01*
X009411Y029328D01*
X009411Y029591D01*
X009359Y029643D01*
X009286Y029643D01*
X009234Y029591D01*
X009234Y029203D01*
X009286Y029151D01*
X009500Y029151D01*
X009500Y028959D01*
X009224Y028683D01*
X009224Y029732D01*
X009553Y029732D01*
X009657Y029836D01*
X009657Y030376D01*
X009553Y030480D01*
X008147Y030480D01*
X007793Y030126D01*
X007463Y030126D01*
X007388Y030051D01*
X007388Y029827D01*
X007404Y029811D01*
X007388Y029795D01*
X007388Y029571D01*
X007404Y029555D01*
X007388Y029539D01*
X007388Y029315D01*
X007404Y029299D01*
X007388Y029283D01*
X007388Y029059D01*
X007463Y028984D01*
X007721Y028984D01*
X007698Y028961D01*
X007698Y028888D01*
X007750Y028836D01*
X008013Y028836D01*
X008013Y028620D01*
X007750Y028620D01*
X007721Y028590D01*
X006994Y028590D01*
X006719Y028866D01*
X006477Y028866D01*
X006498Y028915D01*
X006498Y029013D01*
X006460Y029104D01*
X006391Y029173D01*
X006374Y029180D01*
X006374Y029283D01*
X006358Y029299D01*
X006374Y029315D01*
X006374Y029539D01*
X006299Y029614D01*
X006212Y029614D01*
X006212Y029752D01*
X006299Y029752D01*
X006374Y029827D01*
X006374Y030051D01*
X006299Y030126D01*
X006212Y030126D01*
X006212Y030460D01*
X007748Y030460D01*
X008299Y031011D01*
X009426Y031011D01*
X009539Y030899D01*
X009643Y030795D01*
X010312Y030795D01*
X010366Y030741D01*
X010366Y030352D01*
X010198Y030352D01*
X010198Y030430D01*
X010161Y030521D01*
X010092Y030590D01*
X010001Y030628D01*
X009903Y030628D01*
X009813Y030590D01*
X009744Y030521D01*
X009706Y030430D01*
X009706Y030333D01*
X009728Y030279D01*
X009726Y030277D01*
X009726Y029895D01*
X009801Y029820D01*
X010064Y029820D01*
X010128Y029884D01*
X010152Y029860D01*
X010225Y029860D01*
X010277Y029912D01*
X010277Y030175D01*
X010297Y030175D01*
X010297Y029912D01*
X010349Y029860D01*
X010372Y029860D01*
X010411Y029820D01*
X010675Y029820D01*
X010714Y029860D01*
X010737Y029860D01*
X010789Y029912D01*
X010789Y030175D01*
X010809Y030175D01*
X010809Y029912D01*
X010861Y029860D01*
X010934Y029860D01*
X010986Y029912D01*
X010986Y030050D01*
X011018Y030017D01*
X011320Y030017D01*
X011320Y029801D01*
X011018Y029801D01*
X010966Y029749D01*
X010966Y029683D01*
X010667Y029683D01*
X010592Y029608D01*
X010592Y029226D01*
X010667Y029151D01*
X010931Y029151D01*
X010966Y029187D01*
X010966Y029112D01*
X011004Y029022D01*
X011073Y028952D01*
X011163Y028915D01*
X011261Y028915D01*
X011352Y028952D01*
X011421Y029022D01*
X011448Y029088D01*
X011448Y028939D01*
X011389Y028880D01*
X011389Y028492D01*
X011301Y028492D01*
X011288Y028571D02*
X011389Y028571D01*
X011389Y028668D02*
X011226Y028668D01*
X011389Y028765D02*
X009807Y028765D01*
X009854Y028862D02*
X011389Y028862D01*
X011358Y028959D02*
X011448Y028959D01*
X011435Y029056D02*
X011448Y029056D01*
X011066Y028959D02*
X010492Y028959D01*
X010546Y029056D02*
X010989Y029056D01*
X010966Y029153D02*
X010932Y029153D01*
X010666Y029153D02*
X010553Y029153D01*
X010520Y029250D02*
X010592Y029250D01*
X010592Y029346D02*
X010494Y029346D01*
X010494Y029443D02*
X010592Y029443D01*
X010592Y029540D02*
X010494Y029540D01*
X010464Y029637D02*
X010622Y029637D01*
X010685Y029831D02*
X011320Y029831D01*
X011320Y029928D02*
X010986Y029928D01*
X010986Y030025D02*
X011010Y030025D01*
X010809Y030025D02*
X010789Y030025D01*
X010789Y030122D02*
X010809Y030122D01*
X010809Y029928D02*
X010789Y029928D01*
X010966Y029734D02*
X009556Y029734D01*
X009476Y029637D02*
X009365Y029637D01*
X009280Y029637D02*
X009224Y029637D01*
X009224Y029540D02*
X009234Y029540D01*
X009224Y029443D02*
X009234Y029443D01*
X009224Y029346D02*
X009234Y029346D01*
X009224Y029250D02*
X009234Y029250D01*
X009224Y029153D02*
X009284Y029153D01*
X009224Y029056D02*
X009500Y029056D01*
X009499Y028959D02*
X009224Y028959D01*
X009224Y028862D02*
X009403Y028862D01*
X009306Y028765D02*
X009224Y028765D01*
X009047Y028765D02*
X008220Y028765D01*
X008220Y028862D02*
X009047Y028862D01*
X009047Y028959D02*
X008830Y028959D01*
X008830Y028964D02*
X008835Y029000D01*
X008871Y029062D01*
X008932Y029097D01*
X008968Y029102D01*
X009047Y029102D01*
X009047Y028506D01*
X008993Y028452D01*
X008549Y028452D01*
X008515Y028486D01*
X008515Y028486D01*
X008412Y028590D01*
X008220Y028590D01*
X008220Y028927D01*
X008281Y028952D01*
X008350Y029022D01*
X008387Y029112D01*
X008387Y029210D01*
X008350Y029300D01*
X008281Y029370D01*
X008220Y029395D01*
X008220Y029712D01*
X008633Y029712D01*
X008633Y028923D01*
X008691Y028866D01*
X008773Y028866D01*
X008830Y028923D01*
X008830Y028964D01*
X008867Y029056D02*
X009047Y029056D01*
X009047Y028668D02*
X008220Y028668D01*
X008013Y028668D02*
X006916Y028668D01*
X006819Y028765D02*
X008013Y028765D01*
X007725Y028862D02*
X006723Y028862D01*
X006645Y028689D02*
X006921Y028413D01*
X008338Y028413D01*
X008673Y028078D01*
X008673Y026976D01*
X008870Y026976D02*
X008870Y028078D01*
X009677Y028885D01*
X009677Y029417D01*
X009923Y029443D02*
X009942Y029443D01*
X009942Y029540D02*
X009923Y029540D01*
X009877Y029637D02*
X009988Y029637D01*
X010074Y029637D02*
X010110Y029637D01*
X010075Y029831D02*
X010401Y029831D01*
X010297Y029928D02*
X010277Y029928D01*
X010277Y030025D02*
X010297Y030025D01*
X010297Y030122D02*
X010277Y030122D01*
X010543Y030086D02*
X010543Y030815D01*
X010385Y030972D01*
X009716Y030972D01*
X009232Y031456D01*
X009192Y031456D01*
X009443Y030994D02*
X008282Y030994D01*
X008185Y030897D02*
X009540Y030897D01*
X009637Y030800D02*
X008088Y030800D01*
X007991Y030703D02*
X010366Y030703D01*
X010366Y030606D02*
X010052Y030606D01*
X010166Y030510D02*
X010366Y030510D01*
X010366Y030413D02*
X010198Y030413D01*
X009952Y030381D02*
X009952Y030106D01*
X009933Y030086D01*
X009726Y030122D02*
X009657Y030122D01*
X009657Y030219D02*
X009726Y030219D01*
X009713Y030316D02*
X009657Y030316D01*
X009621Y030413D02*
X009706Y030413D01*
X009739Y030510D02*
X007797Y030510D01*
X007894Y030606D02*
X009852Y030606D01*
X009480Y030303D02*
X008220Y030303D01*
X007826Y029909D01*
X009480Y029909D01*
X009480Y030303D01*
X009480Y030219D02*
X008136Y030219D01*
X008181Y030185D02*
X007935Y029939D01*
X007752Y029939D01*
X007845Y029928D02*
X009480Y029928D01*
X009480Y030025D02*
X007942Y030025D01*
X008039Y030122D02*
X009480Y030122D01*
X009657Y030025D02*
X009726Y030025D01*
X009726Y029928D02*
X009657Y029928D01*
X009652Y029831D02*
X009790Y029831D01*
X009431Y029540D02*
X009411Y029540D01*
X009411Y029443D02*
X009431Y029443D01*
X009431Y029346D02*
X009411Y029346D01*
X009854Y029153D02*
X010061Y029153D01*
X010068Y029056D02*
X009854Y029056D01*
X009854Y028959D02*
X010122Y028959D01*
X010287Y029141D02*
X010307Y029122D01*
X010287Y029141D02*
X010287Y029417D01*
X009710Y028668D02*
X010883Y028668D01*
X010821Y028571D02*
X009613Y028571D01*
X009795Y028334D02*
X010189Y028334D01*
X010425Y028098D01*
X010425Y027980D01*
X010818Y027941D02*
X010818Y027586D01*
X010208Y026976D01*
X009460Y026976D01*
X009263Y026976D02*
X009263Y027330D01*
X009519Y027586D01*
X009795Y027311D01*
X010189Y027311D01*
X010464Y027586D01*
X011094Y027586D02*
X010129Y026622D01*
X009815Y026622D01*
X009815Y026031D02*
X010366Y026031D01*
X011763Y027429D01*
X011763Y028689D01*
X012157Y029122D01*
X012157Y029421D01*
X012192Y029456D01*
X011055Y028492D02*
X011015Y028452D01*
X011015Y028098D01*
X011094Y028019D01*
X011094Y027586D01*
X011803Y027114D02*
X010523Y025834D01*
X009815Y025834D01*
X009815Y025637D02*
X010720Y025637D01*
X012078Y026996D01*
X012078Y027342D01*
X012192Y027456D01*
X012192Y026456D02*
X011854Y026456D01*
X010838Y025441D01*
X009815Y025441D01*
X009815Y025244D02*
X010956Y025244D01*
X011169Y025456D01*
X012192Y025456D01*
X011685Y025185D02*
X011389Y024889D01*
X009460Y024889D01*
X009263Y024889D02*
X009263Y024614D01*
X009362Y024515D01*
X009598Y024515D01*
X009755Y024673D01*
X011881Y024673D01*
X012078Y024476D01*
X012173Y024476D01*
X012192Y024456D01*
X011842Y024082D02*
X011842Y023807D01*
X012192Y023456D01*
X011488Y023295D02*
X011488Y022626D01*
X008574Y022626D01*
X008574Y023202D01*
X008594Y023221D01*
X008594Y023551D01*
X009322Y023551D01*
X009322Y023295D01*
X011488Y023295D01*
X011488Y023240D02*
X008594Y023240D01*
X008594Y023337D02*
X009322Y023337D01*
X009322Y023434D02*
X008594Y023434D01*
X008594Y023531D02*
X009322Y023531D01*
X009598Y023728D02*
X009598Y024141D01*
X009210Y024141D01*
X009106Y024245D01*
X008889Y024462D01*
X008889Y024590D01*
X008879Y024600D01*
X008879Y024633D01*
X008860Y024633D01*
X008860Y024600D01*
X008785Y024525D01*
X008561Y024525D01*
X008486Y024600D01*
X008486Y024633D01*
X008466Y024633D01*
X008466Y024600D01*
X008456Y024590D01*
X008456Y024569D01*
X008490Y024535D01*
X008490Y024535D01*
X008594Y024431D01*
X008594Y023728D01*
X009598Y023728D01*
X009598Y023822D02*
X008594Y023822D01*
X008594Y023919D02*
X009598Y023919D01*
X009598Y024016D02*
X008594Y024016D01*
X008594Y024112D02*
X009598Y024112D01*
X009677Y024319D02*
X009283Y024319D01*
X009066Y024535D01*
X009066Y024889D01*
X008870Y024889D02*
X008870Y024456D01*
X008889Y024500D02*
X008525Y024500D01*
X008489Y024597D02*
X008463Y024597D01*
X008279Y024496D02*
X008417Y024358D01*
X008417Y023295D01*
X008043Y022921D01*
X007984Y022862D01*
X007984Y022350D01*
X008220Y021996D02*
X007236Y021996D01*
X006960Y022271D01*
X006960Y024437D01*
X007157Y024633D01*
X007157Y024948D01*
X007452Y025244D01*
X007728Y025244D01*
X007728Y025441D02*
X007295Y025441D01*
X006960Y025106D01*
X006960Y024712D01*
X006763Y024515D01*
X006763Y023807D01*
X006606Y023649D01*
X006606Y022941D01*
X006370Y022704D01*
X006370Y021641D01*
X006094Y021366D01*
X005283Y021366D01*
X005192Y021456D01*
X005192Y022456D02*
X005441Y022704D01*
X006094Y022704D01*
X006409Y023019D01*
X006409Y023728D01*
X006566Y023885D01*
X006566Y024594D01*
X006763Y024791D01*
X006763Y025303D01*
X007098Y025637D01*
X007728Y025637D01*
X007728Y025834D02*
X006901Y025834D01*
X006566Y025500D01*
X006566Y024870D01*
X006370Y024673D01*
X006370Y023964D01*
X006094Y023689D01*
X005425Y023689D01*
X005192Y023456D01*
X005192Y024456D02*
X005409Y024673D01*
X006094Y024673D01*
X006370Y024948D01*
X006370Y025696D01*
X006704Y026031D01*
X007728Y026031D01*
X007728Y026228D02*
X006626Y026228D01*
X006094Y025696D01*
X005433Y025696D01*
X005192Y025456D01*
X005192Y026456D02*
X005378Y026641D01*
X006094Y026641D01*
X006311Y026425D01*
X007728Y026425D01*
X007728Y026622D02*
X007137Y026622D01*
X006094Y027547D01*
X005283Y027547D01*
X005192Y027456D01*
X005228Y028413D02*
X005192Y028456D01*
X005228Y028413D02*
X006094Y028413D01*
X007531Y026976D01*
X008082Y026976D01*
X008279Y026976D02*
X008279Y027330D01*
X008141Y027468D01*
X007551Y027468D01*
X007192Y027826D01*
X007192Y027956D01*
X006645Y028689D02*
X005937Y028689D01*
X005169Y029456D01*
X005192Y029456D01*
X005622Y029279D02*
X005622Y029830D01*
X005730Y029939D01*
X006010Y029939D01*
X006035Y029948D02*
X004923Y029948D01*
X004923Y031011D01*
X007393Y031011D01*
X007984Y031602D01*
X008338Y031248D01*
X008279Y031189D01*
X008225Y031189D01*
X008122Y031085D01*
X007694Y030657D01*
X006252Y030657D01*
X006252Y030647D01*
X006218Y030647D01*
X006208Y030637D01*
X006139Y030637D01*
X006035Y030534D01*
X006035Y029948D01*
X006035Y030025D02*
X004923Y030025D01*
X004923Y030122D02*
X006035Y030122D01*
X006035Y030219D02*
X004923Y030219D01*
X004923Y030316D02*
X006035Y030316D01*
X006035Y030413D02*
X004923Y030413D01*
X004923Y030510D02*
X006035Y030510D01*
X006108Y030606D02*
X004923Y030606D01*
X004923Y030703D02*
X007740Y030703D01*
X007837Y030800D02*
X004923Y030800D01*
X004923Y030897D02*
X007934Y030897D01*
X008031Y030994D02*
X004923Y030994D01*
X006212Y030413D02*
X008079Y030413D01*
X007982Y030316D02*
X006212Y030316D01*
X006212Y030219D02*
X007886Y030219D01*
X007459Y030122D02*
X006304Y030122D01*
X006374Y030025D02*
X007388Y030025D01*
X007388Y029928D02*
X006374Y029928D01*
X006374Y029831D02*
X007388Y029831D01*
X007388Y029734D02*
X006212Y029734D01*
X006212Y029637D02*
X007388Y029637D01*
X007389Y029540D02*
X006373Y029540D01*
X006374Y029443D02*
X007388Y029443D01*
X007388Y029346D02*
X006374Y029346D01*
X006374Y029250D02*
X007388Y029250D01*
X007388Y029153D02*
X006411Y029153D01*
X006480Y029056D02*
X007392Y029056D01*
X007698Y028959D02*
X006498Y028959D01*
X006252Y028964D02*
X006044Y029171D01*
X006010Y029171D01*
X005729Y029171D01*
X005622Y029279D01*
X006010Y029683D02*
X006399Y029683D01*
X006409Y029673D01*
X007752Y029683D02*
X008249Y029683D01*
X008299Y029633D01*
X008220Y029637D02*
X008633Y029637D01*
X008633Y029540D02*
X008220Y029540D01*
X008220Y029443D02*
X008633Y029443D01*
X008633Y029346D02*
X008304Y029346D01*
X008371Y029250D02*
X008633Y029250D01*
X008633Y029153D02*
X008387Y029153D01*
X008364Y029056D02*
X008633Y029056D01*
X008633Y028959D02*
X008287Y028959D01*
X008141Y029161D02*
X008131Y029171D01*
X007752Y029171D01*
X008431Y028571D02*
X009047Y028571D01*
X009015Y028474D02*
X008528Y028474D01*
X008192Y027956D02*
X008192Y027811D01*
X008476Y027527D01*
X008476Y026976D01*
X009066Y026976D02*
X009066Y027606D01*
X009519Y028059D01*
X009795Y028334D01*
X008771Y025933D02*
X008673Y025834D01*
X008673Y024889D01*
X008857Y024597D02*
X008883Y024597D01*
X008948Y024403D02*
X008594Y024403D01*
X008594Y024306D02*
X009045Y024306D01*
X009142Y024209D02*
X008594Y024209D01*
X008279Y024496D02*
X008279Y024889D01*
X008082Y024889D02*
X008082Y024929D01*
X008063Y024948D01*
X007551Y024948D01*
X007393Y024791D01*
X007393Y024397D01*
X008043Y023826D02*
X008043Y023787D01*
X007787Y023531D01*
X007629Y023216D01*
X007374Y022960D01*
X007374Y022921D01*
X008574Y022949D02*
X011488Y022949D01*
X011488Y022852D02*
X008574Y022852D01*
X008574Y022756D02*
X011488Y022756D01*
X011488Y022659D02*
X008574Y022659D01*
X008574Y023046D02*
X011488Y023046D01*
X011488Y023143D02*
X008574Y023143D01*
X008456Y022232D02*
X008220Y021996D01*
X008456Y022232D02*
X011370Y022232D01*
X012145Y021456D01*
X012192Y021456D01*
X013460Y021456D02*
X013551Y021366D01*
X014362Y021366D01*
X014637Y021641D01*
X014637Y022704D01*
X014874Y022941D01*
X014874Y023649D01*
X015031Y023807D01*
X015031Y024515D01*
X015228Y024712D01*
X015228Y025106D01*
X015563Y025441D01*
X015996Y025441D01*
X015996Y025637D02*
X015366Y025637D01*
X015031Y025303D01*
X015031Y024791D01*
X014834Y024594D01*
X014834Y023885D01*
X014677Y023728D01*
X014677Y023019D01*
X014362Y022704D01*
X013708Y022704D01*
X013460Y022456D01*
X013460Y023456D02*
X013692Y023689D01*
X014362Y023689D01*
X014637Y023964D01*
X014637Y024673D01*
X014834Y024870D01*
X014834Y025500D01*
X015169Y025834D01*
X015996Y025834D01*
X015996Y026031D02*
X014972Y026031D01*
X014637Y025696D01*
X014637Y024948D01*
X014362Y024673D01*
X013677Y024673D01*
X013460Y024456D01*
X013460Y025456D02*
X013700Y025696D01*
X014362Y025696D01*
X014893Y026228D01*
X015996Y026228D01*
X015996Y026425D02*
X014578Y026425D01*
X014362Y026641D01*
X013645Y026641D01*
X013460Y026456D01*
X013460Y027456D02*
X013551Y027547D01*
X014362Y027547D01*
X015405Y026622D01*
X015996Y026622D01*
X015799Y026976D02*
X014362Y028413D01*
X013496Y028413D01*
X013460Y028456D01*
X013997Y029171D02*
X013889Y029279D01*
X013997Y029171D02*
X014278Y029171D01*
X014312Y029171D01*
X014519Y028964D01*
X014765Y028959D02*
X015966Y028959D01*
X015992Y028862D02*
X014990Y028862D01*
X015087Y028765D02*
X016281Y028765D01*
X016281Y028668D02*
X015184Y028668D01*
X014748Y029056D02*
X015659Y029056D01*
X015656Y029153D02*
X014679Y029153D01*
X014642Y029250D02*
X015656Y029250D01*
X015656Y029346D02*
X014642Y029346D01*
X014642Y029443D02*
X015656Y029443D01*
X015657Y029540D02*
X014641Y029540D01*
X014677Y029673D02*
X014666Y029683D01*
X014278Y029683D01*
X014480Y029637D02*
X015656Y029637D01*
X015656Y029734D02*
X014480Y029734D01*
X014642Y029831D02*
X015656Y029831D01*
X015656Y029928D02*
X014642Y029928D01*
X014642Y030025D02*
X015656Y030025D01*
X015727Y030122D02*
X014571Y030122D01*
X014480Y030219D02*
X016153Y030219D01*
X016250Y030316D02*
X014480Y030316D01*
X014480Y030413D02*
X016347Y030413D01*
X016488Y030303D02*
X017748Y030303D01*
X017748Y029909D01*
X016094Y029909D01*
X016488Y030303D01*
X016404Y030219D02*
X017748Y030219D01*
X017748Y030122D02*
X016307Y030122D01*
X016210Y030025D02*
X017748Y030025D01*
X017748Y029928D02*
X016113Y029928D01*
X016203Y029939D02*
X016448Y030185D01*
X016203Y029939D02*
X016020Y029939D01*
X016020Y029683D02*
X016517Y029683D01*
X016566Y029633D01*
X016488Y029637D02*
X016901Y029637D01*
X016901Y029712D02*
X016901Y028923D01*
X016959Y028866D01*
X017040Y028866D01*
X017098Y028923D01*
X017098Y028964D01*
X017103Y029000D01*
X017138Y029062D01*
X017200Y029097D01*
X017236Y029102D01*
X017315Y029102D01*
X017315Y028506D01*
X017261Y028452D01*
X016817Y028452D01*
X016783Y028486D01*
X016783Y028486D01*
X016679Y028590D01*
X016488Y028590D01*
X016488Y028927D01*
X016548Y028952D01*
X016618Y029022D01*
X016655Y029112D01*
X016655Y029210D01*
X016618Y029300D01*
X016548Y029370D01*
X016488Y029395D01*
X016488Y029712D01*
X016901Y029712D01*
X016901Y029540D02*
X016488Y029540D01*
X016488Y029443D02*
X016901Y029443D01*
X016901Y029346D02*
X016572Y029346D01*
X016639Y029250D02*
X016901Y029250D01*
X016901Y029153D02*
X016655Y029153D01*
X016632Y029056D02*
X016901Y029056D01*
X016901Y028959D02*
X016555Y028959D01*
X016488Y028862D02*
X017315Y028862D01*
X017315Y028959D02*
X017098Y028959D01*
X017103Y029000D02*
X017103Y029000D01*
X017135Y029056D02*
X017315Y029056D01*
X017492Y028862D02*
X017670Y028862D01*
X017573Y028765D02*
X017492Y028765D01*
X017315Y028765D02*
X016488Y028765D01*
X016488Y028668D02*
X017315Y028668D01*
X017315Y028571D02*
X016698Y028571D01*
X016795Y028474D02*
X017283Y028474D01*
X017787Y028059D02*
X018063Y028334D01*
X018456Y028334D01*
X018692Y028098D01*
X018692Y027980D01*
X018732Y027586D02*
X018456Y027311D01*
X018063Y027311D01*
X017787Y027586D01*
X017531Y027330D01*
X017531Y026976D01*
X017334Y026976D02*
X017334Y027606D01*
X017787Y028059D01*
X017881Y028571D02*
X019089Y028571D01*
X019151Y028668D02*
X017978Y028668D01*
X018122Y028959D02*
X018389Y028959D01*
X018335Y029056D02*
X018122Y029056D01*
X018122Y029153D02*
X018328Y029153D01*
X018555Y029141D02*
X018574Y029122D01*
X018555Y029141D02*
X018555Y029417D01*
X018377Y029637D02*
X018342Y029637D01*
X018256Y029637D02*
X018145Y029637D01*
X018191Y029540D02*
X018210Y029540D01*
X018210Y029443D02*
X018191Y029443D01*
X018058Y029831D02*
X017920Y029831D01*
X017925Y029928D02*
X017994Y029928D01*
X017994Y030025D02*
X017925Y030025D01*
X017925Y030122D02*
X017994Y030122D01*
X017994Y030219D02*
X017925Y030219D01*
X017925Y030316D02*
X017981Y030316D01*
X017974Y030413D02*
X017888Y030413D01*
X018007Y030510D02*
X016065Y030510D01*
X016162Y030606D02*
X018120Y030606D01*
X018320Y030606D02*
X018633Y030606D01*
X018633Y030510D02*
X018433Y030510D01*
X018466Y030413D02*
X018633Y030413D01*
X018633Y030703D02*
X016258Y030703D01*
X016355Y030800D02*
X017905Y030800D01*
X017808Y030897D02*
X016452Y030897D01*
X016549Y030994D02*
X017711Y030994D01*
X017984Y030972D02*
X017500Y031456D01*
X017460Y031456D01*
X017984Y030972D02*
X018653Y030972D01*
X018811Y030815D01*
X018811Y030086D01*
X018565Y030122D02*
X018545Y030122D01*
X018545Y030025D02*
X018565Y030025D01*
X018565Y029928D02*
X018545Y029928D01*
X018668Y029831D02*
X018343Y029831D01*
X018200Y030086D02*
X018220Y030106D01*
X018220Y030381D01*
X016569Y031285D02*
X015935Y031285D01*
X016031Y031382D02*
X016472Y031382D01*
X016375Y031479D02*
X016128Y031479D01*
X016225Y031576D02*
X016278Y031576D01*
X016493Y031188D02*
X015838Y031188D01*
X015741Y031091D02*
X016396Y031091D01*
X016399Y029171D02*
X016020Y029171D01*
X016399Y029171D02*
X016409Y029161D01*
X016460Y027956D02*
X016460Y027811D01*
X016744Y027527D01*
X016744Y026976D01*
X016547Y026976D02*
X016547Y027330D01*
X016409Y027468D01*
X015818Y027468D01*
X015460Y027826D01*
X015460Y027956D01*
X015799Y026976D02*
X016350Y026976D01*
X017039Y025933D02*
X016941Y025834D01*
X016941Y024889D01*
X017137Y024889D02*
X017137Y024456D01*
X017157Y024462D02*
X017374Y024245D01*
X017477Y024141D01*
X017866Y024141D01*
X017866Y023728D01*
X016862Y023728D01*
X016862Y024431D01*
X016758Y024535D01*
X016724Y024569D01*
X016724Y024590D01*
X016734Y024600D01*
X016734Y024633D01*
X016753Y024633D01*
X016753Y024600D01*
X016828Y024525D01*
X017053Y024525D01*
X017128Y024600D01*
X017128Y024633D01*
X017147Y024633D01*
X017147Y024600D01*
X017157Y024590D01*
X017157Y024462D01*
X017157Y024500D02*
X016793Y024500D01*
X016758Y024535D02*
X016758Y024535D01*
X016757Y024597D02*
X016731Y024597D01*
X016547Y024496D02*
X016685Y024358D01*
X016685Y023295D01*
X016311Y022921D01*
X016252Y022862D01*
X016252Y022350D01*
X016488Y021996D02*
X015503Y021996D01*
X015228Y022271D01*
X015228Y024437D01*
X015425Y024633D01*
X015425Y024948D01*
X015720Y025244D01*
X015996Y025244D01*
X015818Y024948D02*
X015661Y024791D01*
X015661Y024397D01*
X015818Y024948D02*
X016330Y024948D01*
X016350Y024929D01*
X016350Y024889D01*
X016547Y024889D02*
X016547Y024496D01*
X016862Y024403D02*
X017215Y024403D01*
X017312Y024306D02*
X016862Y024306D01*
X016862Y024209D02*
X017409Y024209D01*
X017551Y024319D02*
X017334Y024535D01*
X017334Y024889D01*
X017531Y024889D02*
X017531Y024614D01*
X017629Y024515D01*
X017866Y024515D01*
X018023Y024673D01*
X020149Y024673D01*
X020346Y024476D01*
X020441Y024476D01*
X020460Y024456D01*
X020110Y024082D02*
X020110Y023807D01*
X020460Y023456D01*
X020110Y024082D02*
X019716Y024476D01*
X018102Y024476D01*
X017944Y024319D01*
X017551Y024319D01*
X017866Y024112D02*
X016862Y024112D01*
X016862Y024016D02*
X017866Y024016D01*
X017866Y023919D02*
X016862Y023919D01*
X016862Y023822D02*
X017866Y023822D01*
X017590Y023551D02*
X017590Y023295D01*
X019755Y023295D01*
X019755Y022626D01*
X016842Y022626D01*
X016842Y023202D01*
X016862Y023221D01*
X016862Y023551D01*
X017590Y023551D01*
X017590Y023531D02*
X016862Y023531D01*
X016862Y023434D02*
X017590Y023434D01*
X017590Y023337D02*
X016862Y023337D01*
X016862Y023240D02*
X019755Y023240D01*
X019755Y023143D02*
X016842Y023143D01*
X016842Y023046D02*
X019755Y023046D01*
X019755Y022949D02*
X016842Y022949D01*
X016842Y022852D02*
X019755Y022852D01*
X019755Y022756D02*
X016842Y022756D01*
X016842Y022659D02*
X019755Y022659D01*
X019637Y022232D02*
X016724Y022232D01*
X016488Y021996D01*
X015641Y022921D02*
X015641Y022960D01*
X015897Y023216D01*
X016055Y023531D01*
X016311Y023787D01*
X016311Y023826D01*
X017124Y024597D02*
X017150Y024597D01*
X017728Y024889D02*
X019657Y024889D01*
X019952Y025185D01*
X020460Y025456D02*
X019437Y025456D01*
X019224Y025244D01*
X018082Y025244D01*
X018082Y025441D02*
X019106Y025441D01*
X020122Y026456D01*
X020460Y026456D01*
X020346Y026996D02*
X020346Y027342D01*
X020460Y027456D01*
X020031Y027429D02*
X020031Y028689D01*
X020425Y029122D01*
X020425Y029421D01*
X020460Y029456D01*
X019322Y028492D02*
X019283Y028452D01*
X019283Y028098D01*
X019362Y028019D01*
X019362Y027586D01*
X018397Y026622D01*
X018082Y026622D01*
X017728Y026976D02*
X018476Y026976D01*
X019086Y027586D01*
X019086Y027941D01*
X020031Y027429D02*
X018633Y026031D01*
X018082Y026031D01*
X018082Y025834D02*
X018791Y025834D01*
X020070Y027114D01*
X020346Y026996D02*
X018988Y025637D01*
X018082Y025637D01*
X021728Y025456D02*
X021968Y025696D01*
X022629Y025696D01*
X023161Y026228D01*
X024263Y026228D01*
X024263Y026425D02*
X022846Y026425D01*
X022629Y026641D01*
X021913Y026641D01*
X021728Y026456D01*
X021728Y027456D02*
X021818Y027547D01*
X022629Y027547D01*
X023673Y026622D01*
X024263Y026622D01*
X024066Y026976D02*
X022629Y028413D01*
X021763Y028413D01*
X021728Y028456D01*
X022265Y029171D02*
X022157Y029279D01*
X022265Y029171D02*
X022546Y029171D01*
X022580Y029171D01*
X022787Y028964D01*
X023033Y028959D02*
X024234Y028959D01*
X024288Y029171D02*
X024666Y029171D01*
X024677Y029161D01*
X024906Y029250D02*
X025169Y029250D01*
X025169Y029346D02*
X024839Y029346D01*
X024755Y029443D02*
X025169Y029443D01*
X025169Y029540D02*
X024755Y029540D01*
X024755Y029637D02*
X025169Y029637D01*
X024834Y029633D02*
X024785Y029683D01*
X024288Y029683D01*
X024362Y029909D02*
X024755Y030303D01*
X026015Y030303D01*
X026015Y029909D01*
X024362Y029909D01*
X024381Y029928D02*
X026015Y029928D01*
X026015Y030025D02*
X024478Y030025D01*
X024470Y029939D02*
X024716Y030185D01*
X024671Y030219D02*
X026015Y030219D01*
X026015Y030122D02*
X024575Y030122D01*
X024421Y030219D02*
X022748Y030219D01*
X022748Y030316D02*
X024518Y030316D01*
X024615Y030413D02*
X022748Y030413D01*
X022839Y030122D02*
X023994Y030122D01*
X023924Y030025D02*
X022910Y030025D01*
X022910Y029928D02*
X023924Y029928D01*
X023924Y029831D02*
X022910Y029831D01*
X022934Y029683D02*
X022546Y029683D01*
X022748Y029637D02*
X023924Y029637D01*
X023925Y029540D02*
X022909Y029540D01*
X022910Y029443D02*
X023924Y029443D01*
X023924Y029346D02*
X022910Y029346D01*
X022910Y029250D02*
X023924Y029250D01*
X023924Y029153D02*
X022947Y029153D01*
X023015Y029056D02*
X023927Y029056D01*
X023924Y029734D02*
X022748Y029734D01*
X022934Y029683D02*
X022944Y029673D01*
X024288Y029939D02*
X024470Y029939D01*
X024332Y030510D02*
X026274Y030510D01*
X026242Y030413D02*
X026156Y030413D01*
X026192Y030316D02*
X026249Y030316D01*
X026261Y030219D02*
X026192Y030219D01*
X026192Y030122D02*
X026261Y030122D01*
X026261Y030025D02*
X026192Y030025D01*
X026192Y029928D02*
X026261Y029928D01*
X026326Y029831D02*
X026188Y029831D01*
X026412Y029637D02*
X026524Y029637D01*
X026609Y029637D02*
X026645Y029637D01*
X026478Y029540D02*
X026458Y029540D01*
X026458Y029443D02*
X026478Y029443D01*
X026212Y029417D02*
X026212Y028885D01*
X025405Y028078D01*
X025405Y026976D01*
X025602Y026976D02*
X025602Y027606D01*
X026055Y028059D01*
X026330Y028334D01*
X026724Y028334D01*
X026960Y028098D01*
X026960Y027980D01*
X027000Y027586D02*
X026724Y027311D01*
X026330Y027311D01*
X026055Y027586D01*
X025799Y027330D01*
X025799Y026976D01*
X025996Y026976D02*
X026744Y026976D01*
X027354Y027586D01*
X027354Y027941D01*
X027551Y028098D02*
X027551Y028452D01*
X027590Y028492D01*
X027418Y028668D02*
X026245Y028668D01*
X026148Y028571D02*
X027357Y028571D01*
X027551Y028098D02*
X027629Y028019D01*
X027629Y027586D01*
X026665Y026622D01*
X026350Y026622D01*
X026350Y026031D02*
X026901Y026031D01*
X028299Y027429D01*
X028299Y028689D01*
X028692Y029122D01*
X028692Y029421D01*
X028728Y029456D01*
X030425Y029279D02*
X030533Y029171D01*
X030813Y029171D01*
X030848Y029171D01*
X031055Y028964D01*
X031280Y028866D02*
X031301Y028915D01*
X031301Y029013D01*
X031263Y029104D01*
X031194Y029173D01*
X031178Y029180D01*
X031178Y029283D01*
X031162Y029299D01*
X031178Y029315D01*
X031178Y029539D01*
X031103Y029614D01*
X031015Y029614D01*
X031015Y029752D01*
X031103Y029752D01*
X031178Y029827D01*
X031178Y030051D01*
X031103Y030126D01*
X031015Y030126D01*
X031015Y030460D01*
X032551Y030460D01*
X033102Y031011D01*
X034229Y031011D01*
X034342Y030899D01*
X034446Y030795D01*
X035115Y030795D01*
X035169Y030741D01*
X035169Y030352D01*
X035002Y030352D01*
X035002Y030430D01*
X034964Y030521D01*
X034895Y030590D01*
X034804Y030628D01*
X034707Y030628D01*
X034616Y030590D01*
X034547Y030521D01*
X034509Y030430D01*
X034509Y030333D01*
X034531Y030279D01*
X034529Y030277D01*
X034529Y029895D01*
X034604Y029820D01*
X034868Y029820D01*
X034931Y029884D01*
X034955Y029860D01*
X035028Y029860D01*
X035080Y029912D01*
X035080Y030175D01*
X035100Y030175D01*
X035100Y029912D01*
X035152Y029860D01*
X035175Y029860D01*
X035214Y029820D01*
X035478Y029820D01*
X035517Y029860D01*
X035540Y029860D01*
X035592Y029912D01*
X035592Y030175D01*
X035612Y030175D01*
X035612Y029912D01*
X035664Y029860D01*
X035737Y029860D01*
X035789Y029912D01*
X035789Y030050D01*
X035821Y030017D01*
X036124Y030017D01*
X036124Y029801D01*
X035821Y029801D01*
X035769Y029749D01*
X035769Y029683D01*
X035470Y029683D01*
X035395Y029608D01*
X035395Y029226D01*
X035470Y029151D01*
X035734Y029151D01*
X035769Y029187D01*
X035769Y029112D01*
X035807Y029022D01*
X035876Y028952D01*
X035966Y028915D01*
X036064Y028915D01*
X036155Y028952D01*
X036224Y029022D01*
X036252Y029088D01*
X036252Y028939D01*
X036192Y028880D01*
X036192Y028492D01*
X036104Y028492D01*
X036104Y028541D01*
X036066Y028631D01*
X035997Y028700D01*
X035907Y028738D01*
X035809Y028738D01*
X035718Y028700D01*
X035649Y028631D01*
X035612Y028541D01*
X035612Y028492D01*
X035085Y028492D01*
X035065Y028511D01*
X034525Y028511D01*
X034505Y028492D01*
X034337Y028492D01*
X034553Y028708D01*
X034657Y028812D01*
X034657Y029191D01*
X034871Y029191D01*
X034873Y029192D01*
X034864Y029171D01*
X034864Y029073D01*
X034901Y028982D01*
X034970Y028913D01*
X035061Y028876D01*
X035159Y028876D01*
X035249Y028913D01*
X035318Y028982D01*
X035356Y029073D01*
X035356Y029171D01*
X035318Y029261D01*
X035297Y029283D01*
X035297Y029608D01*
X035222Y029683D01*
X034958Y029683D01*
X034895Y029619D01*
X034871Y029643D01*
X034798Y029643D01*
X034746Y029591D01*
X034746Y029368D01*
X034726Y029368D01*
X034726Y029591D01*
X034674Y029643D01*
X034651Y029643D01*
X034612Y029683D01*
X034348Y029683D01*
X034309Y029643D01*
X034286Y029643D01*
X034234Y029591D01*
X034234Y029328D01*
X034214Y029328D01*
X034214Y029591D01*
X034162Y029643D01*
X034089Y029643D01*
X034037Y029591D01*
X034037Y029203D01*
X034089Y029151D01*
X034303Y029151D01*
X034303Y028959D01*
X034027Y028683D01*
X034027Y029732D01*
X034356Y029732D01*
X034460Y029836D01*
X034460Y030376D01*
X034356Y030480D01*
X032950Y030480D01*
X032596Y030126D01*
X032266Y030126D01*
X032191Y030051D01*
X032191Y029827D01*
X032207Y029811D01*
X032191Y029795D01*
X032191Y029571D01*
X032207Y029555D01*
X032191Y029539D01*
X032191Y029315D01*
X032207Y029299D01*
X032191Y029283D01*
X032191Y029059D01*
X032266Y028984D01*
X032524Y028984D01*
X032502Y028961D01*
X032502Y028888D01*
X032553Y028836D01*
X032816Y028836D01*
X032816Y028620D01*
X032553Y028620D01*
X032524Y028590D01*
X031797Y028590D01*
X031522Y028866D01*
X031280Y028866D01*
X031301Y028959D02*
X032502Y028959D01*
X032528Y028862D02*
X031526Y028862D01*
X031623Y028765D02*
X032816Y028765D01*
X032816Y028668D02*
X031720Y028668D01*
X031724Y028413D02*
X031448Y028689D01*
X030740Y028689D01*
X031283Y029056D02*
X032195Y029056D01*
X032191Y029153D02*
X031214Y029153D01*
X031178Y029250D02*
X032191Y029250D01*
X032191Y029346D02*
X031178Y029346D01*
X031178Y029443D02*
X032191Y029443D01*
X032192Y029540D02*
X031176Y029540D01*
X031212Y029673D02*
X031202Y029683D01*
X030813Y029683D01*
X031015Y029637D02*
X032191Y029637D01*
X032191Y029734D02*
X031015Y029734D01*
X031178Y029831D02*
X032191Y029831D01*
X032191Y029928D02*
X031178Y029928D01*
X031178Y030025D02*
X032191Y030025D01*
X032262Y030122D02*
X031107Y030122D01*
X031015Y030219D02*
X032689Y030219D01*
X032786Y030316D02*
X031015Y030316D01*
X031015Y030413D02*
X032883Y030413D01*
X033023Y030303D02*
X034283Y030303D01*
X034283Y029909D01*
X032629Y029909D01*
X033023Y030303D01*
X032939Y030219D02*
X034283Y030219D01*
X034283Y030122D02*
X032842Y030122D01*
X032745Y030025D02*
X034283Y030025D01*
X034283Y029928D02*
X032648Y029928D01*
X032738Y029939D02*
X032984Y030185D01*
X032738Y029939D02*
X032555Y029939D01*
X032555Y029683D02*
X033052Y029683D01*
X033102Y029633D01*
X033023Y029637D02*
X033437Y029637D01*
X033437Y029712D02*
X033437Y028923D01*
X033494Y028866D01*
X033576Y028866D01*
X033633Y028923D01*
X033633Y028964D01*
X033638Y029000D01*
X033674Y029062D01*
X033736Y029097D01*
X033771Y029102D01*
X033850Y029102D01*
X033850Y028506D01*
X033796Y028452D01*
X033352Y028452D01*
X033318Y028486D01*
X033215Y028590D01*
X033023Y028590D01*
X033023Y028927D01*
X033084Y028952D01*
X033153Y029022D01*
X033191Y029112D01*
X033191Y029210D01*
X033153Y029300D01*
X033084Y029370D01*
X033023Y029395D01*
X033023Y029712D01*
X033437Y029712D01*
X033437Y029540D02*
X033023Y029540D01*
X033023Y029443D02*
X033437Y029443D01*
X033437Y029346D02*
X033107Y029346D01*
X033174Y029250D02*
X033437Y029250D01*
X033437Y029153D02*
X033191Y029153D01*
X033167Y029056D02*
X033437Y029056D01*
X033437Y028959D02*
X033090Y028959D01*
X033023Y028862D02*
X033850Y028862D01*
X033850Y028959D02*
X033633Y028959D01*
X033670Y029056D02*
X033850Y029056D01*
X034027Y029056D02*
X034303Y029056D01*
X034303Y028959D02*
X034027Y028959D01*
X034027Y028862D02*
X034206Y028862D01*
X034109Y028765D02*
X034027Y028765D01*
X033850Y028765D02*
X033023Y028765D01*
X033023Y028668D02*
X033850Y028668D01*
X033850Y028571D02*
X033234Y028571D01*
X033331Y028474D02*
X033818Y028474D01*
X033673Y028078D02*
X034480Y028885D01*
X034480Y029417D01*
X034726Y029443D02*
X034746Y029443D01*
X034746Y029540D02*
X034726Y029540D01*
X034680Y029637D02*
X034791Y029637D01*
X034877Y029637D02*
X034913Y029637D01*
X034878Y029831D02*
X035204Y029831D01*
X035100Y029928D02*
X035080Y029928D01*
X035080Y030025D02*
X035100Y030025D01*
X035100Y030122D02*
X035080Y030122D01*
X035346Y030086D02*
X035346Y030815D01*
X035189Y030972D01*
X034519Y030972D01*
X034035Y031456D01*
X033996Y031456D01*
X034247Y030994D02*
X033085Y030994D01*
X032988Y030897D02*
X034343Y030897D01*
X034440Y030800D02*
X032891Y030800D01*
X032794Y030703D02*
X035169Y030703D01*
X035169Y030606D02*
X034855Y030606D01*
X034969Y030510D02*
X035169Y030510D01*
X035169Y030413D02*
X035002Y030413D01*
X034755Y030381D02*
X034755Y030106D01*
X034736Y030086D01*
X034529Y030122D02*
X034460Y030122D01*
X034460Y030219D02*
X034529Y030219D01*
X034516Y030316D02*
X034460Y030316D01*
X034424Y030413D02*
X034509Y030413D01*
X034542Y030510D02*
X032600Y030510D01*
X032697Y030606D02*
X034656Y030606D01*
X034529Y030025D02*
X034460Y030025D01*
X034460Y029928D02*
X034529Y029928D01*
X034593Y029831D02*
X034456Y029831D01*
X034359Y029734D02*
X035769Y029734D01*
X035789Y029928D02*
X036124Y029928D01*
X036124Y029831D02*
X035488Y029831D01*
X035592Y029928D02*
X035612Y029928D01*
X035612Y030025D02*
X035592Y030025D01*
X035592Y030122D02*
X035612Y030122D01*
X035789Y030025D02*
X035814Y030025D01*
X035425Y029637D02*
X035267Y029637D01*
X035297Y029540D02*
X035395Y029540D01*
X035395Y029443D02*
X035297Y029443D01*
X035297Y029346D02*
X035395Y029346D01*
X035395Y029250D02*
X035323Y029250D01*
X035356Y029153D02*
X035469Y029153D01*
X035349Y029056D02*
X035793Y029056D01*
X035769Y029153D02*
X035735Y029153D01*
X035870Y028959D02*
X035295Y028959D01*
X035110Y029122D02*
X035090Y029141D01*
X035090Y029417D01*
X034864Y029153D02*
X034657Y029153D01*
X034657Y029056D02*
X034871Y029056D01*
X034925Y028959D02*
X034657Y028959D01*
X034657Y028862D02*
X036192Y028862D01*
X036192Y028765D02*
X034610Y028765D01*
X034513Y028668D02*
X035686Y028668D01*
X035624Y028571D02*
X034416Y028571D01*
X034598Y028334D02*
X034322Y028059D01*
X033870Y027606D01*
X033870Y026976D01*
X034066Y026976D02*
X034066Y027330D01*
X034322Y027586D01*
X034598Y027311D01*
X034992Y027311D01*
X035267Y027586D01*
X035622Y027586D02*
X035011Y026976D01*
X034263Y026976D01*
X034618Y026622D02*
X034933Y026622D01*
X035897Y027586D01*
X035897Y028019D01*
X035818Y028098D01*
X035818Y028452D01*
X035858Y028492D01*
X036030Y028668D02*
X036192Y028668D01*
X036192Y028571D02*
X036091Y028571D01*
X036094Y028216D02*
X036094Y027507D01*
X035011Y026425D01*
X034618Y026425D01*
X034618Y026228D02*
X035090Y026228D01*
X036370Y027507D01*
X036370Y028807D01*
X036566Y029004D01*
X036566Y030106D01*
X036917Y030456D01*
X036996Y030456D01*
X036996Y029456D02*
X036960Y029421D01*
X036960Y029122D01*
X036566Y028689D01*
X036566Y027429D01*
X035169Y026031D01*
X034618Y026031D01*
X034618Y025834D02*
X035326Y025834D01*
X036606Y027114D01*
X036881Y026996D02*
X036881Y027342D01*
X036996Y027456D01*
X036881Y026996D02*
X035523Y025637D01*
X034618Y025637D01*
X034618Y025441D02*
X035641Y025441D01*
X036657Y026456D01*
X036996Y026456D01*
X036996Y025456D02*
X035972Y025456D01*
X035759Y025244D01*
X034618Y025244D01*
X034263Y024889D02*
X036192Y024889D01*
X036488Y025185D01*
X036685Y024673D02*
X036881Y024476D01*
X036976Y024476D01*
X036996Y024456D01*
X036685Y024673D02*
X034559Y024673D01*
X034401Y024515D01*
X034165Y024515D01*
X034066Y024614D01*
X034066Y024889D01*
X033870Y024889D02*
X033870Y024535D01*
X034086Y024319D01*
X034480Y024319D01*
X034637Y024476D01*
X036252Y024476D01*
X036645Y024082D01*
X036645Y023807D01*
X036996Y023456D01*
X036291Y023295D02*
X036291Y022626D01*
X033378Y022626D01*
X033378Y023202D01*
X033397Y023221D01*
X033397Y023551D01*
X034126Y023551D01*
X034126Y023295D01*
X036291Y023295D01*
X036291Y023240D02*
X033397Y023240D01*
X033397Y023337D02*
X034126Y023337D01*
X034126Y023434D02*
X033397Y023434D01*
X033397Y023531D02*
X034126Y023531D01*
X034401Y023728D02*
X034401Y024141D01*
X034013Y024141D01*
X033909Y024245D01*
X033692Y024462D01*
X033692Y024590D01*
X033683Y024600D01*
X033683Y024633D01*
X033663Y024633D01*
X033663Y024600D01*
X033588Y024525D01*
X033364Y024525D01*
X033289Y024600D01*
X033289Y024633D01*
X033269Y024633D01*
X033269Y024600D01*
X033259Y024590D01*
X033259Y024569D01*
X033293Y024535D01*
X033397Y024431D01*
X033397Y023728D01*
X034401Y023728D01*
X034401Y023822D02*
X033397Y023822D01*
X033397Y023919D02*
X034401Y023919D01*
X034401Y024016D02*
X033397Y024016D01*
X033397Y024112D02*
X034401Y024112D01*
X033945Y024209D02*
X033397Y024209D01*
X033397Y024306D02*
X033848Y024306D01*
X033751Y024403D02*
X033397Y024403D01*
X033328Y024500D02*
X033692Y024500D01*
X033673Y024456D02*
X033673Y024889D01*
X033476Y024889D02*
X033476Y025834D01*
X033574Y025933D01*
X032531Y025244D02*
X032255Y025244D01*
X031960Y024948D01*
X031960Y024633D01*
X031763Y024437D01*
X031763Y022271D01*
X032039Y021996D01*
X033023Y021996D01*
X033259Y022232D01*
X036173Y022232D01*
X036948Y021456D01*
X036996Y021456D01*
X036291Y022659D02*
X033378Y022659D01*
X033378Y022756D02*
X036291Y022756D01*
X036291Y022852D02*
X033378Y022852D01*
X033378Y022949D02*
X036291Y022949D01*
X036291Y023046D02*
X033378Y023046D01*
X033378Y023143D02*
X036291Y023143D01*
X033686Y024597D02*
X033660Y024597D01*
X033292Y024597D02*
X033266Y024597D01*
X033082Y024496D02*
X033220Y024358D01*
X033220Y023295D01*
X032846Y022921D01*
X032787Y022862D01*
X032787Y022350D01*
X032177Y022921D02*
X032177Y022960D01*
X032433Y023216D01*
X032590Y023531D01*
X032846Y023787D01*
X032846Y023826D01*
X033082Y024496D02*
X033082Y024889D01*
X032885Y024889D02*
X032885Y024929D01*
X032866Y024948D01*
X032354Y024948D01*
X032196Y024791D01*
X032196Y024397D01*
X032334Y026976D02*
X032885Y026976D01*
X033082Y026976D02*
X033082Y027330D01*
X032944Y027468D01*
X032354Y027468D01*
X031996Y027826D01*
X031996Y027956D01*
X031724Y028413D02*
X033141Y028413D01*
X033476Y028078D01*
X033476Y026976D01*
X033673Y026976D02*
X033673Y028078D01*
X033279Y027527D02*
X032996Y027811D01*
X032996Y027956D01*
X033279Y027527D02*
X033279Y026976D01*
X034598Y028334D02*
X034992Y028334D01*
X035228Y028098D01*
X035228Y027980D01*
X035622Y027941D02*
X035622Y027586D01*
X036161Y028959D02*
X036252Y028959D01*
X036252Y029056D02*
X036238Y029056D01*
X034234Y029346D02*
X034214Y029346D01*
X034214Y029443D02*
X034234Y029443D01*
X034234Y029540D02*
X034214Y029540D01*
X034168Y029637D02*
X034280Y029637D01*
X034083Y029637D02*
X034027Y029637D01*
X034027Y029540D02*
X034037Y029540D01*
X034027Y029443D02*
X034037Y029443D01*
X034027Y029346D02*
X034037Y029346D01*
X034027Y029250D02*
X034037Y029250D01*
X034027Y029153D02*
X034087Y029153D01*
X032944Y029161D02*
X032934Y029171D01*
X032555Y029171D01*
X032276Y031091D02*
X032931Y031091D01*
X033028Y031188D02*
X032373Y031188D01*
X032470Y031285D02*
X033104Y031285D01*
X033007Y031382D02*
X032567Y031382D01*
X032664Y031479D02*
X032910Y031479D01*
X032813Y031576D02*
X032761Y031576D01*
X028728Y027456D02*
X028614Y027342D01*
X028614Y026996D01*
X027255Y025637D01*
X026350Y025637D01*
X026350Y025441D02*
X027374Y025441D01*
X028389Y026456D01*
X028728Y026456D01*
X028338Y027114D02*
X027059Y025834D01*
X026350Y025834D01*
X026350Y025244D02*
X027492Y025244D01*
X027704Y025456D01*
X028728Y025456D01*
X028220Y025185D02*
X027925Y024889D01*
X025996Y024889D01*
X025799Y024889D02*
X025799Y024614D01*
X025897Y024515D01*
X026133Y024515D01*
X026291Y024673D01*
X028417Y024673D01*
X028614Y024476D01*
X028708Y024476D01*
X028728Y024456D01*
X028378Y024082D02*
X028378Y023807D01*
X028728Y023456D01*
X028378Y024082D02*
X027984Y024476D01*
X026370Y024476D01*
X026212Y024319D01*
X025818Y024319D01*
X025602Y024535D01*
X025602Y024889D01*
X025405Y024889D02*
X025405Y024456D01*
X025425Y024462D02*
X025641Y024245D01*
X025745Y024141D01*
X026133Y024141D01*
X026133Y023728D01*
X025129Y023728D01*
X025129Y024431D01*
X025026Y024535D01*
X025026Y024535D01*
X024992Y024569D01*
X024992Y024590D01*
X025002Y024600D01*
X025002Y024633D01*
X025021Y024633D01*
X025021Y024600D01*
X025096Y024525D01*
X025320Y024525D01*
X025395Y024600D01*
X025395Y024633D01*
X025415Y024633D01*
X025415Y024600D01*
X025425Y024590D01*
X025425Y024462D01*
X025425Y024500D02*
X025061Y024500D01*
X025024Y024597D02*
X024998Y024597D01*
X024815Y024496D02*
X024952Y024358D01*
X024952Y023295D01*
X024578Y022921D01*
X024519Y022862D01*
X024519Y022350D01*
X024755Y021996D02*
X023771Y021996D01*
X023496Y022271D01*
X023496Y024437D01*
X023692Y024633D01*
X023692Y024948D01*
X023988Y025244D01*
X024263Y025244D01*
X024263Y025441D02*
X023830Y025441D01*
X023496Y025106D01*
X023496Y024712D01*
X023299Y024515D01*
X023299Y023807D01*
X023141Y023649D01*
X023141Y022941D01*
X022905Y022704D01*
X022905Y021641D01*
X022629Y021366D01*
X021818Y021366D01*
X021728Y021456D01*
X021728Y022456D02*
X021976Y022704D01*
X022629Y022704D01*
X022944Y023019D01*
X022944Y023728D01*
X023102Y023885D01*
X023102Y024594D01*
X023299Y024791D01*
X023299Y025303D01*
X023633Y025637D01*
X024263Y025637D01*
X024263Y025834D02*
X023437Y025834D01*
X023102Y025500D01*
X023102Y024870D01*
X022905Y024673D01*
X022905Y023964D01*
X022629Y023689D01*
X021960Y023689D01*
X021728Y023456D01*
X021728Y024456D02*
X021944Y024673D01*
X022629Y024673D01*
X022905Y024948D01*
X022905Y025696D01*
X023240Y026031D01*
X024263Y026031D01*
X025208Y025834D02*
X025208Y024889D01*
X025392Y024597D02*
X025418Y024597D01*
X025483Y024403D02*
X025129Y024403D01*
X025129Y024306D02*
X025580Y024306D01*
X025677Y024209D02*
X025129Y024209D01*
X025129Y024112D02*
X026133Y024112D01*
X026133Y024016D02*
X025129Y024016D01*
X025129Y023919D02*
X026133Y023919D01*
X026133Y023822D02*
X025129Y023822D01*
X025129Y023551D02*
X025858Y023551D01*
X025858Y023295D01*
X028023Y023295D01*
X028023Y022626D01*
X025110Y022626D01*
X025110Y023202D01*
X025129Y023221D01*
X025129Y023551D01*
X025129Y023531D02*
X025858Y023531D01*
X025858Y023434D02*
X025129Y023434D01*
X025129Y023337D02*
X025858Y023337D01*
X025129Y023240D02*
X028023Y023240D01*
X028023Y023143D02*
X025110Y023143D01*
X025110Y023046D02*
X028023Y023046D01*
X028023Y022949D02*
X025110Y022949D01*
X025110Y022852D02*
X028023Y022852D01*
X028023Y022756D02*
X025110Y022756D01*
X025110Y022659D02*
X028023Y022659D01*
X027905Y022232D02*
X024992Y022232D01*
X024755Y021996D01*
X023909Y022921D02*
X023909Y022960D01*
X024165Y023216D01*
X024322Y023531D01*
X024578Y023787D01*
X024578Y023826D01*
X024815Y024496D02*
X024815Y024889D01*
X024618Y024889D02*
X024618Y024929D01*
X024598Y024948D01*
X024086Y024948D01*
X023929Y024791D01*
X023929Y024397D01*
X025208Y025834D02*
X025307Y025933D01*
X024815Y026976D02*
X024815Y027330D01*
X024677Y027468D01*
X024618Y026976D02*
X024066Y026976D01*
X025063Y028474D02*
X025550Y028474D01*
X025582Y028571D02*
X024966Y028571D01*
X024822Y028959D02*
X025169Y028959D01*
X025169Y029056D02*
X024899Y029056D01*
X024923Y029153D02*
X025169Y029153D01*
X025946Y029346D02*
X025966Y029346D01*
X025966Y029443D02*
X025946Y029443D01*
X025946Y029540D02*
X025966Y029540D01*
X026389Y029153D02*
X026596Y029153D01*
X026603Y029056D02*
X026389Y029056D01*
X026389Y028959D02*
X026657Y028959D01*
X026822Y029141D02*
X026842Y029122D01*
X026822Y029141D02*
X026822Y029417D01*
X026936Y029831D02*
X026610Y029831D01*
X026813Y029928D02*
X026832Y029928D01*
X026832Y030025D02*
X026813Y030025D01*
X026813Y030122D02*
X026832Y030122D01*
X027078Y030086D02*
X027078Y030815D01*
X026921Y030972D01*
X026252Y030972D01*
X025767Y031456D01*
X025728Y031456D01*
X025979Y030994D02*
X024817Y030994D01*
X024720Y030897D02*
X026076Y030897D01*
X026173Y030800D02*
X024623Y030800D01*
X024526Y030703D02*
X026901Y030703D01*
X026901Y030606D02*
X026588Y030606D01*
X026701Y030510D02*
X026901Y030510D01*
X026901Y030413D02*
X026734Y030413D01*
X026488Y030381D02*
X026488Y030106D01*
X026468Y030086D01*
X026388Y030606D02*
X024429Y030606D01*
X024663Y031091D02*
X024008Y031091D01*
X024105Y031188D02*
X024760Y031188D01*
X024836Y031285D02*
X024202Y031285D01*
X024299Y031382D02*
X024739Y031382D01*
X024642Y031479D02*
X024396Y031479D01*
X024493Y031576D02*
X024545Y031576D01*
X027905Y022232D02*
X028681Y021456D01*
X028728Y021456D01*
X029996Y021456D02*
X030086Y021366D01*
X030897Y021366D01*
X034487Y016358D02*
X035660Y016358D01*
X035614Y016262D02*
X034390Y016262D01*
X034598Y016051D02*
X034322Y015775D01*
X033870Y015322D01*
X034263Y014693D02*
X035011Y014693D01*
X035622Y015303D01*
X035897Y015303D02*
X034933Y014338D01*
X034618Y014338D01*
X034618Y014141D02*
X035011Y014141D01*
X036094Y015224D01*
X036094Y015933D01*
X035897Y015736D02*
X035897Y015303D01*
X035897Y015736D02*
X035818Y015815D01*
X035228Y015815D02*
X034992Y016051D01*
X034598Y016051D01*
X035228Y015815D02*
X035228Y015696D01*
X036606Y014830D02*
X035326Y013551D01*
X034618Y013551D01*
X034618Y013354D02*
X035523Y013354D01*
X036881Y014712D01*
X036881Y015059D01*
X036996Y015173D01*
X036996Y014173D02*
X036657Y014173D01*
X035641Y013157D01*
X034618Y013157D01*
X034618Y012960D02*
X035759Y012960D01*
X035972Y013173D01*
X036996Y013173D01*
X036488Y012901D02*
X036192Y012606D01*
X034263Y012606D01*
X034066Y012606D02*
X034066Y012330D01*
X034165Y012232D01*
X034401Y012232D01*
X034559Y012389D01*
X036685Y012389D01*
X036881Y012193D01*
X036976Y012193D01*
X036996Y012173D01*
X036645Y011799D02*
X036645Y011523D01*
X036996Y011173D01*
X036645Y011799D02*
X036252Y012193D01*
X034637Y012193D01*
X034480Y012035D01*
X034086Y012035D01*
X033870Y012252D01*
X033870Y012606D01*
X033673Y012606D02*
X033673Y012173D01*
X033692Y012178D02*
X033909Y011962D01*
X034013Y011858D01*
X034401Y011858D01*
X034401Y011444D01*
X033397Y011444D01*
X033397Y012148D01*
X033293Y012252D01*
X033259Y012286D01*
X033259Y012307D01*
X033269Y012317D01*
X033269Y012350D01*
X033289Y012350D01*
X033289Y012317D01*
X033364Y012242D01*
X033588Y012242D01*
X033663Y012317D01*
X033663Y012350D01*
X033683Y012350D01*
X033683Y012317D01*
X033692Y012307D01*
X033692Y012178D01*
X033692Y012191D02*
X033354Y012191D01*
X033318Y012288D02*
X033259Y012288D01*
X033082Y012212D02*
X033220Y012074D01*
X033220Y011011D01*
X032846Y010637D01*
X032787Y010578D01*
X032787Y010067D01*
X033023Y009712D02*
X032039Y009712D01*
X031763Y009988D01*
X031763Y012153D01*
X031960Y012350D01*
X031960Y012665D01*
X032255Y012960D01*
X032531Y012960D01*
X032354Y012665D02*
X032196Y012507D01*
X032196Y012114D01*
X032354Y012665D02*
X032866Y012665D01*
X032885Y012645D01*
X032885Y012606D01*
X033082Y012606D02*
X033082Y012212D01*
X033397Y012094D02*
X033777Y012094D01*
X033874Y011997D02*
X033397Y011997D01*
X033397Y011900D02*
X033971Y011900D01*
X034401Y011803D02*
X033397Y011803D01*
X033397Y011706D02*
X034401Y011706D01*
X034401Y011609D02*
X033397Y011609D01*
X033397Y011512D02*
X034401Y011512D01*
X034126Y011267D02*
X034126Y011011D01*
X036291Y011011D01*
X036291Y010342D01*
X033378Y010342D01*
X033378Y010918D01*
X033397Y010938D01*
X033397Y011267D01*
X034126Y011267D01*
X034126Y011221D02*
X033397Y011221D01*
X033397Y011124D02*
X034126Y011124D01*
X034126Y011028D02*
X033397Y011028D01*
X033390Y010931D02*
X036291Y010931D01*
X036291Y010834D02*
X033378Y010834D01*
X033378Y010737D02*
X036291Y010737D01*
X036291Y010640D02*
X033378Y010640D01*
X033378Y010543D02*
X036291Y010543D01*
X036291Y010446D02*
X033378Y010446D01*
X033378Y010349D02*
X036291Y010349D01*
X036173Y009948D02*
X033259Y009948D01*
X033023Y009712D01*
X032177Y010637D02*
X032177Y010677D01*
X032433Y010933D01*
X032590Y011248D01*
X032846Y011504D01*
X032846Y011543D01*
X033634Y012288D02*
X033692Y012288D01*
X033476Y012606D02*
X033476Y013551D01*
X033574Y013649D01*
X036173Y009948D02*
X036948Y009173D01*
X036996Y009173D01*
X020460Y009173D02*
X020413Y009173D01*
X019637Y009948D01*
X016724Y009948D01*
X016488Y009712D01*
X015503Y009712D01*
X015228Y009988D01*
X015228Y012153D01*
X015425Y012350D01*
X015425Y012665D01*
X015720Y012960D01*
X015996Y012960D01*
X015996Y013157D02*
X015563Y013157D01*
X015228Y012822D01*
X015228Y012429D01*
X015031Y012232D01*
X015031Y011523D01*
X014874Y011366D01*
X014874Y010657D01*
X014637Y010421D01*
X014637Y009358D01*
X014362Y009082D01*
X013551Y009082D01*
X013460Y009173D01*
X013460Y010173D02*
X013708Y010421D01*
X014362Y010421D01*
X014677Y010736D01*
X014677Y011444D01*
X014834Y011602D01*
X014834Y012311D01*
X015031Y012507D01*
X015031Y013019D01*
X015366Y013354D01*
X015996Y013354D01*
X015996Y013551D02*
X015169Y013551D01*
X014834Y013216D01*
X014834Y012586D01*
X014637Y012389D01*
X014637Y011681D01*
X014362Y011405D01*
X013692Y011405D01*
X013460Y011173D01*
X013460Y012173D02*
X013677Y012389D01*
X014362Y012389D01*
X014637Y012665D01*
X014637Y013413D01*
X014972Y013748D01*
X015996Y013748D01*
X015996Y013944D02*
X014893Y013944D01*
X014362Y013413D01*
X013700Y013413D01*
X013460Y013173D01*
X013460Y014173D02*
X013645Y014358D01*
X014362Y014358D01*
X014578Y014141D01*
X015996Y014141D01*
X015996Y014338D02*
X015405Y014338D01*
X014362Y015263D01*
X013551Y015263D01*
X013460Y015173D01*
X013496Y016130D02*
X013460Y016173D01*
X013496Y016130D02*
X014362Y016130D01*
X015799Y014693D01*
X016350Y014693D01*
X016547Y014693D02*
X016547Y015047D01*
X016409Y015185D01*
X015818Y015185D01*
X015460Y015543D01*
X015460Y015673D01*
X015189Y016130D02*
X014913Y016405D01*
X014204Y016405D01*
X013437Y017173D01*
X013460Y017173D01*
X013191Y017812D02*
X014303Y017812D01*
X014303Y017909D02*
X013191Y017909D01*
X013191Y018006D02*
X014303Y018006D01*
X014303Y018103D02*
X013191Y018103D01*
X013191Y018200D02*
X014303Y018200D01*
X014350Y018297D02*
X013191Y018297D01*
X013191Y018394D02*
X015982Y018394D01*
X016079Y018491D02*
X013191Y018491D01*
X013191Y018588D02*
X016176Y018588D01*
X016273Y018685D02*
X013191Y018685D01*
X014480Y018103D02*
X016321Y018103D01*
X016224Y018006D02*
X014480Y018006D01*
X014480Y017909D02*
X016127Y017909D01*
X016039Y018200D02*
X017996Y018200D01*
X017974Y018103D02*
X017914Y018103D01*
X017925Y018006D02*
X017992Y018006D01*
X017994Y017909D02*
X017925Y017909D01*
X017925Y017812D02*
X017994Y017812D01*
X018200Y017803D02*
X018220Y017822D01*
X018220Y018098D01*
X018466Y018103D02*
X018633Y018103D01*
X018633Y018200D02*
X018444Y018200D01*
X018369Y018297D02*
X018633Y018297D01*
X018633Y018394D02*
X016232Y018394D01*
X016135Y018297D02*
X018071Y018297D01*
X017834Y018588D02*
X016426Y018588D01*
X016523Y018685D02*
X017737Y018685D01*
X017807Y018615D02*
X017807Y018615D01*
X017984Y018689D02*
X018653Y018689D01*
X018811Y018531D01*
X018811Y017803D01*
X019057Y017812D02*
X019076Y017812D01*
X019076Y017715D02*
X019057Y017715D01*
X019047Y017618D02*
X019086Y017618D01*
X019234Y017425D02*
X017492Y017425D01*
X017492Y017328D02*
X017521Y017328D01*
X017502Y017231D02*
X017492Y017231D01*
X017492Y017134D02*
X017502Y017134D01*
X017492Y017037D02*
X017502Y017037D01*
X017492Y016940D02*
X017502Y016940D01*
X017492Y016843D02*
X017767Y016843D01*
X017767Y016746D02*
X017492Y016746D01*
X017492Y016649D02*
X017741Y016649D01*
X017644Y016552D02*
X017492Y016552D01*
X017492Y016455D02*
X017547Y016455D01*
X017315Y016455D02*
X016488Y016455D01*
X016488Y016358D02*
X017315Y016358D01*
X017315Y016262D02*
X016724Y016262D01*
X016606Y016130D02*
X016941Y015795D01*
X016941Y014693D01*
X017137Y014693D02*
X017137Y015795D01*
X017944Y016602D01*
X017944Y017133D01*
X017698Y017134D02*
X017679Y017134D01*
X017679Y017231D02*
X017698Y017231D01*
X017718Y017328D02*
X017659Y017328D01*
X018171Y017328D02*
X018230Y017328D01*
X018210Y017231D02*
X018191Y017231D01*
X018191Y017134D02*
X018210Y017134D01*
X018122Y016843D02*
X018328Y016843D01*
X018346Y016746D02*
X018122Y016746D01*
X018122Y016649D02*
X018415Y016649D01*
X018574Y016838D02*
X018555Y016858D01*
X018555Y017133D01*
X018761Y017134D02*
X018860Y017134D01*
X018860Y017231D02*
X018761Y017231D01*
X018758Y017328D02*
X018863Y017328D01*
X018860Y017037D02*
X018761Y017037D01*
X018799Y016940D02*
X018862Y016940D01*
X018820Y016843D02*
X019234Y016843D01*
X019268Y016746D02*
X018803Y016746D01*
X018733Y016649D02*
X019388Y016649D01*
X019572Y016649D02*
X019710Y016649D01*
X019716Y016746D02*
X019692Y016746D01*
X019657Y016552D02*
X018122Y016552D01*
X018048Y016455D02*
X019657Y016455D01*
X019657Y016358D02*
X019520Y016358D01*
X019567Y016262D02*
X019657Y016262D01*
X019322Y016208D02*
X019283Y016169D01*
X019283Y015815D01*
X019362Y015736D01*
X019362Y015303D01*
X018397Y014338D01*
X018082Y014338D01*
X018082Y014141D02*
X018476Y014141D01*
X019559Y015224D01*
X019559Y015933D01*
X019086Y015657D02*
X019086Y015303D01*
X018476Y014693D01*
X017728Y014693D01*
X017531Y014693D02*
X017531Y015047D01*
X017787Y015303D01*
X018063Y015027D01*
X018456Y015027D01*
X018732Y015303D01*
X018692Y015696D02*
X018692Y015815D01*
X018456Y016051D01*
X018063Y016051D01*
X017787Y015775D01*
X017334Y015322D01*
X017334Y014693D01*
X016744Y014693D02*
X016744Y015244D01*
X016460Y015527D01*
X016460Y015673D01*
X016606Y016130D02*
X015189Y016130D01*
X015210Y016358D02*
X016281Y016358D01*
X016281Y016455D02*
X015113Y016455D01*
X015016Y016552D02*
X016281Y016552D01*
X016488Y016552D02*
X017315Y016552D01*
X017315Y016649D02*
X017098Y016649D01*
X017120Y016746D02*
X017315Y016746D01*
X016901Y016746D02*
X016621Y016746D01*
X016655Y016843D02*
X016901Y016843D01*
X016901Y016940D02*
X016649Y016940D01*
X016598Y017037D02*
X016901Y017037D01*
X016901Y016649D02*
X016501Y016649D01*
X015685Y016746D02*
X014758Y016746D01*
X014705Y016843D02*
X015656Y016843D01*
X015656Y016940D02*
X014642Y016940D01*
X014642Y017037D02*
X015656Y017037D01*
X015656Y017134D02*
X014642Y017134D01*
X014642Y017231D02*
X015656Y017231D01*
X015656Y017328D02*
X014570Y017328D01*
X014666Y017400D02*
X014278Y017400D01*
X014480Y017425D02*
X015656Y017425D01*
X015666Y017522D02*
X014620Y017522D01*
X014642Y017618D02*
X015656Y017618D01*
X015656Y017715D02*
X014642Y017715D01*
X014597Y017812D02*
X015701Y017812D01*
X016475Y018006D02*
X017748Y018006D01*
X017984Y018689D02*
X017500Y019173D01*
X017460Y019173D01*
X016595Y018975D02*
X015908Y018975D01*
X015812Y018879D02*
X016466Y018879D01*
X016370Y018782D02*
X015715Y018782D01*
X016005Y019072D02*
X016498Y019072D01*
X016401Y019169D02*
X016102Y019169D01*
X016199Y019266D02*
X016304Y019266D01*
X016329Y018491D02*
X018600Y018491D01*
X018565Y017812D02*
X018545Y017812D01*
X018545Y017715D02*
X018565Y017715D01*
X018574Y017618D02*
X018535Y017618D01*
X017951Y016358D02*
X019125Y016358D01*
X019078Y016262D02*
X017855Y016262D01*
X020070Y014830D02*
X018791Y013551D01*
X018082Y013551D01*
X018082Y013354D02*
X018988Y013354D01*
X020346Y014712D01*
X020346Y015059D01*
X020460Y015173D01*
X020460Y014173D02*
X020122Y014173D01*
X019106Y013157D01*
X018082Y013157D01*
X018082Y012960D02*
X019224Y012960D01*
X019437Y013173D01*
X020460Y013173D01*
X019952Y012901D02*
X019657Y012606D01*
X017728Y012606D01*
X017531Y012606D02*
X017531Y012330D01*
X017629Y012232D01*
X017866Y012232D01*
X018023Y012389D01*
X020149Y012389D01*
X020346Y012193D01*
X020441Y012193D01*
X020460Y012173D01*
X020110Y011799D02*
X020110Y011523D01*
X020460Y011173D01*
X020110Y011799D02*
X019716Y012193D01*
X018102Y012193D01*
X017944Y012035D01*
X017551Y012035D01*
X017334Y012252D01*
X017334Y012606D01*
X017137Y012606D02*
X017137Y012173D01*
X017157Y012178D02*
X017374Y011962D01*
X017477Y011858D01*
X017866Y011858D01*
X017866Y011444D01*
X016862Y011444D01*
X016862Y012148D01*
X016758Y012252D01*
X016724Y012286D01*
X016724Y012307D01*
X016734Y012317D01*
X016734Y012350D01*
X016753Y012350D01*
X016753Y012317D01*
X016828Y012242D01*
X017053Y012242D01*
X017128Y012317D01*
X017128Y012350D01*
X017147Y012350D01*
X017147Y012317D01*
X017157Y012307D01*
X017157Y012178D01*
X017157Y012191D02*
X016819Y012191D01*
X016783Y012288D02*
X016724Y012288D01*
X016547Y012212D02*
X016685Y012074D01*
X016685Y011011D01*
X016311Y010637D01*
X016252Y010578D01*
X016252Y010067D01*
X016842Y010342D02*
X019755Y010342D01*
X019755Y011011D01*
X017590Y011011D01*
X017590Y011267D01*
X016862Y011267D01*
X016862Y010938D01*
X016842Y010918D01*
X016842Y010342D01*
X016842Y010349D02*
X019755Y010349D01*
X019755Y010446D02*
X016842Y010446D01*
X016842Y010543D02*
X019755Y010543D01*
X019755Y010640D02*
X016842Y010640D01*
X016842Y010737D02*
X019755Y010737D01*
X019755Y010834D02*
X016842Y010834D01*
X016854Y010931D02*
X019755Y010931D01*
X017866Y011512D02*
X016862Y011512D01*
X016862Y011609D02*
X017866Y011609D01*
X017866Y011706D02*
X016862Y011706D01*
X016862Y011803D02*
X017866Y011803D01*
X017435Y011900D02*
X016862Y011900D01*
X016862Y011997D02*
X017338Y011997D01*
X017242Y012094D02*
X016862Y012094D01*
X017098Y012288D02*
X017157Y012288D01*
X016941Y012606D02*
X016941Y013551D01*
X017039Y013649D01*
X016547Y012606D02*
X016547Y012212D01*
X016350Y012606D02*
X016350Y012645D01*
X016330Y012665D01*
X015818Y012665D01*
X015661Y012507D01*
X015661Y012114D01*
X016311Y011543D02*
X016311Y011504D01*
X016055Y011248D01*
X015897Y010933D01*
X015641Y010677D01*
X015641Y010637D01*
X016862Y011028D02*
X017590Y011028D01*
X017590Y011124D02*
X016862Y011124D01*
X016862Y011221D02*
X017590Y011221D01*
X014677Y017389D02*
X014666Y017400D01*
X019637Y022232D02*
X020413Y021456D01*
X020460Y021456D01*
X011842Y024082D02*
X011448Y024476D01*
X009834Y024476D01*
X009677Y024319D01*
X008036Y019266D02*
X007932Y019266D01*
X007835Y019169D02*
X008133Y019169D01*
X008230Y019072D02*
X007738Y019072D01*
X007641Y018975D02*
X008327Y018975D01*
X008199Y018879D02*
X007544Y018879D01*
X007447Y018782D02*
X008102Y018782D01*
X008220Y017425D02*
X008633Y017425D01*
X008633Y017328D02*
X008220Y017328D01*
X008249Y017400D02*
X008299Y017350D01*
X008249Y017400D02*
X007752Y017400D01*
X008220Y017231D02*
X008633Y017231D01*
X008633Y017134D02*
X008220Y017134D01*
X008330Y017037D02*
X008633Y017037D01*
X008633Y016940D02*
X008382Y016940D01*
X008387Y016843D02*
X008633Y016843D01*
X008633Y016746D02*
X008353Y016746D01*
X008233Y016649D02*
X008633Y016649D01*
X008457Y016262D02*
X009047Y016262D01*
X008141Y016878D02*
X008131Y016888D01*
X007752Y016888D01*
X007473Y031091D02*
X008128Y031091D01*
X008225Y031188D02*
X007570Y031188D01*
X007667Y031285D02*
X008301Y031285D01*
X008204Y031382D02*
X007764Y031382D01*
X007861Y031479D02*
X008107Y031479D01*
X008010Y031576D02*
X007958Y031576D01*
D25*
X010799Y029417D02*
X010838Y029417D01*
X010858Y029437D01*
X009992Y028059D02*
X009992Y027822D01*
X009992Y027586D01*
X007787Y024673D02*
X007787Y024476D01*
X007866Y024397D01*
X007393Y024397D02*
X007374Y024378D01*
X007374Y023826D01*
X007374Y022921D02*
X007374Y022488D01*
X007236Y022350D01*
X007511Y022350D01*
X006094Y022232D02*
X006094Y022035D01*
X005818Y022035D01*
X006094Y022035D02*
X006094Y021838D01*
X006094Y023216D02*
X005818Y023216D01*
X005818Y024200D02*
X006094Y024200D01*
X006094Y025224D02*
X005818Y025224D01*
X005818Y026169D02*
X006094Y026169D01*
X006094Y027074D02*
X005818Y027074D01*
X005818Y027941D02*
X006094Y027941D01*
X014086Y027941D02*
X014362Y027941D01*
X014362Y027074D02*
X014086Y027074D01*
X014086Y026169D02*
X014362Y026169D01*
X014362Y025224D02*
X014086Y025224D01*
X014086Y024200D02*
X014362Y024200D01*
X014362Y023216D02*
X014086Y023216D01*
X014362Y022232D02*
X014362Y022035D01*
X014086Y022035D01*
X014362Y022035D02*
X014362Y021838D01*
X015503Y022350D02*
X015641Y022488D01*
X015641Y022921D01*
X015779Y022350D02*
X015503Y022350D01*
X015641Y023826D02*
X015641Y024378D01*
X015661Y024397D01*
X016055Y024476D02*
X016055Y024673D01*
X016055Y024476D02*
X016133Y024397D01*
X018259Y027586D02*
X018259Y027822D01*
X018259Y028059D01*
X019066Y029417D02*
X019106Y029417D01*
X019126Y029437D01*
X022354Y027941D02*
X022629Y027941D01*
X022629Y027074D02*
X022354Y027074D01*
X022354Y026169D02*
X022629Y026169D01*
X022629Y025224D02*
X022354Y025224D01*
X022354Y024200D02*
X022629Y024200D01*
X022629Y023216D02*
X022354Y023216D01*
X022629Y022232D02*
X022629Y022035D01*
X022354Y022035D01*
X022629Y022035D02*
X022629Y021838D01*
X023771Y022350D02*
X023909Y022488D01*
X023909Y022921D01*
X024047Y022350D02*
X023771Y022350D01*
X023909Y023826D02*
X023909Y024378D01*
X023929Y024397D01*
X024322Y024476D02*
X024322Y024673D01*
X024322Y024476D02*
X024401Y024397D01*
X026527Y027586D02*
X026527Y027822D01*
X026527Y028059D01*
X027334Y029417D02*
X027374Y029417D01*
X027393Y029437D01*
X030622Y027941D02*
X030897Y027941D01*
X030897Y027074D02*
X030622Y027074D01*
X030622Y026169D02*
X030897Y026169D01*
X030897Y025224D02*
X030622Y025224D01*
X030622Y024200D02*
X030897Y024200D01*
X030897Y023216D02*
X030622Y023216D01*
X030897Y022232D02*
X030897Y022035D01*
X030622Y022035D01*
X030897Y022035D02*
X030897Y021838D01*
X032039Y022350D02*
X032177Y022488D01*
X032177Y022921D01*
X032315Y022350D02*
X032039Y022350D01*
X032177Y023826D02*
X032177Y024378D01*
X032196Y024397D01*
X032590Y024476D02*
X032590Y024673D01*
X032590Y024476D02*
X032669Y024397D01*
X034795Y027586D02*
X034795Y027822D01*
X034795Y028059D01*
X035602Y029417D02*
X035641Y029417D01*
X035661Y029437D01*
X035661Y017153D02*
X035641Y017133D01*
X035602Y017133D01*
X034795Y015775D02*
X034795Y015539D01*
X034795Y015303D01*
X032590Y012389D02*
X032590Y012193D01*
X032669Y012114D01*
X032196Y012114D02*
X032177Y012094D01*
X032177Y011543D01*
X032177Y010637D02*
X032177Y010204D01*
X032039Y010067D01*
X032315Y010067D01*
X030897Y009948D02*
X030897Y009752D01*
X030622Y009752D01*
X030897Y009752D02*
X030897Y009555D01*
X030897Y010933D02*
X030622Y010933D01*
X030622Y011917D02*
X030897Y011917D01*
X030897Y012941D02*
X030622Y012941D01*
X030622Y013885D02*
X030897Y013885D01*
X030897Y014791D02*
X030622Y014791D01*
X030622Y015657D02*
X030897Y015657D01*
X027393Y017153D02*
X027374Y017133D01*
X027334Y017133D01*
X026527Y015775D02*
X026527Y015539D01*
X026527Y015303D01*
X024322Y012389D02*
X024322Y012193D01*
X024401Y012114D01*
X023929Y012114D02*
X023909Y012094D01*
X023909Y011543D01*
X023909Y010637D02*
X023909Y010204D01*
X023771Y010067D01*
X024047Y010067D01*
X022629Y009948D02*
X022629Y009752D01*
X022354Y009752D01*
X022629Y009752D02*
X022629Y009555D01*
X022629Y010933D02*
X022354Y010933D01*
X022354Y011917D02*
X022629Y011917D01*
X022629Y012941D02*
X022354Y012941D01*
X022354Y013885D02*
X022629Y013885D01*
X022629Y014791D02*
X022354Y014791D01*
X022354Y015657D02*
X022629Y015657D01*
X019126Y017153D02*
X019106Y017133D01*
X019066Y017133D01*
X018259Y015775D02*
X018259Y015539D01*
X018259Y015303D01*
X016055Y012389D02*
X016055Y012193D01*
X016133Y012114D01*
X015661Y012114D02*
X015641Y012094D01*
X015641Y011543D01*
X015641Y010637D02*
X015641Y010204D01*
X015503Y010067D01*
X015779Y010067D01*
X014362Y009948D02*
X014362Y009752D01*
X014086Y009752D01*
X014362Y009752D02*
X014362Y009555D01*
X014362Y010933D02*
X014086Y010933D01*
X014086Y011917D02*
X014362Y011917D01*
X014362Y012941D02*
X014086Y012941D01*
X014086Y013885D02*
X014362Y013885D01*
X014362Y014791D02*
X014086Y014791D01*
X014086Y015657D02*
X014362Y015657D01*
X010858Y017153D02*
X010838Y017133D01*
X010799Y017133D01*
X009992Y015775D02*
X009992Y015539D01*
X009992Y015303D01*
X007787Y012389D02*
X007787Y012193D01*
X007866Y012114D01*
X007393Y012114D02*
X007374Y012094D01*
X007374Y011543D01*
X007374Y010637D02*
X007374Y010204D01*
X007236Y010067D01*
X007511Y010067D01*
X006094Y009948D02*
X006094Y009752D01*
X005818Y009752D01*
X006094Y009752D02*
X006094Y009555D01*
X006094Y010933D02*
X005818Y010933D01*
X005818Y011917D02*
X006094Y011917D01*
X006094Y012941D02*
X005818Y012941D01*
X005818Y013885D02*
X006094Y013885D01*
X006094Y014791D02*
X005818Y014791D01*
X005818Y015657D02*
X006094Y015657D01*
D26*
X010858Y017153D02*
X011212Y017153D01*
X011212Y016878D01*
X019126Y017153D02*
X019480Y017153D01*
X019480Y016878D01*
X027393Y017153D02*
X027748Y017153D01*
X027748Y016878D01*
X035661Y017153D02*
X036015Y017153D01*
X036015Y016878D01*
X036015Y029161D02*
X036015Y029437D01*
X035661Y029437D01*
X027748Y029437D02*
X027748Y029161D01*
X027748Y029437D02*
X027393Y029437D01*
X019480Y029437D02*
X019480Y029161D01*
X019480Y029437D02*
X019126Y029437D01*
X011212Y029437D02*
X011212Y029161D01*
X011212Y029437D02*
X010858Y029437D01*
M02*
