%
M48
M72
T01C0.0118
T02C0.0394
T03C0.1575
%
T01
X6164Y9870
X6164Y10854
X6164Y11878
X6164Y12862
X7621Y12429
X8251Y11878
X8920Y11169
X8605Y10933
X8015Y10657
X9235Y10933
X9550Y11838
X10613Y12114
X10810Y12704
X11282Y13964
X11282Y14909
X11282Y15303
X10967Y15972
X11282Y16051
X10534Y15145
X10534Y14791
X10141Y15539
X9393Y15067
X9235Y14043
X8841Y13649
X8448Y13256
X8448Y14043
X9235Y13256
X7739Y16248
X7385Y16720
X7660Y17744
X7267Y17862
X6873Y17744
X8645Y16996
X8645Y16720
X8645Y16444
X9235Y16759
X9235Y17114
X10534Y18019
X10928Y17626
X9826Y18374
X5849Y16051
X5849Y14594
X6164Y22153
X6164Y23137
X6164Y24161
X6164Y25145
X7621Y24712
X8251Y24161
X8920Y23452
X8605Y23216
X8015Y22941
X9235Y23216
X9550Y24122
X10613Y24397
X10810Y24988
X11282Y26248
X11282Y27193
X11282Y27586
X10967Y28256
X11282Y28334
X10534Y27429
X10534Y27074
X10141Y27822
X9393Y27350
X9235Y26326
X8841Y25933
X8448Y26326
X8448Y25539
X9235Y25539
X8645Y28728
X8645Y29004
X8645Y29279
X9235Y29397
X9235Y29043
X7739Y28531
X7385Y29004
X7660Y30027
X7267Y30145
X6873Y30027
X5849Y28334
X5849Y26878
X9826Y30657
X10534Y30303
X10928Y29909
X14117Y28334
X14117Y26878
X14432Y25145
X14432Y24161
X14432Y23137
X14432Y22153
X16282Y22941
X16873Y23216
X17188Y23452
X17503Y23216
X17818Y24122
X18881Y24397
X19078Y24988
X19550Y26248
X19550Y27193
X19550Y27586
X19235Y28256
X19550Y28334
X18802Y27429
X18802Y27074
X18408Y27822
X17660Y27350
X17503Y26326
X17109Y25933
X16716Y26326
X16716Y25539
X17503Y25539
X16519Y24161
X15889Y24712
X16007Y28531
X15653Y29004
X15928Y30027
X15534Y30145
X15141Y30027
X16912Y29279
X16912Y29004
X16912Y28728
X17503Y29043
X17503Y29397
X18093Y30657
X18802Y30303
X19196Y29909
X22385Y28334
X22385Y26878
X22700Y25145
X22700Y24161
X22700Y23137
X22700Y22153
X24550Y22941
X25141Y23216
X25456Y23452
X25771Y23216
X26086Y24122
X27149Y24397
X27345Y24988
X27818Y26248
X27818Y27193
X27818Y27586
X27070Y27429
X27070Y27074
X26676Y27822
X25928Y27350
X25771Y26326
X25377Y25933
X24983Y26326
X24983Y25539
X25771Y25539
X24786Y24161
X24156Y24712
X27503Y28256
X27818Y28334
X27464Y29909
X27070Y30303
X26361Y30657
X25771Y29397
X25771Y29043
X25180Y29004
X25180Y29279
X25180Y28728
X24275Y28531
X23920Y29004
X24196Y30027
X23802Y30145
X23408Y30027
X30653Y28334
X30653Y26878
X32542Y28531
X32188Y29004
X32464Y30027
X32070Y30145
X31676Y30027
X33448Y29279
X33448Y29004
X33448Y28728
X34038Y29043
X34038Y29397
X35338Y30303
X35731Y29909
X34629Y30657
X35771Y28256
X36086Y28334
X36086Y27586
X36086Y27193
X35338Y27074
X35338Y27429
X34944Y27822
X34196Y27350
X34038Y26326
X33645Y25933
X34038Y25539
X33251Y25539
X33251Y26326
X32424Y24712
X33054Y24161
X33723Y23452
X33408Y23216
X32818Y22941
X34038Y23216
X34353Y24122
X35416Y24397
X35613Y24988
X36086Y26248
X30967Y25145
X30967Y24161
X30967Y23137
X30967Y22153
X34629Y18374
X35338Y18019
X35731Y17626
X36086Y16051
X35771Y15972
X36086Y15303
X36086Y14909
X35338Y14791
X35338Y15145
X34944Y15539
X34196Y15067
X34038Y14043
X33645Y13649
X34038Y13256
X33251Y13256
X33251Y14043
X32424Y12429
X33054Y11878
X33723Y11169
X33408Y10933
X32818Y10657
X34038Y10933
X34353Y11838
X35416Y12114
X35613Y12704
X36086Y13964
X34038Y16759
X34038Y17114
X33448Y16996
X33448Y16720
X33448Y16444
X32542Y16248
X32188Y16720
X32464Y17744
X32070Y17862
X31676Y17744
X30653Y16051
X30653Y14594
X30967Y12862
X30967Y11878
X30967Y10854
X30967Y9870
X27149Y12114
X27345Y12704
X27818Y13964
X27818Y14909
X27070Y14791
X27070Y15145
X26676Y15539
X25928Y15067
X25771Y14043
X25377Y13649
X25771Y13256
X24983Y13256
X24983Y14043
X24156Y12429
X24786Y11878
X25456Y11169
X25771Y10933
X25141Y10933
X24550Y10657
X22700Y10854
X22700Y11878
X22700Y12862
X22385Y14594
X22385Y16051
X23920Y16720
X24275Y16248
X25180Y16444
X25180Y16720
X25180Y16996
X25771Y17114
X25771Y16759
X27070Y18019
X27464Y17626
X26361Y18374
X24196Y17744
X23802Y17862
X23408Y17744
X19550Y16051
X19235Y15972
X19550Y15303
X19550Y14909
X18802Y14791
X18802Y15145
X18408Y15539
X17660Y15067
X17503Y14043
X17109Y13649
X16716Y13256
X17503Y13256
X16716Y14043
X15889Y12429
X16519Y11878
X17188Y11169
X17503Y10933
X16873Y10933
X16282Y10657
X14432Y10854
X14432Y11878
X14432Y12862
X14117Y14594
X14117Y16051
X15653Y16720
X16007Y16248
X16912Y16444
X16912Y16720
X16912Y16996
X17503Y17114
X17503Y16759
X15928Y17744
X15534Y17862
X15141Y17744
X18093Y18374
X18802Y18019
X19196Y17626
X19550Y13964
X19078Y12704
X18881Y12114
X17818Y11838
X14432Y9870
X22700Y9870
X26086Y11838
X27818Y15303
X27503Y15972
X27818Y16051
T02
X28798Y16173
X28798Y17173
X28798Y18173
X28798Y19173
X27798Y19173
X26798Y19173
X25798Y19173
X24798Y19173
X23798Y19173
X22798Y19173
X21798Y19173
X21798Y20173
X20530Y20173
X20530Y19173
X19530Y19173
X18530Y19173
X17530Y19173
X16530Y19173
X15530Y19173
X14530Y19173
X13530Y19173
X13530Y20173
X13530Y21456
X13530Y22456
X13530Y23456
X13530Y24456
X13530Y25456
X13530Y26456
X13530Y27456
X13530Y28456
X13530Y29456
X13530Y30456
X13530Y31456
X13530Y32456
X14530Y31456
X15530Y31456
X16530Y31456
X17530Y31456
X18530Y31456
X19530Y31456
X20530Y31456
X20530Y32456
X21798Y32456
X21798Y31456
X21798Y30456
X21798Y29456
X21798Y28456
X21798Y27456
X21798Y26456
X21798Y25456
X21798Y24456
X21798Y23456
X21798Y22456
X21798Y21456
X20530Y21456
X20530Y22456
X20530Y23456
X19530Y22956
X19530Y23956
X20530Y24456
X20530Y25456
X20530Y26456
X20530Y27456
X20530Y28456
X20530Y29456
X20530Y30456
X22798Y31456
X23798Y31456
X24798Y31456
X25798Y31456
X26798Y31456
X27798Y31456
X28798Y31456
X28798Y32456
X30066Y32456
X30066Y31456
X30066Y30456
X30066Y29456
X30066Y28456
X30066Y27456
X30066Y26456
X30066Y25456
X30066Y24456
X30066Y23456
X30066Y22456
X30066Y21456
X28798Y21456
X28798Y22456
X28798Y23456
X28798Y24456
X28798Y25456
X28798Y26456
X28798Y27456
X28798Y28456
X28798Y29456
X28798Y30456
X31066Y31456
X32066Y31456
X33066Y31456
X34066Y31456
X35066Y31456
X36066Y31456
X37066Y31456
X37066Y32456
X37066Y30456
X37066Y29456
X37066Y28456
X37066Y27456
X37066Y26456
X37066Y25456
X37066Y24456
X37066Y23456
X37066Y22456
X37066Y21456
X37066Y20173
X37066Y19173
X36066Y19173
X35066Y19173
X34066Y19173
X33066Y19173
X32066Y19173
X31066Y19173
X30066Y19173
X30066Y20173
X28798Y20173
X30066Y18173
X30066Y17173
X30066Y16173
X30066Y15173
X30066Y14173
X30066Y13173
X30066Y12173
X30066Y11173
X30066Y10173
X30066Y9173
X28798Y9173
X28798Y10173
X28798Y11173
X28798Y12173
X28798Y13173
X28798Y14173
X28798Y15173
X32066Y15673
X33066Y15673
X37066Y16173
X37066Y17173
X37066Y18173
X37066Y15173
X37066Y14173
X37066Y13173
X37066Y12173
X37066Y11173
X37066Y10173
X37066Y9173
X36066Y10673
X36066Y11673
X27798Y11673
X27798Y10673
X24798Y15673
X23798Y15673
X21798Y16173
X21798Y17173
X21798Y18173
X20530Y18173
X20530Y17173
X20530Y16173
X20530Y15173
X20530Y14173
X20530Y13173
X20530Y12173
X19530Y11673
X20530Y11173
X20530Y10173
X19530Y10673
X20530Y9173
X21798Y9173
X21798Y10173
X21798Y11173
X21798Y12173
X21798Y13173
X21798Y14173
X21798Y15173
X16530Y15673
X15530Y15673
X13530Y16173
X13530Y17173
X13530Y18173
X12263Y18173
X12263Y17173
X12263Y16173
X12263Y15173
X12263Y14173
X12263Y13173
X12263Y12173
X11263Y11673
X12263Y11173
X12263Y10173
X11263Y10673
X12263Y9173
X13530Y9173
X13530Y10173
X13530Y11173
X13530Y12173
X13530Y13173
X13530Y14173
X13530Y15173
X12263Y19173
X11263Y19173
X10263Y19173
X9263Y19173
X8263Y19173
X7263Y19173
X6263Y19173
X5263Y19173
X5263Y20173
X5263Y21456
X5263Y22456
X5263Y23456
X5263Y24456
X5263Y25456
X5263Y26456
X5263Y27456
X5263Y28456
X5263Y29456
X5263Y30456
X5263Y31456
X6263Y31456
X5263Y32456
X7263Y31456
X8263Y31456
X9263Y31456
X10263Y31456
X11263Y31456
X12263Y31456
X12263Y32456
X12263Y30456
X12263Y29456
X12263Y28456
X12263Y27456
X12263Y26456
X12263Y25456
X12263Y24456
X11263Y23956
X12263Y23456
X12263Y22456
X11263Y22956
X12263Y21456
X12263Y20173
X8263Y15673
X7263Y15673
X5263Y16173
X5263Y17173
X5263Y18173
X5263Y15173
X5263Y14173
X5263Y13173
X5263Y12173
X5263Y11173
X5263Y10173
X5263Y9173
X7263Y27956
X8263Y27956
X15530Y27956
X16530Y27956
X23798Y27956
X24798Y27956
X27798Y23956
X27798Y22956
X32066Y27956
X33066Y27956
X36066Y23956
X36066Y22956
T03
X6755Y6405
X35574Y6405
X35574Y35224
X6755Y35224
M30
