%
M48
M72
T01C0.0118
T02C0.0315
T03C0.0394
T04C0.1260
%
T01
X38266Y22744
X36573Y23570
X36573Y22389
X29919Y10224
X29644Y12153
X30470Y12507
X30037Y12822
X31927Y11641
X31927Y11878
X31140Y11208
X31573Y11208
X28226Y11051
X28226Y9870
X23226Y11208
X22793Y11208
X23581Y11641
X23581Y11878
X22124Y12507
X21691Y12822
X21297Y12153
X19880Y11996
X19880Y11051
X19880Y9870
X13777Y12507
X13344Y12822
X12951Y12153
X11533Y11996
X11533Y11051
X11533Y9870
X13226Y10224
X15234Y11641
X15234Y11878
X14447Y11208
X14880Y11208
X14762Y13413
X14762Y13767
X15116Y13767
X14762Y14122
X14407Y13767
X11533Y15775
X11533Y13885
X11533Y12941
X11533Y14830
X11966Y16799
X12400Y18256
X12400Y17665
X12951Y17665
X12951Y17114
X12400Y17114
X11533Y22389
X11533Y23570
X11533Y24515
X11533Y25460
X11533Y26405
X11533Y27350
X11533Y28295
X12400Y30775
X12400Y30185
X12951Y30185
X12951Y29633
X12400Y29633
X11966Y29319
X20746Y30775
X20746Y30185
X21297Y30185
X21297Y29633
X20746Y29633
X20313Y29319
X19880Y28295
X19880Y26405
X19880Y25460
X19880Y24515
X19880Y23570
X19880Y22389
X21573Y22744
X22124Y25027
X21691Y25342
X21297Y24673
X23581Y24161
X23581Y24397
X28226Y23570
X28226Y24515
X28226Y25460
X25746Y25539
X23108Y25933
X23108Y26287
X22754Y26287
X23108Y26641
X23463Y26287
X24171Y28256
X24526Y28295
X24880Y28295
X24526Y27941
X23108Y28885
X23108Y29122
X23108Y29358
X22400Y31287
X23148Y31287
X23659Y31011
X24014Y30815
X25116Y31011
X25352Y29476
X25116Y28807
X25352Y28570
X25864Y27468
X28226Y27350
X28226Y28295
X28226Y26405
X29092Y30775
X29092Y30185
X29092Y29633
X28659Y29319
X37439Y30185
X37990Y30185
X37990Y29633
X37439Y29633
X37006Y29319
X36573Y28295
X36573Y26405
X36573Y25460
X36573Y24515
X37990Y24673
X38817Y25027
X38384Y25342
X40274Y24161
X40274Y24397
X39919Y23728
X39486Y23728
X42439Y25539
X40864Y28256
X41218Y28295
X41218Y27941
X41573Y28295
X42045Y28570
X41809Y28807
X42045Y29476
X39801Y29358
X39801Y29122
X39801Y28885
X38974Y29515
X40352Y31011
X40707Y30815
X41809Y31011
X39840Y31287
X39092Y31287
X37439Y30775
X33699Y29476
X31455Y29358
X31455Y29122
X31455Y28885
X32518Y28256
X32872Y28295
X33226Y28295
X32872Y27941
X30628Y29515
X29644Y29633
X29644Y30185
X32006Y31011
X32360Y30815
X33463Y31011
X31494Y31287
X30746Y31287
X23226Y23728
X22793Y23728
X13777Y25027
X13344Y25342
X12951Y24673
X15234Y24161
X15234Y24397
X14447Y23728
X14880Y23728
X13226Y22744
X14762Y25933
X14762Y26287
X15116Y26287
X14762Y26641
X14407Y26287
X14762Y28885
X14762Y29122
X14762Y29358
X15313Y31011
X15667Y30815
X16770Y31011
X17006Y29476
X16770Y28807
X17006Y28570
X16533Y28295
X16179Y28295
X16179Y27941
X15825Y28256
X17400Y25539
X19880Y27350
X22281Y29515
X31100Y26287
X31455Y26287
X31809Y26287
X31455Y25933
X31455Y26641
X29919Y22744
X29644Y24673
X30470Y25027
X30037Y25342
X31927Y24161
X31927Y24397
X31140Y23728
X31573Y23728
X28226Y22389
X29092Y17665
X29092Y17114
X28659Y16799
X28226Y15775
X28226Y13885
X28226Y12941
X28226Y11996
X25746Y13019
X23108Y13413
X23108Y13767
X22754Y13767
X23108Y14122
X23463Y13767
X24171Y15736
X24526Y15775
X24880Y15775
X24526Y15421
X19880Y15775
X19880Y14830
X19880Y13885
X19880Y12941
X17400Y13019
X17518Y14948
X16533Y15775
X16179Y15775
X16179Y15421
X15825Y15736
X14762Y16366
X14762Y16602
X14762Y16838
X15313Y18492
X15667Y18295
X16770Y18492
X17006Y16956
X16770Y16287
X17006Y16051
X14801Y18767
X14053Y18767
X13935Y16996
X20313Y16799
X20746Y18256
X20746Y17665
X21297Y17665
X21297Y17114
X20746Y17114
X22400Y18767
X23108Y16838
X23108Y16602
X23108Y16366
X22281Y16996
X25116Y18492
X25352Y16956
X25116Y16287
X25352Y16051
X25864Y14948
X21573Y10224
X23659Y18492
X24014Y18295
X23148Y18767
X28226Y14830
X31455Y14122
X31455Y13767
X31809Y13767
X31455Y13413
X31100Y13767
X34092Y13019
X36573Y12941
X36573Y13885
X36573Y14830
X36573Y15775
X37006Y16799
X37439Y17114
X37439Y17665
X37990Y17665
X37990Y17114
X38974Y16996
X39801Y16838
X39801Y16602
X39801Y16366
X40864Y15736
X41218Y15775
X41218Y15421
X41573Y15775
X42045Y16051
X41809Y16287
X42045Y16956
X40352Y18492
X40707Y18295
X41809Y18492
X39840Y18767
X39092Y18767
X37439Y18256
X33699Y16956
X31455Y16838
X31455Y16602
X31455Y16366
X32518Y15736
X32872Y15775
X32872Y15421
X33226Y15775
X33699Y16051
X33463Y16287
X30628Y16996
X29644Y17114
X29644Y17665
X29092Y18256
X32006Y18492
X32360Y18295
X33463Y18492
X31494Y18767
X30746Y18767
X34211Y14948
X36573Y11996
X36573Y11051
X36573Y9870
X38266Y10224
X38817Y12507
X38384Y12822
X37990Y12153
X40274Y11641
X40274Y11878
X39919Y11208
X39486Y11208
X42439Y13019
X39447Y13767
X39801Y13767
X39801Y13413
X40155Y13767
X39801Y14122
X42557Y14948
X34092Y25539
X34211Y27468
X36573Y27350
X39801Y26641
X39801Y26287
X39447Y26287
X39801Y25933
X40155Y26287
X42557Y27468
X33699Y28570
X33463Y28807
X17518Y27468
X13935Y29515
X14053Y31287
X14801Y31287
T02
X14801Y10303
X23148Y10303
X31494Y10303
X39840Y22822
X31494Y22822
X23148Y22822
X39840Y10303
X14801Y22822
T03
X25254Y11791
X26254Y12291
X27600Y13291
X27600Y14291
X27600Y16291
X27600Y17291
X33600Y19291
X35947Y20291
X34600Y20291
X34600Y19291
X35947Y19291
X35947Y18291
X41947Y19291
X42947Y19291
X42947Y18291
X42947Y17291
X42947Y16291
X42947Y15291
X42947Y14291
X41947Y11791
X40947Y10791
X41947Y10791
X42947Y9291
X42947Y10291
X42947Y11291
X42947Y12291
X42947Y13291
X40947Y11791
X35947Y13291
X35947Y14291
X35947Y16291
X35947Y17291
X34600Y17291
X34600Y18291
X30600Y15791
X29600Y15791
X27600Y15291
X26254Y15291
X26254Y16291
X26254Y17291
X26254Y18291
X26254Y19291
X27600Y20291
X27600Y19291
X27600Y18291
X28600Y19291
X29600Y19291
X30600Y19291
X31600Y19291
X32600Y19291
X34600Y21811
X32600Y23311
X33600Y23311
X33600Y24311
X32600Y24311
X27600Y25811
X27600Y24811
X26254Y25811
X25254Y24311
X24254Y23311
X19254Y25811
X19254Y24811
X17907Y25811
X16907Y24311
X15907Y23311
X16907Y23311
X17907Y21811
X19254Y20291
X19254Y19291
X19254Y17291
X19254Y18291
X20254Y19291
X21254Y19291
X22254Y19291
X23254Y19291
X24254Y19291
X22254Y15791
X19254Y16291
X19254Y15291
X19254Y14291
X19254Y13291
X19254Y12291
X17907Y12291
X16907Y11791
X15907Y10791
X16907Y10791
X17907Y9291
X17907Y10291
X17907Y11291
X19254Y11291
X19254Y10291
X19254Y9291
X24254Y11791
X26254Y13291
X26254Y14291
X25254Y19291
X26254Y20291
X26254Y21811
X26254Y22811
X26254Y23811
X27600Y23811
X27600Y22811
X27600Y21811
X26254Y24811
X24254Y24311
X25254Y23311
X19254Y22811
X19254Y23811
X17907Y23811
X17907Y22811
X19254Y21811
X19254Y26811
X19254Y28811
X19254Y29811
X19254Y31811
X19254Y32811
X17907Y32811
X17907Y31811
X16907Y31811
X10907Y29811
X10907Y28811
X12907Y28311
X10907Y27811
X10907Y26811
X10907Y25811
X10907Y24811
X10907Y23811
X10907Y22811
X10907Y21811
X10907Y20291
X10907Y19291
X10907Y17291
X10907Y16291
X12907Y15791
X10907Y15291
X10907Y18291
X11907Y19291
X12907Y19291
X13907Y19291
X14907Y19291
X16907Y19291
X15907Y19291
X13907Y15791
X10907Y13291
X10907Y14291
X10907Y12291
X10907Y11291
X10907Y10291
X10907Y9291
X15907Y11791
X17907Y13291
X17907Y14291
X17907Y15291
X17907Y16291
X17907Y17291
X17907Y18291
X17907Y19291
X17907Y20291
X13907Y28311
X15907Y31811
X14907Y31811
X13907Y31811
X12907Y31811
X11907Y31811
X10907Y31811
X10907Y32811
X10907Y30811
X17907Y30811
X17907Y29811
X17907Y28811
X17907Y27811
X17907Y26811
X19254Y27811
X21254Y28311
X22254Y28311
X22254Y31811
X23254Y31811
X24254Y31811
X25254Y31811
X26254Y31811
X26254Y30811
X33600Y31811
X32600Y31811
X31600Y31811
X30600Y31811
X29600Y31811
X28600Y31811
X27600Y32811
X27600Y31811
X27600Y30811
X27600Y29811
X27600Y28811
X29600Y28311
X27600Y27811
X26254Y28811
X26254Y27811
X26254Y26811
X27600Y26811
X30600Y28311
X34600Y27811
X34600Y28811
X35947Y29811
X41947Y31811
X42947Y32811
X42947Y31811
X42947Y30811
X42947Y29811
X42947Y28811
X42947Y27811
X42947Y26811
X41947Y24311
X40947Y23311
X41947Y23311
X42947Y21811
X42947Y22811
X42947Y23811
X42947Y24811
X42947Y25811
X40947Y24311
X35947Y25811
X35947Y24811
X34600Y25811
X34600Y24811
X34600Y23811
X34600Y22811
X35947Y23811
X35947Y22811
X35947Y21811
X36947Y19291
X37947Y19291
X38947Y19291
X39947Y19291
X40947Y19291
X42947Y20291
X38947Y15791
X35947Y15291
X34600Y15291
X34600Y16291
X34600Y14291
X34600Y11291
X34600Y10291
X34600Y9291
X35947Y9291
X35947Y11291
X35947Y10291
X35947Y12291
X34600Y12291
X34600Y13291
X32600Y10791
X33600Y10791
X33600Y11791
X32600Y11791
X27600Y12291
X27600Y11291
X27600Y10291
X26254Y11291
X26254Y10291
X26254Y9291
X27600Y9291
X25254Y10791
X24254Y10791
X21254Y15791
X15907Y24311
X17907Y24811
X26254Y29811
X26254Y32811
X21254Y31811
X20254Y31811
X19254Y30811
X34600Y29811
X34600Y30811
X35947Y31811
X35947Y32811
X34600Y32811
X34600Y31811
X35947Y30811
X36947Y31811
X37947Y31811
X38947Y31811
X39947Y31811
X40947Y31811
X38947Y28311
X35947Y28811
X35947Y27811
X35947Y26811
X34600Y26811
X37947Y28311
X37947Y15791
T04
X8659Y6405
X8659Y35696
X45195Y35696
X45195Y6405
M30
