%
M48
M72
T01C0.0118
T02C0.0394
T03C0.0630
T04C0.1575
%
T01
X5889Y9752
X5889Y10933
X5889Y11917
X5889Y12941
X5889Y13885
X5889Y14791
X5889Y15657
X6322Y16681
X6755Y17074
X7149Y17074
X7149Y17468
X6755Y17468
X6755Y18098
X8212Y16878
X9038Y16720
X9038Y16484
X9038Y16248
X10062Y15539
X10495Y15696
X10534Y15303
X10889Y15657
X11361Y15933
X11125Y16208
X10534Y16878
X10849Y17232
X9629Y18334
X9590Y18689
X8841Y18610
X8369Y18610
X7306Y22350
X5889Y22035
X5889Y23216
X5889Y24200
X5889Y25224
X5889Y26169
X5889Y27074
X5889Y27941
X6322Y28964
X6755Y29358
X6755Y29752
X7149Y29752
X7149Y29358
X8212Y29161
X9038Y29004
X9038Y28767
X9038Y28531
X10062Y27822
X10495Y27980
X10889Y27941
X10534Y27586
X11361Y28216
X11125Y28492
X10534Y29161
X10849Y29515
X9629Y30618
X9590Y30972
X8841Y30893
X8369Y30893
X6755Y30381
X11873Y27114
X11755Y25185
X9747Y23925
X9471Y23177
X9038Y23177
X8763Y23925
X7857Y24673
X14156Y24200
X14156Y23216
X14156Y22035
X15574Y22350
X17306Y23177
X17739Y23177
X18015Y23925
X17030Y23925
X16125Y24673
X14156Y25224
X14156Y26169
X14156Y27074
X14156Y27941
X14590Y28964
X15023Y29358
X15416Y29358
X15416Y29752
X15023Y29752
X15023Y30381
X16637Y30893
X17109Y30893
X17857Y30972
X17897Y30618
X19117Y29515
X18802Y29161
X19393Y28492
X19629Y28216
X19156Y27941
X18763Y27980
X18802Y27586
X18330Y27822
X17306Y28531
X17306Y28767
X17306Y29004
X16479Y29161
X20141Y27114
X20023Y25185
X22424Y25224
X22424Y26169
X22424Y27074
X22424Y27941
X22857Y28964
X23290Y29358
X23290Y29752
X23684Y29752
X23684Y29358
X24747Y29161
X25574Y29004
X25574Y28767
X25574Y28531
X26597Y27822
X27030Y27980
X27070Y27586
X27424Y27941
X27897Y28216
X27660Y28492
X27070Y29161
X27385Y29515
X26164Y30618
X26125Y30972
X25377Y30893
X24904Y30893
X23290Y30381
X28408Y27114
X28290Y25185
X26282Y23925
X26007Y23177
X25574Y23177
X25298Y23925
X24393Y24673
X22424Y24200
X22424Y23216
X22424Y22035
X23841Y22350
X26125Y18689
X26164Y18334
X25377Y18610
X24904Y18610
X23684Y17468
X23684Y17074
X23290Y17074
X23290Y17468
X23290Y18098
X22857Y16681
X22424Y15657
X22424Y14791
X22424Y13885
X22424Y12941
X22424Y11917
X22424Y10933
X22424Y9752
X23841Y10067
X25574Y10893
X26007Y10893
X26282Y11641
X25298Y11641
X24393Y12389
X26597Y15539
X27030Y15696
X27070Y15303
X27424Y15657
X27897Y15933
X27660Y16208
X27070Y16878
X27385Y17232
X25574Y16720
X25574Y16484
X25574Y16248
X24747Y16878
X28408Y14830
X28290Y12901
X30692Y12941
X30692Y13885
X30692Y14791
X30692Y15657
X31125Y16681
X31558Y17074
X31952Y17074
X31952Y17468
X31558Y17468
X31558Y18098
X33172Y18610
X33645Y18610
X34393Y18689
X34432Y18334
X35653Y17232
X35338Y16878
X35928Y16208
X36164Y15933
X35692Y15657
X35298Y15696
X35338Y15303
X34865Y15539
X33841Y16248
X33841Y16484
X33841Y16720
X33015Y16878
X36676Y14830
X36558Y12901
X34550Y11641
X34275Y10893
X33841Y10893
X33566Y11641
X32660Y12389
X30692Y11917
X30692Y10933
X30692Y9752
X32109Y10067
X20141Y14830
X19629Y15933
X19393Y16208
X19156Y15657
X18763Y15696
X18802Y15303
X18330Y15539
X17306Y16248
X17306Y16484
X17306Y16720
X16479Y16878
X15416Y17074
X15023Y17074
X15023Y17468
X15416Y17468
X15023Y18098
X14590Y16681
X14156Y15657
X14156Y14791
X14156Y13885
X14156Y12941
X14156Y11917
X14156Y10933
X14156Y9752
X15574Y10067
X17306Y10893
X17739Y10893
X18015Y11641
X17030Y11641
X16125Y12389
X20023Y12901
X18802Y16878
X19117Y17232
X17897Y18334
X17857Y18689
X17109Y18610
X16637Y18610
X11873Y14830
X11755Y12901
X9747Y11641
X9471Y10893
X9038Y10893
X8763Y11641
X7857Y12389
X7306Y10067
X30692Y22035
X30692Y23216
X30692Y24200
X30692Y25224
X30692Y26169
X30692Y27074
X30692Y27941
X31125Y28964
X31558Y29358
X31558Y29752
X31952Y29752
X31952Y29358
X33015Y29161
X33841Y29004
X33841Y28767
X33841Y28531
X34865Y27822
X35298Y27980
X35338Y27586
X35692Y27941
X36164Y28216
X35928Y28492
X35338Y29161
X35653Y29515
X34432Y30618
X34393Y30972
X33645Y30893
X33172Y30893
X31558Y30381
X36676Y27114
X36558Y25185
X34550Y23925
X34275Y23177
X33841Y23177
X33566Y23925
X32660Y24673
X32109Y22350
T02
X30066Y22456
X30066Y23456
X30066Y24456
X30066Y25456
X30066Y26456
X30066Y27456
X30066Y28456
X30066Y29456
X30066Y30456
X30066Y31456
X30066Y32456
X28798Y32456
X28798Y31456
X28798Y30456
X28798Y29456
X28798Y28456
X28798Y27456
X28798Y26456
X28798Y25456
X28798Y24456
X28798Y23456
X28798Y22456
X28798Y21456
X30066Y21456
X30066Y20173
X30066Y19173
X31066Y19173
X32066Y19173
X33066Y19173
X34066Y19173
X35066Y19173
X36066Y19173
X37066Y19173
X37066Y20173
X37066Y21456
X37066Y22456
X37066Y23456
X36066Y22956
X35066Y22956
X35066Y23956
X36066Y23956
X37066Y24456
X37066Y25456
X37066Y26456
X37066Y27456
X37066Y28456
X37066Y29456
X37066Y30456
X37066Y31456
X36066Y31456
X37066Y32456
X35066Y31456
X34066Y31456
X33066Y31456
X32066Y31456
X31066Y31456
X27798Y31456
X26798Y31456
X25798Y31456
X24798Y31456
X23798Y31456
X22798Y31456
X21798Y31456
X21798Y32456
X20530Y32456
X20530Y31456
X19530Y31456
X18530Y31456
X17530Y31456
X16530Y31456
X15530Y31456
X14530Y31456
X13530Y31456
X13530Y32456
X12263Y32456
X12263Y31456
X12263Y30456
X12263Y29456
X12263Y28456
X12263Y27456
X12263Y26456
X12263Y25456
X12263Y24456
X12263Y23456
X12263Y22456
X12263Y21456
X13530Y21456
X13530Y22456
X13530Y23456
X13530Y24456
X13530Y25456
X13530Y26456
X13530Y27456
X13530Y28456
X13530Y29456
X13530Y30456
X11263Y31456
X10263Y31456
X9263Y31456
X8263Y31456
X7263Y31456
X6263Y31456
X5263Y31456
X5263Y32456
X5263Y30456
X5263Y29456
X5263Y28456
X5263Y27456
X5263Y26456
X5263Y25456
X5263Y24456
X5263Y23456
X5263Y22456
X5263Y21456
X5263Y20173
X5263Y19173
X6263Y19173
X7263Y19173
X8263Y19173
X9263Y19173
X10263Y19173
X11263Y19173
X12263Y19173
X12263Y20173
X13530Y20173
X13530Y19173
X13530Y18173
X13530Y17173
X13530Y16173
X13530Y15173
X13530Y14173
X13530Y13173
X13530Y12173
X13530Y11173
X13530Y10173
X13530Y9173
X12263Y9173
X12263Y10173
X12263Y11173
X12263Y12173
X12263Y13173
X12263Y14173
X12263Y15173
X12263Y16173
X12263Y17173
X12263Y18173
X14530Y19173
X15530Y19173
X16530Y19173
X17530Y19173
X18530Y19173
X19530Y19173
X20530Y19173
X20530Y20173
X21798Y20173
X21798Y19173
X21798Y18173
X21798Y17173
X21798Y16173
X21798Y15173
X21798Y14173
X21798Y13173
X21798Y12173
X21798Y11173
X21798Y10173
X21798Y9173
X20530Y9173
X20530Y10173
X20530Y11173
X20530Y12173
X20530Y13173
X20530Y14173
X20530Y15173
X20530Y16173
X20530Y17173
X20530Y18173
X22798Y19173
X23798Y19173
X24798Y19173
X25798Y19173
X26798Y19173
X27798Y19173
X28798Y19173
X28798Y20173
X28798Y18173
X28798Y17173
X28798Y16173
X28798Y15173
X28798Y14173
X28798Y13173
X28798Y12173
X28798Y11173
X28798Y10173
X28798Y9173
X30066Y9173
X30066Y10173
X30066Y11173
X30066Y12173
X30066Y13173
X30066Y14173
X30066Y15173
X30066Y16173
X30066Y17173
X30066Y18173
X32066Y15673
X33066Y15673
X37066Y16173
X37066Y17173
X37066Y18173
X37066Y15173
X37066Y14173
X37066Y13173
X37066Y12173
X36066Y11673
X37066Y11173
X37066Y10173
X36066Y10673
X35066Y10673
X35066Y11673
X37066Y9173
X27798Y10673
X26798Y10673
X26798Y11673
X27798Y11673
X24798Y15673
X23798Y15673
X19530Y11673
X18530Y11673
X18530Y10673
X19530Y10673
X16530Y15673
X15530Y15673
X11263Y11673
X10263Y11673
X10263Y10673
X11263Y10673
X8263Y15673
X7263Y15673
X5263Y16173
X5263Y17173
X5263Y18173
X5263Y15173
X5263Y14173
X5263Y13173
X5263Y12173
X5263Y11173
X5263Y10173
X5263Y9173
X10263Y22956
X11263Y22956
X11263Y23956
X10263Y23956
X8263Y27956
X7263Y27956
X15530Y27956
X16530Y27956
X18530Y23956
X18530Y22956
X19530Y22956
X19530Y23956
X20530Y23456
X20530Y22456
X20530Y21456
X21798Y21456
X21798Y22456
X21798Y23456
X21798Y24456
X21798Y25456
X21798Y26456
X21798Y27456
X21798Y28456
X21798Y29456
X21798Y30456
X20530Y30456
X20530Y29456
X20530Y28456
X20530Y27456
X20530Y26456
X20530Y25456
X20530Y24456
X23798Y27956
X24798Y27956
X26798Y23956
X26798Y22956
X27798Y22956
X27798Y23956
X32066Y27956
X33066Y27956
T03
X33645Y25933
X25377Y25933
X17109Y25933
X8841Y25933
X8841Y13649
X17109Y13649
X25377Y13649
X33645Y13649
T04
X6755Y6405
X35574Y6405
X35574Y35224
X6755Y35224
M30
