G75*
%MOIN*%
%OFA0B0*%
%FSLAX24Y24*%
%IPPOS*%
%LPD*%
%AMOC8*
5,1,8,0,0,1.08239X$1,22.5*
%
%ADD10C,0.1340*%
%ADD11OC8,0.0671*%
%ADD12C,0.0580*%
D10*
X008659Y006405D03*
X008659Y035696D03*
X045195Y035696D03*
X045195Y006405D03*
D11*
X042947Y009291D03*
X042947Y010291D03*
X042947Y011291D03*
X041947Y011791D03*
X040947Y011791D03*
X040947Y010791D03*
X041947Y010791D03*
X042947Y012291D03*
X042947Y013291D03*
X042947Y014291D03*
X042947Y015291D03*
X042947Y016291D03*
X042947Y017291D03*
X042947Y018291D03*
X042947Y019291D03*
X041947Y019291D03*
X040947Y019291D03*
X039947Y019291D03*
X038947Y019291D03*
X037947Y019291D03*
X036947Y019291D03*
X035947Y019291D03*
X035947Y018291D03*
X034600Y018291D03*
X034600Y019291D03*
X033600Y019291D03*
X032600Y019291D03*
X031600Y019291D03*
X030600Y019291D03*
X029600Y019291D03*
X028600Y019291D03*
X027600Y019291D03*
X027600Y018291D03*
X027600Y017291D03*
X027600Y016291D03*
X027600Y015291D03*
X027600Y014291D03*
X027600Y013291D03*
X027600Y012291D03*
X027600Y011291D03*
X027600Y010291D03*
X027600Y009291D03*
X026254Y009291D03*
X026254Y010291D03*
X026254Y011291D03*
X025254Y011791D03*
X026254Y012291D03*
X026254Y013291D03*
X026254Y014291D03*
X026254Y015291D03*
X026254Y016291D03*
X026254Y017291D03*
X026254Y018291D03*
X026254Y019291D03*
X025254Y019291D03*
X024254Y019291D03*
X023254Y019291D03*
X022254Y019291D03*
X021254Y019291D03*
X020254Y019291D03*
X019254Y019291D03*
X019254Y018291D03*
X019254Y017291D03*
X019254Y016291D03*
X019254Y015291D03*
X019254Y014291D03*
X019254Y013291D03*
X019254Y012291D03*
X019254Y011291D03*
X019254Y010291D03*
X019254Y009291D03*
X017907Y009291D03*
X017907Y010291D03*
X017907Y011291D03*
X016907Y011791D03*
X015907Y011791D03*
X015907Y010791D03*
X016907Y010791D03*
X017907Y012291D03*
X017907Y013291D03*
X017907Y014291D03*
X017907Y015291D03*
X017907Y016291D03*
X017907Y017291D03*
X017907Y018291D03*
X017907Y019291D03*
X016907Y019291D03*
X015907Y019291D03*
X014907Y019291D03*
X013907Y019291D03*
X012907Y019291D03*
X011907Y019291D03*
X010907Y019291D03*
X010907Y018291D03*
X010907Y017291D03*
X010907Y016291D03*
X010907Y015291D03*
X010907Y014291D03*
X010907Y013291D03*
X010907Y012291D03*
X010907Y011291D03*
X010907Y010291D03*
X010907Y009291D03*
X012907Y015791D03*
X013907Y015791D03*
X010907Y020291D03*
X010907Y021811D03*
X010907Y022811D03*
X010907Y023811D03*
X010907Y024811D03*
X010907Y025811D03*
X010907Y026811D03*
X010907Y027811D03*
X010907Y028811D03*
X010907Y029811D03*
X010907Y030811D03*
X010907Y031811D03*
X011907Y031811D03*
X012907Y031811D03*
X013907Y031811D03*
X014907Y031811D03*
X015907Y031811D03*
X016907Y031811D03*
X017907Y031811D03*
X017907Y030811D03*
X017907Y029811D03*
X017907Y028811D03*
X017907Y027811D03*
X017907Y026811D03*
X017907Y025811D03*
X017907Y024811D03*
X016907Y024311D03*
X015907Y024311D03*
X015907Y023311D03*
X016907Y023311D03*
X017907Y023811D03*
X017907Y022811D03*
X017907Y021811D03*
X019254Y021811D03*
X019254Y022811D03*
X019254Y023811D03*
X019254Y024811D03*
X019254Y025811D03*
X019254Y026811D03*
X019254Y027811D03*
X019254Y028811D03*
X019254Y029811D03*
X019254Y030811D03*
X019254Y031811D03*
X020254Y031811D03*
X021254Y031811D03*
X022254Y031811D03*
X023254Y031811D03*
X024254Y031811D03*
X025254Y031811D03*
X026254Y031811D03*
X026254Y030811D03*
X026254Y029811D03*
X026254Y028811D03*
X026254Y027811D03*
X026254Y026811D03*
X026254Y025811D03*
X026254Y024811D03*
X025254Y024311D03*
X026254Y023811D03*
X026254Y022811D03*
X025254Y023311D03*
X024254Y023311D03*
X024254Y024311D03*
X026254Y021811D03*
X027600Y021811D03*
X027600Y022811D03*
X027600Y023811D03*
X027600Y024811D03*
X027600Y025811D03*
X027600Y026811D03*
X027600Y027811D03*
X027600Y028811D03*
X027600Y029811D03*
X027600Y030811D03*
X027600Y031811D03*
X028600Y031811D03*
X029600Y031811D03*
X030600Y031811D03*
X031600Y031811D03*
X032600Y031811D03*
X033600Y031811D03*
X034600Y031811D03*
X034600Y030811D03*
X035947Y030811D03*
X035947Y031811D03*
X035947Y032811D03*
X034600Y032811D03*
X036947Y031811D03*
X037947Y031811D03*
X038947Y031811D03*
X039947Y031811D03*
X040947Y031811D03*
X041947Y031811D03*
X042947Y031811D03*
X042947Y030811D03*
X042947Y029811D03*
X042947Y028811D03*
X042947Y027811D03*
X042947Y026811D03*
X042947Y025811D03*
X042947Y024811D03*
X041947Y024311D03*
X040947Y024311D03*
X040947Y023311D03*
X041947Y023311D03*
X042947Y023811D03*
X042947Y022811D03*
X042947Y021811D03*
X042947Y020291D03*
X038947Y015791D03*
X037947Y015791D03*
X035947Y016291D03*
X035947Y015291D03*
X034600Y015291D03*
X034600Y016291D03*
X034600Y017291D03*
X035947Y017291D03*
X035947Y020291D03*
X034600Y020291D03*
X034600Y021811D03*
X035947Y021811D03*
X035947Y022811D03*
X035947Y023811D03*
X034600Y023811D03*
X034600Y022811D03*
X033600Y023311D03*
X032600Y023311D03*
X032600Y024311D03*
X033600Y024311D03*
X034600Y024811D03*
X034600Y025811D03*
X035947Y025811D03*
X035947Y024811D03*
X035947Y026811D03*
X034600Y026811D03*
X034600Y027811D03*
X034600Y028811D03*
X035947Y028811D03*
X035947Y027811D03*
X035947Y029811D03*
X034600Y029811D03*
X037947Y028311D03*
X038947Y028311D03*
X042947Y032811D03*
X030600Y028311D03*
X029600Y028311D03*
X027600Y032811D03*
X026254Y032811D03*
X022254Y028311D03*
X021254Y028311D03*
X019254Y032811D03*
X017907Y032811D03*
X013907Y028311D03*
X012907Y028311D03*
X010907Y032811D03*
X017907Y020291D03*
X019254Y020291D03*
X021254Y015791D03*
X022254Y015791D03*
X024254Y011791D03*
X024254Y010791D03*
X025254Y010791D03*
X029600Y015791D03*
X030600Y015791D03*
X034600Y014291D03*
X034600Y013291D03*
X035947Y013291D03*
X035947Y014291D03*
X035947Y012291D03*
X034600Y012291D03*
X034600Y011291D03*
X034600Y010291D03*
X035947Y010291D03*
X035947Y011291D03*
X035947Y009291D03*
X034600Y009291D03*
X033600Y010791D03*
X032600Y010791D03*
X032600Y011791D03*
X033600Y011791D03*
X027600Y020291D03*
X026254Y020291D03*
D12*
X023148Y022822D03*
X031494Y022822D03*
X039840Y022822D03*
X039840Y010303D03*
X031494Y010303D03*
X023148Y010303D03*
X014801Y010303D03*
X014801Y022822D03*
M02*
