G75*
%MOIN*%
%OFA0B0*%
%FSLAX24Y24*%
%IPPOS*%
%LPD*%
%AMOC8*
5,1,8,0,0,1.08239X$1,22.5*
%
%ADD10C,0.1655*%
%ADD11OC8,0.0671*%
D10*
X006685Y006405D03*
X035503Y006405D03*
X035503Y035224D03*
X006685Y035224D03*
D11*
X005192Y032456D03*
X005192Y031456D03*
X006192Y031456D03*
X007192Y031456D03*
X008192Y031456D03*
X009192Y031456D03*
X010192Y031456D03*
X011192Y031456D03*
X012192Y031456D03*
X012192Y032456D03*
X013460Y032456D03*
X013460Y031456D03*
X014460Y031456D03*
X015460Y031456D03*
X016460Y031456D03*
X017460Y031456D03*
X018460Y031456D03*
X019460Y031456D03*
X020460Y031456D03*
X020460Y032456D03*
X021728Y032456D03*
X021728Y031456D03*
X021728Y030456D03*
X021728Y029456D03*
X021728Y028456D03*
X021728Y027456D03*
X021728Y026456D03*
X021728Y025456D03*
X021728Y024456D03*
X021728Y023456D03*
X021728Y022456D03*
X021728Y021456D03*
X020460Y021456D03*
X020460Y022456D03*
X020460Y023456D03*
X019460Y022956D03*
X018460Y022956D03*
X018460Y023956D03*
X019460Y023956D03*
X020460Y024456D03*
X020460Y025456D03*
X020460Y026456D03*
X020460Y027456D03*
X020460Y028456D03*
X020460Y029456D03*
X020460Y030456D03*
X022728Y031456D03*
X023728Y031456D03*
X024728Y031456D03*
X025728Y031456D03*
X026728Y031456D03*
X027728Y031456D03*
X028728Y031456D03*
X028728Y032456D03*
X029996Y032456D03*
X029996Y031456D03*
X030996Y031456D03*
X031996Y031456D03*
X032996Y031456D03*
X033996Y031456D03*
X034996Y031456D03*
X035996Y031456D03*
X036996Y031456D03*
X036996Y032456D03*
X036996Y030456D03*
X036996Y029456D03*
X036996Y028456D03*
X036996Y027456D03*
X036996Y026456D03*
X036996Y025456D03*
X036996Y024456D03*
X035996Y023956D03*
X036996Y023456D03*
X036996Y022456D03*
X035996Y022956D03*
X034996Y022956D03*
X034996Y023956D03*
X036996Y021456D03*
X036996Y020173D03*
X036996Y019173D03*
X035996Y019173D03*
X034996Y019173D03*
X033996Y019173D03*
X032996Y019173D03*
X031996Y019173D03*
X030996Y019173D03*
X029996Y019173D03*
X029996Y020173D03*
X028728Y020173D03*
X028728Y019173D03*
X027728Y019173D03*
X026728Y019173D03*
X025728Y019173D03*
X024728Y019173D03*
X023728Y019173D03*
X022728Y019173D03*
X021728Y019173D03*
X021728Y020173D03*
X020460Y020173D03*
X020460Y019173D03*
X019460Y019173D03*
X018460Y019173D03*
X017460Y019173D03*
X016460Y019173D03*
X015460Y019173D03*
X014460Y019173D03*
X013460Y019173D03*
X013460Y020173D03*
X013460Y021456D03*
X013460Y022456D03*
X013460Y023456D03*
X013460Y024456D03*
X013460Y025456D03*
X013460Y026456D03*
X013460Y027456D03*
X013460Y028456D03*
X013460Y029456D03*
X013460Y030456D03*
X012192Y030456D03*
X012192Y029456D03*
X012192Y028456D03*
X012192Y027456D03*
X012192Y026456D03*
X012192Y025456D03*
X012192Y024456D03*
X011192Y023956D03*
X012192Y023456D03*
X012192Y022456D03*
X011192Y022956D03*
X010192Y022956D03*
X010192Y023956D03*
X012192Y021456D03*
X012192Y020173D03*
X012192Y019173D03*
X011192Y019173D03*
X010192Y019173D03*
X009192Y019173D03*
X008192Y019173D03*
X007192Y019173D03*
X006192Y019173D03*
X005192Y019173D03*
X005192Y020173D03*
X005192Y021456D03*
X005192Y022456D03*
X005192Y023456D03*
X005192Y024456D03*
X005192Y025456D03*
X005192Y026456D03*
X005192Y027456D03*
X005192Y028456D03*
X005192Y029456D03*
X005192Y030456D03*
X007192Y027956D03*
X008192Y027956D03*
X015460Y027956D03*
X016460Y027956D03*
X023728Y027956D03*
X024728Y027956D03*
X028728Y027456D03*
X028728Y026456D03*
X028728Y025456D03*
X028728Y024456D03*
X027728Y023956D03*
X028728Y023456D03*
X028728Y022456D03*
X027728Y022956D03*
X026728Y022956D03*
X026728Y023956D03*
X028728Y021456D03*
X029996Y021456D03*
X029996Y022456D03*
X029996Y023456D03*
X029996Y024456D03*
X029996Y025456D03*
X029996Y026456D03*
X029996Y027456D03*
X029996Y028456D03*
X029996Y029456D03*
X029996Y030456D03*
X028728Y030456D03*
X028728Y029456D03*
X028728Y028456D03*
X031996Y027956D03*
X032996Y027956D03*
X029996Y018173D03*
X029996Y017173D03*
X029996Y016173D03*
X029996Y015173D03*
X029996Y014173D03*
X029996Y013173D03*
X029996Y012173D03*
X029996Y011173D03*
X029996Y010173D03*
X029996Y009173D03*
X028728Y009173D03*
X028728Y010173D03*
X028728Y011173D03*
X027728Y011673D03*
X028728Y012173D03*
X028728Y013173D03*
X028728Y014173D03*
X028728Y015173D03*
X028728Y016173D03*
X028728Y017173D03*
X028728Y018173D03*
X031996Y015673D03*
X032996Y015673D03*
X036996Y016173D03*
X036996Y017173D03*
X036996Y018173D03*
X036996Y015173D03*
X036996Y014173D03*
X036996Y013173D03*
X036996Y012173D03*
X035996Y011673D03*
X036996Y011173D03*
X036996Y010173D03*
X035996Y010673D03*
X034996Y010673D03*
X034996Y011673D03*
X036996Y009173D03*
X027728Y010673D03*
X026728Y010673D03*
X026728Y011673D03*
X024728Y015673D03*
X023728Y015673D03*
X021728Y016173D03*
X021728Y017173D03*
X021728Y018173D03*
X020460Y018173D03*
X020460Y017173D03*
X020460Y016173D03*
X020460Y015173D03*
X020460Y014173D03*
X020460Y013173D03*
X020460Y012173D03*
X019460Y011673D03*
X020460Y011173D03*
X020460Y010173D03*
X019460Y010673D03*
X018460Y010673D03*
X018460Y011673D03*
X020460Y009173D03*
X021728Y009173D03*
X021728Y010173D03*
X021728Y011173D03*
X021728Y012173D03*
X021728Y013173D03*
X021728Y014173D03*
X021728Y015173D03*
X016460Y015673D03*
X015460Y015673D03*
X013460Y016173D03*
X013460Y017173D03*
X013460Y018173D03*
X012192Y018173D03*
X012192Y017173D03*
X012192Y016173D03*
X012192Y015173D03*
X012192Y014173D03*
X012192Y013173D03*
X012192Y012173D03*
X011192Y011673D03*
X012192Y011173D03*
X012192Y010173D03*
X011192Y010673D03*
X010192Y010673D03*
X010192Y011673D03*
X012192Y009173D03*
X013460Y009173D03*
X013460Y010173D03*
X013460Y011173D03*
X013460Y012173D03*
X013460Y013173D03*
X013460Y014173D03*
X013460Y015173D03*
X008192Y015673D03*
X007192Y015673D03*
X005192Y016173D03*
X005192Y017173D03*
X005192Y018173D03*
X005192Y015173D03*
X005192Y014173D03*
X005192Y013173D03*
X005192Y012173D03*
X005192Y011173D03*
X005192Y010173D03*
X005192Y009173D03*
M02*
