G75*
%MOIN*%
%OFA0B0*%
%FSLAX24Y24*%
%IPPOS*%
%LPD*%
%AMOC8*
5,1,8,0,0,1.08239X$1,22.5*
%
%ADD10C,0.0315*%
%ADD11C,0.0000*%
%ADD12C,0.0197*%
%ADD13C,0.0079*%
%ADD14C,0.0140*%
D10*
X009132Y004437D02*
X009132Y037665D01*
X017478Y037665D02*
X017478Y004437D01*
X025825Y004476D02*
X025825Y037704D01*
X034171Y037665D02*
X034171Y004437D01*
X042518Y004437D02*
X042518Y037665D01*
D11*
X006140Y037665D02*
X006140Y004437D01*
X045510Y004437D01*
X045510Y037665D01*
X006140Y037665D01*
X006927Y035696D02*
X006929Y035746D01*
X006935Y035796D01*
X006945Y035845D01*
X006959Y035893D01*
X006976Y035940D01*
X006997Y035985D01*
X007022Y036029D01*
X007050Y036070D01*
X007082Y036109D01*
X007116Y036146D01*
X007153Y036180D01*
X007193Y036210D01*
X007235Y036237D01*
X007279Y036261D01*
X007325Y036282D01*
X007372Y036298D01*
X007420Y036311D01*
X007470Y036320D01*
X007519Y036325D01*
X007570Y036326D01*
X007620Y036323D01*
X007669Y036316D01*
X007718Y036305D01*
X007766Y036290D01*
X007812Y036272D01*
X007857Y036250D01*
X007900Y036224D01*
X007941Y036195D01*
X007980Y036163D01*
X008016Y036128D01*
X008048Y036090D01*
X008078Y036050D01*
X008105Y036007D01*
X008128Y035963D01*
X008147Y035917D01*
X008163Y035869D01*
X008175Y035820D01*
X008183Y035771D01*
X008187Y035721D01*
X008187Y035671D01*
X008183Y035621D01*
X008175Y035572D01*
X008163Y035523D01*
X008147Y035475D01*
X008128Y035429D01*
X008105Y035385D01*
X008078Y035342D01*
X008048Y035302D01*
X008016Y035264D01*
X007980Y035229D01*
X007941Y035197D01*
X007900Y035168D01*
X007857Y035142D01*
X007812Y035120D01*
X007766Y035102D01*
X007718Y035087D01*
X007669Y035076D01*
X007620Y035069D01*
X007570Y035066D01*
X007519Y035067D01*
X007470Y035072D01*
X007420Y035081D01*
X007372Y035094D01*
X007325Y035110D01*
X007279Y035131D01*
X007235Y035155D01*
X007193Y035182D01*
X007153Y035212D01*
X007116Y035246D01*
X007082Y035283D01*
X007050Y035322D01*
X007022Y035363D01*
X006997Y035407D01*
X006976Y035452D01*
X006959Y035499D01*
X006945Y035547D01*
X006935Y035596D01*
X006929Y035646D01*
X006927Y035696D01*
X006927Y006405D02*
X006929Y006455D01*
X006935Y006505D01*
X006945Y006554D01*
X006959Y006602D01*
X006976Y006649D01*
X006997Y006694D01*
X007022Y006738D01*
X007050Y006779D01*
X007082Y006818D01*
X007116Y006855D01*
X007153Y006889D01*
X007193Y006919D01*
X007235Y006946D01*
X007279Y006970D01*
X007325Y006991D01*
X007372Y007007D01*
X007420Y007020D01*
X007470Y007029D01*
X007519Y007034D01*
X007570Y007035D01*
X007620Y007032D01*
X007669Y007025D01*
X007718Y007014D01*
X007766Y006999D01*
X007812Y006981D01*
X007857Y006959D01*
X007900Y006933D01*
X007941Y006904D01*
X007980Y006872D01*
X008016Y006837D01*
X008048Y006799D01*
X008078Y006759D01*
X008105Y006716D01*
X008128Y006672D01*
X008147Y006626D01*
X008163Y006578D01*
X008175Y006529D01*
X008183Y006480D01*
X008187Y006430D01*
X008187Y006380D01*
X008183Y006330D01*
X008175Y006281D01*
X008163Y006232D01*
X008147Y006184D01*
X008128Y006138D01*
X008105Y006094D01*
X008078Y006051D01*
X008048Y006011D01*
X008016Y005973D01*
X007980Y005938D01*
X007941Y005906D01*
X007900Y005877D01*
X007857Y005851D01*
X007812Y005829D01*
X007766Y005811D01*
X007718Y005796D01*
X007669Y005785D01*
X007620Y005778D01*
X007570Y005775D01*
X007519Y005776D01*
X007470Y005781D01*
X007420Y005790D01*
X007372Y005803D01*
X007325Y005819D01*
X007279Y005840D01*
X007235Y005864D01*
X007193Y005891D01*
X007153Y005921D01*
X007116Y005955D01*
X007082Y005992D01*
X007050Y006031D01*
X007022Y006072D01*
X006997Y006116D01*
X006976Y006161D01*
X006959Y006208D01*
X006945Y006256D01*
X006935Y006305D01*
X006929Y006355D01*
X006927Y006405D01*
X043462Y006405D02*
X043464Y006455D01*
X043470Y006505D01*
X043480Y006554D01*
X043494Y006602D01*
X043511Y006649D01*
X043532Y006694D01*
X043557Y006738D01*
X043585Y006779D01*
X043617Y006818D01*
X043651Y006855D01*
X043688Y006889D01*
X043728Y006919D01*
X043770Y006946D01*
X043814Y006970D01*
X043860Y006991D01*
X043907Y007007D01*
X043955Y007020D01*
X044005Y007029D01*
X044054Y007034D01*
X044105Y007035D01*
X044155Y007032D01*
X044204Y007025D01*
X044253Y007014D01*
X044301Y006999D01*
X044347Y006981D01*
X044392Y006959D01*
X044435Y006933D01*
X044476Y006904D01*
X044515Y006872D01*
X044551Y006837D01*
X044583Y006799D01*
X044613Y006759D01*
X044640Y006716D01*
X044663Y006672D01*
X044682Y006626D01*
X044698Y006578D01*
X044710Y006529D01*
X044718Y006480D01*
X044722Y006430D01*
X044722Y006380D01*
X044718Y006330D01*
X044710Y006281D01*
X044698Y006232D01*
X044682Y006184D01*
X044663Y006138D01*
X044640Y006094D01*
X044613Y006051D01*
X044583Y006011D01*
X044551Y005973D01*
X044515Y005938D01*
X044476Y005906D01*
X044435Y005877D01*
X044392Y005851D01*
X044347Y005829D01*
X044301Y005811D01*
X044253Y005796D01*
X044204Y005785D01*
X044155Y005778D01*
X044105Y005775D01*
X044054Y005776D01*
X044005Y005781D01*
X043955Y005790D01*
X043907Y005803D01*
X043860Y005819D01*
X043814Y005840D01*
X043770Y005864D01*
X043728Y005891D01*
X043688Y005921D01*
X043651Y005955D01*
X043617Y005992D01*
X043585Y006031D01*
X043557Y006072D01*
X043532Y006116D01*
X043511Y006161D01*
X043494Y006208D01*
X043480Y006256D01*
X043470Y006305D01*
X043464Y006355D01*
X043462Y006405D01*
X043462Y035696D02*
X043464Y035746D01*
X043470Y035796D01*
X043480Y035845D01*
X043494Y035893D01*
X043511Y035940D01*
X043532Y035985D01*
X043557Y036029D01*
X043585Y036070D01*
X043617Y036109D01*
X043651Y036146D01*
X043688Y036180D01*
X043728Y036210D01*
X043770Y036237D01*
X043814Y036261D01*
X043860Y036282D01*
X043907Y036298D01*
X043955Y036311D01*
X044005Y036320D01*
X044054Y036325D01*
X044105Y036326D01*
X044155Y036323D01*
X044204Y036316D01*
X044253Y036305D01*
X044301Y036290D01*
X044347Y036272D01*
X044392Y036250D01*
X044435Y036224D01*
X044476Y036195D01*
X044515Y036163D01*
X044551Y036128D01*
X044583Y036090D01*
X044613Y036050D01*
X044640Y036007D01*
X044663Y035963D01*
X044682Y035917D01*
X044698Y035869D01*
X044710Y035820D01*
X044718Y035771D01*
X044722Y035721D01*
X044722Y035671D01*
X044718Y035621D01*
X044710Y035572D01*
X044698Y035523D01*
X044682Y035475D01*
X044663Y035429D01*
X044640Y035385D01*
X044613Y035342D01*
X044583Y035302D01*
X044551Y035264D01*
X044515Y035229D01*
X044476Y035197D01*
X044435Y035168D01*
X044392Y035142D01*
X044347Y035120D01*
X044301Y035102D01*
X044253Y035087D01*
X044204Y035076D01*
X044155Y035069D01*
X044105Y035066D01*
X044054Y035067D01*
X044005Y035072D01*
X043955Y035081D01*
X043907Y035094D01*
X043860Y035110D01*
X043814Y035131D01*
X043770Y035155D01*
X043728Y035182D01*
X043688Y035212D01*
X043651Y035246D01*
X043617Y035283D01*
X043585Y035322D01*
X043557Y035363D01*
X043532Y035407D01*
X043511Y035452D01*
X043494Y035499D01*
X043480Y035547D01*
X043470Y035596D01*
X043464Y035646D01*
X043462Y035696D01*
D12*
X043305Y033630D02*
X043320Y033628D01*
X043335Y033622D01*
X043347Y033612D01*
X043356Y033600D01*
X043362Y033586D01*
X043364Y033570D01*
X043362Y033555D01*
X043356Y033541D01*
X043347Y033529D01*
X043335Y033519D01*
X043320Y033513D01*
X043305Y033511D01*
X008344Y033511D01*
X008329Y033513D01*
X008315Y033519D01*
X008303Y033529D01*
X008293Y033541D01*
X008287Y033555D01*
X008285Y033570D01*
X008287Y033586D01*
X008293Y033600D01*
X008303Y033612D01*
X008315Y033622D01*
X008329Y033628D01*
X008344Y033630D01*
X043305Y033630D01*
X043357Y033544D02*
X008292Y033544D01*
X008344Y021110D02*
X008329Y021108D01*
X008315Y021102D01*
X008303Y021093D01*
X008293Y021080D01*
X008287Y021066D01*
X008285Y021051D01*
X008287Y021036D01*
X008293Y021021D01*
X008303Y021009D01*
X008315Y021000D01*
X008329Y020994D01*
X008344Y020992D01*
X043305Y020992D01*
X043320Y020994D01*
X043335Y021000D01*
X043347Y021009D01*
X043356Y021021D01*
X043362Y021036D01*
X043364Y021051D01*
X043362Y021066D01*
X043356Y021080D01*
X043347Y021093D01*
X043335Y021102D01*
X043320Y021108D01*
X043305Y021110D01*
X008344Y021110D01*
X008287Y021041D02*
X043363Y021041D01*
X043305Y008590D02*
X043320Y008588D01*
X043335Y008582D01*
X043347Y008573D01*
X043356Y008561D01*
X043362Y008546D01*
X043364Y008531D01*
X043362Y008516D01*
X043356Y008502D01*
X043347Y008489D01*
X043335Y008480D01*
X043320Y008474D01*
X043305Y008472D01*
X008344Y008472D01*
X008329Y008474D01*
X008315Y008480D01*
X008303Y008489D01*
X008293Y008502D01*
X008287Y008516D01*
X008285Y008531D01*
X008287Y008546D01*
X008293Y008561D01*
X008303Y008573D01*
X008315Y008582D01*
X008329Y008588D01*
X008344Y008590D01*
X043305Y008590D01*
X043363Y008539D02*
X008286Y008539D01*
D13*
X009132Y004200D02*
X009132Y003256D01*
X009289Y004043D02*
X009132Y004200D01*
X008974Y004043D01*
X009289Y004043D01*
X017321Y004004D02*
X017636Y004004D01*
X017478Y004161D01*
X017478Y003216D01*
X017321Y004004D02*
X017478Y004161D01*
X025667Y004043D02*
X025982Y004043D01*
X025825Y004200D01*
X025825Y003256D01*
X025667Y004043D02*
X025825Y004200D01*
X034014Y004004D02*
X034329Y004004D01*
X034171Y004161D01*
X034171Y003216D01*
X034014Y004004D02*
X034171Y004161D01*
X042360Y004004D02*
X042675Y004004D01*
X042518Y004161D01*
X042518Y003216D01*
X042360Y004004D02*
X042518Y004161D01*
D14*
X042750Y002902D02*
X042656Y002808D01*
X042656Y002435D01*
X042750Y002341D01*
X042937Y002341D01*
X043030Y002435D01*
X043301Y002435D02*
X043394Y002341D01*
X043581Y002341D01*
X043674Y002435D01*
X043674Y002902D01*
X043945Y002902D02*
X044319Y002902D01*
X044132Y002902D02*
X044132Y002341D01*
X043301Y002435D02*
X043301Y002902D01*
X043030Y002808D02*
X042937Y002902D01*
X042750Y002902D01*
X042385Y002621D02*
X042012Y002621D01*
X041741Y002528D02*
X041741Y002902D01*
X041367Y002902D02*
X041367Y002528D01*
X041554Y002341D01*
X041741Y002528D01*
X035973Y002902D02*
X035599Y002902D01*
X035786Y002902D02*
X035786Y002341D01*
X035328Y002435D02*
X035328Y002902D01*
X034954Y002902D02*
X034954Y002435D01*
X035048Y002341D01*
X035235Y002341D01*
X035328Y002435D01*
X034683Y002435D02*
X034590Y002341D01*
X034403Y002341D01*
X034310Y002435D01*
X034310Y002808D01*
X034403Y002902D01*
X034590Y002902D01*
X034683Y002808D01*
X034039Y002621D02*
X033665Y002621D01*
X033394Y002528D02*
X033394Y002902D01*
X033021Y002902D02*
X033021Y002528D01*
X033208Y002341D01*
X033394Y002528D01*
X027626Y002941D02*
X027252Y002941D01*
X027439Y002941D02*
X027439Y002381D01*
X026982Y002474D02*
X026982Y002941D01*
X026608Y002941D02*
X026608Y002474D01*
X026701Y002381D01*
X026888Y002381D01*
X026982Y002474D01*
X026337Y002474D02*
X026244Y002381D01*
X026057Y002381D01*
X025963Y002474D01*
X025963Y002848D01*
X026057Y002941D01*
X026244Y002941D01*
X026337Y002848D01*
X025692Y002661D02*
X025319Y002661D01*
X025048Y002567D02*
X025048Y002941D01*
X025048Y002567D02*
X024861Y002381D01*
X024674Y002567D01*
X024674Y002941D01*
X019280Y002902D02*
X018906Y002902D01*
X019093Y002902D02*
X019093Y002341D01*
X018635Y002435D02*
X018635Y002902D01*
X018261Y002902D02*
X018261Y002435D01*
X018355Y002341D01*
X018542Y002341D01*
X018635Y002435D01*
X017991Y002435D02*
X017897Y002341D01*
X017710Y002341D01*
X017617Y002435D01*
X017617Y002808D01*
X017710Y002902D01*
X017897Y002902D01*
X017991Y002808D01*
X017346Y002621D02*
X016972Y002621D01*
X016701Y002528D02*
X016701Y002902D01*
X016328Y002902D02*
X016328Y002528D01*
X016515Y002341D01*
X016701Y002528D01*
X010933Y002941D02*
X010560Y002941D01*
X010746Y002941D02*
X010746Y002381D01*
X010289Y002474D02*
X010289Y002941D01*
X009915Y002941D02*
X009915Y002474D01*
X010008Y002381D01*
X010195Y002381D01*
X010289Y002474D01*
X009644Y002474D02*
X009551Y002381D01*
X009364Y002381D01*
X009270Y002474D01*
X009270Y002848D01*
X009364Y002941D01*
X009551Y002941D01*
X009644Y002848D01*
X009000Y002661D02*
X008626Y002661D01*
X008355Y002567D02*
X008355Y002941D01*
X008355Y002567D02*
X008168Y002381D01*
X007981Y002567D01*
X007981Y002941D01*
M02*
