G75*
%MOIN*%
%OFA0B0*%
%FSLAX24Y24*%
%IPPOS*%
%LPD*%
%AMOC8*
5,1,8,0,0,1.08239X$1,22.5*
%
%ADD10C,0.0098*%
%ADD11C,0.0080*%
%ADD12C,0.0050*%
%ADD13C,0.0079*%
%ADD14C,0.0060*%
D10*
X011834Y012665D02*
X012700Y012665D01*
X013093Y014673D02*
X013960Y014673D01*
X013960Y016681D02*
X013093Y016681D01*
X013093Y017665D02*
X013960Y017665D01*
X013960Y018374D02*
X013645Y018689D01*
X013960Y018689D01*
X013960Y018374D01*
X013960Y018394D02*
X013939Y018394D01*
X013960Y018491D02*
X013842Y018491D01*
X013745Y018588D02*
X013960Y018588D01*
X013960Y018685D02*
X013649Y018685D01*
X013960Y018689D02*
X013093Y018689D01*
X012700Y024948D02*
X011834Y024948D01*
X013093Y026956D02*
X013960Y026956D01*
X013960Y028964D02*
X013093Y028964D01*
X013093Y029948D02*
X013960Y029948D01*
X013960Y030657D02*
X013645Y030972D01*
X013960Y030972D01*
X013960Y030657D01*
X013960Y030703D02*
X013913Y030703D01*
X013960Y030800D02*
X013816Y030800D01*
X013719Y030897D02*
X013960Y030897D01*
X013960Y030972D02*
X013093Y030972D01*
X005692Y030972D02*
X005692Y030657D01*
X005377Y030972D01*
X005692Y030972D01*
X004826Y030972D01*
X005452Y030897D02*
X005692Y030897D01*
X005692Y030800D02*
X005549Y030800D01*
X005646Y030703D02*
X005692Y030703D01*
X005692Y029948D02*
X004826Y029948D01*
X004826Y028964D02*
X005692Y028964D01*
X005692Y026956D02*
X004826Y026956D01*
X004826Y018689D02*
X005692Y018689D01*
X005692Y018374D01*
X005377Y018689D01*
X005692Y018689D01*
X005692Y018685D02*
X005381Y018685D01*
X005478Y018588D02*
X005692Y018588D01*
X005692Y018491D02*
X005575Y018491D01*
X005672Y018394D02*
X005692Y018394D01*
X005692Y017665D02*
X004826Y017665D01*
X004826Y016681D02*
X005692Y016681D01*
X005692Y014673D02*
X004826Y014673D01*
X020101Y012665D02*
X020967Y012665D01*
X021361Y014673D02*
X022227Y014673D01*
X022227Y016681D02*
X021361Y016681D01*
X021361Y017665D02*
X022227Y017665D01*
X022227Y018374D02*
X021912Y018689D01*
X022227Y018689D01*
X022227Y018374D01*
X022227Y018394D02*
X022207Y018394D01*
X022227Y018491D02*
X022110Y018491D01*
X022013Y018588D02*
X022227Y018588D01*
X022227Y018685D02*
X021916Y018685D01*
X022227Y018689D02*
X021361Y018689D01*
X020967Y024948D02*
X020101Y024948D01*
X021361Y026956D02*
X022227Y026956D01*
X022227Y028964D02*
X021361Y028964D01*
X021361Y029948D02*
X022227Y029948D01*
X022227Y030657D02*
X021912Y030972D01*
X022227Y030972D01*
X022227Y030657D01*
X022227Y030703D02*
X022181Y030703D01*
X022227Y030800D02*
X022084Y030800D01*
X021987Y030897D02*
X022227Y030897D01*
X022227Y030972D02*
X021361Y030972D01*
X028369Y024948D02*
X029235Y024948D01*
X029629Y026956D02*
X030495Y026956D01*
X030495Y028964D02*
X029629Y028964D01*
X029629Y029948D02*
X030495Y029948D01*
X030495Y030657D02*
X030180Y030972D01*
X030495Y030972D01*
X030495Y030657D01*
X030495Y030703D02*
X030449Y030703D01*
X030495Y030800D02*
X030352Y030800D01*
X030255Y030897D02*
X030495Y030897D01*
X030495Y030972D02*
X029629Y030972D01*
X036637Y024948D02*
X037503Y024948D01*
X030495Y018689D02*
X030495Y018374D01*
X030180Y018689D01*
X030495Y018689D01*
X029629Y018689D01*
X030184Y018685D02*
X030495Y018685D01*
X030495Y018588D02*
X030281Y018588D01*
X030378Y018491D02*
X030495Y018491D01*
X030495Y018394D02*
X030475Y018394D01*
X030495Y017665D02*
X029629Y017665D01*
X029629Y016681D02*
X030495Y016681D01*
X030495Y014673D02*
X029629Y014673D01*
X029235Y012665D02*
X028369Y012665D01*
X036637Y012665D02*
X037503Y012665D01*
D11*
X005717Y008622D02*
X004808Y008622D01*
X004808Y020724D01*
X005717Y020724D01*
X005717Y008622D01*
X009000Y009284D02*
X009140Y009284D01*
X009070Y009354D02*
X009070Y009074D01*
X009140Y009004D01*
X009307Y009004D02*
X009447Y009004D01*
X009377Y009004D02*
X009377Y009284D01*
X009307Y009284D01*
X009377Y009425D02*
X009377Y009495D01*
X009613Y009284D02*
X009824Y009284D01*
X009894Y009214D01*
X009894Y009004D01*
X010074Y009074D02*
X010144Y009004D01*
X010354Y009004D01*
X010354Y008934D02*
X010354Y009284D01*
X010534Y009425D02*
X010674Y009425D01*
X010604Y009425D02*
X010604Y009004D01*
X010534Y009004D02*
X010674Y009004D01*
X010841Y009004D02*
X011121Y009284D01*
X011121Y009354D01*
X011051Y009425D01*
X010911Y009425D01*
X010841Y009354D01*
X010841Y009004D02*
X011121Y009004D01*
X011302Y009074D02*
X011302Y009354D01*
X011372Y009425D01*
X011512Y009425D01*
X011582Y009354D01*
X011582Y009074D02*
X011512Y009004D01*
X011372Y009004D01*
X011302Y009074D01*
X011808Y008622D02*
X012717Y008622D01*
X012717Y020724D01*
X011808Y020724D01*
X011808Y008622D01*
X013076Y008622D02*
X013985Y008622D01*
X013985Y020724D01*
X013076Y020724D01*
X013076Y008622D01*
X011717Y010122D02*
X010808Y010122D01*
X010808Y012224D01*
X011717Y012224D01*
X011717Y010122D01*
X010354Y008934D02*
X010284Y008864D01*
X010214Y008864D01*
X010074Y009074D02*
X010074Y009284D01*
X009613Y009284D02*
X009613Y009004D01*
X008814Y015218D02*
X006712Y015218D01*
X006712Y016128D01*
X008814Y016128D01*
X008814Y015218D01*
X011814Y019815D02*
X005712Y019815D01*
X005712Y020578D01*
X011814Y020578D01*
X011814Y019815D01*
X011808Y020906D02*
X012717Y020906D01*
X012717Y033007D01*
X011808Y033007D01*
X011808Y020906D01*
X011512Y021288D02*
X011582Y021358D01*
X011512Y021288D02*
X011372Y021288D01*
X011302Y021358D01*
X011302Y021638D01*
X011372Y021708D01*
X011512Y021708D01*
X011582Y021638D01*
X011121Y021638D02*
X011051Y021708D01*
X010911Y021708D01*
X010841Y021638D01*
X010674Y021708D02*
X010534Y021708D01*
X010604Y021708D02*
X010604Y021288D01*
X010534Y021288D02*
X010674Y021288D01*
X010841Y021288D02*
X011121Y021568D01*
X011121Y021638D01*
X011121Y021288D02*
X010841Y021288D01*
X010354Y021288D02*
X010144Y021288D01*
X010074Y021358D01*
X010074Y021568D01*
X009894Y021498D02*
X009894Y021288D01*
X009894Y021498D02*
X009824Y021568D01*
X009613Y021568D01*
X009613Y021288D01*
X009447Y021288D02*
X009307Y021288D01*
X009377Y021288D02*
X009377Y021568D01*
X009307Y021568D01*
X009377Y021708D02*
X009377Y021778D01*
X009140Y021568D02*
X009000Y021568D01*
X009070Y021638D02*
X009070Y021358D01*
X009140Y021288D01*
X010214Y021148D02*
X010284Y021148D01*
X010354Y021218D01*
X010354Y021568D01*
X010808Y022406D02*
X011717Y022406D01*
X011717Y024507D01*
X010808Y024507D01*
X010808Y022406D01*
X013076Y020906D02*
X013985Y020906D01*
X013985Y033007D01*
X013076Y033007D01*
X013076Y020906D01*
X013980Y020578D02*
X013980Y019815D01*
X020081Y019815D01*
X020081Y020578D01*
X013980Y020578D01*
X017267Y021568D02*
X017407Y021568D01*
X017337Y021638D02*
X017337Y021358D01*
X017407Y021288D01*
X017574Y021288D02*
X017714Y021288D01*
X017644Y021288D02*
X017644Y021568D01*
X017574Y021568D01*
X017644Y021708D02*
X017644Y021778D01*
X017881Y021568D02*
X018091Y021568D01*
X018161Y021498D01*
X018161Y021288D01*
X018342Y021358D02*
X018412Y021288D01*
X018622Y021288D01*
X018622Y021218D02*
X018622Y021568D01*
X018802Y021708D02*
X018942Y021708D01*
X018872Y021708D02*
X018872Y021288D01*
X018802Y021288D02*
X018942Y021288D01*
X019109Y021288D02*
X019389Y021568D01*
X019389Y021638D01*
X019319Y021708D01*
X019179Y021708D01*
X019109Y021638D01*
X019109Y021288D02*
X019389Y021288D01*
X019569Y021358D02*
X019639Y021288D01*
X019779Y021288D01*
X019850Y021358D01*
X019850Y021638D02*
X019779Y021708D01*
X019639Y021708D01*
X019569Y021638D01*
X019569Y021358D01*
X020076Y020906D02*
X020985Y020906D01*
X020985Y033007D01*
X020076Y033007D01*
X020076Y020906D01*
X020076Y020724D02*
X020985Y020724D01*
X020985Y008622D01*
X020076Y008622D01*
X020076Y020724D01*
X021343Y020724D02*
X022253Y020724D01*
X022253Y008622D01*
X021343Y008622D01*
X021343Y020724D01*
X021343Y020906D02*
X022253Y020906D01*
X022253Y033007D01*
X021343Y033007D01*
X021343Y020906D01*
X022247Y020578D02*
X022247Y019815D01*
X028349Y019815D01*
X028349Y020578D01*
X022247Y020578D01*
X019985Y022406D02*
X019076Y022406D01*
X019076Y024507D01*
X019985Y024507D01*
X019985Y022406D01*
X018622Y021218D02*
X018552Y021148D01*
X018482Y021148D01*
X018342Y021358D02*
X018342Y021568D01*
X017881Y021568D02*
X017881Y021288D01*
X017081Y016128D02*
X014980Y016128D01*
X014980Y015218D01*
X017081Y015218D01*
X017081Y016128D01*
X019076Y012224D02*
X019985Y012224D01*
X019985Y010122D01*
X019076Y010122D01*
X019076Y012224D01*
X019179Y009425D02*
X019109Y009354D01*
X019179Y009425D02*
X019319Y009425D01*
X019389Y009354D01*
X019389Y009284D01*
X019109Y009004D01*
X019389Y009004D01*
X019569Y009074D02*
X019569Y009354D01*
X019639Y009425D01*
X019779Y009425D01*
X019850Y009354D01*
X019850Y009074D02*
X019779Y009004D01*
X019639Y009004D01*
X019569Y009074D01*
X018942Y009004D02*
X018802Y009004D01*
X018872Y009004D02*
X018872Y009425D01*
X018802Y009425D02*
X018942Y009425D01*
X018622Y009284D02*
X018622Y008934D01*
X018552Y008864D01*
X018482Y008864D01*
X018412Y009004D02*
X018622Y009004D01*
X018412Y009004D02*
X018342Y009074D01*
X018342Y009284D01*
X018161Y009214D02*
X018161Y009004D01*
X018161Y009214D02*
X018091Y009284D01*
X017881Y009284D01*
X017881Y009004D01*
X017714Y009004D02*
X017574Y009004D01*
X017644Y009004D02*
X017644Y009284D01*
X017574Y009284D01*
X017644Y009425D02*
X017644Y009495D01*
X017407Y009284D02*
X017267Y009284D01*
X017337Y009354D02*
X017337Y009074D01*
X017407Y009004D01*
X023247Y015218D02*
X023247Y016128D01*
X025349Y016128D01*
X025349Y015218D01*
X023247Y015218D01*
X027343Y012224D02*
X028253Y012224D01*
X028253Y010122D01*
X027343Y010122D01*
X027343Y012224D01*
X027447Y009425D02*
X027377Y009354D01*
X027447Y009425D02*
X027587Y009425D01*
X027657Y009354D01*
X027657Y009284D01*
X027377Y009004D01*
X027657Y009004D01*
X027837Y009074D02*
X027907Y009004D01*
X028047Y009004D01*
X028117Y009074D01*
X027837Y009074D02*
X027837Y009354D01*
X027907Y009425D01*
X028047Y009425D01*
X028117Y009354D01*
X028343Y008622D02*
X029253Y008622D01*
X029253Y020724D01*
X028343Y020724D01*
X028343Y008622D01*
X027210Y009004D02*
X027070Y009004D01*
X027140Y009004D02*
X027140Y009425D01*
X027070Y009425D02*
X027210Y009425D01*
X026890Y009284D02*
X026890Y008934D01*
X026819Y008864D01*
X026749Y008864D01*
X026679Y009004D02*
X026609Y009074D01*
X026609Y009284D01*
X026429Y009214D02*
X026429Y009004D01*
X026429Y009214D02*
X026359Y009284D01*
X026149Y009284D01*
X026149Y009004D01*
X025982Y009004D02*
X025842Y009004D01*
X025912Y009004D02*
X025912Y009284D01*
X025842Y009284D01*
X025912Y009425D02*
X025912Y009495D01*
X025675Y009284D02*
X025535Y009284D01*
X025605Y009354D02*
X025605Y009074D01*
X025675Y009004D01*
X026679Y009004D02*
X026890Y009004D01*
X029611Y008622D02*
X030521Y008622D01*
X030521Y020724D01*
X029611Y020724D01*
X029611Y008622D01*
X033803Y009284D02*
X033943Y009284D01*
X033873Y009354D02*
X033873Y009074D01*
X033943Y009004D01*
X034110Y009004D02*
X034250Y009004D01*
X034180Y009004D02*
X034180Y009284D01*
X034110Y009284D01*
X034180Y009425D02*
X034180Y009495D01*
X034417Y009284D02*
X034627Y009284D01*
X034697Y009214D01*
X034697Y009004D01*
X034877Y009074D02*
X034947Y009004D01*
X035157Y009004D01*
X035157Y008934D02*
X035157Y009284D01*
X035337Y009425D02*
X035478Y009425D01*
X035407Y009425D02*
X035407Y009004D01*
X035337Y009004D02*
X035478Y009004D01*
X035644Y009004D02*
X035925Y009284D01*
X035925Y009354D01*
X035855Y009425D01*
X035714Y009425D01*
X035644Y009354D01*
X035644Y009004D02*
X035925Y009004D01*
X036105Y009074D02*
X036175Y009004D01*
X036315Y009004D01*
X036385Y009074D01*
X036105Y009074D02*
X036105Y009354D01*
X036175Y009425D01*
X036315Y009425D01*
X036385Y009354D01*
X036611Y008622D02*
X037521Y008622D01*
X037521Y020724D01*
X036611Y020724D01*
X036611Y008622D01*
X035157Y008934D02*
X035087Y008864D01*
X035017Y008864D01*
X034877Y009074D02*
X034877Y009284D01*
X034417Y009284D02*
X034417Y009004D01*
X035611Y010122D02*
X036521Y010122D01*
X036521Y012224D01*
X035611Y012224D01*
X035611Y010122D01*
X033617Y015218D02*
X031515Y015218D01*
X031515Y016128D01*
X033617Y016128D01*
X033617Y015218D01*
X036617Y019815D02*
X030515Y019815D01*
X030515Y020578D01*
X036617Y020578D01*
X036617Y019815D01*
X036611Y020906D02*
X037521Y020906D01*
X037521Y033007D01*
X036611Y033007D01*
X036611Y020906D01*
X036315Y021288D02*
X036385Y021358D01*
X036315Y021288D02*
X036175Y021288D01*
X036105Y021358D01*
X036105Y021638D01*
X036175Y021708D01*
X036315Y021708D01*
X036385Y021638D01*
X035925Y021638D02*
X035855Y021708D01*
X035714Y021708D01*
X035644Y021638D01*
X035478Y021708D02*
X035337Y021708D01*
X035407Y021708D02*
X035407Y021288D01*
X035337Y021288D02*
X035478Y021288D01*
X035644Y021288D02*
X035925Y021568D01*
X035925Y021638D01*
X035925Y021288D02*
X035644Y021288D01*
X035157Y021288D02*
X034947Y021288D01*
X034877Y021358D01*
X034877Y021568D01*
X034697Y021498D02*
X034697Y021288D01*
X034697Y021498D02*
X034627Y021568D01*
X034417Y021568D01*
X034417Y021288D01*
X034250Y021288D02*
X034110Y021288D01*
X034180Y021288D02*
X034180Y021568D01*
X034110Y021568D01*
X034180Y021708D02*
X034180Y021778D01*
X033943Y021568D02*
X033803Y021568D01*
X033873Y021638D02*
X033873Y021358D01*
X033943Y021288D01*
X035017Y021148D02*
X035087Y021148D01*
X035157Y021218D01*
X035157Y021568D01*
X035611Y022406D02*
X036521Y022406D01*
X036521Y024507D01*
X035611Y024507D01*
X035611Y022406D01*
X030521Y020906D02*
X029611Y020906D01*
X029611Y033007D01*
X030521Y033007D01*
X030521Y020906D01*
X029253Y020906D02*
X028343Y020906D01*
X028343Y033007D01*
X029253Y033007D01*
X029253Y020906D01*
X028117Y021358D02*
X028047Y021288D01*
X027907Y021288D01*
X027837Y021358D01*
X027837Y021638D01*
X027907Y021708D01*
X028047Y021708D01*
X028117Y021638D01*
X027657Y021638D02*
X027587Y021708D01*
X027447Y021708D01*
X027377Y021638D01*
X027210Y021708D02*
X027070Y021708D01*
X027140Y021708D02*
X027140Y021288D01*
X027070Y021288D02*
X027210Y021288D01*
X027377Y021288D02*
X027657Y021568D01*
X027657Y021638D01*
X027657Y021288D02*
X027377Y021288D01*
X026890Y021288D02*
X026679Y021288D01*
X026609Y021358D01*
X026609Y021568D01*
X026429Y021498D02*
X026429Y021288D01*
X026429Y021498D02*
X026359Y021568D01*
X026149Y021568D01*
X026149Y021288D01*
X025982Y021288D02*
X025842Y021288D01*
X025912Y021288D02*
X025912Y021568D01*
X025842Y021568D01*
X025912Y021708D02*
X025912Y021778D01*
X025675Y021568D02*
X025535Y021568D01*
X025605Y021638D02*
X025605Y021358D01*
X025675Y021288D01*
X026749Y021148D02*
X026819Y021148D01*
X026890Y021218D01*
X026890Y021568D01*
X027343Y022406D02*
X028253Y022406D01*
X028253Y024507D01*
X027343Y024507D01*
X027343Y022406D01*
X025349Y027502D02*
X023247Y027502D01*
X023247Y028411D01*
X025349Y028411D01*
X025349Y027502D01*
X028349Y032098D02*
X022247Y032098D01*
X022247Y032862D01*
X028349Y032862D01*
X028349Y032098D01*
X030515Y032098D02*
X036617Y032098D01*
X036617Y032862D01*
X030515Y032862D01*
X030515Y032098D01*
X031515Y028411D02*
X031515Y027502D01*
X033617Y027502D01*
X033617Y028411D01*
X031515Y028411D01*
X020081Y032098D02*
X020081Y032862D01*
X013980Y032862D01*
X013980Y032098D01*
X020081Y032098D01*
X017081Y028411D02*
X017081Y027502D01*
X014980Y027502D01*
X014980Y028411D01*
X017081Y028411D01*
X011814Y032098D02*
X011814Y032862D01*
X005712Y032862D01*
X005712Y032098D01*
X011814Y032098D01*
X008814Y028411D02*
X008814Y027502D01*
X006712Y027502D01*
X006712Y028411D01*
X008814Y028411D01*
X005717Y033007D02*
X004808Y033007D01*
X004808Y020906D01*
X005717Y020906D01*
X005717Y033007D01*
D12*
X005066Y032980D02*
X004830Y032744D01*
X004830Y032980D01*
X005066Y032980D01*
X005041Y032955D02*
X004830Y032955D01*
X004830Y032906D02*
X004992Y032906D01*
X004944Y032858D02*
X004830Y032858D01*
X004830Y032809D02*
X004895Y032809D01*
X004847Y032761D02*
X004830Y032761D01*
X005731Y032332D02*
X005731Y032096D01*
X005967Y032096D01*
X005731Y032332D01*
X005731Y032324D02*
X005739Y032324D01*
X005731Y032276D02*
X005787Y032276D01*
X005836Y032227D02*
X005731Y032227D01*
X005731Y032179D02*
X005884Y032179D01*
X005933Y032130D02*
X005731Y032130D01*
X005936Y030989D02*
X005861Y030914D01*
X005861Y030613D01*
X005936Y030538D01*
X006086Y030538D01*
X006161Y030613D01*
X006321Y030613D02*
X006396Y030538D01*
X006546Y030538D01*
X006621Y030613D01*
X006621Y030689D01*
X006546Y030764D01*
X006471Y030764D01*
X006546Y030764D02*
X006621Y030839D01*
X006621Y030914D01*
X006546Y030989D01*
X006396Y030989D01*
X006321Y030914D01*
X006161Y030914D02*
X006086Y030989D01*
X005936Y030989D01*
X005943Y029382D02*
X006018Y029307D01*
X006094Y029382D01*
X006169Y029382D01*
X006244Y029307D01*
X006244Y029157D01*
X006169Y029081D01*
X006244Y028921D02*
X006094Y028771D01*
X006094Y028846D02*
X006094Y028621D01*
X006244Y028621D02*
X005793Y028621D01*
X005793Y028846D01*
X005868Y028921D01*
X006018Y028921D01*
X006094Y028846D01*
X005868Y029081D02*
X005793Y029157D01*
X005793Y029307D01*
X005868Y029382D01*
X005943Y029382D01*
X006018Y029307D02*
X006018Y029232D01*
X006412Y029024D02*
X006412Y028724D01*
X006487Y028649D01*
X006637Y028649D01*
X006712Y028724D01*
X006872Y028874D02*
X007172Y028874D01*
X007097Y028649D02*
X007097Y029099D01*
X006872Y028874D01*
X006712Y029024D02*
X006637Y029099D01*
X006487Y029099D01*
X006412Y029024D01*
X006510Y027603D02*
X006360Y027453D01*
X006200Y027528D02*
X006200Y027378D01*
X006125Y027303D01*
X005900Y027303D01*
X006050Y027303D02*
X006200Y027153D01*
X006360Y027153D02*
X006661Y027153D01*
X006510Y027153D02*
X006510Y027603D01*
X006200Y027528D02*
X006125Y027603D01*
X005900Y027603D01*
X005900Y027153D01*
X006687Y026540D02*
X006913Y026540D01*
X006988Y026465D01*
X006988Y026315D01*
X006913Y026240D01*
X006687Y026240D01*
X006687Y026090D02*
X006687Y026540D01*
X006884Y026759D02*
X006884Y027209D01*
X007109Y027209D01*
X007184Y027134D01*
X007184Y026984D01*
X007109Y026909D01*
X006884Y026909D01*
X007034Y026909D02*
X007184Y026759D01*
X007345Y026759D02*
X007645Y027059D01*
X007645Y027134D01*
X007570Y027209D01*
X007420Y027209D01*
X007345Y027134D01*
X007345Y026759D02*
X007645Y026759D01*
X007877Y026720D02*
X007877Y026897D01*
X008054Y026897D01*
X007448Y026540D02*
X007148Y026540D01*
X007148Y026315D01*
X007298Y026390D01*
X007373Y026390D01*
X007448Y026315D01*
X007448Y026165D01*
X007373Y026090D01*
X007223Y026090D01*
X007148Y026165D01*
X006988Y026090D02*
X006837Y026240D01*
X006676Y025241D02*
X006751Y025166D01*
X006751Y025016D01*
X006676Y024940D01*
X006451Y024940D01*
X006451Y024790D02*
X006451Y025241D01*
X006676Y025241D01*
X006601Y024940D02*
X006751Y024790D01*
X006912Y024865D02*
X006912Y025016D01*
X007137Y025016D01*
X007212Y024940D01*
X007212Y024865D01*
X007137Y024790D01*
X006987Y024790D01*
X006912Y024865D01*
X006912Y025016D02*
X007062Y025166D01*
X007212Y025241D01*
X007877Y025145D02*
X007877Y024968D01*
X008054Y024968D01*
X007605Y024532D02*
X007605Y024457D01*
X007305Y024157D01*
X007305Y024082D01*
X007145Y024082D02*
X006995Y024232D01*
X007070Y024232D02*
X006845Y024232D01*
X006845Y024082D02*
X006845Y024532D01*
X007070Y024532D01*
X007145Y024457D01*
X007145Y024307D01*
X007070Y024232D01*
X007305Y024532D02*
X007605Y024532D01*
X007570Y023587D02*
X007420Y023587D01*
X007345Y023512D01*
X007345Y023437D01*
X007420Y023362D01*
X007570Y023362D01*
X007645Y023287D01*
X007645Y023212D01*
X007570Y023137D01*
X007420Y023137D01*
X007345Y023212D01*
X007345Y023287D01*
X007420Y023362D01*
X007570Y023362D02*
X007645Y023437D01*
X007645Y023512D01*
X007570Y023587D01*
X007184Y023512D02*
X007184Y023362D01*
X007109Y023287D01*
X006884Y023287D01*
X006884Y023137D02*
X006884Y023587D01*
X007109Y023587D01*
X007184Y023512D01*
X007034Y023287D02*
X007184Y023137D01*
X007070Y022682D02*
X007145Y022607D01*
X007145Y022456D01*
X007070Y022381D01*
X006845Y022381D01*
X006845Y022231D02*
X006845Y022682D01*
X007070Y022682D01*
X007305Y022607D02*
X007305Y022532D01*
X007380Y022456D01*
X007605Y022456D01*
X007605Y022306D02*
X007605Y022607D01*
X007530Y022682D01*
X007380Y022682D01*
X007305Y022607D01*
X007305Y022306D02*
X007380Y022231D01*
X007530Y022231D01*
X007605Y022306D01*
X007652Y022091D02*
X007652Y021641D01*
X007502Y021641D02*
X007802Y021641D01*
X007962Y021716D02*
X008263Y022016D01*
X008263Y021716D01*
X008188Y021641D01*
X008038Y021641D01*
X007962Y021716D01*
X007962Y022016D01*
X008038Y022091D01*
X008188Y022091D01*
X008263Y022016D01*
X007652Y022091D02*
X007502Y021941D01*
X007342Y021866D02*
X007267Y021791D01*
X007042Y021791D01*
X007192Y021791D02*
X007342Y021641D01*
X007342Y021866D02*
X007342Y022016D01*
X007267Y022091D01*
X007042Y022091D01*
X007042Y021641D01*
X007145Y022231D02*
X006995Y022381D01*
X008459Y022621D02*
X008534Y022546D01*
X008684Y022546D01*
X008759Y022621D01*
X008919Y022546D02*
X009220Y022847D01*
X009220Y022922D01*
X009145Y022997D01*
X008994Y022997D01*
X008919Y022922D01*
X008759Y022922D02*
X008684Y022997D01*
X008534Y022997D01*
X008459Y022922D01*
X008459Y022621D01*
X008919Y022546D02*
X009220Y022546D01*
X009597Y023452D02*
X009747Y023452D01*
X009822Y023527D01*
X009982Y023527D02*
X010057Y023452D01*
X010208Y023452D01*
X010283Y023527D01*
X010283Y023602D01*
X010208Y023677D01*
X009982Y023677D01*
X009982Y023527D01*
X009982Y023677D02*
X010133Y023827D01*
X010283Y023902D01*
X010304Y024304D02*
X010304Y024755D01*
X010154Y024604D01*
X009994Y024755D02*
X009994Y024379D01*
X009918Y024304D01*
X009768Y024304D01*
X009693Y024379D01*
X009693Y024755D01*
X009629Y024968D02*
X009806Y024968D01*
X009806Y025145D01*
X010154Y024304D02*
X010454Y024304D01*
X010830Y024322D02*
X010908Y024322D01*
X010956Y024370D02*
X010830Y024370D01*
X010830Y024419D02*
X011005Y024419D01*
X011053Y024467D02*
X010830Y024467D01*
X010830Y024480D02*
X011066Y024480D01*
X010830Y024244D01*
X010830Y024480D01*
X010830Y024273D02*
X010859Y024273D01*
X009822Y023827D02*
X009747Y023902D01*
X009597Y023902D01*
X009522Y023827D01*
X009522Y023527D01*
X009597Y023452D01*
X011830Y020696D02*
X012066Y020696D01*
X011830Y020460D01*
X011830Y020696D01*
X011830Y020684D02*
X012054Y020684D01*
X012005Y020636D02*
X011830Y020636D01*
X011830Y020587D02*
X011957Y020587D01*
X011908Y020539D02*
X011830Y020539D01*
X011830Y020490D02*
X011860Y020490D01*
X013097Y020490D02*
X013127Y020490D01*
X013097Y020460D02*
X013097Y020696D01*
X013334Y020696D01*
X013097Y020460D01*
X013097Y020539D02*
X013176Y020539D01*
X013224Y020587D02*
X013097Y020587D01*
X013097Y020636D02*
X013273Y020636D01*
X013321Y020684D02*
X013097Y020684D01*
X013999Y020048D02*
X013999Y019812D01*
X014235Y019812D01*
X013999Y020048D01*
X013999Y020005D02*
X014042Y020005D01*
X013999Y019957D02*
X014091Y019957D01*
X014139Y019908D02*
X013999Y019908D01*
X013999Y019860D02*
X014188Y019860D01*
X014203Y018705D02*
X014128Y018630D01*
X014128Y018330D01*
X014203Y018255D01*
X014353Y018255D01*
X014429Y018330D01*
X014589Y018330D02*
X014664Y018255D01*
X014814Y018255D01*
X014889Y018330D01*
X014889Y018405D01*
X014814Y018480D01*
X014739Y018480D01*
X014814Y018480D02*
X014889Y018555D01*
X014889Y018630D01*
X014814Y018705D01*
X014664Y018705D01*
X014589Y018630D01*
X014429Y018630D02*
X014353Y018705D01*
X014203Y018705D01*
X014211Y017098D02*
X014286Y017023D01*
X014361Y017098D01*
X014436Y017098D01*
X014511Y017023D01*
X014511Y016873D01*
X014436Y016798D01*
X014511Y016638D02*
X014361Y016488D01*
X014361Y016563D02*
X014361Y016338D01*
X014511Y016338D02*
X014061Y016338D01*
X014061Y016563D01*
X014136Y016638D01*
X014286Y016638D01*
X014361Y016563D01*
X014136Y016798D02*
X014061Y016873D01*
X014061Y017023D01*
X014136Y017098D01*
X014211Y017098D01*
X014286Y017023D02*
X014286Y016948D01*
X014679Y016740D02*
X014679Y016440D01*
X014755Y016365D01*
X014905Y016365D01*
X014980Y016440D01*
X015140Y016590D02*
X015365Y016816D01*
X015365Y016365D01*
X015440Y016590D02*
X015140Y016590D01*
X014980Y016740D02*
X014905Y016816D01*
X014755Y016816D01*
X014679Y016740D01*
X014778Y015319D02*
X014778Y014869D01*
X014628Y014869D02*
X014928Y014869D01*
X015152Y014926D02*
X015152Y014475D01*
X015152Y014626D02*
X015377Y014626D01*
X015452Y014701D01*
X015452Y014851D01*
X015377Y014926D01*
X015152Y014926D01*
X015302Y014626D02*
X015452Y014475D01*
X015612Y014475D02*
X015913Y014776D01*
X015913Y014851D01*
X015838Y014926D01*
X015687Y014926D01*
X015612Y014851D01*
X015612Y014475D02*
X015913Y014475D01*
X016145Y014437D02*
X016145Y014614D01*
X016322Y014614D01*
X015716Y014256D02*
X015415Y014256D01*
X015415Y014031D01*
X015566Y014106D01*
X015641Y014106D01*
X015716Y014031D01*
X015716Y013881D01*
X015641Y013806D01*
X015491Y013806D01*
X015415Y013881D01*
X015255Y013806D02*
X015105Y013956D01*
X015180Y013956D02*
X014955Y013956D01*
X014955Y013806D02*
X014955Y014256D01*
X015180Y014256D01*
X015255Y014181D01*
X015255Y014031D01*
X015180Y013956D01*
X014468Y014869D02*
X014318Y015019D01*
X014393Y015019D02*
X014168Y015019D01*
X014168Y014869D02*
X014168Y015319D01*
X014393Y015319D01*
X014468Y015244D01*
X014468Y015094D01*
X014393Y015019D01*
X014628Y015169D02*
X014778Y015319D01*
X016818Y016106D02*
X017054Y015870D01*
X017054Y016106D01*
X016818Y016106D01*
X016847Y016077D02*
X017054Y016077D01*
X017054Y016028D02*
X016896Y016028D01*
X016944Y015980D02*
X017054Y015980D01*
X017054Y015931D02*
X016993Y015931D01*
X017041Y015883D02*
X017054Y015883D01*
X017278Y015925D02*
X017503Y015925D01*
X017578Y016000D01*
X017578Y016150D01*
X017503Y016225D01*
X017278Y016225D01*
X017278Y015775D01*
X017428Y015925D02*
X017578Y015775D01*
X017738Y016000D02*
X018039Y016000D01*
X017963Y015775D02*
X017963Y016225D01*
X017738Y016000D01*
X017897Y014614D02*
X018074Y014614D01*
X018074Y014437D01*
X018074Y012862D02*
X018074Y012685D01*
X017897Y012685D01*
X017961Y012471D02*
X017961Y012096D01*
X018036Y012021D01*
X018186Y012021D01*
X018261Y012096D01*
X018261Y012471D01*
X018421Y012321D02*
X018572Y012471D01*
X018572Y012021D01*
X018722Y012021D02*
X018421Y012021D01*
X018550Y011619D02*
X018400Y011544D01*
X018250Y011393D01*
X018475Y011393D01*
X018550Y011318D01*
X018550Y011243D01*
X018475Y011168D01*
X018325Y011168D01*
X018250Y011243D01*
X018250Y011393D01*
X018090Y011243D02*
X018015Y011168D01*
X017865Y011168D01*
X017790Y011243D01*
X017790Y011544D01*
X017865Y011619D01*
X018015Y011619D01*
X018090Y011544D01*
X017412Y010713D02*
X017262Y010713D01*
X017187Y010638D01*
X017027Y010638D02*
X016952Y010713D01*
X016802Y010713D01*
X016727Y010638D01*
X016727Y010338D01*
X016802Y010263D01*
X016952Y010263D01*
X017027Y010338D01*
X017187Y010263D02*
X017487Y010563D01*
X017487Y010638D01*
X017412Y010713D01*
X017487Y010263D02*
X017187Y010263D01*
X016530Y009733D02*
X016530Y009432D01*
X016455Y009357D01*
X016305Y009357D01*
X016230Y009432D01*
X016530Y009733D01*
X016455Y009808D01*
X016305Y009808D01*
X016230Y009733D01*
X016230Y009432D01*
X016070Y009357D02*
X015770Y009357D01*
X015920Y009357D02*
X015920Y009808D01*
X015770Y009658D01*
X015610Y009733D02*
X015610Y009582D01*
X015535Y009507D01*
X015309Y009507D01*
X015309Y009357D02*
X015309Y009808D01*
X015535Y009808D01*
X015610Y009733D01*
X015648Y009948D02*
X015798Y009948D01*
X015873Y010023D01*
X015873Y010323D01*
X015798Y010398D01*
X015648Y010398D01*
X015573Y010323D01*
X015573Y010248D01*
X015648Y010173D01*
X015873Y010173D01*
X015648Y009948D02*
X015573Y010023D01*
X015413Y009948D02*
X015263Y010098D01*
X015338Y010098D02*
X015113Y010098D01*
X015113Y009948D02*
X015113Y010398D01*
X015338Y010398D01*
X015413Y010323D01*
X015413Y010173D01*
X015338Y010098D01*
X015460Y009507D02*
X015610Y009357D01*
X015687Y010853D02*
X015612Y010928D01*
X015612Y011003D01*
X015687Y011079D01*
X015838Y011079D01*
X015913Y011003D01*
X015913Y010928D01*
X015838Y010853D01*
X015687Y010853D01*
X015687Y011079D02*
X015612Y011154D01*
X015612Y011229D01*
X015687Y011304D01*
X015838Y011304D01*
X015913Y011229D01*
X015913Y011154D01*
X015838Y011079D01*
X015452Y011079D02*
X015452Y011229D01*
X015377Y011304D01*
X015152Y011304D01*
X015152Y010853D01*
X015152Y011003D02*
X015377Y011003D01*
X015452Y011079D01*
X015302Y011003D02*
X015452Y010853D01*
X015413Y011798D02*
X015263Y011948D01*
X015338Y011948D02*
X015113Y011948D01*
X015113Y011798D02*
X015113Y012249D01*
X015338Y012249D01*
X015413Y012174D01*
X015413Y012023D01*
X015338Y011948D01*
X015573Y011873D02*
X015573Y011798D01*
X015573Y011873D02*
X015873Y012174D01*
X015873Y012249D01*
X015573Y012249D01*
X015404Y012507D02*
X015480Y012582D01*
X015480Y012657D01*
X015404Y012732D01*
X015179Y012732D01*
X015179Y012582D01*
X015254Y012507D01*
X015404Y012507D01*
X015179Y012732D02*
X015329Y012882D01*
X015480Y012957D01*
X015019Y012882D02*
X015019Y012732D01*
X014944Y012657D01*
X014719Y012657D01*
X014869Y012657D02*
X015019Y012507D01*
X014719Y012507D02*
X014719Y012957D01*
X014944Y012957D01*
X015019Y012882D01*
X016145Y012862D02*
X016145Y012685D01*
X016322Y012685D01*
X019097Y012196D02*
X019334Y012196D01*
X019097Y011960D01*
X019097Y012196D01*
X019097Y012148D02*
X019285Y012148D01*
X019237Y012100D02*
X019097Y012100D01*
X019097Y012051D02*
X019188Y012051D01*
X019140Y012003D02*
X019097Y012003D01*
X022435Y014869D02*
X022435Y015319D01*
X022661Y015319D01*
X022736Y015244D01*
X022736Y015094D01*
X022661Y015019D01*
X022435Y015019D01*
X022586Y015019D02*
X022736Y014869D01*
X022896Y014869D02*
X023196Y014869D01*
X023046Y014869D02*
X023046Y015319D01*
X022896Y015169D01*
X023420Y014926D02*
X023645Y014926D01*
X023720Y014851D01*
X023720Y014701D01*
X023645Y014626D01*
X023420Y014626D01*
X023570Y014626D02*
X023720Y014475D01*
X023880Y014475D02*
X024180Y014776D01*
X024180Y014851D01*
X024105Y014926D01*
X023955Y014926D01*
X023880Y014851D01*
X023880Y014475D02*
X024180Y014475D01*
X024412Y014437D02*
X024412Y014614D01*
X024590Y014614D01*
X023983Y014256D02*
X023683Y014256D01*
X023683Y014031D01*
X023833Y014106D01*
X023908Y014106D01*
X023983Y014031D01*
X023983Y013881D01*
X023908Y013806D01*
X023758Y013806D01*
X023683Y013881D01*
X023523Y013806D02*
X023373Y013956D01*
X023448Y013956D02*
X023223Y013956D01*
X023223Y013806D02*
X023223Y014256D01*
X023448Y014256D01*
X023523Y014181D01*
X023523Y014031D01*
X023448Y013956D01*
X023420Y014475D02*
X023420Y014926D01*
X023633Y016365D02*
X023633Y016816D01*
X023408Y016590D01*
X023708Y016590D01*
X023247Y016440D02*
X023172Y016365D01*
X023022Y016365D01*
X022947Y016440D01*
X022947Y016740D01*
X023022Y016816D01*
X023172Y016816D01*
X023247Y016740D01*
X022779Y016638D02*
X022629Y016488D01*
X022629Y016563D02*
X022629Y016338D01*
X022779Y016338D02*
X022329Y016338D01*
X022329Y016563D01*
X022404Y016638D01*
X022554Y016638D01*
X022629Y016563D01*
X022704Y016798D02*
X022779Y016873D01*
X022779Y017023D01*
X022704Y017098D01*
X022629Y017098D01*
X022554Y017023D01*
X022554Y016948D01*
X022554Y017023D02*
X022479Y017098D01*
X022404Y017098D01*
X022329Y017023D01*
X022329Y016873D01*
X022404Y016798D01*
X022471Y018255D02*
X022621Y018255D01*
X022696Y018330D01*
X022856Y018330D02*
X022931Y018255D01*
X023082Y018255D01*
X023157Y018330D01*
X023157Y018405D01*
X023082Y018480D01*
X023007Y018480D01*
X023082Y018480D02*
X023157Y018555D01*
X023157Y018630D01*
X023082Y018705D01*
X022931Y018705D01*
X022856Y018630D01*
X022696Y018630D02*
X022621Y018705D01*
X022471Y018705D01*
X022396Y018630D01*
X022396Y018330D01*
X022471Y018255D01*
X022503Y019812D02*
X022267Y019812D01*
X022267Y020048D01*
X022503Y019812D01*
X022455Y019860D02*
X022267Y019860D01*
X022267Y019908D02*
X022407Y019908D01*
X022358Y019957D02*
X022267Y019957D01*
X022267Y020005D02*
X022310Y020005D01*
X021601Y020696D02*
X021365Y020696D01*
X021365Y020460D01*
X021601Y020696D01*
X021589Y020684D02*
X021365Y020684D01*
X021365Y020636D02*
X021541Y020636D01*
X021492Y020587D02*
X021365Y020587D01*
X021365Y020539D02*
X021444Y020539D01*
X021395Y020490D02*
X021365Y020490D01*
X020334Y020696D02*
X020097Y020696D01*
X020097Y020460D01*
X020334Y020696D01*
X020321Y020684D02*
X020097Y020684D01*
X020097Y020636D02*
X020273Y020636D01*
X020224Y020587D02*
X020097Y020587D01*
X020097Y020539D02*
X020176Y020539D01*
X020127Y020490D02*
X020097Y020490D01*
X019424Y018784D02*
X019424Y018334D01*
X019274Y018334D02*
X019574Y018334D01*
X019274Y018634D02*
X019424Y018784D01*
X019114Y018709D02*
X019039Y018784D01*
X018888Y018784D01*
X018813Y018709D01*
X018813Y018409D01*
X018888Y018334D01*
X019039Y018334D01*
X019114Y018409D01*
X019429Y017328D02*
X019879Y017328D01*
X019879Y017178D02*
X019879Y017478D01*
X019579Y017178D02*
X019429Y017328D01*
X019504Y017018D02*
X019429Y016943D01*
X019429Y016792D01*
X019504Y016717D01*
X019804Y016717D01*
X019879Y016792D01*
X019879Y016943D01*
X019804Y017018D01*
X019879Y016561D02*
X019879Y016410D01*
X019879Y016485D02*
X019429Y016485D01*
X019429Y016410D02*
X019429Y016561D01*
X017924Y017534D02*
X017624Y017534D01*
X017924Y017835D01*
X017924Y017910D01*
X017849Y017985D01*
X017699Y017985D01*
X017624Y017910D01*
X017464Y017910D02*
X017389Y017985D01*
X017239Y017985D01*
X017164Y017910D01*
X017164Y017610D01*
X017239Y017534D01*
X017389Y017534D01*
X017464Y017610D01*
X017007Y017534D02*
X016857Y017534D01*
X016932Y017534D02*
X016932Y017985D01*
X016857Y017985D02*
X017007Y017985D01*
X016959Y018176D02*
X017109Y018176D01*
X017184Y018251D01*
X017345Y018251D02*
X017420Y018176D01*
X017570Y018176D01*
X017645Y018251D01*
X017645Y018401D01*
X017570Y018476D01*
X017495Y018476D01*
X017345Y018401D01*
X017345Y018627D01*
X017645Y018627D01*
X017184Y018552D02*
X017109Y018627D01*
X016959Y018627D01*
X016884Y018552D01*
X016884Y018251D01*
X016959Y018176D01*
X016455Y021641D02*
X016305Y021641D01*
X016230Y021716D01*
X016530Y022016D01*
X016530Y021716D01*
X016455Y021641D01*
X016230Y021716D02*
X016230Y022016D01*
X016305Y022091D01*
X016455Y022091D01*
X016530Y022016D01*
X016070Y021641D02*
X015770Y021641D01*
X015920Y021641D02*
X015920Y022091D01*
X015770Y021941D01*
X015610Y021866D02*
X015535Y021791D01*
X015309Y021791D01*
X015309Y021641D02*
X015309Y022091D01*
X015535Y022091D01*
X015610Y022016D01*
X015610Y021866D01*
X015460Y021791D02*
X015610Y021641D01*
X015648Y022231D02*
X015798Y022231D01*
X015873Y022306D01*
X015873Y022607D01*
X015798Y022682D01*
X015648Y022682D01*
X015573Y022607D01*
X015573Y022532D01*
X015648Y022456D01*
X015873Y022456D01*
X015648Y022231D02*
X015573Y022306D01*
X015413Y022231D02*
X015263Y022381D01*
X015338Y022381D02*
X015113Y022381D01*
X015113Y022231D02*
X015113Y022682D01*
X015338Y022682D01*
X015413Y022607D01*
X015413Y022456D01*
X015338Y022381D01*
X015452Y023137D02*
X015302Y023287D01*
X015377Y023287D02*
X015152Y023287D01*
X015152Y023137D02*
X015152Y023587D01*
X015377Y023587D01*
X015452Y023512D01*
X015452Y023362D01*
X015377Y023287D01*
X015612Y023287D02*
X015687Y023362D01*
X015838Y023362D01*
X015913Y023287D01*
X015913Y023212D01*
X015838Y023137D01*
X015687Y023137D01*
X015612Y023212D01*
X015612Y023287D01*
X015687Y023362D02*
X015612Y023437D01*
X015612Y023512D01*
X015687Y023587D01*
X015838Y023587D01*
X015913Y023512D01*
X015913Y023437D01*
X015838Y023362D01*
X015573Y024082D02*
X015573Y024157D01*
X015873Y024457D01*
X015873Y024532D01*
X015573Y024532D01*
X015413Y024457D02*
X015413Y024307D01*
X015338Y024232D01*
X015113Y024232D01*
X015263Y024232D02*
X015413Y024082D01*
X015113Y024082D02*
X015113Y024532D01*
X015338Y024532D01*
X015413Y024457D01*
X015404Y024790D02*
X015480Y024865D01*
X015480Y024940D01*
X015404Y025016D01*
X015179Y025016D01*
X015179Y024865D01*
X015254Y024790D01*
X015404Y024790D01*
X015179Y025016D02*
X015329Y025166D01*
X015480Y025241D01*
X015019Y025166D02*
X015019Y025016D01*
X014944Y024940D01*
X014719Y024940D01*
X014719Y024790D02*
X014719Y025241D01*
X014944Y025241D01*
X015019Y025166D01*
X014869Y024940D02*
X015019Y024790D01*
X016145Y024968D02*
X016322Y024968D01*
X016145Y024968D02*
X016145Y025145D01*
X015641Y026090D02*
X015491Y026090D01*
X015415Y026165D01*
X015415Y026315D02*
X015566Y026390D01*
X015641Y026390D01*
X015716Y026315D01*
X015716Y026165D01*
X015641Y026090D01*
X015415Y026315D02*
X015415Y026540D01*
X015716Y026540D01*
X015612Y026759D02*
X015913Y027059D01*
X015913Y027134D01*
X015838Y027209D01*
X015687Y027209D01*
X015612Y027134D01*
X015452Y027134D02*
X015452Y026984D01*
X015377Y026909D01*
X015152Y026909D01*
X015302Y026909D02*
X015452Y026759D01*
X015612Y026759D02*
X015913Y026759D01*
X016145Y026720D02*
X016145Y026897D01*
X016322Y026897D01*
X015452Y027134D02*
X015377Y027209D01*
X015152Y027209D01*
X015152Y026759D01*
X015180Y026540D02*
X015255Y026465D01*
X015255Y026315D01*
X015180Y026240D01*
X014955Y026240D01*
X015105Y026240D02*
X015255Y026090D01*
X014955Y026090D02*
X014955Y026540D01*
X015180Y026540D01*
X014928Y027153D02*
X014628Y027153D01*
X014778Y027153D02*
X014778Y027603D01*
X014628Y027453D01*
X014468Y027528D02*
X014468Y027378D01*
X014393Y027303D01*
X014168Y027303D01*
X014318Y027303D02*
X014468Y027153D01*
X014168Y027153D02*
X014168Y027603D01*
X014393Y027603D01*
X014468Y027528D01*
X014511Y028621D02*
X014061Y028621D01*
X014061Y028846D01*
X014136Y028921D01*
X014286Y028921D01*
X014361Y028846D01*
X014361Y028621D01*
X014361Y028771D02*
X014511Y028921D01*
X014436Y029081D02*
X014511Y029157D01*
X014511Y029307D01*
X014436Y029382D01*
X014361Y029382D01*
X014286Y029307D01*
X014286Y029232D01*
X014286Y029307D02*
X014211Y029382D01*
X014136Y029382D01*
X014061Y029307D01*
X014061Y029157D01*
X014136Y029081D01*
X014679Y029024D02*
X014679Y028724D01*
X014755Y028649D01*
X014905Y028649D01*
X014980Y028724D01*
X015140Y028874D02*
X015440Y028874D01*
X015365Y029099D02*
X015140Y028874D01*
X014980Y029024D02*
X014905Y029099D01*
X014755Y029099D01*
X014679Y029024D01*
X015365Y029099D02*
X015365Y028649D01*
X016818Y028389D02*
X017054Y028153D01*
X017054Y028389D01*
X016818Y028389D01*
X016860Y028347D02*
X017054Y028347D01*
X017054Y028299D02*
X016909Y028299D01*
X016957Y028250D02*
X017054Y028250D01*
X017054Y028202D02*
X017006Y028202D01*
X017054Y028153D02*
X017054Y028153D01*
X017278Y028208D02*
X017503Y028208D01*
X017578Y028283D01*
X017578Y028433D01*
X017503Y028508D01*
X017278Y028508D01*
X017278Y028058D01*
X017428Y028208D02*
X017578Y028058D01*
X017738Y028283D02*
X018039Y028283D01*
X017963Y028058D02*
X017963Y028508D01*
X017738Y028283D01*
X017897Y026897D02*
X018074Y026897D01*
X018074Y026720D01*
X018074Y025145D02*
X018074Y024968D01*
X017897Y024968D01*
X017961Y024755D02*
X017961Y024379D01*
X018036Y024304D01*
X018186Y024304D01*
X018261Y024379D01*
X018261Y024755D01*
X018421Y024604D02*
X018572Y024755D01*
X018572Y024304D01*
X018722Y024304D02*
X018421Y024304D01*
X018550Y023902D02*
X018400Y023827D01*
X018250Y023677D01*
X018475Y023677D01*
X018550Y023602D01*
X018550Y023527D01*
X018475Y023452D01*
X018325Y023452D01*
X018250Y023527D01*
X018250Y023677D01*
X018090Y023827D02*
X018015Y023902D01*
X017865Y023902D01*
X017790Y023827D01*
X017790Y023527D01*
X017865Y023452D01*
X018015Y023452D01*
X018090Y023527D01*
X017487Y022922D02*
X017412Y022997D01*
X017262Y022997D01*
X017187Y022922D01*
X017027Y022922D02*
X016952Y022997D01*
X016802Y022997D01*
X016727Y022922D01*
X016727Y022621D01*
X016802Y022546D01*
X016952Y022546D01*
X017027Y022621D01*
X017187Y022546D02*
X017487Y022847D01*
X017487Y022922D01*
X017487Y022546D02*
X017187Y022546D01*
X019097Y024244D02*
X019097Y024480D01*
X019334Y024480D01*
X019097Y024244D01*
X019097Y024273D02*
X019127Y024273D01*
X019097Y024322D02*
X019175Y024322D01*
X019224Y024370D02*
X019097Y024370D01*
X019097Y024419D02*
X019272Y024419D01*
X019321Y024467D02*
X019097Y024467D01*
X022435Y027153D02*
X022435Y027603D01*
X022661Y027603D01*
X022736Y027528D01*
X022736Y027378D01*
X022661Y027303D01*
X022435Y027303D01*
X022586Y027303D02*
X022736Y027153D01*
X022896Y027153D02*
X023196Y027153D01*
X023046Y027153D02*
X023046Y027603D01*
X022896Y027453D01*
X023420Y027209D02*
X023645Y027209D01*
X023720Y027134D01*
X023720Y026984D01*
X023645Y026909D01*
X023420Y026909D01*
X023570Y026909D02*
X023720Y026759D01*
X023880Y026759D02*
X024180Y027059D01*
X024180Y027134D01*
X024105Y027209D01*
X023955Y027209D01*
X023880Y027134D01*
X023880Y026759D02*
X024180Y026759D01*
X024412Y026720D02*
X024412Y026897D01*
X024590Y026897D01*
X023983Y026540D02*
X023683Y026540D01*
X023683Y026315D01*
X023833Y026390D01*
X023908Y026390D01*
X023983Y026315D01*
X023983Y026165D01*
X023908Y026090D01*
X023758Y026090D01*
X023683Y026165D01*
X023523Y026090D02*
X023373Y026240D01*
X023448Y026240D02*
X023223Y026240D01*
X023223Y026090D02*
X023223Y026540D01*
X023448Y026540D01*
X023523Y026465D01*
X023523Y026315D01*
X023448Y026240D01*
X023420Y026759D02*
X023420Y027209D01*
X023633Y028649D02*
X023633Y029099D01*
X023408Y028874D01*
X023708Y028874D01*
X023247Y029024D02*
X023172Y029099D01*
X023022Y029099D01*
X022947Y029024D01*
X022947Y028724D01*
X023022Y028649D01*
X023172Y028649D01*
X023247Y028724D01*
X022779Y028621D02*
X022329Y028621D01*
X022329Y028846D01*
X022404Y028921D01*
X022554Y028921D01*
X022629Y028846D01*
X022629Y028621D01*
X022629Y028771D02*
X022779Y028921D01*
X022704Y029081D02*
X022779Y029157D01*
X022779Y029307D01*
X022704Y029382D01*
X022629Y029382D01*
X022554Y029307D01*
X022554Y029232D01*
X022554Y029307D02*
X022479Y029382D01*
X022404Y029382D01*
X022329Y029307D01*
X022329Y029157D01*
X022404Y029081D01*
X022471Y030538D02*
X022621Y030538D01*
X022696Y030613D01*
X022856Y030613D02*
X022931Y030538D01*
X023082Y030538D01*
X023157Y030613D01*
X023157Y030689D01*
X023082Y030764D01*
X023007Y030764D01*
X023082Y030764D02*
X023157Y030839D01*
X023157Y030914D01*
X023082Y030989D01*
X022931Y030989D01*
X022856Y030914D01*
X022696Y030914D02*
X022621Y030989D01*
X022471Y030989D01*
X022396Y030914D01*
X022396Y030613D01*
X022471Y030538D01*
X022503Y032096D02*
X022267Y032096D01*
X022267Y032332D01*
X022503Y032096D01*
X022468Y032130D02*
X022267Y032130D01*
X022267Y032179D02*
X022420Y032179D01*
X022371Y032227D02*
X022267Y032227D01*
X022267Y032276D02*
X022323Y032276D01*
X022274Y032324D02*
X022267Y032324D01*
X021601Y032980D02*
X021365Y032980D01*
X021365Y032744D01*
X021601Y032980D01*
X021576Y032955D02*
X021365Y032955D01*
X021365Y032906D02*
X021528Y032906D01*
X021479Y032858D02*
X021365Y032858D01*
X021365Y032809D02*
X021431Y032809D01*
X021382Y032761D02*
X021365Y032761D01*
X020334Y032980D02*
X020097Y032980D01*
X020097Y032744D01*
X020334Y032980D01*
X020308Y032955D02*
X020097Y032955D01*
X020097Y032906D02*
X020260Y032906D01*
X020211Y032858D02*
X020097Y032858D01*
X020097Y032809D02*
X020163Y032809D01*
X020114Y032761D02*
X020097Y032761D01*
X019424Y031068D02*
X019424Y030617D01*
X019274Y030617D02*
X019574Y030617D01*
X019274Y030917D02*
X019424Y031068D01*
X019114Y030992D02*
X019039Y031068D01*
X018888Y031068D01*
X018813Y030992D01*
X018813Y030692D01*
X018888Y030617D01*
X019039Y030617D01*
X019114Y030692D01*
X019429Y029611D02*
X019879Y029611D01*
X019879Y029461D02*
X019879Y029761D01*
X019579Y029461D02*
X019429Y029611D01*
X019504Y029301D02*
X019429Y029226D01*
X019429Y029076D01*
X019504Y029001D01*
X019804Y029001D01*
X019879Y029076D01*
X019879Y029226D01*
X019804Y029301D01*
X019879Y028844D02*
X019879Y028694D01*
X019879Y028769D02*
X019429Y028769D01*
X019429Y028694D02*
X019429Y028844D01*
X017924Y029818D02*
X017624Y029818D01*
X017924Y030118D01*
X017924Y030193D01*
X017849Y030268D01*
X017699Y030268D01*
X017624Y030193D01*
X017464Y030193D02*
X017389Y030268D01*
X017239Y030268D01*
X017164Y030193D01*
X017164Y029893D01*
X017239Y029818D01*
X017389Y029818D01*
X017464Y029893D01*
X017007Y029818D02*
X016857Y029818D01*
X016932Y029818D02*
X016932Y030268D01*
X016857Y030268D02*
X017007Y030268D01*
X016959Y030460D02*
X017109Y030460D01*
X017184Y030535D01*
X017345Y030535D02*
X017420Y030460D01*
X017570Y030460D01*
X017645Y030535D01*
X017645Y030685D01*
X017570Y030760D01*
X017495Y030760D01*
X017345Y030685D01*
X017345Y030910D01*
X017645Y030910D01*
X017184Y030835D02*
X017109Y030910D01*
X016959Y030910D01*
X016884Y030835D01*
X016884Y030535D01*
X016959Y030460D01*
X014889Y030613D02*
X014814Y030538D01*
X014664Y030538D01*
X014589Y030613D01*
X014429Y030613D02*
X014353Y030538D01*
X014203Y030538D01*
X014128Y030613D01*
X014128Y030914D01*
X014203Y030989D01*
X014353Y030989D01*
X014429Y030914D01*
X014589Y030914D02*
X014664Y030989D01*
X014814Y030989D01*
X014889Y030914D01*
X014889Y030839D01*
X014814Y030764D01*
X014889Y030689D01*
X014889Y030613D01*
X014814Y030764D02*
X014739Y030764D01*
X014235Y032096D02*
X013999Y032096D01*
X013999Y032332D01*
X014235Y032096D01*
X014201Y032130D02*
X013999Y032130D01*
X013999Y032179D02*
X014152Y032179D01*
X014104Y032227D02*
X013999Y032227D01*
X013999Y032276D02*
X014055Y032276D01*
X014007Y032324D02*
X013999Y032324D01*
X013334Y032980D02*
X013097Y032980D01*
X013097Y032744D01*
X013334Y032980D01*
X013308Y032955D02*
X013097Y032955D01*
X013097Y032906D02*
X013260Y032906D01*
X013211Y032858D02*
X013097Y032858D01*
X013097Y032809D02*
X013163Y032809D01*
X013114Y032761D02*
X013097Y032761D01*
X012066Y032980D02*
X011830Y032980D01*
X011830Y032744D01*
X012066Y032980D01*
X012041Y032955D02*
X011830Y032955D01*
X011830Y032906D02*
X011992Y032906D01*
X011944Y032858D02*
X011830Y032858D01*
X011830Y032809D02*
X011895Y032809D01*
X011847Y032761D02*
X011830Y032761D01*
X011156Y031068D02*
X011156Y030617D01*
X011006Y030617D02*
X011306Y030617D01*
X011006Y030917D02*
X011156Y031068D01*
X010846Y030992D02*
X010771Y031068D01*
X010621Y031068D01*
X010546Y030992D01*
X010546Y030692D01*
X010621Y030617D01*
X010771Y030617D01*
X010846Y030692D01*
X011161Y029611D02*
X011612Y029611D01*
X011612Y029461D02*
X011612Y029761D01*
X011312Y029461D02*
X011161Y029611D01*
X011236Y029301D02*
X011161Y029226D01*
X011161Y029076D01*
X011236Y029001D01*
X011537Y029001D01*
X011612Y029076D01*
X011612Y029226D01*
X011537Y029301D01*
X011612Y028844D02*
X011612Y028694D01*
X011612Y028769D02*
X011161Y028769D01*
X011161Y028694D02*
X011161Y028844D01*
X009771Y028283D02*
X009471Y028283D01*
X009696Y028508D01*
X009696Y028058D01*
X009310Y028058D02*
X009160Y028208D01*
X009235Y028208D02*
X009010Y028208D01*
X009010Y028058D02*
X009010Y028508D01*
X009235Y028508D01*
X009310Y028433D01*
X009310Y028283D01*
X009235Y028208D01*
X008786Y028202D02*
X008738Y028202D01*
X008786Y028250D02*
X008689Y028250D01*
X008641Y028299D02*
X008786Y028299D01*
X008786Y028347D02*
X008592Y028347D01*
X008550Y028389D02*
X008786Y028389D01*
X008786Y028153D01*
X008786Y028153D01*
X008550Y028389D01*
X008589Y029818D02*
X008739Y029818D01*
X008664Y029818D02*
X008664Y030268D01*
X008589Y030268D02*
X008739Y030268D01*
X008896Y030193D02*
X008896Y029893D01*
X008971Y029818D01*
X009121Y029818D01*
X009196Y029893D01*
X009356Y029818D02*
X009657Y030118D01*
X009657Y030193D01*
X009581Y030268D01*
X009431Y030268D01*
X009356Y030193D01*
X009196Y030193D02*
X009121Y030268D01*
X008971Y030268D01*
X008896Y030193D01*
X008842Y030460D02*
X008692Y030460D01*
X008616Y030535D01*
X008616Y030835D01*
X008692Y030910D01*
X008842Y030910D01*
X008917Y030835D01*
X009077Y030910D02*
X009077Y030685D01*
X009227Y030760D01*
X009302Y030760D01*
X009377Y030685D01*
X009377Y030535D01*
X009302Y030460D01*
X009152Y030460D01*
X009077Y030535D01*
X008917Y030535D02*
X008842Y030460D01*
X009077Y030910D02*
X009377Y030910D01*
X009356Y029818D02*
X009657Y029818D01*
X009629Y026897D02*
X009806Y026897D01*
X009806Y026720D01*
X005066Y020696D02*
X004830Y020696D01*
X004830Y020460D01*
X005066Y020696D01*
X005054Y020684D02*
X004830Y020684D01*
X004830Y020636D02*
X005005Y020636D01*
X004957Y020587D02*
X004830Y020587D01*
X004830Y020539D02*
X004908Y020539D01*
X004860Y020490D02*
X004830Y020490D01*
X005731Y020048D02*
X005731Y019812D01*
X005967Y019812D01*
X005731Y020048D01*
X005731Y020005D02*
X005774Y020005D01*
X005731Y019957D02*
X005823Y019957D01*
X005871Y019908D02*
X005731Y019908D01*
X005731Y019860D02*
X005920Y019860D01*
X005936Y018705D02*
X005861Y018630D01*
X005861Y018330D01*
X005936Y018255D01*
X006086Y018255D01*
X006161Y018330D01*
X006321Y018330D02*
X006396Y018255D01*
X006546Y018255D01*
X006621Y018330D01*
X006621Y018405D01*
X006546Y018480D01*
X006471Y018480D01*
X006546Y018480D02*
X006621Y018555D01*
X006621Y018630D01*
X006546Y018705D01*
X006396Y018705D01*
X006321Y018630D01*
X006161Y018630D02*
X006086Y018705D01*
X005936Y018705D01*
X005943Y017098D02*
X006018Y017023D01*
X006094Y017098D01*
X006169Y017098D01*
X006244Y017023D01*
X006244Y016873D01*
X006169Y016798D01*
X006244Y016638D02*
X006094Y016488D01*
X006094Y016563D02*
X006094Y016338D01*
X006244Y016338D02*
X005793Y016338D01*
X005793Y016563D01*
X005868Y016638D01*
X006018Y016638D01*
X006094Y016563D01*
X005868Y016798D02*
X005793Y016873D01*
X005793Y017023D01*
X005868Y017098D01*
X005943Y017098D01*
X006018Y017023D02*
X006018Y016948D01*
X006412Y016740D02*
X006412Y016440D01*
X006487Y016365D01*
X006637Y016365D01*
X006712Y016440D01*
X006872Y016590D02*
X007097Y016816D01*
X007097Y016365D01*
X007172Y016590D02*
X006872Y016590D01*
X006712Y016740D02*
X006637Y016816D01*
X006487Y016816D01*
X006412Y016740D01*
X006510Y015319D02*
X006510Y014869D01*
X006360Y014869D02*
X006661Y014869D01*
X006884Y014926D02*
X006884Y014475D01*
X006884Y014626D02*
X007109Y014626D01*
X007184Y014701D01*
X007184Y014851D01*
X007109Y014926D01*
X006884Y014926D01*
X007034Y014626D02*
X007184Y014475D01*
X007345Y014475D02*
X007645Y014776D01*
X007645Y014851D01*
X007570Y014926D01*
X007420Y014926D01*
X007345Y014851D01*
X007345Y014475D02*
X007645Y014475D01*
X007877Y014437D02*
X007877Y014614D01*
X008054Y014614D01*
X007448Y014256D02*
X007148Y014256D01*
X007148Y014031D01*
X007298Y014106D01*
X007373Y014106D01*
X007448Y014031D01*
X007448Y013881D01*
X007373Y013806D01*
X007223Y013806D01*
X007148Y013881D01*
X006988Y013806D02*
X006837Y013956D01*
X006913Y013956D02*
X006687Y013956D01*
X006687Y013806D02*
X006687Y014256D01*
X006913Y014256D01*
X006988Y014181D01*
X006988Y014031D01*
X006913Y013956D01*
X006200Y014869D02*
X006050Y015019D01*
X006125Y015019D02*
X005900Y015019D01*
X005900Y014869D02*
X005900Y015319D01*
X006125Y015319D01*
X006200Y015244D01*
X006200Y015094D01*
X006125Y015019D01*
X006360Y015169D02*
X006510Y015319D01*
X008550Y016106D02*
X008786Y016106D01*
X008786Y015870D01*
X008550Y016106D01*
X008579Y016077D02*
X008786Y016077D01*
X008786Y016028D02*
X008628Y016028D01*
X008676Y015980D02*
X008786Y015980D01*
X008786Y015931D02*
X008725Y015931D01*
X008773Y015883D02*
X008786Y015883D01*
X009010Y015925D02*
X009235Y015925D01*
X009310Y016000D01*
X009310Y016150D01*
X009235Y016225D01*
X009010Y016225D01*
X009010Y015775D01*
X009160Y015925D02*
X009310Y015775D01*
X009471Y016000D02*
X009771Y016000D01*
X009696Y015775D02*
X009696Y016225D01*
X009471Y016000D01*
X009629Y014614D02*
X009806Y014614D01*
X009806Y014437D01*
X009806Y012862D02*
X009806Y012685D01*
X009629Y012685D01*
X009693Y012471D02*
X009693Y012096D01*
X009768Y012021D01*
X009918Y012021D01*
X009994Y012096D01*
X009994Y012471D01*
X010154Y012321D02*
X010304Y012471D01*
X010304Y012021D01*
X010154Y012021D02*
X010454Y012021D01*
X010830Y012003D02*
X010872Y012003D01*
X010830Y011960D02*
X010830Y012196D01*
X011066Y012196D01*
X010830Y011960D01*
X010830Y012051D02*
X010921Y012051D01*
X010969Y012100D02*
X010830Y012100D01*
X010830Y012148D02*
X011018Y012148D01*
X010283Y011619D02*
X010133Y011544D01*
X009982Y011393D01*
X010208Y011393D01*
X010283Y011318D01*
X010283Y011243D01*
X010208Y011168D01*
X010057Y011168D01*
X009982Y011243D01*
X009982Y011393D01*
X009822Y011243D02*
X009747Y011168D01*
X009597Y011168D01*
X009522Y011243D01*
X009522Y011544D01*
X009597Y011619D01*
X009747Y011619D01*
X009822Y011544D01*
X009145Y010713D02*
X008994Y010713D01*
X008919Y010638D01*
X008759Y010638D02*
X008684Y010713D01*
X008534Y010713D01*
X008459Y010638D01*
X008459Y010338D01*
X008534Y010263D01*
X008684Y010263D01*
X008759Y010338D01*
X008919Y010263D02*
X009220Y010563D01*
X009220Y010638D01*
X009145Y010713D01*
X009220Y010263D02*
X008919Y010263D01*
X008263Y009733D02*
X007962Y009432D01*
X008038Y009357D01*
X008188Y009357D01*
X008263Y009432D01*
X008263Y009733D01*
X008188Y009808D01*
X008038Y009808D01*
X007962Y009733D01*
X007962Y009432D01*
X007802Y009357D02*
X007502Y009357D01*
X007652Y009357D02*
X007652Y009808D01*
X007502Y009658D01*
X007342Y009733D02*
X007342Y009582D01*
X007267Y009507D01*
X007042Y009507D01*
X007042Y009357D02*
X007042Y009808D01*
X007267Y009808D01*
X007342Y009733D01*
X007380Y009948D02*
X007530Y009948D01*
X007605Y010023D01*
X007605Y010323D01*
X007530Y010398D01*
X007380Y010398D01*
X007305Y010323D01*
X007305Y010248D01*
X007380Y010173D01*
X007605Y010173D01*
X007380Y009948D02*
X007305Y010023D01*
X007145Y009948D02*
X006995Y010098D01*
X007070Y010098D02*
X006845Y010098D01*
X006845Y009948D02*
X006845Y010398D01*
X007070Y010398D01*
X007145Y010323D01*
X007145Y010173D01*
X007070Y010098D01*
X007192Y009507D02*
X007342Y009357D01*
X007420Y010853D02*
X007345Y010928D01*
X007345Y011003D01*
X007420Y011079D01*
X007570Y011079D01*
X007645Y011003D01*
X007645Y010928D01*
X007570Y010853D01*
X007420Y010853D01*
X007420Y011079D02*
X007345Y011154D01*
X007345Y011229D01*
X007420Y011304D01*
X007570Y011304D01*
X007645Y011229D01*
X007645Y011154D01*
X007570Y011079D01*
X007184Y011079D02*
X007184Y011229D01*
X007109Y011304D01*
X006884Y011304D01*
X006884Y010853D01*
X006884Y011003D02*
X007109Y011003D01*
X007184Y011079D01*
X007034Y011003D02*
X007184Y010853D01*
X007145Y011798D02*
X006995Y011948D01*
X007070Y011948D02*
X006845Y011948D01*
X006845Y011798D02*
X006845Y012249D01*
X007070Y012249D01*
X007145Y012174D01*
X007145Y012023D01*
X007070Y011948D01*
X007305Y011873D02*
X007305Y011798D01*
X007305Y011873D02*
X007605Y012174D01*
X007605Y012249D01*
X007305Y012249D01*
X007137Y012507D02*
X007212Y012582D01*
X007212Y012657D01*
X007137Y012732D01*
X006912Y012732D01*
X006912Y012582D01*
X006987Y012507D01*
X007137Y012507D01*
X006912Y012732D02*
X007062Y012882D01*
X007212Y012957D01*
X007877Y012862D02*
X007877Y012685D01*
X008054Y012685D01*
X006751Y012732D02*
X006676Y012657D01*
X006451Y012657D01*
X006451Y012507D02*
X006451Y012957D01*
X006676Y012957D01*
X006751Y012882D01*
X006751Y012732D01*
X006601Y012657D02*
X006751Y012507D01*
X011161Y016410D02*
X011161Y016561D01*
X011161Y016485D02*
X011612Y016485D01*
X011612Y016410D02*
X011612Y016561D01*
X011537Y016717D02*
X011612Y016792D01*
X011612Y016943D01*
X011537Y017018D01*
X011612Y017178D02*
X011612Y017478D01*
X011612Y017328D02*
X011161Y017328D01*
X011312Y017178D01*
X011236Y017018D02*
X011161Y016943D01*
X011161Y016792D01*
X011236Y016717D01*
X011537Y016717D01*
X011306Y018334D02*
X011006Y018334D01*
X011156Y018334D02*
X011156Y018784D01*
X011006Y018634D01*
X010846Y018709D02*
X010771Y018784D01*
X010621Y018784D01*
X010546Y018709D01*
X010546Y018409D01*
X010621Y018334D01*
X010771Y018334D01*
X010846Y018409D01*
X009657Y017910D02*
X009581Y017985D01*
X009431Y017985D01*
X009356Y017910D01*
X009196Y017910D02*
X009121Y017985D01*
X008971Y017985D01*
X008896Y017910D01*
X008896Y017610D01*
X008971Y017534D01*
X009121Y017534D01*
X009196Y017610D01*
X009356Y017534D02*
X009657Y017835D01*
X009657Y017910D01*
X009657Y017534D02*
X009356Y017534D01*
X008739Y017534D02*
X008589Y017534D01*
X008664Y017534D02*
X008664Y017985D01*
X008589Y017985D02*
X008739Y017985D01*
X008692Y018176D02*
X008842Y018176D01*
X008917Y018251D01*
X009077Y018251D02*
X009152Y018176D01*
X009302Y018176D01*
X009377Y018251D01*
X009377Y018401D01*
X009302Y018476D01*
X009227Y018476D01*
X009077Y018401D01*
X009077Y018627D01*
X009377Y018627D01*
X008917Y018552D02*
X008842Y018627D01*
X008692Y018627D01*
X008616Y018552D01*
X008616Y018251D01*
X008692Y018176D01*
X022987Y012957D02*
X022987Y012507D01*
X022987Y012657D02*
X023212Y012657D01*
X023287Y012732D01*
X023287Y012882D01*
X023212Y012957D01*
X022987Y012957D01*
X023137Y012657D02*
X023287Y012507D01*
X023447Y012582D02*
X023522Y012507D01*
X023672Y012507D01*
X023747Y012582D01*
X023747Y012657D01*
X023672Y012732D01*
X023447Y012732D01*
X023447Y012582D01*
X023447Y012732D02*
X023597Y012882D01*
X023747Y012957D01*
X024412Y012862D02*
X024412Y012685D01*
X024590Y012685D01*
X024141Y012249D02*
X024141Y012174D01*
X023841Y011873D01*
X023841Y011798D01*
X023681Y011798D02*
X023530Y011948D01*
X023605Y011948D02*
X023380Y011948D01*
X023380Y011798D02*
X023380Y012249D01*
X023605Y012249D01*
X023681Y012174D01*
X023681Y012023D01*
X023605Y011948D01*
X023841Y012249D02*
X024141Y012249D01*
X024105Y011304D02*
X024180Y011229D01*
X024180Y011154D01*
X024105Y011079D01*
X023955Y011079D01*
X023880Y011154D01*
X023880Y011229D01*
X023955Y011304D01*
X024105Y011304D01*
X024105Y011079D02*
X024180Y011003D01*
X024180Y010928D01*
X024105Y010853D01*
X023955Y010853D01*
X023880Y010928D01*
X023880Y011003D01*
X023955Y011079D01*
X023720Y011079D02*
X023720Y011229D01*
X023645Y011304D01*
X023420Y011304D01*
X023420Y010853D01*
X023420Y011003D02*
X023645Y011003D01*
X023720Y011079D01*
X023570Y011003D02*
X023720Y010853D01*
X023605Y010398D02*
X023380Y010398D01*
X023380Y009948D01*
X023380Y010098D02*
X023605Y010098D01*
X023681Y010173D01*
X023681Y010323D01*
X023605Y010398D01*
X023841Y010323D02*
X023841Y010248D01*
X023916Y010173D01*
X024141Y010173D01*
X024141Y010023D02*
X024141Y010323D01*
X024066Y010398D01*
X023916Y010398D01*
X023841Y010323D01*
X023841Y010023D02*
X023916Y009948D01*
X024066Y009948D01*
X024141Y010023D01*
X024188Y009808D02*
X024188Y009357D01*
X024038Y009357D02*
X024338Y009357D01*
X024498Y009432D02*
X024798Y009733D01*
X024798Y009432D01*
X024723Y009357D01*
X024573Y009357D01*
X024498Y009432D01*
X024498Y009733D01*
X024573Y009808D01*
X024723Y009808D01*
X024798Y009733D01*
X025070Y010263D02*
X024994Y010338D01*
X024994Y010638D01*
X025070Y010713D01*
X025220Y010713D01*
X025295Y010638D01*
X025455Y010638D02*
X025530Y010713D01*
X025680Y010713D01*
X025755Y010638D01*
X025755Y010563D01*
X025455Y010263D01*
X025755Y010263D01*
X025295Y010338D02*
X025220Y010263D01*
X025070Y010263D01*
X026057Y011243D02*
X026133Y011168D01*
X026283Y011168D01*
X026358Y011243D01*
X026518Y011243D02*
X026593Y011168D01*
X026743Y011168D01*
X026818Y011243D01*
X026818Y011318D01*
X026743Y011393D01*
X026518Y011393D01*
X026518Y011243D01*
X026518Y011393D02*
X026668Y011544D01*
X026818Y011619D01*
X026839Y012021D02*
X026839Y012471D01*
X026689Y012321D01*
X026529Y012471D02*
X026529Y012096D01*
X026454Y012021D01*
X026304Y012021D01*
X026229Y012096D01*
X026229Y012471D01*
X026164Y012685D02*
X026341Y012685D01*
X026341Y012862D01*
X026689Y012021D02*
X026989Y012021D01*
X027365Y012003D02*
X027408Y012003D01*
X027365Y011960D02*
X027365Y012196D01*
X027601Y012196D01*
X027365Y011960D01*
X027365Y012051D02*
X027456Y012051D01*
X027505Y012100D02*
X027365Y012100D01*
X027365Y012148D02*
X027553Y012148D01*
X026358Y011544D02*
X026283Y011619D01*
X026133Y011619D01*
X026057Y011544D01*
X026057Y011243D01*
X024188Y009808D02*
X024038Y009658D01*
X023877Y009733D02*
X023877Y009582D01*
X023802Y009507D01*
X023577Y009507D01*
X023577Y009357D02*
X023577Y009808D01*
X023802Y009808D01*
X023877Y009733D01*
X023727Y009507D02*
X023877Y009357D01*
X023681Y009948D02*
X023530Y010098D01*
X026341Y014437D02*
X026341Y014614D01*
X026164Y014614D01*
X026231Y015775D02*
X026231Y016225D01*
X026006Y016000D01*
X026306Y016000D01*
X025846Y016000D02*
X025771Y015925D01*
X025546Y015925D01*
X025696Y015925D02*
X025846Y015775D01*
X025846Y016000D02*
X025846Y016150D01*
X025771Y016225D01*
X025546Y016225D01*
X025546Y015775D01*
X025322Y015870D02*
X025322Y016106D01*
X025086Y016106D01*
X025322Y015870D01*
X025322Y015883D02*
X025309Y015883D01*
X025322Y015931D02*
X025260Y015931D01*
X025212Y015980D02*
X025322Y015980D01*
X025322Y016028D02*
X025163Y016028D01*
X025115Y016077D02*
X025322Y016077D01*
X025274Y017534D02*
X025124Y017534D01*
X025199Y017534D02*
X025199Y017985D01*
X025124Y017985D02*
X025274Y017985D01*
X025431Y017910D02*
X025431Y017610D01*
X025506Y017534D01*
X025656Y017534D01*
X025732Y017610D01*
X025892Y017534D02*
X026192Y017835D01*
X026192Y017910D01*
X026117Y017985D01*
X025967Y017985D01*
X025892Y017910D01*
X025732Y017910D02*
X025656Y017985D01*
X025506Y017985D01*
X025431Y017910D01*
X025377Y018176D02*
X025452Y018251D01*
X025377Y018176D02*
X025227Y018176D01*
X025152Y018251D01*
X025152Y018552D01*
X025227Y018627D01*
X025377Y018627D01*
X025452Y018552D01*
X025612Y018627D02*
X025612Y018401D01*
X025762Y018476D01*
X025838Y018476D01*
X025913Y018401D01*
X025913Y018251D01*
X025838Y018176D01*
X025687Y018176D01*
X025612Y018251D01*
X025612Y018627D02*
X025913Y018627D01*
X025892Y017534D02*
X026192Y017534D01*
X027081Y018409D02*
X027156Y018334D01*
X027306Y018334D01*
X027381Y018409D01*
X027541Y018334D02*
X027842Y018334D01*
X027692Y018334D02*
X027692Y018784D01*
X027541Y018634D01*
X027381Y018709D02*
X027306Y018784D01*
X027156Y018784D01*
X027081Y018709D01*
X027081Y018409D01*
X027697Y017328D02*
X028147Y017328D01*
X028147Y017178D02*
X028147Y017478D01*
X027847Y017178D02*
X027697Y017328D01*
X027772Y017018D02*
X027697Y016943D01*
X027697Y016792D01*
X027772Y016717D01*
X028072Y016717D01*
X028147Y016792D01*
X028147Y016943D01*
X028072Y017018D01*
X028147Y016561D02*
X028147Y016410D01*
X028147Y016485D02*
X027697Y016485D01*
X027697Y016410D02*
X027697Y016561D01*
X030596Y016563D02*
X030596Y016338D01*
X031047Y016338D01*
X030897Y016338D02*
X030897Y016563D01*
X030822Y016638D01*
X030671Y016638D01*
X030596Y016563D01*
X030671Y016798D02*
X030596Y016873D01*
X030596Y017023D01*
X030671Y017098D01*
X030747Y017098D01*
X030822Y017023D01*
X030897Y017098D01*
X030972Y017098D01*
X031047Y017023D01*
X031047Y016873D01*
X030972Y016798D01*
X031047Y016638D02*
X030897Y016488D01*
X031215Y016440D02*
X031290Y016365D01*
X031440Y016365D01*
X031515Y016440D01*
X031675Y016590D02*
X031976Y016590D01*
X031901Y016365D02*
X031901Y016816D01*
X031675Y016590D01*
X031515Y016740D02*
X031440Y016816D01*
X031290Y016816D01*
X031215Y016740D01*
X031215Y016440D01*
X030822Y016948D02*
X030822Y017023D01*
X030889Y018255D02*
X030964Y018330D01*
X030889Y018255D02*
X030739Y018255D01*
X030664Y018330D01*
X030664Y018630D01*
X030739Y018705D01*
X030889Y018705D01*
X030964Y018630D01*
X031124Y018630D02*
X031199Y018705D01*
X031349Y018705D01*
X031424Y018630D01*
X031424Y018555D01*
X031349Y018480D01*
X031424Y018405D01*
X031424Y018330D01*
X031349Y018255D01*
X031199Y018255D01*
X031124Y018330D01*
X031274Y018480D02*
X031349Y018480D01*
X030771Y019812D02*
X030534Y019812D01*
X030534Y020048D01*
X030771Y019812D01*
X030723Y019860D02*
X030534Y019860D01*
X030534Y019908D02*
X030675Y019908D01*
X030626Y019957D02*
X030534Y019957D01*
X030534Y020005D02*
X030578Y020005D01*
X029869Y020696D02*
X029633Y020696D01*
X029633Y020460D01*
X029869Y020696D01*
X029857Y020684D02*
X029633Y020684D01*
X029633Y020636D02*
X029808Y020636D01*
X029760Y020587D02*
X029633Y020587D01*
X029633Y020539D02*
X029711Y020539D01*
X029663Y020490D02*
X029633Y020490D01*
X028601Y020696D02*
X028365Y020460D01*
X028365Y020696D01*
X028601Y020696D01*
X028589Y020684D02*
X028365Y020684D01*
X028365Y020636D02*
X028541Y020636D01*
X028492Y020587D02*
X028365Y020587D01*
X028365Y020539D02*
X028444Y020539D01*
X028395Y020490D02*
X028365Y020490D01*
X025755Y022546D02*
X025455Y022546D01*
X025755Y022847D01*
X025755Y022922D01*
X025680Y022997D01*
X025530Y022997D01*
X025455Y022922D01*
X025295Y022922D02*
X025220Y022997D01*
X025070Y022997D01*
X024994Y022922D01*
X024994Y022621D01*
X025070Y022546D01*
X025220Y022546D01*
X025295Y022621D01*
X024723Y022091D02*
X024798Y022016D01*
X024498Y021716D01*
X024573Y021641D01*
X024723Y021641D01*
X024798Y021716D01*
X024798Y022016D01*
X024723Y022091D02*
X024573Y022091D01*
X024498Y022016D01*
X024498Y021716D01*
X024338Y021641D02*
X024038Y021641D01*
X024188Y021641D02*
X024188Y022091D01*
X024038Y021941D01*
X023877Y021866D02*
X023802Y021791D01*
X023577Y021791D01*
X023727Y021791D02*
X023877Y021641D01*
X023877Y021866D02*
X023877Y022016D01*
X023802Y022091D01*
X023577Y022091D01*
X023577Y021641D01*
X023681Y022231D02*
X023530Y022381D01*
X023605Y022381D02*
X023380Y022381D01*
X023380Y022231D02*
X023380Y022682D01*
X023605Y022682D01*
X023681Y022607D01*
X023681Y022456D01*
X023605Y022381D01*
X023841Y022306D02*
X023916Y022231D01*
X024066Y022231D01*
X024141Y022306D01*
X024141Y022607D01*
X024066Y022682D01*
X023916Y022682D01*
X023841Y022607D01*
X023841Y022532D01*
X023916Y022456D01*
X024141Y022456D01*
X024105Y023137D02*
X023955Y023137D01*
X023880Y023212D01*
X023880Y023287D01*
X023955Y023362D01*
X024105Y023362D01*
X024180Y023287D01*
X024180Y023212D01*
X024105Y023137D01*
X024105Y023362D02*
X024180Y023437D01*
X024180Y023512D01*
X024105Y023587D01*
X023955Y023587D01*
X023880Y023512D01*
X023880Y023437D01*
X023955Y023362D01*
X023720Y023362D02*
X023720Y023512D01*
X023645Y023587D01*
X023420Y023587D01*
X023420Y023137D01*
X023420Y023287D02*
X023645Y023287D01*
X023720Y023362D01*
X023570Y023287D02*
X023720Y023137D01*
X023681Y024082D02*
X023530Y024232D01*
X023605Y024232D02*
X023380Y024232D01*
X023380Y024082D02*
X023380Y024532D01*
X023605Y024532D01*
X023681Y024457D01*
X023681Y024307D01*
X023605Y024232D01*
X023841Y024157D02*
X023841Y024082D01*
X023841Y024157D02*
X024141Y024457D01*
X024141Y024532D01*
X023841Y024532D01*
X023672Y024790D02*
X023747Y024865D01*
X023747Y024940D01*
X023672Y025016D01*
X023447Y025016D01*
X023447Y024865D01*
X023522Y024790D01*
X023672Y024790D01*
X023447Y025016D02*
X023597Y025166D01*
X023747Y025241D01*
X023287Y025166D02*
X023287Y025016D01*
X023212Y024940D01*
X022987Y024940D01*
X022987Y024790D02*
X022987Y025241D01*
X023212Y025241D01*
X023287Y025166D01*
X023137Y024940D02*
X023287Y024790D01*
X024412Y024968D02*
X024590Y024968D01*
X024412Y024968D02*
X024412Y025145D01*
X026164Y024968D02*
X026341Y024968D01*
X026341Y025145D01*
X026229Y024755D02*
X026229Y024379D01*
X026304Y024304D01*
X026454Y024304D01*
X026529Y024379D01*
X026529Y024755D01*
X026689Y024604D02*
X026839Y024755D01*
X026839Y024304D01*
X026689Y024304D02*
X026989Y024304D01*
X027365Y024322D02*
X027443Y024322D01*
X027492Y024370D02*
X027365Y024370D01*
X027365Y024419D02*
X027540Y024419D01*
X027589Y024467D02*
X027365Y024467D01*
X027365Y024480D02*
X027601Y024480D01*
X027365Y024244D01*
X027365Y024480D01*
X027365Y024273D02*
X027395Y024273D01*
X026818Y023902D02*
X026668Y023827D01*
X026518Y023677D01*
X026743Y023677D01*
X026818Y023602D01*
X026818Y023527D01*
X026743Y023452D01*
X026593Y023452D01*
X026518Y023527D01*
X026518Y023677D01*
X026358Y023827D02*
X026283Y023902D01*
X026133Y023902D01*
X026057Y023827D01*
X026057Y023527D01*
X026133Y023452D01*
X026283Y023452D01*
X026358Y023527D01*
X026341Y026720D02*
X026341Y026897D01*
X026164Y026897D01*
X026231Y028058D02*
X026231Y028508D01*
X026006Y028283D01*
X026306Y028283D01*
X025846Y028283D02*
X025771Y028208D01*
X025546Y028208D01*
X025696Y028208D02*
X025846Y028058D01*
X025846Y028283D02*
X025846Y028433D01*
X025771Y028508D01*
X025546Y028508D01*
X025546Y028058D01*
X025322Y028153D02*
X025322Y028389D01*
X025086Y028389D01*
X025322Y028153D01*
X025322Y028153D01*
X025322Y028202D02*
X025273Y028202D01*
X025225Y028250D02*
X025322Y028250D01*
X025322Y028299D02*
X025176Y028299D01*
X025128Y028347D02*
X025322Y028347D01*
X025274Y029818D02*
X025124Y029818D01*
X025199Y029818D02*
X025199Y030268D01*
X025124Y030268D02*
X025274Y030268D01*
X025431Y030193D02*
X025431Y029893D01*
X025506Y029818D01*
X025656Y029818D01*
X025732Y029893D01*
X025892Y029818D02*
X026192Y030118D01*
X026192Y030193D01*
X026117Y030268D01*
X025967Y030268D01*
X025892Y030193D01*
X025732Y030193D02*
X025656Y030268D01*
X025506Y030268D01*
X025431Y030193D01*
X025377Y030460D02*
X025452Y030535D01*
X025377Y030460D02*
X025227Y030460D01*
X025152Y030535D01*
X025152Y030835D01*
X025227Y030910D01*
X025377Y030910D01*
X025452Y030835D01*
X025612Y030910D02*
X025612Y030685D01*
X025762Y030760D01*
X025838Y030760D01*
X025913Y030685D01*
X025913Y030535D01*
X025838Y030460D01*
X025687Y030460D01*
X025612Y030535D01*
X025612Y030910D02*
X025913Y030910D01*
X025892Y029818D02*
X026192Y029818D01*
X027081Y030692D02*
X027156Y030617D01*
X027306Y030617D01*
X027381Y030692D01*
X027541Y030617D02*
X027842Y030617D01*
X027692Y030617D02*
X027692Y031068D01*
X027541Y030917D01*
X027381Y030992D02*
X027306Y031068D01*
X027156Y031068D01*
X027081Y030992D01*
X027081Y030692D01*
X027697Y029611D02*
X028147Y029611D01*
X028147Y029461D02*
X028147Y029761D01*
X027847Y029461D02*
X027697Y029611D01*
X027772Y029301D02*
X027697Y029226D01*
X027697Y029076D01*
X027772Y029001D01*
X028072Y029001D01*
X028147Y029076D01*
X028147Y029226D01*
X028072Y029301D01*
X028147Y028844D02*
X028147Y028694D01*
X028147Y028769D02*
X027697Y028769D01*
X027697Y028694D02*
X027697Y028844D01*
X030596Y028846D02*
X030596Y028621D01*
X031047Y028621D01*
X030897Y028621D02*
X030897Y028846D01*
X030822Y028921D01*
X030671Y028921D01*
X030596Y028846D01*
X030671Y029081D02*
X030596Y029157D01*
X030596Y029307D01*
X030671Y029382D01*
X030747Y029382D01*
X030822Y029307D01*
X030897Y029382D01*
X030972Y029382D01*
X031047Y029307D01*
X031047Y029157D01*
X030972Y029081D01*
X031047Y028921D02*
X030897Y028771D01*
X031215Y028724D02*
X031290Y028649D01*
X031440Y028649D01*
X031515Y028724D01*
X031675Y028874D02*
X031976Y028874D01*
X031901Y029099D02*
X031675Y028874D01*
X031515Y029024D02*
X031440Y029099D01*
X031290Y029099D01*
X031215Y029024D01*
X031215Y028724D01*
X030822Y029232D02*
X030822Y029307D01*
X031901Y029099D02*
X031901Y028649D01*
X031314Y027603D02*
X031314Y027153D01*
X031464Y027153D02*
X031163Y027153D01*
X031003Y027153D02*
X030853Y027303D01*
X030928Y027303D02*
X030703Y027303D01*
X030703Y027153D02*
X030703Y027603D01*
X030928Y027603D01*
X031003Y027528D01*
X031003Y027378D01*
X030928Y027303D01*
X031163Y027453D02*
X031314Y027603D01*
X031687Y027209D02*
X031913Y027209D01*
X031988Y027134D01*
X031988Y026984D01*
X031913Y026909D01*
X031687Y026909D01*
X031687Y026759D02*
X031687Y027209D01*
X031837Y026909D02*
X031988Y026759D01*
X032148Y026759D02*
X032448Y027059D01*
X032448Y027134D01*
X032373Y027209D01*
X032223Y027209D01*
X032148Y027134D01*
X032148Y026759D02*
X032448Y026759D01*
X032680Y026720D02*
X032680Y026897D01*
X032857Y026897D01*
X032251Y026540D02*
X031951Y026540D01*
X031951Y026315D01*
X032101Y026390D01*
X032176Y026390D01*
X032251Y026315D01*
X032251Y026165D01*
X032176Y026090D01*
X032026Y026090D01*
X031951Y026165D01*
X031791Y026090D02*
X031641Y026240D01*
X031716Y026240D02*
X031491Y026240D01*
X031491Y026090D02*
X031491Y026540D01*
X031716Y026540D01*
X031791Y026465D01*
X031791Y026315D01*
X031716Y026240D01*
X031479Y025241D02*
X031254Y025241D01*
X031254Y024790D01*
X031254Y024940D02*
X031479Y024940D01*
X031555Y025016D01*
X031555Y025166D01*
X031479Y025241D01*
X031404Y024940D02*
X031555Y024790D01*
X031715Y024865D02*
X031790Y024790D01*
X031940Y024790D01*
X032015Y024865D01*
X032015Y024940D01*
X031940Y025016D01*
X031715Y025016D01*
X031715Y024865D01*
X031715Y025016D02*
X031865Y025166D01*
X032015Y025241D01*
X032680Y025145D02*
X032680Y024968D01*
X032857Y024968D01*
X032409Y024532D02*
X032409Y024457D01*
X032108Y024157D01*
X032108Y024082D01*
X031948Y024082D02*
X031798Y024232D01*
X031873Y024232D02*
X031648Y024232D01*
X031648Y024082D02*
X031648Y024532D01*
X031873Y024532D01*
X031948Y024457D01*
X031948Y024307D01*
X031873Y024232D01*
X032108Y024532D02*
X032409Y024532D01*
X032373Y023587D02*
X032448Y023512D01*
X032448Y023437D01*
X032373Y023362D01*
X032223Y023362D01*
X032148Y023437D01*
X032148Y023512D01*
X032223Y023587D01*
X032373Y023587D01*
X032373Y023362D02*
X032448Y023287D01*
X032448Y023212D01*
X032373Y023137D01*
X032223Y023137D01*
X032148Y023212D01*
X032148Y023287D01*
X032223Y023362D01*
X031988Y023362D02*
X031988Y023512D01*
X031913Y023587D01*
X031687Y023587D01*
X031687Y023137D01*
X031687Y023287D02*
X031913Y023287D01*
X031988Y023362D01*
X031837Y023287D02*
X031988Y023137D01*
X031873Y022682D02*
X031648Y022682D01*
X031648Y022231D01*
X031648Y022381D02*
X031873Y022381D01*
X031948Y022456D01*
X031948Y022607D01*
X031873Y022682D01*
X032108Y022607D02*
X032108Y022532D01*
X032183Y022456D01*
X032409Y022456D01*
X032409Y022306D02*
X032409Y022607D01*
X032334Y022682D01*
X032183Y022682D01*
X032108Y022607D01*
X032108Y022306D02*
X032183Y022231D01*
X032334Y022231D01*
X032409Y022306D01*
X032455Y022091D02*
X032455Y021641D01*
X032305Y021641D02*
X032605Y021641D01*
X032766Y021716D02*
X033066Y022016D01*
X033066Y021716D01*
X032991Y021641D01*
X032841Y021641D01*
X032766Y021716D01*
X032766Y022016D01*
X032841Y022091D01*
X032991Y022091D01*
X033066Y022016D01*
X033337Y022546D02*
X033487Y022546D01*
X033562Y022621D01*
X033723Y022546D02*
X034023Y022847D01*
X034023Y022922D01*
X033948Y022997D01*
X033798Y022997D01*
X033723Y022922D01*
X033562Y022922D02*
X033487Y022997D01*
X033337Y022997D01*
X033262Y022922D01*
X033262Y022621D01*
X033337Y022546D01*
X033723Y022546D02*
X034023Y022546D01*
X034400Y023452D02*
X034550Y023452D01*
X034625Y023527D01*
X034786Y023527D02*
X034861Y023452D01*
X035011Y023452D01*
X035086Y023527D01*
X035086Y023602D01*
X035011Y023677D01*
X034786Y023677D01*
X034786Y023527D01*
X034786Y023677D02*
X034936Y023827D01*
X035086Y023902D01*
X035107Y024304D02*
X035107Y024755D01*
X034957Y024604D01*
X034797Y024755D02*
X034797Y024379D01*
X034722Y024304D01*
X034571Y024304D01*
X034496Y024379D01*
X034496Y024755D01*
X034432Y024968D02*
X034609Y024968D01*
X034609Y025145D01*
X034957Y024304D02*
X035257Y024304D01*
X035633Y024322D02*
X035711Y024322D01*
X035759Y024370D02*
X035633Y024370D01*
X035633Y024419D02*
X035808Y024419D01*
X035856Y024467D02*
X035633Y024467D01*
X035633Y024480D02*
X035869Y024480D01*
X035633Y024244D01*
X035633Y024480D01*
X035633Y024273D02*
X035662Y024273D01*
X034625Y023827D02*
X034550Y023902D01*
X034400Y023902D01*
X034325Y023827D01*
X034325Y023527D01*
X034400Y023452D01*
X032455Y022091D02*
X032305Y021941D01*
X032145Y021866D02*
X032070Y021791D01*
X031845Y021791D01*
X031995Y021791D02*
X032145Y021641D01*
X032145Y021866D02*
X032145Y022016D01*
X032070Y022091D01*
X031845Y022091D01*
X031845Y021641D01*
X031948Y022231D02*
X031798Y022381D01*
X035424Y018784D02*
X035349Y018709D01*
X035349Y018409D01*
X035424Y018334D01*
X035574Y018334D01*
X035649Y018409D01*
X035809Y018334D02*
X036109Y018334D01*
X035959Y018334D02*
X035959Y018784D01*
X035809Y018634D01*
X035649Y018709D02*
X035574Y018784D01*
X035424Y018784D01*
X034460Y017910D02*
X034385Y017985D01*
X034234Y017985D01*
X034159Y017910D01*
X033999Y017910D02*
X033924Y017985D01*
X033774Y017985D01*
X033699Y017910D01*
X033699Y017610D01*
X033774Y017534D01*
X033924Y017534D01*
X033999Y017610D01*
X034159Y017534D02*
X034460Y017835D01*
X034460Y017910D01*
X034460Y017534D02*
X034159Y017534D01*
X033542Y017534D02*
X033392Y017534D01*
X033467Y017534D02*
X033467Y017985D01*
X033392Y017985D02*
X033542Y017985D01*
X033495Y018176D02*
X033645Y018176D01*
X033720Y018251D01*
X033880Y018251D02*
X033955Y018176D01*
X034105Y018176D01*
X034180Y018251D01*
X034180Y018401D01*
X034105Y018476D01*
X034030Y018476D01*
X033880Y018401D01*
X033880Y018627D01*
X034180Y018627D01*
X033720Y018552D02*
X033645Y018627D01*
X033495Y018627D01*
X033420Y018552D01*
X033420Y018251D01*
X033495Y018176D01*
X033813Y016225D02*
X034039Y016225D01*
X034114Y016150D01*
X034114Y016000D01*
X034039Y015925D01*
X033813Y015925D01*
X033813Y015775D02*
X033813Y016225D01*
X033590Y016106D02*
X033590Y015870D01*
X033353Y016106D01*
X033590Y016106D01*
X033590Y016077D02*
X033383Y016077D01*
X033431Y016028D02*
X033590Y016028D01*
X033590Y015980D02*
X033480Y015980D01*
X033528Y015931D02*
X033590Y015931D01*
X033590Y015883D02*
X033577Y015883D01*
X033963Y015925D02*
X034114Y015775D01*
X034274Y016000D02*
X034499Y016225D01*
X034499Y015775D01*
X034574Y016000D02*
X034274Y016000D01*
X034432Y014614D02*
X034609Y014614D01*
X034609Y014437D01*
X034609Y012862D02*
X034609Y012685D01*
X034432Y012685D01*
X034496Y012471D02*
X034496Y012096D01*
X034571Y012021D01*
X034722Y012021D01*
X034797Y012096D01*
X034797Y012471D01*
X034957Y012321D02*
X035107Y012471D01*
X035107Y012021D01*
X034957Y012021D02*
X035257Y012021D01*
X035633Y012003D02*
X035675Y012003D01*
X035633Y011960D02*
X035633Y012196D01*
X035869Y012196D01*
X035633Y011960D01*
X035633Y012051D02*
X035724Y012051D01*
X035772Y012100D02*
X035633Y012100D01*
X035633Y012148D02*
X035821Y012148D01*
X035086Y011619D02*
X034936Y011544D01*
X034786Y011393D01*
X035011Y011393D01*
X035086Y011318D01*
X035086Y011243D01*
X035011Y011168D01*
X034861Y011168D01*
X034786Y011243D01*
X034786Y011393D01*
X034625Y011243D02*
X034550Y011168D01*
X034400Y011168D01*
X034325Y011243D01*
X034325Y011544D01*
X034400Y011619D01*
X034550Y011619D01*
X034625Y011544D01*
X033948Y010713D02*
X033798Y010713D01*
X033723Y010638D01*
X033562Y010638D02*
X033487Y010713D01*
X033337Y010713D01*
X033262Y010638D01*
X033262Y010338D01*
X033337Y010263D01*
X033487Y010263D01*
X033562Y010338D01*
X033723Y010263D02*
X034023Y010563D01*
X034023Y010638D01*
X033948Y010713D01*
X034023Y010263D02*
X033723Y010263D01*
X033066Y009733D02*
X032766Y009432D01*
X032841Y009357D01*
X032991Y009357D01*
X033066Y009432D01*
X033066Y009733D01*
X032991Y009808D01*
X032841Y009808D01*
X032766Y009733D01*
X032766Y009432D01*
X032605Y009357D02*
X032305Y009357D01*
X032455Y009357D02*
X032455Y009808D01*
X032305Y009658D01*
X032145Y009733D02*
X032145Y009582D01*
X032070Y009507D01*
X031845Y009507D01*
X031845Y009357D02*
X031845Y009808D01*
X032070Y009808D01*
X032145Y009733D01*
X032183Y009948D02*
X032334Y009948D01*
X032409Y010023D01*
X032409Y010323D01*
X032334Y010398D01*
X032183Y010398D01*
X032108Y010323D01*
X032108Y010248D01*
X032183Y010173D01*
X032409Y010173D01*
X032183Y009948D02*
X032108Y010023D01*
X031948Y009948D02*
X031798Y010098D01*
X031873Y010098D02*
X031648Y010098D01*
X031648Y009948D02*
X031648Y010398D01*
X031873Y010398D01*
X031948Y010323D01*
X031948Y010173D01*
X031873Y010098D01*
X031995Y009507D02*
X032145Y009357D01*
X032223Y010853D02*
X032148Y010928D01*
X032148Y011003D01*
X032223Y011079D01*
X032373Y011079D01*
X032448Y011003D01*
X032448Y010928D01*
X032373Y010853D01*
X032223Y010853D01*
X032223Y011079D02*
X032148Y011154D01*
X032148Y011229D01*
X032223Y011304D01*
X032373Y011304D01*
X032448Y011229D01*
X032448Y011154D01*
X032373Y011079D01*
X031988Y011079D02*
X031988Y011229D01*
X031913Y011304D01*
X031687Y011304D01*
X031687Y010853D01*
X031687Y011003D02*
X031913Y011003D01*
X031988Y011079D01*
X031837Y011003D02*
X031988Y010853D01*
X031948Y011798D02*
X031798Y011948D01*
X031873Y011948D02*
X031648Y011948D01*
X031648Y011798D02*
X031648Y012249D01*
X031873Y012249D01*
X031948Y012174D01*
X031948Y012023D01*
X031873Y011948D01*
X032108Y011873D02*
X032108Y011798D01*
X032108Y011873D02*
X032409Y012174D01*
X032409Y012249D01*
X032108Y012249D01*
X031940Y012507D02*
X031790Y012507D01*
X031715Y012582D01*
X031715Y012732D01*
X031940Y012732D01*
X032015Y012657D01*
X032015Y012582D01*
X031940Y012507D01*
X031715Y012732D02*
X031865Y012882D01*
X032015Y012957D01*
X031555Y012882D02*
X031555Y012732D01*
X031479Y012657D01*
X031254Y012657D01*
X031254Y012507D02*
X031254Y012957D01*
X031479Y012957D01*
X031555Y012882D01*
X031404Y012657D02*
X031555Y012507D01*
X032680Y012685D02*
X032857Y012685D01*
X032680Y012685D02*
X032680Y012862D01*
X032176Y013806D02*
X032026Y013806D01*
X031951Y013881D01*
X031951Y014031D02*
X032101Y014106D01*
X032176Y014106D01*
X032251Y014031D01*
X032251Y013881D01*
X032176Y013806D01*
X031951Y014031D02*
X031951Y014256D01*
X032251Y014256D01*
X032148Y014475D02*
X032448Y014475D01*
X032680Y014437D02*
X032680Y014614D01*
X032857Y014614D01*
X032448Y014776D02*
X032448Y014851D01*
X032373Y014926D01*
X032223Y014926D01*
X032148Y014851D01*
X031988Y014851D02*
X031988Y014701D01*
X031913Y014626D01*
X031687Y014626D01*
X031837Y014626D02*
X031988Y014475D01*
X032148Y014475D02*
X032448Y014776D01*
X031988Y014851D02*
X031913Y014926D01*
X031687Y014926D01*
X031687Y014475D01*
X031716Y014256D02*
X031791Y014181D01*
X031791Y014031D01*
X031716Y013956D01*
X031491Y013956D01*
X031641Y013956D02*
X031791Y013806D01*
X031491Y013806D02*
X031491Y014256D01*
X031716Y014256D01*
X031464Y014869D02*
X031163Y014869D01*
X031314Y014869D02*
X031314Y015319D01*
X031163Y015169D01*
X031003Y015094D02*
X030928Y015019D01*
X030703Y015019D01*
X030703Y014869D02*
X030703Y015319D01*
X030928Y015319D01*
X031003Y015244D01*
X031003Y015094D01*
X030853Y015019D02*
X031003Y014869D01*
X035965Y016410D02*
X035965Y016561D01*
X035965Y016485D02*
X036415Y016485D01*
X036415Y016410D02*
X036415Y016561D01*
X036340Y016717D02*
X036415Y016792D01*
X036415Y016943D01*
X036340Y017018D01*
X036415Y017178D02*
X036415Y017478D01*
X036415Y017328D02*
X035965Y017328D01*
X036115Y017178D01*
X036040Y017018D02*
X035965Y016943D01*
X035965Y016792D01*
X036040Y016717D01*
X036340Y016717D01*
X036633Y020460D02*
X036633Y020696D01*
X036869Y020696D01*
X036633Y020460D01*
X036633Y020490D02*
X036663Y020490D01*
X036633Y020539D02*
X036711Y020539D01*
X036760Y020587D02*
X036633Y020587D01*
X036633Y020636D02*
X036808Y020636D01*
X036857Y020684D02*
X036633Y020684D01*
X034609Y026720D02*
X034609Y026897D01*
X034432Y026897D01*
X034499Y028058D02*
X034499Y028508D01*
X034274Y028283D01*
X034574Y028283D01*
X034114Y028283D02*
X034114Y028433D01*
X034039Y028508D01*
X033813Y028508D01*
X033813Y028058D01*
X033813Y028208D02*
X034039Y028208D01*
X034114Y028283D01*
X033963Y028208D02*
X034114Y028058D01*
X033590Y028153D02*
X033590Y028389D01*
X033353Y028389D01*
X033590Y028153D01*
X033589Y028153D01*
X033590Y028202D02*
X033541Y028202D01*
X033492Y028250D02*
X033590Y028250D01*
X033590Y028299D02*
X033444Y028299D01*
X033395Y028347D02*
X033590Y028347D01*
X033542Y029818D02*
X033392Y029818D01*
X033467Y029818D02*
X033467Y030268D01*
X033392Y030268D02*
X033542Y030268D01*
X033699Y030193D02*
X033774Y030268D01*
X033924Y030268D01*
X033999Y030193D01*
X034159Y030193D02*
X034234Y030268D01*
X034385Y030268D01*
X034460Y030193D01*
X034460Y030118D01*
X034159Y029818D01*
X034460Y029818D01*
X033999Y029893D02*
X033924Y029818D01*
X033774Y029818D01*
X033699Y029893D01*
X033699Y030193D01*
X033645Y030460D02*
X033720Y030535D01*
X033645Y030460D02*
X033495Y030460D01*
X033420Y030535D01*
X033420Y030835D01*
X033495Y030910D01*
X033645Y030910D01*
X033720Y030835D01*
X033880Y030910D02*
X033880Y030685D01*
X034030Y030760D01*
X034105Y030760D01*
X034180Y030685D01*
X034180Y030535D01*
X034105Y030460D01*
X033955Y030460D01*
X033880Y030535D01*
X033880Y030910D02*
X034180Y030910D01*
X035349Y030992D02*
X035349Y030692D01*
X035424Y030617D01*
X035574Y030617D01*
X035649Y030692D01*
X035809Y030617D02*
X036109Y030617D01*
X035959Y030617D02*
X035959Y031068D01*
X035809Y030917D01*
X035649Y030992D02*
X035574Y031068D01*
X035424Y031068D01*
X035349Y030992D01*
X035965Y029611D02*
X036415Y029611D01*
X036415Y029461D02*
X036415Y029761D01*
X036115Y029461D02*
X035965Y029611D01*
X036040Y029301D02*
X035965Y029226D01*
X035965Y029076D01*
X036040Y029001D01*
X036340Y029001D01*
X036415Y029076D01*
X036415Y029226D01*
X036340Y029301D01*
X036415Y028844D02*
X036415Y028694D01*
X036415Y028769D02*
X035965Y028769D01*
X035965Y028694D02*
X035965Y028844D01*
X036633Y032744D02*
X036633Y032980D01*
X036869Y032980D01*
X036633Y032744D01*
X036633Y032761D02*
X036650Y032761D01*
X036633Y032809D02*
X036698Y032809D01*
X036747Y032858D02*
X036633Y032858D01*
X036633Y032906D02*
X036795Y032906D01*
X036844Y032955D02*
X036633Y032955D01*
X031424Y030914D02*
X031424Y030839D01*
X031349Y030764D01*
X031424Y030689D01*
X031424Y030613D01*
X031349Y030538D01*
X031199Y030538D01*
X031124Y030613D01*
X030964Y030613D02*
X030889Y030538D01*
X030739Y030538D01*
X030664Y030613D01*
X030664Y030914D01*
X030739Y030989D01*
X030889Y030989D01*
X030964Y030914D01*
X031124Y030914D02*
X031199Y030989D01*
X031349Y030989D01*
X031424Y030914D01*
X031349Y030764D02*
X031274Y030764D01*
X030771Y032096D02*
X030534Y032096D01*
X030534Y032332D01*
X030771Y032096D01*
X030736Y032130D02*
X030534Y032130D01*
X030534Y032179D02*
X030688Y032179D01*
X030639Y032227D02*
X030534Y032227D01*
X030534Y032276D02*
X030591Y032276D01*
X030542Y032324D02*
X030534Y032324D01*
X029869Y032980D02*
X029633Y032980D01*
X029633Y032744D01*
X029869Y032980D01*
X029844Y032955D02*
X029633Y032955D01*
X029633Y032906D02*
X029795Y032906D01*
X029747Y032858D02*
X029633Y032858D01*
X029633Y032809D02*
X029698Y032809D01*
X029650Y032761D02*
X029633Y032761D01*
X028601Y032980D02*
X028365Y032744D01*
X028365Y032980D01*
X028601Y032980D01*
X028576Y032955D02*
X028365Y032955D01*
X028365Y032906D02*
X028528Y032906D01*
X028479Y032858D02*
X028365Y032858D01*
X028365Y032809D02*
X028431Y032809D01*
X028382Y032761D02*
X028365Y032761D01*
D13*
X026479Y029870D02*
X026282Y029870D01*
X026282Y029752D02*
X026282Y029712D01*
X026282Y029752D02*
X026519Y029752D01*
X026991Y029752D02*
X027227Y029752D01*
X027227Y029712D01*
X027227Y028610D02*
X027227Y028570D01*
X026991Y028570D01*
X026519Y028570D02*
X026282Y028570D01*
X026282Y028610D01*
X026479Y027114D02*
X026481Y027132D01*
X026487Y027148D01*
X026496Y027163D01*
X026509Y027176D01*
X026524Y027185D01*
X026540Y027191D01*
X026558Y027193D01*
X026576Y027191D01*
X026592Y027185D01*
X026607Y027176D01*
X026620Y027163D01*
X026629Y027148D01*
X026635Y027132D01*
X026637Y027114D01*
X026635Y027096D01*
X026629Y027080D01*
X026620Y027065D01*
X026607Y027052D01*
X026592Y027043D01*
X026576Y027037D01*
X026558Y027035D01*
X026540Y027037D01*
X026524Y027043D01*
X026509Y027052D01*
X026496Y027065D01*
X026487Y027080D01*
X026481Y027096D01*
X026479Y027114D01*
X026479Y027035D02*
X026204Y027035D01*
X026479Y027035D02*
X026479Y026759D01*
X026479Y025106D02*
X026479Y024830D01*
X026204Y024830D01*
X024550Y024830D02*
X024275Y024830D01*
X024275Y025106D01*
X024275Y026759D02*
X024275Y027035D01*
X024550Y027035D01*
X018960Y028570D02*
X018723Y028570D01*
X018960Y028570D02*
X018960Y028610D01*
X018251Y028570D02*
X018015Y028570D01*
X018015Y028610D01*
X018015Y029712D02*
X018015Y029752D01*
X018251Y029752D01*
X018212Y029870D02*
X018015Y029870D01*
X018723Y029752D02*
X018960Y029752D01*
X018960Y029712D01*
X018211Y027114D02*
X018213Y027132D01*
X018219Y027148D01*
X018228Y027163D01*
X018241Y027176D01*
X018256Y027185D01*
X018272Y027191D01*
X018290Y027193D01*
X018308Y027191D01*
X018324Y027185D01*
X018339Y027176D01*
X018352Y027163D01*
X018361Y027148D01*
X018367Y027132D01*
X018369Y027114D01*
X018367Y027096D01*
X018361Y027080D01*
X018352Y027065D01*
X018339Y027052D01*
X018324Y027043D01*
X018308Y027037D01*
X018290Y027035D01*
X018272Y027037D01*
X018256Y027043D01*
X018241Y027052D01*
X018228Y027065D01*
X018219Y027080D01*
X018213Y027096D01*
X018211Y027114D01*
X018212Y027035D02*
X017936Y027035D01*
X018212Y027035D02*
X018212Y026759D01*
X018212Y025106D02*
X018212Y024830D01*
X017936Y024830D01*
X016282Y024830D02*
X016007Y024830D01*
X016007Y025106D01*
X016007Y026759D02*
X016007Y027035D01*
X016282Y027035D01*
X010692Y028570D02*
X010456Y028570D01*
X010692Y028570D02*
X010692Y028610D01*
X009983Y028570D02*
X009747Y028570D01*
X009747Y028610D01*
X009747Y029712D02*
X009747Y029752D01*
X009983Y029752D01*
X009944Y029870D02*
X009747Y029870D01*
X010456Y029752D02*
X010692Y029752D01*
X010692Y029712D01*
X009944Y027114D02*
X009946Y027132D01*
X009952Y027148D01*
X009961Y027163D01*
X009974Y027176D01*
X009989Y027185D01*
X010005Y027191D01*
X010023Y027193D01*
X010041Y027191D01*
X010057Y027185D01*
X010072Y027176D01*
X010085Y027163D01*
X010094Y027148D01*
X010100Y027132D01*
X010102Y027114D01*
X010100Y027096D01*
X010094Y027080D01*
X010085Y027065D01*
X010072Y027052D01*
X010057Y027043D01*
X010041Y027037D01*
X010023Y027035D01*
X010005Y027037D01*
X009989Y027043D01*
X009974Y027052D01*
X009961Y027065D01*
X009952Y027080D01*
X009946Y027096D01*
X009944Y027114D01*
X009944Y027035D02*
X009668Y027035D01*
X009944Y027035D02*
X009944Y026759D01*
X009944Y025106D02*
X009944Y024830D01*
X009668Y024830D01*
X008015Y024830D02*
X007739Y024830D01*
X007739Y025106D01*
X007739Y026759D02*
X007739Y027035D01*
X008015Y027035D01*
X009747Y017586D02*
X009944Y017586D01*
X009983Y017468D02*
X009747Y017468D01*
X009747Y017429D01*
X010456Y017468D02*
X010692Y017468D01*
X010692Y017429D01*
X010692Y016326D02*
X010692Y016287D01*
X010456Y016287D01*
X009983Y016287D02*
X009747Y016287D01*
X009747Y016326D01*
X009944Y014830D02*
X009946Y014848D01*
X009952Y014864D01*
X009961Y014879D01*
X009974Y014892D01*
X009989Y014901D01*
X010005Y014907D01*
X010023Y014909D01*
X010041Y014907D01*
X010057Y014901D01*
X010072Y014892D01*
X010085Y014879D01*
X010094Y014864D01*
X010100Y014848D01*
X010102Y014830D01*
X010100Y014812D01*
X010094Y014796D01*
X010085Y014781D01*
X010072Y014768D01*
X010057Y014759D01*
X010041Y014753D01*
X010023Y014751D01*
X010005Y014753D01*
X009989Y014759D01*
X009974Y014768D01*
X009961Y014781D01*
X009952Y014796D01*
X009946Y014812D01*
X009944Y014830D01*
X009944Y014752D02*
X009668Y014752D01*
X009944Y014752D02*
X009944Y014476D01*
X009944Y012822D02*
X009944Y012547D01*
X009668Y012547D01*
X008015Y012547D02*
X007739Y012547D01*
X007739Y012822D01*
X007739Y014476D02*
X007739Y014752D01*
X008015Y014752D01*
X016007Y014752D02*
X016007Y014476D01*
X016007Y014752D02*
X016282Y014752D01*
X017936Y014752D02*
X018212Y014752D01*
X018212Y014476D01*
X018211Y014830D02*
X018213Y014848D01*
X018219Y014864D01*
X018228Y014879D01*
X018241Y014892D01*
X018256Y014901D01*
X018272Y014907D01*
X018290Y014909D01*
X018308Y014907D01*
X018324Y014901D01*
X018339Y014892D01*
X018352Y014879D01*
X018361Y014864D01*
X018367Y014848D01*
X018369Y014830D01*
X018367Y014812D01*
X018361Y014796D01*
X018352Y014781D01*
X018339Y014768D01*
X018324Y014759D01*
X018308Y014753D01*
X018290Y014751D01*
X018272Y014753D01*
X018256Y014759D01*
X018241Y014768D01*
X018228Y014781D01*
X018219Y014796D01*
X018213Y014812D01*
X018211Y014830D01*
X018251Y016287D02*
X018015Y016287D01*
X018015Y016326D01*
X018723Y016287D02*
X018960Y016287D01*
X018960Y016326D01*
X018960Y017429D02*
X018960Y017468D01*
X018723Y017468D01*
X018251Y017468D02*
X018015Y017468D01*
X018015Y017429D01*
X018015Y017586D02*
X018212Y017586D01*
X018212Y012822D02*
X018212Y012547D01*
X017936Y012547D01*
X016282Y012547D02*
X016007Y012547D01*
X016007Y012822D01*
X024275Y012822D02*
X024275Y012547D01*
X024550Y012547D01*
X026204Y012547D02*
X026479Y012547D01*
X026479Y012822D01*
X026479Y014476D02*
X026479Y014752D01*
X026204Y014752D01*
X026479Y014830D02*
X026481Y014848D01*
X026487Y014864D01*
X026496Y014879D01*
X026509Y014892D01*
X026524Y014901D01*
X026540Y014907D01*
X026558Y014909D01*
X026576Y014907D01*
X026592Y014901D01*
X026607Y014892D01*
X026620Y014879D01*
X026629Y014864D01*
X026635Y014848D01*
X026637Y014830D01*
X026635Y014812D01*
X026629Y014796D01*
X026620Y014781D01*
X026607Y014768D01*
X026592Y014759D01*
X026576Y014753D01*
X026558Y014751D01*
X026540Y014753D01*
X026524Y014759D01*
X026509Y014768D01*
X026496Y014781D01*
X026487Y014796D01*
X026481Y014812D01*
X026479Y014830D01*
X026519Y016287D02*
X026282Y016287D01*
X026282Y016326D01*
X026991Y016287D02*
X027227Y016287D01*
X027227Y016326D01*
X027227Y017429D02*
X027227Y017468D01*
X026991Y017468D01*
X026519Y017468D02*
X026282Y017468D01*
X026282Y017429D01*
X026282Y017586D02*
X026479Y017586D01*
X024550Y014752D02*
X024275Y014752D01*
X024275Y014476D01*
X032542Y014476D02*
X032542Y014752D01*
X032818Y014752D01*
X034471Y014752D02*
X034747Y014752D01*
X034747Y014476D01*
X034747Y014830D02*
X034749Y014848D01*
X034755Y014864D01*
X034764Y014879D01*
X034777Y014892D01*
X034792Y014901D01*
X034808Y014907D01*
X034826Y014909D01*
X034844Y014907D01*
X034860Y014901D01*
X034875Y014892D01*
X034888Y014879D01*
X034897Y014864D01*
X034903Y014848D01*
X034905Y014830D01*
X034903Y014812D01*
X034897Y014796D01*
X034888Y014781D01*
X034875Y014768D01*
X034860Y014759D01*
X034844Y014753D01*
X034826Y014751D01*
X034808Y014753D01*
X034792Y014759D01*
X034777Y014768D01*
X034764Y014781D01*
X034755Y014796D01*
X034749Y014812D01*
X034747Y014830D01*
X034786Y016287D02*
X034550Y016287D01*
X034550Y016326D01*
X035259Y016287D02*
X035495Y016287D01*
X035495Y016326D01*
X035495Y017429D02*
X035495Y017468D01*
X035259Y017468D01*
X034786Y017468D02*
X034550Y017468D01*
X034550Y017429D01*
X034550Y017586D02*
X034747Y017586D01*
X034747Y012822D02*
X034747Y012547D01*
X034471Y012547D01*
X032818Y012547D02*
X032542Y012547D01*
X032542Y012822D01*
X032542Y024830D02*
X032818Y024830D01*
X032542Y024830D02*
X032542Y025106D01*
X032542Y026759D02*
X032542Y027035D01*
X032818Y027035D01*
X034471Y027035D02*
X034747Y027035D01*
X034747Y026759D01*
X034747Y027114D02*
X034749Y027132D01*
X034755Y027148D01*
X034764Y027163D01*
X034777Y027176D01*
X034792Y027185D01*
X034808Y027191D01*
X034826Y027193D01*
X034844Y027191D01*
X034860Y027185D01*
X034875Y027176D01*
X034888Y027163D01*
X034897Y027148D01*
X034903Y027132D01*
X034905Y027114D01*
X034903Y027096D01*
X034897Y027080D01*
X034888Y027065D01*
X034875Y027052D01*
X034860Y027043D01*
X034844Y027037D01*
X034826Y027035D01*
X034808Y027037D01*
X034792Y027043D01*
X034777Y027052D01*
X034764Y027065D01*
X034755Y027080D01*
X034749Y027096D01*
X034747Y027114D01*
X034786Y028570D02*
X034550Y028570D01*
X034550Y028610D01*
X035259Y028570D02*
X035495Y028570D01*
X035495Y028610D01*
X035495Y029712D02*
X035495Y029752D01*
X035259Y029752D01*
X034786Y029752D02*
X034550Y029752D01*
X034550Y029712D01*
X034550Y029870D02*
X034747Y029870D01*
X034747Y025106D02*
X034747Y024830D01*
X034471Y024830D01*
D14*
X032670Y029817D02*
X032670Y029907D01*
X032670Y030147D01*
X032670Y030237D01*
X032670Y030147D02*
X032649Y030145D01*
X032629Y030140D01*
X032610Y030131D01*
X032593Y030119D01*
X032578Y030104D01*
X032566Y030087D01*
X032557Y030068D01*
X032552Y030048D01*
X032550Y030027D01*
X032552Y030006D01*
X032557Y029986D01*
X032566Y029967D01*
X032578Y029950D01*
X032593Y029935D01*
X032610Y029923D01*
X032629Y029914D01*
X032649Y029909D01*
X032670Y029907D01*
X032200Y029687D02*
X031940Y029687D01*
X031470Y029817D02*
X031470Y030237D01*
X024402Y030147D02*
X024402Y030237D01*
X024402Y030147D02*
X024402Y029907D01*
X024402Y029817D01*
X024402Y029907D02*
X024381Y029909D01*
X024361Y029914D01*
X024342Y029923D01*
X024325Y029935D01*
X024310Y029950D01*
X024298Y029967D01*
X024289Y029986D01*
X024284Y030006D01*
X024282Y030027D01*
X024284Y030048D01*
X024289Y030068D01*
X024298Y030087D01*
X024310Y030104D01*
X024325Y030119D01*
X024342Y030131D01*
X024361Y030140D01*
X024381Y030145D01*
X024402Y030147D01*
X023932Y029687D02*
X023672Y029687D01*
X023202Y029817D02*
X023202Y030237D01*
X016134Y030147D02*
X016134Y030237D01*
X016134Y030147D02*
X016134Y029907D01*
X016134Y029817D01*
X016134Y029907D02*
X016113Y029909D01*
X016093Y029914D01*
X016074Y029923D01*
X016057Y029935D01*
X016042Y029950D01*
X016030Y029967D01*
X016021Y029986D01*
X016016Y030006D01*
X016014Y030027D01*
X016016Y030048D01*
X016021Y030068D01*
X016030Y030087D01*
X016042Y030104D01*
X016057Y030119D01*
X016074Y030131D01*
X016093Y030140D01*
X016113Y030145D01*
X016134Y030147D01*
X015664Y029687D02*
X015404Y029687D01*
X014934Y029817D02*
X014934Y030237D01*
X007867Y030147D02*
X007867Y030237D01*
X007867Y030147D02*
X007867Y029907D01*
X007867Y029817D01*
X007867Y029907D02*
X007846Y029909D01*
X007826Y029914D01*
X007807Y029923D01*
X007790Y029935D01*
X007775Y029950D01*
X007763Y029967D01*
X007754Y029986D01*
X007749Y030006D01*
X007747Y030027D01*
X007749Y030048D01*
X007754Y030068D01*
X007763Y030087D01*
X007775Y030104D01*
X007790Y030119D01*
X007807Y030131D01*
X007826Y030140D01*
X007846Y030145D01*
X007867Y030147D01*
X007397Y029687D02*
X007137Y029687D01*
X006667Y029817D02*
X006667Y030237D01*
X006667Y017954D02*
X006667Y017534D01*
X007137Y017404D02*
X007397Y017404D01*
X007867Y017534D02*
X007867Y017624D01*
X007867Y017864D01*
X007867Y017954D01*
X007867Y017864D02*
X007846Y017862D01*
X007826Y017857D01*
X007807Y017848D01*
X007790Y017836D01*
X007775Y017821D01*
X007763Y017804D01*
X007754Y017785D01*
X007749Y017765D01*
X007747Y017744D01*
X007749Y017723D01*
X007754Y017703D01*
X007763Y017684D01*
X007775Y017667D01*
X007790Y017652D01*
X007807Y017640D01*
X007826Y017631D01*
X007846Y017626D01*
X007867Y017624D01*
X014934Y017534D02*
X014934Y017954D01*
X015404Y017404D02*
X015664Y017404D01*
X016134Y017534D02*
X016134Y017624D01*
X016134Y017864D01*
X016134Y017954D01*
X016134Y017864D02*
X016113Y017862D01*
X016093Y017857D01*
X016074Y017848D01*
X016057Y017836D01*
X016042Y017821D01*
X016030Y017804D01*
X016021Y017785D01*
X016016Y017765D01*
X016014Y017744D01*
X016016Y017723D01*
X016021Y017703D01*
X016030Y017684D01*
X016042Y017667D01*
X016057Y017652D01*
X016074Y017640D01*
X016093Y017631D01*
X016113Y017626D01*
X016134Y017624D01*
X023202Y017534D02*
X023202Y017954D01*
X023672Y017404D02*
X023932Y017404D01*
X024402Y017534D02*
X024402Y017624D01*
X024402Y017864D01*
X024402Y017954D01*
X024402Y017864D02*
X024381Y017862D01*
X024361Y017857D01*
X024342Y017848D01*
X024325Y017836D01*
X024310Y017821D01*
X024298Y017804D01*
X024289Y017785D01*
X024284Y017765D01*
X024282Y017744D01*
X024284Y017723D01*
X024289Y017703D01*
X024298Y017684D01*
X024310Y017667D01*
X024325Y017652D01*
X024342Y017640D01*
X024361Y017631D01*
X024381Y017626D01*
X024402Y017624D01*
X031470Y017534D02*
X031470Y017954D01*
X031940Y017404D02*
X032200Y017404D01*
X032670Y017534D02*
X032670Y017624D01*
X032670Y017864D01*
X032670Y017954D01*
X032670Y017864D02*
X032649Y017862D01*
X032629Y017857D01*
X032610Y017848D01*
X032593Y017836D01*
X032578Y017821D01*
X032566Y017804D01*
X032557Y017785D01*
X032552Y017765D01*
X032550Y017744D01*
X032552Y017723D01*
X032557Y017703D01*
X032566Y017684D01*
X032578Y017667D01*
X032593Y017652D01*
X032610Y017640D01*
X032629Y017631D01*
X032649Y017626D01*
X032670Y017624D01*
M02*
