%
M48
M72
T01C0.0118
T02C0.0394
T03C0.0630
T04C0.1575
%
T01
X5818Y9752
X5818Y10933
X5818Y11917
X5818Y12941
X5818Y13885
X5818Y14791
X5818Y15657
X6252Y16681
X6685Y17074
X7078Y17074
X7078Y17468
X6685Y17468
X6685Y18098
X8141Y16878
X8968Y16720
X8968Y16484
X8968Y16248
X9992Y15539
X10425Y15696
X10464Y15303
X10818Y15657
X11291Y15933
X11055Y16208
X11212Y16878
X10307Y16838
X9952Y18098
X9677Y18374
X9086Y18649
X8338Y18649
X7236Y22350
X5818Y22035
X5818Y23216
X5818Y24200
X5818Y25224
X5818Y26169
X5818Y27074
X5818Y27941
X6252Y28964
X6685Y29358
X7078Y29358
X7078Y29752
X6685Y29752
X6685Y30381
X8141Y29161
X8968Y29004
X8968Y28767
X8968Y28531
X9992Y27822
X10425Y27980
X10818Y27941
X10464Y27586
X11291Y28216
X11055Y28492
X11212Y29161
X10307Y29122
X9952Y30381
X9677Y30657
X9086Y30933
X8338Y30933
X11803Y27114
X11685Y25185
X9519Y24043
X9519Y23807
X9204Y23177
X8732Y23177
X7787Y24673
X14086Y24200
X14086Y23216
X14086Y22035
X15503Y22350
X17000Y23177
X17472Y23177
X17787Y23807
X17787Y24043
X16055Y24673
X14086Y25224
X14086Y26169
X14086Y27074
X14086Y27941
X14519Y28964
X14952Y29358
X14952Y29752
X15346Y29752
X15346Y29358
X16409Y29161
X17236Y29004
X17236Y28767
X17236Y28531
X18259Y27822
X18692Y27980
X18732Y27586
X19086Y27941
X19559Y28216
X19322Y28492
X19480Y29161
X18574Y29122
X18220Y30381
X17944Y30657
X17354Y30933
X16606Y30933
X14952Y30381
X20070Y27114
X19952Y25185
X22354Y25224
X22354Y26169
X22354Y27074
X22354Y27941
X22787Y28964
X23220Y29358
X23220Y29752
X23614Y29752
X23614Y29358
X24677Y29161
X25503Y29004
X25503Y28767
X25503Y28531
X26527Y27822
X26960Y27980
X27000Y27586
X27354Y27941
X27826Y28216
X27590Y28492
X27748Y29161
X26842Y29122
X26488Y30381
X26212Y30657
X25622Y30933
X24874Y30933
X23220Y30381
X28338Y27114
X28220Y25185
X30622Y25224
X30622Y26169
X30622Y27074
X30622Y27941
X31055Y28964
X31488Y29358
X31881Y29358
X31881Y29752
X31488Y29752
X31488Y30381
X33141Y30933
X33889Y30933
X34480Y30657
X34755Y30381
X35110Y29122
X35858Y28492
X36094Y28216
X35622Y27941
X35228Y27980
X35267Y27586
X34795Y27822
X33771Y28531
X33771Y28767
X33771Y29004
X32944Y29161
X36015Y29161
X36606Y27114
X36488Y25185
X34322Y24043
X34322Y23807
X34007Y23177
X33535Y23177
X32039Y22350
X30622Y22035
X30622Y23216
X30622Y24200
X32590Y24673
X33141Y18649
X33889Y18649
X34480Y18374
X34755Y18098
X35110Y16838
X35858Y16208
X36094Y15933
X35622Y15657
X35228Y15696
X35267Y15303
X34795Y15539
X33771Y16248
X33771Y16484
X33771Y16720
X32944Y16878
X31881Y17074
X31488Y17074
X31488Y17468
X31881Y17468
X31488Y18098
X31055Y16681
X30622Y15657
X30622Y14791
X30622Y13885
X30622Y12941
X30622Y11917
X30622Y10933
X30622Y9752
X32039Y10067
X33535Y10893
X34007Y10893
X34322Y11523
X34322Y11759
X32590Y12389
X36488Y12901
X36606Y14830
X36015Y16878
X28338Y14830
X27354Y15657
X26960Y15696
X27000Y15303
X26527Y15539
X27590Y16208
X27826Y15933
X27748Y16878
X26842Y16838
X26488Y18098
X26212Y18374
X25622Y18649
X24874Y18649
X23614Y17468
X23614Y17074
X23220Y17074
X23220Y17468
X23220Y18098
X22787Y16681
X22354Y15657
X22354Y14791
X22354Y13885
X22354Y12941
X22354Y11917
X22354Y10933
X22354Y9752
X23771Y10067
X25267Y10893
X25740Y10893
X26055Y11523
X26055Y11759
X24322Y12389
X28220Y12901
X25503Y16248
X25503Y16484
X25503Y16720
X24677Y16878
X20070Y14830
X19086Y15657
X18692Y15696
X18732Y15303
X18259Y15539
X19322Y16208
X19559Y15933
X19480Y16878
X18574Y16838
X18220Y18098
X17944Y18374
X17354Y18649
X16606Y18649
X15346Y17468
X15346Y17074
X14952Y17074
X14952Y17468
X14952Y18098
X14519Y16681
X14086Y15657
X14086Y14791
X14086Y13885
X14086Y12941
X14086Y11917
X14086Y10933
X14086Y9752
X15503Y10067
X17000Y10893
X17472Y10893
X17787Y11523
X17787Y11759
X16055Y12389
X19952Y12901
X17236Y16248
X17236Y16484
X17236Y16720
X16409Y16878
X11803Y14830
X11685Y12901
X9519Y11759
X9519Y11523
X9204Y10893
X8732Y10893
X7236Y10067
X7787Y12389
X22354Y22035
X22354Y23216
X22354Y24200
X24322Y24673
X25267Y23177
X25740Y23177
X26055Y23807
X26055Y24043
X23771Y22350
T02
X21728Y22456
X21728Y23456
X21728Y24456
X21728Y25456
X21728Y26456
X21728Y27456
X21728Y28456
X21728Y29456
X21728Y30456
X21728Y31456
X21728Y32456
X20460Y32456
X20460Y31456
X19460Y31456
X18460Y31456
X17460Y31456
X16460Y31456
X15460Y31456
X14460Y31456
X13460Y31456
X13460Y32456
X12192Y32456
X12192Y31456
X11192Y31456
X10192Y31456
X9192Y31456
X8192Y31456
X7192Y31456
X6192Y31456
X5192Y31456
X5192Y32456
X5192Y30456
X5192Y29456
X5192Y28456
X5192Y27456
X5192Y26456
X5192Y25456
X5192Y24456
X5192Y23456
X5192Y22456
X5192Y21456
X5192Y20173
X5192Y19173
X6192Y19173
X7192Y19173
X8192Y19173
X9192Y19173
X10192Y19173
X11192Y19173
X12192Y19173
X12192Y20173
X12192Y21456
X12192Y22456
X12192Y23456
X11192Y22956
X10192Y22956
X10192Y23956
X11192Y23956
X12192Y24456
X12192Y25456
X12192Y26456
X12192Y27456
X12192Y28456
X12192Y29456
X12192Y30456
X13460Y30456
X13460Y29456
X13460Y28456
X13460Y27456
X13460Y26456
X13460Y25456
X13460Y24456
X13460Y23456
X13460Y22456
X13460Y21456
X13460Y20173
X13460Y19173
X14460Y19173
X15460Y19173
X16460Y19173
X17460Y19173
X18460Y19173
X19460Y19173
X20460Y19173
X20460Y20173
X21728Y20173
X21728Y19173
X22728Y19173
X23728Y19173
X24728Y19173
X25728Y19173
X26728Y19173
X27728Y19173
X28728Y19173
X28728Y20173
X29996Y20173
X29996Y19173
X30996Y19173
X31996Y19173
X32996Y19173
X33996Y19173
X34996Y19173
X35996Y19173
X36996Y19173
X36996Y20173
X36996Y21456
X36996Y22456
X36996Y23456
X35996Y22956
X35996Y23956
X36996Y24456
X36996Y25456
X36996Y26456
X36996Y27456
X36996Y28456
X36996Y29456
X36996Y30456
X36996Y31456
X36996Y32456
X35996Y31456
X34996Y31456
X33996Y31456
X32996Y31456
X31996Y31456
X30996Y31456
X29996Y31456
X29996Y32456
X28728Y32456
X28728Y31456
X27728Y31456
X26728Y31456
X25728Y31456
X24728Y31456
X23728Y31456
X22728Y31456
X20460Y30456
X20460Y29456
X20460Y28456
X20460Y27456
X20460Y26456
X20460Y25456
X20460Y24456
X19460Y23956
X20460Y23456
X20460Y22456
X19460Y22956
X18460Y22956
X18460Y23956
X20460Y21456
X21728Y21456
X21728Y18173
X21728Y17173
X21728Y16173
X21728Y15173
X21728Y14173
X21728Y13173
X21728Y12173
X21728Y11173
X21728Y10173
X21728Y9173
X20460Y9173
X20460Y10173
X20460Y11173
X19460Y11673
X20460Y12173
X20460Y13173
X20460Y14173
X20460Y15173
X20460Y16173
X20460Y17173
X20460Y18173
X23728Y15673
X24728Y15673
X28728Y16173
X28728Y17173
X28728Y18173
X29996Y18173
X29996Y17173
X29996Y16173
X29996Y15173
X29996Y14173
X29996Y13173
X29996Y12173
X29996Y11173
X29996Y10173
X29996Y9173
X28728Y9173
X28728Y10173
X28728Y11173
X27728Y11673
X28728Y12173
X28728Y13173
X28728Y14173
X28728Y15173
X31996Y15673
X32996Y15673
X36996Y16173
X36996Y17173
X36996Y18173
X36996Y15173
X36996Y14173
X36996Y13173
X36996Y12173
X35996Y11673
X36996Y11173
X36996Y10173
X35996Y10673
X34996Y10673
X34996Y11673
X36996Y9173
X27728Y10673
X26728Y10673
X26728Y11673
X19460Y10673
X18460Y10673
X18460Y11673
X16460Y15673
X15460Y15673
X13460Y16173
X13460Y17173
X13460Y18173
X12192Y18173
X12192Y17173
X12192Y16173
X12192Y15173
X12192Y14173
X12192Y13173
X12192Y12173
X11192Y11673
X12192Y11173
X12192Y10173
X11192Y10673
X10192Y10673
X10192Y11673
X12192Y9173
X13460Y9173
X13460Y10173
X13460Y11173
X13460Y12173
X13460Y13173
X13460Y14173
X13460Y15173
X8192Y15673
X7192Y15673
X5192Y16173
X5192Y17173
X5192Y18173
X5192Y15173
X5192Y14173
X5192Y13173
X5192Y12173
X5192Y11173
X5192Y10173
X5192Y9173
X7192Y27956
X8192Y27956
X15460Y27956
X16460Y27956
X23728Y27956
X24728Y27956
X28728Y27456
X28728Y26456
X28728Y25456
X28728Y24456
X27728Y23956
X28728Y23456
X28728Y22456
X27728Y22956
X26728Y22956
X26728Y23956
X28728Y21456
X29996Y21456
X29996Y22456
X29996Y23456
X29996Y24456
X29996Y25456
X29996Y26456
X29996Y27456
X29996Y28456
X29996Y29456
X29996Y30456
X28728Y30456
X28728Y29456
X28728Y28456
X31996Y27956
X32996Y27956
X34996Y23956
X34996Y22956
T03
X33574Y25933
X25307Y25933
X17039Y25933
X8771Y25933
X8771Y13649
X17039Y13649
X25307Y13649
X33574Y13649
T04
X6685Y6405
X35503Y6405
X35503Y35224
X6685Y35224
M30
