%
M48
M72
T01C0.0118
T02C0.0315
T03C0.0394
T04C0.1260
%
T01
X37715Y25027
X37281Y25342
X36888Y24673
X39171Y24161
X39171Y24397
X38817Y23728
X38384Y23728
X41337Y25539
X39762Y28256
X40116Y28295
X40470Y28295
X40116Y27941
X38344Y26287
X38699Y26287
X39053Y26287
X38699Y25933
X38699Y26641
X35470Y28295
X35470Y27350
X35470Y26405
X35470Y25460
X35470Y24515
X35470Y23570
X35470Y22389
X28817Y22744
X27124Y23570
X27124Y22389
X20470Y22744
X18777Y23570
X18777Y22389
X12124Y22744
X11848Y24673
X12675Y25027
X12242Y25342
X14132Y24161
X14132Y24397
X13344Y23728
X13777Y23728
X10431Y23570
X10431Y22389
X11297Y17665
X11297Y17114
X10864Y16799
X10431Y15775
X10431Y13885
X10431Y12941
X10431Y11996
X10431Y11051
X10431Y9870
X12124Y10224
X12675Y12507
X12242Y12822
X11848Y12153
X14132Y11641
X14132Y11878
X18777Y11051
X18777Y11996
X18777Y12941
X18777Y13885
X18777Y14830
X18777Y15775
X19211Y16799
X19644Y17114
X20195Y17114
X20195Y17665
X19644Y17665
X19644Y18256
X15903Y16956
X13659Y16838
X13659Y16602
X13659Y16366
X14722Y15736
X15077Y15775
X15431Y15775
X15077Y15421
X12833Y16996
X11848Y17114
X11848Y17665
X11297Y18256
X14211Y18492
X14565Y18295
X15667Y18492
X13699Y18767
X12951Y18767
X15667Y16287
X15903Y16051
X16415Y14948
X16297Y13019
X13659Y13413
X13659Y13767
X13305Y13767
X13659Y14122
X14014Y13767
X10431Y14830
X13344Y11208
X13777Y11208
X18777Y9870
X20470Y10224
X20195Y12153
X21022Y12507
X20589Y12822
X22478Y11641
X22478Y11878
X27124Y11051
X27124Y11996
X27124Y12941
X27124Y13885
X27124Y14830
X27124Y15775
X27990Y18256
X27990Y17665
X27990Y17114
X27557Y16799
X28541Y17665
X28541Y17114
X29526Y16996
X30352Y16838
X30352Y16602
X30352Y16366
X31415Y15736
X31770Y15775
X32124Y15775
X31770Y15421
X30352Y14122
X30352Y13767
X30352Y13413
X29998Y13767
X30707Y13767
X35470Y11051
X35470Y11996
X35470Y12941
X35470Y13885
X35470Y14830
X35470Y15775
X36337Y18256
X36337Y17665
X36888Y17665
X36888Y17114
X36337Y17114
X35903Y16799
X39250Y18492
X39604Y18295
X40707Y18492
X38699Y16838
X38699Y16602
X38699Y16366
X37872Y16996
X39762Y15736
X40116Y15775
X40116Y15421
X40470Y15775
X40943Y16051
X40707Y16287
X40943Y16956
X37715Y12507
X37281Y12822
X36888Y12153
X39171Y11641
X39171Y11878
X38384Y11208
X38817Y11208
X41337Y13019
X39053Y13767
X38699Y13767
X38699Y13413
X38344Y13767
X38699Y14122
X41455Y14948
X38738Y18767
X37990Y18767
X37163Y22744
X32990Y25539
X30825Y24397
X30825Y24161
X29368Y25027
X28935Y25342
X28541Y24673
X27124Y24515
X27124Y25460
X27124Y26405
X27124Y27350
X27124Y28295
X27990Y30775
X27990Y30185
X27990Y29633
X27557Y29319
X22045Y31287
X22557Y31011
X22911Y30815
X24014Y31011
X24250Y29476
X24014Y28807
X24250Y28570
X23777Y28295
X23423Y28295
X23423Y27941
X23069Y28256
X22006Y26641
X22006Y26287
X22360Y26287
X22006Y25933
X21652Y26287
X21022Y25027
X20195Y24673
X20589Y25342
X22478Y24161
X22478Y24397
X21691Y23728
X22124Y23728
X18777Y24515
X18777Y25460
X18777Y26405
X18777Y27350
X18777Y28295
X19211Y29319
X19644Y29633
X20195Y29633
X20195Y30185
X19644Y30185
X19644Y30775
X15667Y31011
X13659Y29358
X13659Y29122
X13659Y28885
X12833Y29515
X10864Y29319
X11297Y29633
X11848Y29633
X11848Y30185
X11297Y30185
X11297Y30775
X10431Y28295
X10431Y26405
X10431Y25460
X10431Y24515
X13305Y26287
X13659Y26287
X13659Y25933
X14014Y26287
X13659Y26641
X14722Y28256
X15077Y28295
X15431Y28295
X15077Y27941
X15667Y28807
X15903Y28570
X15903Y29476
X14565Y30815
X14211Y31011
X12951Y31287
X13699Y31287
X10431Y27350
X16297Y25539
X16415Y27468
X22006Y28885
X22006Y29122
X22006Y29358
X21297Y31287
X21179Y29515
X24762Y27468
X24644Y25539
X30037Y23728
X30470Y23728
X30352Y25933
X30352Y26287
X29998Y26287
X30352Y26641
X30707Y26287
X31415Y28256
X31770Y28295
X32124Y28295
X31770Y27941
X30352Y28885
X30352Y29122
X30352Y29358
X30903Y31011
X31258Y30815
X32360Y31011
X32596Y29476
X32360Y28807
X32596Y28570
X33108Y27468
X35903Y29319
X36337Y30775
X36337Y30185
X36888Y30185
X36888Y29633
X36337Y29633
X30392Y31287
X29644Y31287
X28541Y30185
X28541Y29633
X29526Y29515
X37872Y29515
X38699Y29358
X38699Y29122
X38699Y28885
X39250Y31011
X39604Y30815
X40707Y31011
X40943Y29476
X40707Y28807
X40943Y28570
X41455Y27468
X37990Y31287
X38738Y31287
X30392Y18767
X32360Y18492
X32596Y16956
X32360Y16287
X32596Y16051
X33108Y14948
X32990Y13019
X30825Y11878
X30825Y11641
X29368Y12507
X28935Y12822
X28541Y12153
X30037Y11208
X30470Y11208
X28817Y10224
X27124Y9870
X35470Y9870
X37163Y10224
X24762Y14948
X23777Y15775
X23423Y15775
X23423Y15421
X23069Y15736
X22006Y14122
X22006Y13767
X22006Y13413
X22360Y13767
X21652Y13767
X21179Y16996
X22006Y16838
X22006Y16602
X22006Y16366
X22557Y18492
X22911Y18295
X24014Y18492
X24250Y16956
X24014Y16287
X24250Y16051
X22045Y18767
X21297Y18767
X24644Y13019
X21691Y11208
X22124Y11208
X29644Y18767
X30903Y18492
X31258Y18295
T02
X13699Y22822
X22045Y22822
X30392Y22822
X38738Y22822
X38738Y10303
X30392Y10303
X22045Y10303
X13699Y10303
T03
X41844Y32811
X41844Y31811
X40844Y31811
X34844Y29811
X34844Y28811
X36844Y28311
X34844Y27811
X33498Y28811
X33498Y27811
X33498Y26811
X32498Y24311
X31498Y23311
X32498Y23311
X33498Y21811
X34844Y20291
X34844Y19291
X34844Y17291
X34844Y16291
X36844Y15791
X34844Y15291
X34844Y18291
X35844Y19291
X36844Y19291
X37844Y19291
X40844Y19291
X39844Y19291
X38844Y19291
X40844Y11791
X39844Y10791
X40844Y10791
X41844Y9291
X41844Y10291
X41844Y11291
X41844Y12291
X41844Y13291
X41844Y14291
X41844Y15291
X41844Y16291
X41844Y17291
X41844Y18291
X41844Y19291
X41844Y20291
X41844Y21811
X39844Y23311
X40844Y23311
X41844Y23811
X41844Y22811
X39844Y24311
X34844Y25811
X34844Y24811
X33498Y25811
X33498Y24811
X31498Y24311
X26498Y25811
X26498Y24811
X25152Y25811
X24152Y24311
X23152Y23311
X24152Y23311
X25152Y21811
X26498Y20291
X26498Y19291
X26498Y17291
X26498Y16291
X28498Y15791
X26498Y15291
X26498Y18291
X27498Y19291
X28498Y19291
X32498Y19291
X33498Y19291
X33498Y18291
X32498Y11791
X31498Y10791
X32498Y10791
X33498Y9291
X33498Y10291
X33498Y11291
X34844Y11291
X34844Y10291
X34844Y9291
X34844Y13291
X34844Y14291
X33498Y14291
X33498Y13291
X33498Y12291
X34844Y12291
X39844Y11791
X37844Y15791
X33498Y16291
X33498Y15291
X31498Y11791
X26498Y13291
X26498Y14291
X25152Y14291
X24152Y11791
X23152Y10791
X24152Y10791
X25152Y9291
X25152Y10291
X25152Y11291
X26498Y11291
X26498Y10291
X26498Y12291
X25152Y12291
X23152Y11791
X18152Y13291
X18152Y14291
X18152Y17291
X18152Y16291
X18152Y15291
X16805Y12291
X16805Y11291
X16805Y10291
X14805Y10791
X15805Y10791
X15805Y11791
X14805Y11791
X9805Y13291
X9805Y14291
X9805Y16291
X9805Y17291
X15805Y19291
X18152Y20291
X18152Y19291
X18152Y18291
X19152Y19291
X20152Y19291
X21152Y19291
X22152Y19291
X23152Y19291
X24152Y19291
X21152Y15791
X20152Y15791
X25152Y18291
X25152Y19291
X25152Y20291
X26498Y21811
X26498Y23811
X25152Y22811
X25152Y23811
X25152Y24811
X23152Y24311
X18152Y25811
X18152Y24811
X16805Y25811
X16805Y23811
X16805Y22811
X16805Y21811
X16805Y20291
X16805Y19291
X16805Y18291
X16805Y17291
X16805Y16291
X16805Y15291
X16805Y14291
X16805Y13291
X12805Y15791
X11805Y15791
X9805Y15291
X9805Y18291
X9805Y19291
X9805Y20291
X9805Y21811
X9805Y23811
X9805Y22811
X9805Y25811
X9805Y24811
X9805Y28811
X9805Y29811
X15805Y31811
X14805Y31811
X13805Y31811
X12805Y31811
X11805Y31811
X10805Y31811
X9805Y32811
X9805Y31811
X9805Y30811
X11805Y28311
X12805Y28311
X14805Y23311
X15805Y23311
X15805Y24311
X14805Y24311
X16805Y26811
X18152Y29811
X18152Y28811
X18152Y27811
X18152Y26811
X16805Y27811
X16805Y28811
X16805Y29811
X16805Y30811
X16805Y31811
X18152Y31811
X18152Y32811
X19152Y31811
X18152Y30811
X20152Y31811
X21152Y31811
X22152Y31811
X23152Y31811
X24152Y31811
X21152Y28311
X20152Y28311
X25152Y30811
X25152Y31811
X26498Y31811
X26498Y32811
X25152Y32811
X26498Y30811
X32498Y31811
X33498Y31811
X33498Y30811
X34844Y31811
X34844Y32811
X35844Y31811
X36844Y31811
X37844Y31811
X38844Y31811
X39844Y31811
X37844Y28311
X34844Y26811
X29498Y28311
X28498Y28311
X26498Y28811
X26498Y29811
X25152Y29811
X25152Y28811
X25152Y27811
X26498Y26811
X26498Y27811
X25152Y26811
X26498Y22811
X29498Y19291
X30498Y19291
X31498Y19291
X33498Y20291
X34844Y21811
X34844Y23811
X33498Y23811
X33498Y22811
X34844Y22811
X40844Y24311
X41844Y25811
X41844Y24811
X41844Y26811
X41844Y27811
X41844Y28811
X41844Y29811
X41844Y30811
X34844Y30811
X33498Y29811
X29498Y31811
X30498Y31811
X31498Y31811
X33498Y32811
X28498Y31811
X27498Y31811
X18152Y23811
X18152Y22811
X18152Y21811
X16805Y24811
X9805Y26811
X9805Y27811
X16805Y32811
X14805Y19291
X13805Y19291
X12805Y19291
X11805Y19291
X10805Y19291
X9805Y12291
X9805Y11291
X9805Y10291
X9805Y9291
X16805Y9291
X18152Y9291
X18152Y11291
X18152Y10291
X18152Y12291
X25152Y13291
X25152Y15291
X25152Y16291
X25152Y17291
X29498Y15791
X33498Y17291
X26498Y9291
T04
X7557Y6405
X7557Y35696
X44092Y6405
X44092Y35696
M30
